<svg xmlns="http://www.w3.org/2000/svg">
<defs>
<font id="DBAdmanX-Bold" horiz-adv-x="0" >
  <font-face 
    font-family="DB Adman X Bold"
    font-weight="700"
    font-stretch="normal"
    units-per-em="4096"
    panose-1="2 0 5 6 9 0 0 2 0 4"
    ascent="3276"
    descent="-820"
    x-height="1499"
    cap-height="2163"
    bbox="-1999 -1573 3961 3551"
    underline-thickness="82"
    underline-position="-463"
    unicode-range="U+0020-U+F882"
  />
<missing-glyph horiz-adv-x="1696" 
d="M1729 1638v-57h24c19.333 0 29 12.333 29 37c0 2 -2.16699 5.83301 -6.5 11.5s-11.833 8.5 -22.5 8.5h-24zM1741 1577h-12v-57h-21v139h45c32.667 0 49 -13.667 49 -41c0 -18.667 -4.16699 -30.167 -12.5 -34.5s-17.833 -6.5 -28.5 -6.5l41 -57h-20zM1753 1499
c17.333 0 31.832 2.66797 43.499 8.00098s21 12.166 28 20.499s11.833 17.333 14.5 27s4 18.5 4 26.5c0 30.667 -7.16699 54.667 -21.5 72s-37.166 26 -68.499 26c-30.667 0 -54 -8.66699 -70 -26s-24 -41.333 -24 -72c0 -22.667 7.5 -42 22.5 -58s38.833 -24 71.5 -24z
M1753 1692c35.333 0 61.167 -10.833 77.5 -32.5s24.5 -47.834 24.5 -78.501c0 -11.333 -2 -22.5 -6 -33.5s-10.167 -21 -18.5 -30s-19 -16.333 -32 -22s-28.167 -8.5 -45.5 -8.5c-16 0 -30.667 2.83301 -44 8.5s-24.5 13 -33.5 22s-16 19 -21 30s-7.5 22.167 -7.5 33.5
c0 30.667 9.5 56.834 28.5 78.501s44.833 32.5 77.5 32.5zM823 1294c28.667 -2 61.3311 -4.99902 97.998 -8.99902s74.667 -9 114 -15s78.833 -12.833 118.5 -20.5s77 -16.167 112 -25.5s66.333 -19.333 94 -30s49.5 -22.334 65.5 -35.001
c-27.333 54 -63 102.167 -107 144.5s-92.833 78 -146.5 107s-110.667 51 -171 66s-120.833 22.5 -181.5 22.5c-46 0 -91.333 -4.33301 -136 -13s-87.5 -22 -128.5 -40s-79.333 -40.667 -115 -68s-67.5 -59.333 -95.5 -96c49.333 6 98.5 10.167 147.5 12.5
s98.167 3.5 147.5 3.5c30.667 0 61.334 -0.166992 92.001 -0.5s61.334 -1.5 92.001 -3.5zM1536 1618l-0.000976562 -582c-65.333 20.667 -135.833 40 -211.5 58s-155.167 33.667 -238.5 47s-169.666 23.833 -258.999 31.5s-180.666 11.5 -273.999 11.5

<glyph glyph-name="plusminus" unicode="&#x2b;&#x2d;" horiz-adv-x="1618" 
d="M971 983v-573h-324v573h-573v324h573v573h324v-573h573v-324h-573zM1544 324v-324h-1470v324h1470z" />
    <glyph glyph-name="ellipsis" unicode="&#x2e;&#x2e;&#x2e;" horiz-adv-x="2077" 
d="M1962 184c0 -34 -6.33301 -65.6699 -19 -95.0029s-29.834 -54.833 -51.501 -76.5s-47.167 -38.667 -76.5 -51s-61 -18.5 -95 -18.5s-65.667 6.16699 -95 18.5s-54.833 29.333 -76.5 51s-38.667 46.834 -51 75.501s-18.5 59.334 -18.5 92.001c0 34 6.16699 65.667 18.5 95
s29.333 54.833 51 76.5s47.167 38.834 76.5 51.501s61 19 95 19s65.667 -6.33301 95 -19s54.833 -29.667 76.5 -51s38.834 -46.5 51.501 -75.5s19 -59.833 19 -92.5zM1282 183.997c0 -34 -6.16699 -65.6699 -18.5 -95.0029s-29.5 -54.833 -51.5 -76.5
s-47.667 -38.667 -77 -51s-61 -18.5 -95 -18.5s-65.667 6.16699 -95 18.5s-54.833 29.333 -76.5 51s-38.667 46.834 -51 75.501s-18.5 59.334 -18.5 92.001c0 34 6.16699 65.667 18.5 95s29.333 54.833 51 76.5s47.167 38.834 76.5 51.501s61 19 95 19
s65.5 -6.33301 94.5 -19s54.167 -29.667 75.5 -51s38 -46.5 50 -75.5s18 -59.833 18 -92.5h4zM602 183.994c0 -34 -6.16699 -65.6699 -18.5 -95.0029s-29.5 -54.833 -51.5 -76.5s-47.667 -38.667 -77 -51s-61 -18.5 -95 -18.5s-65.667 6.16699 -95 18.5
s-54.833 29.333 -76.5 51s-38.667 46.834 -51 75.501s-18.5 59.334 -18.5 92.001c0 34 6.16699 65.667 18.5 95s29.333 54.833 51 76.5s47.167 38.834 76.5 51.501s61 19 95 19s65.5 -6.33301 94.5 -19s54.167 -29.667 75.5 -51s38 -46.5 50 -75.5s18 -59.833 18 -92.5h4z
" />
    <glyph glyph-name="lessequal" unicode="&#x3c;&#x3d;" horiz-adv-x="1638" 
d="M98 1266v286l1446 721v-372l-966 -492l966 -524v-373zM1544 311v-372l-1446 753v402z" />
    <glyph glyph-name="greaterequal" unicode="&#x3e;&#x3d;" horiz-adv-x="1638" 
d="M98 512v373l967 524l-967 492v372l1446 -721v-286zM1544 1094v-402l-1446 -753v372z" />
    <glyph glyph-name="fongmanfunnuthai" unicode="&#xe4f;&#x22;" horiz-adv-x="2302" 
d="M1237 2085l-37 631h295l-37 -631h-221zM831 2085l-36 631h295l-46 -631h-213zM2146 971c0 -90.667 -12 -178.334 -36 -263.001s-57.833 -164.167 -101.5 -238.5s-96.167 -142 -157.5 -203s-129 -113.5 -203 -157.5s-153.333 -78 -238 -102s-172.334 -36 -263.001 -36
s-178.334 12 -263.001 36s-164.167 58 -238.5 102s-142 96.5 -203 157.5s-113.5 128.667 -157.5 203s-78 153.833 -102 238.5s-36 172.334 -36 263.001s12 178.334 36 263.001s58 164 102 238s96.5 141.667 157.5 203s128.667 113.833 203 157.5s153.833 77.5 238.5 101.5
s172.334 36 263.001 36s178.334 -12 263.001 -36s164 -57.833 238 -101.5s141.667 -96.167 203 -157.5s113.833 -129 157.5 -203s77.5 -153.333 101.5 -238s36 -172.334 36 -263.001zM1651 971c0 -70 -13.167 -135.5 -39.5 -196.5s-62.333 -114.333 -108 -160
s-99.167 -81.667 -160.5 -108s-126.666 -39.5 -195.999 -39.5c-70 0 -135.5 13.167 -196.5 39.5s-114.333 62.333 -160 108s-81.667 99 -108 160s-39.5 126.5 -39.5 196.5c0 69.333 13.167 134.666 39.5 195.999s62.333 114.833 108 160.5s99 81.667 160 108
s126.5 39.5 196.5 39.5c69.333 0 134.666 -13.167 195.999 -39.5s114.833 -62.333 160.5 -108s81.667 -99.167 108 -160.5s39.5 -126.666 39.5 -195.999zM1868 954c0 66.667 -8.66699 131.332 -26 193.999s-41.833 121.334 -73.5 176.001s-69.5 104.5 -113.5 149.5
s-92.833 83.667 -146.5 116s-111 57.5 -172 75.5s-124.167 27 -189.5 27s-128.5 -8.66699 -189.5 -26s-118.333 -41.833 -172 -73.5s-102.5 -69.5 -146.5 -113.5s-81.833 -92.833 -113.5 -146.5s-56.167 -111 -73.5 -172s-26 -124.167 -26 -189.5s8.66699 -128.5 26 -189.5
s41.833 -118.333 73.5 -172s69.5 -102.5 113.5 -146.5s92.833 -81.833 146.5 -113.5s111 -56.167 172 -73.5s124.167 -26 189.5 -26s128.5 8.66699 189.5 26s118 41.833 171 73.5s101.5 69.5 145.5 113.5s81.5 92.833 112.5 146.5s55.167 111 72.5 172s26 124.167 26 189.5z
M1380 970.998c0 32 -6.16699 62 -18.5 90s-29.166 52.667 -50.499 74s-46 38.166 -74 50.499s-58 18.5 -90 18.5s-62.167 -6.16699 -90.5 -18.5s-53.166 -29.166 -74.499 -50.499s-38.166 -46 -50.499 -74s-18.5 -58 -18.5 -90s6.16699 -62.167 18.5 -90.5
s29.166 -53.166 50.499 -74.499s46.166 -38.166 74.499 -50.499s58.5 -18.5 90.5 -18.5s62 6.16699 90 18.5s52.667 29.166 74 50.499s38.166 46.166 50.499 74.499s18.5 58.5 18.5 90.5z" />
    <glyph glyph-name="dochadaphinthuthai" unicode="&#xe0e;&#xe3a;" horiz-adv-x="2019" 
d="M1376 -762c-56 40 -107.836 73.335 -155.503 100.002s-92.667 48.167 -135 64.5s-83.166 27.833 -122.499 34.5s-79 10 -119 10s-80 -3.33301 -120 -10s-81.667 -18.334 -125 -35.001s-89.166 -38.667 -137.499 -66s-101.166 -61.333 -158.499 -102l-217 287
c72.667 50 141.5 92.333 206.5 127s128.167 63 189.5 85s121.666 37.833 180.999 47.5s119.666 14.5 180.999 14.5c84.667 0 167.334 -8.33301 248.001 -25s159 -42.334 235 -77.001l139 131v1229c0 65.333 -12 125.333 -36 180s-58.333 101.667 -103 141
s-98.5 70 -161.5 92s-133.5 33 -211.5 33c-34 0 -67.833 -3.66699 -101.5 -11s-66.5 -17.833 -98.5 -31.5s-62.5 -30 -91.5 -49s-55.833 -40.5 -80.5 -64.5l98 -102v-1241h-569v373h172v737l-197 209c50 86 106.5 163 169.5 231s131.333 125.5 205 172.5
s151.834 83 234.501 108s169 37.5 259 37.5c131.333 0 252.5 -20.167 363.5 -60.5s207 -96.666 288 -168.999s144.333 -158.333 190 -258s68.5 -208.834 68.5 -327.501v-1364zM1905 -1032c0 -32.667 -6.16602 -63.498 -18.499 -92.498s-29.166 -54.167 -50.499 -75.5
s-46.166 -38.333 -74.499 -51s-58.5 -19 -90.5 -19c-32.667 0 -63.334 6.16699 -92.001 18.5s-53.834 29.166 -75.501 50.499s-38.667 46.166 -51 74.499s-18.5 58.5 -18.5 90.5c0 32.667 6.16699 63.334 18.5 92.001s29.166 53.834 50.499 75.501s46 38.667 74 51
s58 18.5 90 18.5c32.667 0 63.5 -6.16699 92.5 -18.5s54.167 -29.333 75.5 -51s38.333 -46.834 51 -75.501s19 -59.334 19 -92.001v4z" />
    <glyph glyph-name="topatakphintuthai" unicode="&#xe0f;&#xe3a;" horiz-adv-x="2019" 
d="M1331 -774l-318.999 287l-320 -287l-536 479l221 254l328 -278l307 274l307 -274l151 126v1246c0 65.333 -12.333 125.166 -37 179.499s-59.5 101 -104.5 140s-99.167 69.167 -162.5 90.5s-134 32 -212 32c-68 0 -134.667 -13.333 -200 -40s-122.666 -64 -171.999 -112
l98 -102v-1241h-569v373h172v737l-197 209c52 86 109.667 163 173 231s131.5 125.5 204.5 172.5s150.5 83 232.5 108s168 37.5 258 37.5c88 0 171.667 -9.16699 251 -27.5s152.666 -44.666 219.999 -78.999s128.166 -76 182.499 -125s100.5 -103.833 138.5 -164.5
s67.167 -126.5 87.5 -197.5s30.5 -146.167 30.5 -225.5v-1352zM1905 -1032c0 -32.667 -6.16602 -63.498 -18.499 -92.498s-29.166 -54.167 -50.499 -75.5s-46.166 -38.333 -74.499 -51s-58.5 -19 -90.5 -19c-32.667 0 -63.334 6.16699 -92.001 18.5
s-53.834 29.166 -75.501 50.499s-38.667 46.166 -51 74.499s-18.5 58.5 -18.5 90.5c0 32.667 6.16699 63.334 18.5 92.001s29.166 53.834 50.499 75.501s46 38.667 74 51s58 18.5 90 18.5c32.667 0 63.5 -6.16699 92.5 -18.5s54.167 -29.333 75.5 -51
s38.333 -46.834 51 -75.501s19 -59.334 19 -92.001v4z" />
    <glyph glyph-name="dochadasarauthai" unicode="&#xe0e;&#xe38;" horiz-adv-x="2019" 
d="M1376 -754c-56 40 -107.836 73.333 -155.503 100s-92.667 48.167 -135 64.5s-83.166 27.833 -122.499 34.5s-79 10 -119 10s-80 -3.33301 -120 -10s-81.667 -18.334 -125 -35.001s-89.166 -38.667 -137.499 -66s-101.166 -61.333 -158.499 -102l-217 291
c72.667 49.333 141.5 91.333 206.5 126s128.167 63 189.5 85s121.666 38 180.999 48s119.666 15 180.999 15c84.667 0 167.334 -8.16699 248.001 -24.5s159 -42.166 235 -77.499l139 131v1217c0 65.333 -12 125.333 -36 180s-58.333 101.667 -103 141s-98.5 70 -161.5 92
s-133.5 33 -211.5 33c-34 0 -67.833 -3.66699 -101.5 -11s-66.5 -17.833 -98.5 -31.5s-62.5 -30 -91.5 -49s-55.833 -40.5 -80.5 -64.5l98 -102v-1241h-569v373h172v737l-197 209c50 86 106.5 163 169.5 231s131.333 125.5 205 172.5s151.834 83 234.501 108
s169 37.5 259 37.5c131.333 0 252.5 -20.167 363.5 -60.5s207 -96.666 288 -168.999s144.333 -158.333 190 -258s68.5 -208.834 68.5 -327.501v-1356zM1491 -1520v328h-168v373h340c28 0 54.167 -5.33301 78.5 -16s45.5 -25 63.5 -43s32.333 -39.167 43 -63.5
s16 -50.5 16 -78.5v-500h-373z" />
    <glyph glyph-name="topataksarauthai" unicode="&#xe0f;&#xe38;" horiz-adv-x="2019" 
d="M1331 -774l-318.999 287l-320 -287l-536 479l221 254l328 -278l307 274l307 -274l151 126v1246c0 65.333 -12.333 125.166 -37 179.499s-59.5 101 -104.5 140s-99.167 69.167 -162.5 90.5s-134 32 -212 32c-68 0 -134.667 -13.333 -200 -40s-122.666 -64 -171.999 -112
l98 -102v-1241h-569v373h172v737l-197 209c52 86 109.667 163 173 231s131.5 125.5 204.5 172.5s150.5 83 232.5 108s168 37.5 258 37.5c88 0 171.667 -9.16699 251 -27.5s152.666 -44.666 219.999 -78.999s128.166 -76 182.499 -125s100.5 -103.833 138.5 -164.5
s67.167 -126.5 87.5 -197.5s30.5 -146.167 30.5 -225.5v-1352zM1491 -1520v328h-164v373h336c28 0 54.167 -5.33301 78.5 -16s45.5 -25 63.5 -43s32.333 -39.167 43 -63.5s16 -50.5 16 -78.5v-500h-373z" />
    <glyph glyph-name="dochadasarauuthai" unicode="&#xe0e;&#xe39;" horiz-adv-x="2019" 
d="M1376 -754c-56 40 -107.836 73.333 -155.503 100s-92.667 48.167 -135 64.5s-83.166 27.833 -122.499 34.5s-79 10 -119 10s-80 -3.33301 -120 -10s-81.667 -18.334 -125 -35.001s-89.166 -38.667 -137.499 -66s-101.166 -61.333 -158.499 -102l-217 291
c72.667 49.333 141.5 91.333 206.5 126s128.167 63 189.5 85s121.666 38 180.999 48s119.666 15 180.999 15c84.667 0 167.334 -8.16699 248.001 -24.5s159 -42.166 235 -77.499l139 131v1217c0 65.333 -12 125.333 -36 180s-58.333 101.667 -103 141s-98.5 70 -161.5 92
s-133.5 33 -211.5 33c-34 0 -67.833 -3.66699 -101.5 -11s-66.5 -17.833 -98.5 -31.5s-62.5 -30 -91.5 -49s-55.833 -40.5 -80.5 -64.5l98 -102v-1241h-569v373h172v737l-197 209c50 86 106.5 163 169.5 231s131.333 125.5 205 172.5s151.834 83 234.501 108
s169 37.5 259 37.5c131.333 0 252.5 -20.167 363.5 -60.5s207 -96.666 288 -168.999s144.333 -158.333 190 -258s68.5 -208.834 68.5 -327.501v-1356zM1864 -1159c0 -57.333 -11.166 -111.168 -33.499 -161.501s-52.833 -94.166 -91.5 -131.499s-83.5 -66.833 -134.5 -88.5
s-105.167 -32.5 -162.5 -32.5c-54 0 -107.5 9 -160.5 27s-100.5 43.5 -142.5 76.5s-75.833 73 -101.5 120s-38.5 99.5 -38.5 157.5h-168v373h533v-332c0 -18.667 5.16699 -35 15.5 -49s27.166 -21 50.499 -21c43.333 0 65 22 65 66v336h369v-340z" />
    <glyph glyph-name="topataksarauuthai" unicode="&#xe0f;&#xe39;" horiz-adv-x="2019" 
d="M1331 -774l-318.999 287l-320 -287l-536 479l221 254l328 -278l307 274l307 -274l151 126v1246c0 65.333 -12.333 125.166 -37 179.499s-59.5 101 -104.5 140s-99.167 69.167 -162.5 90.5s-134 32 -212 32c-68 0 -134.667 -13.333 -200 -40s-122.666 -64 -171.999 -112
l98 -102v-1241h-569v373h172v737l-197 209c52 86 109.667 163 173 231s131.5 125.5 204.5 172.5s150.5 83 232.5 108s168 37.5 258 37.5c88 0 171.667 -9.16699 251 -27.5s152.666 -44.666 219.999 -78.999s128.166 -76 182.499 -125s100.5 -103.833 138.5 -164.5
s67.167 -126.5 87.5 -197.5s30.5 -146.167 30.5 -225.5v-1352zM1864 -1159c0 -57.333 -11.166 -111.168 -33.499 -161.501s-52.833 -94.166 -91.5 -131.499s-83.5 -66.833 -134.5 -88.5s-105.167 -32.5 -162.5 -32.5c-54 0 -107.5 9 -160.5 27s-100.5 43.5 -142.5 76.5
s-75.833 73 -101.5 120s-38.5 99.5 -38.5 157.5h-168v373h533v-332c0 -18.667 5.16699 -35 15.5 -49s27.166 -21 50.499 -21c43.333 0 65 22 65 66v336h369v-340z" />
    <glyph glyph-name=".notdef" horiz-adv-x="1696" 
d="M1729 1638v-57h24c19.333 0 29 12.333 29 37c0 2 -2.16699 5.83301 -6.5 11.5s-11.833 8.5 -22.5 8.5h-24zM1741 1577h-12v-57h-21v139h45c32.667 0 49 -13.667 49 -41c0 -18.667 -4.16699 -30.167 -12.5 -34.5s-17.833 -6.5 -28.5 -6.5l41 -57h-20zM1753 1499
c17.333 0 31.832 2.66797 43.499 8.00098s21 12.166 28 20.499s11.833 17.333 14.5 27s4 18.5 4 26.5c0 30.667 -7.16699 54.667 -21.5 72s-37.166 26 -68.499 26c-30.667 0 -54 -8.66699 -70 -26s-24 -41.333 -24 -72c0 -22.667 7.5 -42 22.5 -58s38.833 -24 71.5 -24z
M1753 1692c35.333 0 61.167 -10.833 77.5 -32.5s24.5 -47.834 24.5 -78.501c0 -11.333 -2 -22.5 -6 -33.5s-10.167 -21 -18.5 -30s-19 -16.333 -32 -22s-28.167 -8.5 -45.5 -8.5c-16 0 -30.667 2.83301 -44 8.5s-24.5 13 -33.5 22s-16 19 -21 30s-7.5 22.167 -7.5 33.5
c0 30.667 9.5 56.834 28.5 78.501s44.833 32.5 77.5 32.5zM823 1294c28.667 -2 61.3311 -4.99902 97.998 -8.99902s74.667 -9 114 -15s78.833 -12.833 118.5 -20.5s77 -16.167 112 -25.5s66.333 -19.333 94 -30s49.5 -22.334 65.5 -35.001
c-27.333 54 -63 102.167 -107 144.5s-92.833 78 -146.5 107s-110.667 51 -171 66s-120.833 22.5 -181.5 22.5c-46 0 -91.333 -4.33301 -136 -13s-87.5 -22 -128.5 -40s-79.333 -40.667 -115 -68s-67.5 -59.333 -95.5 -96c49.333 6 98.5 10.167 147.5 12.5
s98.167 3.5 147.5 3.5c30.667 0 61.334 -0.166992 92.001 -0.5s61.334 -1.5 92.001 -3.5zM1536 1618l-0.000976562 -582c-65.333 20.667 -135.833 40 -211.5 58s-155.167 33.667 -238.5 47s-169.666 23.833 -258.999 31.5s-180.666 11.5 -273.999 11.5
c-66 0 -130.667 -2 -194 -6s-127 -10.333 -191 -19c16 61.333 42 119.833 78 175.5s81.167 104.5 135.5 146.5s117.5 75.333 189.5 100s152 37 240 37c84.667 0 161.167 -9.5 229.5 -28.5s128 -42.5 179 -70.5s93.667 -57.833 128 -89.5s60.166 -60.5 77.499 -86.5
c0 -2 -0.166992 1.66699 -0.5 11s-0.5 22 -0.5 38s-0.333008 34.333 -1 55s-1 41.5 -1 62.5s-0.166992 41 -0.5 60s-0.5 35.167 -0.5 48.5h115zM626.996 520.002c0 22.667 -7.5 39.334 -22.5 50.001s-30.833 16 -47.5 16c-18.667 0 -35 -5.33301 -49 -16
s-21 -27.334 -21 -50.001s7 -38.5 21 -47.5s30.333 -13.5 49 -13.5c8 0 16.167 1 24.5 3s15.833 5.5 22.5 10.5s12.167 11.333 16.5 19s6.5 17.167 6.5 28.5zM130.996 569.002c0 63.333 12.501 119.334 37.501 168.001s57.833 89.334 98.5 122.001s87 57.334 139 74.001
s105 25 159 25s106.5 -7.33301 157.5 -22s96 -37.167 135 -67.5s70.333 -68.833 94 -115.5s35.5 -102.334 35.5 -167.001v-475h434v827h115v-934h-774v107h119v487c0 40.667 -8 76.5 -24 107.5s-38 56.667 -66 77s-61 35.666 -99 45.999s-79 15.5 -123 15.5
c-40.667 0 -80.167 -5.83301 -118.5 -17.5s-72.333 -28.5 -102 -50.5s-53.5 -49 -71.5 -81s-27 -68.333 -27 -109v-439l237 238c-7.33301 2.66699 -15.833 7.5 -25.5 14.5s-19 16 -28 27s-16.667 24.167 -23 39.5s-9.5 33.333 -9.5 54c0 49.333 15 88.333 45 117
s69.667 43 119 43c23.333 0 44.666 -4.33301 63.999 -13s35.833 -20.334 49.5 -35.001s24.167 -31.667 31.5 -51s11 -39.666 11 -60.999c0 -19.333 -2.16699 -36.333 -6.5 -51s-9.83301 -27.334 -16.5 -38.001s-13.5 -19.667 -20.5 -27l-18.5 -19l-23.5 -22.5l-46.5 -44.5
l-62.5 -60.5l-71.5 -69.5l-92 -85.5l-101 -98.5h-131v565z" />
    <glyph glyph-name="space" unicode=" " horiz-adv-x="1024" 
 />
    <glyph glyph-name="exclam" unicode="!" horiz-adv-x="881" 
d="M655 1270l-53 -717h-328l-49 717v893h430v-893zM696 205c0 -36 -6.66699 -69 -20 -99s-31.666 -56 -54.999 -78s-50.666 -39 -81.999 -51s-65 -18 -101 -18s-69.667 6 -101 18s-58.666 29 -81.999 51s-41.666 48 -54.999 78s-20 63 -20 99s6.66699 69.167 20 99.5
s31.666 56.666 54.999 78.999s50.666 39.833 81.999 52.5s65 19 101 19s69.667 -6.33301 101 -19s58.666 -30.167 81.999 -52.5s41.666 -48.666 54.999 -78.999s20 -63.5 20 -99.5z" />
    <glyph glyph-name="quotedbl" unicode="&#x22;" horiz-adv-x="987" 
d="M864 1401h-278l-33 799h348zM393 1401h-266l-37 799h344z" />
    <glyph glyph-name="numbersign" unicode="#" horiz-adv-x="1839" 
d="M1409 1192l-41 -266h295v-336h-348l-98 -590h-332l94 590h-225l-86 -590h-340l86 590h-303v336h352l37 266h-312v336h357l82 549h348l-86 -549h229l82 549h344l-82 -549h271v-336h-324zM840 1192l-41 -266h233l33 266h-225z" />
    <glyph glyph-name="dollar" unicode="$" horiz-adv-x="1753" 
d="M1708 647c0 -54 -7.49902 -105.83 -22.499 -155.497s-36.167 -96.834 -63.5 -141.501s-60.333 -86.167 -99 -124.5s-81.334 -73 -128.001 -104s-96.834 -57.833 -150.501 -80.5s-109.5 -40.334 -167.5 -53.001v-332h-295v311c-328 25.333 -576.333 224.666 -745 597.999
l373 160c29.333 -65.333 59 -121.333 89 -168s60.333 -85.667 91 -117s61.834 -55.833 93.501 -73.5s64.5 -30.5 98.5 -38.5v671l-142 61.5c-47.333 21 -92.666 44 -135.999 69s-84 52.333 -122 82s-71 63 -99 100s-50 78 -66 123s-24 95.167 -24 150.5
c0 78.667 14 152.334 42 221.001s67.667 129.5 119 182.5s113.166 97 185.499 132s153.166 58.5 242.499 70.5v299h295v-307c104.667 -22.667 203.334 -66.5 296.001 -131.5s181 -154.833 265 -269.5l-327 -230c-24.667 32 -47.667 60.167 -69 84.5s-41.5 46 -60.5 65
s-37 35.667 -54 50s-33.833 27.166 -50.5 38.499v-516l164.5 -70c53 -22.667 102.833 -47 149.5 -73s89.5 -54.167 128.5 -84.5s72.5 -64.833 100.5 -103.5s49.667 -82.167 65 -130.5s23 -103.5 23 -165.5zM782.001 1823c-24.667 -8 -47.5 -18.668 -68.5 -32.001
s-39.167 -29.333 -54.5 -48s-27.333 -40.334 -36 -65.001s-13 -53 -13 -85c0 -23.333 5.33301 -44.166 16 -62.499s24.334 -34.666 41.001 -48.999s35.167 -27 55.5 -38s40.166 -21.167 59.499 -30.5v410zM1286 647.002c0 26 -7 49.667 -21 71s-31.5 41 -52.5 59
s-43.667 34.167 -68 48.5l-67.5 38.5v-508c63.333 26.667 114 64 152 112s57 107.667 57 179z" />
    <glyph glyph-name="percent" unicode="%" horiz-adv-x="2322" 
d="M1061 1683c0 -68.667 -13 -132.167 -39 -190.5s-61.5 -108.833 -106.5 -151.5s-97.833 -76.167 -158.5 -100.5s-126 -36.5 -196 -36.5c-69.333 0 -134.666 12.167 -195.999 36.5s-114.833 57.833 -160.5 100.5s-81.667 93.167 -108 151.5s-39.5 121.833 -39.5 190.5
c0 70 13 134.667 39 194s61.667 110.833 107 154.5s98.666 77.834 159.999 102.5c61.333 24.667 127.333 37 198 37c70 0 135.333 -12.333 196 -37s113.5 -58.834 158.5 -102.5c45 -43.667 80.5 -95.167 106.5 -154.5s39 -124 39 -194zM664 -102l-299 176l1273 2179
l324 -148zM2257 475c0 -69.333 -13.333 -133.333 -40 -192s-63 -109.334 -109 -152.001s-99.5 -75.834 -160.5 -99.501s-125.833 -35.5 -194.5 -35.5c-67.333 0 -131.5 11.833 -192.5 35.5s-114.5 56.834 -160.5 99.501s-82.667 93.334 -110 152.001s-41 122.667 -41 192
c0 70.667 13.333 135.667 40 195s63 110.333 109 153s99.5 75.834 160.5 99.501s125.833 35.5 194.5 35.5s133.5 -11.833 194.5 -35.5s114.5 -56.834 160.5 -99.501s82.333 -93.667 109 -153s40 -124.333 40 -195zM737 1683c0 24 -4.83301 46.167 -14.5 66.5
s-22.5 38 -38.5 53s-34.667 26.833 -56 35.5s-43.666 13 -66.999 13c-24.667 0 -47.667 -4.33301 -69 -13s-40 -20.5 -56 -35.5s-28.5 -32.667 -37.5 -53s-13.5 -42.5 -13.5 -66.5c0 -23.333 4.5 -45 13.5 -65s21.5 -37.333 37.5 -52s34.667 -26 56 -34s44.333 -12 69 -12
c23.333 0 45.666 4.5 66.999 13.5s40 21 56 36s28.833 32.333 38.5 52s14.5 40.167 14.5 61.5zM1933 475c0 23.333 -4.83301 45.5 -14.5 66.5s-22.667 39.333 -39 55s-35.333 28 -57 37s-44.834 13.5 -69.501 13.5s-47.667 -4.5 -69 -13.5s-40 -21.333 -56 -37
s-28.5 -34 -37.5 -55s-13.5 -43.167 -13.5 -66.5s4.5 -45 13.5 -65s21.5 -37.333 37.5 -52s34.667 -26.167 56 -34.5s44.333 -12.5 69 -12.5s47.834 4.16699 69.501 12.5s40.667 19.833 57 34.5s29.333 32 39 52s14.5 41.667 14.5 65z" />
    <glyph glyph-name="ampersand" unicode="&#x26;" horiz-adv-x="2269" 
d="M1827 0l-265.999 295.003c-48 -42 -98 -83 -150 -123s-106 -76.167 -162 -108.5s-114.333 -59.333 -175 -81s-123.667 -34.834 -189 -39.501c-90 -8 -175.5 1.5 -256.5 28.5s-152.667 67.167 -215 120.5s-113.5 117.166 -153.5 191.499s-64 154.5 -72 240.5
c-5.33301 59.333 -2.83301 115.5 7.5 168.5s26.333 103 48 150s48 91.667 79 134s64.667 82.333 101 120s74.333 73.667 114 108l117.5 98.5c-23.333 25.333 -45.5 52.166 -66.5 80.499s-39.667 58 -56 89s-30 63.667 -41 98s-17.833 70.5 -20.5 108.5
c-5.33301 68.667 3 134.5 25 197.5s54.167 119.167 96.5 168.5s93 89.5 152 120.5s123.5 49.167 193.5 54.5c70.667 5.33301 137.167 -2.83398 199.5 -24.5c62.333 -21.667 117.333 -53 165 -94s86.167 -89.667 115.5 -146s46.666 -116.833 51.999 -181.5
c5.33301 -59.333 1.5 -114.5 -11.5 -165.5s-32 -98.5 -57 -142.5s-54.667 -84.5 -89 -121.5s-70.5 -71.5 -108.5 -103.5l352 -389l218 246l311 -226l-266 -307l495 -565h-487zM1090 1741c-6.66699 39.333 -21.8311 68.8311 -45.498 88.498s-50.834 28.167 -81.501 25.5
c-12.667 -1.33301 -25.834 -6.16602 -39.501 -14.499s-26 -19.666 -37 -33.999s-19.667 -31 -26 -50s-7.83301 -39.167 -4.5 -60.5c0.666992 -15.333 4.5 -30.833 11.5 -46.5s15.5 -31 25.5 -46s20.333 -29.167 31 -42.5l30 -37l49 43c17.333 15.333 33 32 47 50
s24.833 37.333 32.5 58s10.167 42.667 7.5 66zM913.004 1012l-71.498 -54.499c-25.667 -19.667 -51.334 -40.834 -77.001 -63.501s-50.334 -46.5 -74.001 -71.5s-44 -51.167 -61 -78.5s-30 -55.666 -39 -84.999s-11.833 -59.333 -8.5 -90
c2.66699 -40.667 12 -77.5 28 -110.5s36.333 -61 61 -84s52.5 -40.167 83.5 -51.5s63.5 -15.333 97.5 -12c36 3.33301 72 12.333 108 27s72.333 34 109 58s74 51.667 112 83s77 65.666 117 102.999z" />
    <glyph glyph-name="quotesingle" unicode="'" horiz-adv-x="659" 
d="M459 1401h-266l-37 799h348z" />
    <glyph glyph-name="parenleft" unicode="(" horiz-adv-x="971" 
d="M909 2204c-149.333 -221.333 -260.335 -437.832 -333.002 -649.499s-109 -423.834 -109 -636.501c0 -78 3.16699 -151.333 9.5 -220s16.5 -136.167 30.5 -202.5s31.833 -132.666 53.5 -198.999s47.834 -135.833 78.501 -208.5s66 -150.167 106 -232.5l136 -269.5
l-377 -12c-70.667 109.333 -132.667 220.333 -186 333s-97.666 225.667 -132.999 339s-62 226.666 -80 339.999s-27 225.333 -27 336c0 111.333 9.5 221.5 28.5 330.5s46.5 217.167 82.5 324.5s80.167 214.5 132.5 321.5s111.833 214.167 178.5 321.5z" />
    <glyph glyph-name="parenright" unicode=")" horiz-adv-x="971" 
d="M909 922c0 -110.667 -9.00293 -222.668 -27.0029 -336.001s-44.667 -226.666 -80 -339.999s-79.666 -226.333 -132.999 -339s-115.333 -223.667 -186 -333l-377 12l136 269.5c40 82.333 75.333 159.833 106 232.5s57 142.167 79 208.5s39.833 132.666 53.5 198.999
s23.667 133.833 30 202.5s9.5 142 9.5 220c0 212.667 -36.833 424.834 -110.5 636.501s-184.167 428.167 -331.5 649.5l405 16c66.667 -107.333 126.334 -214.5 179.001 -321.5s97.334 -214.167 134.001 -321.5s64.667 -215.5 84 -324.5s29 -219.167 29 -330.5z" />
    <glyph glyph-name="asterisk" unicode="*" horiz-adv-x="1442" 
d="M983 1548l229 -311l-270 -209l-213 303l-225 -303l-271 209l230 311l-365 111l111 323l352 -122l-12 385h344l-8 -385l352 122l111 -323z" />
    <glyph glyph-name="plus" unicode="+" horiz-adv-x="1618" 
d="M971 635v-574h-324v574h-573v323h573v574h324v-574h573v-323h-573z" />
    <glyph glyph-name="comma" unicode="," horiz-adv-x="696" 
d="M598 131c0 -80 -30.8291 -164.669 -92.4961 -254.002s-157.834 -178 -288.501 -266l-156 164c30 19.333 56.333 37 79 53s43 31.667 61 47s34.167 31 48.5 47s28.166 33.667 41.499 53c-58 14.667 -103.333 40.334 -136 77.001s-49 80.667 -49 132
c0 30 5.83301 58.833 17.5 86.5s28 52.167 49 73.5s45.667 38.333 74 51s59.5 19 93.5 19c44 0 82.167 -8.83301 114.5 -26.5s59.166 -40.167 80.499 -67.5s37.166 -57.666 47.499 -90.999s15.5 -66 15.5 -98z" />
    <glyph glyph-name="hyphen" unicode="-" horiz-adv-x="1176" 
d="M106 635v328h963v-328h-963z" />
    <glyph glyph-name="period" unicode="." horiz-adv-x="696" 
d="M590 209c0 -34 -6.33301 -65.6641 -19 -94.9971s-29.834 -54.833 -51.501 -76.5s-47.167 -38.834 -76.5 -51.501s-61 -19 -95 -19s-65.667 6.33301 -95 19s-54.833 29.667 -76.5 51s-38.834 46.5 -51.501 75.5s-19 59.833 -19 92.5c0 34 6.33301 65.667 19 95
s29.834 54.833 51.501 76.5s47.167 38.667 76.5 51s61 18.5 95 18.5s65.667 -6.16699 95 -18.5s54.833 -29.333 76.5 -51s38.834 -46.834 51.501 -75.501s19 -59.334 19 -92.001z" />
    <glyph glyph-name="slash" unicode="/" horiz-adv-x="2123" 
d="M515 -323h-410l1516 2756h397z" />
    <glyph glyph-name="zero" unicode="0" horiz-adv-x="1761" 
d="M1675 1094c0 -89.333 -7.16797 -179.333 -21.501 -270s-36.166 -177.667 -65.499 -261s-65.833 -161.333 -109.5 -234s-95.167 -135.834 -154.5 -189.501s-126.166 -95.834 -200.499 -126.501s-156.5 -46 -246.5 -46s-172.333 15.333 -247 46
s-141.5 72.834 -200.5 126.501s-110.5 116.834 -154.5 189.501s-80.667 150.667 -110 234s-51.166 170.333 -65.499 261s-21.5 180.667 -21.5 270s7.33301 178.5 22 267.5s36.667 174.333 66 256s66 157.667 110 228s95.667 131.333 155 183s126.166 92.334 200.499 122
c74.333 29.667 156.166 44.5 245.499 44.5s171 -14.833 245 -44.5s140.667 -70.334 200 -122c59.333 -51.667 111 -112.667 155 -183s80.667 -146.333 110 -228s51.333 -167 66 -256s22 -178.167 22 -267.5zM1266 1094c0 68 -5.00098 133.001 -15.001 195.001
s-23.833 119.5 -41.5 172.5s-38.667 101 -63 144s-50.833 79.667 -79.5 110s-59.167 53.666 -91.5 69.999s-65.166 24.5 -98.499 24.5c-50 0 -98.667 -18.167 -146 -54.5s-89.333 -86.5 -126 -150.5s-66.167 -139.667 -88.5 -227s-33.5 -182 -33.5 -284
c0 -114.667 11.167 -218 33.5 -310s51.833 -170.333 88.5 -235s78.667 -114.334 126 -149.001s96 -52 146 -52s98.333 17.333 145 52s88.167 84.334 124.5 149.001s65.333 143 87 235s32.5 195.333 32.5 310z" />
    <glyph glyph-name="one" unicode="1" horiz-adv-x="1761" 
d="M733 -4v1782h-381v385h787v-2167h-406z" />
    <glyph glyph-name="two" unicode="2" horiz-adv-x="1761" 
d="M1618 1499c0 -51.333 -6.16602 -101.171 -18.499 -149.504s-29 -94.833 -50 -139.5s-45.167 -87.667 -72.5 -129s-56.166 -80.666 -86.499 -117.999s-61.166 -72.5 -92.499 -105.5l-90 -91.5l-393 -389h795v-377h-1446v283l729 721
c40.667 40.667 80.334 82.834 119.001 126.501s72.667 87.334 102 131.001s53 86.334 71 128.001s27 80.834 27 117.501c0 44 -8.33301 84.833 -25 122.5s-39.667 70.167 -69 97.5s-63.666 48.833 -102.999 64.5s-81.333 23.5 -126 23.5c-44 0 -85.5 -8 -124.5 -24
s-73 -41.667 -102 -77s-51.833 -81.833 -68.5 -139.5s-25 -127.834 -25 -210.501h-409c2 95.333 13 182 33 260s46.833 147.667 80.5 209s73.167 114.5 118.5 159.5s94.666 82.167 147.999 111.5s109.666 51.166 168.999 65.5c59.333 14.333 119.333 21.5 180 21.5
c67.333 0 132.166 -8 194.499 -24s120.5 -38.667 174.5 -68s103.167 -64.833 147.5 -106.5s82.166 -88.167 113.499 -139.5s55.666 -106.833 72.999 -166.5s26 -122.167 26 -187.5z" />
    <glyph glyph-name="three" unicode="3" horiz-adv-x="1761" 
d="M1577 664c0 -95.333 -16.1611 -185.168 -48.4941 -269.501s-79 -158.166 -140 -221.499s-135.333 -113.5 -223 -150.5s-186.834 -55.5 -297.501 -55.5c-91.333 0 -178.333 15.5 -261 46.5s-155.667 78.167 -219 141.5s-114.5 143 -153.5 239s-59.833 209 -62.5 339h397
c3.33301 -70.667 12.666 -130.5 27.999 -179.5s35.833 -88.667 61.5 -119s55.834 -52.333 90.501 -66s73 -20.5 115 -20.5c44 0 84.5 7.66699 121.5 23s69 36.833 96 64.5s48 60.167 63 97.5s22.5 78 22.5 122c0 36 -6.5 69.667 -19.5 101s-34.5 59.166 -64.5 83.499
s-69.333 45 -118 62s-108.334 29.167 -179.001 36.5v360c66 7.33301 121.167 19.5 165.5 36.5s80.166 37.5 107.499 61.5s46.833 51 58.5 81s17.5 62 17.5 96c0 36.667 -6.16699 69.667 -18.5 99s-29.333 54.166 -51 74.499s-47.5 36 -77.5 47s-63 16.5 -99 16.5
c-32.667 0 -63.834 -5.33301 -93.501 -16s-55.834 -29.667 -78.501 -57s-40.667 -64.5 -54 -111.5s-20 -106.833 -20 -179.5h-405c0 126 16.333 235.833 49 329.5s78 171.667 136 234s127 108.833 207 139.5s167.667 46 263 46c59.333 0 116.666 -7 171.999 -21
s107 -33.833 155 -59.5s92 -57.167 132 -94.5s74.167 -79.166 102.5 -125.499s50.333 -96.833 66 -151.5s23.5 -112.667 23.5 -174c0 -86.667 -15.333 -166.5 -46 -239.5s-78 -139.5 -142 -199.5c72 -63.333 126.833 -134.666 164.5 -213.999s56.5 -163.333 56.5 -252z" />
    <glyph glyph-name="four" unicode="4" horiz-adv-x="1761" 
d="M1442 356v-356h-410v356h-979v299l1069 1508h320v-1418h237v-389h-237zM1032 1368l-446 -623h446v623z" />
    <glyph glyph-name="five" unicode="5" horiz-adv-x="1761" 
d="M1671 774c0 -78.667 -10.168 -153.17 -30.501 -223.503s-49 -135.333 -86 -195s-81.333 -113.5 -133 -161.5s-108.834 -88.833 -171.501 -122.5s-129.667 -59.5 -201 -77.5s-145.333 -27 -222 -27c-70.667 0 -140.667 9.16699 -210 27.5s-137 48 -203 89
s-129.833 94.333 -191.5 160s-119.5 145.5 -173.5 239.5l365 156c38 -57.333 75.167 -104.666 111.5 -141.999s71.833 -67 106.5 -89s68.667 -37.5 102 -46.5s65.666 -13.5 96.999 -13.5c61.333 0 118.5 10.333 171.5 31s99 49.834 138 87.501s69.667 82.834 92 135.501
s33.5 111.334 33.5 176.001c0 55.333 -11.5 107.166 -34.5 155.499s-54 90.5 -93 126.5s-84.167 64.333 -135.5 85s-105.666 31 -162.999 31c-32.667 0 -68.167 -2.83301 -106.5 -8.5s-80.666 -15.667 -126.999 -30s-96.833 -33.333 -151.5 -57s-115 -53.5 -181 -89.5v1172
h1213v-381h-803v-246c30.667 6 61.167 10.833 91.5 14.5s59.833 5.5 88.5 5.5c76.667 0 149.834 -9.33301 219.501 -28s134.334 -45 194.001 -79s113.667 -74.833 162 -122.5s89.666 -100.5 123.999 -158.5s60.833 -120.333 79.5 -187s28 -135.667 28 -207z" />
    <glyph glyph-name="six" unicode="6" horiz-adv-x="1761" 
d="M1671 770c0 -71.333 -9.33301 -140.494 -28 -207.494s-44.834 -130.333 -78.501 -190s-74.334 -114.334 -122.001 -164.001s-100.667 -92.334 -159 -128.001s-121.166 -63.5 -188.499 -83.5s-137.333 -30 -210 -30c-73.333 0 -143.666 9.66699 -210.999 29
s-130.166 46.333 -188.499 81s-111.333 76.5 -159 125.5s-88.334 103.333 -122.001 163s-59.834 123.667 -78.501 192s-28 139.166 -28 212.499c0 48 3.5 93.833 10.5 137.5s17.167 85.5 30.5 125.5s29.666 78.833 48.999 116.5s41.333 75.167 66 112.5l610 905h488
l-406 -594c68.667 -5.33301 134.334 -19.333 197.001 -42s121 -52.334 175 -89.001s102.667 -79.334 146 -128.001s80.333 -101.834 111 -159.501s54.334 -119 71.001 -184s25 -131.833 25 -200.5zM1266 770.006c0 59.333 -10.667 114.5 -32 165.5
s-49.666 95.167 -84.999 132.5s-76 66.666 -122 87.999s-93.333 32 -142 32c-49.333 0 -96.666 -10.167 -141.999 -30.5s-85.5 -49 -120.5 -86s-62.833 -81.167 -83.5 -132.5s-31 -107.666 -31 -168.999s10.333 -117.666 31 -168.999s48.5 -95.5 83.5 -132.5
s75.167 -65.667 120.5 -86s92.666 -30.5 141.999 -30.5c48.667 0 96 10.667 142 32s86.667 50.666 122 87.999s63.666 81.5 84.999 132.5s32 106.167 32 165.5z" />
    <glyph glyph-name="seven" unicode="7" horiz-adv-x="1761" 
d="M594 0h-459l1024 1778h-1028v385h1516v-328z" />
    <glyph glyph-name="eight" unicode="8" horiz-adv-x="1761" 
d="M1589 627c0 -63.333 -8.83594 -123.665 -26.5029 -180.998s-42.167 -110.5 -73.5 -159.5s-69 -93.167 -113 -132.5s-92.167 -72.833 -144.5 -100.5s-108.166 -49 -167.499 -64s-120.333 -22.5 -183 -22.5s-123.834 7.5 -183.501 22.5s-115.667 36.333 -168 64
s-100.5 61.167 -144.5 100.5s-81.667 83.5 -113 132.5s-55.833 102.167 -73.5 159.5s-26.5 117.666 -26.5 180.999c0 209.333 73.667 377 221 503c-60 62 -104.333 127.833 -133 197.5s-43 144.5 -43 224.5c0 91.333 16.833 176.166 50.5 254.499
s80.334 146.333 140.001 204s130 102.834 211 135.5c81 32.667 168.5 49 262.5 49s181.333 -16.333 262 -49s150.834 -77.834 210.501 -135.501s106.334 -125.667 140.001 -204s50.5 -163.166 50.5 -254.499c0 -80 -14.333 -154.833 -43 -224.5s-73 -135.5 -133 -197.5
c147.333 -125.333 221 -293 221 -503zM1139 1556c0 36 -7.16504 69.5 -21.498 100.5s-33.333 57.833 -57 80.5s-51 40.5 -82 53.5s-63.5 19.5 -97.5 19.5c-36 0 -69.667 -6.5 -101 -19.5s-58.666 -30.833 -81.999 -53.5s-41.666 -49.5 -54.999 -80.5s-20 -64.5 -20 -100.5
s6.66699 -69 20 -99s31.666 -55.833 54.999 -77.5s50.666 -38.5 81.999 -50.5s65 -18 101 -18s69.667 6.5 101 19.5s58.666 30.5 81.999 52.5s41.666 47.833 54.999 77.5s20 61.5 20 95.5zM1184 639.001c0 40 -8.16504 77.1641 -24.498 111.497s-38.333 64.333 -66 90
s-59.834 45.667 -96.501 60s-75.334 21.5 -116.001 21.5c-41.333 0 -80.333 -7.16699 -117 -21.5s-68.667 -34.333 -96 -60s-49.166 -55.667 -65.499 -90s-24.5 -71.5 -24.5 -111.5s8.16699 -77.667 24.5 -113s38.166 -66.166 65.499 -92.499s59.333 -47.166 96 -62.499
s75.667 -23 117 -23c40 0 78.167 7.83301 114.5 23.5s68.5 36.834 96.5 63.501s50.333 57.5 67 92.5s25 72.167 25 111.5z" />
    <glyph glyph-name="nine" unicode="9" horiz-adv-x="1761" 
d="M1663 1380c0 -48 -4 -93.667 -12 -137s-19 -84.666 -33 -123.999s-30.833 -77 -50.5 -113s-41.167 -71 -64.5 -105l-602 -901h-483l405 594c-68 3.33301 -133.333 15.833 -196 37.5s-121.167 50.5 -175.5 86.5s-103.666 78.5 -147.999 127.5s-82.333 102.5 -114 160.5
s-56.167 119.833 -73.5 185.5s-26 132.834 -26 201.501c0 74 9.5 145.167 28.5 213.5s46 132.166 81 191.499s76.667 113.166 125 161.499s101.833 89.666 160.5 123.999s121.5 60.833 188.5 79.5s136.167 28 207.5 28c73.333 0 143.666 -9.5 210.999 -28.5
s130 -45.833 188 -80.5s110.5 -76.5 157.5 -125.5s87.333 -103.667 121 -164s59.5 -125.166 77.5 -194.499s27 -142 27 -218zM1253 1393c0 59.333 -10.3301 114.001 -30.9971 164.001s-48.334 93.167 -83.001 129.5s-74.334 64.666 -119.001 84.999s-91 30.5 -139 30.5
c-50 0 -98 -10 -144 -30s-86.5 -48 -121.5 -84s-63 -79.167 -84 -129.5s-31.5 -105.5 -31.5 -165.5c0 -60.667 10.667 -116.334 32 -167.001s49.666 -94.334 84.999 -131.001s75.833 -65.167 121.5 -85.5s93.167 -30.5 142.5 -30.5c46 0 91.167 10.167 135.5 30.5
s84 48.833 119 85.5s63.333 80.334 85 131.001s32.5 106.334 32.5 167.001z" />
    <glyph glyph-name="colon" unicode=":" horiz-adv-x="696" 
d="M590 1245c0 -34 -6.33594 -65.6699 -19.0029 -95.0029s-29.667 -54.833 -51 -76.5s-46.5 -38.667 -75.5 -51s-59.833 -18.5 -92.5 -18.5c-34 0 -65.667 6.16699 -95 18.5s-54.833 29.333 -76.5 51s-38.667 46.834 -51 75.501s-18.5 59.334 -18.5 92.001
c0 34 6.16699 65.667 18.5 95s29.333 54.833 51 76.5s46.834 38.834 75.501 51.501s59.334 19 92.001 19c34 0 65.667 -6.33301 95 -19s54.833 -29.667 76.5 -51s38.834 -46.5 51.501 -75.5s19 -59.833 19 -92.5zM589.997 212.997c0 -34 -6.33594 -65.666 -19.0029 -94.999
s-29.667 -54.833 -51 -76.5s-46.5 -38.834 -75.5 -51.501s-59.833 -19 -92.5 -19c-34 0 -65.667 6.33301 -95 19s-54.833 29.667 -76.5 51s-38.667 46.5 -51 75.5s-18.5 59.833 -18.5 92.5c0 34 6.16699 65.667 18.5 95s29.333 54.833 51 76.5s46.834 38.834 75.501 51.501
s59.334 19 92.001 19c34 0 65.667 -6.33301 95 -19s54.833 -29.834 76.5 -51.501s38.834 -47.167 51.501 -76.5s19 -61 19 -95v4z" />
    <glyph glyph-name="semicolon" unicode=";" horiz-adv-x="696" 
d="M586 1241c0 -34 -6.33301 -65.667 -19 -95s-29.834 -54.833 -51.501 -76.5s-47.167 -38.834 -76.5 -51.501s-61 -19 -95 -19c-32.667 0 -63.5 6.33301 -92.5 19s-54.167 29.834 -75.5 51.501s-38.333 47.167 -51 76.5s-19 61 -19 95s6.33301 65.667 19 95
s29.667 54.833 51 76.5s46.5 38.834 75.5 51.501s59.833 19 92.5 19c34 0 65.667 -6.33301 95 -19s54.833 -29.834 76.5 -51.501s38.834 -47.167 51.501 -76.5s19 -61 19 -95zM598 131c0 -80 -30.8291 -164.669 -92.4961 -254.002s-157.834 -178 -288.501 -266l-156 164
c30 19.333 56.333 37 79 53s43 31.667 61 47s34.167 31 48.5 47s28.166 33.667 41.499 53c-58 14.667 -103.333 40.334 -136 77.001s-49 80.667 -49 132c0 30 5.83301 58.833 17.5 86.5s28 52.167 49 73.5s45.667 38.333 74 51s59.5 19 93.5 19
c44 0 82.167 -8.83301 114.5 -26.5s59.166 -40.167 80.499 -67.5s37.166 -57.666 47.499 -90.999s15.5 -66 15.5 -98z" />
    <glyph glyph-name="less" unicode="&#x3c;" horiz-adv-x="1638" 
d="M98 692v287l1446 721v-373l-966 -491l966 -525v-372z" />
    <glyph glyph-name="equal" unicode="=" horiz-adv-x="1630" 
d="M94 881v327h1446v-327h-1446zM94 381v328h1446v-328h-1446z" />
    <glyph glyph-name="greater" unicode="&#x3e;" horiz-adv-x="1638" 
d="M98 -61v372l967 525l-967 491v373l1446 -721v-287z" />
    <glyph glyph-name="question" unicode="?" horiz-adv-x="1475" 
d="M1389 1597c0 -57.333 -7.17285 -109.331 -21.5059 -155.998s-33 -89.334 -56 -128.001s-49 -73.834 -78 -105.501s-57.833 -61.5 -86.5 -89.5c-19.333 -19.333 -41.166 -40 -65.499 -62s-47.166 -45.167 -68.499 -69.5s-39.166 -49.833 -53.499 -76.5
s-21.5 -54.334 -21.5 -83.001v-282h-377v291c0 50 6.33301 95.667 19 137s29.334 79.5 50.001 114.5s44.334 67.5 71.001 97.5s53.834 58.5 81.501 85.5l81.5 79c26.667 25.667 50.334 51.667 71.001 78s37.334 53.833 50.001 82.5s19 59.334 19 92.001
c0 27.333 -5.16699 55.166 -15.5 83.499s-26.5 53.833 -48.5 76.5s-50.333 41.167 -85 55.5s-76.667 21.5 -126 21.5s-93.333 -8.66699 -132 -26s-69.834 -44.166 -93.501 -80.499s-38.834 -82.5 -45.501 -138.5s-2.33398 -123 12.999 -201h-381
c-16.667 82.667 -21.667 160.167 -15 232.5s22.334 138.833 47.001 199.5s57.5 115 98.5 163s88 88.5 141 121.5s110.667 58.333 173 76s127.166 26.5 194.499 26.5c99.333 0 189.5 -16.167 270.5 -48.5s150.333 -76.166 208 -131.5
c57.667 -55.333 102.334 -120.5 134.001 -195.5s47.5 -154.833 47.5 -239.5zM998.994 184.002c0 -36 -6.33301 -69.167 -19 -99.5s-30 -56.666 -52 -78.999s-48.167 -39.833 -78.5 -52.5s-63.5 -19 -99.5 -19s-69.333 6.33301 -100 19s-57 30.167 -79 52.5
s-39.333 48.666 -52 78.999s-19 63.5 -19 99.5s6.33301 69.333 19 100s30 57 52 79s48.333 39.333 79 52s64 19 100 19c34 0 66 -6.33301 96 -19s56.333 -30 79 -52s40.667 -48.333 54 -79s20 -64 20 -100z" />
    <glyph glyph-name="at" unicode="@" horiz-adv-x="2359" 
d="M2384 471c-60.667 -99.333 -131.834 -184.666 -213.501 -255.999s-169.834 -129.833 -264.501 -175.5s-193.334 -79.334 -296.001 -101.001s-205 -32.5 -307 -32.5c-115.333 0 -226.333 12.5 -333 37.5s-206.334 61.333 -299.001 109s-177 106 -253 175
s-141 147.333 -195 235s-95.833 184.167 -125.5 289.5s-44.5 218 -44.5 338c0 105.333 14 206.666 42 303.999s67.333 188 118 272s111.334 160.333 182.001 229s149 127.334 235 176.001s178 86.334 276 113c98 26.667 200 40 306 40c98.667 0 194 -10.833 286 -32.5
s177.833 -52.5 257.5 -92.5s152.334 -88.667 218.001 -146s122 -121.833 169 -193.5s83.333 -149.834 109 -234.501s38.5 -174 38.5 -268c0 -79.333 -10.167 -156 -30.5 -230s-48.166 -143.5 -83.5 -208.5c-35.333 -65 -77.166 -124.333 -125.5 -178
c-48.333 -53.667 -100.166 -99.667 -155.499 -138s-113.333 -68.166 -174 -89.499s-121 -32 -181 -32c-40 0 -74.167 4.33301 -102.5 13s-52.166 20 -71.499 34s-35 29.5 -47 46.5s-21.667 33.5 -29 49.5c-57.333 -30.667 -112.666 -52.667 -165.999 -66
s-105.666 -20 -156.999 -20c-74 0 -139 12.5 -195 37.5s-103 58.833 -141 101.5s-66.667 92.5 -86 149.5s-29 117.833 -29 182.5c0 62 7.16699 126 21.5 192s35.5 130.167 63.5 192.5s62.667 121.333 104 177s89.333 104.5 144 146.5s115.667 75.167 183 99.5
s141 36.5 221 36.5c101.333 0 198.333 -34 291 -102l12 49h279c-38 40 -80.667 75.667 -128 107s-97.5 58 -150.5 80s-107.833 38.667 -164.5 50s-113.667 17 -171 17c-82 0 -160.833 -11 -236.5 -33s-146.5 -52.667 -212.5 -92s-126 -86.333 -180 -141
s-100.333 -114.834 -139 -180.501s-68.5 -135.5 -89.5 -209.5s-31.5 -150.333 -31.5 -229c0 -89.333 11.5 -173.666 34.5 -252.999s55.667 -152.333 98 -219s93 -126.5 152 -179.5s124.667 -98 197 -135s150.166 -65.333 233.499 -85s170 -29.5 260 -29.5
c65.333 0 131.666 5.5 198.999 16.5s132.5 28.5 195.5 52.5s122.833 54.667 179.5 92s107 82 151 134zM1430 1298c2.66699 9.33301 1 23.833 -5 43.5s-17 39.334 -33 59.001s-37.5 37 -64.5 52s-59.833 22.5 -98.5 22.5c-35.333 0 -70.5 -7.83301 -105.5 -23.5
s-68.167 -37 -99.5 -64s-60.5 -58.667 -87.5 -95s-50.333 -74.833 -70 -115.5s-35.167 -82.5 -46.5 -125.5s-17 -84.833 -17 -125.5c0 -32 3.16699 -61 9.5 -87s17.5 -48.333 33.5 -67s37.333 -33.167 64 -43.5s60.667 -15.5 102 -15.5c32 0 64.333 7.5 97 22.5
s63.167 34.667 91.5 59s53.333 51.666 75 81.999s37.5 60.5 47.5 90.5zM1794 1569c-11.333 -28.667 -24.1641 -65.1689 -38.4971 -109.502l-51 -164l-67.5 -230l-89 -307.5c-2.66699 -9.33301 -5.33398 -20.166 -8.00098 -32.499s-3.5 -24 -2.5 -35s4.66699 -20.333 11 -28
s17.166 -11.5 32.499 -11.5c28.667 0 59.167 8.66699 91.5 26s64.5 40.833 96.5 70.5s62.5 64.5 91.5 104.5s54.667 82.833 77 128.5s40.166 92.834 53.499 141.501s20 96.667 20 144c0 80 -14.167 155 -42.5 225s-67.5 132.667 -117.5 188c-6 -4 -13.333 -15.167 -22 -33.5
z" />
    <glyph glyph-name="A" unicode="A" horiz-adv-x="2060" 
d="M1626 0l-242 586h-704l-242 -586h-438l909 2163h254l893 -2163h-430zM1032 1425l-196 -471h393z" />
    <glyph glyph-name="B" unicode="B" horiz-adv-x="1655" 
d="M1597 659c0 -76.667 -10.168 -146.001 -30.501 -208.001s-48.333 -117.5 -84 -166.5s-78 -91.333 -127 -127s-102.333 -65.167 -160 -88.5s-118.5 -40.666 -182.5 -51.999s-128.667 -17 -194 -17h-663v2163h553c102 0 196.5 -12.167 283.5 -36.5
s162.333 -62.333 226 -114s113.334 -117.5 149.001 -197.5s53.5 -175.667 53.5 -287c0 -137.333 -36.667 -253.333 -110 -348c90.667 -58 161 -131.833 211 -221.5s75 -189.5 75 -299.5zM1012 1544c0 44.667 -6.66699 82.333 -20 113s-34.333 55.167 -63 73.5
s-65.167 31.5 -109.5 39.5s-97.833 12 -160.5 12h-98v-479h98c57.333 0 108 2.83301 152 8.5s80.833 17 110.5 34s52.167 41.333 67.5 73s23 73.5 23 125.5zM1188 654.998c0 52 -10.667 97.166 -32 135.499s-51.666 65.5 -90.999 81.5
c-20.667 11.333 -43.834 20.333 -69.501 27s-53.5 11.667 -83.5 15s-61.667 5.5 -95 6.5s-68 1.5 -104 1.5h-152v-545h180c74 0 138.833 4.66699 194.5 14s102.167 24.833 139.5 46.5s65.5 50.334 84.5 86.001s28.5 79.5 28.5 131.5z" />
    <glyph glyph-name="C" unicode="C" horiz-adv-x="1978" 
d="M1929 242c-72.667 -53.333 -141.172 -97.6641 -205.505 -132.997s-126.666 -63.5 -186.999 -84.5s-120 -35.833 -179 -44.5s-119.5 -13 -181.5 -13c-102 0 -200.833 13.333 -296.5 40s-185.667 64.167 -270 112.5s-161.666 106.333 -231.999 174
s-130.666 142.5 -180.999 224.5s-89.5 170.333 -117.5 265s-42 192.667 -42 294c0 103.333 13.833 202.666 41.5 297.999s66.5 184.333 116.5 267s110 158 180 226s147.333 126.167 232 174.5s175.334 85.833 272.001 112.5s197 40 301 40
c57.333 0 115.166 -4.33301 173.499 -13s118 -23.5 179 -44.5s124 -49.5 189 -85.5s132.833 -81 203.5 -135l-213 -315c-62.667 46 -119.5 82.667 -170.5 110s-98.167 48.333 -141.5 63s-83.666 24.167 -120.999 28.5s-73.333 6.5 -108 6.5
c-65.333 0 -128.833 -9 -190.5 -27s-119.667 -43.333 -174 -76s-104.166 -71.834 -149.499 -117.501s-84.166 -96.167 -116.499 -151.5s-57.5 -114.5 -75.5 -177.5s-27 -128.167 -27 -195.5c0 -62 9.16699 -122.833 27.5 -182.5s43.833 -116 76.5 -169
s71.667 -101.833 117 -146.5s95.166 -83.334 149.499 -116.001s112.166 -58 173.499 -76s124.333 -27 189 -27c36 0 72.667 2.5 110 7.5s77.5 15 120.5 30s89.833 36.5 140.5 64.5s107.334 65 170.001 111z" />
    <glyph glyph-name="D" unicode="D" horiz-adv-x="1864" 
d="M1827 1077c0 -110.667 -13.668 -214 -41.001 -310s-66.166 -184 -116.499 -264s-111 -151.167 -182 -213.5s-150.167 -115 -237.5 -158s-181.833 -75.667 -283.5 -98s-208.167 -33.5 -319.5 -33.5h-491v2163h491c113.333 0 221.166 -11.167 323.499 -33.5
s197.166 -55 284.499 -98s166.333 -95.667 237 -158s130.834 -133.833 180.501 -214.5s87.834 -169.667 114.501 -267s40 -202.333 40 -315zM1417 1077c0 107.333 -18.667 204.33 -56 290.997s-89.833 160.334 -157.5 221.001s-149 107.334 -244 140.001
s-200.5 49 -316.5 49h-82v-1397h82c114.667 0 219.5 16.333 314.5 49s176.5 79.167 244.5 139.5s120.833 133.333 158.5 219s56.5 181.834 56.5 288.501z" />
    <glyph glyph-name="E" unicode="E" horiz-adv-x="1470" 
d="M156 0v2163h1220v-385h-815v-418h791v-381h-791v-598h815v-381h-1220z" />
    <glyph glyph-name="F" unicode="F" horiz-adv-x="1290" 
d="M561 1782v-422h668v-381h-668v-979h-405v2163h1089v-381h-684z" />
    <glyph glyph-name="G" unicode="G" horiz-adv-x="2363" 
d="M1204 -33c-106 0 -208 13.3301 -306 39.9971s-189.667 64.334 -275 113.001s-163 107 -233 175s-130 143.333 -180 226s-88.667 171.167 -116 265.5s-41 192.5 -41 294.5s13.667 200.333 41 295s66 183.167 116 265.5s110 157.5 180 225.5s147.667 126.333 233 175
s177 86.334 275 113.001s200 40 306 40c198.667 0 384.834 -49.167 558.501 -147.5s330.167 -246.833 469.501 -445.5l-319 -242c-54 78.667 -109.167 146 -165.5 202s-113.833 101.667 -172.5 137s-118.834 61.333 -180.501 78s-125.167 25 -190.5 25
c-68.667 0 -135 -8.66699 -199 -26s-123.667 -41.833 -179 -73.5s-105.833 -69.5 -151.5 -113.5s-84.667 -92.667 -117 -146s-57.5 -110.666 -75.5 -171.999s-27 -124.666 -27 -189.999s9 -128.5 27 -189.5s43.167 -118.333 75.5 -172s71.333 -102.5 117 -146.5
s96.167 -81.833 151.5 -113.5s115 -56.167 179 -73.5s130.333 -26 199 -26c82.667 0 161 13 235 39s141 62.167 201 108.5s111.667 101.666 155 165.999s75.666 134.833 96.999 211.5h-831v393h1249c16.667 -113.333 17.667 -224.5 3 -333.5s-42.834 -212 -84.5 -309
c-41.667 -97 -96 -186.5 -163 -268.5s-144.333 -152.5 -232 -211.5s-184.5 -105.167 -290.5 -138.5s-219 -50 -339 -50z" />
    <glyph glyph-name="H" unicode="H" horiz-adv-x="2032" 
d="M1470 0v975h-905v-975h-405v2163h405v-803h905v803h410v-2163h-410z" />
    <glyph glyph-name="I" unicode="I" horiz-adv-x="762" 
d="M176 0v2163h410v-2163h-410z" />
    <glyph glyph-name="J" unicode="J" horiz-adv-x="762" 
d="M590 -86c0 -66.667 -13.167 -129.5 -39.5 -188.5s-62.5 -110.667 -108.5 -155s-99.833 -79.333 -161.5 -105s-127.834 -38.5 -198.501 -38.5c-71.333 0 -139.166 14.5 -203.499 43.5s-130.166 77.167 -197.499 144.5l278 279c15.333 -15.333 28.833 -27.833 40.5 -37.5
s22.167 -17.167 31.5 -22.5s18.166 -9 26.499 -11s16.5 -3 24.5 -3c13.333 0 25.833 2.33301 37.5 7s22 11.334 31 20.001s16.167 18.667 21.5 30s8 23.666 8 36.999v2249h410v-2249z" />
    <glyph glyph-name="K" unicode="K" horiz-adv-x="1860" 
d="M1348 0l-787 766v-766h-405v2163h405v-693l725 693h569l-1093 -1045l1155 -1118h-569z" />
    <glyph glyph-name="L" unicode="L" horiz-adv-x="1114" 
d="M156 0v2163h405v-1786h500v-377h-905z" />
    <glyph glyph-name="M" unicode="M" horiz-adv-x="2617" 
d="M2200 0l-222 1081l-28 197l-66 -193l-450 -1085h-246l-459 1102l-61 184l-29 -188l-229 -1098h-410l459 2163h254l594 -1430l598 1430h254l454 -2163h-413z" />
    <glyph glyph-name="N" unicode="N" horiz-adv-x="2359" 
d="M2204 0h-267l-1376 1454v-1454h-405v2163h266l1376 -1446v1446h406v-2163z" />
    <glyph glyph-name="O" unicode="O" horiz-adv-x="2363" 
d="M2318 1081c0 -102 -13.6641 -200.164 -40.9971 -294.497s-65.833 -182.833 -115.5 -265.5s-109.167 -158 -178.5 -226s-145.833 -126.333 -229.5 -175s-173.334 -86.334 -269.001 -113.001s-194.5 -40 -296.5 -40c-103.333 0 -203 13.333 -299 40
s-186 64.334 -270 113.001s-160.833 107 -230.5 175s-129.334 143.333 -179.001 226s-88.167 171.167 -115.5 265.5s-41 192.5 -41 294.5c0 101.333 13.667 199.166 41 293.499s65.666 182.666 114.999 264.999s108.666 157.666 177.999 225.999s146 126.833 230 175.5
s174.167 86.5 270.5 113.5s196.5 40.5 300.5 40.5c102 0 200.833 -13.333 296.5 -40s185.334 -64.334 269.001 -113c83.667 -48.667 160.167 -107 229.5 -175s128.833 -143.167 178.5 -225.5s88.167 -170.833 115.5 -265.5s41 -193 41 -295zM1917 1081
c0 65.333 -8.83105 128.835 -26.498 190.502s-42.667 119.5 -75 173.5s-70.833 103.333 -115.5 148s-94 83.167 -148 115.5s-111.833 57.333 -173.5 75s-125.167 26.5 -190.5 26.5c-68 0 -133.167 -8.83301 -195.5 -26.5s-120.666 -42.334 -174.999 -74.001
s-103.833 -69.834 -148.5 -114.501s-82.834 -94 -114.501 -148s-56.167 -112 -73.5 -174s-26 -126 -26 -192c0 -65.333 9 -128.833 27 -190.5s43.167 -119.667 75.5 -174s71.166 -104.166 116.499 -149.499s95.166 -84.166 149.499 -116.499s112.333 -57.5 174 -75.5
s125.167 -27 190.5 -27s128.833 9 190.5 27s119.5 43.167 173.5 75.5s103.333 71.166 148 116.499s83.167 95.166 115.5 149.499s57.333 112.333 75 174s26.5 125.167 26.5 190.5z" />
    <glyph glyph-name="P" unicode="P" horiz-adv-x="1413" 
d="M1380 1528c0 -74.667 -9.16602 -142 -27.499 -202s-43.833 -113.333 -76.5 -160s-71.834 -87 -117.501 -121s-96 -62 -151 -84s-113.667 -38.167 -176 -48.5s-126.5 -15.5 -192.5 -15.5h-78v-897h-405v2163h483c102.667 0 199 -12.167 289 -36.5
s168.5 -62.333 235.5 -114s119.833 -117.5 158.5 -197.5s58 -175.667 58 -287zM975.001 1532c0 48 -8.16699 88 -24.5 120s-39.5 57.667 -69.5 77s-66.167 33 -108.5 41s-89.5 12 -141.5 12h-70v-500h82c50 0 95.5 4.83301 136.5 14.5s76 24.5 105 44.5
s51.333 45.833 67 77.5s23.5 69.5 23.5 113.5z" />
    <glyph glyph-name="Q" unicode="Q" horiz-adv-x="2363" 
d="M1905 -4l-122.998 150.999c-97.333 -57.333 -196.5 -101.666 -297.5 -132.999s-203.833 -47 -308.5 -47s-205.167 13.167 -301.5 39.5s-186.5 63.666 -270.5 111.999s-160.333 106.333 -229 174s-127.5 142.667 -176.5 225s-86.833 171.166 -113.5 266.499
s-40 194.333 -40 297c0 102 13.667 200.333 41 295s65.666 183.167 114.999 265.5s108.666 157.5 177.999 225.5s146 126.333 230 175s174.167 86.334 270.5 113.001s196.5 40 300.5 40c101.333 0 199.833 -13.167 295.5 -39.5s185.334 -63.5 269.001 -111.5
s160.167 -105.667 229.5 -173s128.833 -141.833 178.499 -223.5c49.667 -81.667 88.334 -169.667 116 -264c27.667 -94.333 41.5 -192.166 41.5 -293.499c0 -251.333 -77.667 -479.333 -233 -684l372 -410h-544zM1909 1065c0 68 -8.6709 133.833 -26.0039 197.5
s-41.666 123 -72.999 178s-69.166 105.167 -113.499 150.5s-93.5 84.333 -147.5 117s-112.167 57.834 -174.5 75.501s-127.166 26.5 -194.499 26.5c-66 0 -129.833 -8.83301 -191.5 -26.5s-119.667 -42.667 -174 -75s-104.166 -70.833 -149.499 -115.5
s-84.166 -94 -116.499 -148s-57.5 -111.833 -75.5 -173.5s-27 -125.167 -27 -190.5c0 -67.333 9 -132.333 27 -195s43.167 -121 75.5 -175s71 -103.333 116 -148s94.833 -83 149.5 -115s113.167 -56.667 175.5 -74s127.166 -26 194.499 -26c51.333 0 103.5 8 156.5 24
s107.167 39.333 162.5 70l-360 369l303 258l348 -364c39.333 57.333 68.333 115.166 87 173.499s28 120.5 28 186.5z" />
    <glyph glyph-name="R" unicode="R" horiz-adv-x="1597" 
d="M1126 0l-573 822.999v-823h-397v2163h475c70 0 137.833 -4.33301 203.5 -13s127 -23 184 -43s109 -46.167 156 -78.5s87.333 -72 121 -119s59.667 -102 78 -165s27.5 -135.167 27.5 -216.5c0 -79.333 -10.833 -151.333 -32.5 -216s-52 -122 -91 -172
s-86 -92.667 -141 -128s-115.833 -62.666 -182.5 -81.999l652 -930h-480zM999 1532c0 54 -9.66797 97.499 -29.001 130.499s-45 58.333 -77 76s-68.667 29.334 -110 35.001s-84 8.5 -128 8.5h-98v-504h115c40.667 0 80.667 4 120 12s74.333 21.667 105 41
s55.334 45.333 74.001 78s28 73.667 28 123z" />
    <glyph glyph-name="S" unicode="S" horiz-adv-x="1556" 
d="M1520 655c0 -66.667 -9.66113 -130.002 -28.9941 -190.002s-46 -115.5 -80 -166.5s-74.333 -97 -121 -138s-97.5 -75.833 -152.5 -104.5s-113 -50.667 -174 -66s-122.833 -23 -185.5 -23c-336 0 -581.667 206.333 -737 619l356 164
c32.667 -79.333 64.667 -144.833 96 -196.5s62.666 -92.667 93.999 -123s63.333 -51.666 96 -63.999s67 -18.5 103 -18.5c44 0 85.833 8.66699 125.5 26s74.5 40.5 104.5 69.5s53.833 62.833 71.5 101.5s26.5 79.667 26.5 123c0 34 -11.167 64.333 -33.5 91
s-49.5 50.667 -81.5 72s-65.5 40.333 -100.5 57s-65.5 32 -91.5 46l-141.5 71.5c-48.333 23.667 -95.5 48.5 -141.5 74.5s-89.333 54.5 -130 85.5s-76.334 66 -107.001 105s-54.834 83.333 -72.501 133s-26.5 106.167 -26.5 169.5c0 88.667 15.667 171 47 247
s74.833 141.833 130.5 197.5s122.167 99.167 199.5 130.5s162 47 254 47c61.333 0 121.166 -8.33301 179.499 -25s114.666 -42.5 168.999 -77.5s106.833 -79.667 157.5 -134s99 -118.833 145 -193.5l-303 -245c-42 61.333 -79.167 110.833 -111.5 148.5
s-62.166 67 -89.499 88s-53.333 35.167 -78 42.5s-50.334 11 -77.001 11c-32 0 -61.5 -5.83301 -88.5 -17.5s-50.333 -27.834 -70 -48.501s-35 -45.167 -46 -73.5s-16.5 -59.5 -16.5 -93.5c0 -30 11.833 -57.667 35.5 -83s61 -53.166 112 -83.499s117 -65.666 198 -105.999
l293.5 -149.5c95.333 -50 167.666 -116.833 216.999 -200.5s74 -183.5 74 -299.5z" />
    <glyph glyph-name="T" unicode="T" horiz-adv-x="1430" 
d="M918 1782v-1782h-406v1782h-508v381h1421v-381h-507z" />
    <glyph glyph-name="U" unicode="U" horiz-adv-x="1925" 
d="M1769 844c0 -127.333 -18.334 -244.668 -55.001 -352.001s-89.5 -199.833 -158.5 -277.5s-153.5 -138.334 -253.5 -182.001s-213 -65.5 -339 -65.5c-91.333 0 -174.5 10.167 -249.5 30.5s-142.5 49.166 -202.5 86.499s-112.167 82.333 -156.5 135
s-81.166 111.5 -110.499 176.5s-51.333 135.333 -66 211s-22 154.834 -22 237.501v1319h409v-1282c0 -79.333 5 -151.666 15 -216.999s29.333 -121.333 58 -168s69 -83 121 -109s120 -39 204 -39c60 0 111.5 6.5 154.5 19.5s79.167 31 108.5 54s52.833 50.833 70.5 83.5
s31.167 68.834 40.5 108.501s15.5 82 18.5 127s4.5 91.833 4.5 140.5v1282h409v-1319z" />
    <glyph glyph-name="V" unicode="V" horiz-adv-x="1815" 
d="M1032 0h-254l-774 2163h426l410 -1147l69 -234l66 230l414 1151h426z" />
    <glyph glyph-name="W" unicode="W" horiz-adv-x="3191" 
d="M2466 0h-246l-627 1458l-618 -1458h-250l-721 2163h422l381 -1135l78 -274l98 262l500 1147h241l496 -1139l98 -266l70 258l377 1147h426z" />
    <glyph glyph-name="X" unicode="X" horiz-adv-x="1692" 
d="M1233 0l-389 700l-385 -700h-463l614 1098l-590 1065h455l369 -652l356 652h459l-586 -1061l615 -1102h-455z" />
    <glyph glyph-name="Y" unicode="Y" horiz-adv-x="1921" 
d="M1167 905v-905h-413v905l-750 1258h463l496 -824l491 824h467z" />
    <glyph glyph-name="Z" unicode="Z" horiz-adv-x="1720" 
d="M606 377h1020v-377h-1548v295l1016 1487h-983v381h1515v-287z" />
    <glyph glyph-name="bracketleft" unicode="[" horiz-adv-x="901" 
d="M119 -483v2793h688v-368h-320v-2057h320v-368h-688z" />
    <glyph glyph-name="backslash" unicode="\" horiz-adv-x="1942" 
d="M1430 0l-1328 2433h398l1339 -2433h-409z" />
    <glyph glyph-name="bracketright" unicode="]" horiz-adv-x="901" 
d="M119 -483v368h319v2057h-319v368h688v-2793h-688z" />
    <glyph glyph-name="asciicircum" unicode="^" horiz-adv-x="1745" 
d="M1368 786l-500 992l-491 -992h-357l717 1455h267l716 -1455h-352z" />
    <glyph glyph-name="underscore" unicode="_" horiz-adv-x="1634" 
d="M8 -426v332h1618v-332h-1618z" />
    <glyph glyph-name="grave" unicode="`" horiz-adv-x="889" 
d="M553 1475l-492 585l385 127l385 -581z" />
    <glyph glyph-name="a" unicode="a" horiz-adv-x="1827" 
d="M1286 0l0.00390625 122.998c-24.667 -19.333 -52.5 -38 -83.5 -56s-63.833 -33.833 -98.5 -47.5s-70.667 -24.5 -108 -32.5s-74.333 -12 -111 -12c-84 0 -162.333 9.5 -235 28.5s-138.834 45.833 -198.501 80.5s-112.667 76 -159 124s-85.333 101 -117 159
s-55.834 120.167 -72.501 186.5s-25 134.5 -25 204.5c0 106.667 18.5 206.334 55.5 299.001s90.167 173.334 159.5 242.001s153.166 122.667 251.499 162s209.166 59 332.499 59c72 0 143.167 -11.833 213.5 -35.5s135.5 -57.167 195.5 -100.5v119h385v-1503h-385z
M1294 773.998c0 57.333 -9.66406 110.5 -28.9971 159.5s-47.166 91.5 -83.499 127.5s-80.5 64.167 -132.5 84.5s-111 30.5 -177 30.5c-58 0 -112 -11.667 -162 -35s-93.333 -54.333 -130 -93s-65.334 -83.167 -86.001 -133.5s-31 -102.5 -31 -156.5
c0 -60.667 10 -117.167 30 -169.5s48.333 -97.833 85 -136.5s80.667 -69 132 -91s108.333 -33 171 -33c65.333 0 123.666 11 174.999 33s94.666 52.667 129.999 92s62.166 86.333 80.499 141s27.5 114.667 27.5 180z" />
    <glyph glyph-name="b" unicode="b" horiz-adv-x="1835" 
d="M1757 766c0 -78.667 -9.99805 -152.834 -29.998 -222.501s-47.667 -133.667 -83 -192s-77.5 -110.833 -126.5 -157.5s-102.667 -86.167 -161 -118.5s-120.166 -57.166 -185.499 -74.499s-132 -26 -200 -26c-72.667 0 -143.834 12 -213.501 36s-140.5 64 -212.5 120v-131
h-389v2441h389v-1011c64 38.667 130.167 66.667 198.5 84s138.5 26 210.5 26c81.333 0 157.666 -9.16699 228.999 -27.5s136.666 -44.5 195.999 -78.5s112.5 -74.5 159.5 -121.5s86.667 -99.167 119 -156.5s57 -119 74 -185s25.5 -134.333 25.5 -205zM1368 766
c0 57.333 -10.1709 111.334 -30.5039 162.001s-48.666 95 -84.999 133s-79.666 68 -129.999 90s-105.166 33 -164.499 33c-68.667 0 -129.167 -10.333 -181.5 -31s-96.333 -49.5 -132 -86.5s-62.5 -81.333 -80.5 -133s-27 -108.834 -27 -171.501
c0 -61.333 9.5 -118.333 28.5 -171s46.333 -98.167 82 -136.5s79.334 -68.333 131.001 -90s110.167 -32.5 175.5 -32.5c62.667 0 119.5 11 170.5 33s94.5 52.5 130.5 91.5s63.833 85 83.5 138s29.5 110.167 29.5 171.5z" />
    <glyph glyph-name="c" unicode="c" horiz-adv-x="1561" 
d="M1511 172c-61.333 -40 -118.499 -73.0029 -171.499 -99.0029s-103.5 -46.5 -151.5 -61.5s-94.5 -25.5 -139.5 -31.5s-90.167 -9 -135.5 -9c-120 0 -230.833 20.167 -332.5 60.5s-189.834 95.833 -264.501 166.5s-133 153.5 -175 248.5s-63 197.5 -63 307.5
c0 72 9.66699 141.333 29 208s46.666 128.834 81.999 186.501s78.333 110 129 157s107 87.333 169 121s129.333 59.667 202 78s149 27.5 229 27.5c44.667 0 89.334 -3 134.001 -9s90.667 -16.5 138 -31.5s97.333 -35.5 150 -61.5s109.667 -59 171 -99l-163 -332
c-56.667 36.667 -106 66.667 -148 90s-79.667 41.333 -113 54s-64.166 21.334 -92.499 26.001s-56.833 7 -85.5 7c-61.333 0 -118.833 -11.5 -172.5 -34.5s-100.5 -53.833 -140.5 -92.5s-71.5 -83.5 -94.5 -134.5s-34.5 -104.5 -34.5 -160.5c0 -57.333 11.5 -112 34.5 -164
s54.5 -97.667 94.5 -137s86.833 -70.666 140.5 -93.999s111.167 -35 172.5 -35c28.667 0 57.167 2.16699 85.5 6.5s59.166 13 92.499 26s71 30.833 113 53.5s91.333 52.667 148 90z" />
    <glyph glyph-name="d" unicode="d" horiz-adv-x="1835" 
d="M1290 -4v130.999c-60 -47.333 -123.5 -84.5 -190.5 -111.5s-138.5 -40.5 -214.5 -40.5c-84 0 -162.333 9.5 -235 28.5s-138.834 45.833 -198.501 80.5s-112.667 76.167 -159 124.5s-85.333 101.666 -117 159.999s-55.834 120.833 -72.501 187.5s-25 135.334 -25 206.001
s8.33301 139 25 205s41 127.667 73 185s71.167 109.5 117.5 156.5s99.333 87.5 159 121.5s125.334 60.167 197.001 78.5s148.834 27.5 231.501 27.5c72 0 142.167 -10.667 210.5 -32s134.5 -55.666 198.5 -102.999v1040h389v-2445h-389zM1298 777.999
c0 57.333 -9.83301 110.834 -29.5 160.501s-48 92.667 -85 129s-81.667 64.833 -134 85.5s-111.5 31 -177.5 31c-58 0 -112 -11.5 -162 -34.5s-93.333 -53.833 -130 -92.5s-65.334 -83.5 -86.001 -134.5s-31 -104.5 -31 -160.5c0 -60.667 10 -117.334 30 -170.001
s48.333 -98.5 85 -137.5s80.667 -69.833 132 -92.5s108.333 -34 171 -34c65.333 0 123.833 11.167 175.5 33.5s95.334 53.5 131.001 93.5s63 87.5 82 142.5s28.5 115.167 28.5 180.5z" />
    <glyph glyph-name="e" unicode="e" horiz-adv-x="1720" 
d="M467 643c11.333 -48 29.833 -91.8301 55.5 -131.497s56.667 -73.834 93 -102.501s77.166 -50.834 122.499 -66.501s93 -23.5 143 -23.5c44 0 85.5 6.33301 124.5 19s75.167 30.334 108.5 53.001s63.5 49.5 90.5 80.5s50.167 64.833 69.5 101.5l299 -204
c-50 -70.667 -101.5 -131.334 -154.5 -182.001s-108.167 -92.334 -165.5 -125.001s-117.5 -56.667 -180.5 -72s-129.833 -23 -200.5 -23c-82 0 -158.5 10 -229.5 30s-135.833 47.667 -194.5 83s-111 77.5 -157 126.5s-84.833 102.667 -116.5 161s-55.667 120.333 -72 186
s-24.5 132.5 -24.5 200.5s8.5 134.5 25.5 199.5s41.333 126.333 73 184s70.667 110.667 117 159s99 90 158 125s123.667 62.167 194 81.5s145.833 29 226.5 29c124.667 0 235.334 -22 332.001 -66s177.667 -105.167 243 -183.5s115 -172 149 -281s51 -228.5 51 -358.5h-1180
zM1208 975.003c-60.667 134 -171.003 201.002 -331.003 201.002c-40 0 -78.167 -4.83301 -114.5 -14.5s-70.166 -23.334 -101.499 -41.001s-59.666 -38.834 -84.999 -63.501s-46.666 -52 -63.999 -82h696z" />
    <glyph glyph-name="f" unicode="f" horiz-adv-x="930" 
d="M836 2093l-55.0039 10.5l-40 8c-11.333 2.33301 -21.166 4 -29.499 5s-16.166 1.5 -23.499 1.5c-25.333 0 -45.166 -4.33301 -59.499 -13s-25 -22.667 -32 -42s-11.667 -44.333 -14 -75s-3.83301 -68 -4.5 -112v-377h344v-352h-344v-1147h-390v1147h-151v352h151v385
c0 76 9.16699 149.167 27.5 219.5s47.166 132.333 86.499 186s89.833 96.5 151.5 128.5s135.834 48 222.501 48c13.333 0 27.833 -0.333008 43.5 -1s33.834 -3 54.501 -7s44 -10.167 70 -18.5s56 -20.166 90 -35.5z" />
    <glyph glyph-name="g" unicode="g" horiz-adv-x="1835" 
d="M1679 102c0 -47.333 -0.996094 -98.333 -2.99609 -153s-8.33301 -110.667 -19 -168s-26.834 -114.5 -48.501 -171.5s-52.5 -111.167 -92.5 -162.5c-40 -49.333 -84.333 -92.166 -133 -128.499s-100.667 -66.5 -156 -90.5s-113.5 -42 -174.5 -54s-123.833 -18 -188.5 -18
c-102 0 -199.833 14.667 -293.5 44s-177.167 75.5 -250.5 138.5s-134 144 -182 243s-77.667 218.167 -89 357.5h385c7.33301 -78 23 -144.333 47 -199s54.5 -99.167 91.5 -133.5s79.333 -59.333 127 -75s98.5 -23.5 152.5 -23.5c80.667 0 148.334 10.5 203.001 31.5
s99 52 133 93s58.667 92.167 74 153.5s24.666 132.666 27.999 213.999c0 4.66699 -0.166992 11 -0.5 19s-0.833008 16 -1.5 24s-1.16699 15.833 -1.5 23.5s-0.5 14.167 -0.5 19.5c-66 -47.333 -132.833 -80.333 -200.5 -99s-138.834 -28 -213.501 -28
c-79.333 0 -154 10 -224 30s-134.333 47.667 -193 83s-111.334 77.333 -158.001 126s-86.167 102 -118.5 160s-57.166 119.5 -74.499 184.5s-26 131.167 -26 198.5c0 71.333 9 140 27 206s43.833 127.5 77.5 184.5s74.667 108.833 123 155.5s102.666 86.667 162.999 120
s126.166 59 197.499 77s147 27 227 27c74 0 145.833 -11.333 215.5 -34s130.167 -57.667 181.5 -105v127h389v-1397zM1298 762c0 58 -9.8291 111.834 -29.4961 161.501s-48 92.5 -85 128.5s-81.667 64.167 -134 84.5s-111.5 30.5 -177.5 30.5
c-58 0 -111.833 -11.5 -161.5 -34.5s-92.5 -53.833 -128.5 -92.5s-64.167 -83.167 -84.5 -133.5s-30.5 -102.5 -30.5 -156.5c0 -60.667 10.167 -117.667 30.5 -171s49 -99.833 86 -139.5s81.167 -71 132.5 -94s107.666 -34.5 168.999 -34.5
c65.333 0 123.666 11.167 174.999 33.5s94.666 53.5 129.999 93.5s62.166 87.667 80.499 143s27.5 115.666 27.5 180.999z" />
    <glyph glyph-name="h" unicode="h" horiz-adv-x="1618" 
d="M1466 0l-389 -0.000976562v885c0 54 -2.83301 99.833 -8.5 137.5s-16.667 68.167 -33 91.5s-39.833 40.166 -70.5 50.499s-71 15.5 -121 15.5c-60.667 0 -110.334 -10.333 -149.001 -31s-69.167 -50.167 -91.5 -88.5s-37.666 -84.5 -45.999 -138.5
s-12.5 -114.333 -12.5 -181v-741h-389v2445h389v-1007c43.333 30.667 91 54 143 70s108 24 168 24c79.333 0 149.333 -7.66699 210 -23s113.667 -37.166 159 -65.499s83.333 -62.166 114 -101.499s55.5 -83 74.5 -131s32.5 -99.5 40.5 -154.5s12 -112.167 12 -171.5v-885z
" />
    <glyph glyph-name="i" unicode="i" horiz-adv-x="741" 
d="M623 2011c0 -32.667 -6.66602 -63.334 -19.999 -92.001s-31.5 -53.834 -54.5 -75.501s-49.5 -38.667 -79.5 -51s-62 -18.5 -96 -18.5c-36 0 -69.333 6.16699 -100 18.5s-57 29.333 -79 51s-39.333 46.834 -52 75.501s-19 59.334 -19 92.001s6.33301 63.5 19 92.5
s30 54.167 52 75.5s48.333 38.333 79 51s64 19 100 19s69.167 -6.33301 99.5 -19s56.666 -29.667 78.999 -51s39.833 -46.5 52.5 -75.5s19 -59.833 19 -92.5zM176.001 0v1503h389v-1503h-389z" />
    <glyph glyph-name="j" unicode="j" horiz-adv-x="745" 
d="M623 2011c0 -34 -6.66602 -65.333 -19.999 -94s-31.5 -53.667 -54.5 -75s-49.5 -38 -79.5 -50s-62 -18 -96 -18c-36 0 -69.333 6 -100 18s-57 28.667 -79 50s-39.333 46.333 -52 75s-19 60 -19 94c0 32 6.33301 62.333 19 91s30 53.834 52 75.5
c22 21.667 48.333 39 79 52s64 19.5 100 19.5s69.167 -6.5 99.5 -19.5s56.666 -30.333 78.999 -52s39.833 -46.834 52.5 -75.5c12.667 -28.667 19 -59 19 -91zM176.001 -877v2376h389v-2376h-389z" />
    <glyph glyph-name="k" unicode="k" horiz-adv-x="1565" 
d="M1098 0l-553 553v-553h-389v2445h389v-1298l352 352h533l-656 -655l856 -844h-532z" />
    <glyph glyph-name="l" unicode="l" horiz-adv-x="745" 
d="M176 0v2449h393v-2449h-393z" />
    <glyph glyph-name="m" unicode="m" horiz-adv-x="2314" 
d="M2159 0l-393.999 -0.00195312v905c0 52 -2.16699 95.5 -6.5 130.5s-13 62.833 -26 83.5s-31 35.334 -54 44.001s-52.833 13 -89.5 13c-44 0 -81.167 -7.83301 -111.5 -23.5s-54.666 -38.667 -72.999 -69s-31.666 -67.666 -39.999 -111.999s-12.5 -95.166 -12.5 -152.499
v-819h-389v872c0 54.667 -2.83301 101.167 -8.5 139.5s-15.834 69.666 -30.501 93.999s-34.167 42.166 -58.5 53.499s-54.833 17 -91.5 17c-32.667 0 -63.167 -10.667 -91.5 -32s-53 -50.166 -74 -86.499s-37.5 -78.333 -49.5 -126s-18 -97.5 -18 -149.5v-782h-385v1499h389
v-123c25.333 28 50.5 51 75.5 69s50.167 32.167 75.5 42.5s51.166 17.666 77.499 21.999s53.833 6.5 82.5 6.5c58 0 114.667 -11.667 170 -35s108 -59.666 158 -108.999c57.333 52 120.166 89.667 188.499 113s140.5 35 216.5 35c81.333 0 151.833 -8.5 211.5 -25.5
s110.667 -40.333 153 -70s76.833 -64.667 103.5 -105s47.5 -83.833 62.5 -130.5s25.333 -95.5 31 -146.5s8.5 -102.167 8.5 -153.5v-889z" />
    <glyph glyph-name="n" unicode="n" horiz-adv-x="1589" 
d="M1049 0l0.000976562 877.003c0 61.333 -3.5 111.166 -10.5 149.499s-18.833 68.166 -35.5 89.499s-39 35.833 -67 43.5s-63 11.5 -105 11.5c-44 0 -83.833 -12.833 -119.5 -38.5s-66.167 -59 -91.5 -100s-44.833 -87.5 -58.5 -139.5s-20.5 -104 -20.5 -156v-737h-385
v1499h385v-123c49.333 50 99.666 86.5 150.999 109.5s102 34.5 152 34.5c79.333 0 149 -7.5 209 -22.5s112 -36.167 156 -63.5s80.667 -60.333 110 -99s52.833 -81.834 70.5 -129.501s30.167 -99.167 37.5 -154.5s11 -113.333 11 -174v-877h-389z" />
    <glyph glyph-name="o" unicode="o" horiz-adv-x="1810" 
d="M1737 758c0 -74.667 -9.83398 -145.836 -29.501 -213.503s-47.5 -130.667 -83.5 -189s-79.333 -111.166 -130 -158.499s-107 -87.666 -169 -120.999s-128.667 -59.166 -200 -77.499s-146 -27.5 -224 -27.5c-77.333 0 -151.333 9.33301 -222 28s-136.5 45.167 -197.5 79.5
s-116.333 75.333 -166 123s-92 100.5 -127 158.5s-62.167 120.333 -81.5 187s-29 135.667 -29 207s9.83301 140.333 29.5 207s47.334 129 83.001 187s78.5 110.833 128.5 158.5s105.5 88.5 166.5 122.5s126.5 60.333 196.5 79s143 28 219 28c78 0 152.667 -9 224 -27
s138 -43.5 200 -76.5s118.333 -72.833 169 -119.5s94 -98.834 130 -156.501s63.833 -120.167 83.5 -187.5s29.5 -137.666 29.5 -210.999zM1348 753.998c0 60 -11.5 115.828 -34.5 167.495s-54.667 96.334 -95 134.001s-88.333 67.167 -144 88.5s-116.167 32 -181.5 32
c-58.667 0 -113.667 -11 -165 -33s-96 -52.167 -134 -90.5s-68 -83.166 -90 -134.499s-33 -106 -33 -164c0 -57.333 11.167 -111.666 33.5 -162.999s52.833 -96.166 91.5 -134.499s83.5 -68.666 134.5 -90.999s105.167 -33.5 162.5 -33.5c65.333 0 125.833 10.667 181.5 32
s103.667 50.833 144 88.5s72 82.167 95 133.5s34.5 107.333 34.5 168z" />
    <glyph glyph-name="p" unicode="p" horiz-adv-x="1798" 
d="M1724 737c0 -71.333 -8.17188 -139.835 -24.5049 -205.502s-40 -127.167 -71 -184.5s-69.167 -109.666 -114.5 -156.999s-97.166 -87.666 -155.499 -120.999s-122.666 -59.333 -192.999 -78s-146.166 -28 -227.499 -28c-68 0 -134.5 9 -199.5 27s-129.5 44.667 -193.5 80
v-947h-389v2380h389v-119c67.333 51.333 133.5 87 198.5 107s131.167 31 198.5 33s133.5 -5 198.5 -21s126.5 -40 184.5 -72s111.333 -71.333 160 -118s90.834 -99.5 126.501 -158.5s63.334 -123.5 83.001 -193.5s29.5 -144.667 29.5 -224zM1331 732.998
c0 61.333 -9.6709 119 -29.0039 173s-46.5 101 -81.5 141s-76.5 71.5 -124.5 94.5s-100.667 34.5 -158 34.5c-61.333 0 -116.5 -11.5 -165.5 -34.5s-90.667 -54.667 -125 -95s-60.666 -88.333 -78.999 -144s-27.5 -116.167 -27.5 -181.5c0 -60.667 9.33301 -115.5 28 -164.5
s45.334 -90.667 80.001 -125s76.834 -60.833 126.501 -79.5s105.167 -28 166.5 -28c56 0 107.833 10.5 155.5 31.5s88.834 50 123.501 87s61.667 80.333 81 130s29 103.167 29 160.5z" />
    <glyph glyph-name="q" unicode="q" horiz-adv-x="1802" 
d="M1257 -877l0.000976562 963.002c-27.333 -17.333 -56.833 -33.333 -88.5 -48s-64.334 -27.334 -98.001 -38.001s-67.667 -18.834 -102 -24.501s-67.833 -8.5 -100.5 -8.5c-120.667 0 -229.667 20 -327 60s-180.333 94.667 -249 164s-121.5 150.833 -158.5 244.5
s-55.5 194.167 -55.5 301.5c0 78.667 10 152.834 30 222.501s47.667 133.667 83 192s77.333 110.833 126 157.5s101.5 86.167 158.5 118.5s117.167 57.166 180.5 74.499s127.333 26 192 26c36 0 72.333 -2.83301 109 -8.5s72.667 -14.5 108 -26.5s69.333 -27 102 -45
s62.667 -39.333 90 -64v115h390v-2376h-390zM1266 737.002c0 61.333 -10.001 119 -30.001 173s-47.667 101 -83 141s-77.333 71.5 -126 94.5s-101.667 34.5 -159 34.5c-61.333 0 -116.5 -11.5 -165.5 -34.5s-90.667 -54.667 -125 -95s-60.666 -88.333 -78.999 -144
s-27.5 -116.167 -27.5 -181.5c0 -58 9.66699 -111.333 29 -160s46.666 -90.5 81.999 -125.5s78 -62.333 128 -82s105.667 -29.5 167 -29.5c56 0 107.833 10.5 155.5 31.5s88.834 50 123.501 87s61.667 80.333 81 130s29 103.167 29 160.5z" />
    <glyph glyph-name="r" unicode="r" horiz-adv-x="1044" 
d="M885 1098c-15.333 11.333 -30.001 20 -44.001 26s-26.667 10.5 -38 13.5s-21 4.66699 -29 5s-13.333 0.5 -16 0.5c-33.333 0 -61.833 -7.16699 -85.5 -21.5s-43.334 -33.5 -59.001 -57.5s-28.167 -51.667 -37.5 -83s-16.166 -63.5 -20.499 -96.5
s-7.16602 -65.833 -8.49902 -98.5s-2 -62.667 -2 -90v-696h-389v1499h389v-119c19.333 24.667 40 45.667 62 63s44.333 31.333 67 42s45 18.5 67 23.5s42.667 7.5 62 7.5c28.667 0 55.5 -2.16699 80.5 -6.5s48.667 -10 71 -17s43.833 -14.833 64.5 -23.5l62 -27z" />
    <glyph glyph-name="s" unicode="s" horiz-adv-x="1249" 
d="M1188 487c0 -76.667 -15.0029 -147.17 -45.0029 -211.503s-70.667 -119.666 -122 -165.999s-110.833 -82.333 -178.5 -108s-139.5 -38.5 -215.5 -38.5c-65.333 0 -127.666 9.66699 -186.999 29s-114.333 48.666 -165 87.999s-96.167 89 -136.5 149
s-74.166 131 -101.499 213l352 131c15.333 -49.333 31.833 -90.5 49.5 -123.5s36.334 -59.5 56.001 -79.5s40.5 -34.167 62.5 -42.5s45.333 -12.5 70 -12.5s47.667 4.5 69 13.5s40 21.5 56 37.5s28.5 34.833 37.5 56.5s13.5 44.834 13.5 69.501
c0 23.333 -4.5 42.166 -13.5 56.499s-21.5 26.333 -37.5 36s-35.333 17.834 -58 24.501l-76 22c-32.667 10.667 -67.334 23.5 -104.001 38.5s-73 32.333 -109 52s-70.667 41.834 -104 66.501s-62.5 52.5 -87.5 83.5s-45 64.833 -60 101.5s-22.5 77 -22.5 121
c0 68.667 13.667 130 41 184s63.833 99.833 109.5 137.5s98.167 66.5 157.5 86.5s120.666 30 183.999 30c42 0 83.167 -4.66699 123.5 -14s80.166 -25.166 119.499 -47.499s77.833 -52.5 115.5 -90.5s75.167 -85.667 112.5 -143l-324 -180
c-19.333 32.667 -36.833 57.667 -52.5 75s-29.667 29.833 -42 37.5s-23.166 12 -32.499 13s-17.666 1.5 -24.999 1.5c-16 0 -30.167 -2.5 -42.5 -7.5s-22.666 -11.5 -30.999 -19.5s-14.5 -16.833 -18.5 -26.5s-6 -19.167 -6 -28.5c0 -18.667 9.5 -35 28.5 -49
s44.167 -27.5 75.5 -40.5s67 -26.5 107 -40.5s81 -30.167 123 -48.5s83 -39.833 123 -64.5s75.667 -54.334 107 -89.001s56.5 -75.167 75.5 -121.5s28.5 -100.166 28.5 -161.499z" />
    <glyph glyph-name="t" unicode="t" horiz-adv-x="1020" 
d="M676 1147v-1147h-393v1147h-209v352h209v537h393v-537h299v-352h-299z" />
    <glyph glyph-name="u" unicode="u" horiz-adv-x="1593" 
d="M1438 618c0 -93.333 -10.335 -179.666 -31.002 -258.999s-55.667 -148 -105 -206s-115.166 -103.5 -197.499 -136.5s-185.5 -49.5 -309.5 -49.5c-123.333 0 -225.833 16.5 -307.5 49.5s-147.167 78.667 -196.5 137s-84.166 127.666 -104.499 207.999
s-30.5 167.5 -30.5 261.5v876h389v-876c0 -58.667 3 -107.167 9 -145.5s18 -68.833 36 -91.5s43.333 -38.667 76 -48s75.667 -14 129 -14s96.5 4.66699 129.5 14s58.833 25.333 77.5 48s31.167 53.167 37.5 91.5s9.5 86.833 9.5 145.5v876h389v-881z" />
    <glyph glyph-name="v" unicode="v" horiz-adv-x="1638" 
d="M946 0h-246l-692 1499h418l352 -754l49 -131l45 136l336 749h422z" />
    <glyph glyph-name="w" unicode="w" horiz-adv-x="2548" 
d="M1876 0h-246l-356 815l-344 -815h-246l-680 1499h422l324 -725l57 -147l49 143l307 729h234l303 -708l57 -168l62 163l311 713h410z" />
    <glyph glyph-name="x" unicode="x" horiz-adv-x="1737" 
d="M1262 0l-402 496l-401 -496h-475l630 786l-594 713h480l356 -438l356 438h492l-594 -721l635 -778h-483z" />
    <glyph glyph-name="y" unicode="y" horiz-adv-x="1815" 
d="M754 -877h-418l401 902l-729 1474h422l512 -1024l455 1024h413z" />
    <glyph glyph-name="z" unicode="z" horiz-adv-x="1573" 
d="M102 0v287l795 864h-754v348h1327v-278l-798 -873h798v-348h-1368z" />
    <glyph glyph-name="braceleft" unicode="{" horiz-adv-x="934" 
d="M893 -492c-128 8 -232.5 25.3291 -313.5 51.9961s-144.333 63.5 -190 110.5s-77 104.5 -94 172.5s-25.5 147.667 -25.5 239v446c0 24.667 -3 47.167 -9 67.5s-16.167 40.5 -30.5 60.5s-33.833 41.333 -58.5 64s-56 49 -94 79v237c40 30 72.5 55.833 97.5 77.5
s44.5 42 58.5 61s23.5 37.833 28.5 56.5s7.5 39.667 7.5 63v455c0 90 8.5 169.5 25.5 238.5s48.333 127.5 94 175.5s109 85.167 190 111.5s185.5 42.166 313.5 47.5v-364c-61.333 -3.33301 -109.333 -6.83301 -144 -10.5s-60.5 -9.16699 -77.5 -16.5s-27.333 -17 -31 -29
s-5.5 -27.667 -5.5 -47v-487c0 -57.333 -2.83301 -108.666 -8.5 -153.999s-14.334 -86.166 -26.001 -122.499s-26.167 -69 -43.5 -98s-37.666 -55.833 -60.999 -80.5c23.333 -25.333 43.666 -53.166 60.999 -83.499s31.833 -64.333 43.5 -102s20.334 -79.667 26.001 -126
s8.5 -98.166 8.5 -155.499v-466c0 -20.667 1.83301 -37.667 5.5 -51s14 -23.833 31 -31.5s42.833 -13 77.5 -16s82.667 -4.5 144 -4.5v-369z" />
    <glyph glyph-name="bar" unicode="|" horiz-adv-x="893" 
d="M270 -29v2442h357v-2442h-357z" />
    <glyph glyph-name="braceright" unicode="}" horiz-adv-x="934" 
d="M852 799c-39.333 -30.667 -71.332 -57.1611 -95.999 -79.4941s-44.334 -43.5 -59.001 -63.5s-24.667 -39.833 -30 -59.5s-8 -42.5 -8 -68.5v-446c0 -60.667 -3.5 -116.334 -10.5 -167.001s-19.333 -96.334 -37 -137.001s-41.5 -76.5 -71.5 -107.5s-68 -57.667 -114 -80
s-101 -40.333 -165 -54s-138.667 -23.167 -224 -28.5v369c61.333 0 109.333 1.5 144 4.5s60.5 8.33301 77.5 16s27.333 18.167 31 31.5s5.5 30.333 5.5 51v466c0 57.333 2.83301 109.166 8.5 155.499s14.167 88.333 25.5 126s25.833 71.667 43.5 102
s38.167 58.166 61.5 83.499c-23.333 24.667 -43.833 51.5 -61.5 80.5s-32.167 61.667 -43.5 98s-19.833 77.166 -25.5 122.499s-8.5 96.666 -8.5 153.999v487c0 19.333 -1.83301 35 -5.5 47s-14 21.667 -31 29s-42.833 12.833 -77.5 16.5s-82.667 7.16699 -144 10.5v364
c85.333 -3.33301 160 -11.5 224 -24.5s119 -30.667 165 -53s84 -49.5 114 -81.5s53.833 -68.667 71.5 -110s30 -87.333 37 -138s10.5 -106 10.5 -166v-455c0 -23.333 2.5 -44.333 7.5 -63s14.667 -37.5 29 -56.5s34 -39.333 59 -61s57.5 -47.5 97.5 -77.5v-237z" />
    <glyph glyph-name="asciitilde" unicode="~" horiz-adv-x="1876" 
d="M1810 926c-36 -64.667 -73.667 -125.165 -113 -181.498s-81.666 -105.333 -126.999 -147s-94.166 -74.5 -146.499 -98.5s-109.166 -36 -170.499 -36c-38.667 0 -76.167 5.5 -112.5 16.5s-71.5 24.667 -105.5 41s-67.333 34 -100 53s-65 36.667 -97 53
s-63.833 30 -95.5 41s-63.5 16.5 -95.5 16.5c-14 0 -28 -3 -42 -9s-30 -17.667 -48 -35s-39 -41.833 -63 -73.5s-53.333 -73.167 -88 -124.5l-328 168c42 62.667 84 120.667 126 174s85.667 99.666 131 138.999s93.666 70.166 144.999 92.499s107 33.5 167 33.5
c37.333 0 76 -5.33301 116 -16s79.667 -24.167 119 -40.5s77.666 -33.833 114.999 -52.5l105 -52.5c32.667 -16.333 62.167 -29.833 88.5 -40.5s48.5 -16 66.5 -16c12.667 0 25.667 3 39 9s28.666 18.5 45.999 37.5s37 46.333 59 82s48 83.167 78 142.5z" />
    <glyph glyph-name="saraileftthai" 
d="M-1966 2085v348h1261v-348h-1261z" />
    <glyph glyph-name="saraileftthai" unicode="&#xf701;" 
d="M-1966 2085v348h1261v-348h-1261z" />
    <glyph glyph-name="saraiileftthai" 
d="M-1966 2085v348h909v233h352v-581h-1261z" />
    <glyph glyph-name="saraiileftthai" unicode="&#xf702;" 
d="M-1966 2085v348h909v233h352v-581h-1261z" />
    <glyph glyph-name="saraueleftthai" 
d="M-684 2384c0 -41.333 -7.66406 -80 -22.9971 -116s-36.333 -67.667 -63 -95s-58 -48.833 -94 -64.5s-74.333 -23.5 -115 -23.5h-987v348h696c7.33301 36 19.666 69 36.999 99s38.666 55.833 63.999 77.5s54.166 38.667 86.499 51s66.833 18.5 103.5 18.5
c40.667 0 79 -7.66699 115 -23s67.333 -36.333 94 -63s47.667 -58 63 -94s23 -74.333 23 -115zM-1081 2380c0 -13.333 2.66699 -26 8 -38s12.5 -22.5 21.5 -31.5s19.333 -16.167 31 -21.5s24.167 -8 37.5 -8s25.833 2.66699 37.5 8s22 12.5 31 21.5s16.167 19.5 21.5 31.5
s8 24.667 8 38s-2.66699 25.833 -8 37.5s-12.5 22 -21.5 31s-19.333 16.167 -31 21.5s-24.167 8 -37.5 8s-25.833 -2.66699 -37.5 -8s-22 -12.5 -31 -21.5s-16.167 -19.333 -21.5 -31s-8 -24.167 -8 -37.5z" />
    <glyph glyph-name="saraueleftthai" unicode="&#xf703;" 
d="M-684 2384c0 -41.333 -7.66406 -80 -22.9971 -116s-36.333 -67.667 -63 -95s-58 -48.833 -94 -64.5s-74.333 -23.5 -115 -23.5h-987v348h696c7.33301 36 19.666 69 36.999 99s38.666 55.833 63.999 77.5s54.166 38.667 86.499 51s66.833 18.5 103.5 18.5
c40.667 0 79 -7.66699 115 -23s67.333 -36.333 94 -63s47.667 -58 63 -94s23 -74.333 23 -115zM-1081 2380c0 -13.333 2.66699 -26 8 -38s12.5 -22.5 21.5 -31.5s19.333 -16.167 31 -21.5s24.167 -8 37.5 -8s25.833 2.66699 37.5 8s22 12.5 31 21.5s16.167 19.5 21.5 31.5
s8 24.667 8 38s-2.66699 25.833 -8 37.5s-12.5 22 -21.5 31s-19.333 16.167 -31 21.5s-24.167 8 -37.5 8s-25.833 -2.66699 -37.5 -8s-22 -12.5 -31 -21.5s-16.167 -19.333 -21.5 -31s-8 -24.167 -8 -37.5z" />
    <glyph glyph-name="saraueeleftthai" 
d="M-1966 2085v344h434v237h332v-237h164v237h331v-581h-1261z" />
    <glyph glyph-name="saraueeleftthai" unicode="&#xf704;" 
d="M-1966 2085v344h434v237h332v-237h164v237h331v-581h-1261z" />
    <glyph glyph-name="maieklowleftthai" 
d="M-1167 2085v729h381v-729h-381z" />
    <glyph glyph-name="maieklowleftthai" unicode="&#xf705;" 
d="M-1167 2085v729h381v-729h-381z" />
    <glyph glyph-name="maitholowleftthai" 
d="M-1655 2085l38 66.5l42.5 76l40.5 74c12.667 23.667 23 44.167 31 61.5c4.66699 9.33301 8.33398 20.5 11.001 33.5s3 25.5 1 37.5s-6.83301 22.333 -14.5 31s-19.167 13 -34.5 13c-27.333 0 -45 -8 -53 -24l-189 184c33.333 34.667 72.833 61 118.5 79
s92.167 27 139.5 27c44 0 87 -7.16699 129 -21.5s78.833 -35 110.5 -62s56.167 -59.667 73.5 -98s23.666 -81.5 18.999 -129.5l-4 -41h37h483v-307h-979z" />
    <glyph glyph-name="maitholowleftthai" unicode="&#xf706;" 
d="M-1655 2085l38 66.5l42.5 76l40.5 74c12.667 23.667 23 44.167 31 61.5c4.66699 9.33301 8.33398 20.5 11.001 33.5s3 25.5 1 37.5s-6.83301 22.333 -14.5 31s-19.167 13 -34.5 13c-27.333 0 -45 -8 -53 -24l-189 184c33.333 34.667 72.833 61 118.5 79
s92.167 27 139.5 27c44 0 87 -7.16699 129 -21.5s78.833 -35 110.5 -62s56.167 -59.667 73.5 -98s23.666 -81.5 18.999 -129.5l-4 -41h37h483v-307h-979z" />
    <glyph glyph-name="maitrilowleftthai" 
d="M-1282 2085l39.502 59l44.5 68.5c14.667 23.667 28.5 47.167 41.5 70.5s23.167 44.666 30.5 64c4 12 5.5 24 4.5 36s-4 22.5 -9 31.5s-11.667 16.333 -20 22s-18.166 8.5 -29.499 8.5c-8 0 -16.167 -1.66699 -24.5 -5s-15.666 -9 -21.999 -17
s-11.666 -18.5 -15.999 -31.5s-6.5 -29.167 -6.5 -48.5h-217c-4 70.667 -26 106 -66 106c-40.667 0 -61 -21.667 -61 -65c0 -11.333 2.5 -21.666 7.5 -31c5 -9.33301 12 -18.5 21 -27.5s20.167 -18.667 33.5 -29l44 -35.5l-209 -197c-34 19.333 -64.833 40.333 -92.5 63
s-51.334 47 -71.001 73s-34.834 53.667 -45.501 83s-16 60.333 -16 93c0 52 9.83301 99.667 29.5 143s46.167 80.5 79.5 111.5s72.5 55 117.5 72s92.5 25.5 142.5 25.5c30.667 0 62.667 -5.5 96 -16.5s65.333 -28.833 96 -53.5c31.333 24.667 63.666 42.5 96.999 53.5
s66.666 16.5 99.999 16.5c48 0 93.167 -8 135.5 -24s79.666 -38.667 111.999 -68s58.333 -64.333 78 -105s31.167 -85.667 34.5 -135h127v-311h-606z" />
    <glyph glyph-name="maitrilowleftthai" unicode="&#xf707;" 
d="M-1282 2085l39.502 59l44.5 68.5c14.667 23.667 28.5 47.167 41.5 70.5s23.167 44.666 30.5 64c4 12 5.5 24 4.5 36s-4 22.5 -9 31.5s-11.667 16.333 -20 22s-18.166 8.5 -29.499 8.5c-8 0 -16.167 -1.66699 -24.5 -5s-15.666 -9 -21.999 -17
s-11.666 -18.5 -15.999 -31.5s-6.5 -29.167 -6.5 -48.5h-217c-4 70.667 -26 106 -66 106c-40.667 0 -61 -21.667 -61 -65c0 -11.333 2.5 -21.666 7.5 -31c5 -9.33301 12 -18.5 21 -27.5s20.167 -18.667 33.5 -29l44 -35.5l-209 -197c-34 19.333 -64.833 40.333 -92.5 63
s-51.334 47 -71.001 73s-34.834 53.667 -45.501 83s-16 60.333 -16 93c0 52 9.83301 99.667 29.5 143s46.167 80.5 79.5 111.5s72.5 55 117.5 72s92.5 25.5 142.5 25.5c30.667 0 62.667 -5.5 96 -16.5s65.333 -28.833 96 -53.5c31.333 24.667 63.666 42.5 96.999 53.5
s66.666 16.5 99.999 16.5c48 0 93.167 -8 135.5 -24s79.666 -38.667 111.999 -68s58.333 -64.333 78 -105s31.167 -85.667 34.5 -135h127v-311h-606z" />
    <glyph glyph-name="maichattawalowleftthai" 
d="M-922 2318v-233h-368v229h-242v340h242v234h368v-230h246v-340h-246z" />
    <glyph glyph-name="maichattawalowleftthai" unicode="&#xf708;" 
d="M-922 2318v-233h-368v229h-242v340h242v234h368v-230h246v-340h-246z" />
    <glyph glyph-name="thanthakhatlowleftthai" 
d="M-1057 2339c-18.667 0 -30.834 -4.66602 -36.501 -13.999s-0.166992 -21 16.5 -35l82 -82l-209 -230c-74 65.333 -128 128.166 -162 188.499s-51 119.166 -51 176.5c0 50 7.83301 95 23.5 135s38.334 74 68.001 102s65.5 49.333 107.5 64s89 22 141 22h401v-327h-381z
" />
    <glyph glyph-name="thanthakhatlowleftthai" unicode="&#xf709;" 
d="M-1057 2339c-18.667 0 -30.834 -4.66602 -36.501 -13.999s-0.166992 -21 16.5 -35l82 -82l-209 -230c-74 65.333 -128 128.166 -162 188.499s-51 119.166 -51 176.5c0 50 7.83301 95 23.5 135s38.334 74 68.001 102s65.5 49.333 107.5 64s89 22 141 22h401v-327h-381z
" />
    <glyph glyph-name="maieklowrightthai" 
d="M-537 2085v733h381v-729z" />
    <glyph glyph-name="maieklowrightthai" unicode="&#xf70a;" 
d="M-537 2085v733h381v-729z" />
    <glyph glyph-name="maitholowrightthai" 
d="M-1130 2085l37.5 66.5l41 76l39.5 74l33 61.5c4 9.33301 7 20.5 9 33.5s1.83301 25.5 -0.5 37.5s-7.33301 22.333 -15 31s-19.167 13 -34.5 13c-23.333 0 -41 -8 -53 -24l-189 184c35.333 34.667 76 61 122 79s93 27 141 27c44 0 87.667 -7.33301 131 -22
s81.333 -35.5 114 -62.5s57.5 -59.667 74.5 -98s20.833 -81.166 11.5 -128.5l-8 -41h520v-307h-974z" />
    <glyph glyph-name="maitholowrightthai" unicode="&#xf70b;" 
d="M-1130 2085l37.5 66.5l41 76l39.5 74l33 61.5c4 9.33301 7 20.5 9 33.5s1.83301 25.5 -0.5 37.5s-7.33301 22.333 -15 31s-19.167 13 -34.5 13c-23.333 0 -41 -8 -53 -24l-189 184c35.333 34.667 76 61 122 79s93 27 141 27c44 0 87.667 -7.33301 131 -22
s81.333 -35.5 114 -62.5s57.5 -59.667 74.5 -98s20.833 -81.166 11.5 -128.5l-8 -41h520v-307h-974z" />
    <glyph glyph-name="maitrilowrightthai" 
d="M-807 2085l38.502 60.5l43.5 70.5c14.667 24 28.167 47.5 40.5 70.5s22.166 43.167 29.499 60.5c4.66699 12 6.66699 24 6 36s-3.5 22.5 -8.5 31.5s-12 16.333 -21 22s-19.167 8.5 -30.5 8.5c-18 0 -34 -8.16699 -48 -24.5s-21 -42.166 -21 -77.5h-213
c-2 38.667 -10 66 -24 82s-29.333 24 -46 24c-38 0 -57 -21.667 -57 -65c0 -15.333 3.33301 -29 10 -41s15 -22.833 25 -32.5s20.667 -18.5 32 -26.5s21.666 -15.667 30.999 -23l-201 -197c-72 39.333 -127.5 84.666 -166.5 136c-39 51.333 -58.5 110 -58.5 176
c0 52 9.83301 99.667 29.5 143s46.167 80.5 79.5 111.5s72 55 116 72s90.667 25.5 140 25.5c32.667 0 65.834 -5.5 99.501 -16.5s65.834 -28.833 96.501 -53.5c27.333 24.667 58.666 42.5 93.999 53.5s69.666 16.5 102.999 16.5c46 0 89.833 -8 131.5 -24
s78.667 -38.667 111 -68s58.5 -64.333 78.5 -105s31.667 -85.667 35 -135h332v-311h-807z" />
    <glyph glyph-name="maitrilowrightthai" unicode="&#xf70c;" 
d="M-807 2085l38.502 60.5l43.5 70.5c14.667 24 28.167 47.5 40.5 70.5s22.166 43.167 29.499 60.5c4.66699 12 6.66699 24 6 36s-3.5 22.5 -8.5 31.5s-12 16.333 -21 22s-19.167 8.5 -30.5 8.5c-18 0 -34 -8.16699 -48 -24.5s-21 -42.166 -21 -77.5h-213
c-2 38.667 -10 66 -24 82s-29.333 24 -46 24c-38 0 -57 -21.667 -57 -65c0 -15.333 3.33301 -29 10 -41s15 -22.833 25 -32.5s20.667 -18.5 32 -26.5s21.666 -15.667 30.999 -23l-201 -197c-72 39.333 -127.5 84.666 -166.5 136c-39 51.333 -58.5 110 -58.5 176
c0 52 9.83301 99.667 29.5 143s46.167 80.5 79.5 111.5s72 55 116 72s90.667 25.5 140 25.5c32.667 0 65.834 -5.5 99.501 -16.5s65.834 -28.833 96.501 -53.5c27.333 24.667 58.666 42.5 93.999 53.5s69.666 16.5 102.999 16.5c46 0 89.833 -8 131.5 -24
s78.667 -38.667 111 -68s58.5 -64.333 78.5 -105s31.667 -85.667 35 -135h332v-311h-807z" />
    <glyph glyph-name="maichattawalowrightthai" 
d="M-156 2318v-233h-368v229h-242v340h242v234h368v-230h246v-340h-246z" />
    <glyph glyph-name="maichattawalowrightthai" unicode="&#xf70d;" 
d="M-156 2318v-233h-368v229h-242v340h242v234h368v-230h246v-340h-246z" />
    <glyph glyph-name="thanthakhatlowrightthai" 
d="M-438 2367c-18.667 0 -31 -4.5 -37 -13.5s-0.666992 -20.833 16 -35.5l82 -82l-229 -229c-37.333 32.667 -68.333 64.5 -93 95.5s-44.334 61.5 -59.001 91.5s-25.167 59.667 -31.5 89s-9.5 59 -9.5 89c0 50 7.83301 95 23.5 135s38.334 73.833 68.001 101.5
s65.5 49 107.5 64s89 22.5 141 22.5h402v-328h-381z" />
    <glyph glyph-name="thanthakhatlowrightthai" unicode="&#xf70e;" 
d="M-438 2367c-18.667 0 -31 -4.5 -37 -13.5s-0.666992 -20.833 16 -35.5l82 -82l-229 -229c-37.333 32.667 -68.333 64.5 -93 95.5s-44.334 61.5 -59.001 91.5s-25.167 59.667 -31.5 89s-9.5 59 -9.5 89c0 50 7.83301 95 23.5 135s38.334 73.833 68.001 101.5
s65.5 49 107.5 64s89 22.5 141 22.5h402v-328h-381z" />
    <glyph glyph-name="maihanakatleftthai" 
d="M-905 2089c-49.333 0 -95.168 9.5 -137.501 28.5s-79.166 44.5 -110.499 76.5s-55.833 69 -73.5 111s-26.5 86 -26.5 132v229h344v-229h970v-348h-966z" />
    <glyph glyph-name="maihanakatleftthai" unicode="&#xf710;" 
d="M-905 2089c-49.333 0 -95.168 9.5 -137.501 28.5s-79.166 44.5 -110.499 76.5s-55.833 69 -73.5 111s-26.5 86 -26.5 132v229h344v-229h970v-348h-966z" />
    <glyph glyph-name="nikhahitleftthai" 
d="M-700 2425c0 -50 -9.66699 -97.167 -29 -141.5s-45.5 -83 -78.5 -116s-71.667 -59.167 -116 -78.5s-91.5 -29 -141.5 -29s-97.167 9.66699 -141.5 29s-83 45.5 -116 78.5s-59.167 71.667 -78.5 116s-29 91.5 -29 141.5s9.66699 97.167 29 141.5s45.5 83 78.5 116
s71.667 59 116 78s91.5 28.5 141.5 28.5s97.167 -9.5 141.5 -28.5s83 -45 116 -78s59.167 -71.667 78.5 -116s29 -91.5 29 -141.5zM-958 2421c0 15.333 -2.66797 29.666 -8.00098 43c-5.33301 13.333 -12.833 25 -22.5 35s-21 17.833 -34 23.5s-27.167 8.5 -42.5 8.5
s-29.5 -2.83301 -42.5 -8.5s-24.167 -13.5 -33.5 -23.5s-16.666 -21.667 -21.999 -35s-8 -27.666 -8 -43c0 -31.333 10 -57 30 -77s45.333 -30 76 -30s56.167 10 76.5 30s30.5 45.667 30.5 77z" />
    <glyph glyph-name="nikhahitleftthai" unicode="&#xf711;" 
d="M-700 2425c0 -50 -9.66699 -97.167 -29 -141.5s-45.5 -83 -78.5 -116s-71.667 -59.167 -116 -78.5s-91.5 -29 -141.5 -29s-97.167 9.66699 -141.5 29s-83 45.5 -116 78.5s-59.167 71.667 -78.5 116s-29 91.5 -29 141.5s9.66699 97.167 29 141.5s45.5 83 78.5 116
s71.667 59 116 78s91.5 28.5 141.5 28.5s97.167 -9.5 141.5 -28.5s83 -45 116 -78s59.167 -71.667 78.5 -116s29 -91.5 29 -141.5zM-958 2421c0 15.333 -2.66797 29.666 -8.00098 43c-5.33301 13.333 -12.833 25 -22.5 35s-21 17.833 -34 23.5s-27.167 8.5 -42.5 8.5
s-29.5 -2.83301 -42.5 -8.5s-24.167 -13.5 -33.5 -23.5s-16.666 -21.667 -21.999 -35s-8 -27.666 -8 -43c0 -31.333 10 -57 30 -77s45.333 -30 76 -30s56.167 10 76.5 30s30.5 45.667 30.5 77z" />
    <glyph glyph-name="maitaikhuleftthai" 
d="M-1589 2707c-12 0 -23.333 -4.83301 -34 -14.5s-19.834 -22 -27.501 -37s-13.667 -31.667 -18 -50s-6.5 -36.166 -6.5 -53.5c0 -49.333 8.33301 -88.333 25 -117s38.334 -43 65.001 -43c57.333 0 86 57.333 86 172h315c0 -117.333 27.333 -176 82 -176
c33.333 0 56 14.333 68 43s18 73 18 133h328c0 -87.333 -10.5 -161.333 -31.5 -222s-50 -110 -87 -148s-80.5 -65.667 -130.5 -83s-103.667 -26 -161 -26c-90 0 -171.667 28.667 -245 86c-74.667 -57.333 -156.667 -86 -246 -86c-60.667 0 -116.167 12.167 -166.5 36.5
s-93.5 57.666 -129.5 100c-36 42.333 -64 91.833 -84 148.5s-30 117.334 -30 182c0 64.667 10 125.334 30 182c20 56.667 48 106.167 84 148.5s79.167 75.666 129.5 100c50.333 24.333 105.833 36.5 166.5 36.5h971v-312h-971z" />
    <glyph glyph-name="maitaikhuleftthai" unicode="&#xf712;" 
d="M-1589 2707c-12 0 -23.333 -4.83301 -34 -14.5s-19.834 -22 -27.501 -37s-13.667 -31.667 -18 -50s-6.5 -36.166 -6.5 -53.5c0 -49.333 8.33301 -88.333 25 -117s38.334 -43 65.001 -43c57.333 0 86 57.333 86 172h315c0 -117.333 27.333 -176 82 -176
c33.333 0 56 14.333 68 43s18 73 18 133h328c0 -87.333 -10.5 -161.333 -31.5 -222s-50 -110 -87 -148s-80.5 -65.667 -130.5 -83s-103.667 -26 -161 -26c-90 0 -171.667 28.667 -245 86c-74.667 -57.333 -156.667 -86 -246 -86c-60.667 0 -116.167 12.167 -166.5 36.5
s-93.5 57.666 -129.5 100c-36 42.333 -64 91.833 -84 148.5s-30 117.334 -30 182c0 64.667 10 125.334 30 182c20 56.667 48 106.167 84 148.5s79.167 75.666 129.5 100c50.333 24.333 105.833 36.5 166.5 36.5h971v-312h-971z" />
    <glyph glyph-name="maiekupperleftthai" 
d="M-1057 2879v599h352v-599h-352z" />
    <glyph glyph-name="maiekupperleftthai" unicode="&#xf713;" 
d="M-1057 2879v599h352v-599h-352z" />
    <glyph glyph-name="maithoupperleftthai" 
d="M-1196 2879l35.999 62.5l38.5 67c13 22.333 25.333 44.666 37 67l31.5 62.5c4 8.66699 7.16699 19.334 9.5 32c2.33301 12.667 2.33301 24.834 0 36.5c-2.33301 11.667 -7.5 21.5 -15.5 29.5s-19.667 12 -35 12c-23.333 0 -41 -8 -53 -24l-184 188
c32.667 35.333 72 61.833 118 79.5s92.667 26.5 140 26.5c44 0 87.833 -7.33301 131.5 -22s82 -35.5 115 -62.5s57.833 -59.667 74.5 -98s20.334 -81.166 11.001 -128.5l-9 -45l37 4l557 -4v-283h-1040z" />
    <glyph glyph-name="maithoupperleftthai" unicode="&#xf714;" 
d="M-1196 2879l35.999 62.5l38.5 67c13 22.333 25.333 44.666 37 67l31.5 62.5c4 8.66699 7.16699 19.334 9.5 32c2.33301 12.667 2.33301 24.834 0 36.5c-2.33301 11.667 -7.5 21.5 -15.5 29.5s-19.667 12 -35 12c-23.333 0 -41 -8 -53 -24l-184 188
c32.667 35.333 72 61.833 118 79.5s92.667 26.5 140 26.5c44 0 87.833 -7.33301 131.5 -22s82 -35.5 115 -62.5s57.833 -59.667 74.5 -98s20.334 -81.166 11.001 -128.5l-9 -45l37 4l557 -4v-283h-1040z" />
    <glyph glyph-name="maitriupperleftthai" 
d="M-750 2879c28 40 53.5029 79.667 76.5029 119s44.167 80.333 63.5 123c2.66699 9.33301 4.33398 20.166 5.00098 32.5c0.666992 12.333 -1 24 -5 35s-10.5 20.333 -19.5 28s-21.833 11.5 -38.5 11.5c-15.333 0 -27.833 -2 -37.5 -6s-17.167 -10.333 -22.5 -19
s-9.33301 -20 -12 -34s-4.33398 -31.333 -5.00098 -52h-197c-1.33301 11.333 -3.33301 23.333 -6 36s-6.5 24.167 -11.5 34.5s-11.5 19 -19.5 26s-17.667 10.5 -29 10.5c-22.667 0 -40.5 -5.33301 -53.5 -16s-19.5 -27.334 -19.5 -50c0 -22.667 8.66699 -43.334 26 -62
c17.333 -18.667 37.333 -36.334 60 -53l-189 -180c-64 35.333 -114.167 77.666 -150.5 127c-36.333 49.333 -54.5 104 -54.5 164c0 49.333 9.16699 94.5 27.5 135.5s43.166 76.333 74.499 106s68.333 52.834 111 69.5c42.667 16.667 88 25 136 25c70.667 0 136 -26 196 -78
c31.333 26.667 64.166 46.334 98.499 59c34.333 12.667 67.166 19 98.499 19c44 0 85.833 -7.66699 125.5 -23s75 -37.5 106 -66.5s56 -64.333 75 -106s30.167 -88.5 33.5 -140.5l33 4l270 -4v-275h-746z" />
    <glyph glyph-name="maitriupperleftthai" unicode="&#xf715;" 
d="M-750 2879c28 40 53.5029 79.667 76.5029 119s44.167 80.333 63.5 123c2.66699 9.33301 4.33398 20.166 5.00098 32.5c0.666992 12.333 -1 24 -5 35s-10.5 20.333 -19.5 28s-21.833 11.5 -38.5 11.5c-15.333 0 -27.833 -2 -37.5 -6s-17.167 -10.333 -22.5 -19
s-9.33301 -20 -12 -34s-4.33398 -31.333 -5.00098 -52h-197c-1.33301 11.333 -3.33301 23.333 -6 36s-6.5 24.167 -11.5 34.5s-11.5 19 -19.5 26s-17.667 10.5 -29 10.5c-22.667 0 -40.5 -5.33301 -53.5 -16s-19.5 -27.334 -19.5 -50c0 -22.667 8.66699 -43.334 26 -62
c17.333 -18.667 37.333 -36.334 60 -53l-189 -180c-64 35.333 -114.167 77.666 -150.5 127c-36.333 49.333 -54.5 104 -54.5 164c0 49.333 9.16699 94.5 27.5 135.5s43.166 76.333 74.499 106s68.333 52.834 111 69.5c42.667 16.667 88 25 136 25c70.667 0 136 -26 196 -78
c31.333 26.667 64.166 46.334 98.499 59c34.333 12.667 67.166 19 98.499 19c44 0 85.833 -7.66699 125.5 -23s75 -37.5 106 -66.5s56 -64.333 75 -106s30.167 -88.5 33.5 -140.5l33 4l270 -4v-275h-746z" />
    <glyph glyph-name="maichattawaupperleftthai" 
d="M-705 3060v-181h-352v177h-188v315h184v180h352v-176h189v-315h-185z" />
    <glyph glyph-name="maichattawaupperleftthai" unicode="&#xf716;" 
d="M-705 3060v-181h-352v177h-188v315h184v180h352v-176h189v-315h-185z" />
    <glyph glyph-name="thanthakhatupperleftthai" 
d="M-922 2982c-18 0 -30 -5.33301 -36 -16s-0.666992 -23 16 -37l86 -82l-229 -226c-37.333 32.667 -68.5 64.5 -93.5 95.5s-45.167 61.5 -60.5 91.5s-26.333 59.667 -33 89s-10 59 -10 89c0 50 8.33301 94.833 25 134.5s40 73.167 70 100.5s65.833 48.166 107.5 62.5
c41.667 14.333 87.5 21.5 137.5 21.5h401v-323h-381z" />
    <glyph glyph-name="thanthakhatupperleftthai" unicode="&#xf717;" 
d="M-922 2982c-18 0 -30 -5.33301 -36 -16s-0.666992 -23 16 -37l86 -82l-229 -226c-37.333 32.667 -68.5 64.5 -93.5 95.5s-45.167 61.5 -60.5 91.5s-26.333 59.667 -33 89s-10 59 -10 89c0 50 8.33301 94.833 25 134.5s40 73.167 70 100.5s65.833 48.166 107.5 62.5
c41.667 14.333 87.5 21.5 137.5 21.5h401v-323h-381z" />
    <glyph glyph-name="uni00A0" unicode="&#xa0;" horiz-adv-x="1024" 
 />
    <glyph glyph-name="cent" unicode="&#xa2;" horiz-adv-x="1864" 
d="M1642 573c-38 -36 -75.1699 -67.167 -111.503 -93.5s-72.5 -49.166 -108.5 -68.499s-72.167 -35.666 -108.5 -48.999s-72.833 -24.666 -109.5 -33.999v-275h-352v279c-86 24.667 -164.167 61.5 -234.5 110.5s-130.666 107.5 -180.999 175.5
s-89.166 144.167 -116.499 228.5s-41 173.5 -41 267.5c0 92 14.167 179.833 42.5 263.5s67.666 159.5 117.999 227.5s110.666 126.167 180.999 174.5s147.5 83.166 231.5 104.499v242h352v-225c72.667 -14.667 145.5 -40.334 218.5 -77.001s143.5 -85 211.5 -145l-200 -311
l-71 56.5c-21.333 16.333 -41.166 30.666 -59.499 42.999s-35.666 23 -51.999 32s-32.166 17.167 -47.499 24.5v-824c15.333 7.33301 31 15.666 47 24.999s33.167 20.5 51.5 33.5s38.5 28.333 60.5 46s47 38.834 75 63.501zM638.997 1114
c0 -84.667 18.5 -160.833 55.5 -228.5s89.5 -121.167 157.5 -160.5v770c-66 -39.333 -118 -92 -156 -158s-57 -140.333 -57 -223z" />
    <glyph glyph-name="sterling" unicode="&#xa3;" horiz-adv-x="1733" 
d="M1249 1307c0 86.667 -9.99707 161.332 -29.9971 223.999s-46.5 114 -79.5 154s-70.333 69.5 -112 88.5s-83.834 28.5 -126.501 28.5c-44 0 -84.667 -8.33301 -122 -25s-69.833 -40.5 -97.5 -71.5s-49.167 -68.5 -64.5 -112.5s-23 -93 -23 -147v-221h401v-377h-401v-475
h987v-377h-1520v377h127v475h-127v377h127v221c0 65.333 7.33301 129.333 22 192s36.167 121.667 64.5 177s63 106.333 104 153s88 86.834 141 120.501s111.5 59.834 175.5 78.5c64 18.667 132.667 28 206 28c106.667 0 205.5 -20.833 296.5 -62.5s170.167 -101 237.5 -178
s120.666 -170.167 159.999 -279.5s60.666 -232 63.999 -368h-410z" />
    <glyph glyph-name="yen" unicode="&#xa5;" horiz-adv-x="1737" 
d="M1647 1536v-369h-410l-90 -151h500v-369h-570v-651h-413v651h-562v369h492l-86 151h-406v369h189l-377 631h463l491 -828l496 828h463l-373 -631h193z" />
    <glyph glyph-name="copyright" unicode="&#xa9;" horiz-adv-x="2425" 
d="M1753 578c-76 -66.667 -155.503 -118.164 -238.503 -154.497s-170.167 -54.5 -261.5 -54.5c-98 0 -188.333 18.5 -271 55.5s-154 87.333 -214 151s-106.667 138.167 -140 223.5s-50 176.666 -50 273.999c0 64.667 7.83301 127 23.5 187s37.834 116 66.501 168
s63.334 99.167 104.001 141.5s86.167 78.666 136.5 108.999s104.833 53.833 163.5 70.5s120.334 25 185.001 25c87.333 0 170.5 -16.167 249.5 -48.5s155.833 -80.5 230.5 -144.5l-152 -246c-38 36 -72.167 64.833 -102.5 86.5s-58.5 38.167 -84.5 49.5
s-50.667 18.833 -74 22.5s-47 5.5 -71 5.5c-55.333 0 -107.166 -11.167 -155.499 -33.5s-90.333 -52.833 -126 -91.5s-63.834 -83.834 -84.501 -135.501s-31 -106.834 -31 -165.501c0 -57.333 10.5 -112 31.5 -164s49.333 -97.667 85 -137s77.334 -70.666 125.001 -93.999
s98.167 -35 151.5 -35c23.333 0 49.166 2.66699 77.499 8s58 14.833 89 28.5s63 32 96 55s65.833 52.5 98.5 88.5zM2335 1085c0 -104.667 -13.333 -205.168 -40 -301.501s-64.5 -186.333 -113.5 -270s-107.667 -159.834 -176 -228.501s-144.166 -127.5 -227.499 -176.5
s-172.666 -86.833 -267.999 -113.5s-194.666 -40 -297.999 -40c-104.667 0 -205.167 13.333 -301.5 40s-186.333 64.5 -270 113.5s-159.834 107.833 -228.501 176.5s-127.5 144.834 -176.5 228.501s-86.833 173.834 -113.5 270.501s-40 197 -40 301
c0 103.333 13.333 202.666 40 297.999s64.5 184.666 113.5 267.999s107.833 159.166 176.5 227.499s144.834 127 228.501 176s173.667 86.833 270 113.5s196.833 40 301.5 40c103.333 0 202.666 -13.333 297.999 -40s184.666 -64.5 267.999 -113.5
s159.166 -107.667 227.499 -176s127 -144.166 176 -227.499s86.833 -172.666 113.5 -267.999s40 -194.666 40 -297.999zM2081 1085c0 80.667 -10.335 158.169 -31.002 232.502s-49.667 143.666 -87 207.999s-82.333 122.833 -135 175.5s-111.167 97.667 -175.5 135
s-133.666 66.333 -207.999 87s-151.833 31 -232.5 31c-82 0 -160.5 -10.333 -235.5 -31s-145 -49.834 -210 -87.501s-124 -83 -177 -136s-98.167 -111.667 -135.5 -176s-66.333 -133.5 -87 -207.5s-31 -151 -31 -231c0 -82 10.333 -160.5 31 -235.5s49.667 -145 87 -210
s82.5 -124 135.5 -177s112 -98.167 177 -135.5s135 -66.333 210 -87s153.5 -31 235.5 -31c80 0 157 10.333 231 31s143.167 49.667 207.5 87s123 82.5 176 135.5s98.333 112 136 177s66.834 135 87.501 210s31 153.5 31 235.5z" />
    <glyph glyph-name="guillemotleft" unicode="&#xab;" horiz-adv-x="1417" 
d="M1057 918l327 -398l-229 -217l-516 615l516 614l229 -217zM463 918l332 -398l-230 -217l-516 615l516 614l230 -217z" />
    <glyph glyph-name="registered" unicode="&#xae;" horiz-adv-x="2540" 
d="M2462 1147c0 -108.667 -14.168 -213.333 -42.501 -314s-68.333 -194.834 -120 -282.501s-113.667 -167.5 -186 -239.5s-152.5 -133.833 -240.5 -185.5s-182.5 -91.667 -283.5 -120s-206.167 -42.5 -315.5 -42.5c-110 0 -216 14.167 -318 42.5s-197.167 68.333 -285.5 120
s-169 113.5 -242 185.5s-135.333 151.833 -187 239.5s-91.834 181.834 -120.501 282.501s-43 205.334 -43 314.001s14.333 213 43 313s69.167 193.667 121.5 281s114.833 166.666 187.5 237.999s153.334 132.333 242.001 183s183.834 90 285.501 118s207.167 42 316.5 42
s214.5 -14 315.5 -42s195.5 -67.5 283.5 -118.5s168.167 -112.333 240.5 -184s134.333 -151 186 -238s91.667 -180.5 120 -280.5s42.5 -204 42.5 -312zM2204 1106c0 88.667 -11.1641 173.832 -33.4971 255.499s-53.666 158 -94 229c-40.333 71 -88.833 135.667 -145.5 194
s-119.5 108.166 -188.5 149.499s-143 73.333 -222 96s-161.167 34 -246.5 34c-88 0 -172.333 -10.833 -253 -32.5s-155.834 -52.167 -225.501 -91.5s-132.667 -86.833 -189 -142.5s-104.666 -117.5 -144.999 -185.5s-71.333 -141.167 -93 -219.5
s-32.5 -160.166 -32.5 -245.499c0 -86.667 11 -169.667 33 -249s53.167 -153.333 93.5 -222s89 -131 146 -187s120.167 -103.833 189.5 -143.5s144.166 -70.334 224.499 -92.001s164.166 -32.5 251.499 -32.5c86 0 168.667 10.833 248 32.5s153.333 51.834 222 90.501
s131 85.167 187 139.5s104.167 114.333 144.5 180s71.666 135.834 93.999 210.501s33.833 152 34.5 232zM1540 548.999l-302.999 482.999h-152v-483h-258v1200h545c155.333 0 269.333 -30.667 342 -92s109 -149.333 109 -264c0 -50 -7.5 -94.5 -22.5 -133.5
s-35.5 -72.833 -61.5 -101.5s-56.833 -52.667 -92.5 -72s-73.834 -34.666 -114.501 -45.999l160.5 -245l167.5 -246h-320zM1569 1380c0 24.667 -5.99902 44.332 -17.999 58.999s-28.5 25.834 -49.5 33.501s-45.333 12.667 -73 15s-57.5 3.5 -89.5 3.5h-254v-225h209
c31.333 0 62.166 -0.166992 92.499 -0.5s61.166 2.5 92.499 8.5c34.667 8 58.334 20 71.001 36s19 39.333 19 70z" />
    <glyph glyph-name="guillemotright" unicode="&#xbb;" horiz-adv-x="1417" 
d="M868 303l-229 217l328 398l-328 397l229 217l516 -614zM279 303l-230 217l328 398l-328 397l230 217l516 -614z" />
    <glyph glyph-name="onequarter" unicode="&#xbc;" horiz-adv-x="2585" 
d="M422 0l1520 2159h327l-1519 -2159h-328zM418 1896h-205v263h471v-1192h-266v929zM2343 0h-254v197h-569v135l663 950h160v-840h131v-245h-131v-197zM1905 442h184v267z" />
    <glyph glyph-name="onehalf" unicode="&#xbd;" horiz-adv-x="2585" 
d="M2204 881c0 20.667 -4.33301 39.832 -13 57.499s-20.334 33.167 -35 46.5c-14.667 13.333 -31.667 23.833 -51 31.5s-39.666 11.5 -61 11.5c-23.333 0 -45 -4.66699 -65 -14s-37.333 -24 -52 -44s-26.167 -46.167 -34.5 -78.5s-12.5 -71.5 -12.5 -117.5h-270
c0 88 12.5 164.333 37.5 229s57.833 118.334 98.5 161.001s87 74.334 139 95.001s105 31 159 31c58 0 112.833 -10.833 164.5 -32.5s96.834 -51.167 135.5 -88.5c38.667 -37.333 69.334 -81 92 -131c22.667 -50 34 -103.667 34 -161
c0 -45.333 -5.83301 -87.166 -17.5 -125.499s-27.334 -74.333 -47 -108c-19.667 -33.667 -42 -65.167 -67 -94.5s-50.833 -58 -77.5 -86l-197 -205h402v-258h-811v201l434 471c14 14.667 27.833 30.667 41.5 48s26 35.166 37 53.499s19.833 36.666 26.5 54.999
s10 35.833 10 52.5zM307 -0.00195312l1520 2159h327l-1519 -2159h-328zM418 1896h-205v263h471v-1192h-266v929z" />
    <glyph glyph-name="threequarters" unicode="&#xbe;" horiz-adv-x="2585" 
d="M586 893c-51.333 0 -101.331 7.83301 -149.998 23.5s-92 41 -130 76s-68.5 80.667 -91.5 137s-34.5 124.833 -34.5 205.5h254c0 -72 14.167 -124.833 42.5 -158.5s66.166 -50.5 113.499 -50.5c23.333 0 44.5 4.16699 63.5 12.5s35.333 19.5 49 33.5
s24.167 30.5 31.5 49.5s11 39.167 11 60.5c0 57.333 -14.5 98.333 -43.5 123s-77.167 37 -144.5 37v200c36 0 65.167 4 87.5 12s39.666 19 51.999 33s20.833 30.833 25.5 50.5s7 41.167 7 64.5c0 39.333 -11.333 69.666 -34 90.999s-53.667 32 -93 32
c-15.333 0 -31.5 -3.33301 -48.5 -10s-32.5 -18.167 -46.5 -34.5s-25 -37.833 -33 -64.5s-10.333 -60 -7 -100h-250c2 146.667 36.333 258.5 103 335.5s162 115.5 286 115.5c53.333 0 103 -9.5 149 -28.5s85.833 -45 119.5 -78s60.167 -72 79.5 -117s29 -93.5 29 -145.5
c0 -47.333 -8.66699 -91.166 -26 -131.499s-41.333 -77.166 -72 -110.499c34.667 -34.667 62.334 -75.334 83.001 -122.001s31 -96 31 -148c0 -57.333 -10.167 -110 -30.5 -158s-48.833 -89.5 -85.5 -124.5s-80.334 -62.167 -131.001 -81.5s-106 -29 -166 -29zM520.002 0
l1520 2159h327l-1519 -2159h-328zM2343 0h-254v197h-569v135l663 950h160v-840h131v-245h-131v-197zM1905 442h184v267z" />
    <glyph glyph-name="multiply" unicode="&#xd7;" horiz-adv-x="1589" 
d="M1307 53l-508 508l-508 -508l-217 217l508 508l-508 508l217 217l508 -508l508 508l217 -217l-508 -508l508 -508z" />
    <glyph glyph-name="divide" unicode="&#xf7;" horiz-adv-x="1610" 
d="M1008 1294c0 -32 -5.83301 -61.5 -17.5 -88.5s-27.334 -50.333 -47.001 -70s-42.667 -35 -69 -46s-54.166 -16.5 -83.499 -16.5c-32 0 -61.5 5.66699 -88.5 17s-50.333 26.833 -70 46.5s-35.167 42.667 -46.5 69s-17 54.5 -17 84.5c0 32 5.83301 61.5 17.5 88.5
s27.334 50.333 47.001 70s42.667 35 69 46s54.166 16.5 83.499 16.5c32 0 61.5 -5.66699 88.5 -17s50.333 -26.833 70 -46.5s35.167 -42.667 46.5 -69s17 -54.5 17 -84.5zM78 631v332h1458v-332h-1458zM1008 303c0 -32 -5.83301 -61.5 -17.5 -88.5
s-27.334 -50.333 -47.001 -70s-42.667 -35 -69 -46s-54.166 -16.5 -83.499 -16.5c-32 0 -61.5 5.66699 -88.5 17s-50.333 26.833 -70 46.5s-35.167 42.667 -46.5 69s-17 54.5 -17 84.5c0 32 5.83301 61.5 17.5 88.5s27.334 50.333 47.001 70s42.667 35 69 46
s54.166 16.5 83.499 16.5c32 0 61.5 -5.5 88.5 -16.5s50.333 -26.333 70 -46s35.167 -43 46.5 -70s17 -56.5 17 -88.5v4z" />
    <glyph glyph-name="kokaithai" unicode="&#xe01;" horiz-adv-x="1991" 
d="M1835 0h-397.002v1053c0 65.333 -12.167 125.5 -36.5 180.5s-58.666 102.5 -102.999 142.5s-98 71.167 -161 93.5s-133.5 33.5 -211.5 33.5c-145.333 0 -269.666 -51.667 -372.999 -155l98 -107v-1241h-397v1114l-197 209c50 84.667 106.5 161 169.5 229
s131.333 125.667 205 173s152 83.666 235 108.999s169.5 38 259.5 38c87.333 0 170.5 -9.16699 249.5 -27.5s152.167 -44.666 219.5 -78.999s128 -76 182 -125s100.167 -103.833 138.5 -164.5s67.833 -126.5 88.5 -197.5s31 -146.167 31 -225.5v-1053z" />
    <glyph glyph-name="khokhaithai" unicode="&#xe02;" horiz-adv-x="1720" 
d="M1565 594c0 -86 -17.502 -166.833 -52.502 -242.5s-82.667 -141.667 -143 -198s-131.166 -100.833 -212.499 -133.5s-168 -49 -260 -49c-91.333 0 -177.5 16.333 -258.5 49s-151.833 77.167 -212.5 133.5s-108.667 122.333 -144 198s-53 156.5 -53 242.5
c0 76.667 10.333 143 31 199s49.5 106 86.5 150s81.333 84.333 133 121s108.834 74 171.501 112c19.333 12 35.833 23.167 49.5 33.5s24.667 21.333 33 33s14.5 24.5 18.5 38.5s6 30.667 6 50c0 56 -16.833 100 -50.5 132s-78.5 48 -134.5 48c-16 0 -33.167 -2.5 -51.5 -7.5
s-38.166 -15.167 -59.499 -30.5s-44.333 -37.666 -69 -66.999s-52 -68 -82 -116l-311 197c40 66.667 81.333 124.167 124 172.5s87.5 88.166 134.5 119.499s96.167 54.666 147.5 69.999s105.666 23 162.999 23c78.667 0 152.834 -13.167 222.501 -39.5s130.5 -63 182.5 -110
s93.167 -103.167 123.5 -168.5s45.5 -137 45.5 -215c0 -52.667 -4.66699 -99.334 -14 -140.001s-22.5 -77.167 -39.5 -109.5s-37.833 -61.666 -62.5 -87.999s-52.334 -51.166 -83.001 -74.499s-64.167 -46.333 -100.5 -69l-114.5 -72c-19.333 -13.333 -36 -26.333 -50 -39
s-25.5 -26.5 -34.5 -41.5s-15.667 -31.5 -20 -49.5s-6.5 -38.667 -6.5 -62c0 -36 7 -69.333 21 -100s33.5 -57.5 58.5 -80.5s54.5 -41 88.5 -54s71 -19.5 111 -19.5s76.833 6.5 110.5 19.5s62.5 31 86.5 54s42.833 49.833 56.5 80.5s20.5 64 20.5 100v1249h394v-1249z" />
    <glyph glyph-name="khokhuatthai" unicode="&#xe03;" horiz-adv-x="1679" 
d="M1524 594c0 -57.333 -8.00098 -112.497 -24.001 -165.497s-38.5 -102.333 -67.5 -148s-63.833 -87.334 -104.5 -125.001s-85.667 -69.834 -135 -96.501s-102.5 -47.334 -159.5 -62.001s-116.167 -22 -177.5 -22c-91.333 0 -177.333 16.167 -258 48.5
s-151.5 76.333 -212.5 132s-109.167 121.167 -144.5 196.5s-53 156 -53 242c0 72 9.33301 135.167 28 189.5s45.334 103.666 80.001 147.999s76.5 85.166 125.5 122.499s103.833 75 164.5 113l51.5 34c17 11.333 32.333 24 46 38s24.667 29.667 33 47s12.5 38 12.5 62
c0 14 -2.16699 28.333 -6.5 43s-11.833 30.334 -22.5 47.001l-221 -181l-459 361l238 266l213 -168l197 160c148.667 -56 260.167 -129.333 334.5 -220s111.5 -195 111.5 -313c0 -52 -4.66699 -97.5 -14 -136.5s-22.5 -73.5 -39.5 -103.5s-37.5 -56.833 -61.5 -80.5
s-50.5 -46 -79.5 -67s-60.333 -41.667 -94 -62s-68.5 -42.5 -104.5 -66.5c-23.333 -15.333 -43.833 -30.666 -61.5 -45.999s-32.167 -32 -43.5 -50s-19.833 -38.167 -25.5 -60.5s-8.5 -47.833 -8.5 -76.5c0 -34 6.83301 -66.333 20.5 -97s32.5 -57.667 56.5 -81
s52.833 -41.833 86.5 -55.5s70.5 -20.5 110.5 -20.5s76.833 6.83301 110.5 20.5s62.5 32.167 86.5 55.5s42.833 50.333 56.5 81s20.5 63 20.5 97v1249h394v-1249z" />
    <glyph glyph-name="khokhwaithai" unicode="&#xe04;" horiz-adv-x="1925" 
d="M1769 0h-396.999v1114c0 52 -10.833 101.167 -32.5 147.5s-51 86.833 -88 121.5s-80.333 62 -130 82s-102.5 30 -158.5 30c-58.667 0 -113 -10 -163 -30s-93.333 -47.333 -130 -82s-65.334 -75.167 -86.001 -121.5s-31 -95.5 -31 -147.5h410v-364h-410v-750h-397v1114
c0 68.667 9.66699 135 29 199s46.666 123.833 81.999 179.5s77.5 106.334 126.5 152.001s103.5 84.667 163.5 117s124.167 57.5 192.5 75.5s139.5 27 213.5 27c73.333 0 144.333 -9 213 -27s132.834 -43.167 192.501 -75.5s114.167 -71.333 163.5 -117
s91.5 -96.334 126.5 -152.001s62.167 -115.5 81.5 -179.5s29 -130.333 29 -199v-1114z" />
    <glyph glyph-name="khokhonthai" unicode="&#xe05;" horiz-adv-x="2015" 
d="M1860 0l-397.999 0.00195312v1163c0 56 -10.833 108.667 -32.5 158s-53.167 93.666 -94.5 132.999l-331 -278l-324 278c-39.333 -39.333 -70.333 -84.333 -93 -135s-34 -104 -34 -160v-37h451v-372h-451v-750h-397v1163c0 78.667 12.167 154.167 36.5 226.5
s60.333 140.166 108 203.499s107 121.5 178 174.5s153.167 100.167 246.5 141.5l283 -242l286 238c91.333 -40 172.166 -86.333 242.499 -139s129.5 -110.5 177.5 -173.5s84.333 -130.667 109 -203s37 -147.833 37 -226.5v-1163z" />
    <glyph glyph-name="khorakhangthai" unicode="&#xe06;" horiz-adv-x="1937" 
d="M1782 659c0 -72 -9.50488 -139.002 -28.5049 -201.002s-45.5 -118.5 -79.5 -169.5s-73.833 -96.5 -119.5 -136.5s-95.5 -73.667 -149.5 -101s-110.5 -48.166 -169.5 -62.499s-118.5 -21.5 -178.5 -21.5c-45.333 0 -90.166 4 -134.499 12s-87.666 20.833 -129.999 38.5
s-83 40.5 -122 68.5s-75.5 62 -109.5 102v-188h-393v762c0 63.333 7.66699 119.666 23 168.999s35.166 93.333 59.499 132s51.5 73 81.5 103s59.667 57.333 89 82l81 68.5c24.667 21 44.334 42.167 59.001 63.5c2.66699 5.33301 5.33398 12.666 8.00098 21.999
s4.5 19.5 5.5 30.5s1.16699 21.667 0.5 32s-2.66699 19.166 -6 26.499l-159 -143l-369 290l205 246l172 -131l168 135c123.333 -47.333 215.5 -108.5 276.5 -183.5s91.5 -163.833 91.5 -266.5c0 -54 -9.66699 -101.667 -29 -143s-43.666 -79 -72.999 -113
s-60.833 -65.5 -94.5 -94.5s-65.167 -58.167 -94.5 -87.5s-53.666 -60.166 -72.999 -92.499s-29 -68.5 -29 -108.5c0 -41.333 6 -81.166 18 -119.499s28.833 -74.5 50.5 -108.5s47.334 -65.167 77.001 -93.5s62.167 -52.666 97.5 -72.999s72.666 -36.166 111.999 -47.499
s79.333 -17 120 -17c48 0 93.167 6.83301 135.5 20.5s79.333 34 111 61s56.5 60.333 74.5 100s27 85.5 27 137.5v1184h398v-1184z" />
    <glyph glyph-name="ngonguthai" unicode="&#xe07;" horiz-adv-x="1626" 
d="M1470 410c0 -59.333 -12.168 -115.501 -36.501 -168.501s-57.333 -99.167 -99 -138.5s-90.167 -70.5 -145.5 -93.5s-114.333 -34.5 -177 -34.5c-48 0 -93.333 6.33301 -136 19s-82 30.334 -118 53.001s-68.167 49.5 -96.5 80.5s-52.166 64.833 -71.499 101.5l-545 1110
l369 131l536 -1089c13.333 -22 34 -33 62 -33c18.667 0 34.167 6.16699 46.5 18.5s18.5 26.833 18.5 43.5v1065h-250v368h643v-1433z" />
    <glyph glyph-name="chochanthai" unicode="&#xe08;" horiz-adv-x="1786" 
d="M1630 1139c0 -89.333 -16.333 -172.672 -49 -250.005l-348 -889h-369l-397 1085h414l172 -475l155 402c16.667 44 25 86.333 25 127c0 48 -10.167 93.5 -30.5 136.5s-48 80.833 -83 113.5s-76.167 58.5 -123.5 77.5s-98 28.5 -152 28.5
c-62.667 0 -116.667 -11.667 -162 -35s-83.5 -54.166 -114.5 -92.499s-55.5 -81.666 -73.5 -129.999s-31 -97.5 -39 -147.5h-398c11.333 122.667 39.833 232.167 85.5 328.5s103.667 177.833 174 244.5s150.666 117.5 240.999 152.5s185.833 52.5 286.5 52.5
c72.667 0 142.667 -8.66699 210 -26s130.166 -41.666 188.499 -72.999s111.333 -69.166 159 -113.499s88.334 -93.5 122.001 -147.5s59.834 -112.167 78.501 -174.5s28 -127.166 28 -194.499z" />
    <glyph glyph-name="chochingthai" unicode="&#xe09;" horiz-adv-x="1839" 
d="M1679 -4l-392.999 -0.00488281v151c-64 -59.333 -133.5 -102.833 -208.5 -130.5s-152.833 -41.5 -233.5 -41.5c-57.333 2 -114.166 11 -170.499 27s-110 38 -161 66s-98.167 62 -141.5 102s-81 84.833 -113 134.5s-57 104.334 -75 164.001s-27 123.167 -27 190.5v91h-111
v360h504v-459c0 -54.667 10.5 -102 31.5 -142s48.833 -72.667 83.5 -98s74 -43.5 118 -54.5s89.167 -14.667 135.5 -11s91.5 14.334 135.5 32.001s83.333 42.334 118 74.001s62.5 70.334 83.5 116.001s31.5 98.167 31.5 157.5v414c0 48.667 -10.167 94.667 -30.5 138
s-48 81.166 -83 113.499s-76.167 57.833 -123.5 76.5s-98 28 -152 28c-40 0 -79.333 -4.16699 -118 -12.5s-74.834 -22.333 -108.501 -42s-64.167 -45.834 -91.5 -78.501s-49.666 -73 -66.999 -121h-414c36 109.333 81.5 203.5 136.5 282.5s117.167 144 186.5 195
s144.166 88.667 224.499 113s164.166 36.5 251.499 36.5c71.333 0 140.333 -8.66699 207 -26s129 -41.666 187 -72.999s110.833 -69.166 158.5 -113.499s88.5 -93.5 122.5 -147.5s60.333 -112.167 79 -174.5s28 -127.166 28 -194.499v-1143z" />
    <glyph glyph-name="chochangthai" unicode="&#xe0a;" horiz-adv-x="1757" 
d="M1483 1421c30.667 -39.333 53.999 -82.998 69.999 -130.998s24 -99.667 24 -155v-533c0 -87.333 -17.5 -169 -52.5 -245s-82.667 -142.333 -143 -199s-131.166 -101.334 -212.499 -134.001s-168 -49 -260 -49c-91.333 0 -177.333 16.333 -258 49
s-151.334 77.334 -212.001 134.001s-108.667 123 -144 199s-53 157.667 -53 245c0 56.667 4.66699 106.834 14 150.501s23 82.834 41 117.501s39.667 66 65 94s53.833 54.167 85.5 78.5s66.334 48.166 104.001 71.499l120.5 74c19.333 12 35.833 23.333 49.5 34
s24.667 21.667 33 33s14.333 24 18 38s5.5 30.667 5.5 50c0 56 -17 99.5 -51 130.5s-81 46.5 -141 46.5c-16.667 0 -33.334 -2.83301 -50.001 -8.5s-34.667 -16.834 -54 -33.501s-40.166 -40.334 -62.499 -71.001s-47.5 -71 -75.5 -121l-332 209
c40 68.667 82 127.5 126 176.5s90.167 89.167 138.5 120.5s98.666 54.5 150.999 69.5s106.5 22.5 162.5 22.5s110 -7.33301 162 -22s100.333 -35.334 145 -62.001s84.834 -58.667 120.501 -96s65.167 -78.333 88.5 -123l422 438l282 -258zM773.999 815.002
c-20.667 -13.333 -39.5 -26.667 -56.5 -40s-31.667 -28.166 -44 -44.499s-21.833 -34.833 -28.5 -55.5s-10 -45 -10 -73c0 -36 7.16699 -69.333 21.5 -100s34 -57.5 59 -80.5s54 -41 87 -54s68.5 -19.5 106.5 -19.5s73.667 6.5 107 19.5s62.5 31 87.5 54
s44.667 49.833 59 80.5s21.5 64 21.5 100v533c0 16 -1.5 31.667 -4.5 47s-9.83301 32.333 -20.5 51c-9.33301 -55.333 -25.833 -102.5 -49.5 -141.5s-52.5 -73.833 -86.5 -104.5s-72.167 -59.334 -114.5 -86.001z" />
    <glyph glyph-name="sosothai" unicode="&#xe0b;" horiz-adv-x="1749" 
d="M1475 1421c26.667 -39.333 49 -83.0029 67 -131.003s27 -99.667 27 -155v-537c0 -57.333 -8 -112.5 -24 -165.5s-38.667 -102.667 -68 -149s-64.5 -88.333 -105.5 -126s-86.333 -70 -136 -97s-103.167 -48 -160.5 -63s-116.666 -22.5 -177.999 -22.5
c-92 0 -178.667 16.333 -260 49s-152.166 77.167 -212.499 133.5s-108 122.333 -143 198s-52.5 156.5 -52.5 242.5c0 68.667 7.66699 128.834 23 180.501s35.666 96.834 60.999 135.501s54 72.334 86 101.001s64.833 54.334 98.5 77.001s66.5 43.5 98.5 62.5
s60.667 38.333 86 58s45.666 41 60.999 64s23 49.5 23 79.5c0 18.667 -1.83301 35.167 -5.5 49.5s-8.83398 27.833 -15.501 40.5l-229 -189l-467 353l230 278l229 -164l201 168c94.667 -36.667 174.334 -80.334 239.001 -131.001s114.667 -108 150 -172l413 439l283 -263z
M766 822.997c-21.333 -15.333 -40.832 -30.499 -58.499 -45.499s-32.834 -31.167 -45.501 -48.5s-22.334 -36.5 -29.001 -57.5s-10 -45.5 -10 -73.5c0 -34 7.16699 -66.333 21.5 -97s33.833 -57.667 58.5 -81s53.667 -41.833 87 -55.5s69 -20.5 107 -20.5
c40 0 76.833 6.66699 110.5 20s62.5 31.666 86.5 54.999s42.833 50.666 56.5 81.999s20.5 65 20.5 101v528c0 16.667 -2 32.667 -6 48s-10 32.333 -18 51c-11.333 -52 -28.833 -96.833 -52.5 -134.5s-52.167 -71.667 -85.5 -102s-70.666 -58.666 -111.999 -84.999z" />
    <glyph glyph-name="chochoethai" unicode="&#xe0c;" horiz-adv-x="3138" 
d="M2982 664c0 -69.333 -8.5 -134.335 -25.5 -195.002s-40.5 -116.5 -70.5 -167.5s-65.667 -96.667 -107 -137s-86.666 -74.5 -135.999 -102.5s-101.5 -49.5 -156.5 -64.5s-111.167 -22.5 -168.5 -22.5c-80 2.66699 -157.667 19 -233 49s-149 78 -221 144v-168h-402v1053
c0 65.333 -12.5 125.5 -37.5 180.5s-60.5 102.5 -106.5 142.5s-101.167 71.167 -165.5 93.5s-135.833 33.5 -214.5 33.5c-72 0 -140.167 -13.167 -204.5 -39.5s-124.5 -66.5 -180.5 -120.5l98 -98v-876l267 4v-373h-664v1110l-205 209c52 86 110.5 163.167 175.5 231.5
s135.167 126.333 210.5 174s155.166 84.167 239.499 109.5s172.166 38 263.499 38c89.333 0 174.333 -9.16699 255 -27.5s155.334 -44.666 224.001 -78.999s130.5 -76 185.5 -125s101.833 -103.833 140.5 -164.5s68.5 -126.5 89.5 -197.5s31.5 -146.167 31.5 -225.5v-230
c0 -76.667 13 -144.5 39 -203.5s59.5 -108.667 100.5 -149s86.667 -70.833 137 -91.5s100.166 -31 149.5 -31c38 0 74.167 6.16699 108.5 18.5s64.666 31.5 91 57.5c26.333 26 47.333 58.833 63 98.5s23.5 86.834 23.5 141.501v1179h406v-1179z" />
    <glyph glyph-name="yoyingthai" unicode="&#xe0d;" horiz-adv-x="3121" 
d="M2961 -4c0 -65.333 -9 -128.335 -27 -189.002s-43.667 -117.167 -77 -169.5s-73.166 -100 -119.5 -143c-46.333 -43 -97.833 -80 -154.5 -111s-117.834 -54.833 -183.5 -71.5c-65.667 -16.667 -133.834 -25 -204.5 -25c-147.333 0 -281.5 37.833 -402.5 113.5
s-229.833 192.167 -326.5 349.5l340 205c32.667 -57.333 64.667 -105.166 96 -143.499s62.666 -69 93.999 -92s63.333 -39.333 95.999 -49c32.667 -9.66699 67 -14.5 103 -14.5c50 0 97.5 8.33301 142.5 25s84.167 39.834 117.5 69.501s59.833 65 79.5 106
s29.5 86.167 29.5 135.5v86c-47.333 -39.333 -101.166 -67 -161.499 -83s-122.5 -24 -186.5 -24c-70 0 -137 8.33301 -201 25s-123.833 40.167 -179.5 70.5s-106.167 66.833 -151.5 109.5s-84.166 89.667 -116.499 141s-57.333 106.333 -75 165s-26.5 119.334 -26.5 182.001
v393c0 65.333 -12.333 125.166 -37 179.499s-59.834 101 -105.501 140s-101.167 69.167 -166.5 90.5s-138.333 32 -219 32c-72 0 -140.667 -13.333 -206 -40s-123.666 -63.667 -174.999 -111l102 -99v-876h267v-373h-672v1114l-201 209c52 86 110.5 163 175.5 231
s135 125.5 210 172.5s154.5 83 238.5 108s171 37.5 261 37.5c89.333 0 174.333 -9.16699 255 -27.5s155.5 -44.666 224.5 -78.999s131.333 -76 187 -125s103 -103.833 142 -164.5s69 -126.5 90 -197.5s31.5 -146.167 31.5 -225.5v-389c0 -44 8.66699 -85.5 26 -124.5
s41.5 -73 72.5 -102s67.833 -51.833 110.5 -68.5s89 -25 139 -25s96.167 8 138.5 24s78.666 38.167 109 66.5c30.333 28.333 54 62.166 71 101.499s25.5 82 25.5 128v1183h401v-1851z" />
    <glyph glyph-name="dochadathai" unicode="&#xe0e;" horiz-adv-x="2019" 
d="M1376 -782c-56 40 -107.836 73.332 -155.503 99.999s-92.667 48 -135 64s-83.166 27.5 -122.499 34.5s-79 10.5 -119 10.5s-80 -3.5 -120 -10.5s-81.667 -18.667 -125 -35s-89.166 -38.166 -137.499 -65.499s-101.166 -61.333 -158.499 -102l-217 286
c72.667 50 141.5 92.5 206.5 127.5s128.167 63.5 189.5 85.5s121.666 37.833 180.999 47.5s119.666 14.5 180.999 14.5c84.667 0 167.334 -8.33301 248.001 -25s159 -42.667 235 -78l139 131v1250c0 65.333 -12 125.333 -36 180s-58.333 101.667 -103 141
s-98.5 70 -161.5 92s-133.5 33 -211.5 33c-34 0 -67.833 -3.66699 -101.5 -11s-66.5 -17.833 -98.5 -31.5s-62.5 -30 -91.5 -49s-55.833 -40.5 -80.5 -64.5l98 -102v-1241h-569v373h172v737l-197 209c50 86 106.5 163 169.5 231s131.333 125.5 205 172.5
s151.834 83 234.501 108s169 37.5 259 37.5c131.333 0 252.5 -20.167 363.5 -60.5s207 -96.666 288 -168.999s144.333 -158.333 190 -258s68.5 -208.834 68.5 -327.501v-1385z" />
    <glyph glyph-name="topatakthai" unicode="&#xe0f;" horiz-adv-x="2019" 
d="M1331 -795l-318.999 287l-320 -287l-545 488l230 246l328 -279l307 274l307 -274l151 127v1266c0 65.333 -12.333 125.166 -37 179.499s-59.5 101 -104.5 140s-99.167 69.167 -162.5 90.5s-134 32 -212 32c-68 0 -134.667 -13.333 -200 -40s-122.666 -64 -171.999 -112
l98 -102v-1241h-569v373h172v737l-197 209c52 86 109.667 163 173 231s131.5 125.5 204.5 172.5s150.5 83 232.5 108s168 37.5 258 37.5c88 0 171.667 -9.16699 251 -27.5s152.666 -44.666 219.999 -78.999s128.166 -76 182.499 -125s100.5 -103.833 138.5 -164.5
s67.167 -126.5 87.5 -197.5s30.5 -146.167 30.5 -225.5v-1373z" />
    <glyph glyph-name="thothanthai" unicode="&#xe10;" horiz-adv-x="1786" 
d="M1499 1536c41.333 -58 73.5029 -120.834 96.5029 -188.501s34.5 -138.5 34.5 -212.5c0 -33.333 -0.666992 -63.166 -2 -89.499s-4 -52 -8 -77s-9.83301 -51 -17.5 -78s-18 -58.167 -31 -93.5s-29.333 -76.166 -49 -122.499l-70.5 -165l-95 -221.5l-124 -292h-369
l-401 1089h414l176 -479l155 402c16.667 44 25 86.333 25 127c0 48 -10.167 93.5 -30.5 136.5s-48 80.833 -83 113.5s-76.167 58.5 -123.5 77.5s-98 28.5 -152 28.5c-62.667 0 -116.834 -11.5 -162.501 -34.5s-84.334 -53.333 -116.001 -91s-56.667 -80.5 -75 -128.5
s-31.5 -97 -39.5 -147h-394c11.333 122 39.833 230.833 85.5 326.5s103.667 176.667 174 243s150.666 117 240.999 152s185.833 52.5 286.5 52.5c62 0 121.5 -6.33301 178.5 -19s113.5 -32.334 169.5 -59.001l233 258l299 -258zM1339 -799.001l-327 299l-332 -299l-561 496
l237 229l328 -278l332 291l319 -279c-2 10.667 -3.16699 30.167 -3.5 58.5s-0.5 57.833 -0.5 88.5v115h373v-401z" />
    <glyph glyph-name="thonangmonthothai" unicode="&#xe11;" horiz-adv-x="1999" 
d="M1868 0l-398.003 -0.000976562v1315c0 18.667 -1.16699 35.667 -3.5 51s-6.5 28.333 -12.5 39l-885 -1405h-340v745c0 48 3.5 93.167 10.5 135.5s16.333 82 28 119s24.834 71.833 39.501 104.5s29.667 63.334 45 92.001c17.333 34 34.5 65.667 51.5 95
s31.667 56.5 44 81.5s21.333 48 27 69s5.83398 40.167 0.500977 57.5l-176 -168l-344 336l209 213l135 -131l176 135c126 -49.333 219.667 -110.5 281 -183.5s92 -157.833 92 -254.5c0 -40 -6 -78 -18 -114s-27 -71.333 -45 -106s-37.333 -69 -58 -103s-40 -69 -58 -105
s-33 -73.5 -45 -112.5s-18 -80.167 -18 -123.5v-37l684 1115c98 -9.33301 183.333 -30 256 -62s132.834 -72.833 180.501 -122.5s83.167 -106.5 106.5 -170.5s35 -133 35 -207v-1298z" />
    <glyph glyph-name="thophuthaothai" unicode="&#xe12;" horiz-adv-x="3183" 
d="M3027 659c0 -105.333 -17.668 -199.997 -53.001 -283.997s-82.833 -155.167 -142.5 -213.5s-128.167 -103.166 -205.5 -134.499s-158 -47 -242 -47c-38 0 -77.167 3.66699 -117.5 11s-80.833 18.5 -121.5 33.5s-81 34 -121 57s-78.333 50.5 -115 82.5v-164h-402v1184
c0 55.333 -12.667 106.5 -38 153.5s-57.666 85.833 -96.999 116.5l-311 -229l-311 233c-33.333 -23.333 -64.833 -52.166 -94.5 -86.499s-55.667 -74.5 -78 -120.5s-40.166 -98.333 -53.499 -157s-20 -124.334 -20 -197.001c0 -85.333 10 -162 30 -230s47.5 -126 82.5 -174
s76.5 -84.833 124.5 -110.5s100 -38.5 156 -38.5c16.667 0 32.167 2.16699 46.5 6.5s29.166 11.5 44.499 21.5s32.5 23 51.5 39s41.167 36 66.5 60l287 -262c-50 -42 -96.333 -78 -139 -108s-83.667 -54.667 -123 -74s-78 -33.5 -116 -42.5s-77.333 -13.5 -118 -13.5
c-89.333 0 -171 11.667 -245 35s-140.5 55.666 -199.5 96.999s-110.5 90.833 -154.5 148.5s-80.5 120.667 -109.5 189s-50.667 141.166 -65 218.499s-21.5 156.666 -21.5 237.999c0 128 16.333 244.833 49 350.5s79.167 200 139.5 283s133.5 154.333 219.5 214
s182.333 107.5 289 143.5l262 -205l266 205c90 -32 170.833 -70 242.5 -114s132.5 -94.833 182.5 -152.5s88.333 -122.167 115 -193.5s40.667 -150 42 -236l4 -381c0 -74.667 12.667 -141 38 -199s58.333 -106.833 99 -146.5s86 -69.834 136 -90.501s99.667 -31 149 -31
c38 0 74.167 6.16699 108.5 18.5s64.666 31.5 91 57.5c26.333 26 47.333 58.833 63 98.5s23.5 86.5 23.5 140.5v1184h406v-1184z" />
    <glyph glyph-name="nonenthai" unicode="&#xe13;" horiz-adv-x="3117" 
d="M2560 0v147c-72 -64 -146.333 -109.167 -223 -135.5s-155.334 -38.5 -236.001 -36.5c-85.333 3.33301 -166.333 21.833 -243 55.5s-144 80.167 -202 139.5s-104.167 130.333 -138.5 213s-51.5 174.667 -51.5 276v394c0 65.333 -12.333 125.333 -37 180
s-59.834 101.667 -105.501 141s-101.167 70 -166.5 92s-138.333 33 -219 33c-72 0 -140.667 -14 -206 -42s-123.666 -66 -174.999 -114l94 -98v-876h271v-369h-668v1110l-201 209c52 86 110.333 163 175 231s134.167 125.5 208.5 172.5s153.333 83 237 108
s170.5 37.5 260.5 37.5c134 0 257.833 -20 371.5 -60s211.834 -96 294.501 -168s147.334 -157.833 194.001 -257.5s70 -209.5 70 -329.5v-394c0 -53.333 7.83301 -100 23.5 -140s36.667 -73.167 63 -99.5s56.666 -46.166 90.999 -59.499s70.5 -20 108.5 -20
c48 0 96.5 9.33301 145.5 28s93 46 132 82s70.833 80.167 95.5 132.5s37 112.166 37 179.499v1081h401v-1843h-401z" />
    <glyph glyph-name="dodekthai" unicode="&#xe14;" horiz-adv-x="2023" 
d="M1466 -4l-0.00292969 1139c0 60 -13.833 113.667 -41.5 161s-64 86.833 -109 118.5s-96.333 55 -154 70s-116.5 20.167 -176.5 15.5s-118.833 -20 -176.5 -46s-109 -63.833 -154 -113.5s-81.333 -112.167 -109 -187.5s-41.5 -164.666 -41.5 -267.999
c0 -83.333 10 -158 30 -224s47.5 -122.333 82.5 -169s76.5 -82.334 124.5 -107.001s100 -37 156 -37c15.333 0 30.166 1.33301 44.499 4s29 7.66699 44 15s31 17.833 48 31.5s35.833 31.167 56.5 52.5l253 -258c-40.667 -42 -79.334 -76.667 -116.001 -104
s-72.667 -49.166 -108 -65.499s-71.166 -27.666 -107.499 -33.999s-74.5 -9.5 -114.5 -9.5c-132 0 -247.667 24 -347 72s-182.166 113.333 -248.499 196s-116.166 178.667 -149.499 288s-50 225.666 -50 348.999c0 114 12.5 217.5 37.5 310.5s59.333 175.833 103 248.5
s95.334 135.667 155.001 189s124.334 97.333 194.001 132s142.667 60.5 219 77.5s152.833 25.5 229.5 25.5c68 0 135.833 -7.16699 203.5 -21.5s132.167 -35.5 193.5 -63.5s118.333 -62.667 171 -104s98.167 -88.833 136.5 -142.5s68.5 -113.334 90.5 -179.001
s33 -137.167 33 -214.5v-1147h-402z" />
    <glyph glyph-name="totaothai" unicode="&#xe15;" horiz-adv-x="2036" 
d="M1483 0l-0.000976562 1180.01c0 55.333 -11.333 105.666 -34 150.999s-53.667 83.666 -93 114.999l-312 -234l-311 242c-32 -24.667 -62 -54.667 -90 -90s-52.667 -76.333 -74 -123s-38.166 -99 -50.499 -157s-18.5 -121.667 -18.5 -191c0 -83.333 10 -158.333 30 -225
s47.5 -123.334 82.5 -170.001s75.833 -82.667 122.5 -108s96.667 -38 150 -38c15.333 0 30.333 1.5 45 4.5s30.167 9 46.5 18s34 21.833 53 38.5s40.5 38.667 64.5 66l258 -262c-44 -46 -85.333 -84 -124 -114s-76.667 -53.833 -114 -71.5s-74.666 -30 -111.999 -37
s-76.333 -10.5 -117 -10.5c-85.333 0 -163.833 11.167 -235.5 33.5s-136.334 53.666 -194.001 93.999s-108.334 88.5 -152.001 144.5s-80.167 117.667 -109.5 185s-51.333 139.166 -66 215.499s-22 155.166 -22 236.499c0 128 15.667 244.833 47 350.5s76.333 200 135 283
s130 154.333 214 214s178.667 107.5 284 143.5l263 -201l258 201c86.667 -32 165.334 -70 236.001 -114s131 -94.833 181 -152.5s88.5 -122.167 115.5 -193.5s40.5 -150 40.5 -236v-1188h-397z" />
    <glyph glyph-name="thothungthai" unicode="&#xe16;" horiz-adv-x="1991" 
d="M1835 0l-396.999 -0.000976562l4 1053c0 65.333 -12.333 125.5 -37 180.5s-59.5 102.5 -104.5 142.5s-99.167 71.167 -162.5 93.5s-134 33.5 -212 33.5c-34 0 -67.833 -3.66699 -101.5 -11s-66.5 -17.833 -98.5 -31.5s-62.667 -30 -92 -49s-56.333 -40.167 -81 -63.5
l98 -103v-876h262v-369h-659v1114l-197 209c53.333 86 111.666 163 174.999 231s131.333 125.5 204 172.5s150 83 232 108s168 37.5 258 37.5c87.333 0 170.5 -9.16699 249.5 -27.5s152.167 -44.666 219.5 -78.999s128 -76 182 -125s100.167 -103.833 138.5 -164.5
s67.833 -126.5 88.5 -197.5s31 -146.167 31 -225.5v-1053z" />
    <glyph glyph-name="thothahanthai" unicode="&#xe17;" horiz-adv-x="1925" 
d="M1769 0l-397.002 0.00292969v1184c0 52 -9 98.167 -27 138.5s-42.833 74.166 -74.5 101.499s-68.667 48 -111 62s-87.5 21 -135.5 21c-61.333 0 -120.5 -12.333 -177.5 -37s-107.167 -57.834 -150.5 -99.501s-78 -90 -104 -145s-39 -112.5 -39 -172.5v-1053h-397v1847
h397v-172c76.667 68 153.834 118.5 231.501 151.5s158.834 49.5 243.501 49.5c62 0 123.5 -6.5 184.5 -19.5s118.833 -32.333 173.5 -58s105.5 -57.834 152.5 -96.501s87.5 -83.667 121.5 -135s60.667 -109 80 -173s29 -134 29 -210v-1184z" />
    <glyph glyph-name="thothongthai" unicode="&#xe18;" horiz-adv-x="1864" 
d="M1368 1221c-27.333 54.667 -60.1699 101.659 -98.5029 140.992s-79.833 72 -124.5 98s-91 46.167 -139 60.5s-95 23.5 -141 27.5s-89.667 3.83301 -131 -0.5s-77.5 -12 -108.5 -23s-55.667 -24.667 -74 -41s-27.5 -34.166 -27.5 -53.499c0 -16 9.33301 -31.167 28 -45.5
s42.334 -27.666 71.001 -39.999s60.5 -23.666 95.5 -33.999s68.833 -19.333 101.5 -27s61.834 -14.167 87.501 -19.5s44.167 -9 55.5 -11c54.667 -12.667 111 -27.167 169 -43.5s114.5 -35.666 169.5 -57.999s107.167 -48.833 156.5 -79.5s92.5 -66.667 129.5 -108
s66.333 -89.166 88 -143.499s32.5 -116.166 32.5 -185.499c0 -70 -9.66699 -135 -29 -195s-46.5 -114.667 -81.5 -164s-76.5 -93.166 -124.5 -131.499s-100.667 -70.666 -158 -96.999s-118.333 -46.333 -183 -60s-130.667 -20.5 -198 -20.5
c-68.667 0 -135.334 6.83301 -200.001 20.5s-125.834 33.667 -183.501 60s-110.667 58.666 -159 96.999s-90 82.166 -125 131.499s-62.167 104.166 -81.5 164.499s-29 125.166 -29 194.499v336h393v-332c0.666992 -45.333 9.83398 -86.333 27.501 -123
s42.834 -68 75.501 -94s72.667 -46.167 120 -60.5s101.333 -21.5 162 -21.5c58 0 110.5 7.16699 157.5 21.5s87 34.333 120 60s58.5 56.667 76.5 93s27 76.5 27 120.5c0 32.667 -6 61.5 -18 86.5s-28.667 47 -50 66s-46.666 35.667 -75.999 50s-61.666 27.5 -96.999 39.5
s-72.833 23.167 -112.5 33.5l-121.5 31.5l-168.5 40.5c-57 14.333 -112 30.5 -165 48.5s-102.833 38.667 -149.5 62s-87.334 50.833 -122.001 82.5s-62 67.834 -82 108.501s-30 87.667 -30 141c0 42.667 9.16699 83.5 27.5 122.5s43.833 75.333 76.5 109s71.667 64 117 91
s94.833 50 148.5 69s110.667 33.667 171 44s121.833 15.5 184.5 15.5c84 2.66699 168.333 -5.16602 253 -23.499s165.5 -49.166 242.5 -92.499s148 -99.666 213 -168.999s119.5 -153.333 163.5 -252z" />
    <glyph glyph-name="nonuthai" unicode="&#xe19;" horiz-adv-x="1925" 
d="M1372 -4l0.00488281 213.002c-32.667 -40 -68.334 -75.167 -107.001 -105.5s-79.167 -55.5 -121.5 -75.5s-85.666 -35.167 -129.999 -45.5s-88.5 -15.5 -132.5 -15.5c-60.667 0 -120.834 7.16699 -180.501 21.5s-116.334 35.166 -170.001 62.499
s-103.334 61 -149.001 101s-85.167 85.5 -118.5 136.5s-59.5 107.667 -78.5 170s-28.5 129.166 -28.5 200.499v1184h397v-1184c0 -52 9.16699 -97.833 27.5 -137.5s43.166 -73 74.499 -100s68.166 -47.333 110.499 -61s87.5 -20.5 135.5 -20.5
c38 0 76.167 6.83301 114.5 20.5s74.833 32.334 109.5 56.001s67.167 51.667 97.5 84s56.5 67 78.5 104s39.333 75.667 52 116s19 80.166 19 119.499v1003h397v-1847h-397z" />
    <glyph glyph-name="bobaimaithai" unicode="&#xe1a;" horiz-adv-x="1925" 
d="M1769 725c0 -70 -9.66797 -136.999 -29.001 -200.999s-46.5 -123.833 -81.5 -179.5s-77.167 -106.167 -126.5 -151.5s-103.833 -84.166 -163.5 -116.499s-123.834 -57.333 -192.501 -75s-139.667 -26.5 -213 -26.5c-74 0 -145.167 8.83301 -213.5 26.5
s-132.5 42.667 -192.5 75s-114.5 71.166 -163.5 116.499s-91.167 95.833 -126.5 151.5s-62.666 115.667 -81.999 180s-29 131.166 -29 200.499v1118h397v-1118c0 -51.333 10.333 -99.833 31 -145.5s49.334 -85.667 86.001 -120s80 -61.5 130 -81.5s104.333 -30 163 -30
c56 0 108.833 10 158.5 30s93 47.167 130 81.5s66.333 74.333 88 120s32.5 94.167 32.5 145.5v1118h397v-1118z" />
    <glyph glyph-name="poplathai" unicode="&#xe1b;" horiz-adv-x="1925" 
d="M1769 725c0 -70 -9.66797 -136.999 -29.001 -200.999s-46.5 -123.833 -81.5 -179.5s-77.167 -106.167 -126.5 -151.5s-103.833 -84.166 -163.5 -116.499s-123.834 -57.333 -192.501 -75s-139.667 -26.5 -213 -26.5c-74 0 -145.167 8.83301 -213.5 26.5
s-132.5 42.667 -192.5 75s-114.5 71.166 -163.5 116.499s-91.167 95.833 -126.5 151.5s-62.666 115.667 -81.999 180s-29 131.166 -29 200.499v1118h397v-1118c0 -51.333 10.333 -99.833 31 -145.5s49.334 -85.667 86.001 -120s80 -61.5 130 -81.5s104.333 -30 163 -30
c56 0 108.833 10 158.5 30s93 47.167 130 81.5s66.333 74.333 88 120s32.5 94.167 32.5 145.5v1941h397v-1941z" />
    <glyph glyph-name="phophungthai" unicode="&#xe1c;" horiz-adv-x="2159" 
d="M2003 504c0 -72.667 -14.832 -140.666 -44.499 -203.999s-70 -118.333 -121 -165s-110.5 -83.5 -178.5 -110.5s-140.333 -40.5 -217 -40.5c-140 0 -261.667 40.667 -365 122c-98.667 -81.333 -218.667 -122 -360 -122c-76.667 0 -149 13.5 -217 40.5
s-127.5 63.833 -178.5 110.5s-91.333 101.667 -121 165s-44.5 131.333 -44.5 204v610c0 70 10 137.333 30 202s49.167 124.667 87.5 180s85.166 105.666 140.499 150.999s118 84 188 116s147 56.833 231 74.5s173.667 26.5 269 26.5v-369c-94 0 -175.5 -10.5 -244.5 -31.5
s-126 -49 -171 -84s-78.5 -75.5 -100.5 -121.5s-33 -94 -33 -144v-610c0 -20.667 4.16699 -40.167 12.5 -58.5s19.833 -34.5 34.5 -48.5s32 -25 52 -33s41.667 -12 65 -12s45 4 65 12s37.333 19 52 33s26.167 30.167 34.5 48.5s12.5 37.833 12.5 58.5v696h397v-696
c0 -20.667 4.16699 -40.167 12.5 -58.5s19.833 -34.5 34.5 -48.5s32 -25 52 -33s41.667 -12 65 -12s45 4 65 12s37.333 19 52 33s26.167 30.167 34.5 48.5s12.5 37.833 12.5 58.5v1339h397v-1339z" />
    <glyph glyph-name="fofathai" unicode="&#xe1d;" horiz-adv-x="2159" 
d="M2003 504c0 -72.667 -14.832 -140.666 -44.499 -203.999s-70 -118.333 -121 -165s-110.5 -83.5 -178.5 -110.5s-140.333 -40.5 -217 -40.5c-140 0 -261.667 40.667 -365 122c-98.667 -81.333 -218.667 -122 -360 -122c-76.667 0 -149 13.5 -217 40.5
s-127.5 63.833 -178.5 110.5s-91.333 101.667 -121 165s-44.5 131.333 -44.5 204v610c0 70 10 137.333 30 202s49.167 124.667 87.5 180s85.166 105.666 140.499 150.999s118 84 188 116s147 56.833 231 74.5s173.667 26.5 269 26.5v-369c-94 0 -175.5 -10.5 -244.5 -31.5
s-126 -49 -171 -84s-78.5 -75.5 -100.5 -121.5s-33 -94 -33 -144v-610c0 -20.667 4.16699 -40.167 12.5 -58.5s19.833 -34.5 34.5 -48.5s32 -25 52 -33s41.667 -12 65 -12s45 4 65 12s37.333 19 52 33s26.167 30.167 34.5 48.5s12.5 37.833 12.5 58.5v696h397v-696
c0 -20.667 4.16699 -40.167 12.5 -58.5s19.833 -34.5 34.5 -48.5s32 -25 52 -33s41.667 -12 65 -12s45 4 65 12s37.333 19 52 33s26.167 30.167 34.5 48.5s12.5 37.833 12.5 58.5v2162h397v-2162z" />
    <glyph glyph-name="phophanthai" unicode="&#xe1e;" horiz-adv-x="2232" 
d="M2077 520c0 -76.667 -15.332 -148 -45.999 -214s-72.167 -123.167 -124.5 -171.5s-113.666 -86.166 -183.999 -113.499s-144.833 -41 -223.5 -41c-147.333 0 -274.333 45 -381 135c-106 -90 -233 -135 -381 -135c-80 0 -155.167 13.667 -225.5 41
s-131.833 65.166 -184.5 113.499s-94.334 105.5 -125.001 171.5s-46 137.333 -46 214v1323h397v-1323c0 -23.333 4.5 -45.333 13.5 -66s21.5 -38.5 37.5 -53.5s35.333 -26.833 58 -35.5s47.667 -13 75 -13c26 0 50 4.33301 72 13s41 20.5 57 35.5s28.667 32.833 38 53.5
s14 42.667 14 66v1323h397v-1323c0 -23.333 4.5 -45.333 13.5 -66s21.5 -38.5 37.5 -53.5s35.333 -26.833 58 -35.5s47.667 -13 75 -13c26 0 50.167 4.33301 72.5 13s41.666 20.5 57.999 35.5s29.333 32.833 39 53.5s14.5 42.667 14.5 66v1323h394v-1323z" />
    <glyph glyph-name="fofanthai" unicode="&#xe1f;" horiz-adv-x="2232" 
d="M2077 520c0 -76.667 -15.332 -148 -45.999 -214s-72.167 -123.167 -124.5 -171.5s-113.666 -86.166 -183.999 -113.499s-144.833 -41 -223.5 -41c-147.333 0 -274.333 45 -381 135c-106 -90 -233 -135 -381 -135c-80 0 -155.167 13.667 -225.5 41
s-131.833 65.166 -184.5 113.499s-94.334 105.5 -125.001 171.5s-46 137.333 -46 214v1323h397v-1323c0 -23.333 4.5 -45.333 13.5 -66s21.5 -38.5 37.5 -53.5s35.333 -26.833 58 -35.5s47.667 -13 75 -13c26 0 50 4.33301 72 13s41 20.5 57 35.5s28.667 32.833 38 53.5
s14 42.667 14 66v1323h397v-1323c0 -23.333 4.5 -45.333 13.5 -66s21.5 -38.5 37.5 -53.5s35.333 -26.833 58 -35.5s47.667 -13 75 -13c26 0 50.167 4.33301 72.5 13s41.666 20.5 57.999 35.5s29.333 32.833 39 53.5s14.5 42.667 14.5 66v2146h394v-2146z" />
    <glyph glyph-name="phosamphaothai" unicode="&#xe20;" horiz-adv-x="2019" 
d="M1470 0l0.000976562 1053c0 65.333 -12.333 125.5 -37 180.5s-59.5 102.5 -104.5 142.5s-99.167 71.167 -162.5 93.5s-134 33.5 -212 33.5c-68 0 -134.167 -14 -198.5 -42s-122.166 -65.667 -173.499 -113l98 -103v-1245h-569v369h172v745l-197 209
c52 84.667 109.667 161 173 229s131.5 125.667 204.5 173s150.5 83.666 232.5 108.999s168 38 258 38c88 0 171.667 -9.16699 251 -27.5s152.666 -44.666 219.999 -78.999s128.166 -76 182.499 -125s100.5 -103.833 138.5 -164.5s67.167 -126.5 87.5 -197.5
s30.5 -146.167 30.5 -225.5v-1053h-394z" />
    <glyph glyph-name="momathai" unicode="&#xe21;" horiz-adv-x="1925" 
d="M1769 659c0 -72 -9.49707 -139 -28.4971 -201s-45.167 -118.5 -78.5 -169.5s-72.833 -96.5 -118.5 -136.5s-95.334 -73.667 -149.001 -101s-110.334 -48.166 -170.001 -62.499s-119.834 -21.5 -180.501 -21.5c-44 0 -88.167 5.16699 -132.5 15.5
s-87.666 25.5 -129.999 45.5s-82.833 45.167 -121.5 75.5s-74.334 65.5 -107.001 105.5v-213h-397v1847h397v-1003c0 -40 6.33301 -80 19 -120s30 -78.5 52 -115.5s48.167 -71.667 78.5 -104s62.833 -60.333 97.5 -84s71.167 -42.334 109.5 -56.001s76.5 -20.5 114.5 -20.5
c48 0 93.167 6.83301 135.5 20.5s79.333 34 111 61s56.5 60.333 74.5 100s27 85.5 27 137.5v1184h397v-1184z" />
    <glyph glyph-name="yoyakthai" unicode="&#xe22;" horiz-adv-x="1855" 
d="M1696 733c0 -70.667 -9.33789 -138.333 -28.0049 -203s-45.167 -125 -79.5 -181s-75.333 -107 -123 -153s-100.5 -85.333 -158.5 -118s-120.167 -58 -186.5 -76s-135.5 -27 -207.5 -27c-67.333 0 -132.666 8.33301 -195.999 25s-123.166 40.5 -179.499 71.5
s-108 68.833 -155 113.5s-88.333 94.834 -124 150.501s-64.5 116.667 -86.5 183s-35.667 136.5 -41 210.5l234 234c-32 29.333 -61 58.333 -87 87s-48.333 59.167 -67 91.5s-33.167 67.5 -43.5 105.5s-15.5 81 -15.5 129c0 68.667 13.333 133 40 193
s62.834 112.167 108.501 156.5s99 79.166 160 104.499s125.833 38 194.5 38c36 0 70.667 -3.66699 104 -11s67.666 -19.833 102.999 -37.5s72.833 -41.334 112.5 -71.001s83.5 -66.5 131.5 -110.5l-266 -262c-32 28.667 -58.167 51 -78.5 67s-37.166 27.833 -50.499 35.5
s-24.166 12.334 -32.499 14.001s-16.166 2.5 -23.499 2.5c-19.333 0 -36.833 -3.16699 -52.5 -9.5s-29 -14.833 -40 -25.5s-19.5 -23.167 -25.5 -37.5s-9 -29.833 -9 -46.5c0 -29.333 16.667 -60.666 50 -93.999l323 -324l-364 -360c15.333 -36.667 35.333 -70.5 60 -101.5
s53 -57.833 85 -80.5s67.5 -40.334 106.5 -53.001s80.5 -19 124.5 -19c56.667 0 109.5 10.333 158.5 31s91.5 48.667 127.5 84s64.333 76.5 85 123.5s31 97.167 31 150.5v1110h381v-1110z" />
    <glyph glyph-name="roruathai" unicode="&#xe23;" horiz-adv-x="1757" 
d="M1602 639c0 -74 -9.83691 -141.666 -29.5039 -202.999s-46.667 -116.833 -81 -166.5s-74.666 -93.167 -120.999 -130.5s-96.166 -68.333 -149.499 -93s-109 -43.334 -167 -56.001s-115.667 -19 -173 -19c-54.667 0 -109.5 5.33301 -164.5 16s-108 27.5 -159 50.5
s-99.5 52 -145.5 87s-87.333 77 -124 126s-68 105 -94 168s-44.333 133.833 -55 212.5l369 123c11.333 -82 28.333 -149.667 51 -203s50 -95.666 82 -126.999s68 -53.166 108 -65.499s82.667 -18.5 128 -18.5c48.667 0 94 7.16699 136 21.5s78.5 34.5 109.5 60.5
s55.167 57.333 72.5 94s26 77.667 26 123c0 40.667 -16.333 75.667 -49 105s-86 54.333 -160 75c-48 13.333 -102 26.166 -162 38.499s-121 26.5 -183 42.5s-122.5 35.167 -181.5 57.5s-111.333 50 -157 83s-82.5 72.833 -110.5 119.5s-42 102.334 -42 167.001
c0 62.667 9.5 120 28.5 172s44.833 98.667 77.5 140s71 77.333 115 108s90.833 56.167 140.5 76.5s101 35.5 154 45.5s105.167 15 156.5 15c46.667 0 94.167 -3.5 142.5 -10.5s96.166 -18.667 143.499 -35s93.333 -37.5 138 -63.5s86.834 -57.833 126.501 -95.5
s76.334 -82 110.001 -133s63.167 -109.167 88.5 -174.5l-356 -131c-23.333 54 -48.833 99 -76.5 135s-57.667 64.667 -90 86s-67 36.333 -104 45s-76.5 13 -118.5 13c-49.333 0 -92.5 -5.5 -129.5 -16.5s-67.667 -25.333 -92 -43s-42.666 -37.834 -54.999 -60.501
s-18.5 -45.667 -18.5 -69c0 -15.333 4.33301 -27.666 13 -36.999s20.5 -17.166 35.5 -23.499s32.667 -11.833 53 -16.5s42.5 -10.334 66.5 -17.001c57.333 -16 118.833 -31.333 184.5 -46s131 -31.334 196 -50.001s127.5 -41 187.5 -67s112.833 -58.5 158.5 -97.5
s82.167 -85.833 109.5 -140.5s41 -120.334 41 -197.001z" />
    <glyph glyph-name="ruthai" unicode="&#xe24;" horiz-adv-x="1991" 
d="M1835 -700l-396.999 -0.000976562l4 1753c0 65.333 -12.333 125.5 -37 180.5s-59.5 102.5 -104.5 142.5s-99.167 71.167 -162.5 93.5s-134 33.5 -212 33.5c-34 0 -67.833 -3.66699 -101.5 -11s-66.5 -17.833 -98.5 -31.5s-62.667 -30 -92 -49s-56.333 -40.167 -81 -63.5
l98 -103v-876h262v-369h-659v1114l-197 209c53.333 86 111.666 163 174.999 231s131.333 125.5 204 172.5s150 83 232 108s168 37.5 258 37.5c87.333 0 170.5 -9.16699 249.5 -27.5s152.167 -44.666 219.5 -78.999s128 -76 182 -125s100.167 -103.833 138.5 -164.5
s67.833 -126.5 88.5 -197.5s31 -146.167 31 -225.5v-1753z" />
    <glyph glyph-name="lolingthai" unicode="&#xe25;" horiz-adv-x="1835" 
d="M1298 0l-0.00195312 516.004c0 54 -10.333 102.167 -31 144.5s-48.667 78 -84 107s-77 51 -125 66s-99 22.5 -153 22.5c-50 0 -97.833 -7.5 -143.5 -22.5s-85.667 -36.667 -120 -65s-61.833 -63.166 -82.5 -104.499s-31 -88 -31 -140c0 -23.333 3 -46.333 9 -69
s16.833 -46.334 32.5 -71.001s37 -50.834 64 -78.501s61.5 -58.5 103.5 -92.5l-270 -266c-57.333 46 -106 92.167 -146 138.5s-72.5 93.166 -97.5 140.499s-43.167 95.833 -54.5 145.5s-17 100.5 -17 152.5c0 70 9.33301 136.167 28 198.5s45 119.666 79 171.999
s74.333 99.166 121 140.499s97.834 76.333 153.501 105s115 50.667 178 66s127.5 23 193.5 23c34 0 69.333 -2.66699 106 -8s72.667 -13 108 -23s68.833 -22.167 100.5 -36.5s59.5 -30.166 83.5 -47.499v70c0.666992 50 -9.5 94.333 -30.5 133s-50 71.167 -87 97.5
s-80.333 46.333 -130 60s-102.5 20.5 -158.5 20.5c-61.333 0 -115 -7.33301 -161 -22s-85.167 -36.5 -117.5 -65.5s-58.166 -65 -77.499 -108s-33 -92.5 -41 -148.5h-377c7.33301 88 23.5 166.667 48.5 236s56.5 130.5 94.5 183.5s81.333 98 130 135s100.5 67.333 155.5 91
s111.833 40.834 170.5 51.501s117 16 175 16c60 0 121 -6.33301 183 -19s122 -31.834 180 -57.501s112.333 -57.834 163 -96.501s95 -84.167 133 -136.5s68 -111.333 90 -177s33 -138.5 33 -218.5v-1159h-381z" />
    <glyph glyph-name="luthai" unicode="&#xe26;" horiz-adv-x="2019" 
d="M1470 -700l0.000976562 1753c0 65.333 -12.333 125.5 -37 180.5s-59.5 102.5 -104.5 142.5s-99.167 71.167 -162.5 93.5s-134 33.5 -212 33.5c-68 0 -134.167 -14 -198.5 -42s-122.166 -65.667 -173.499 -113l98 -103v-1245h-569v369h172v745l-197 209
c52 84.667 109.667 161 173 229s131.5 125.667 204.5 173s150.5 83.666 232.5 108.999s168 38 258 38c88 0 171.667 -9.16699 251 -27.5s152.666 -44.666 219.999 -78.999s128.166 -76 182.499 -125s100.5 -103.833 138.5 -164.5s67.167 -126.5 87.5 -197.5
s30.5 -146.167 30.5 -225.5v-1753h-394z" />
    <glyph glyph-name="wowaenthai" unicode="&#xe27;" horiz-adv-x="1729" 
d="M1610 922c0 -92 -10.168 -179.497 -30.501 -262.497s-48.666 -159.667 -84.999 -230s-80 -133.833 -131 -190.5s-107.167 -104.834 -168.5 -144.501s-126.833 -70.167 -196.5 -91.5s-141.834 -32 -216.501 -32c-58 -1.33301 -116.833 4.16699 -176.5 16.5
s-119.167 32.333 -178.5 60s-118.333 63.167 -177 106.5s-116 95.666 -172 156.999l246 271c75.333 -82 152 -141.5 230 -178.5s152.667 -55.5 224 -55.5c62.667 0.666992 121.167 14.667 175.5 42s101.666 65.833 141.999 115.5s72 109.667 95 180
s34.5 149.166 34.5 236.499c0 86.667 -11.833 165.167 -35.5 235.5s-55.834 130.166 -96.501 179.499s-88.334 87.333 -143.001 114s-113.334 40 -176.001 40c-71.333 0 -145.166 -18.5 -221.499 -55.5s-151.166 -96.5 -224.499 -178.5l-246 271
c106.667 116.667 217.834 202.5 333.501 257.5s231.167 82.5 346.5 82.5c76.667 2 150.834 -7 222.501 -27s138.834 -49.667 201.501 -89s120 -87.166 172 -143.499s96.667 -120 134 -191s66.333 -148.167 87 -231.5s31 -171.333 31 -264z" />
    <glyph glyph-name="sosalathai" unicode="&#xe28;" horiz-adv-x="1925" 
d="M1602 1573c55.333 -64 97.001 -134.333 125.001 -211s42 -159.334 42 -248.001v-1114h-397v1114c0 52 -10.833 101.167 -32.5 147.5s-51 86.833 -88 121.5s-80.333 62 -130 82s-102.5 30 -158.5 30c-58.667 0 -113 -10 -163 -30s-93.333 -47.333 -130 -82
s-65.334 -75.167 -86.001 -121.5s-31 -95.5 -31 -147.5h405v-364h-405v-750h-397v1114c0 68.667 9.66699 135 29 199s46.666 123.833 81.999 179.5s77.5 106.334 126.5 152.001s103.5 84.667 163.5 117s124.167 57.5 192.5 75.5s139.5 27 213.5 27
c116.667 0 224.334 -20.667 323.001 -62l225 242l291 -254z" />
    <glyph glyph-name="sorusithai" unicode="&#xe29;" horiz-adv-x="1966" 
d="M1810 885l-0.00195312 -103.001c0 -76.667 -9.83301 -149.667 -29.5 -219s-47.334 -133.833 -83.001 -193.5s-78.667 -113.834 -129 -162.501s-106 -90.167 -167 -124.5s-126.833 -60.833 -197.5 -79.5s-144.334 -28 -221.001 -28s-150.334 9.33301 -221.001 28
s-136.5 45.167 -197.5 79.5s-116.667 75.833 -167 124.5s-93.333 102.834 -129 162.501s-63.334 124.334 -83.001 194.001s-29.5 142.5 -29.5 218.5v1061h397v-1065c0 -62.667 10.333 -120 31 -172s49.834 -96.833 87.501 -134.5s82.834 -67 135.501 -88
s111.334 -31.5 176.001 -31.5s123.334 11.167 176.001 33.5s97.834 52.833 135.501 91.5s66.834 84.167 87.501 136.5s31 108.5 31 168.5v103h-246c-48 0 -92.167 8.33301 -132.5 25s-75.333 39.5 -105 68.5s-52.667 62.833 -69 101.5s-24.5 80 -24.5 124v217h368v-172h209
v594h397v-594h152v-364h-152z" />
    <glyph glyph-name="sosuathai" unicode="&#xe2a;" horiz-adv-x="1835" 
d="M1569 1536c73.333 -102.667 109.998 -228.334 109.998 -377.001v-1159h-381v516c0 54 -10.333 102.167 -31 144.5s-48.667 78 -84 107s-77 51 -125 66s-99 22.5 -153 22.5c-50 0 -97.833 -7.33301 -143.5 -22s-85.667 -36 -120 -64s-61.833 -62.333 -82.5 -103
s-31 -87 -31 -139c0 -23.333 3 -46.333 9 -69s16.833 -46.334 32.5 -71.001s37 -50.834 64 -78.501s61.5 -58.5 103.5 -92.5l-270 -270c-57.333 46 -106 92.167 -146 138.5s-72.5 93.333 -97.5 141s-43.167 96.5 -54.5 146.5s-17 101.667 -17 155
c0 70.667 9.33301 137.167 28 199.5s45 119.5 79 171.5s74.333 98.5 121 139.5s97.834 75.5 153.501 103.5s115 49.5 178 64.5s127.5 22.5 193.5 22.5c34 0 69.333 -2.16699 106 -6.5s72.667 -11.166 108 -20.499s68.833 -21.166 100.5 -35.499s59.5 -31.833 83.5 -52.5v70
c0 52 -10.333 97.5 -31 136.5s-49.334 71.5 -86.001 97.5s-79.667 45.333 -129 58s-102.666 19 -159.999 19c-61.333 0 -115 -7.33301 -161 -22s-85.167 -36.5 -117.5 -65.5s-58.166 -65 -77.499 -108s-33 -92.5 -41 -148.5h-377c7.33301 88 23.5 166.667 48.5 236
s56.5 130.5 94.5 183.5s81.333 98 130 135s100.5 67.333 155.5 91s111.833 40.834 170.5 51.501s117 16 175 16c64 0 127.167 -6 189.5 -18s123.5 -33.333 183.5 -64l241 262l291 -254z" />
    <glyph glyph-name="hohipthai" unicode="&#xe2b;" horiz-adv-x="1901" 
d="M1450 1397c44.667 -26 85.3359 -56.665 122.003 -91.998s67.667 -74.333 93 -117s45 -88.5 59 -137.5s21 -100.167 21 -153.5v-897h-381v909c0 28.667 -5.83301 56.167 -17.5 82.5s-27.5 49.5 -47.5 69.5s-43.667 35.833 -71 47.5s-57 17.5 -89 17.5
c-30.667 0 -66.834 -9.16699 -108.501 -27.5s-84.834 -41.166 -129.501 -68.499s-88.834 -56.833 -132.501 -88.5s-82.667 -61.334 -117 -89.001s-62 -50.834 -83 -69.501s-31.5 -28.334 -31.5 -29.001v-754h-381v1843h381v-643l983 692l229 -286z" />
    <glyph glyph-name="lochulathai" unicode="&#xe2c;" horiz-adv-x="2232" 
d="M2077 1847c0 -51.333 -7.16602 -98.498 -21.499 -141.498s-35.833 -83.167 -64.5 -120.5c57.333 -82.667 86 -176.667 86 -282v-783c0 -76.667 -15.333 -148 -46 -214s-72.167 -123.167 -124.5 -171.5s-113.666 -86.166 -183.999 -113.499s-144.833 -41 -223.5 -41
c-147.333 0 -274.333 45 -381 135c-106 -90 -233 -135 -381 -135c-80 0 -155.167 13.667 -225.5 41s-131.833 65.166 -184.5 113.499s-94.334 105.5 -125.001 171.5s-46 137.333 -46 214v1323h397v-1323c0 -23.333 4.5 -45.333 13.5 -66s21.5 -38.5 37.5 -53.5
s35.333 -26.833 58 -35.5s47.667 -13 75 -13c26 0 50 4.33301 72 13s41 20.5 57 35.5s28.667 32.833 38 53.5s14 42.667 14 66v705h397v-705c0 -23.333 4.5 -45.333 13.5 -66s21.5 -38.5 37.5 -53.5s35.333 -26.833 58 -35.5s47.667 -13 75 -13c26 0 50.167 4.33301 72.5 13
s41.666 20.5 57.999 35.5s29.333 32.833 39 53.5s14.5 42.667 14.5 66v787c0 32 -3 58 -9 78s-14.5 35.667 -25.5 47s-24.333 19.166 -40 23.499s-33.167 6.5 -52.5 6.5h-241v340h262c21.333 0 39.333 -0.333008 54 -1s26.5 0.166016 35.5 2.49902s15.5 7 19.5 14
s6 18.167 6 33.5v148h389z" />
    <glyph glyph-name="oangthai" unicode="&#xe2d;" horiz-adv-x="2056" 
d="M1937 926c0 -84.667 -9.66797 -167.167 -29.001 -247.5s-47.166 -156 -83.499 -227s-81 -136.167 -134 -195.5s-113 -110.333 -180 -153s-140.667 -76 -221 -100s-166.166 -36 -257.499 -36c-96.667 0 -187.5 13.333 -272.5 40s-163 63.834 -234 111.501
s-133.833 104.5 -188.5 170.5s-99.667 138.5 -135 217.5s-60 163 -74 252s-15.667 180.167 -5 273.5h979v-360h-553c19.333 -49.333 44.666 -94.5 75.999 -135.5s67.666 -76.333 108.999 -106s87 -52.834 137 -69.501s103.667 -25 161 -25c74.667 0 144 14.833 208 44.5
s119.333 70.667 166 123s83.334 114.5 110.001 186.5s40 150.667 40 236c0 86.667 -12.833 166.5 -38.5 239.5s-61.667 135.667 -108 188s-101.666 93.166 -165.999 122.499s-134.833 44 -211.5 44c-52 0 -102.667 -7.5 -152 -22.5s-96.333 -38.333 -141 -70
s-86.334 -72.334 -125.001 -122.001s-74 -109.5 -106 -179.5l-356 144c44 98 96.333 185.333 157 262s128.334 141.334 203.001 194.001s155.667 92.834 243 120.501s179.666 41.5 276.999 41.5c94.667 0 182.834 -12.167 264.501 -36.5s156.167 -58 223.5 -101
s126.833 -94.5 178.5 -154.5s95.167 -125.5 130.5 -196.5s62.166 -146.667 80.499 -227s27.5 -162.5 27.5 -246.5z" />
    <glyph glyph-name="honokhukthai" unicode="&#xe2e;" horiz-adv-x="2056" 
d="M1741 1544c66 -88.667 115.165 -184.503 147.498 -287.503s48.5 -213.167 48.5 -330.5c0 -84.667 -9.66699 -167.167 -29 -247.5s-47.166 -156 -83.499 -227s-81 -136.167 -134 -195.5s-113 -110.333 -180 -153s-140.667 -76 -221 -100s-166.166 -36 -257.499 -36
c-96.667 0 -187.5 13.333 -272.5 40s-163 63.834 -234 111.501s-133.833 104.5 -188.5 170.5s-99.667 138.5 -135 217.5s-60 163 -74 252s-15.667 180.167 -5 273.5h979v-360h-553c19.333 -49.333 44.666 -94.5 75.999 -135.5s67.666 -76.333 108.999 -106
s87 -52.834 137 -69.501s103.667 -25 161 -25c74.667 0 144 14.833 208 44.5s119.333 70.667 166 123s83.334 114.5 110.001 186.5s40 150.667 40 236c0 86.667 -12.833 166.167 -38.5 238.5s-61.667 134.5 -108 186.5s-101.666 92.5 -165.999 121.5
s-134.833 43.5 -211.5 43.5c-52 0 -102.667 -7.16699 -152 -21.5s-96.333 -37.166 -141 -68.499s-86.334 -71.666 -125.001 -120.999s-74 -109 -106 -179l-356 144c44.667 99.333 97.5 187.333 158.5 264s128.667 141.334 203 194.001s155 92.5 242 119.5
s179.167 40.5 276.5 40.5c78.667 0 152.334 -8 221.001 -24s133 -39.333 193 -70l254 274l295 -249z" />
    <glyph glyph-name="paiyannoithai" unicode="&#xe2f;" horiz-adv-x="1745" 
d="M1192 0l0.00292969 1147c-45.333 -39.333 -96.5 -69 -153.5 -89s-120.5 -30 -190.5 -30c-68.667 0 -134.334 8.33301 -197.001 25s-121.334 41.167 -176.001 73.5s-104.334 72 -149.001 119s-83 100.833 -115 161.5s-56.667 127.834 -74 201.501s-26 153.167 -26 238.5
h393c0 -78.667 9.33301 -146.334 28 -203.001s43.667 -103.334 75 -140.001s67.833 -63.667 109.5 -81s85.5 -26 131.5 -26s89.833 8.66699 131.5 26s78.167 44.333 109.5 81s56.333 83.334 75 140.001s28 124.334 28 203.001h393v-1847h-393z" />
    <glyph glyph-name="saraathai" unicode="&#xe30;" horiz-adv-x="1004" 
d="M475 1098c-49.333 0 -95.167 8.83301 -137.5 26.5s-79 41.667 -110 72s-55.5 66 -73.5 107s-27 84.5 -27 130.5v200h381v-176h356v-360h-389zM474.999 164c-49.333 0 -95.167 8.83301 -137.5 26.5s-79 41.667 -110 72s-55.5 66 -73.5 107s-27 84.5 -27 130.5v196h381
v-172h356v-360h-389z" />
    <glyph glyph-name="maihanakatthai" unicode="&#xe31;" 
d="M-967 2089c-49.333 0 -95.167 9.5 -137.5 28.5s-79 44.5 -110 76.5s-55.5 69 -73.5 111s-27 86 -27 132v229h344v-229h971v-348h-967z" />
    <glyph glyph-name="saraaathai" unicode="&#xe32;" horiz-adv-x="1520" 
d="M1364 0l-397.002 0.000976562v1151c0 237.333 -114.667 356 -344 356c-28.667 0 -56.667 -2.5 -84 -7.5s-55.5 -14 -84.5 -27s-59.5 -31.333 -91.5 -55s-67 -53.834 -105 -90.501l-266 266c57.333 56.667 112 102.834 164 138.501s103.5 63.667 154.5 84
s102.333 34.166 154 41.499s105.834 11 162.501 11c126 0 235.167 -18.833 327.5 -56.5s168.833 -88 229.5 -151s105.834 -136.167 135.501 -219.5s44.5 -170.333 44.5 -261v-1180z" />
    <glyph glyph-name="saraamthai" unicode="&#xe33;" horiz-adv-x="1520" 
d="M20 2445c0 -50 -9.5 -97.167 -28.5 -141.5s-45 -83 -78 -116s-71.667 -59 -116 -78s-91.5 -28.5 -141.5 -28.5s-97.167 9.5 -141.5 28.5s-83 45 -116 78s-59.167 71.667 -78.5 116s-29 91.5 -29 141.5s9.66699 97.167 29 141.5s45.5 83 78.5 116s71.667 59.167 116 78.5
s91.5 29 141.5 29s97.167 -9.66699 141.5 -29s83 -45.5 116 -78.5s59 -71.667 78 -116s28.5 -91.5 28.5 -141.5zM1364 0l-397.002 0.000976562v1151c0 237.333 -114.667 356 -344 356c-28.667 0 -56.667 -2.5 -84 -7.5s-55.5 -14 -84.5 -27s-59.5 -31.333 -91.5 -55
s-67 -53.834 -105 -90.501l-266 266c57.333 56.667 112 102.834 164 138.501s103.5 63.667 154.5 84s102.333 34.166 154 41.499s105.834 11 162.501 11c126 0 235.167 -18.833 327.5 -56.5s168.833 -88 229.5 -151s105.834 -136.167 135.501 -219.5
s44.5 -170.333 44.5 -261v-1180zM-238.002 2441c0 15.333 -2.66797 29.832 -8.00098 43.499s-12.666 25.5 -21.999 35.5s-20.5 17.833 -33.5 23.5s-27.167 8.5 -42.5 8.5s-29.833 -2.83301 -43.5 -8.5s-25.5 -13.5 -35.5 -23.5s-17.833 -21.833 -23.5 -35.5
s-8.5 -28.167 -8.5 -43.5s2.83301 -29.5 8.5 -42.5s13.5 -24.167 23.5 -33.5s21.833 -16.666 35.5 -21.999s28.167 -8 43.5 -8c30.667 0 56 10 76 30s30 45.333 30 76z" />
    <glyph glyph-name="saraithai" unicode="&#xe34;" 
d="M-1745 2089v348h1589v-348h-1589z" />
    <glyph glyph-name="saraiithai" unicode="&#xe35;" 
d="M-1745 2089v348h1241v246h348v-594h-1589z" />
    <glyph glyph-name="sarauethai" unicode="&#xe36;" 
d="M-127 2388c0 -41.333 -7.83301 -80 -23.5 -116s-37 -67.667 -64 -95s-58.333 -48.833 -94 -64.5s-73.5 -23.5 -113.5 -23.5h-1323v348h1028c7.33301 36 19.833 69 37.5 99s39.334 55.833 65.001 77.5s54.5 38.667 86.5 51s66 18.5 102 18.5
c40.667 0 79.167 -7.66699 115.5 -23s68.166 -36.333 95.499 -63s48.833 -58 64.5 -94s23.5 -74.333 23.5 -115zM-328 2384c0 13.333 -2.66699 25.833 -8 37.5s-12.5 22 -21.5 31s-19.333 16.167 -31 21.5s-24.167 8 -37.5 8s-25.833 -2.66699 -37.5 -8s-22 -12.5 -31 -21.5
s-16.167 -19.333 -21.5 -31s-8 -24.167 -8 -37.5s2.66699 -25.833 8 -37.5s12.5 -22 21.5 -31s19.333 -16.167 31 -21.5s24.167 -8 37.5 -8s25.833 2.66699 37.5 8s22 12.5 31 21.5s16.167 19.333 21.5 31s8 24.167 8 37.5z" />
    <glyph glyph-name="saraueethai" unicode="&#xe37;" 
d="M-1745 2089v348h766v246h328v-246h164v246h331v-594h-1589z" />
    <glyph glyph-name="sarauthai" unicode="&#xe38;" 
d="M-528 -885l0.000976562 328h-164v377h336c27.333 0 53.166 -5.33301 77.499 -16s45.5 -25 63.5 -43s32.333 -39.167 43 -63.5s16 -50.5 16 -78.5v-504h-372z" />
    <glyph glyph-name="sarauuthai" unicode="&#xe39;" 
d="M-156 -524c0 -61.333 -11.335 -117.5 -34.002 -168.5s-53.667 -94.667 -93 -131s-85.666 -64.5 -138.999 -84.5s-110.666 -30 -171.999 -30c-56 0 -111.833 7.5 -167.5 22.5s-105.667 38.167 -150 69.5s-80.333 71 -108 119s-41.5 104.667 -41.5 170h-164v373h529v-348
c0 -25.333 8.66699 -44.666 26 -57.999s37.333 -20 60 -20s42.667 6.66699 60 20s26 32.666 26 57.999v348h368v-340z" />
    <glyph glyph-name="phinthuthai" unicode="&#xe3a;" 
d="M-115 -332c0 -32.667 -6.16797 -63.334 -18.501 -92.001s-29.166 -53.834 -50.499 -75.501s-46 -38.667 -74 -51s-58 -18.5 -90 -18.5c-32.667 0 -63.5 6.16699 -92.5 18.5s-54.167 29.333 -75.5 51s-38.333 46.834 -51 75.501s-19 59.334 -19 92.001
s6.16699 63.5 18.5 92.5s29.166 54.167 50.499 75.5s46.166 38.333 74.499 51s58.5 19 90.5 19c32.667 0 63.334 -6.33301 92.001 -19s53.834 -29.667 75.501 -51s38.667 -46.5 51 -75.5s18.5 -59.833 18.5 -92.5z" />
    <glyph glyph-name="PUCR2005" unicode="&#xe3e;" 
 />
    <glyph glyph-name="bahtthai" unicode="&#xe3f;" horiz-adv-x="1708" 
d="M1626 651c0 -103.333 -17.834 -193.834 -53.501 -271.501s-83.5 -143.167 -143.5 -196.5s-129.667 -95.166 -209 -125.499s-162.333 -49.5 -249 -57.5v-332h-316v328h-503v2167h503v315h316v-332c72.667 -15.333 138.5 -38.833 197.5 -70.5s109.333 -72.5 151 -122.5
s73.834 -109.5 96.501 -178.5s34 -148.5 34 -238.5c0 -142 -41 -262 -123 -360c97.333 -56 171.5 -129 222.5 -219s76.5 -192 76.5 -306zM1106 1552c0 32.667 -3.00098 61.5029 -9.00098 86.5029s-14.833 46.833 -26.5 65.5s-25.834 34.667 -42.501 48
s-35.667 24.666 -57 33.999v-471c20.667 9.33301 39.334 20.166 56.001 32.499s30.834 27.666 42.501 45.999s20.667 40.333 27 66s9.5 56.5 9.5 92.5zM654.998 1827h-159v-545h159v545zM1282 647.002c0 52 -8 95.501 -24 130.501s-37.833 63.5 -65.5 85.5
s-60.5 38.667 -98.5 50s-79 19.666 -123 24.999v-590c48 7.33301 91.167 18 129.5 32s71 32.833 98 56.5s47.667 52.667 62 87s21.5 75.5 21.5 123.5zM654.998 942.003h-159v-602h159v602z" />
    <glyph glyph-name="saraethai" unicode="&#xe40;" horiz-adv-x="831" 
d="M217 0v1843h397v-1843h-397z" />
    <glyph glyph-name="saraaethai" unicode="&#xe41;" horiz-adv-x="1540" 
d="M926 0v1843h397v-1843h-397zM217 0v1843h397v-1843h-397z" />
    <glyph glyph-name="saraothai" unicode="&#xe42;" horiz-adv-x="754" 
d="M315 2298c34 -19.333 66.5 -41.166 97.5 -65.5c31 -24.333 58.5 -51.833 82.5 -82.5s43 -65.167 57 -103.5s21 -81.5 21 -129.5v-1917h-401v1921c0 20 -7.33301 37.5 -22 52.5s-33.167 30.167 -55.5 45.5l-72 49c-25.667 17.333 -49.667 38 -72 62
s-40.833 52.5 -55.5 85.5s-22 72.833 -22 119.5c0 47.333 7 88.5 21 123.5s32.5 64.5 55.5 88.5s49.167 43.5 78.5 58.5s59.5 26.667 90.5 35s61.5 14 91.5 17s57 4.5 81 4.5h569v-364h-545z" />
    <glyph glyph-name="saraaimaimuanthai" unicode="&#xe43;" horiz-adv-x="754" 
d="M836 2191c0 -52 -7.00391 -98.833 -21.0039 -140.5s-32.833 -80.334 -56.5 -116.001s-51.5 -69.667 -83.5 -102l-102 -99.5v-1733h-397v1847l44.5 42.5l58.5 56l62.5 63c21 21.667 39.833 43.334 56.5 65.001s30.334 42.5 41.001 62.5s16 38.333 16 55
c0 87.333 -45.333 131 -136 131c-19.333 0 -37.666 -4 -54.999 -12s-32.5 -21.167 -45.5 -39.5s-23.333 -43 -31 -74s-11.5 -69.5 -11.5 -115.5h-385c0 98 13.833 184.833 41.5 260.5s65.334 139 113.001 190s103.334 89.667 167.001 116s131.167 39.5 202.5 39.5
c74.667 0 143.834 -13 207.501 -39s118.667 -61.333 165 -106s82.666 -97.167 108.999 -157.5s39.5 -124.833 39.5 -193.5z" />
    <glyph glyph-name="saraaimaimalaithai" unicode="&#xe44;" horiz-adv-x="754" 
d="M868 2335c0 -40.667 -7.33008 -76.334 -21.9971 -107c-14.667 -30.667 -32.834 -58.334 -54.501 -83.001s-45.334 -46.667 -71.001 -66l-71 -55c-21.667 -17.333 -39.834 -34.166 -54.501 -50.499s-22 -33.833 -22 -52.5v-1921h-397v1917c0 48 6.83301 91.167 20.5 129.5
s32.167 72.833 55.5 103.5s50.333 58.167 81 82.5s63 46.166 97 65.5h-545v364h570c24.667 0 52 -2 82 -6s60.167 -10.833 90.5 -20.5s60 -22.5 89 -38.5s54.667 -36.167 77 -60.5s40.333 -53.166 54 -86.5c13.667 -33.333 20.5 -71.666 20.5 -115z" />
    <glyph glyph-name="lakkhangyaothai" unicode="&#xe45;" horiz-adv-x="1520" 
d="M1364 -700l-397.002 0.000976562v1851c0 237.333 -114.667 356 -344 356c-28.667 0 -56.667 -2.5 -84 -7.5s-55.5 -14 -84.5 -27s-59.5 -31.333 -91.5 -55s-67 -53.834 -105 -90.501l-266 266c57.333 56.667 112 102.834 164 138.501s103.5 63.667 154.5 84
s102.333 34.166 154 41.499s105.834 11 162.501 11c126 0 235.167 -18.833 327.5 -56.5s168.833 -88 229.5 -151s105.834 -136.167 135.501 -219.5s44.5 -170.333 44.5 -261v-1880z" />
    <glyph glyph-name="maiyamokthai" unicode="&#xe46;" horiz-adv-x="1946" 
d="M1397 -700v1814c0 121.333 -49.333 221 -148 299l-282 -266l-283 266c-47.333 -39.333 -83.666 -84.666 -108.999 -135.999s-38 -107 -38 -167c0 -23.333 2.33301 -46.5 7 -69.5s13.334 -47 26.001 -72s29.834 -51.833 51.501 -80.5s49.5 -61 83.5 -97l-279 -267
c-52 52 -96 102.667 -132 152s-65.167 97.833 -87.5 145.5s-38.5 95.334 -48.5 143.001s-15 96.167 -15 145.5c0 82.667 13.667 162 41 238s67.166 146.5 119.499 211.5s116.666 123.667 192.999 176s163.5 96.5 261.5 132.5l209 -201l209 201
c98 -36 185.167 -80 261.5 -132s140.666 -110.167 192.999 -174.5s92 -134.333 119 -210s40.5 -154.834 40.5 -237.501v-1814h-393z" />
    <glyph glyph-name="maitaikhuthai" unicode="&#xe47;" 
d="M-1221 2724c-17.333 0 -32.3359 -5.33301 -45.0029 -16s-23.334 -24.5 -32.001 -41.5s-15 -35.833 -19 -56.5s-6 -41.334 -6 -62c0 -21.333 2.66699 -41.5 8 -60.5s12.5 -35.5 21.5 -49.5s19.333 -25.167 31 -33.5s24.167 -12.5 37.5 -12.5
c24.667 0 45.834 14.167 63.501 42.5s26.5 71.5 26.5 129.5h332c0 -55.333 9 -98.5 27 -129.5s40.333 -46.5 67 -46.5c60.667 0 91 58.667 91 176h335c0 -89.333 -11.833 -165.666 -35.5 -229c-23.667 -63.333 -55.167 -115.5 -94.5 -156.5s-84.666 -71 -135.999 -90
s-104.666 -28.5 -159.999 -28.5c-51.333 0 -96.666 8 -135.999 24s-78.666 39.333 -117.999 70c-38.667 -30.667 -79.334 -54 -122.001 -70s-88 -24 -136 -24c-65.333 0 -125.5 11.667 -180.5 35s-102.5 56.166 -142.5 98.5c-40 42.333 -71.167 93.5 -93.5 153.5
s-33.5 127 -33.5 201c0 72.667 10.333 140.167 31 202.5s50.5 116.5 89.5 162.5s86.333 82 142 108s118.167 39 187.5 39h1065v-336h-1065z" />
    <glyph glyph-name="maiekthai" unicode="&#xe48;" 
d="M-504 2879v599h348v-599h-348z" />
    <glyph glyph-name="maithothai" unicode="&#xe49;" 
d="M-1102 2879l36.499 62.5l38 67l35.5 67c11.333 22.333 21 43.166 29 62.5c5.33301 8.66699 9.33301 19.334 12 32c2.66699 12.667 3 24.834 1 36.5c-2 11.667 -6.83301 21.5 -14.5 29.5s-19.167 12 -34.5 12c-27.333 0 -45.333 -8 -54 -24l-188 188
c35.333 35.333 75.333 61.833 120 79.5s90.667 26.5 138 26.5c44 0 86.833 -7.16699 128.5 -21.5s78.334 -35 110.001 -62s56.167 -59.667 73.5 -98s24 -81.5 20 -129.5l-4 -45l37 4h618v-287h-1102z" />
    <glyph glyph-name="maitrithai" unicode="&#xe4a;" 
d="M-578 2879c28 40 53.5029 79.667 76.5029 119s44.167 80.333 63.5 123c2.66699 9.33301 4.33398 20.166 5.00098 32.5c0.666992 12.333 -1 24 -5 35s-10.5 20.333 -19.5 28s-21.833 11.5 -38.5 11.5c-15.333 0 -27.833 -2 -37.5 -6s-17.167 -10.333 -22.5 -19
s-9.33301 -20 -12 -34s-4.33398 -31.333 -5.00098 -52h-197c-1.33301 11.333 -3.33301 23.333 -6 36s-6.5 24.167 -11.5 34.5s-11.5 19 -19.5 26s-17.667 10.5 -29 10.5c-22.667 0 -40.5 -5.33301 -53.5 -16s-19.5 -27.334 -19.5 -50c0 -22.667 8.66699 -43.334 26 -62
c17.333 -18.667 37.333 -36.334 60 -53l-189 -180c-64 35.333 -114.167 77.666 -150.5 127c-36.333 49.333 -54.5 104 -54.5 164c0 49.333 9.16699 94.5 27.5 135.5s43.166 76.333 74.499 106s68.333 52.834 111 69.5c42.667 16.667 88 25 136 25c70.667 0 136 -26 196 -78
c31.333 26.667 64.166 46.334 98.499 59c34.333 12.667 67.166 19 98.499 19c44 0 85.833 -7.66699 125.5 -23s75 -37.5 106 -66.5s56 -64.333 75 -106s30.167 -88.5 33.5 -140.5l33 4l270 -4v-275h-746z" />
    <glyph glyph-name="maichattawathai" unicode="&#xe4b;" 
d="M-156 3060v-181h-352v177h-184v315h184v180h352v-176h185v-315h-185z" />
    <glyph glyph-name="thanthakhatthai" unicode="&#xe4c;" 
d="M-414 2982c-9.33301 0 -17.332 -1.5 -23.999 -4.5s-11.334 -6.83301 -14.001 -11.5s-3 -10.334 -1 -17c2 -6.66699 7 -13.334 15 -20l86 -78l-230 -230c-36.667 32.667 -67.5 64.5 -92.5 95.5s-45.167 61.5 -60.5 91.5s-26.333 59.667 -33 89s-10 59 -10 89
c0 50 8.33301 95 25 135s40 74 70 102s65.833 49.5 107.5 64.5s87.5 22.5 137.5 22.5h401v-328h-377z" />
    <glyph glyph-name="nikhahitthai" unicode="&#xe4d;" 
d="M20 2445c0 -50 -9.5 -97.167 -28.5 -141.5s-45 -83 -78 -116s-71.667 -59 -116 -78s-91.5 -28.5 -141.5 -28.5s-97.167 9.5 -141.5 28.5s-83 45 -116 78s-59.167 71.667 -78.5 116s-29 91.5 -29 141.5s9.66699 97.167 29 141.5s45.5 83 78.5 116s71.667 59.167 116 78.5
s91.5 29 141.5 29s97.167 -9.66699 141.5 -29s83 -45.5 116 -78.5s59 -71.667 78 -116s28.5 -91.5 28.5 -141.5zM-238 2441c0 15.333 -2.66797 29.833 -8.00098 43.5s-12.666 25.5 -21.999 35.5s-20.5 17.833 -33.5 23.5s-27.167 8.5 -42.5 8.5s-29.833 -2.83301 -43.5 -8.5
s-25.5 -13.5 -35.5 -23.5s-17.833 -21.833 -23.5 -35.5s-8.5 -28.167 -8.5 -43.5s2.83301 -29.5 8.5 -42.5s13.5 -24.167 23.5 -33.5s21.833 -16.666 35.5 -22c13.667 -5.33301 28.167 -8 43.5 -8c30.667 0 56 10 76 30s30 45.333 30 76z" />
    <glyph glyph-name="yamakkanthai" unicode="&#xe4e;" 
d="M-258 2736c-16.667 15.333 -30.667 27.666 -42 37c-11.333 9.33301 -21.166 16.5 -29.499 21.5s-15.833 8.16699 -22.5 9.5s-13.667 2 -21 2c-30.667 0 -55.334 -9.66699 -74.001 -29s-28 -42.666 -28 -70c0 -12 2.83301 -24.167 8.5 -36.5s15.334 -23.333 29.001 -33
s31.667 -17.5 54 -23.5s50.5 -9 84.5 -9v-242c-34 0 -62.167 -2.83301 -84.5 -8.5s-40.333 -13.167 -54 -22.5s-23.334 -20.166 -29.001 -32.5c-5.66699 -12.333 -8.5 -25.166 -8.5 -38.5c0 -12 2.83301 -24 8.5 -36s15.334 -22.5 29.001 -31.5s31.667 -16.333 54 -22
s50.5 -8.5 84.5 -8.5v-246c-65.333 0 -123.833 8.83301 -175.5 26.5s-95.5 42 -131.5 73s-63.5 67.5 -82.5 109.5s-28.5 87 -28.5 135c0 43.333 7 83.333 21 120s34.333 70.334 61 101c-26.667 31.333 -47 65.833 -61 103.5s-21 78.167 -21 121.5
c0 48 8.83301 92.833 26.5 134.5s42 77.667 73 108s67.5 54.166 109.5 71.5c42 17.333 87 26 135 26c24.667 0 48.5 -2.16699 71.5 -6.5s46.167 -12 69.5 -23s47.166 -25.667 71.499 -44s50.5 -41.5 78.5 -69.5z" />
    <glyph glyph-name="fongmanthai" unicode="&#xe4f;" horiz-adv-x="2302" 
d="M2146 971c0 -90.667 -12 -178.334 -36 -263.001s-57.833 -164.167 -101.5 -238.5s-96.167 -142 -157.5 -203s-129 -113.5 -203 -157.5s-153.333 -78 -238 -102s-172.334 -36 -263.001 -36s-178.334 12 -263.001 36s-164.167 58 -238.5 102s-142 96.5 -203 157.5
s-113.5 128.667 -157.5 203s-78 153.833 -102 238.5s-36 172.334 -36 263.001s12 178.334 36 263.001s58 164 102 238s96.5 141.667 157.5 203s128.667 113.833 203 157.5s153.833 77.5 238.5 101.5s172.334 36 263.001 36s178.334 -12 263.001 -36s164 -57.833 238 -101.5
s141.667 -96.167 203 -157.5s113.833 -129 157.5 -203s77.5 -153.333 101.5 -238s36 -172.334 36 -263.001zM1651 971c0 -70 -13.167 -135.5 -39.5 -196.5s-62.333 -114.333 -108 -160s-99.167 -81.667 -160.5 -108s-126.666 -39.5 -195.999 -39.5
c-70 0 -135.5 13.167 -196.5 39.5s-114.333 62.333 -160 108s-81.667 99 -108 160s-39.5 126.5 -39.5 196.5c0 69.333 13.167 134.666 39.5 195.999s62.333 114.833 108 160.5s99 81.667 160 108s126.5 39.5 196.5 39.5c69.333 0 134.666 -13.167 195.999 -39.5
s114.833 -62.333 160.5 -108s81.667 -99.167 108 -160.5s39.5 -126.666 39.5 -195.999zM1868 954c0 66.667 -8.66699 131.332 -26 193.999s-41.833 121.334 -73.5 176.001s-69.5 104.5 -113.5 149.5s-92.833 83.667 -146.5 116s-111 57.5 -172 75.5s-124.167 27 -189.5 27
s-128.5 -8.66699 -189.5 -26s-118.333 -41.833 -172 -73.5s-102.5 -69.5 -146.5 -113.5s-81.833 -92.833 -113.5 -146.5s-56.167 -111 -73.5 -172s-26 -124.167 -26 -189.5s8.66699 -128.5 26 -189.5s41.833 -118.333 73.5 -172s69.5 -102.5 113.5 -146.5
s92.833 -81.833 146.5 -113.5s111 -56.167 172 -73.5s124.167 -26 189.5 -26s128.5 8.66699 189.5 26s118 41.833 171 73.5s101.5 69.5 145.5 113.5s81.5 92.833 112.5 146.5s55.167 111 72.5 172s26 124.167 26 189.5zM1380 970.998c0 32 -6.16699 62 -18.5 90
s-29.166 52.667 -50.499 74s-46 38.166 -74 50.499s-58 18.5 -90 18.5s-62.167 -6.16699 -90.5 -18.5s-53.166 -29.166 -74.499 -50.499s-38.166 -46 -50.499 -74s-18.5 -58 -18.5 -90s6.16699 -62.167 18.5 -90.5s29.166 -53.166 50.499 -74.499
s46.166 -38.166 74.499 -50.499s58.5 -18.5 90.5 -18.5s62 6.16699 90 18.5s52.667 29.166 74 50.499s38.166 46.166 50.499 74.499s18.5 58.5 18.5 90.5z" />
    <glyph glyph-name="zerothai" unicode="&#xe50;" horiz-adv-x="1892" 
d="M1831 827c0 -79.333 -10.667 -155.666 -32 -228.999s-51.333 -141.833 -90 -205.5s-84.834 -121.667 -138.501 -174s-113.167 -97.166 -178.5 -134.499s-135.333 -66.166 -210 -86.499s-152 -30.5 -232 -30.5c-80.667 0 -158.334 10.167 -233.001 30.5
s-144.667 49.166 -210 86.499s-124.833 82.166 -178.5 134.499s-99.667 110.333 -138 174s-68 132.167 -89 205.5s-31.5 149.666 -31.5 228.999s10.5 155.666 31.5 228.999s50.667 141.833 89 205.5s84.333 121.834 138 174.501s113.167 97.667 178.5 135
s135.333 66.166 210 86.499s152.334 30.5 233.001 30.5c80 0 157.333 -10.167 232 -30.5s144.667 -49.166 210 -86.499s124.833 -82.333 178.5 -135s99.834 -110.834 138.501 -174.501s68.667 -132.167 90 -205.5s32 -149.666 32 -228.999zM1470 827
c0 70 -13.8359 135.833 -41.5029 197.5s-65.167 115.5 -112.5 161.5s-102.5 82.333 -165.5 109s-129.833 40 -200.5 40c-71.333 0 -138.666 -13.333 -201.999 -40s-118.5 -63 -165.5 -109s-84.167 -99.833 -111.5 -161.5s-41 -127.5 -41 -197.5
c0 -46.667 6.16699 -91.5 18.5 -134.5s29.833 -83.333 52.5 -121s49.834 -72 81.501 -103s66.834 -57.5 105.501 -79.5s80 -39.167 124 -51.5s90 -18.5 138 -18.5c70.667 0 137.5 13.5 200.5 40.5s118.167 63.5 165.5 109.5s84.833 99.833 112.5 161.5
s41.5 127.167 41.5 196.5z" />
    <glyph glyph-name="onethai" unicode="&#xe51;" horiz-adv-x="1892" 
d="M1806 823c0 -79.333 -10.501 -155.667 -31.501 -229s-50.667 -141.833 -89 -205.5s-84.333 -121.667 -138 -174s-112.834 -97.166 -177.501 -134.499s-134.167 -66.166 -208.5 -86.499s-151.5 -30.5 -231.5 -30.5c-61.333 0 -121.333 6.16699 -180 18.5
s-116.834 32 -174.501 59s-115.834 61.667 -174.501 104s-118.667 93.833 -180 154.5l254 250c44.667 -44 86.834 -81 126.501 -111s77.834 -54 114.501 -72s72.5 -31 107.5 -39s70.5 -12 106.5 -12c46.667 0 92 6.16699 136 18.5s85.333 29.5 124 51.5s74 48.5 106 79.5
s59.333 65.333 82 103s40.334 78.167 53.001 121.5s19 88 19 134c0 46.667 -6.33301 91.667 -19 135s-30.334 84 -53.001 122s-50 72.667 -82 104s-67.333 58.166 -106 80.499s-80 39.666 -124 51.999s-89.333 18.5 -136 18.5c-54 0 -105.333 -7 -154 -21
s-93.167 -33.333 -133.5 -58s-76.166 -54 -107.499 -88s-56.666 -71 -75.999 -111c-8.66699 -18.667 -12.167 -32.167 -10.5 -40.5s7.83398 -12.5 18.501 -12.5h315v-353h-327c-63.333 0 -117.333 9.5 -162 28.5s-81.334 44.167 -110.001 75.5s-49.834 67 -63.501 107
s-21.5 81.167 -23.5 123.5s1.16699 84 9.5 125s20.833 77.833 37.5 110.5c34 69.333 77.833 132.666 131.5 189.999s114.5 106.5 182.5 147.5s142 72.833 222 95.5s163.667 34 251 34c80 0 157.167 -10.167 231.5 -30.5s143.833 -49.333 208.5 -87
s123.834 -82.667 177.501 -135s99.667 -110.666 138 -174.999s68 -133.333 89 -207s31.5 -150.5 31.5 -230.5z" />
    <glyph glyph-name="twothai" unicode="&#xe52;" horiz-adv-x="2130" 
d="M2036 905c0 -141.333 -22.9971 -269.004 -68.9971 -383.004s-110.5 -211.167 -193.5 -291.5s-182.167 -142.166 -297.5 -185.499s-242.666 -65 -381.999 -65c-144.667 0 -275 23.667 -391 71s-214.833 112.333 -296.5 195s-144.5 179.334 -188.5 290.001
s-66 229.667 -66 357v1122h356v-1118c0 -82 12.667 -157.833 38 -227.5s62.666 -129.667 111.999 -180s110.5 -89.833 183.5 -118.5s157.167 -43 252.5 -43c90 0 171.167 13 243.5 39s133.666 63.667 183.999 113s89.166 109.666 116.499 180.999s41 152.666 41 243.999
c0 16.667 0.166992 39.167 0.5 67.5s-0.333984 58.833 -2.00098 91.5s-4.66699 65.834 -9 99.501s-11 64.167 -20 91.5s-21 49.666 -36 66.999s-33.833 26 -56.5 26c-30.667 0 -55.334 -9.66699 -74.001 -29s-28 -42.666 -28 -69.999v-188h-340v188c0 12 -2.5 24 -7.5 36
s-12.5 22.667 -22.5 32s-22.5 16.833 -37.5 22.5s-32.167 8.5 -51.5 8.5c-34.667 0 -62.334 -11.5 -83.001 -34.5s-31 -53.833 -31 -92.5c0 -7.33301 0.833008 -17.166 2.5 -29.499s7.66699 -27 18 -44s26.5 -36.167 48.5 -57.5s53.333 -44.666 94 -69.999l-237 -234
c-53.333 36.667 -97.666 73.334 -132.999 110.001s-63.5 73 -84.5 109s-35.833 72 -44.5 108s-13 72 -13 108c0 56 10.167 112.333 30.5 169s50 107.667 89 153s87.333 82.166 145 110.499s123.834 42.5 198.501 42.5c54 0 104.333 -8.33301 151 -25s90.667 -42.667 132 -78
c43.333 35.333 89.333 61.333 138 78s101 25 157 25c71.333 0 132.5 -13 183.5 -39s93.667 -60.667 128 -104s61.5 -92.666 81.5 -147.999s35.167 -112.333 45.5 -171s17 -116.5 20 -173.5s4.5 -108.833 4.5 -155.5z" />
    <glyph glyph-name="threethai" unicode="&#xe53;" horiz-adv-x="2167" 
d="M2089 860c0 -101.333 -14.3379 -198.001 -43.0049 -290.001s-71.834 -177.667 -129.501 -257s-129.667 -151 -216 -215s-187.5 -118.667 -303.5 -164l-168 316c90 34 167 72.5 231 115.5s116.5 90.333 157.5 142s71.167 107 90.5 166s29 121.167 29 186.5
c0 44.667 -5.5 88.167 -16.5 130.5s-26.5 82.166 -46.5 119.499s-44.5 71.833 -73.5 103.5s-61.5 59.834 -97.5 84.501l-397 -397l-414 414c-44 -28 -82.167 -60.5 -114.5 -97.5s-59.166 -77.167 -80.499 -120.5s-37.166 -88.833 -47.499 -136.5s-15.5 -96.167 -15.5 -145.5
c0 -69.333 9.66699 -134.5 29 -195.5s46.5 -114 81.5 -159s77.167 -80.5 126.5 -106.5s104.333 -39 165 -39h23c8.66699 0 18.667 1.33301 30 4s24.333 7.16699 39 13.5s31.667 15.5 51 27.5l139 -307c-32 -19.333 -61.167 -34.666 -87.5 -45.999s-51 -19.833 -74 -25.5
s-44.833 -9.16699 -65.5 -10.5s-40.667 -1.33301 -60 0c-83.333 2 -159.666 15 -228.999 39s-131.666 56 -186.999 96s-103.833 86.833 -145.5 140.5s-76.334 111.5 -104.001 173.5s-48.5 127 -62.5 195s-21 136 -21 204c0 90 12.333 180.167 37 270.5
s64.334 175.666 119.001 255.999s125.334 153.333 212.001 219s192 118.834 316 159.501l340 -335l332 327c103.333 -38 195.333 -86 276 -144s148.834 -123.833 204.501 -197.5s98 -154 127 -241s43.5 -178.167 43.5 -273.5z" />
    <glyph glyph-name="fourthai" unicode="&#xe54;" horiz-adv-x="2007" 
d="M1860 1458c-25.333 -32.667 -58.833 -60.666 -100.5 -83.999s-90.167 -35 -145.5 -35h-651c-72.667 0 -140.834 -13.333 -204.501 -40s-119.334 -63 -167.001 -109s-85.167 -99.833 -112.5 -161.5s-41 -127.5 -41 -197.5c0 -69.333 13.667 -135 41 -197
s64.833 -116.333 112.5 -163s103.334 -83.667 167.001 -111s131.834 -41 204.501 -41c43.333 0 85.333 5 126 15s81.667 24.333 123 43l-168 168c-31.333 32 -60 66.667 -86 104s-43.833 76.5 -53.5 117.5s-8.66699 83.167 3 126.5s39.5 87 83.5 131l156 160l258 -254
l-123 -119l651 -647l-250 -246l-208 201c-74.667 -47.333 -155.5 -84.5 -242.5 -111.5s-176.833 -40.5 -269.5 -40.5c-81.333 0 -159.5 10.167 -234.5 30.5s-145.167 49.333 -210.5 87s-124.833 82.667 -178.5 135s-99.5 110.5 -137.5 174.5s-67.5 132.833 -88.5 206.5
s-31.5 150.5 -31.5 230.5c0 79.333 10.5 155.666 31.5 228.999s50.5 141.833 88.5 205.5s83.833 121.834 137.5 174.501s113.167 97.667 178.5 135s135.5 66.166 210.5 86.499s153.167 30.5 234.5 30.5h630l254 331l295 -200z" />
    <glyph glyph-name="fivethai" unicode="&#xe55;" horiz-adv-x="2007" 
d="M1860 1458c-25.333 -32.667 -58.834 -60.667 -100.501 -84s-90.167 -35 -145.5 -35h-651c-72.667 0 -140.834 -13.333 -204.501 -40s-119.334 -63 -167.001 -109s-85.167 -99.833 -112.5 -161.5s-41 -127.5 -41 -197.5c0 -69.333 13.667 -135 41 -197
s64.833 -116.333 112.5 -163s103.334 -83.667 167.001 -111s131.834 -41 204.501 -41c43.333 0 85.333 5 126 15s81.667 24.333 123 43l-168 168c-31.333 32 -60 66.667 -86 104s-43.833 76.5 -53.5 117.5s-8.66699 83.167 3 126.5s39.5 87 83.5 131l156 160l258 -254
l-123 -119l651 -647l-250 -246l-208 201c-74.667 -47.333 -155.5 -84.5 -242.5 -111.5s-176.833 -40.5 -269.5 -40.5c-81.333 0 -159.5 10.167 -234.5 30.5s-145.167 49.333 -210.5 87s-124.833 82.667 -178.5 135s-99.5 110.5 -137.5 174.5s-67.5 132.833 -88.5 206.5
s-31.5 150.5 -31.5 230.5c0 96.667 15.333 188.5 46 275.5s73 166.167 127 237.5s118.333 133.333 193 186s156 93 244 121c-2 6 -3.16699 13 -3.5 21s-0.5 17.333 -0.5 28c0 54 10.333 105 31 153s48.667 89.667 84 125s77 63.333 125 84s99 31 153 31s105 -10.333 153 -31
s89.833 -48.667 125.5 -84s63.834 -77 84.501 -125s31 -99 31 -153v-8h118l254 331l295 -200zM1217 1704c0 19.333 -3.5 37.333 -10.5 54s-16.5 31 -28.5 43s-26.333 21.333 -43 28s-34.667 10 -54 10s-37.166 -3.33301 -53.499 -10s-30.5 -16 -42.5 -28
s-21.5 -26.333 -28.5 -43s-10.5 -34.667 -10.5 -54s3.5 -37.333 10.5 -54s16.5 -31 28.5 -43s26.167 -21.333 42.5 -28s34.166 -10 53.499 -10s37.333 3.33301 54 10s31 16 43 28s21.5 26.333 28.5 43s10.5 34.667 10.5 54z" />
    <glyph glyph-name="sixthai" unicode="&#xe56;" horiz-adv-x="1864" 
d="M1790 848c0 -79.333 -10.4951 -155.835 -31.4951 -229.502s-50.667 -142.834 -89 -207.501s-84.333 -123.834 -138 -177.501s-113 -99.667 -178 -138s-134.667 -68 -209 -89s-151.5 -31.5 -231.5 -31.5c-78 0 -151.833 9.33301 -221.5 28s-134.167 44.334 -193.5 77.001
s-113.333 71 -162 115s-91 91 -127 141c-39.333 53.333 -66 102.5 -80 147.5s-18.833 87.333 -14.5 127s16.666 77.334 36.999 113.001s45.666 71 75.999 106s64.166 70 101.499 105l113 109.5l246 -245c-8 -8 -19.667 -18.333 -35 -31l-49 -41.5
c-17.333 -15 -34.5 -30.667 -51.5 -47s-31.333 -32.666 -43 -48.999s-19.5 -31.833 -23.5 -46.5s-2 -27.667 6 -39c21.333 -32 47 -61.167 77 -87.5s63.167 -49.166 99.5 -68.499s75.166 -34.333 116.499 -45s84 -16 128 -16c70.667 0 137.5 13.833 200.5 41.5
s118.333 65.167 166 112.5s85.334 102.5 113.001 165.5s41.5 129.833 41.5 200.5c0 46 -6 90.5 -18 133.5s-29.167 83.5 -51.5 121.5s-49.333 72.833 -81 104.5s-67.5 59.167 -107.5 82.5l-365 -364l-725 721l254 245l471 -471l279 279
c108.667 -30 206.167 -72.833 292.5 -128.5s159.666 -120.667 219.999 -195s106.666 -156.5 138.999 -246.5s48.5 -184 48.5 -282z" />
    <glyph glyph-name="seventhai" unicode="&#xe57;" horiz-adv-x="2191" 
d="M2093 860c0 -101.333 -14.5 -198.003 -43.5 -290.003s-72.5 -177.667 -130.5 -257s-130.5 -151 -217.5 -215s-188.5 -118.667 -304.5 -164l-168 316c90 34 167 72.5 231 115.5s116.5 90.333 157.5 142s71.167 107 90.5 166s29 121.167 29 186.5
c0 88.667 -20.333 171 -61 247s-98.334 139.667 -173.001 191l-397 -397l-414 414c-44 -28 -82.333 -60.5 -115 -97.5s-60 -77.167 -82 -120.5s-38.333 -88.833 -49 -136.5s-16 -96.167 -16 -145.5c0.666992 -69.333 10.834 -133.833 30.501 -193.5s47 -111.667 82 -156
s77.333 -79.666 127 -105.999s105.167 -41.166 166.5 -44.499c6.66699 0 14.334 0.333008 23.001 1s18.667 2.5 30 5.5s24.333 7.83301 39 14.5s31.667 16.334 51 29.001l139 -312c-32 -19.333 -61.167 -34.5 -87.5 -45.5s-51 -19.167 -74 -24.5
s-44.833 -8.66602 -65.5 -9.99902s-40.667 -2 -60 -2c-84 2 -160.833 15 -230.5 39s-132.334 56.167 -188.001 96.5s-104.5 87.5 -146.5 141.5s-76.833 112 -104.5 174s-48.5 126.833 -62.5 194.5s-21 135.167 -21 202.5c0 60 5.33301 120.333 16 181
s27.5 120.167 50.5 178.5s52.5 114.666 88.5 168.999s79.5 105.166 130.5 152.499s109.833 90.5 176.5 129.5s142 72.167 226 99.5l340 -340l332 331c32 -11.333 61.5 -23 88.5 -35s52.5 -24.833 76.5 -38.5s47 -28.667 69 -45s43.667 -34.166 65 -53.499v463h356v-1151z
" />
    <glyph glyph-name="eightthai" unicode="&#xe58;" horiz-adv-x="2204" 
d="M2019 1466c-25.333 -32.667 -58.665 -60.502 -99.998 -83.502s-89.666 -34.5 -144.999 -34.5h-791c-76.667 0 -148.334 -14 -215.001 -42s-124.834 -66 -174.501 -114s-88.667 -104.333 -117 -169s-42.5 -134 -42.5 -208c0 -48 6 -94.167 18 -138.5s29 -86 51 -125
s49 -74.667 81 -107s68 -60.5 108 -84.5l414 406l434 -430c32 8 61.167 20.667 87.5 38s49.166 38 68.499 62s34.333 50.833 45 80.5s16 60.834 16 93.501c0 36.667 -7.66699 72.167 -23 106.5s-39.5 64.5 -72.5 90.5s-75.333 46.833 -127 62.5s-113.834 23.5 -186.501 23.5
v352c118 0 224.167 -16.333 318.5 -49s174.666 -77.5 240.999 -134.5s117.333 -124.167 153 -201.5s53.5 -160.666 53.5 -249.999s-17.167 -172.5 -51.5 -249.5s-82.166 -144.167 -143.499 -201.5s-134.666 -102.333 -219.999 -135s-179.333 -49 -282 -49l-311 304
l-340 -332c-106.667 36 -202.5 82.833 -287.5 140.5s-157.167 123.834 -216.5 198.501s-104.833 156.667 -136.5 246s-47.5 183.666 -47.5 282.999c0 82 10.833 160.833 32.5 236.5s52 146.167 91 211.5s86.167 125 141.5 179s116.5 100 183.5 138s139 67.5 216 88.5
s157.167 31.5 240.5 31.5h737c9.33301 0 16.333 0.166992 21 0.5s8.66699 1.33301 12 3s6.33301 4.5 9 8.5s6.66699 9.66699 12 17l233 303l295 -197z" />
    <glyph glyph-name="ninethai" unicode="&#xe59;" horiz-adv-x="2261" 
d="M2331 1847l-33.498 -51.9971l-26.5 -42.5l-23.5 -37l-23.5 -36.5l-73.5 -108.5c-26.333 -38.333 -55.333 -74.166 -87 -107.499s-66.5 -61.5 -104.5 -84.5s-79.333 -36.167 -124 -39.5c-30 -2 -56.167 -2.5 -78.5 -1.5s-42.333 1.66699 -60 2
s-33.834 -0.333984 -48.501 -2.00098s-29.667 -6.16699 -45 -13.5s-31.5 -18.5 -48.5 -33.5s-36.833 -35.5 -59.5 -61.5l721 -1114l-299 -181l-885 1369c-6 10 -19.167 19.167 -39.5 27.5s-43.833 12.5 -70.5 12.5c-66 0 -128 -12.167 -186 -36.5s-108.833 -59 -152.5 -104
s-78.167 -99 -103.5 -162s-38 -132.833 -38 -209.5c0 -69.333 13.5 -134.833 40.5 -196.5s64 -115.5 111 -161.5s102.167 -82.333 165.5 -109s131.333 -40 204 -40c17.333 0 35.166 0.833008 53.499 2.5s39.333 5.5 63 11.5s50.834 14.667 81.501 26s67 26.666 109 45.999
l160 -316c-56.667 -23.333 -106.834 -43 -150.501 -59s-83.667 -28.667 -120 -38s-70.166 -16 -101.499 -20s-63 -6 -95 -6c-80.667 0 -158.5 10.167 -233.5 30.5s-145 49.166 -210 86.499s-124.5 82.166 -178.5 134.499s-100.167 110.333 -138.5 174s-68 132.167 -89 205.5
s-31.5 149.666 -31.5 228.999c0 82 9.66699 160.333 29 235s46.666 144 81.999 208s78.333 122 129 174s107 96.333 169 133s129.333 65 202 85s149 30 229 30c72 0 140.833 -14.833 206.5 -44.5s122.167 -72.167 169.5 -127.5c44 44 85.167 77 123.5 99
s76.833 37.5 115.5 46.5s79.667 13.5 123 13.5h146c10 0 22.333 7.33301 37 22s30 33.334 46 56.001s32 47.5 48 74.5l45 77l36.5 65c10.333 19 17.5 31.5 21.5 37.5z" />
    <glyph glyph-name="angkhankhuthai" unicode="&#xe5a;" horiz-adv-x="2449" 
d="M1192 0l0.00292969 1147c-45.333 -39.333 -96.5 -69 -153.5 -89s-120.5 -30 -190.5 -30c-68.667 0 -134.334 8.33301 -197.001 25s-121.334 41.167 -176.001 73.5s-104.334 72 -149.001 119s-83 100.833 -115 161.5s-56.667 127.834 -74 201.501s-26 153.167 -26 238.5
h393c0 -78.667 9.33301 -146.334 28 -203.001s43.667 -103.334 75 -140.001s67.833 -63.667 109.5 -81s85.5 -26 131.5 -26s89.833 8.66699 131.5 26s78.167 44.333 109.5 81s56.333 83.334 75 140.001s28 124.334 28 203.001h393v-1847h-393zM2290 1847v-1847h-394v1847
h394z" />
    <glyph glyph-name="khomutthai" unicode="&#xe5b;" horiz-adv-x="4121" 
d="M3191 766l-58.498 -87.002l-52.5 -81l-45.5 -71l-44.5 -68.5l-41.5 -59c-13 -17.667 -25.167 -32.167 -36.5 -43.5c-11.333 32.667 -28 71.334 -50 116.001s-45.667 90.334 -71 137.001l-75 135.5l-62 111.5l-50 -91l-63 -109.5l-71 -117l-73 -113.5
c-24 -36 -47.333 -68.833 -70 -98.5s-43.334 -53.834 -62.001 -72.501c-16 36 -36.667 78.833 -62 128.5l-81 153.5l-87 153c-29.333 49.333 -56.333 91.333 -81 126c-16.667 -62 -40.167 -122.5 -70.5 -181.5s-66.5 -114.667 -108.5 -167s-89.333 -100.166 -142 -143.499
s-109.5 -80.833 -170.5 -112.5s-125.667 -56.167 -194 -73.5s-138.833 -26 -211.5 -26c-143.333 0 -271.833 20 -385.5 60s-210 96.5 -289 169.5s-139.333 160.5 -181 262.5s-62.5 215 -62.5 339c0 84 9.33301 161.333 28 232s44.334 134.5 77.001 191.5
s71.334 107.167 116.001 150.5s92.834 79.5 144.501 108.5s105.667 50.833 162 65.5s112.833 22 169.5 22c52.667 0 104.334 -5.83301 155.001 -17.5s98.334 -29.667 143.001 -54s85 -54.833 121 -91.5s65.833 -80 89.5 -130s39.667 -106.833 48 -170.5
s7.16602 -134.5 -3.50098 -212.5l-345 -28c11.333 64.667 13.166 119.5 5.49902 164.5s-22 81.667 -43 110s-47.167 49 -78.5 62s-65 19.5 -101 19.5c-36.667 0 -74.334 -7.66699 -113.001 -23s-73.834 -39.666 -105.501 -72.999s-57.667 -76.833 -78 -130.5
s-30.5 -118.834 -30.5 -195.501c0 -86 14.333 -159.667 43 -221s68 -111.833 118 -151.5s108.5 -68.667 175.5 -87s139.167 -27.5 216.5 -27.5c66.667 0 130.167 12.833 190.5 38.5s115.166 60.667 164.499 105s91.833 95.666 127.5 153.999s62 120.333 79 186
s23.667 132.834 20 201.501s-20.167 135 -49.5 199l246 168c23.333 -20 48.666 -44.5 75.999 -73.5s55.5 -61 84.5 -96l87.5 -110l85.5 -114.5l77.5 -110.5l64 -97.5l36.5 82.5l38 90l33.5 83.5c10 26 17.667 47.333 23 64l234 143c14 -14 32.833 -35.833 56.5 -65.5
l74.5 -98l77 -109c25.333 -37 47.333 -70.5 66 -100.5l37 74l24 49h955v-352h-770z" />
    <glyph glyph-name="ZWSP" unicode="&#x200b;" 
 />
    <glyph glyph-name="endash" unicode="&#x2013;" horiz-adv-x="1556" 
d="M4 537v360h1548v-360h-1548z" />
    <glyph glyph-name="emdash" unicode="&#x2014;" horiz-adv-x="3113" 
d="M4 537v360h3105v-360h-3105z" />
    <glyph glyph-name="quoteleft" unicode="&#x2018;" horiz-adv-x="770" 
d="M643 2318c-32 -19.333 -59.499 -36.998 -82.499 -52.998s-43.333 -31.667 -61 -47s-33.334 -31 -47.001 -47s-26.5 -33.667 -38.5 -53c57.333 -14.667 102.333 -40.334 135 -77.001s49 -80.667 49 -132c0 -30 -5.83301 -58.833 -17.5 -86.5
s-27.834 -52.167 -48.501 -73.5s-45.167 -38.333 -73.5 -51s-59.5 -19 -93.5 -19c-44 0 -82.333 8.83301 -115 26.5s-59.667 40.167 -81 67.5s-37.166 57.666 -47.499 90.999s-15.5 66 -15.5 98c0 40.667 7.5 82.667 22.5 126s38.167 87.166 69.5 131.5
c31.333 44.333 71 88.833 119 133.5s104.667 89 170 133z" />
    <glyph glyph-name="quoteright" unicode="&#x2019;" horiz-adv-x="770" 
d="M606 2179c0 -82 -30.999 -167.834 -92.999 -257.501s-159.333 -178.5 -292 -266.5l-151 168l76.5 53c22.333 16 42.666 31.667 60.999 47s34.833 31 49.5 47s28.667 33.667 42 53c-58 14.667 -103.833 40.334 -137.5 77.001s-50.5 80.667 -50.5 132
c0 30 6 58.833 18 86.5s28.5 52.167 49.5 73.5s45.667 38.333 74 51s58.833 19 91.5 19c44.667 0 83.5 -8.83301 116.5 -26.5s60.333 -40.167 82 -67.5s37.667 -57.666 48 -91c10.333 -33.333 15.5 -66 15.5 -98z" />
    <glyph glyph-name="quotedblleft" unicode="&#x201c;" horiz-adv-x="1262" 
d="M1196 2318c-32 -19.333 -59.499 -36.998 -82.499 -52.998s-43.333 -31.667 -61 -47s-33.334 -31 -47.001 -47s-26.5 -33.667 -38.5 -53c57.333 -14.667 102.333 -40.334 135 -77.001s49 -80.667 49 -132c0 -30 -5.83301 -58.833 -17.5 -86.5
s-27.834 -52.167 -48.501 -73.5s-45.167 -38.333 -73.5 -51s-59.5 -19 -93.5 -19c-44 0 -82.333 8.83301 -115 26.5s-59.667 40.167 -81 67.5s-37.166 57.666 -47.499 90.999s-15.5 66 -15.5 98c0 40.667 7.5 82.667 22.5 126s38.167 87.166 69.5 131.5
c31.333 44.333 71 88.833 119 133.5s104.667 89 170 133zM643.001 2318c-32 -19.333 -59.499 -36.998 -82.499 -52.998s-43.333 -31.667 -61 -47s-33.334 -31 -47.001 -47s-26.5 -33.667 -38.5 -53c57.333 -14.667 102.333 -40.334 135 -77.001s49 -80.667 49 -132
c0 -30 -5.83301 -58.833 -17.5 -86.5s-27.834 -52.167 -48.501 -73.5s-45.167 -38.333 -73.5 -51s-59.5 -19 -93.5 -19c-44 0 -82.333 8.83301 -115 26.5s-59.667 40.167 -81 67.5s-37.166 57.666 -47.499 90.999s-15.5 66 -15.5 98c0 40.667 7.5 82.667 22.5 126
s38.167 87.166 69.5 131.5c31.333 44.333 71 88.833 119 133.5s104.667 89 170 133z" />
    <glyph glyph-name="quotedblright" unicode="&#x201d;" horiz-adv-x="1290" 
d="M1151 2179c0 -82 -30.8291 -167.834 -92.4961 -257.501s-157.834 -178.5 -288.501 -266.5l-156 168c30 19.333 56.333 37 79 53s43 31.667 61 47s34.167 31 48.5 47s28.166 33.667 41.499 53c-58 14.667 -103.333 40.334 -136 77.001s-49 80.667 -49 132
c0 30 5.83301 58.833 17.5 86.5s28 52.167 49 73.5s45.667 38.333 74 51s59.5 19 93.5 19c44 0 82.167 -8.83301 114.5 -26.5s59.166 -40.167 80.499 -67.5s37.166 -57.666 47.499 -91c10.333 -33.333 15.5 -66 15.5 -98zM598.004 2179
c0 -82 -30.8291 -167.835 -92.4961 -257.502s-157.834 -178.5 -288.501 -266.5l-156 168c30 19.333 56.333 37 79 53s43 31.667 61 47s34.167 31 48.5 47s28.166 33.667 41.499 53c-58 14.667 -103.333 40.334 -136 77.001s-49 80.667 -49 132
c0 30 5.83301 58.833 17.5 86.5s28 52.167 49 73.5s45.667 38.333 74 51s59.5 19 93.5 19c44 0 82.167 -8.83301 114.5 -26.5s59.166 -40.167 80.499 -67.5s37.166 -57.666 47.499 -90.999s15.5 -66 15.5 -98z" />
    <glyph glyph-name="bullet" unicode="&#x2022;" horiz-adv-x="1475" 
d="M1425 819c0 -63.333 -8.16699 -124.333 -24.5 -183s-39.333 -113.5 -69 -164.5s-65.5 -97.5 -107.5 -139.5s-88.5 -77.833 -139.5 -107.5s-105.833 -52.667 -164.5 -69s-119.667 -24.5 -183 -24.5s-124.333 8.16699 -183 24.5s-113.5 39.333 -164.5 69
s-97.5 65.5 -139.5 107.5s-77.833 88.5 -107.5 139.5s-52.667 105.833 -69 164.5s-24.5 119.667 -24.5 183s8.16699 124.333 24.5 183s39.333 113.5 69 164.5s65.5 97.5 107.5 139.5s88.5 77.833 139.5 107.5s105.833 52.667 164.5 69s119.667 24.5 183 24.5
s124.333 -8.16699 183 -24.5s113.5 -39.333 164.5 -69s97.5 -65.5 139.5 -107.5s77.833 -88.5 107.5 -139.5s52.667 -105.833 69 -164.5s24.5 -119.667 24.5 -183z" />
    <glyph glyph-name="Euro" unicode="&#x20ac;" horiz-adv-x="2277" 
d="M2154 242c-72.667 -53.333 -140.999 -97.666 -204.999 -132.999s-126.167 -63.5 -186.5 -84.5s-120 -35.833 -179 -44.5s-119.833 -13 -182.5 -13c-112.667 0 -221.334 16.333 -326.001 49s-202 78 -292 136s-170.667 127.167 -242 207.5s-130 168.166 -176 263.499h-299
v368h200c0 14.667 -0.666992 29.167 -2 43.5s-2 28.5 -2 42.5c0 18.667 0.833008 36.5 2.5 53.5l5.5 53.5h-204v368h307c46.667 94 105.5 180.5 176.5 259.5s150.833 146.833 239.5 203.5s185 100.834 289 132.5c104 31.667 213 47.5 327 47.5
c57.333 0 115.166 -4.33301 173.499 -13s118 -23.5 179 -44.5s124 -49.5 189 -85.5s132.833 -81 203.5 -135l-213 -315c-62 46 -118.5 82.667 -169.5 110s-98.167 48.333 -141.5 63s-83.666 24.167 -120.999 28.5s-73.333 6.5 -108 6.5c-54 0 -106.667 -6 -158 -18
s-100.333 -29 -147 -51s-90.5 -49 -131.5 -81s-78.5 -68 -112.5 -108h553v-368h-725c-8 -37.333 -12 -77 -12 -119c0 -14.667 0.833008 -27 2.5 -37s3.5 -22.333 5.5 -37h729v-368h-565c36 -41.333 75.167 -78.833 117.5 -112.5s87.333 -62.5 135 -86.5
s97.5 -42.667 149.5 -56s105 -20 159 -20c36 0 72.667 2.5 110 7.5s77.5 15 120.5 30s89.833 36.5 140.5 64.5s107 65 169 111z" />
    <glyph glyph-name="trademark" unicode="&#x2122;" horiz-adv-x="2441" 
d="M1966 1642l-311 -765h-123l-315 770l-156 -770h-230l271 1286h139l348 -856l353 856h139l266 -1286h-229zM627 893h-226v1057h-295v217h816v-217h-295v-1057z" />
    <glyph glyph-name="uni25CC" unicode="&#x25cc;" horiz-adv-x="2744" 
d="M1061 733l-197.002 -61l70 192c18.667 -26.667 38.334 -50.5 59.001 -71.5s43.334 -40.833 68.001 -59.5zM1278 1692l94 184l90 -180c-14 2 -28.167 3.16699 -42.5 3.5s-28.833 0.5 -43.5 0.5c-16.667 0 -33 -0.833008 -49 -2.5s-32.333 -3.5 -49 -5.5zM1454 639
l-82.002 -172l-86 172c14.667 -2 29.834 -3.83301 45.501 -5.5s30.5 -2.5 44.5 -2.5c14.667 0 28.334 0.833008 41.001 2.5s25 3.5 37 5.5zM1905 1257l172 -90.001l-172 -77c2 12 3.83301 24.333 5.5 37s2.5 26 2.5 40c0 14.667 -0.833008 29.834 -2.5 45.501
s-3.5 30.5 -5.5 44.5zM851.996 1081l-184 95l184 90c-2 -16.667 -3.83301 -33.167 -5.5 -49.5s-2.5 -32.833 -2.5 -49.5c0 -14 0.833008 -28.167 2.5 -42.5s3.5 -28.833 5.5 -43.5zM945.996 1487l-53 188l184 -65c-26.667 -16.667 -50.5 -35.167 -71.5 -55.5
s-40.833 -42.833 -59.5 -67.5zM1802 839.999l48.999 -168.002l-168 53c23.333 16.667 44.833 34.334 64.5 53.001s37.834 39.334 54.501 62.001zM1679 1610l201 64.998l-70 -192c-18 24.667 -37.5 47.334 -58.5 68.001s-45.167 40.334 -72.5 59.001z" />
    <glyph glyph-name="thothannobasethai" unicode="&#xf700;" horiz-adv-x="1749" 
d="M1499 1536c41.333 -58 73.5 -120.833 96.5 -188.5s34.5 -138.5 34.5 -212.5c0 -38 -5.83301 -83.5 -17.5 -136.5s-27 -109.833 -46 -170.5s-40.333 -123.334 -64 -188.001l-72.5 -189l-92.5 -221.5l-104.5 -233.5h-369l-401 1089h418l172 -479l155 402
c8.66699 22.667 15.667 43.834 21 63.501s8 40.834 8 63.501c0 48 -10.167 93.5 -30.5 136.5s-48 80.833 -83 113.5s-76.167 58.5 -123.5 77.5s-98 28.5 -152 28.5c-63.333 0 -118 -11.5 -164 -34.5s-84.667 -53.333 -116 -91s-56 -80.5 -74 -128.5s-31 -97 -39 -147h-398
c13.333 122 43 230.833 89 326.5s104.167 176.667 174.5 243s150.5 117 240.5 152s185.667 52.5 287 52.5c60 0 119 -6.33301 177 -19s115 -32.334 171 -59.001l229 250l299 -250z" />
    <glyph glyph-name="yoyingnobasethai" unicode="&#xf70f;" horiz-adv-x="3068" 
d="M2945 664c0 -64 -8.83105 -125.666 -26.498 -184.999s-42.667 -114.666 -75 -165.999s-71.166 -98 -116.5 -140c-45.333 -42 -95.5 -78 -150.5 -108s-114.333 -53.167 -178 -69.5s-129.834 -24.5 -198.501 -24.5c-70 0 -137 8.16699 -201 24.5s-123.833 39.5 -179.5 69.5
s-106.167 66 -151.5 108s-84.166 88.667 -116.499 140s-57.333 106.666 -75 165.999s-26.5 121 -26.5 185v389c0 65.333 -12.5 125.333 -37.5 180s-60.5 101.667 -106.5 141s-101.167 70 -165.5 92s-135.833 33 -214.5 33c-72.667 0 -142 -14 -208 -42
s-123.667 -66 -173 -114l98 -98v-872h266v-373h-667v1110l-205 209c52 86 110.5 163 175.5 231s135.167 125.5 210.5 172.5s155.166 83 239.499 108s172.166 37.5 263.499 37.5c134 0 257.5 -20.333 370.5 -61s210.667 -97.334 293 -170.001s146.5 -159.167 192.5 -259.5
s69 -209.833 69 -328.5v-385c0 -44 8.83301 -85.667 26.5 -125s42 -73.833 73 -103.5s67.833 -53 110.5 -70s89 -25.5 139 -25.5s96.167 8.16699 138.5 24.5s79 39 110 68s55.333 63.333 73 103s26.5 82.5 26.5 128.5v1183h401z" />
    <glyph glyph-name="saraulowthai" unicode="&#xf718;" 
d="M-528 -1520l0.000976562 328h-168v373h340c27.333 0 53.166 -5.33301 77.499 -16s45.5 -25 63.5 -43s32.333 -39.167 43 -63.5s16 -50.5 16 -78.5v-500h-372z" />
    <glyph glyph-name="sarauulowthai" unicode="&#xf719;" 
d="M-156 -1159c0 -61.333 -11.335 -117.5 -34.002 -168.5s-53.667 -94.667 -93 -131s-85.666 -64.5 -138.999 -84.5s-110.666 -30 -171.999 -30c-56 0 -111.833 7.5 -167.5 22.5s-105.667 38.167 -150 69.5s-80.333 71 -108 119s-41.5 104.667 -41.5 170h-164v373h529v-348
c0 -25.333 8.66699 -44.666 26 -57.999s37.333 -20 60 -20s42.667 6.66699 60 20s26 32.666 26 57.999v348h368v-340z" />
    <glyph glyph-name="phinthulowthai" unicode="&#xf71a;" 
d="M-115 -1032c0 -32.667 -6.16797 -63.498 -18.501 -92.498s-29.166 -54.167 -50.499 -75.5s-46 -38.333 -74 -51s-58 -19 -90 -19c-32.667 0 -63.5 6.16699 -92.5 18.5s-54.167 29.166 -75.5 50.499s-38.333 46.166 -51 74.499s-19 58.5 -19 90.5
c0 32.667 6.16699 63.334 18.5 92.001s29.166 53.834 50.499 75.501s46.166 38.667 74.499 51s58.5 18.5 90.5 18.5c32.667 0 63.334 -6.16699 92.001 -18.5s53.834 -29.333 75.501 -51s38.667 -46.834 51 -75.501s18.5 -59.334 18.5 -92.001v4z" />
    <glyph glyph-name="lochula.short" unicode="&#xf71d;" horiz-adv-x="2232" 
d="M2077 1847c-1.33301 -51.333 -8.83105 -98.498 -22.498 -141.498s-34.834 -83.167 -63.501 -120.5c57.333 -82.667 86 -176.667 86 -282v-783c0 -76.667 -15.333 -148 -46 -214s-72.167 -123.167 -124.5 -171.5s-113.666 -86.166 -183.999 -113.499
s-144.833 -41 -223.5 -41c-147.333 0 -274.333 45 -381 135c-106 -90 -233 -135 -381 -135c-80 0 -155.167 13.667 -225.5 41s-131.833 65.166 -184.5 113.499s-94.334 105.5 -125.001 171.5s-46 137.333 -46 214v1323h397v-1323c0 -23.333 4.5 -45.333 13.5 -66
s21.5 -38.5 37.5 -53.5s35.333 -26.833 58 -35.5s47.667 -13 75 -13c26 0 50 4.33301 72 13s41 20.5 57 35.5s28.667 32.833 38 53.5s14 42.667 14 66v705h397v-705c0 -23.333 4.5 -45.333 13.5 -66s21.5 -38.5 37.5 -53.5s35.333 -26.833 58 -35.5s47.667 -13 75 -13
c26 0 50.167 4.33301 72.5 13s41.666 20.5 57.999 35.5s29.333 32.833 39 53.5s14.5 42.667 14.5 66v787c0 32 -3 58 -9 78s-14.5 35.667 -25.5 47s-24.333 19.166 -40 23.499s-33.167 6.5 -52.5 6.5h-241v340h262c21.333 0 39.333 -0.333008 54 -1
s26.5 0.166016 35.5 2.49902s15.5 7 19.5 14s6 18.167 6 33.5v148h389z" />
    <glyph glyph-name="rulakkhangyao" unicode="&#xf881;" horiz-adv-x="3052" 
d="M2896 -700l-396.999 -0.000976562v1851c0 237.333 -115 356 -345 356c-28.667 0 -56.5 -2.5 -83.5 -7.5s-55 -14 -84 -27s-59.5 -31.333 -91.5 -55s-67 -53.834 -105 -90.501v4c14.667 -45.333 25.834 -91.166 33.501 -137.499s11.5 -93.166 11.5 -140.499v-1753h-397
l4 1753c0 65.333 -12.333 125.5 -37 180.5s-59.5 102.5 -104.5 142.5s-99.167 71.167 -162.5 93.5s-134 33.5 -212 33.5c-34 0 -67.833 -3.66699 -101.5 -11s-66.5 -17.833 -98.5 -31.5s-62.667 -30 -92 -49s-56.333 -40.167 -81 -63.5l98 -103v-876h262v-369h-659v1114
l-197 209c53.333 86 111.666 163 174.999 231s131.333 125.5 204 172.5s150 83 232 108s168 37.5 258 37.5c132 0 253.333 -20.167 364 -60.5s206.334 -96.833 287.001 -169.5c50 46 98.667 83.667 146 113s94.666 52.333 141.999 69s95.166 28.167 143.499 34.5
s98.5 9.5 150.5 9.5c126 0 235.167 -18.833 327.5 -56.5s168.833 -88 229.5 -151s105.834 -136.167 135.5 -219.5c29.667 -83.333 44.5 -170.333 44.5 -261v-1880z" />
    <glyph glyph-name="lulakkhangyao" unicode="&#xf882;" horiz-adv-x="3076" 
d="M2920 -700h-397.001v1851c0 237.333 -114.667 356 -344 356c-32 0 -62.5 -2.5 -91.5 -7.5s-58 -14 -87 -27s-58.333 -30.833 -88 -53.5s-60.834 -52 -93.501 -88c14 -45.333 25 -91.166 33 -137.499s12 -93.166 12 -140.499v-1753h-394v1753
c0 65.333 -12.333 125.5 -37 180.5s-59.5 102.5 -104.5 142.5s-99.167 71.167 -162.5 93.5s-134 33.5 -212 33.5c-68 0 -134.167 -14 -198.5 -42s-122.166 -65.667 -173.499 -113l98 -103v-1245h-569v369h172v745l-197 209c52 84.667 109.667 161 173 229
s131.5 125.667 204.5 173s150.5 83.666 232.5 108.999s168 38 258 38c132 0 252.833 -20.167 362.5 -60.5s204.834 -96.833 285.501 -169.5c50 46 98.667 83.667 146 113s94.5 52.333 141.5 69s94.667 28.167 143 34.5s98.5 9.5 150.5 9.5c84 0 160.5 -8.5 229.5 -25.5
s130.833 -41 185.5 -72s102.167 -67.667 142.5 -110s73.833 -89 100.5 -140s46.5 -105.333 59.5 -163s19.5 -116.834 19.5 -177.501v-1880z" />
    <glyph glyph-name=".null" 
 />
    <glyph glyph-name="nonmarkingreturn" horiz-adv-x="1159" 
 />
    <glyph glyph-name="yamakkanleftthai" 
d="M-709 2736c-16 15.333 -29.6641 27.666 -40.9971 37c-11.333 9.33301 -21.333 16.5 -30 21.5s-16.334 8.16699 -23.001 9.5s-13.334 2 -20.001 2c-31.333 0 -56.333 -9.66699 -75 -29s-28 -42.666 -28 -70c0 -12 2.83301 -24.167 8.5 -36.5s15.334 -23.333 29.001 -33
s31.667 -17.5 54 -23.5s50.5 -9 84.5 -9v-242c-34 0 -62.167 -2.83301 -84.5 -8.5s-40.333 -13.167 -54 -22.5s-23.334 -20.166 -29.001 -32.5c-5.66699 -12.333 -8.5 -25.166 -8.5 -38.5c0 -12 2.83301 -24 8.5 -36s15.334 -22.5 29.001 -31.5s31.667 -16.333 54 -22
s50.5 -8.5 84.5 -8.5v-246c-65.333 0 -123.833 8.83301 -175.5 26.5s-95.334 42 -131.001 73s-63 67.5 -82 109.5s-28.5 87 -28.5 135c0 85.333 27.333 159 82 221c-54.667 62.667 -82 137.667 -82 225c0 48 8.83301 92.833 26.5 134.5s42 77.667 73 108
s67.5 54.166 109.5 71.5c42 17.333 87 26 135 26c24.667 0 48.5 -2.16699 71.5 -6.5s46.167 -12 69.5 -23s47.166 -25.667 71.499 -44s50.5 -41.5 78.5 -69.5z" />
    <glyph glyph-name="saraamleft" horiz-adv-x="1520" 
d="M1364 0l-397.002 0.000976562v1151c0 237.333 -114.667 356 -344 356c-28.667 0 -56.667 -2.5 -84 -7.5s-55.5 -14 -84.5 -27s-59.5 -31.333 -91.5 -55s-67 -53.834 -105 -90.501l-266 266c57.333 56.667 112 102.834 164 138.501s103.5 63.667 154.5 84
s102.333 34.166 154 41.499s105.834 11 162.501 11c126 0 235.167 -18.833 327.5 -56.5s168.833 -88 229.5 -151s105.834 -136.167 135.501 -219.5s44.5 -170.333 44.5 -261v-1180zM-700.002 2425c0 -50 -9.66699 -97.167 -29 -141.5s-45.5 -83 -78.5 -116
s-71.667 -59.167 -116 -78.5s-91.5 -29 -141.5 -29s-97.167 9.66699 -141.5 29s-83 45.5 -116 78.5s-59.167 71.667 -78.5 116s-29 91.5 -29 141.5s9.66699 97.167 29 141.5s45.5 83 78.5 116s71.667 59 116 78s91.5 28.5 141.5 28.5s97.167 -9.5 141.5 -28.5
s83 -45 116 -78s59.167 -71.667 78.5 -116s29 -91.5 29 -141.5zM-958.002 2421c0 15.333 -2.66797 29.665 -8.00098 42.999c-5.33301 13.333 -12.833 25 -22.5 35s-21 17.833 -34 23.5s-27.167 8.5 -42.5 8.5s-29.5 -2.83301 -42.5 -8.5s-24.167 -13.5 -33.5 -23.5
s-16.666 -21.667 -21.999 -35s-8 -27.666 -8 -42.999c0 -31.333 10 -57 30 -77s45.333 -30 76 -30s56.167 10 76.5 30s30.5 45.667 30.5 77z" />
    <glyph glyph-name="uni0E33.alt1" horiz-adv-x="1520" 
d="M1364 0l-397.002 0.000976562v1151c0 237.333 -114.667 356 -344 356c-28.667 0 -56.667 -2.5 -84 -7.5s-55.5 -14 -84.5 -27s-59.5 -31.333 -91.5 -55s-67 -53.834 -105 -90.501l-266 266c57.333 56.667 112 102.834 164 138.501s103.5 63.667 154.5 84
s102.333 34.166 154 41.499s105.834 11 162.501 11c126 0 235.167 -18.833 327.5 -56.5s168.833 -88 229.5 -151s105.834 -136.167 135.501 -219.5s44.5 -170.333 44.5 -261v-1180zM-700.002 2425c0 -50 -9.66699 -97.167 -29 -141.5s-45.5 -83 -78.5 -116
s-71.667 -59.167 -116 -78.5s-91.5 -29 -141.5 -29s-97.167 9.66699 -141.5 29s-83 45.5 -116 78.5s-59.167 71.667 -78.5 116s-29 91.5 -29 141.5s9.66699 97.167 29 141.5s45.5 83 78.5 116s71.667 59 116 78s91.5 28.5 141.5 28.5s97.167 -9.5 141.5 -28.5
s83 -45 116 -78s59.167 -71.667 78.5 -116s29 -91.5 29 -141.5zM-958.002 2421c0 15.333 -2.66797 29.665 -8.00098 42.999c-5.33301 13.333 -12.833 25 -22.5 35s-21 17.833 -34 23.5s-27.167 8.5 -42.5 8.5s-29.5 -2.83301 -42.5 -8.5s-24.167 -13.5 -33.5 -23.5
s-16.666 -21.667 -21.999 -35s-8 -27.666 -8 -42.999c0 -31.333 10 -57 30 -77s45.333 -30 76 -30s56.167 10 76.5 30s30.5 45.667 30.5 77z" />
    <glyph glyph-name="sarainarrowthai" 
d="M-1663 2089v348h1507v-348h-1507z" />
    <glyph glyph-name="saraiinarrowthai" 
d="M-1663 2089v348h1159v246h348v-594h-1507z" />
    <glyph glyph-name="sarauenarrowthai" 
d="M-127 2388c0 -41.333 -7.83301 -80 -23.5 -116s-37 -67.667 -64 -95s-58.333 -48.833 -94 -64.5s-73.5 -23.5 -113.5 -23.5h-1241v348h946c7.33301 36 19.833 69 37.5 99s39.334 55.833 65.001 77.5s54.5 38.667 86.5 51s66 18.5 102 18.5
c40.667 0 79.167 -7.66699 115.5 -23s68.166 -36.333 95.499 -63s48.833 -58 64.5 -94s23.5 -74.333 23.5 -115zM-328 2384c0 13.333 -2.66699 25.833 -8 37.5s-12.5 22 -21.5 31s-19.333 16.167 -31 21.5s-24.167 8 -37.5 8s-25.833 -2.66699 -37.5 -8s-22 -12.5 -31 -21.5
s-16.167 -19.333 -21.5 -31s-8 -24.167 -8 -37.5s2.66699 -25.833 8 -37.5s12.5 -22 21.5 -31s19.333 -16.167 31 -21.5s24.167 -8 37.5 -8s25.833 2.66699 37.5 8s22 12.5 31 21.5s16.167 19.333 21.5 31s8 24.167 8 37.5z" />
    <glyph glyph-name="saraueenarrowthai" 
d="M-1663 2089v348h684v246h328v-246h164v246h331v-594h-1507z" />
    <glyph glyph-name="sarauchochanthai" 
d="M-889 -885v328h-164v377h336c28 0 54.167 -5.33301 78.5 -16s45.5 -25 63.5 -43s32.333 -39.167 43 -63.5s16 -50.5 16 -78.5v-504h-373z" />
    <glyph glyph-name="sarauuchochanthai" 
d="M-279 -524c0 -61.333 -11.335 -117.5 -34.002 -168.5s-53.667 -94.667 -93 -131s-85.666 -64.5 -138.999 -84.5s-110.666 -30 -171.999 -30c-56 0 -111.833 7.5 -167.5 22.5s-105.667 38.167 -150 69.5s-80.333 71 -108 119s-41.5 104.667 -41.5 170h-164v373h529v-348
c0 -25.333 8.66699 -44.666 26 -57.999s37.333 -20 60 -20s42.667 6.66699 60 20s26 32.666 26 57.999v348h368v-340z" />
    <glyph glyph-name="maiekupperleftthai.alt9" 
d="M-1217 2879v599h352v-599h-352z" />
    <glyph glyph-name="maichattawaupperleftthai.alt9" 
d="M-865 3060v-181h-352v177h-188v315h184v180h352v-176h189v-315h-185z" />
    <glyph glyph-name="maithothai.alt2" 
d="M-903 2879l36.499 62.5l38 67l35.5 67c11.333 22.333 21 43.166 29 62.5c5.33301 8.66699 9.33301 19.334 12 32c2.66699 12.667 3 24.834 1 36.5c-2 11.667 -6.83301 21.5 -14.5 29.5s-19.167 12 -34.5 12c-27.333 0 -45.333 -8 -54 -24l-188 188
c35.333 35.333 75.333 61.833 120 79.5s90.667 26.5 138 26.5c44 0 86.833 -7.16699 128.5 -21.5s78.334 -35 110.001 -62s56.167 -59.667 73.5 -98s24 -81.5 20 -129.5l-4 -45l37 4h618v-287h-1102z" />
    <glyph glyph-name="maitrithai.alt2" 
d="M-288 2879c28 40 53.5029 79.667 76.5029 119s44.167 80.333 63.5 123c2.66699 9.33301 4.33398 20.166 5.00098 32.5c0.666992 12.333 -1 24 -5 35s-10.5 20.333 -19.5 28s-21.833 11.5 -38.5 11.5c-15.333 0 -27.833 -2 -37.5 -6s-17.167 -10.333 -22.5 -19
s-9.33301 -20 -12 -34s-4.33398 -31.333 -5.00098 -52h-197c-1.33301 11.333 -3.33301 23.333 -6 36s-6.5 24.167 -11.5 34.5s-11.5 19 -19.5 26s-17.667 10.5 -29 10.5c-22.667 0 -40.5 -5.33301 -53.5 -16s-19.5 -27.334 -19.5 -50c0 -22.667 8.66699 -43.334 26 -62
c17.333 -18.667 37.333 -36.334 60 -53l-189 -180c-64 35.333 -114.167 77.666 -150.5 127c-36.333 49.333 -54.5 104 -54.5 164c0 49.333 9.16699 94.5 27.5 135.5s43.166 76.333 74.499 106s68.333 52.834 111 69.5c42.667 16.667 88 25 136 25c70.667 0 136 -26 196 -78
c31.333 26.667 64.166 46.334 98.499 59c34.333 12.667 67.166 19 98.499 19c44 0 85.833 -7.66699 125.5 -23s75 -37.5 106 -66.5s56 -64.333 75 -106s30.167 -88.5 33.5 -140.5l33 4l270 -4v-275h-746z" />
    </font>
</defs>
</svg>
