<?xml version="1.0" standalone="no"?>
<!DOCTYPE svg PUBLIC "-//W3C//DTD SVG 1.1//EN" "http://www.w3.org/Graphics/SVG/1.1/DTD/svg11.dtd" >
<svg>
<metadata>
Created by FontForge 20090914 at Wed Aug 24 15:12:01 2016
 By www-data
Copyright (c) Phanlop Thongsuk, 1995-2009. All rights reserved.
</metadata>
<defs>
<font id="PSLKandaPro" horiz-adv-x="0" >
  <font-face 
    font-family="PSL Kanda Pro (กานดา)"
    font-weight="400"
    font-stretch="normal"
    units-per-em="2048"
    panose-1="2 0 5 6 0 0 0 2 0 4"
    ascent="1638"
    descent="-410"
    x-height="694"
    cap-height="965"
    bbox="-791 -573 1499 1599"
    underline-thickness="52"
    underline-position="-143"
    unicode-range="U+0020-U+F880"
  />
<missing-glyph horiz-adv-x="1599" 
d="M100 1599h1399v-1599h-1399v1599zM1401 1499h-1200v-1399h1200v1399z" />
    <glyph glyph-name="saraueesp1" unicode="&#xe37;&#xe48;" 
d="M-655 922v49h415v104h54v-104h61v104h53v-153h-583zM-182 1137v123h53v-123h-53z" />
    <glyph glyph-name=".notdef" horiz-adv-x="1599" 
d="M100 1599h1399v-1599h-1399v1599zM1401 1499h-1200v-1399h1200v1399z" />
    <glyph glyph-name="space" unicode=" " horiz-adv-x="471" 
 />
    <glyph glyph-name="space" unicode="&#xa0;" horiz-adv-x="471" 
 />
    <glyph glyph-name="exclam" unicode="!" horiz-adv-x="350" 
d="M193 248h-33l-17 366v351h66v-351zM141 0v139h68v-139h-68z" />
    <glyph glyph-name="quotedbl" unicode="&#x22;" horiz-adv-x="426" 
d="M266 655v310h51v-310h-51zM109 655v310h51v-310h-51z" />
    <glyph glyph-name="numbersign" unicode="#" horiz-adv-x="752" 
d="M555 590l-33 -234h152v-45h-158l-43 -311h-45l43 311h-227l-43 -311h-45l22 155l8 57l7 50c2 14.667 3.5 26.5 4.5 35.5l1.5 13.5h-158v45h166l16 117l6 43c2 14 3.66699 26.5 5 37.5s2.33301 19.833 3 26.5l1 10h-160v45h168l41 297h45l-43 -297h227l43 297h45l-43 -297
h150v-45h-156zM283 590l-33 -234h227l33 234h-227z" />
    <glyph glyph-name="dollar" unicode="$" horiz-adv-x="737" 
d="M715 248c0 -49.333 -9.33203 -91.0039 -27.999 -125.004s-43.5 -61.5 -74.5 -82.5s-66.333 -36.5 -106 -46.5s-80.834 -15.667 -123.501 -17v-118h-41v118c-46 2 -89.167 10.5 -129.5 25.5s-75.5 36.5 -105.5 64.5s-53.167 62.667 -69.5 104s-23.5 90 -21.5 146h50
c0 -49.333 7.16699 -91.666 21.5 -126.999s34 -64.5 59 -87.5s54.167 -40.5 87.5 -52.5s69.333 -19 108 -21v448c-41.333 9.33301 -80.166 19.5 -116.499 30.5s-67.833 25.833 -94.5 44.5s-47.667 42.334 -63 71.001s-23 65.334 -23 110.001c0 42.667 7.33301 79.5 22 110.5
s35.334 57 62.001 78s58 36.833 94 47.5s75.667 16.667 119 18v109h41v-109c55.333 -2 102.166 -10.667 140.499 -26s69.666 -36.166 93.999 -62.499s42.333 -57.166 54 -92.499s18.5 -74 20.5 -116h-53c0.666992 27.333 -2.33301 55.166 -9 83.499s-19.5 54.333 -38.5 78
s-45.167 43.5 -78.5 59.5s-76.666 25 -129.999 27v-418c44.667 -10 87.167 -21.167 127.5 -33.5s75.666 -28.5 105.999 -48.5s54.333 -45.167 72 -75.5s26.5 -68.5 26.5 -114.5zM342.001 937.996c-32 -1.33301 -62.8311 -6.00098 -92.498 -14.001s-55.834 -20 -78.501 -36
s-40.834 -36.667 -54.501 -62s-20.5 -56.333 -20.5 -93c0 -33.333 4.83301 -61.166 14.5 -83.499s24.5 -41 44.5 -56s45.5 -27.5 76.5 -37.5s67.833 -19.333 110.5 -28v410zM664.003 255.995c0 36 -8.16699 65.999 -24.5 89.999s-37.666 43.833 -63.999 59.5
s-56.333 28.167 -90 37.5s-67.834 18 -102.501 26v-440c34.667 0.666992 68.834 4.66699 102.501 12s63.667 19.5 90 36.5s47.666 39.833 63.999 68.5s24.5 65.334 24.5 110.001z" />
    <glyph glyph-name="percent" unicode="%" horiz-adv-x="1051" 
d="M997 236c0 -34 -5.50195 -66.332 -16.502 -96.999s-26.5 -57.667 -46.5 -81s-43.833 -41.833 -71.5 -55.5s-57.834 -20.5 -90.501 -20.5c-32 0 -61.667 6.5 -89 19.5s-51 30.5 -71 52.5s-35.833 47.333 -47.5 76s-17.5 59 -17.5 91s5.16699 62.833 15.5 92.5
s25.333 55.667 45 78s43.5 40.166 71.5 53.499s59.667 20 95 20c36.667 0 68.834 -6.16699 96.501 -18.5s50.834 -28.833 69.501 -49.5s32.834 -45 42.501 -73s14.5 -57.333 14.5 -88zM241.998 -32.999h-56l627 998h53zM503.998 719.001c0 -34 -5.5 -66.3311 -16.5 -96.998
s-26.5 -57.667 -46.5 -81s-43.833 -41.833 -71.5 -55.5s-57.834 -20.5 -90.501 -20.5c-32 0 -61.667 6.5 -89 19.5s-51.166 30.5 -71.499 52.5s-36.333 47.5 -48 76.5s-17.5 59.5 -17.5 91.5s5.16699 62.667 15.5 92s25.333 55.166 45 77.499s43.667 40.166 72 53.499
s60.166 20 95.499 20c36 0 68 -6 96 -18s51.333 -28.5 70 -49.5s32.834 -45.333 42.501 -73s14.5 -57.167 14.5 -88.5zM943.998 231.003c0 25.333 -4.16309 49.335 -12.4961 72.002s-20 42.667 -35 60s-33 31.166 -54 41.499s-43.833 15.5 -68.5 15.5
c-26.667 0 -50.834 -5.33301 -72.501 -16s-40.334 -25.167 -56.001 -43.5s-27.834 -39.5 -36.501 -63.5s-13 -49.333 -13 -76c0 -25.333 4.33301 -49.5 13 -72.5s20.834 -43.333 36.501 -61s34 -31.834 55 -42.501s44.167 -16 69.5 -16c26 0 49.667 5.5 71 16.5
s39.666 25.833 54.999 44.5s27.166 40.167 35.499 64.5s12.5 49.833 12.5 76.5zM451.002 715.005c0 24.667 -4.16602 48.498 -12.499 71.498s-20 43 -35 60s-33 30.667 -54 41s-43.833 15.5 -68.5 15.5c-26.667 0 -51 -5.33301 -73 -16s-40.833 -25 -56.5 -43
s-27.834 -39 -36.501 -63s-13 -49.333 -13 -76c0 -25.333 4.33301 -49.666 13 -72.999s20.834 -43.833 36.501 -61.5s34 -31.834 55 -42.501s44.167 -16 69.5 -16c26 0 49.833 5.5 71.5 16.5s40.167 25.833 55.5 44.5s27.166 40.334 35.499 65.001s12.5 50.334 12.5 77.001z
" />
    <glyph glyph-name="ampersand" unicode="&#x26;" horiz-adv-x="801" 
d="M735 0l-117.001 142.997c-32 -49.333 -71.333 -88.166 -118 -116.499s-98 -42.5 -154 -42.5c-43.333 0 -82.666 5.5 -117.999 16.5s-65.5 26.833 -90.5 47.5s-44.333 45.334 -58 74.001s-20.5 61 -20.5 97c0 32 4 61.167 12 87.5s21.667 51.5 41 75.5s45 47.833 77 71.5
s72 49.167 120 76.5c-8 11.333 -19.5 26 -34.5 44s-29.833 38.167 -44.5 60.5s-27.334 46.333 -38.001 72s-16 52.167 -16 79.5c0 22.667 5.66699 43.834 17 63.501s26.5 36.834 45.5 51.501s40.833 26.167 65.5 34.5s50.334 12.5 77.001 12.5
c28.667 0 55.334 -3.5 80.001 -10.5s46.167 -17.833 64.5 -32.5s32.666 -33.334 42.999 -56.001s15.5 -49.667 15.5 -81c0 -28 -6 -53.833 -18 -77.5s-27.5 -45.5 -46.5 -65.5s-40.5 -38.667 -64.5 -56l-72 -51l231 -285c20.667 49.333 31 103.333 31 162h53
c-3.33301 -36.667 -9.33301 -72 -18 -106s-19.667 -65.333 -33 -94l158 -195h-70zM531.999 773.997c0 19.333 -4.17188 37.0039 -12.5049 53.0039s-19.5 29.833 -33.5 41.5s-30.167 20.667 -48.5 27s-37.166 9.5 -56.499 9.5s-38 -3 -56 -9s-34.167 -14.333 -48.5 -25
s-25.833 -23.834 -34.5 -39.501s-13 -32.834 -13 -51.501c0 -12 1.83301 -24.333 5.5 -37s8.33398 -25.334 14.001 -38.001s12.167 -25.167 19.5 -37.5s15 -23.833 23 -34.5c18 -25.333 39 -50 63 -74c32.667 18.667 62.334 39 89.001 61
c10.667 9.33301 21.334 19.666 32.001 30.999s20.334 23.5 29.001 36.5s15.5 26.667 20.5 41s7.5 29.5 7.5 45.5zM337.994 494.001l-91 -57.5c-28 -17 -52.167 -35.167 -72.5 -54.5s-36.333 -41.833 -48 -67.5s-17.5 -57.5 -17.5 -95.5
c0 -29.333 6.83301 -55.666 20.5 -78.999s31.5 -43.333 53.5 -60s47 -29.334 75 -38.001s56.667 -13 86 -13c48 0 93.667 13.5 137 40.5s79 64.5 107 112.5z" />
    <glyph glyph-name="quotesingle" unicode="'" horiz-adv-x="276" 
d="M113 655v310h51v-310h-51z" />
    <glyph glyph-name="parenleft" unicode="(" horiz-adv-x="365" 
d="M285 -205c-58.667 77.333 -105.5 166.335 -140.5 267.002s-52.5 213.667 -52.5 339c0 72 4.83301 137.667 14.5 197s23.167 114.166 40.5 164.499s38 97 62 140s50 84.167 78 123.5h51c-36 -55.333 -66.333 -106.833 -91 -154.5s-44.5 -95.5 -59.5 -143.5
s-25.833 -98.667 -32.5 -152s-10 -113 -10 -179c0 -112 15.667 -217.833 47 -317.5s80 -195.834 146 -288.501z" />
    <glyph glyph-name="parenright" unicode=")" horiz-adv-x="365" 
d="M272 401c0 -125.333 -17.332 -238.335 -51.999 -339.002s-81.334 -189.667 -140.001 -267l-53 -4c66 92.667 114.5 188.834 145.5 288.501s46.5 205.5 46.5 317.5c0 66 -3.16699 125.667 -9.5 179s-17 104 -32 152s-34.833 95.833 -59.5 143.5s-55 99.167 -91 154.5h51
c28 -39.333 53.833 -80.5 77.5 -123.5s44.167 -89.667 61.5 -140s30.833 -105.166 40.5 -164.499s14.5 -125 14.5 -197z" />
    <glyph glyph-name="asterisk" unicode="*" horiz-adv-x="487" 
d="M285 750l94 -136l-31 -30l-104 137l-109 -137l-35 30l105 136l-164 57l14 41l164 -53v172h47v-172l162 53l16 -41z" />
    <glyph glyph-name="plus" unicode="+" horiz-adv-x="748" 
d="M399 315v-288h-51v288h-287v52h287v284h51v-284h287v-52h-287z" />
    <glyph glyph-name="comma" unicode="," horiz-adv-x="289" 
d="M221 27c0 -13.333 -2 -27.334 -6 -42.001s-10.167 -29.5 -18.5 -44.5s-18.833 -29.5 -31.5 -43.5s-28 -26.667 -46 -38l-31 20c11.333 7.33301 22 16 32 26s18.833 20.5 26.5 31.5s13.834 22 18.501 33s7.66699 20.5 9 28.5c-10 -5.33301 -17 -8 -21 -8h-16
c-15.333 0 -29 5.66699 -41 17s-18 25.333 -18 42s6.16699 31.834 18.5 45.501s27.833 20.5 46.5 20.5c25.333 0 44.666 -8.33301 57.999 -25s20 -37.667 20 -63z" />
    <glyph glyph-name="hyphen" unicode="-" horiz-adv-x="475" 
d="M94 342v51h289v-51h-289z" />
    <glyph glyph-name="period" unicode="." horiz-adv-x="289" 
d="M207 51c0 -17.333 -6.33301 -31.833 -19 -43.5s-27.667 -17.5 -45 -17.5s-31.833 5.83301 -43.5 17.5s-17.5 26.167 -17.5 43.5s5.83301 32.333 17.5 45s26.167 19 43.5 19s32.333 -6.33301 45 -19s19 -27.667 19 -45z" />
    <glyph glyph-name="slash" unicode="/" horiz-adv-x="451" 
d="M37 -23h-55l430 1010h55z" />
    <glyph glyph-name="zero" unicode="0" horiz-adv-x="748" 
d="M711 504c0 -72.667 -5.50293 -140.67 -16.5029 -204.003s-29.5 -118.333 -55.5 -165s-60.667 -83.5 -104 -110.5s-97.333 -40.5 -162 -40.5c-45.333 0 -85.166 6.83301 -119.499 20.5s-64 32.334 -89 56.001s-45.833 51.334 -62.5 83.001s-30 65.834 -40 102.501
s-17 74.834 -21 114.501s-6 79.167 -6 118.5c0 60 5.83301 118.167 17.5 174.5s30.834 106.333 57.501 150s61.5 78.667 104.5 105s95.833 39.5 158.5 39.5c43.333 0 81.833 -6.5 115.5 -19.5s63 -30.5 88 -52.5s46 -47.5 63 -76.5s30.833 -60 41.5 -93
s18.334 -66.833 23.001 -101.5s7 -68.334 7 -101.001zM658.997 501.997c0 48 -5.16602 96 -15.499 144s-26.833 91.167 -49.5 129.5s-52.167 69.5 -88.5 93.5s-80.5 36 -132.5 36c-54.667 0 -100.334 -12.833 -137.001 -38.5s-66 -59 -88 -100s-37.5 -87 -46.5 -138
s-13.5 -101.5 -13.5 -151.5c0 -63.333 5.16699 -122.333 15.5 -177s26.833 -102 49.5 -142s52 -71.5 88 -94.5s80 -34.5 132 -34.5c40 0 74.833 6.66699 104.5 20s55 31.5 76 54.5s38.333 49.833 52 80.5s24.5 63.5 32.5 98.5s13.5 71.333 16.5 109s4.5 74.5 4.5 110.5z" />
    <glyph glyph-name="one" unicode="1" horiz-adv-x="748" 
d="M393 0v758h-229v39c46 0 84.167 1.83301 114.5 5.5s54.333 10.167 72 19.5s30.167 22 37.5 38s11 36.667 11 62v10h45v-932h-51z" />
    <glyph glyph-name="two" unicode="2" horiz-adv-x="748" 
d="M61 0c-2 47.333 6.66309 89.333 25.9961 126s45.333 70.5 78 101.5s70.334 60.5 113.001 88.5l130 87c30.667 21.333 58.834 42.666 84.501 63.999s47.667 43.833 66 67.5s32.5 49.334 42.5 77.001s15 58.834 15 93.501c0 28.667 -6.16699 55.167 -18.5 79.5
s-29 45.5 -50 63.5s-45.167 32 -72.5 42s-56 15 -86 15c-42 0 -77.667 -6 -107 -18s-53.833 -27.333 -73.5 -46s-34.834 -39.334 -45.501 -62.001s-18.5 -44.667 -23.5 -66s-7.5 -40.666 -7.5 -57.999s1 -29.666 3 -36.999h-51c-3.33301 16 -4.66602 35.167 -3.99902 57.5
s4.5 45.666 11.5 69.999s17.667 48.666 32 72.999s33.333 46 57 65s52.334 34.5 86.001 46.5s73.834 18 120.501 18c42.667 0 81.167 -6 115.5 -18s63.833 -28.833 88.5 -50.5s43.667 -47.834 57 -78.501s20 -64.334 20 -101.001c0 -39.333 -5.16699 -74.166 -15.5 -104.499
s-24.833 -58 -43.5 -83s-40.5 -48.167 -65.5 -69.5s-52.5 -42.666 -82.5 -63.999l-115 -79.5c-39.333 -26.333 -75.5 -53 -108.5 -80s-60 -54.333 -81 -82s-31.5 -56.5 -31.5 -86.5h557v-51h-621z" />
    <glyph glyph-name="three" unicode="3" horiz-adv-x="748" 
d="M688 256c0 -40 -7.66797 -76.6709 -23.001 -110.004s-36.666 -62 -63.999 -86s-60 -42.667 -98 -56s-79.333 -20 -124 -20c-45.333 0 -88.333 4.83301 -129 14.5s-76.167 26.667 -106.5 51s-54.333 57.333 -72 99s-26.5 94.5 -26.5 158.5h51
c0 -49.333 7 -91.666 21 -126.999s33.5 -64.166 58.5 -86.499s54.833 -38.666 89.5 -48.999s72.667 -15.5 114 -15.5c34 0 66.667 5.5 98 16.5s59 26.5 83 46.5s43.167 43.833 57.5 71.5s21.5 58.5 21.5 92.5c0 71.333 -25.667 126.333 -77 165s-131.333 56 -240 52v45
c94.667 -5.33301 167 10 217 46s75 88.333 75 157c0 28.667 -6.5 54.334 -19.5 77.001s-30.333 42 -52 58s-46.167 28.167 -73.5 36.5s-55.333 12.5 -84 12.5c-44 0 -83.167 -7 -117.5 -21s-63 -33 -86 -57s-40.167 -52.167 -51.5 -84.5s-16.333 -66.833 -15 -103.5h-47
c-1.33301 42.667 4.5 82.834 17.5 120.501s32.833 70.5 59.5 98.5s60 50 100 66s86.667 24 140 24c38.667 0 75 -5.5 109 -16.5s63.667 -26.667 89 -47s45.5 -44.833 60.5 -73.5s22.5 -60.667 22.5 -96c0 -28 -4.5 -54.167 -13.5 -78.5s-21.5 -46 -37.5 -65
s-35.167 -34.833 -57.5 -47.5s-47.166 -21.334 -74.499 -26.001c29.333 -3.33301 56.5 -11.5 81.5 -24.5s46.667 -30.167 65 -51.5s32.666 -46 42.999 -74s15.5 -58.667 15.5 -92z" />
    <glyph glyph-name="four" unicode="4" horiz-adv-x="748" 
d="M543 238v-238h-51v238h-455v51l455 643h51v-649h157v-45h-157zM492 862l-404 -579h404v579z" />
    <glyph glyph-name="five" unicode="5" horiz-adv-x="748" 
d="M684 305c0 -47.333 -8.17383 -90.501 -24.5068 -129.501s-38.666 -72.833 -66.999 -101.5s-61.666 -50.834 -99.999 -66.501s-79.5 -23.5 -123.5 -23.5c-43.333 0 -85 6.66699 -125 20s-75.167 32.833 -105.5 58.5s-53.833 57.167 -70.5 94.5s-23 80 -19 128h49
c-0.666992 -41.333 6.16602 -78 20.499 -110s33.833 -58.833 58.5 -80.5s53.334 -38 86.001 -49s67.334 -16.5 104.001 -16.5c37.333 0 72.166 7.33301 104.499 22s60.5 34.5 84.5 59.5s42.833 54 56.5 87s20.5 68.167 20.5 105.5c0 38.667 -6.66699 74.834 -20 108.501
s-31.5 63.167 -54.5 88.5s-50 45.333 -81 60s-63.833 22 -98.5 22c-32.667 0 -61 -3 -85 -9s-45.5 -14.667 -64.5 -26s-36.667 -25.166 -53 -41.499s-32.833 -34.5 -49.5 -54.5h-51l96 481h471v-49h-432l-76 -369c16.667 20.667 33.834 38.167 51.501 52.5
s36.334 26 56.001 35s40.834 15.5 63.501 19.5s47.667 6 75 6c42 0 81.333 -8 118 -24s68.834 -38.333 96.501 -67s49.334 -62.667 65.001 -102s23.5 -82.333 23.5 -129z" />
    <glyph glyph-name="six" unicode="6" horiz-adv-x="748" 
d="M700 291c0 -43.333 -7.66699 -83.666 -23 -120.999s-37 -69.666 -65 -96.999s-61.667 -49 -101 -65s-82.666 -24 -129.999 -24c-93.333 0 -165.5 26.667 -216.5 80s-84.833 131 -101.5 233c-2.66699 16 -5 36.667 -7 62s-2.83301 54.333 -2.5 87
s2.66602 68.167 6.99902 106.5s11.5 78.166 21.5 119.499c22.667 89.333 61.334 157.666 116.001 204.999s121 71 199 71c46 0 86 -6.66699 120 -20s62.667 -31.166 86 -53.499s41.666 -48.5 54.999 -78.5s22 -61.333 26 -94h-49
c-5.33301 25.333 -13.666 50.166 -24.999 74.499s-26.5 46 -45.5 65s-42.333 34.333 -70 46s-60.167 17.5 -97.5 17.5c-41.333 0 -77.166 -7.5 -107.499 -22.5s-56.5 -35.167 -78.5 -60.5s-39.833 -54.5 -53.5 -87.5s-24.334 -67.667 -32.001 -104s-12.667 -73 -15 -110
s-2.83301 -71.833 -1.5 -104.5c23.333 64.667 60 114.167 110 148.5s109.333 51.5 178 51.5c42.667 0 82.5 -8 119.5 -24s69.167 -38.333 96.5 -67s48.666 -63 63.999 -103s23 -83.667 23 -131zM649 291c0 37.333 -6.66699 72.833 -20 106.5s-31.666 63.334 -54.999 89.001
s-51.166 46.167 -83.499 61.5s-67.5 23 -105.5 23c-36 0 -69.833 -7 -101.5 -21s-59.334 -33.167 -83.001 -57.5s-42.5 -53.333 -56.5 -87s-21 -69.834 -21 -108.501c0 -34 6.16699 -67.167 18.5 -99.5s30 -61 53 -86s50.667 -45 83 -60s68.166 -22.5 107.499 -22.5
c36 0 70 7 102 21s60 33 84 57s43 51.833 57 83.5s21 65.167 21 100.5z" />
    <glyph glyph-name="seven" unicode="7" horiz-adv-x="748" 
d="M676 879c-29.333 -29.333 -59.3301 -62.6689 -89.9971 -100.002c-26 -32 -54.667 -70.5 -86 -115.5s-61.333 -94.833 -90 -149.5c-15.333 -28.667 -28.833 -57.834 -40.5 -87.501s-22.167 -59.167 -31.5 -88.5s-17.333 -58.166 -24 -86.499
s-12.334 -54.833 -17.001 -79.5c-11.333 -58.667 -19 -116 -23 -172h-59c2 54 9 110.667 21 170c9.33301 50.667 24.166 107.834 44.499 171.501s48.5 128.834 84.5 195.501c23.333 42.667 49.666 84.667 78.999 126s57.333 78.333 84 111c31.333 38 63 74.333 95 109h-549
v49h602v-53v0z" />
    <glyph glyph-name="eight" unicode="8" horiz-adv-x="748" 
d="M696 262c0 -41.333 -7.5 -79.001 -22.5 -113.001s-36.333 -63.167 -64 -87.5s-61.167 -43.333 -100.5 -57s-83.333 -20.5 -132 -20.5c-43.333 0 -84.666 5.33301 -123.999 16s-74 27 -104 49s-53.833 50 -71.5 84s-26.5 74.333 -26.5 121c0 40 5.5 75.167 16.5 105.5
s26 56 45 77s41.167 37.333 66.5 49s52.333 19.167 81 22.5c-52 12 -94 34.833 -126 68.5s-48 81.167 -48 142.5c0 36 7 68.167 21 96.5s33.833 52.5 59.5 72.5s56 35.333 91 46s73.5 16 115.5 16c40 0 77.5 -4.66699 112.5 -14s65.5 -23.166 91.5 -41.499
s46.667 -41 62 -68s23 -58.167 23 -93.5c0 -34 -4 -63.5 -12 -88.5s-19.5 -46.333 -34.5 -64s-33.167 -32.167 -54.5 -43.5s-45.333 -20.333 -72 -27c30.667 -4 58.667 -12.5 84 -25.5s47.166 -30.167 65.499 -51.5s32.5 -46.333 42.5 -75s15 -60.667 15 -96zM612 720.999
c0 26 -5.16602 50.167 -15.499 72.5s-25.666 41.833 -45.999 58.5s-45.333 29.667 -75 39s-63.834 14 -102.501 14c-39.333 0 -73.833 -4.66699 -103.5 -14s-54.5 -22.333 -74.5 -39s-35 -36.167 -45 -58.5s-15 -46.5 -15 -72.5c0 -26.667 5.33301 -51.667 16 -75
s26 -43.5 46 -60.5s44.667 -30.5 74 -40.5s62.666 -15 99.999 -15c40 0 75 5 105 15s55 23.5 75 40.5s35.167 37.167 45.5 60.5s15.5 48.333 15.5 75zM645.001 257.999c0 32 -4.83301 61.6641 -14.5 88.9971s-25.167 51.333 -46.5 72s-49.333 36.834 -84 48.501
s-77 17.5 -127 17.5c-48 0 -89 -5.83301 -123 -17.5s-62 -27.667 -84 -48s-38.167 -44.166 -48.5 -71.499s-15.5 -56.666 -15.5 -87.999c0 -32 5.83301 -62 17.5 -90s29 -52.5 52 -73.5s51.333 -37.5 85 -49.5s72.5 -18 116.5 -18s82.833 6 116.5 18s62 28.5 85 49.5
s40.5 45.333 52.5 73s18 57.167 18 88.5z" />
    <glyph glyph-name="nine" unicode="9" horiz-adv-x="748" 
d="M698 453c-1.33301 -38 -4.49707 -75.8301 -9.49707 -113.497s-13 -73.834 -24 -108.501s-25 -67 -42 -97s-37.833 -56.167 -62.5 -78.5s-53.334 -39.833 -86.001 -52.5s-70 -19 -112 -19c-40 0 -77 5.83301 -111 17.5s-63.833 28.167 -89.5 49.5s-46.334 47 -62.001 77
s-24.834 63.667 -27.501 101h53c2.66699 -28.667 10.667 -55.167 24 -79.5s30.166 -45.5 50.499 -63.5s43.333 -32 69 -42s52.834 -15 81.501 -15c40.667 0 76.334 6.66699 107.001 20s57.167 31.5 79.5 54.5s40.833 50 55.5 81s26.167 64.167 34.5 99.5
s14.166 72.166 17.499 110.499s5 76.166 5 113.499c-23.333 -60.667 -58.333 -108 -105 -142s-103 -51 -169 -51c-48 0 -91.667 8.5 -131 25.5s-72.666 40.167 -99.999 69.5s-48.5 63.5 -63.5 102.5s-22.167 80.5 -21.5 124.5c0.666992 42.667 8.33398 83 23.001 121
s35.667 71 63 99s60.5 50.167 99.5 66.5s82.5 24.5 130.5 24.5c49.333 0 91.666 -6.83301 126.999 -20.5s65.166 -32.5 89.499 -56.5s43.833 -52 58.5 -84s25.667 -66.333 33 -103s12 -74.667 14 -114s2.33301 -78.333 1 -117zM639.003 635.003
c0 38 -6.83301 73.5 -20.5 106.5s-32.5 61.667 -56.5 86s-52 43.666 -84 57.999s-66.333 21.5 -103 21.5s-71 -7.16699 -103 -21.5s-60 -33.666 -84 -57.999s-42.833 -53 -56.5 -86s-20.5 -68.5 -20.5 -106.5s6.83301 -73.667 20.5 -107s32.5 -62.5 56.5 -87.5
s52 -44.667 84 -59s66.333 -21.5 103 -21.5s71 7.16699 103 21.5s60 34 84 59s42.833 54.167 56.5 87.5s20.5 69 20.5 107z" />
    <glyph glyph-name="colon" unicode=":" horiz-adv-x="289" 
d="M207 598c0 -17.333 -6.33301 -31.833 -19 -43.5s-27.667 -17.5 -45 -17.5s-31.833 5.83301 -43.5 17.5s-17.5 26.167 -17.5 43.5s5.83301 32.333 17.5 45s26.167 19 43.5 19s32.333 -6.33301 45 -19s19 -27.667 19 -45zM207 51c0 -17.333 -6.33301 -31.833 -19 -43.5
s-27.667 -17.5 -45 -17.5s-31.833 5.83301 -43.5 17.5s-17.5 26.167 -17.5 43.5s5.83301 32.333 17.5 45s26.167 19 43.5 19s32.333 -6.33301 45 -19s19 -27.667 19 -45z" />
    <glyph glyph-name="semicolon" unicode=";" horiz-adv-x="289" 
d="M207 598c0 -17.333 -6.33301 -31.833 -19 -43.5s-27.667 -17.5 -45 -17.5s-31.833 5.83301 -43.5 17.5s-17.5 26.167 -17.5 43.5s5.83301 32.333 17.5 45s26.167 19 43.5 19s32.333 -6.33301 45 -19s19 -27.667 19 -45zM221 27c0 -13.333 -2 -27.334 -6 -42.001
s-10.167 -29.5 -18.5 -44.5s-18.833 -29.5 -31.5 -43.5s-28 -26.667 -46 -38l-31 20c11.333 7.33301 22 16 32 26s18.833 20.5 26.5 31.5s13.834 22 18.501 33s7.66699 20.5 9 28.5c-10 -5.33301 -17 -8 -21 -8h-16c-15.333 0 -29 5.66699 -41 17s-18 25.333 -18 42
s6.16699 31.834 18.5 45.501s27.833 20.5 46.5 20.5c25.333 0 44.666 -8.33301 57.999 -25s20 -37.667 20 -63z" />
    <glyph glyph-name="less" unicode="&#x3c;" horiz-adv-x="811" 
d="M61 307v72l689 315v-55l-644 -295l644 -299v-55z" />
    <glyph glyph-name="equal" unicode="=" horiz-adv-x="748" 
d="M61 446v52h625v-52h-625zM61 184v52h625v-52h-625z" />
    <glyph glyph-name="greater" unicode="&#x3e;" horiz-adv-x="811" 
d="M61 -10v55l644 295l-644 299v55l689 -319v-70z" />
    <glyph glyph-name="question" unicode="?" horiz-adv-x="686" 
d="M623 748c0 -40 -6.16699 -73.8262 -18.5 -101.493s-27.833 -52.167 -46.5 -73.5s-39 -40.5 -61 -57.5s-42.333 -34.5 -61 -52.5s-34.167 -38 -46.5 -60s-18.5 -48.333 -18.5 -79v-80h-52v82c0 33.333 6.16699 62.166 18.5 86.499s27.833 46.166 46.5 65.499
s39 37.666 61 54.999s42.333 36 61 56s34.167 42.667 46.5 68s18.5 55.666 18.5 90.999c0 28.667 -5.5 54.667 -16.5 78s-26.5 43.5 -46.5 60.5s-43.833 30.167 -71.5 39.5s-58.5 14 -92.5 14c-48 0 -88.167 -7.83301 -120.5 -23.5s-57.833 -36.334 -76.5 -62.001
s-31 -55 -37 -88s-6.33301 -66.5 -1 -100.5h-52c-5.33301 48.667 -2.5 92.667 8.5 132s29.333 73 55 101s57.5 49.667 95.5 65s81.333 23 130 23c38.667 0 75 -5.5 109 -16.5s63.333 -26.833 88 -47.5s44.167 -45.834 58.5 -75.501s21.5 -62.834 21.5 -99.501zM412 57.0068
c0 -9.33301 -1.83594 -18.1641 -5.50293 -26.4971s-8.5 -15.5 -14.5 -21.5s-13.167 -10.833 -21.5 -14.5s-17.166 -5.16699 -26.499 -4.5c-17.333 1.33301 -32.166 8.16602 -44.499 20.499s-18.5 27.166 -18.5 44.499c0 18.667 6.16699 34.667 18.5 48s27.833 20 46.5 20
s34.334 -6.33301 47.001 -19s19 -28.334 19 -47.001z" />
    <glyph glyph-name="at" unicode="@" horiz-adv-x="1094" 
d="M1001 408c-14 -33.333 -31.3369 -64.1709 -52.0039 -92.5039s-43.167 -52.666 -67.5 -72.999s-49.833 -36.166 -76.5 -47.499s-53.334 -17 -80.001 -17c-14 0 -26.5 2.66699 -37.5 8s-20.167 12.333 -27.5 21s-12.833 18.834 -16.5 30.501
s-5.83398 23.834 -6.50098 36.501c-12 -14.667 -23.833 -27.834 -35.5 -39.501s-24.834 -21.5 -39.501 -29.5s-31.5 -14.167 -50.5 -18.5s-42.167 -6.5 -69.5 -6.5c-25.333 0 -49.666 7.33301 -72.999 22s-42.666 35.834 -57.999 63.501s-25 61.167 -29 100.5s1 84 15 134
c10.667 38.667 25.334 75.167 44.001 109.5s41 64.5 67 90.5s55.5 46.5 88.5 61.5s69.5 22.5 109.5 22.5c23.333 0 43.5 -4.33301 60.5 -13s31.333 -19.167 43 -31.5s20.834 -25.833 27.501 -40.5s11.667 -28 15 -40l32 99h56l-142 -439c-8 -25.333 -9.16699 -45 -3.5 -59
s14.834 -23.5 27.501 -28.5s26.667 -6.16699 42 -3.5s29 8 41 16c58 38 102.5 86.5 133.5 145.5s46.5 123.833 46.5 194.5c0 54 -12.833 103.167 -38.5 147.5s-58.834 82.333 -99.501 114s-86.334 56 -137.001 73s-101 25.5 -151 25.5c-36.667 0 -73 -5.33301 -109 -16
s-70.5 -25.667 -103.5 -45s-63.5 -42.5 -91.5 -69.5s-52.5 -56.833 -73.5 -89.5s-37.667 -68 -50 -106s-19.166 -77.333 -20.499 -118c-2 -63.333 8.16699 -123.833 30.5 -181.5s53.666 -108.334 93.999 -152.001s87.833 -78.5 142.5 -104.5s113 -39 175 -39
c44.667 0 86.834 5.66699 126.501 17s75.834 26.5 108.501 45.5s61.5 40.667 86.5 65s45.5 49.833 61.5 76.5h59c-16.667 -34 -39 -66 -67 -96s-60.667 -56.5 -98 -79.5s-79.5 -41.167 -126.5 -54.5s-97.833 -20 -152.5 -20c-73.333 0 -140.5 14.167 -201.5 42.5
s-113.333 66.5 -157 114.5s-77.167 103.833 -100.5 167.5s-33.666 130.5 -30.999 200.5c2.66699 68 18.167 131.5 46.5 190.5s65.333 110.333 111 154s98 78 157 103s120.833 37.5 185.5 37.5c62.667 0 119.667 -8.16699 171 -24.5s96.5 -38.666 135.5 -66.999
s71.333 -61.5 97 -99.5s44.334 -78.5 56.001 -121.5s16 -87.333 13 -133s-13.833 -90.167 -32.5 -133.5zM685.996 445.995c15.333 36 24.002 71.501 26.002 106.501s-1 66.333 -9 94s-20.333 50 -37 67s-36 25.5 -58 25.5c-8 0 -18.167 -0.5 -30.5 -1.5
s-25.833 -3.66699 -40.5 -8s-30 -11.166 -46 -20.499s-32 -22.333 -48 -39s-31.5 -37.5 -46.5 -62.5s-28.5 -55.5 -40.5 -91.5c-15.333 -44.667 -22.833 -84.834 -22.5 -120.501s5.66602 -66.167 15.999 -91.5s24.5 -44.833 42.5 -58.5s37 -20.5 57 -20.5
c25.333 0 48.666 3.66699 69.999 11s41.333 19.666 60 36.999s36.667 40 54 68s35 63 53 105z" />
    <glyph glyph-name="A" unicode="A" horiz-adv-x="793" 
d="M741 0l-118 309h-457l-121 -309h-61l378 965h66l375 -965h-62zM397 909l-213 -549h420z" />
    <glyph glyph-name="B" unicode="B" horiz-adv-x="836" 
d="M793 270c0 -47.333 -9.33203 -88.001 -27.999 -122.001s-42.5 -62 -71.5 -84s-61.167 -38.167 -96.5 -48.5s-69.666 -15.5 -102.999 -15.5h-410v965h356c46.667 0 88.5 -4 125.5 -12s69 -21 96 -39s48.667 -41.667 65 -71s27.5 -65.333 33.5 -108
c2.66699 -24 0.666992 -48.333 -6 -73s-17.834 -47.667 -33.501 -69s-36 -39.666 -61 -54.999s-53.833 -25.333 -86.5 -30c33.333 -4 63.666 -12.833 90.999 -26.5s50.5 -31 69.5 -52s33.667 -45.167 44 -72.5s15.5 -56.333 15.5 -87zM702.001 724.999
c0 34 -6.49902 63 -19.499 87s-30.333 43.5 -52 58.5s-46.334 25.833 -74.001 32.5s-56.167 10 -85.5 10h-328v-387h326c30 0 59 3.83301 87 11.5s52.833 19.5 74.5 35.5s39 36.5 52 61.5s19.5 55.167 19.5 90.5zM735.002 269.999c0 66.667 -23.667 117.501 -71 152.501
s-114.333 52.5 -201 52.5h-320v-424h320c40 0 76.667 4.5 110 13.5s62 22.667 86 41s42.667 41.166 56 68.499s20 59.333 20 96z" />
    <glyph glyph-name="C" unicode="C" horiz-adv-x="934" 
d="M895 375c-2 -23.333 -6.50098 -49.333 -13.501 -78s-17.667 -57.667 -32 -87s-32.166 -58 -53.499 -86s-46.833 -52.833 -76.5 -74.5s-63.667 -39.167 -102 -52.5s-81.833 -20 -130.5 -20c-70.667 0 -133.167 14.167 -187.5 42.5s-100.166 66 -137.499 113
s-65.666 101.167 -84.999 162.5s-29.333 125.333 -30 192c-0.666992 71.333 10 137.5 32 198.5s53 113.833 93 158.5s87.5 79.667 142.5 105s115.5 38 181.5 38c51.333 0 96.166 -6.33301 134.499 -19s71.333 -28.667 99 -48s50.667 -41 69 -65s33.333 -47.5 45 -70.5
s20.334 -44 26.001 -63s9.5 -33.5 11.5 -43.5h-58c-7.33301 37.333 -20 71.666 -38 102.999s-40.833 58.5 -68.5 81.5s-60.167 41 -97.5 54s-79 19.5 -125 19.5c-59.333 0 -113 -12 -161 -36s-88.833 -56.333 -122.5 -97s-59.5 -88 -77.5 -142s-27 -111.333 -27 -172
c0 -58.667 8.16699 -115.667 24.5 -171s41 -104.333 74 -147s73.833 -77 122.5 -103s105.667 -39 171 -39c35.333 0 68 5.33301 98 16s57.333 25 82 43s46.5 38.833 65.5 62.5s35.167 48.334 48.5 74.001s23.666 51.5 30.999 77.5s11.666 50.333 12.999 73h59v0z" />
    <glyph glyph-name="D" unicode="D" horiz-adv-x="883" 
d="M831 520c3.33301 -81.333 -4.16895 -154.167 -22.502 -218.5s-46.666 -119 -84.999 -164s-86.666 -79.5 -144.999 -103.5s-126.166 -36 -203.499 -36h-291v967h317c60.667 0 116.5 -8.83301 167.5 -26.5s95.5 -44.667 133.5 -81s68.167 -82.5 90.5 -138.5
s35.166 -122.333 38.499 -199zM771.998 521.999c-4.66699 73.333 -17.168 135.001 -37.501 185.001s-47.5 90.167 -81.5 120.5s-74.167 52.166 -120.5 65.499s-97.5 20 -153.5 20h-236v-862h256c64.667 0 121.334 11.833 170.001 35.5s88.667 56.5 120 98.5
s54 91.833 68 149.5s19 120.167 15 187.5z" />
    <glyph glyph-name="E" unicode="E" horiz-adv-x="743" 
d="M84 0v965h635v-52h-576v-387h541v-51h-541v-424h584v-51h-643z" />
    <glyph glyph-name="F" unicode="F" horiz-adv-x="680" 
d="M143 913v-387h482v-51h-482v-475h-59v965h592v-52h-533z" />
    <glyph glyph-name="G" unicode="G" horiz-adv-x="981" 
d="M854 0l-0.000976562 203.004c-34 -75.333 -81.167 -131.833 -141.5 -169.5s-133.166 -56.5 -218.499 -56.5c-69.333 0 -131.5 12.667 -186.5 38s-101.667 60.166 -140 104.499s-67.666 96.666 -87.999 156.999s-30.5 125.166 -30.5 194.499c0 65.333 9.5 129 28.5 191
s47.333 117 85 165s84.334 86.667 140.001 116s120.167 44 193.5 44c44 0 83.5 -4.66699 118.5 -14s65.833 -21.5 92.5 -36.5s49.667 -32.167 69 -51.5s35.666 -39 48.999 -59c32 -46.667 53.333 -100 64 -160h-55c-10 44 -25.833 82.833 -47.5 116.5s-48 61.834 -79 84.501
s-65.833 39.834 -104.5 51.501s-80 17.5 -124 17.5c-60 0 -113.167 -13.333 -159.5 -40s-85.5 -61.834 -117.5 -105.501s-56.333 -93.334 -73 -149.001s-25 -112.5 -25 -170.5c0 -64 9.5 -123 28.5 -177s45.667 -100.667 80 -140s75.666 -70 123.999 -92
s102.166 -33 161.499 -33c52.667 0 100.834 8 144.501 24s81 40.167 112 72.5s55.167 73.166 72.5 122.499s26.333 107.333 27 174h-348v51h399v-473h-51z" />
    <glyph glyph-name="H" unicode="H" horiz-adv-x="887" 
d="M748 0v475h-605v-475h-59v965h59v-439h605v439h57v-965h-57z" />
    <glyph glyph-name="I" unicode="I" horiz-adv-x="225" 
d="M84 0v965h59v-965h-59z" />
    <glyph glyph-name="J" unicode="J" horiz-adv-x="637" 
d="M553 260c0 -45.333 -5 -85.5029 -15 -120.503s-25.5 -64.833 -46.5 -89.5s-48.333 -43.334 -82 -56.001s-73.834 -19 -120.501 -19c-50 0 -92.5 8.33301 -127.5 25s-62.833 39.834 -83.5 69.501s-35 64.834 -43 105.501s-10 84.667 -6 132h55
c-0.666992 -41.333 1 -79.166 5 -113.499s13.167 -63.666 27.5 -87.999s35.333 -43.166 63 -56.499s64.834 -20 111.501 -20c74.667 0 127.5 18.667 158.5 56s46.5 95.666 46.5 174.999v705h57v-705v0z" />
    <glyph glyph-name="K" unicode="K" horiz-adv-x="813" 
d="M766 0l-426 522l-197 -184v-340l-59 2v965h59v-555l596 555h76l-434 -404l461 -561h-76z" />
    <glyph glyph-name="L" unicode="L" horiz-adv-x="662" 
d="M84 0v965h59v-914h535v-51h-594z" />
    <glyph glyph-name="M" unicode="M" horiz-adv-x="1071" 
d="M930 0v895l-365 -895h-57l-365 893v-893h-59v965h82l373 -902l366 902h82v-965h-57z" />
    <glyph glyph-name="N" unicode="N" horiz-adv-x="897" 
d="M748 0l-605 893v-893h-59v965h72l600 -885v885h59v-965h-67z" />
    <glyph glyph-name="O" unicode="O" horiz-adv-x="981" 
d="M942 506c0 -70 -9 -137 -27 -201s-45.5 -120.5 -82.5 -169.5s-84 -88 -141 -117s-124.5 -43.5 -202.5 -43.5c-72.667 0 -136.834 14.167 -192.501 42.5s-102.5 66.166 -140.5 113.499s-66.667 101.833 -86 163.5s-29 125.834 -29 192.501c0 70 10.333 135.333 31 196
s50.334 113.5 89.001 158.5s86 80.5 142 106.5s119 39 189 39c64.667 0 124.5 -12.167 179.5 -36.5s102.5 -57.833 142.5 -100.5s71.333 -93.5 94 -152.5s34 -122.833 34 -191.5zM883 506c-2.66699 56 -13.167 109.999 -31.5 161.999s-44 97.833 -77 137.5
s-73.167 71.334 -120.5 95.001s-101.333 35.5 -162 35.5c-64 0 -120.5 -12.5 -169.5 -37.5s-90 -58.167 -123 -99.5s-57.833 -89 -74.5 -143s-25 -110.333 -25 -169c0 -62 8.5 -120.833 25.5 -176.5s42 -104.5 75 -146.5s73.5 -75.333 121.5 -100s103 -37 165 -37
c66 0 124.167 13.667 174.5 41s92.5 63.333 126.5 108s59 95.667 75 153s22.667 116.333 20 177z" />
    <glyph glyph-name="P" unicode="P" horiz-adv-x="782" 
d="M760 700c0 -84.667 -25.5 -150.833 -76.5 -198.5s-125.167 -71.5 -222.5 -71.5h-318v-430h-59v965h405c48 0 89.167 -6.83301 123.5 -20.5s62.5 -32.5 84.5 -56.5s38 -52.167 48 -84.5s15 -66.833 15 -103.5zM702 696.001c0 30.667 -4.33398 59.168 -13.001 85.501
s-22.167 49.333 -40.5 69s-42.333 35 -72 46s-65.5 16.5 -107.5 16.5h-326v-432h322c39.333 0 73.833 5.33301 103.5 16s54.334 25.5 74.001 44.5s34.5 41.667 44.5 68s15 55.166 15 86.499z" />
    <glyph glyph-name="Q" unicode="Q" horiz-adv-x="981" 
d="M913 -47l-154.999 106c-35.333 -26.667 -75.333 -47.334 -120 -62.001s-94.334 -22 -149.001 -22c-72.667 0 -136.834 14.167 -192.501 42.5s-102.5 66.166 -140.5 113.499s-66.667 101.833 -86 163.5s-29 125.834 -29 192.501c0 70 10.333 135.333 31 196
s50.334 113.5 89.001 158.5s86 80.5 142 106.5s119 39 189 39c64.667 0 124.5 -12.167 179.5 -36.5s102.5 -57.833 142.5 -100.5s71.333 -93.5 94 -152.5s34 -122.833 34 -191.5c0 -79.333 -11.5 -154.166 -34.5 -224.499s-58.5 -130.833 -106.5 -181.5l145 -108z
M883.001 506c-2.66699 56 -13.167 109.999 -31.5 161.999s-44 97.833 -77 137.5s-73.167 71.334 -120.5 95.001s-101.333 35.5 -162 35.5c-64 0 -120.5 -12.5 -169.5 -37.5s-90 -58.167 -123 -99.5s-57.833 -89 -74.5 -143s-25 -110.333 -25 -169
c0 -62 8.5 -120.833 25.5 -176.5s42 -104.5 75 -146.5s73.5 -75.333 121.5 -100s103 -37 165 -37c44 0 84.5 6.16699 121.5 18.5s71.167 29.833 102.5 52.5l-142 105l31 41l152 -109c46 46 80.167 101.667 102.5 167s31.833 133.333 28.5 204z" />
    <glyph glyph-name="R" unicode="R" horiz-adv-x="836" 
d="M729 0c-5.33301 6.66699 -10 15.6689 -14 27.002c-3.33301 9.33301 -6.33301 21.833 -9 37.5s-4 34.5 -4 56.5v121c0 36.667 -5.33301 67.5 -16 92.5s-25.834 45.167 -45.501 60.5s-43.334 26.333 -71.001 33s-58.5 10 -92.5 10h-334v-438h-59v965h410
c42.667 0 81.334 -5.16699 116.001 -15.5s64.334 -25.5 89.001 -45.5s43.667 -44.833 57 -74.5s20 -63.834 20 -102.501c0 -72 -17.667 -130.167 -53 -174.5s-86 -72.833 -152 -85.5c39.333 -4 71.5 -13.333 96.5 -28s44.5 -34.334 58.5 -59.001s23.5 -54.334 28.5 -89.001
s7.5 -73.667 7.5 -117v-47c0 -24.667 1.5 -45.167 4.5 -61.5s6.5 -29.166 10.5 -38.499c4.66699 -12 10 -21 16 -27h-64zM719 705.002c0 38.667 -6.33203 71.335 -18.999 98.002s-30.834 48.167 -54.501 64.5s-52 28 -85 35s-69.5 10.5 -109.5 10.5h-308v-421h324
c32 0 63.167 3.66699 93.5 11s57.333 19.166 81 35.499s42.5 38.166 56.5 65.499s21 61 21 101z" />
    <glyph glyph-name="S" unicode="S" horiz-adv-x="836" 
d="M782 238c0 -42 -9.00391 -79.168 -27.0039 -111.501s-43 -59.666 -75 -81.999s-69.667 -39.166 -113 -50.499s-90.333 -17 -141 -17c-72 0 -132 10.167 -180 30.5s-86.5 46.833 -115.5 79.5s-49.5 69.334 -61.5 110.001s-18 81.334 -18 122.001h60
c-2.66699 -44.667 2.66602 -84.834 15.999 -120.501s33.5 -66 60.5 -91s60.667 -44.333 101 -58s86.166 -20.5 137.499 -20.5c36 0 72 3.5 108 10.5s68.333 19.167 97 36.5s51.834 40.5 69.501 69.5s26.5 65.167 26.5 108.5c0 37.333 -9.16699 68.333 -27.5 93
s-43.166 45.167 -74.499 61.5s-67.833 29.666 -109.5 39.999s-85.834 19.833 -132.501 28.5c-50.667 10 -95 21.5 -133 34.5s-69.5 30 -94.5 51s-43.833 46.833 -56.5 77.5s-19 68 -19 112c0 38 9.5 71.667 28.5 101s43.833 54 74.5 74s65.334 35 104.001 45
s77.334 15 116.001 15c54 0 100.333 -5.83301 139 -17.5s71 -26.834 97 -45.501s47 -39.334 63 -62.001s28 -45 36 -67s13.333 -42.5 16 -61.5s4 -33.5 4 -43.5h-56c-2.66699 34 -10.334 66 -23.001 96s-31.167 56.167 -55.5 78.5s-54.666 39.833 -90.999 52.5
s-79.5 19 -129.5 19c-31.333 0 -62.666 -3.66699 -93.999 -11s-59.5 -18.666 -84.5 -33.999s-45.5 -34.5 -61.5 -57.5s-24 -50.167 -24 -81.5c0 -42 7 -75.833 21 -101.5s32.667 -46.167 56 -61.5s50.333 -27.166 81 -35.499s62.667 -16.166 96 -23.499
c63.333 -13.333 119.333 -26.5 168 -39.5s89.334 -29.833 122.001 -50.5s57.334 -46.834 74.001 -78.501s25 -72.834 25 -123.501z" />
    <glyph glyph-name="T" unicode="T" horiz-adv-x="688" 
d="M371 913v-913h-58v913h-331v52h725v-52h-336z" />
    <glyph glyph-name="U" unicode="U" horiz-adv-x="891" 
d="M807 381c0 -62.667 -7.33203 -118.997 -21.999 -168.997s-37 -92.5 -67 -127.5s-68.167 -62 -114.5 -81s-100.833 -28.5 -163.5 -28.5c-63.333 0 -117.333 9.66699 -162 29s-81.5 46.666 -110.5 81.999s-50.167 78 -63.5 128s-20 105.667 -20 167v584h59v-584
c0 -116 25.167 -204 75.5 -264s124.166 -90 221.499 -90c56 0 103.667 8.66699 143 26s71.333 41.666 96 72.999s42.667 68.666 54 111.999s17 91 17 143v584h57v-584v0z" />
    <glyph glyph-name="V" unicode="V" horiz-adv-x="737" 
d="M401 0h-67l-352 965h61l326 -916l325 916h58z" />
    <glyph glyph-name="W" unicode="W" horiz-adv-x="1178" 
d="M913 0h-65l-262 920l-254 -920h-68l-272 965h61l246 -904l252 904h74l256 -902l243 902h62z" />
    <glyph glyph-name="X" unicode="X" horiz-adv-x="737" 
d="M688 0l-321 453l-320 -453h-70l357 498l-332 467h68l297 -420l305 420h69l-333 -467l352 -498h-72z" />
    <glyph glyph-name="Y" unicode="Y" horiz-adv-x="760" 
d="M408 403v-403h-58v403l-379 562h68l340 -508l344 508h65z" />
    <glyph glyph-name="Z" unicode="Z" horiz-adv-x="711" 
d="M-2 0v49l639 864h-600v52h663v-52l-643 -862h656v-51h-715z" />
    <glyph glyph-name="bracketleft" unicode="[" horiz-adv-x="326" 
d="M127 -207v1233h184v-43h-133v-1147h133v-43h-184z" />
    <glyph glyph-name="backslash" unicode="\" horiz-adv-x="451" 
d="M412 -23l-430 1010h55l430 -1010h-55z" />
    <glyph glyph-name="bracketright" unicode="]" horiz-adv-x="326" 
d="M14 -207v43h133v1147h-133v43h185v-1233h-185z" />
    <glyph glyph-name="asciicircum" unicode="^" horiz-adv-x="811" 
d="M702 319l-294 570l-299 -570h-56l318 613h71l316 -613h-56z" />
    <glyph glyph-name="underscore" unicode="_" horiz-adv-x="748" 
d="M0 -152v52h748v-52h-748z" />
    <glyph glyph-name="grave" unicode="`" horiz-adv-x="225" 
d="M141 799l-182 188h70l161 -188h-49z" />
    <glyph glyph-name="a" unicode="a" horiz-adv-x="662" 
d="M655 8c-11.333 -5.33301 -24.501 -8.33496 -39.501 -9.00195s-29.333 1.83301 -43 7.5s-25.167 14.667 -34.5 27s-14 28.5 -14 48.5v57c-11.333 -26 -25.833 -48.667 -43.5 -68s-37.667 -35.166 -60 -47.499s-46.333 -21.666 -72 -27.999s-51.834 -9.5 -78.501 -9.5
c-29.333 0 -57.666 2.66699 -84.999 8s-51.666 15.166 -72.999 29.499s-38.5 34.333 -51.5 60s-19.5 59.167 -19.5 100.5c0 32 6 59.833 18 83.5s28.333 43.667 49 60s44.834 29 72.501 38s57.5 14.833 89.5 17.5c36 2.66699 69.5 5.33398 100.5 8.00098
s57.833 7.16699 80.5 13.5s40.5 15.5 53.5 27.5s19.5 29 19.5 51v43c0 28 -5.83301 51 -17.5 69s-26.834 32.167 -45.501 42.5s-39.667 17.333 -63 21s-46.666 5.5 -69.999 5.5c-33.333 0 -62 -4.5 -86 -13.5s-44 -21.5 -60 -37.5s-28.5 -35.167 -37.5 -57.5
s-14.833 -46.5 -17.5 -72.5h-51c1.33301 38.667 8.5 72.167 21.5 100.5s30.333 52 52 71s47 33.167 76 42.5s60.167 14 93.5 14c30 0 60.167 -3.16699 90.5 -9.5s57.666 -16.166 81.999 -29.499s44 -30.833 59 -52.5s22.5 -47.834 22.5 -78.501v-428c0 -10 1 -20 3 -30
s6 -18.333 12 -25s14.333 -11 25 -13s24.667 0 42 6v-43zM523.999 396.998c-7.33301 -11.333 -20.833 -20.334 -40.5 -27.001s-41.5 -12 -65.5 -16s-48.167 -7 -72.5 -9l-60.5 -5c-29.333 -3.33301 -56 -8.33301 -80 -15s-44.5 -16.167 -61.5 -28.5
s-30.167 -27.666 -39.5 -45.999s-14 -40.5 -14 -66.5c0 -47.333 16.5 -85 49.5 -113s79.5 -42 139.5 -42c37.333 0 71 6.66699 101 20s55.667 31.333 77 54s37.833 49 49.5 79s17.5 61.333 17.5 94v121z" />
    <glyph glyph-name="b" unicode="b" horiz-adv-x="737" 
d="M692 371c0 -124.667 -26.501 -220.333 -79.501 -287s-127.5 -100 -223.5 -100c-56.667 0 -106.667 15 -150 45s-77.333 72.333 -102 127v-156h-51v965h51v-418c22.667 50 55.834 89.833 99.501 119.5s96.5 44.5 158.5 44.5c52 0 96.833 -9.5 134.5 -28.5
s68.5 -44.167 92.5 -75.5s41.667 -67.5 53 -108.5s17 -83.5 17 -127.5zM642.999 358.001c0 38.667 -4.83105 76.499 -14.498 113.499s-24.834 70 -45.501 99s-47 52.167 -79 69.5s-70.333 26 -115 26c-42.667 0 -79.667 -8.33301 -111 -25s-57.333 -38.667 -78 -66
s-36 -58.666 -46 -93.999s-15 -72 -15 -110c0 -48 5.16699 -92.667 15.5 -134s26 -77.5 47 -108.5s47.167 -55.333 78.5 -73s67.666 -26.5 108.999 -26.5c48.667 0 89.334 10.5 122.001 31.5s58.667 47.667 78 80s33.166 67.833 41.499 106.5s12.5 75.667 12.5 111z" />
    <glyph glyph-name="c" unicode="c" horiz-adv-x="688" 
d="M645 244c-4.66699 -35.333 -14.502 -68.8311 -29.502 -100.498s-34.667 -59.5 -59 -83.5s-53.5 -43 -87.5 -57s-72.333 -21 -115 -21c-48.667 0 -92.167 9.16699 -130.5 27.5s-70.666 43.666 -96.999 75.999s-46.5 71 -60.5 116s-21 94.5 -21 148.5
c0 46 6.33301 90.833 19 134.5s31.667 82.167 57 115.5s57.5 60.166 96.5 80.499s84.5 30.5 136.5 30.5c47.333 0 88.333 -6.33301 123 -19s63.5 -29.834 86.5 -51.501s40.5 -46.5 52.5 -74.5s19 -57 21 -87h-49c-3.33301 24 -10 47.167 -20 69.5s-24.333 42.333 -43 60
s-42.167 31.667 -70.5 42s-61.833 15.5 -100.5 15.5c-40 0 -76 -8.5 -108 -25.5s-59.167 -40 -81.5 -69s-39.666 -62.5 -51.999 -100.5s-18.5 -78.333 -18.5 -121c0 -48 5.83301 -91.667 17.5 -131s28.5 -73.166 50.5 -101.499s49.167 -50.166 81.5 -65.499
s69.166 -23 110.499 -23c33.333 0 63.833 5.5 91.5 16.5s51.834 26.167 72.501 45.5s37.5 42.166 50.5 68.499s21.5 54.5 25.5 84.5h51v0z" />
    <glyph glyph-name="d" unicode="d" horiz-adv-x="737" 
d="M600 0v156.004h-2c-2.66699 -9.33301 -9.16699 -23.5 -19.5 -42.5s-25.833 -38.167 -46.5 -57.5s-46.667 -36.166 -78 -50.499s-69.333 -21.5 -114 -21.5c-16 0 -34.167 1.66699 -54.5 5s-41.5 10 -63.5 20s-43.5 23.667 -64.5 41s-39.833 40.166 -56.5 68.499
s-30.167 62.666 -40.5 102.999s-15.5 88.166 -15.5 143.499c0 48 6 93 18 135s30.167 78.667 54.5 110s55 56 92 74s80.5 27 130.5 27c28 0 55.333 -3.5 82 -10.5s51.5 -17.333 74.5 -31s43.333 -30.834 61 -51.501s31.167 -44.334 40.5 -71.001h2v418h51v-965h-51z
M598 365.004c0 43.333 -5.16895 83.501 -15.502 120.501s-26.166 68.833 -47.499 95.5s-48.166 47.5 -80.499 62.5s-70.5 22.5 -114.5 22.5c-40.667 0 -76.334 -8.5 -107.001 -25.5s-56.334 -39.5 -77.001 -67.5s-36.167 -60.167 -46.5 -96.5s-15.5 -73.5 -15.5 -111.5
c0 -40 4.5 -80 13.5 -120s23.333 -76 43 -108s45 -58 76 -78s68.833 -30 113.5 -30c46 0 85.333 9.5 118 28.5s59.334 44 80.001 75s35.834 66.667 45.501 107s14.5 82.166 14.5 125.499z" />
    <glyph glyph-name="e" unicode="e" horiz-adv-x="688" 
d="M94 340c0 -46.667 5.66309 -89.001 16.9961 -127.001s28 -70.667 50 -98s48.667 -48.5 80 -63.5s67 -22.5 107 -22.5c36.667 0 69 6 97 18s51.833 27.833 71.5 47.5s35.334 41.834 47.001 66.501s19.834 49.667 24.501 75h51c-6.66699 -38 -17.5 -72.5 -32.5 -103.5
s-34.5 -57.5 -58.5 -79.5s-52.667 -39 -86 -51s-71.333 -18 -114 -18c-54 0 -100.167 9.83301 -138.5 29.5s-69.666 46 -93.999 79s-42.166 70.833 -53.499 113.5s-17 87.334 -17 134.001c0 48.667 6.16699 95.334 18.5 140.001s31 84.167 56 118.5s56.5 61.666 94.5 81.999
s82.667 30.5 134 30.5c41.333 0 77.666 -6.16699 108.999 -18.5s58.333 -28.5 81 -48.5s41.334 -43 56.001 -69s26 -52.833 34 -80.5s13.167 -54.834 15.5 -81.501s2.83301 -51 1.5 -73h-551zM593.996 384.999c0 28 -4.83301 58.333 -14.5 91s-24.5 63 -44.5 91
s-45.5 51.5 -76.5 70.5s-67.833 28.5 -110.5 28.5c-44 0 -82 -10 -114 -30s-58.333 -44.5 -79 -73.5s-36 -59.667 -46 -92s-15 -60.833 -15 -85.5h500z" />
    <glyph glyph-name="f" unicode="f" horiz-adv-x="319" 
d="M332 922c-14.667 4 -31.333 7.33203 -50 9.99902s-38.334 0 -59.001 -8c-21.333 -8.66699 -35.166 -20.5 -41.499 -35.5s-9.5 -30.5 -9.5 -46.5v-148h141v-45h-141v-649h-49v649h-123v45h123v148c0 36.667 10.833 67.334 32.5 92.001s55.167 39 100.5 43
c8.66699 1.33301 17.5 1.5 26.5 0.5s17.167 -2.16699 24.5 -3.5l25 -5v-47v0z" />
    <glyph glyph-name="g" unicode="g" horiz-adv-x="711" 
d="M637 41c0 -55.333 -6.50293 -102.335 -19.5029 -141.002s-32.167 -70.167 -57.5 -94.5s-56.833 -42 -94.5 -53s-80.834 -16.5 -129.501 -16.5c-50 0 -91.333 6.33301 -124 19s-58.667 29.167 -78 49.5s-33.166 43.333 -41.499 69s-13.833 51.5 -16.5 77.5h53
c0 -19.333 4 -39.166 12 -59.499s20.5 -38.833 37.5 -55.5s38.5 -30.334 64.5 -41.001s57 -16 93 -16c82.667 0 145 20.833 187 62.5s63 108.167 63 199.5v145c-51.333 -106 -134.666 -159 -249.999 -159c-54 0 -99.5 9.83301 -136.5 29.5s-67 45.834 -90 78.501
s-39.5 70 -49.5 112s-15 85.333 -15 130c0 46.667 6.83301 90.334 20.5 131.001s33.334 76 59.001 106s56.334 53.667 92.001 71s75.5 26 119.5 26c58 0 109 -13.667 153 -41s76.333 -67 97 -119v143h51v-653zM585.997 376.998c0 37.333 -5.16699 73.332 -15.5 107.999
s-26 65.5 -47 92.5s-47.167 48.5 -78.5 64.5s-67.666 24 -108.999 24c-38.667 0 -73 -8.33301 -103 -25s-55.333 -38.5 -76 -65.5s-36.334 -57.833 -47.001 -92.5s-16 -70 -16 -106c0 -41.333 4.83301 -80.5 14.5 -117.5s24.5 -69.5 44.5 -97.5s45.167 -50.333 75.5 -67
s66.166 -25 107.499 -25c38 0 72.5 7 103.5 21s57.333 34.333 79 61s38.334 58.834 50.001 96.501s17.5 80.5 17.5 128.5z" />
    <glyph glyph-name="h" unicode="h" horiz-adv-x="688" 
d="M561 0l0.00195312 429.999c0 77.333 -14.333 136 -43 176s-74.334 60 -137.001 60c-44.667 0 -83 -7.66699 -115 -23s-58.5 -36 -79.5 -62s-36.5 -56 -46.5 -90s-15 -69.333 -15 -106v-385h-51v965h51v-418c10.667 28.667 25.334 53.334 44.001 74.001
s39.667 37.667 63 51s48.166 23.166 74.499 29.499s53.166 9.5 80.499 9.5c68.667 0 123.667 -22.167 165 -66.5s62 -111.166 62 -200.499v-444h-53z" />
    <glyph glyph-name="i" unicode="i" horiz-adv-x="223" 
d="M86 825v140h51v-140h-51zM86 0v694h51v-694h-51z" />
    <glyph glyph-name="j" unicode="j" horiz-adv-x="223" 
d="M86 825v140h51v-140h-51zM137 -72c0 -36 -3.83301 -66.001 -11.5 -90.001s-19 -42.667 -34 -56s-34 -22.333 -57 -27s-49.5 -5.66699 -79.5 -3v43c19.333 -1.33301 37 -1.5 53 -0.5s29.833 5.83301 41.5 14.5s20.667 22.334 27 41.001s9.5 44.667 9.5 78v766h51v-766z
" />
    <glyph glyph-name="k" unicode="k" horiz-adv-x="614" 
d="M573 0l-288 395l-158 -135v-260h-51v965h51v-639l422 368h69l-294 -258l317 -436h-68z" />
    <glyph glyph-name="l" unicode="l" horiz-adv-x="223" 
d="M86 0v965h51v-965h-51z" />
    <glyph glyph-name="m" unicode="m" horiz-adv-x="1053" 
d="M930 0v475c0 26 -3.16699 50.667 -9.5 74s-16 43.666 -29 60.999s-29.833 31 -50.5 41s-45 15 -73 15c-30 0 -58.167 -5.33301 -84.5 -16s-49.333 -26.5 -69 -47.5s-35.167 -46.833 -46.5 -77.5s-17 -66.334 -17 -107.001v-418h-49v465c0 24.667 -2.5 49.167 -7.5 73.5
s-13.667 45.833 -26 64.5s-28.833 33.834 -49.5 45.501s-47 17.5 -79 17.5c-32.667 0 -62.167 -7.16699 -88.5 -21.5s-48.666 -32.666 -66.999 -54.999s-32.5 -47 -42.5 -74s-15 -53.5 -15 -79.5v-436h-51v694h51v-141c8 24.667 19.333 46.667 34 66s31.5 35.833 50.5 49.5
s39.5 24.167 61.5 31.5s44.333 11 67 11c56.667 0 102.167 -12.667 136.5 -38s59.166 -62 74.499 -110c16.667 45.333 43 81.333 79 108s82 40 138 40c38.667 0 71.5 -6.5 98.5 -19.5s48.833 -30.5 65.5 -52.5s28.667 -47.167 36 -75.5s11 -57.833 11 -88.5v-475h-49z" />
    <glyph glyph-name="n" unicode="n" horiz-adv-x="688" 
d="M561 0l-0.000976562 452.999c0 27.333 -3.16699 53.833 -9.5 79.5s-16.833 48.334 -31.5 68.001s-34 35.5 -58 47.5s-53.667 18 -89 18c-42 0 -78.5 -8.16699 -109.5 -24.5s-56.833 -37.333 -77.5 -63s-36 -54.334 -46 -86.001s-15 -62.834 -15 -93.501v-399h-51v694h51
v-147c10 27.333 24 51.333 42 72s38.333 37.834 61 51.501s46.5 23.834 71.5 30.501s49.5 10 73.5 10c44.667 0 82.334 -6.66699 113.001 -20s55.5 -31.5 74.5 -54.5s32.667 -50.333 41 -82s12.5 -65.5 12.5 -101.5v-453h-53z" />
    <glyph glyph-name="o" unicode="o" horiz-adv-x="711" 
d="M668 356c0 -54 -7 -103.834 -21 -149.501s-34.333 -85.167 -61 -118.5s-59.5 -59.333 -98.5 -78s-83.5 -28 -133.5 -28c-47.333 0 -90 9.66699 -128 29s-70.667 45.666 -98 78.999s-48.333 72.833 -63 118.5s-22 94.834 -22 147.501c0 46 6.83301 90.5 20.5 133.5
s33.667 80.833 60 113.5s58.833 58.834 97.5 78.501s83 29.5 133 29.5c48 0 91.333 -9 130 -27s71.667 -43 99 -75s48.333 -69.667 63 -113s22 -90 22 -140zM618 355.999c0 39.333 -5.83301 77.667 -17.5 115s-28.667 70.5 -51 99.5s-49.833 52.167 -82.5 69.5
s-70.334 26 -113.001 26c-39.333 0 -75 -8.5 -107 -25.5s-59.5 -39.833 -82.5 -68.5s-40.833 -61.667 -53.5 -99s-19 -76.333 -19 -117s5.16699 -80.667 15.5 -120s26.333 -74.333 48 -105s48.834 -55.334 81.501 -74.001s71.667 -28 117 -28c44 0 82.5 9.33301 115.5 28
s60.5 43.334 82.5 74.001s38.5 65.667 49.5 105s16.5 79.333 16.5 120z" />
    <glyph glyph-name="p" unicode="p" horiz-adv-x="737" 
d="M692 336c0 -44 -5.99902 -87.165 -17.999 -129.498s-30.333 -80 -55 -113s-56.167 -59.5 -94.5 -79.5s-83.5 -30 -135.5 -30c-28 0 -55.167 3 -81.5 9s-50.666 15.5 -72.999 28.5s-41.833 29.833 -58.5 50.5s-29.667 45.667 -39 75v-395h-51v942h51v-155
c24.667 54 58.667 96.167 102 126.5s93.333 45.5 150 45.5c45.333 0 86.666 -7.83301 123.999 -23.5s69.166 -39.334 95.499 -71.001s46.833 -70.834 61.5 -117.501s22 -101 22 -163zM643.001 336.002c0 35.333 -4.16992 72.332 -12.5029 110.999
s-22.166 74.334 -41.499 107.001s-45.333 59.5 -78 80.5s-73.334 31.5 -122.001 31.5c-41.333 0 -77.833 -7.66699 -109.5 -23s-58 -37.666 -79 -66.999s-36.833 -65.166 -47.5 -107.499s-16 -90.5 -16 -144.5c0 -40.667 4.83301 -78.834 14.5 -114.501
s24.834 -66.834 45.501 -93.501s46.834 -47.834 78.501 -63.501s69.5 -23.5 113.5 -23.5c44.667 0 83 8.66699 115 26s58.333 40.333 79 69s35.834 61.334 45.501 98.001s14.5 74.667 14.5 114z" />
    <glyph glyph-name="q" unicode="q" horiz-adv-x="737" 
d="M600 -248l0.00292969 395.001c-16 -29.333 -32.833 -54.333 -50.5 -75s-36.834 -37.5 -57.501 -50.5s-42.834 -22.5 -66.501 -28.5s-49.5 -9 -77.5 -9c-52 0 -97.167 10 -135.5 30s-69.833 46.5 -94.5 79.5s-43 70.667 -55 113s-18 85.5 -18 129.5
c0 62.667 7.16699 117.5 21.5 164.5s34.833 86.167 61.5 117.5s58.667 54.666 96 69.999s78.666 23 123.999 23c56.667 0 106.667 -15.167 150 -45.5s77.333 -72.5 102 -126.5v155h51v-942h-51zM600.003 354.001c0 39.333 -5.33594 77.833 -16.0029 115.5
s-26.5 71 -47.5 100s-47.333 52.333 -79 70s-68.167 26.5 -109.5 26.5c-48.667 0 -89.167 -10 -121.5 -30s-58.333 -45.833 -78 -77.5s-33.667 -67.167 -42 -106.5s-12.5 -78 -12.5 -116c0 -39.333 4.83301 -77.333 14.5 -114s24.834 -69.334 45.501 -98.001
s47 -51.667 79 -69s70.333 -26 115 -26c44 0 81.833 9.33301 113.5 28s57.834 43.334 78.501 74.001s35.834 65.5 45.501 104.5s14.5 78.5 14.5 118.5z" />
    <glyph glyph-name="r" unicode="r" horiz-adv-x="367" 
d="M389 647c-41.333 2.66699 -78.165 -2.66504 -110.498 -15.998s-60 -32.333 -83 -57s-40.5 -53.834 -52.5 -87.501s-18 -69.5 -18 -107.5v-379h-51v694h51v-153c12 29.333 29.667 55.333 53 78c10 10 21.667 19.667 35 29s28.666 17.666 45.999 24.999
s36.666 13.333 57.999 18s45.333 7 72 7v-51v0z" />
    <glyph glyph-name="s" unicode="s" horiz-adv-x="637" 
d="M590 178c0 -32.667 -6.67188 -61.1611 -20.0049 -85.4941s-32 -44.5 -56 -60.5s-52.667 -28 -86 -36s-70.333 -12 -111 -12c-45.333 0 -84.833 7 -118.5 21s-61.5 32.5 -83.5 55.5s-38.5 49.333 -49.5 79s-16.5 60.167 -16.5 91.5h49c0 -23.333 4.66699 -47 14 -71
s23.333 -45.667 42 -65s41.5 -35.166 68.5 -47.499s58.5 -18.5 94.5 -18.5c26.667 0 53.334 2.33301 80.001 7s50.667 12.667 72 24s38.666 26.5 51.999 45.5s20 43.167 20 72.5c0 21.333 -4.33301 40.166 -13 56.499s-22.5 30.666 -41.5 42.999s-43.333 23.166 -73 32.499
s-65.834 18 -108.501 26c-28 4.66699 -55.833 11.167 -83.5 19.5s-52.667 19.666 -75 33.999s-40.333 32.166 -54 53.499s-20.5 47.666 -20.5 78.999c0 62 21.333 109 64 141s103 48 181 48c50.667 0 92.334 -6.66699 125.001 -20s58.334 -30.5 77.001 -51.5
s31.667 -44.833 39 -71.5s11 -53 11 -79h-49c0 54.667 -17.667 97.834 -53 129.501s-85.333 47.5 -150 47.5c-23.333 0 -46.666 -2.16699 -69.999 -6.5s-44.166 -12 -62.499 -23s-33.166 -25.833 -44.499 -44.5s-17 -42 -17 -70c0 -21.333 5.5 -39.333 16.5 -54
s25.167 -27 42.5 -37s36.833 -18.167 58.5 -24.5s43.167 -12.166 64.5 -17.499c40.667 -10 78.334 -18.833 113.001 -26.5s64.667 -18.334 90 -32.001s45.333 -32.334 60 -56.001s22 -55.834 22 -96.501z" />
    <glyph glyph-name="t" unicode="t" horiz-adv-x="344" 
d="M176 649v-495c0 -24 3.5 -43.5 10.5 -58.5s16.833 -26.5 29.5 -34.5s28.167 -13.167 46.5 -15.5s38.833 -2.5 61.5 -0.5v-47c-27.333 -1.33301 -53 -0.5 -77 2.5s-44.833 9.83301 -62.5 20.5s-31.667 26.167 -42 46.5s-15.5 46.833 -15.5 79.5v502h-127v45h127v217h49
v-217h150v-45h-150z" />
    <glyph glyph-name="u" unicode="u" horiz-adv-x="688" 
d="M561 0l0.00195312 152c-19.333 -56 -50.833 -98 -94.5 -126s-94.834 -42 -153.501 -42c-80.667 0 -140.667 22.5 -180 67.5s-59 111.833 -59 200.5v442h51v-442c0 -40.667 4.66699 -75.167 14 -103.5s22.333 -51.333 39 -69s36.5 -30.5 59.5 -38.5s48.167 -12 75.5 -12
c42.667 0 79.667 8.16699 111 24.5s57.166 37.5 77.499 63.5s35.333 55.167 45 87.5s14.5 64.5 14.5 96.5v393h53v-694h-53z" />
    <glyph glyph-name="v" unicode="v" horiz-adv-x="588" 
d="M334 0h-64l-272 694h57l248 -637l234 637h53z" />
    <glyph glyph-name="w" unicode="w" horiz-adv-x="934" 
d="M717 0h-64l-186 635l-191 -635h-63l-215 694h53l195 -639l186 639h68l188 -639l191 639h57z" />
    <glyph glyph-name="x" unicode="x" horiz-adv-x="588" 
d="M528 0l-233 326l-240 -326h-63l266 365l-248 329h70l215 -291l213 291h65l-245 -329l268 -365h-68z" />
    <glyph glyph-name="y" unicode="y" horiz-adv-x="588" 
d="M283 -123c-10.667 -27.333 -21.668 -49.3311 -33.001 -65.998s-25 -29.334 -41 -38.001s-35.667 -14.334 -59 -17.001s-52.333 -4 -87 -4v43c28 0 51.5 1.66699 70.5 5s35.333 9.5 49 18.5s25.334 21.5 35.001 37.5s19.167 36.667 28.5 62l30 86l-284 690h59l254 -631
l234 631h55z" />
    <glyph glyph-name="z" unicode="z" horiz-adv-x="563" 
d="M12 0v49l457 600h-420v45h483v-49l-460 -600h479v-45h-539z" />
    <glyph glyph-name="braceleft" unicode="{" horiz-adv-x="410" 
d="M336 -211c-26.667 0 -49.3359 4.50195 -68.0029 13.502s-34 22 -46 39s-20.667 37.5 -26 61.5s-8 51 -8 81v192c0 56.667 -8.83301 106.167 -26.5 148.5s-42.167 70.833 -73.5 85.5c32 13.333 56.667 41.666 74 84.999s26 100.333 26 171v184c0 14 1.66699 31.333 5 52
s9.83301 40.5 19.5 59.5s22.834 35.167 39.501 48.5s38.334 20 65.001 20h58v-43h-37c-35.333 0 -60.5 -13.167 -75.5 -39.5s-22.5 -64.166 -22.5 -113.499v-176c0 -28.667 -1.33301 -54.334 -4 -77.001s-7.5 -43.667 -14.5 -63s-16.667 -37.833 -29 -55.5
s-28.166 -35.834 -47.499 -54.501c30 -21.333 53.333 -51.5 70 -90.5s25 -82.5 25 -130.5v-191c0 -60.667 8 -103.167 24 -127.5s42 -36.5 78 -36.5h33v-43h-39z" />
    <glyph glyph-name="bar" unicode="|" horiz-adv-x="301" 
d="M125 -23v1010h51v-1010h-51z" />
    <glyph glyph-name="braceright" unicode="}" horiz-adv-x="410" 
d="M319 410c-30.667 -14.667 -55.001 -43.1689 -73.001 -85.502s-27 -91.833 -27 -148.5v-192c0 -30 -2.66699 -57 -8 -81s-13.833 -44.5 -25.5 -61.5s-26.834 -30 -45.501 -39s-41.334 -13.5 -68.001 -13.5h-39v43h33c36 0 62 12.167 78 36.5s24 66.833 24 127.5v191
c0 48 8.16699 91.5 24.5 130.5s39.5 69.167 69.5 90.5c-19.333 18.667 -35.166 36.834 -47.499 54.501s-22 36.167 -29 55.5s-11.667 40.333 -14 63s-3.5 48.334 -3.5 77.001v176c0 49.333 -7.66699 87.166 -23 113.499s-40.333 39.5 -75 39.5h-37v43h57
c26.667 0 48.334 -6.66699 65.001 -20s29.834 -29.5 39.501 -48.5s16.167 -38.833 19.5 -59.5s5 -38 5 -52v-184c0 -70.667 8.66699 -127.667 26 -171s42 -71.666 74 -84.999z" />
    <glyph glyph-name="asciitilde" unicode="~" horiz-adv-x="811" 
d="M713 381l-27.4951 -35.4971c-10.333 -13 -22 -25.333 -35 -37s-27.333 -21.334 -43 -29.001s-32.5 -11.5 -50.5 -11.5c-26.667 0 -54 4.83301 -82 14.5s-54.667 20.167 -80 31.5l-70.5 31.5c-21.667 9.66699 -39.167 14.5 -52.5 14.5
c-20.667 0 -38.334 -3.5 -53.001 -10.5s-27.334 -15.667 -38.001 -26s-19.5 -21.333 -26.5 -33s-12.833 -21.834 -17.5 -30.501l-39 41c23.333 42 49.666 71 78.999 87s61 24 95 24c27.333 0 52.666 -4.83301 75.999 -14.5s46.333 -20.334 69 -32.001
s45.5 -22.334 68.5 -32.001s48.167 -14.5 75.5 -14.5c10 0 20.667 3.5 32 10.5s22.166 15.833 32.499 26.5s19.833 21.834 28.5 33.501s16 22.5 22 32.5l37 -41v0z" />
    <glyph glyph-name="currency" unicode="&#xa4;" horiz-adv-x="840" 
d="M422 729c-64 0 -117.334 -22.333 -160.001 -67c-43.333 -49.333 -65 -102.666 -65 -159.999c0 -62.667 21 -117.334 63 -164.001c43.333 -45.333 97.333 -68 162 -68c61.333 0 114 22.667 158 68c42 42 63 96.667 63 164c0 30.667 -5.5 59.667 -16.5 87
s-26.167 51.333 -45.5 72s-42.666 37.167 -69.999 49.5s-57 18.5 -89 18.5zM155.999 309c-41.333 55.333 -62.001 119.666 -62.001 192.999c0 76 20.667 138.667 62 188l-148 150l76 71l145 -145c53.333 39.333 117.666 59 192.999 59c36.667 0 71.834 -5.33301 105.501 -16
s61.167 -25 82.5 -43l150 145l71 -71l-145 -150c39.333 -53.333 59 -116 59 -188c0 -75.333 -19.667 -139.666 -59 -192.999l145 -145l-71 -76l-150 148c-10 -8.66699 -22 -16.5 -36 -23.5s-29.667 -13.833 -47 -20.5c-35.333 -12 -70.333 -18 -105 -18
c-73.333 0 -137.666 20.667 -192.999 62l-145 -148l-76 76z" />
    <glyph glyph-name="FL00A9h" unicode="&#xa9;" horiz-adv-x="1135" 
d="M1069 483c0 -70 -13.167 -136 -39.5 -198s-62.333 -116 -108 -162s-99 -82.5 -160 -109.5s-126.5 -40.5 -196.5 -40.5c-69.333 0 -134.666 13.5 -195.999 40.5s-114.833 63.5 -160.5 109.5s-81.667 100 -108 162s-39.5 128 -39.5 198s13.167 135.833 39.5 197.5
s62.333 115.5 108 161.5s99.167 82.333 160.5 109s126.666 40 195.999 40c70 0 135.5 -13.333 196.5 -40s114.333 -63 160 -109s81.667 -99.833 108 -161.5s39.5 -127.5 39.5 -197.5zM1024 483c0 64 -12 124.167 -36 180.5s-56.833 105.333 -98.5 147
s-90.334 74.667 -146.001 99s-115.167 36.5 -178.5 36.5s-122.666 -12.167 -177.999 -36.5s-103.5 -57.333 -144.5 -99s-73.5 -90.667 -97.5 -147s-36 -116.5 -36 -180.5s12 -124.167 36 -180.5s56.5 -105.333 97.5 -147s89.167 -74.667 144.5 -99
s114.666 -36.5 177.999 -36.5s122.833 12.167 178.5 36.5s104.334 57.333 146.001 99s74.5 90.667 98.5 147s36 116.5 36 180.5zM786 592c-6.66699 24.667 -15.668 47.167 -27.001 67.5s-25.5 37.833 -42.5 52.5s-37 26 -60 34s-49.167 12 -78.5 12
c-41.333 0 -77.5 -7.33301 -108.5 -22s-57 -34.5 -78 -59.5s-36.833 -54 -47.5 -87s-16 -67.833 -16 -104.5c0 -36 5.66699 -70.667 17 -104s27.5 -62.833 48.5 -88.5s46.833 -46 77.5 -61s65.334 -22.5 104.001 -22.5c58.667 0 105.167 15.333 139.5 46s57.5 72 69.5 124
h50c-4.66699 -32 -13.834 -61.333 -27.501 -88s-31.5 -49.5 -53.5 -68.5s-48 -33.833 -78 -44.5s-64 -16 -102 -16c-45.333 0 -86.166 8.5 -122.499 25.5s-67.5 40 -93.5 69s-46 62.667 -60 101s-21 78.833 -21 121.5c0 43.333 6.33301 84.5 19 123.5
s31.5 73.167 56.5 102.5s56.167 52.666 93.5 69.999s80.666 26 129.999 26c36.667 0 70.334 -5.33301 101.001 -16s57.5 -25.5 80.5 -44.5s41.5 -41.167 55.5 -66.5s22 -52.666 24 -81.999h-50z" />
    <glyph glyph-name="guillemotleft" unicode="&#xab;" horiz-adv-x="514" 
d="M420 78l-158 287l158 286l14 -35l-94 -251l94 -250zM352 2l-295 363l295 364l13 -41l-218 -323l218 -322z" />
    <glyph glyph-name="logicalnot" unicode="&#xac;" horiz-adv-x="748" 
d="M595 119v178h-534v90h616v-268h-82z" />
    <glyph glyph-name="minus" unicode="&#xad;" horiz-adv-x="748" 
d="M61 315v52h625v-52h-625z" />
    <glyph glyph-name="registered" unicode="&#xae;" horiz-adv-x="1135" 
d="M1069 483c0 -70 -13.167 -136 -39.5 -198s-62.333 -116 -108 -162s-99 -82.5 -160 -109.5s-126.5 -40.5 -196.5 -40.5c-69.333 0 -134.666 13.5 -195.999 40.5s-114.833 63.5 -160.5 109.5s-81.667 100 -108 162s-39.5 128 -39.5 198s13.167 135.833 39.5 197.5
s62.333 115.5 108 161.5s99.167 82.333 160.5 109s126.666 40 195.999 40c70 0 135.5 -13.333 196.5 -40s114.333 -63 160 -109s81.667 -99.833 108 -161.5s39.5 -127.5 39.5 -197.5zM1024 483c0 64 -12 124.167 -36 180.5s-56.833 105.333 -98.5 147
s-90.334 74.667 -146.001 99s-115.167 36.5 -178.5 36.5s-122.666 -12.167 -177.999 -36.5s-103.5 -57.333 -144.5 -99s-73.5 -90.667 -97.5 -147s-36 -116.5 -36 -180.5s12 -124.167 36 -180.5s56.5 -105.333 97.5 -147s89.167 -74.667 144.5 -99
s114.666 -36.5 177.999 -36.5s122.833 12.167 178.5 36.5s104.334 57.333 146.001 99s74.5 90.667 98.5 147s36 116.5 36 180.5zM770 184l-179.998 274.999h-156v-275h-51v596h227c27.333 0 52.666 -3.16699 75.999 -9.5s43.666 -15.833 60.999 -28.5s31 -28.667 41 -48
s15 -41.666 15 -66.999c0 -52.667 -14.667 -93 -44 -121s-66 -43 -110 -45l178 -277h-57zM752.002 613.999c0 26 -4.66895 47 -14.002 63s-21.666 28.5 -36.999 37.5s-32.666 15 -51.999 18s-39 4.5 -59 4.5h-156v-233h107c22.667 0 46.5 0.666992 71.5 2
s47.833 5.5 68.5 12.5s37.667 17.833 51 32.5s20 35.667 20 63z" />
    <glyph glyph-name="degree" unicode="&#xb0;" horiz-adv-x="541" 
d="M266 915c28.667 0 55.5 -5.33398 80.5 -16.001s46.667 -25 65 -43s32.833 -39.333 43.5 -64s16 -51 16 -79s-5.33301 -54.333 -16 -79s-25.167 -46.167 -43.5 -64.5s-40 -32.833 -65 -43.5s-51.833 -16 -80.5 -16c-27.333 0 -53 5.16699 -77 15.5
s-45.167 24.666 -63.5 42.999s-32.833 39.833 -43.5 64.5s-16 51.334 -16 80.001c0 26.667 5.16699 52.334 15.5 77.001s24.5 46.167 42.5 64.5s39.167 33 63.5 44s50.5 16.5 78.5 16.5zM266 857.999c-20.667 0 -39.833 -3.66602 -57.5 -10.999s-33 -17.5 -46 -30.5
s-23.167 -28.333 -30.5 -46s-11 -36.834 -11 -57.501c0 -20 3.83301 -39 11.5 -57s18 -33.667 31 -47s28.333 -24 46 -32s36.5 -12 56.5 -12c41.333 0 76.333 14.333 105 43c30 30.667 45 65.667 45 105c0 20 -4 38.833 -12 56.5s-18.833 33 -32.5 46s-29.5 23.333 -47.5 31
s-37.333 11.5 -58 11.5z" />
    <glyph glyph-name="paragraph" unicode="&#xb6;" horiz-adv-x="727" 
d="M567 -244v1356h-145v-1356h-55v805c-112 0 -199.667 20.667 -263 62c-69.333 49.333 -104 127.666 -104 234.999c-0 102 31.333 178.333 94 229c60 44 142.667 66 248 66h389v-41h-102v-1356h-62z" />
    <glyph glyph-name="periodcentered" unicode="&#xb7;" horiz-adv-x="338" 
d="M170 520c20.667 0 37.832 -7.16699 51.499 -21.5s20.5 -30.833 20.5 -49.5c0 -20.667 -7.16699 -38.167 -21.5 -52.5s-31.166 -21.5 -50.499 -21.5c-22 0 -39.833 6.83301 -53.5 20.5s-20.5 31.5 -20.5 53.5c0 20 6.83301 36.833 20.5 50.5s31.5 20.5 53.5 20.5z" />
    <glyph glyph-name="periodcentered" unicode="&#x2219;" horiz-adv-x="338" 
d="M170 520c20.667 0 37.832 -7.16699 51.499 -21.5s20.5 -30.833 20.5 -49.5c0 -20.667 -7.16699 -38.167 -21.5 -52.5s-31.166 -21.5 -50.499 -21.5c-22 0 -39.833 6.83301 -53.5 20.5s-20.5 31.5 -20.5 53.5c0 20 6.83301 36.833 20.5 50.5s31.5 20.5 53.5 20.5z" />
    <glyph glyph-name="guillemotright" unicode="&#xbb;" horiz-adv-x="514" 
d="M164 2l-12 41l217 322l-217 323l12 41l295 -364zM96 78l-14 37l94 250l-94 251l14 35l158 -286z" />
    <glyph glyph-name="multiply" unicode="&#xd7;" horiz-adv-x="748" 
d="M635 43l-262 262l-260 -260l-37 35l260 262l-258 258l35 37l260 -260l260 262l37 -37l-260 -260l262 -262z" />
    <glyph glyph-name="divide" unicode="&#xf7;" horiz-adv-x="748" 
d="M434 600c0 -15.333 -5.99902 -29.333 -17.999 -42s-26.333 -19 -43 -19c-8 0 -15.667 1.66699 -23 5s-13.833 7.83301 -19.5 13.5s-10.334 12.167 -14.001 19.5s-5.5 15 -5.5 23c0 16.667 6.16699 31.167 18.5 43.5s26.833 18.5 43.5 18.5s31 -6.16699 43 -18.5
s18 -26.833 18 -43.5zM61.001 315v52h625v-52h-625zM434.001 102c0 -15.333 -5.99902 -29.333 -17.999 -42s-26.333 -19 -43 -19c-8 0 -15.667 1.83301 -23 5.5s-13.833 8.33398 -19.5 14.001s-10.334 12.167 -14.001 19.5s-5.5 14.666 -5.5 21.999
c0 16.667 6.16699 31.167 18.5 43.5s26.833 18.5 43.5 18.5s31 -6.16699 43 -18.5s18 -26.833 18 -43.5z" />
    <glyph glyph-name="uni0E00" unicode="&#xe00;" horiz-adv-x="205" 
 />
    <glyph glyph-name="uni0E01" unicode="&#xe01;" horiz-adv-x="758" 
d="M633 0l-0.00195312 566.999c0 38.667 -6.5 71.667 -19.5 99s-31.167 49.666 -54.5 66.999s-51 30.166 -83 38.499s-67 12.5 -105 12.5c-39.333 0 -74.5 -4.33301 -105.5 -13s-57.667 -19.834 -80 -33.501s-39.833 -28.834 -52.5 -45.501s-20 -33 -22 -49
c12 -7.33301 23 -15.333 33 -24c8.66699 -7.33301 16.5 -15.833 23.5 -25.5s10.5 -19.167 10.5 -28.5c0 -7.33301 -2.83301 -14.833 -8.5 -22.5l-18 -24c-6.33301 -8.33301 -12.333 -17.166 -18 -26.499s-8.5 -19.666 -8.5 -30.999v-461h-53v461c0 14 2.83301 26 8.5 36
s12 19 19 27l19 22c5.66699 6.66699 8.5 13.667 8.5 21c0 5.33301 -3.66699 11.833 -11 19.5s-15.666 14.834 -24.999 21.501c-10.667 7.33301 -22.667 15 -36 23c4 30.667 15.167 58.5 33.5 83.5s42 46.333 71 64s61.833 31.334 98.5 41.001s75 14.5 115 14.5
c40.667 0 79.834 -4.66699 117.501 -14s71 -24.166 100 -44.499s52.167 -46.5 69.5 -78.5s26 -70.333 26 -115v-582h-53z" />
    <glyph glyph-name="uni0E02" unicode="&#xe02;" horiz-adv-x="655" 
d="M584 217c0 -45.333 -7.83105 -82.8369 -23.498 -112.504s-35.834 -53.167 -60.501 -70.5s-52.167 -29.666 -82.5 -36.999s-60.166 -11 -89.499 -11s-59.166 3.66699 -89.499 11s-57.833 19.666 -82.5 36.999s-44.834 40.833 -60.501 70.5s-23.5 67.167 -23.5 112.5v313
c0 20.667 3.66699 37.834 11 51.501s16.666 25.5 27.999 35.5s23.5 18.667 36.5 26s25.167 14.833 36.5 22.5s20.666 15.834 27.999 24.501s11 19.667 11 33c0 11.333 -2.66699 20.333 -8 27s-12.333 11.834 -21 15.501s-18.334 6 -29.001 7s-21.334 1.5 -32.001 1.5h-74v45
h74c19.333 0 37.666 -1.16699 54.999 -3.5s32.5 -7 45.5 -14s23.333 -16.667 31 -29s11.5 -28.166 11.5 -47.499c0 -18.667 -3.66699 -34.167 -11 -46.5s-16.666 -23 -27.999 -32s-23.5 -17.167 -36.5 -24.5s-25.167 -15 -36.5 -23s-20.666 -17.333 -27.999 -28
s-11 -23.667 -11 -39v-301c0 -38 5.5 -69.667 16.5 -95s25.667 -45.5 44 -60.5s39.833 -25.5 64.5 -31.5s50.667 -9 78 -9c26.667 0 52.334 3 77.001 9s46.167 16.5 64.5 31.5s33 35.167 44 60.5s16.5 57 16.5 95v588h54v-602v0z" />
    <glyph glyph-name="uni0E03" unicode="&#xe03;" horiz-adv-x="655" 
d="M584 217c0 -45.333 -7.83105 -82.8359 -23.498 -112.503s-35.834 -53.167 -60.501 -70.5s-52.167 -29.666 -82.5 -36.999s-60.166 -11 -89.499 -11s-59.166 3.66699 -89.499 11s-57.833 19.666 -82.5 36.999s-44.834 40.833 -60.501 70.5s-23.5 67.167 -23.5 112.5v313
c0 20.667 3.66699 38 11 52s16.666 26 27.999 36s23.5 18.667 36.5 26s25.167 14.833 36.5 22.5s20.666 15.834 27.999 24.501s11 19.334 11 32.001c0 4.66699 -0.333008 9.83398 -1 15.501s-1.83398 11 -3.50098 16s-3.83398 9.16699 -6.50098 12.5s-6.33398 5 -11.001 5
l-68 -72l-92 107l51 18l45 -55l47 49c32 2 55.333 -4.83301 70 -20.5s22 -40.167 22 -73.5c0 -18.667 -3.66699 -34.167 -11 -46.5s-16.666 -23 -27.999 -32s-23.5 -17.167 -36.5 -24.5s-25.167 -15 -36.5 -23s-20.666 -17.333 -27.999 -28s-11 -23.667 -11 -39v-301
c0 -38 5.5 -69.667 16.5 -95s25.667 -45.5 44 -60.5s39.833 -25.5 64.5 -31.5s50.667 -9 78 -9c26.667 0 52.334 3 77.001 9s46.167 16.5 64.5 31.5s33 35.167 44 60.5s16.5 57 16.5 95v588h54v-602v0z" />
    <glyph glyph-name="uni0E04" unicode="&#xe04;" horiz-adv-x="758" 
d="M633 0l0.00195312 567c0 38.667 -6.83301 71.667 -20.5 99s-32.167 49.666 -55.5 66.999s-50.333 30.166 -81 38.499s-63 12.5 -97 12.5s-66.333 -4.16699 -97 -12.5s-57.667 -21.166 -81 -38.499s-41.833 -39.666 -55.5 -66.999s-20.5 -60.333 -20.5 -99v-98h250v-49
h-250v-420h-53v582c0 44.667 9.33301 83 28 115s42.667 58.167 72 78.5s62.166 35.166 98.499 44.499s72.5 14 108.5 14s72.333 -4.66699 109 -14s69.667 -24.166 99 -44.499s53.166 -46.5 71.499 -78.5s27.5 -70.333 27.5 -115v-582h-53z" />
    <glyph glyph-name="uni0E05" unicode="&#xe05;" horiz-adv-x="758" 
d="M633 0v600c0 48 -11.333 88.333 -34 121s-53.667 53.667 -93 63l-127 -114l-127 114c-39.333 -9.33301 -70.333 -30.333 -93 -63s-34 -73 -34 -121v-131h252v-49h-252v-420h-53v610c0 30 4.66699 57.833 14 83.5s22.5 48.334 39.5 68.001s37.167 35.834 60.5 48.501
s49.333 20.667 78 24l115 -99l115 99c28.667 -3.33301 54.667 -11.333 78 -24s43.5 -28.834 60.5 -48.501s30.167 -42.334 39.5 -68.001s14 -53.5 14 -83.5v-610h-53z" />
    <glyph glyph-name="uni0E06" unicode="&#xe06;" horiz-adv-x="758" 
d="M686 231c0 -43.333 -6.16699 -80.3389 -18.5 -111.006s-29.333 -55.667 -51 -75s-47.5 -33.666 -77.5 -42.999s-62.333 -14 -97 -14c-40 0 -76.667 6.5 -110 19.5s-63.333 29.333 -90 49s-49.834 41.167 -69.501 64.5s-35.5 45.666 -47.5 66.999v-188h-53v510
c0 21.333 4.16699 39.333 12.5 54s19 27.334 32 38.001s26.833 20.334 41.5 29.001s28.5 17.334 41.5 26.001s23.667 18.167 32 28.5s12.5 22.833 12.5 37.5s-3.16699 26.5 -9.5 35.5s-13.5 13.5 -21.5 13.5l-74 -72l-98 107l51 18l51 -55l54 49
c32 2 56.667 -5.66699 74 -23s26 -41 26 -71c0 -19.333 -4.16699 -36 -12.5 -50s-19 -26.167 -32 -36.5s-26.833 -19.833 -41.5 -28.5s-28.5 -17.667 -41.5 -27s-23.667 -19.666 -32 -30.999s-12.5 -24.666 -12.5 -39.999v-186c0 -28 8.33301 -58.667 25 -92
s39 -64.666 67 -93.999s60.5 -53.833 97.5 -73.5s76.167 -29.5 117.5 -29.5c29.333 0 56.333 3.5 81 10.5s45.834 18.667 63.501 35s31.5 37.5 41.5 63.5s15 58 15 96v577h53v-588v0z" />
    <glyph glyph-name="uni0E07" unicode="&#xe07;" horiz-adv-x="651" 
d="M608 530c4 -42 3.49902 -84.667 -1.50098 -128s-14.333 -85 -28 -125s-31.667 -77.333 -54 -112s-49.333 -64.667 -81 -90s-67.667 -45.166 -108 -59.499s-85.166 -20.833 -134.499 -19.5l-201 690l47 31l195 -674c57.333 6 106.666 24.333 147.999 55s75 68.667 101 114
s44.333 95.666 55 150.999s13.667 111 9 167c-3.33301 40 -12.666 76.333 -27.999 109s-35.666 60 -60.999 82s-54.833 38 -88.5 48s-70.834 12.333 -111.501 7v49c47.333 5.33301 90.833 2.5 130.5 -8.5s74.5 -29.333 104.5 -55s54.167 -58 72.5 -97
s29.833 -83.833 34.5 -134.5z" />
    <glyph glyph-name="uni0E08" unicode="&#xe08;" horiz-adv-x="680" 
d="M639 469c0 -81.333 -10 -152.165 -30 -212.498s-47.5 -110.333 -82.5 -150s-76.167 -68.667 -123.5 -87s-98.333 -26.166 -153 -23.499l-125 502l-29 34h74l121 -487c43.333 2.66699 83.166 14 119.499 34s67.5 48 93.5 84s46.167 79.667 60.5 131
s21.5 109.666 21.5 174.999c0 50 -6.66699 94.5 -20 133.5s-32.333 72 -57 99s-54 47.5 -88 61.5s-71.333 21 -112 21c-32.667 0 -63.5 -4 -92.5 -12s-54.833 -19.333 -77.5 -34s-41.5 -32.5 -56.5 -53.5s-24.833 -44.5 -29.5 -70.5h-53c2.66699 30 12 58.333 28 85
s37.5 50 64.5 70s58.833 35.833 95.5 47.5s77 17.5 121 17.5c48.667 0 93.334 -8 134.001 -24s75.5 -39.333 104.5 -70s51.5 -68.834 67.5 -114.501s24 -97.834 24 -156.501z" />
    <glyph glyph-name="uni0E09" unicode="&#xe09;" horiz-adv-x="748" 
d="M623 0l0.000976562 135.006c-12.667 -21.333 -28.334 -41 -47.001 -59s-40.167 -33.667 -64.5 -47s-51.166 -23.833 -80.499 -31.5s-61 -11.5 -95 -11.5s-66.333 3.66699 -97 11s-57.667 20.333 -81 39s-41.833 43.667 -55.5 75s-20.5 70.666 -20.5 117.999v238h-64v49
h117v-274c0 -40.667 5 -74.334 15 -101.001s23.833 -47.834 41.5 -63.501s38.834 -26.667 63.501 -33s51.667 -9.5 81 -9.5c40.667 0 78.667 7.16699 114 21.5s65.666 32.833 90.999 55.5s45.333 48.167 60 76.5s22 56.166 22 83.499v295c0 38.667 -7 71.667 -21 99
s-33.167 49.666 -57.5 66.999s-52.5 30.166 -84.5 38.499s-66 12.5 -102 12.5c-32.667 0 -63.5 -3.33301 -92.5 -10s-55 -16.834 -78 -30.501s-42.167 -31.167 -57.5 -52.5s-26 -47 -32 -77h-55c4.66699 38.667 17 72 37 100s44.667 50.833 74 68.5s61.666 30.667 96.999 39
s71 12.5 107 12.5c39.333 0 78 -4.66699 116 -14s72 -24.166 102 -44.499s54.167 -46.5 72.5 -78.5s27.5 -70.333 27.5 -115v-582h-53z" />
    <glyph glyph-name="uni0E0A" unicode="&#xe0a;" horiz-adv-x="709" 
d="M668 315c0 -56 -9.00098 -103.833 -27.001 -143.5s-42.5 -72.167 -73.5 -97.5s-67.5 -44 -109.5 -56s-86.667 -18 -134 -18h-252v819h53v-770h192c38.667 0 75.834 4.83301 111.501 14.5s67.167 25 94.5 46s49.333 48.333 66 82s25 74.167 25 121.5
c0 38 -6 72.5 -18 103.5s-28.667 57.5 -50 79.5s-46.666 39 -75.999 51s-61 18 -95 18h-119v49h119c28 0 55.5 4.33301 82.5 13s50.833 21.667 71.5 39s36.667 38.666 48 63.999s15.666 55 12.999 89h53c4 -26.667 2.5 -53.167 -4.5 -79.5s-18.5 -50.166 -34.5 -71.499
s-35.833 -39 -59.5 -53s-50.167 -21.667 -79.5 -23c29.333 -6 56.333 -16.5 81 -31.5s46 -34.333 64 -58s32.167 -51.167 42.5 -82.5s15.5 -66.333 15.5 -105z" />
    <glyph glyph-name="uni0E0B" unicode="&#xe0b;" horiz-adv-x="719" 
d="M678 315c0 -56 -8.99609 -103.833 -26.9961 -143.5s-42.5 -72.167 -73.5 -97.5s-67.5 -44 -109.5 -56s-86.667 -18 -134 -18h-252v530c0 30 5.83301 53.333 17.5 70s24.334 30.667 38.001 42s26.334 22.666 38.001 33.999s17.5 27 17.5 47
c0 4.66699 -0.333008 9.83398 -1 15.501s-1.83398 11 -3.50098 16s-4 9.16699 -7 12.5s-6.83301 5 -11.5 5l-68 -72l-92 107l51 18l45 -55l48 49c61.333 4 92 -27.333 92 -94c0 -24.667 -5.83301 -44.167 -17.5 -58.5s-24.334 -27.5 -38.001 -39.5
s-26.334 -24.833 -38.001 -38.5s-17.5 -32.5 -17.5 -56.5v-483h193c38 0 75 4.83301 111 14.5s67.667 25 95 46s49.333 48.333 66 82s25 74.167 25 121.5c0 38 -6 72.5 -18 103.5s-28.833 57.5 -50.5 79.5s-47.167 39 -76.5 51s-61 18 -95 18h-98v49h98
c28 0 55.667 4.33301 83 13s51.166 21.667 71.499 39s36.166 38.666 47.499 63.999s15.666 55 12.999 89h53c4 -26.667 2.5 -53.167 -4.5 -79.5s-18.5 -50.166 -34.5 -71.499s-35.833 -39 -59.5 -53s-50.167 -21.667 -79.5 -23c29.333 -6 56.333 -16.5 81 -31.5
s46 -34.333 64 -58s32.167 -51.167 42.5 -82.5s15.5 -66.333 15.5 -105z" />
    <glyph glyph-name="uni0E0C" unicode="&#xe0c;" horiz-adv-x="1237" 
d="M1165 229c0 -47.333 -7.00391 -86.502 -21.0039 -117.502s-32.167 -55.667 -54.5 -74s-47.333 -31.166 -75 -38.499s-55.167 -11 -82.5 -11c-28 0 -54.333 3.66699 -79 11s-47.334 17.666 -68.001 30.999s-39.334 28.833 -56.001 46.5s-31 37.167 -43 58.5v-135h-53v567
c0 38.667 -6.5 71.667 -19.5 99s-31.167 49.666 -54.5 66.999s-51 30.166 -83 38.499s-67 12.5 -105 12.5c-39.333 0 -74.5 -4.33301 -105.5 -13s-57.667 -19.834 -80 -33.501s-39.833 -28.834 -52.5 -45.501s-20 -33 -22 -49c12 -7.33301 23 -15.333 33 -24
c8.66699 -7.33301 16.5 -15.833 23.5 -25.5s10.5 -19.167 10.5 -28.5c0 -7.33301 -2.83301 -14.833 -8.5 -22.5l-18 -24c-6.33301 -8.33301 -12.333 -17.166 -18 -26.499s-8.5 -19.666 -8.5 -30.999v-412h147v-49h-200v461c0 14 2.83301 26 8.5 36s12 19 19 27l19 22
c5.66699 6.66699 8.5 13.667 8.5 21c0 5.33301 -3.66699 11.833 -11 19.5s-15.666 14.834 -24.999 21.501c-10.667 7.33301 -22.667 15 -36 23c4 30.667 15.167 58.5 33.5 83.5s42 46.333 71 64s61.833 31.334 98.5 41.001s75 14.5 115 14.5
c40.667 0 79.834 -4.66699 117.501 -14s71 -24.166 100 -44.499s52.167 -46.5 69.5 -78.5s26 -70.333 26 -115v-310c0 -27.333 6.66699 -55.166 20 -83.499s31.333 -53.833 54 -76.5s48.834 -41.167 78.501 -55.5s60.834 -21.5 93.501 -21.5c24 0 46.833 3.16699 68.5 9.5
s40.834 17.333 57.501 33s29.834 36.667 39.501 63s14.5 59.5 14.5 99.5v579h53v-590v0z" />
    <glyph glyph-name="uni0E0D" unicode="&#xe0d;" horiz-adv-x="1237" 
d="M1165 61c0 -42 -7.67383 -77.668 -23.0068 -107.001s-35.833 -53.333 -61.5 -72s-54.834 -32.334 -87.501 -41.001s-66 -13 -100 -13h-260v49h260c30.667 0 59.334 3.66699 86.001 11s49.834 18.333 69.501 33s35.167 32.667 46.5 54s17 46 17 74v47
c-9.33301 -12.667 -21.166 -25.5 -35.499 -38.5s-31.833 -24.667 -52.5 -35s-44.167 -18.666 -70.5 -24.999s-56.166 -9.5 -89.499 -9.5c-27.333 0 -54.666 3.5 -81.999 10.5s-52 18.833 -74 35.5s-40 39.167 -54 67.5s-21 64.166 -21 107.499v358
c0 38.667 -6.5 71.667 -19.5 99s-31.167 49.666 -54.5 66.999s-51 30.166 -83 38.499s-67 12.5 -105 12.5c-39.333 0 -74.5 -4.33301 -105.5 -13s-57.667 -19.834 -80 -33.501s-39.833 -28.834 -52.5 -45.501s-20 -33 -22 -49c12 -7.33301 23 -15.333 33 -24
c8.66699 -7.33301 16.5 -15.833 23.5 -25.5s10.5 -19.167 10.5 -28.5c0 -7.33301 -2.83301 -14.833 -8.5 -22.5l-18 -24c-6.33301 -8.33301 -12.333 -17.166 -18 -26.499s-8.5 -19.666 -8.5 -30.999v-412h147v-49h-200v461c0 14 2.83301 26 8.5 36s12 19 19 27l19 22
c5.66699 6.66699 8.5 13.667 8.5 21c0 5.33301 -3.66699 11.833 -11 19.5s-15.666 14.834 -24.999 21.501c-10.667 7.33301 -22.667 15 -36 23c4 30.667 15.167 58.5 33.5 83.5s42 46.333 71 64s61.833 31.334 98.5 41.001s75 14.5 115 14.5
c40.667 0 79.834 -4.66699 117.501 -14s71 -24.166 100 -44.499s52.167 -46.5 69.5 -78.5s26 -70.333 26 -115v-355c0 -38 5 -69.167 15 -93.5s23.833 -43.666 41.5 -57.999s38.167 -24.333 61.5 -30s48.333 -8.5 75 -8.5c28.667 0 56.834 4.66699 84.501 14
s52.5 23.333 74.5 42s39.833 42 53.5 70s20.5 61 20.5 99v557h53v-758v0z" />
    <glyph glyph-name="uni0E0E" unicode="&#xe0e;" horiz-adv-x="768" 
d="M643 -307l-151.004 150.999l-152 -151h-203v49h185l170 168l151 -150v807c0 38.667 -6.5 71.667 -19.5 99s-31.167 49.666 -54.5 66.999s-51 30.166 -83 38.499s-67 12.5 -105 12.5c-39.333 0 -74.5 -4.33301 -105.5 -13s-57.667 -19.834 -80 -33.501
s-39.833 -28.834 -52.5 -45.501s-20 -33 -22 -49c12 -7.33301 23 -15.333 33 -24c8.66699 -7.33301 16.5 -15.833 23.5 -25.5s10.5 -19.167 10.5 -28.5c0 -7.33301 -2.83301 -14.833 -8.5 -22.5l-18 -24c-6.33301 -8.33301 -12.333 -17.166 -18 -26.499
s-8.5 -19.666 -8.5 -30.999v-461h-125v49h72v412c0 14 2.83301 26 8.5 36s12 19 19 27l19 22c5.66699 6.66699 8.5 13.667 8.5 21c0 5.33301 -3.66699 11.833 -11 19.5s-15.666 14.834 -24.999 21.501l-35 23c3.33301 30.667 14.333 58.5 33 83.5s42.334 46.333 71.001 64
s61.334 31.334 98.001 41.001s75 14.5 115 14.5c40.667 0 79.834 -4.66699 117.501 -14s71 -24.166 100 -44.499s52.167 -46.5 69.5 -78.5s26 -70.333 26 -115v-889h-53z" />
    <glyph glyph-name="uni0E0F" unicode="&#xe0f;" horiz-adv-x="768" 
d="M643 -307l-106.004 138.999l-107 -139l-106 139l-107 -139h-141v49h114l134 168l106 -137l107 137l106 -139v796c0 38.667 -6.5 71.667 -19.5 99s-31.167 49.666 -54.5 66.999s-51 30.166 -83 38.499s-67 12.5 -105 12.5c-39.333 0 -74.5 -4.33301 -105.5 -13
s-57.667 -19.834 -80 -33.501s-39.833 -28.834 -52.5 -45.501s-20 -33 -22 -49c12 -7.33301 23 -15.333 33 -24c8.66699 -7.33301 16.5 -15.833 23.5 -25.5s10.5 -19.167 10.5 -28.5c0 -7.33301 -2.83301 -14.833 -8.5 -22.5l-18 -24
c-6.33301 -8.33301 -12.333 -17.166 -18 -26.499s-8.5 -19.666 -8.5 -30.999v-461h-125v49h72v412c0 14 2.83301 26 8.5 36s12 19 19 27l19 22c5.66699 6.66699 8.5 13.667 8.5 21c0 5.33301 -3.66699 11.833 -11 19.5s-15.666 14.834 -24.999 21.501l-35 23
c3.33301 30.667 14.333 58.5 33 83.5s42.334 46.333 71.001 64s61.334 31.334 98.001 41.001s75 14.5 115 14.5c40.667 0 79.834 -4.66699 117.501 -14s71 -24.166 100 -44.499s52.167 -46.5 69.5 -78.5s26 -70.333 26 -115v-889h-53z" />
    <glyph glyph-name="uni0E10" unicode="&#xe10;" horiz-adv-x="680" 
d="M639 469c0 -81.333 -9.99902 -152.164 -29.999 -212.497s-47.5 -110.333 -82.5 -150s-76.167 -68.667 -123.5 -87s-98.333 -26.166 -153 -23.499l-125 502l-29 34h74l121 -487c43.333 2.66699 83.166 14 119.499 34s67.5 48 93.5 84s46.167 79.667 60.5 131
s21.5 109.666 21.5 174.999c0 50 -6.66699 94.5 -20 133.5s-32.333 72 -57 99s-54 47.5 -88 61.5s-71.333 21 -112 21c-32.667 0 -63.5 -4 -92.5 -12s-54.833 -19.333 -77.5 -34s-41.5 -32.5 -56.5 -53.5s-24.833 -44.5 -29.5 -70.5h-53c2.66699 30 12 58.333 28 85
s37.5 50 64.5 70s58.833 35.833 95.5 47.5s77 17.5 121 17.5c58 0 108.667 -11 152 -33c10 7.33301 19.5 18.166 28.5 32.499s14.5 30.166 16.5 47.499h59c-0.666992 -11.333 -3 -22.333 -7 -33s-9 -20.667 -15 -30s-12.333 -17.833 -19 -25.5s-12.667 -13.834 -18 -18.501
c42 -30 74.667 -70.333 98 -121s35 -112 35 -184zM567.001 -306.998l-106 119l-107 -119l-106 119l-107 -119h-141v49h115l133 147l106 -118l107 118l106 -116v137h-37v49h91v-266h-54z" />
    <glyph glyph-name="uni0E11" unicode="&#xe11;" horiz-adv-x="758" 
d="M633 0l-0.000976562 606.002c0 21.333 -1.66699 42.5 -5 63.5s-9.16602 39.833 -17.499 56.5s-19.333 30.167 -33 40.5s-30.834 15.5 -51.501 15.5c-12 0 -25.333 -4.66699 -40 -14s-30 -22.333 -46 -39s-32.167 -36.334 -48.5 -59.001s-32.166 -47.334 -47.499 -74.001
c-28 -49.333 -55.167 -102.5 -81.5 -159.5s-49.666 -112.5 -69.999 -166.5s-36.666 -103.833 -48.999 -149.5s-18.5 -81.834 -18.5 -108.501v-12h-53v510c0 21.333 3.66699 39.333 11 54s16.666 27.334 27.999 38.001s23.5 20.167 36.5 28.5s25.167 16.833 36.5 25.5
s20.666 18.167 27.999 28.5s11 23.166 11 38.499c0 14.667 -3 26.5 -9 35.5s-13 13.5 -21 13.5l-74 -72l-99 107l52 18l51 -55l53 49c32 2 56.667 -5.66699 74 -23s26 -41 26 -71c0 -18.667 -3.66699 -34.667 -11 -48s-16.666 -25.166 -27.999 -35.499s-23.5 -20 -36.5 -29
s-25.167 -18.333 -36.5 -28s-20.666 -20.334 -27.999 -32.001s-11 -25.167 -11 -40.5v-305c3.33301 20 10.5 46 21.5 78s24.5 67 40.5 105s34.167 77.333 54.5 118s41.5 79.667 63.5 117c17.333 28.667 35.166 55.5 53.499 80.5s37 46.833 56 65.5s38 33.334 57 44.001
s37.833 16 56.5 16c31.333 0 57.166 -6.5 77.499 -19.5s36.5 -29.667 48.5 -50s20.333 -43.333 25 -69s7 -51.167 7 -76.5v-616h-53z" />
    <glyph glyph-name="uni0E12" unicode="&#xe12;" horiz-adv-x="1278" 
d="M1206 229c0 -47.333 -7.00293 -86.501 -21.0029 -117.501s-32.167 -55.667 -54.5 -74s-47.333 -31.166 -75 -38.499s-55.167 -11 -82.5 -11c-28 0 -54.333 3.66699 -79 11s-47.334 17.666 -68.001 30.999s-39.334 28.833 -56.001 46.5s-31 37.167 -43 58.5v-135h-53v600
c0 24 -3.5 46.167 -10.5 66.5s-16.667 38.5 -29 54.5s-26.833 29.333 -43.5 40s-34.667 18.334 -54 23.001l-138 -114l-137 114c-19.333 -4.66699 -37.333 -12.334 -54 -23.001s-31.167 -24 -43.5 -40s-22 -34.167 -29 -54.5s-10.5 -42.5 -10.5 -66.5v-512l295 447h-125v49
h180v-49l-350 -535h-53v610c0 30 5.16699 57.833 15.5 83.5s24.5 48.334 42.5 68.001s39.333 35.834 64 48.501s51.334 20.667 80.001 24l125 -99l125 99c28.667 -3.33301 55.334 -11.333 80.001 -24s46.167 -28.834 64.5 -48.501s32.666 -42.334 42.999 -68.001
s15.5 -53.5 15.5 -83.5v-338c0 -27.333 6.66699 -55.166 20 -83.499s31.333 -53.833 54 -76.5s48.834 -41.167 78.501 -55.5s60.834 -21.5 93.501 -21.5c24 0 46.833 3.16699 68.5 9.5s40.834 17.333 57.501 33s29.834 36.667 39.501 63s14.5 59.5 14.5 99.5v579h53v-590v0z
" />
    <glyph glyph-name="uni0E13" unicode="&#xe13;" horiz-adv-x="1237" 
d="M1112 0l-0.00390625 135c-12 -21.333 -26.333 -40.833 -43 -58.5s-35.334 -33.167 -56.001 -46.5s-43.334 -23.666 -68.001 -30.999s-51 -11 -79 -11c-27.333 0 -54.833 3.66699 -82.5 11s-52.667 20.166 -75 38.499s-40.5 43 -54.5 74s-21 70.167 -21 117.5v338
c0 38.667 -6.5 71.667 -19.5 99s-31.167 49.666 -54.5 66.999s-51 30.166 -83 38.499s-67 12.5 -105 12.5c-39.333 0 -74.5 -4.33301 -105.5 -13s-57.667 -19.834 -80 -33.501s-39.833 -28.834 -52.5 -45.501s-20 -33 -22 -49c12 -7.33301 23 -15.333 33 -24
c8.66699 -7.33301 16.5 -15.833 23.5 -25.5s10.5 -19.167 10.5 -28.5c0 -7.33301 -2.83301 -14.833 -8.5 -22.5l-18 -24c-6.33301 -8.33301 -12.333 -17.166 -18 -26.499s-8.5 -19.666 -8.5 -30.999v-412h147v-49h-200v461c0 14 2.83301 26 8.5 36s12 19 19 27l19 22
c5.66699 6.66699 8.5 13.667 8.5 21c0 5.33301 -3.66699 11.833 -11 19.5s-15.666 14.834 -24.999 21.501c-10.667 7.33301 -22.667 15 -36 23c4 30.667 15.167 58.5 33.5 83.5s42 46.333 71 64s61.833 31.334 98.5 41.001s75 14.5 115 14.5
c40.667 0 79.834 -4.66699 117.501 -14s71 -24.166 100 -44.499s52.167 -46.5 69.5 -78.5s26 -70.333 26 -115v-342c0 -40 4.83301 -73.167 14.5 -99.5s22.834 -47.333 39.501 -63s35.834 -26.667 57.501 -33s44.5 -9.5 68.5 -9.5c32.667 0 63.834 7.16699 93.501 21.5
s55.834 32.833 78.501 55.5s40.667 48.167 54 76.5s20 56.166 20 83.499v547h53v-819h-53z" />
    <glyph glyph-name="uni0E14" unicode="&#xe14;" horiz-adv-x="778" 
d="M653 0l0.000976562 567c0 38.667 -6.83301 71.667 -20.5 99s-32.334 49.666 -56.001 66.999s-51.667 30.166 -84 38.499s-66.833 12.5 -103.5 12.5s-71 -4.16699 -103 -12.5s-60 -21.166 -84 -38.499s-42.833 -39.666 -56.5 -66.999s-20.5 -60.333 -20.5 -99v-479
l285 447h-125v49h180v-49l-340 -535h-53v582c0 44.667 9.33301 83 28 115s43 58.167 73 78.5s64 35.166 102 44.499s76 14 114 14c38.667 0 77 -4.66699 115 -14s72 -24.166 102 -44.499s54.333 -46.5 73 -78.5s28 -70.333 28 -115v-582h-54z" />
    <glyph glyph-name="uni0E15" unicode="&#xe15;" horiz-adv-x="799" 
d="M674 0l-0.000976562 600c0 24 -3.5 46.167 -10.5 66.5s-16.667 38.5 -29 54.5s-26.833 29.333 -43.5 40s-34.667 18.334 -54 23.001l-138 -114l-137 114c-19.333 -4.66699 -37.333 -12.334 -54 -23.001s-31.167 -24 -43.5 -40s-22 -34.167 -29 -54.5
s-10.5 -42.5 -10.5 -66.5v-512l295 447h-125v49h180v-49l-350 -535h-53v610c0 30 5.16699 57.833 15.5 83.5s24.5 48.334 42.5 68.001s39.333 35.834 64 48.501s51.334 20.667 80.001 24l125 -99l125 99c28.667 -3.33301 55.334 -11.333 80.001 -24
s46.167 -28.834 64.5 -48.501s32.666 -42.334 42.999 -68.001s15.5 -53.5 15.5 -83.5v-610h-53z" />
    <glyph glyph-name="uni0E16" unicode="&#xe16;" horiz-adv-x="760" 
d="M633 0l-0.00195312 566.999c0 38.667 -6.5 71.667 -19.5 99s-31.167 49.666 -54.5 66.999s-51 30.166 -83 38.499s-67 12.5 -105 12.5c-39.333 0 -74.5 -4.33301 -105.5 -13s-57.667 -19.834 -80 -33.501s-39.833 -28.834 -52.5 -45.501s-20 -33 -22 -49
c12 -7.33301 23 -15.333 33 -24c8.66699 -7.33301 16.5 -15.833 23.5 -25.5s10.5 -19.167 10.5 -28.5c0 -7.33301 -2.83301 -14.833 -8.5 -22.5l-18 -24c-6.33301 -8.33301 -12.333 -17.166 -18 -26.499s-8.5 -19.666 -8.5 -30.999v-412h106v-49h-159v461
c0 14 2.83301 26 8.5 36s12 19 19 27l19 22c5.66699 6.66699 8.5 13.667 8.5 21c0 5.33301 -3.66699 11.833 -11 19.5s-15.666 14.834 -24.999 21.501c-10.667 7.33301 -22.667 15 -36 23c4 30.667 15.167 58.5 33.5 83.5s42 46.333 71 64s61.833 31.334 98.5 41.001
s75 14.5 115 14.5c40.667 0 79.834 -4.66699 117.501 -14s71 -24.166 100 -44.499s52.167 -46.5 69.5 -78.5s26 -70.333 26 -115v-582h-53z" />
    <glyph glyph-name="uni0E17" unicode="&#xe17;" horiz-adv-x="758" 
d="M633 0v577.997c0 38 -5 70 -15 96s-23.833 47 -41.5 63s-38.834 27.5 -63.501 34.5s-51.667 10.5 -81 10.5c-41.333 0 -80.5 -9.83301 -117.5 -29.5s-69.5 -44 -97.5 -73s-50.333 -60.333 -67 -94s-25 -64.167 -25 -91.5v-494h-53v819h53v-188
c12 20.667 27.833 42.834 47.5 66.501s42.834 45.334 69.501 65.001s56.667 36 90 49s70 19.5 110 19.5c34.667 0 67 -4.66699 97 -14s55.833 -23.666 77.5 -42.999s38.667 -44.5 51 -75.5s18.5 -67.833 18.5 -110.5v-588h-53z" />
    <glyph glyph-name="uni0E18" unicode="&#xe18;" horiz-adv-x="700" 
d="M659 268c0 -57.333 -8.66895 -103.501 -26.002 -138.501s-39.833 -62.167 -67.5 -81.5s-58.5 -32.166 -92.5 -38.499s-68 -9.5 -102 -9.5h-310v440h54v-391h243c31.333 0 61.833 2.5 91.5 7.5s56.167 15.167 79.5 30.5s42 37.166 56 65.499s21 66.166 21 113.499
c0 37.333 -6 68.333 -18 93s-28.333 44.834 -49 60.501s-44.334 27.834 -71.001 36.501s-55 15.667 -85 21c-37.333 6.66699 -76.166 12.334 -116.499 17.001s-77.166 12.167 -110.499 22.5s-60.833 25.333 -82.5 45s-32.5 47.5 -32.5 83.5
c0 29.333 8.33301 55.666 25 78.999s38.667 43.166 66 59.499s58.5 28.833 93.5 37.5s71.167 13 108.5 13c36 0 72.5 -3.66699 109.5 -11s70.5 -19.5 100.5 -36.5s54.667 -39.667 74 -68s29 -63.166 29 -104.499h-53c0 33.333 -8.16699 61 -24.5 83
s-37.166 39.5 -62.499 52.5s-53.333 22 -84 27s-60.334 7.5 -89.001 7.5c-30 0 -59.333 -3.16699 -88 -9.5s-54.167 -15.5 -76.5 -27.5s-40.5 -27 -54.5 -45s-21 -38.333 -21 -61c0 -22 8.83301 -39.167 26.5 -51.5s40.5 -22 68.5 -29s59.5 -12.667 94.5 -17
s69.5 -9.5 103.5 -15.5c34 -5.33301 67.167 -13 99.5 -23s61.333 -24.667 87 -44s46.334 -44.5 62.001 -75.5s23.5 -70.167 23.5 -117.5z" />
    <glyph glyph-name="uni0E19" unicode="&#xe19;" horiz-adv-x="758" 
d="M633 0l0.000976562 188.002c-11.333 -22.667 -26.333 -45.834 -45 -69.501s-41.167 -45.167 -67.5 -64.5s-56.5 -35.166 -90.5 -47.499s-72.333 -18.5 -115 -18.5c-34.667 0 -66.834 4.66699 -96.501 14s-55.334 23.666 -77.001 42.999s-38.667 44.333 -51 75
s-18.5 67.667 -18.5 111v588h53v-577c0 -38 5 -70 15 -96s23.833 -47.167 41.5 -63.5s38.834 -28 63.501 -35s51.667 -10.5 81 -10.5c44 0 84.667 9.83301 122 29.5s69.833 44.167 97.5 73.5s49.167 60.666 64.5 93.999s23 64 23 92v493h53v-819h-53z" />
    <glyph glyph-name="uni0E1A" unicode="&#xe1a;" horiz-adv-x="758" 
d="M686 238c0 -45.333 -9.16895 -83.833 -27.502 -115.5s-42.166 -57.5 -71.499 -77.5s-62.333 -34.5 -99 -43.5s-73 -13.5 -109 -13.5s-72.167 4.5 -108.5 13.5s-69.166 23.5 -98.499 43.5s-53.333 45.833 -72 77.5s-28 70.167 -28 115.5v581h53v-565
c0 -38.667 6.83301 -71.667 20.5 -99s32.167 -49.833 55.5 -67.5s50.333 -30.5 81 -38.5s63 -12 97 -12s66.333 4 97 12s57.667 20.833 81 38.5s41.833 40.167 55.5 67.5s20.5 60.333 20.5 99v565h53v-581v0z" />
    <glyph glyph-name="uni0E1B" unicode="&#xe1b;" horiz-adv-x="758" 
d="M686 238c0 -45.333 -9.16895 -83.833 -27.502 -115.5s-42.166 -57.5 -71.499 -77.5s-62.333 -34.5 -99 -43.5s-73 -13.5 -109 -13.5s-72.167 4.5 -108.5 13.5s-69.166 23.5 -98.499 43.5s-53.333 45.833 -72 77.5s-28 70.167 -28 115.5v581h53v-565
c0 -38.667 6.83301 -71.667 20.5 -99s32.167 -49.833 55.5 -67.5s50.333 -30.5 81 -38.5s63 -12 97 -12s66.333 4 97 12s57.667 20.833 81 38.5s41.833 40.167 55.5 67.5s20.5 60.333 20.5 99v780h53v-796v0z" />
    <glyph glyph-name="uni0E1C" unicode="&#xe1c;" horiz-adv-x="881" 
d="M809 223c0 -41.333 -4.16699 -76.6689 -12.5 -106.002s-20.166 -53.666 -35.499 -72.999s-33.833 -33.5 -55.5 -42.5s-45.834 -13.5 -72.501 -13.5c-49.333 0 -90 11.5 -122 34.5s-55.667 55.167 -71 96.5c-15.333 -41.333 -38.833 -73.5 -70.5 -96.5
s-72.167 -34.5 -121.5 -34.5c-26 0 -49.833 4.33301 -71.5 13s-40.334 22.5 -56.001 41.5s-27.667 43.333 -36 73s-12.5 65.5 -12.5 107.5v488c0 30.667 10.667 56.334 32 77.001s49.333 31 84 31h33v-49h-22c-13.333 0 -24.666 -2.16699 -33.999 -6.5s-17 -10 -23 -17
s-10.333 -14.833 -13 -23.5s-4 -17.667 -4 -27v-456c0 -69.333 11.167 -120.5 33.5 -153.5s55.5 -49.5 99.5 -49.5c25.333 0 47.833 5.83301 67.5 17.5s36 28.5 49 50.5s22.833 48.5 29.5 79.5s10 65.833 10 104.5v530h53v-530c0 -38.667 3.33301 -73.5 10 -104.5
s16.5 -57.5 29.5 -79.5s29.167 -38.833 48.5 -50.5s42 -17.5 68 -17.5c44 0 77.167 16.5 99.5 49.5s33.5 84.167 33.5 153.5v579h53v-596v0z" />
    <glyph glyph-name="uni0E1D" unicode="&#xe1d;" horiz-adv-x="881" 
d="M809 223c0 -41.333 -4.16699 -76.6689 -12.5 -106.002s-20.166 -53.666 -35.499 -72.999s-33.833 -33.5 -55.5 -42.5s-45.834 -13.5 -72.501 -13.5c-49.333 0 -90 11.5 -122 34.5s-55.667 55.167 -71 96.5c-15.333 -41.333 -38.833 -73.5 -70.5 -96.5
s-72.167 -34.5 -121.5 -34.5c-26 0 -49.833 4.33301 -71.5 13s-40.334 22.5 -56.001 41.5s-27.667 43.333 -36 73s-12.5 65.5 -12.5 107.5v488c0 30.667 10.667 56.334 32 77.001s49.333 31 84 31h33v-49h-22c-13.333 0 -24.666 -2.16699 -33.999 -6.5s-17 -10 -23 -17
s-10.333 -14.833 -13 -23.5s-4 -17.667 -4 -27v-456c0 -69.333 11.167 -120.5 33.5 -153.5s55.5 -49.5 99.5 -49.5c25.333 0 47.833 5.83301 67.5 17.5s36 28.5 49 50.5s22.833 48.5 29.5 79.5s10 65.833 10 104.5v530h53v-530c0 -38.667 3.33301 -73.5 10 -104.5
s16.5 -57.5 29.5 -79.5s29.167 -38.833 48.5 -50.5s42 -17.5 68 -17.5c44 0 77.167 16.5 99.5 49.5s33.5 84.167 33.5 153.5v794h53v-811v0z" />
    <glyph glyph-name="uni0E1E" unicode="&#xe1e;" horiz-adv-x="881" 
d="M809 223c0 -41.333 -4.16602 -76.668 -12.499 -106.001s-20.166 -53.666 -35.499 -72.999s-33.833 -33.5 -55.5 -42.5s-45.834 -13.5 -72.501 -13.5c-49.333 0 -90 11.5 -122 34.5s-55.667 55.167 -71 96.5c-15.333 -41.333 -38.833 -73.5 -70.5 -96.5
s-72.167 -34.5 -121.5 -34.5c-26 0 -49.833 4.33301 -71.5 13s-40.334 22.5 -56.001 41.5s-27.667 43.333 -36 73s-12.5 65.5 -12.5 107.5v596h53v-579c0 -69.333 11.167 -120.5 33.5 -153.5s55.5 -49.5 99.5 -49.5c25.333 0 47.833 5.83301 67.5 17.5s36 28.5 49 50.5
s22.833 48.5 29.5 79.5s10 65.833 10 104.5v530h53v-530c0 -38.667 3.33301 -73.5 10 -104.5s16.5 -57.5 29.5 -79.5s29.167 -38.833 48.5 -50.5s42 -17.5 68 -17.5c44 0 77.167 16.5 99.5 49.5s33.5 84.167 33.5 153.5v579h53v-596v0z" />
    <glyph glyph-name="uni0E1F" unicode="&#xe1f;" horiz-adv-x="881" 
d="M809 223c0 -41.333 -4.16602 -76.668 -12.499 -106.001s-20.166 -53.666 -35.499 -72.999s-33.833 -33.5 -55.5 -42.5s-45.834 -13.5 -72.501 -13.5c-49.333 0 -90 11.5 -122 34.5s-55.667 55.167 -71 96.5c-15.333 -41.333 -38.833 -73.5 -70.5 -96.5
s-72.167 -34.5 -121.5 -34.5c-26 0 -49.833 4.33301 -71.5 13s-40.334 22.5 -56.001 41.5s-27.667 43.333 -36 73s-12.5 65.5 -12.5 107.5v596h53v-579c0 -69.333 11.167 -120.5 33.5 -153.5s55.5 -49.5 99.5 -49.5c25.333 0 47.833 5.83301 67.5 17.5s36 28.5 49 50.5
s22.833 48.5 29.5 79.5s10 65.833 10 104.5v530h53v-530c0 -38.667 3.33301 -73.5 10 -104.5s16.5 -57.5 29.5 -79.5s29.167 -38.833 48.5 -50.5s42 -17.5 68 -17.5c44 0 77.167 16.5 99.5 49.5s33.5 84.167 33.5 153.5v794h53v-811v0z" />
    <glyph glyph-name="uni0E20" unicode="&#xe20;" horiz-adv-x="768" 
d="M643 0l-0.00390625 566.999c0 38.667 -6.5 71.667 -19.5 99s-31.167 49.666 -54.5 66.999s-51 30.166 -83 38.499s-67 12.5 -105 12.5c-39.333 0 -74.5 -4.33301 -105.5 -13s-57.667 -19.834 -80 -33.501s-39.833 -28.834 -52.5 -45.501s-20 -33 -22 -49
c12 -7.33301 23 -15.333 33 -24c8.66699 -7.33301 16.5 -15.833 23.5 -25.5s10.5 -19.167 10.5 -28.5c0 -7.33301 -2.83301 -14.833 -8.5 -22.5l-18 -24c-6.33301 -8.33301 -12.333 -17.166 -18 -26.499s-8.5 -19.666 -8.5 -30.999v-461h-125v49h72v412
c0 14 2.83301 26 8.5 36s12 19 19 27l19 22c5.66699 6.66699 8.5 13.667 8.5 21c0 5.33301 -3.66699 11.833 -11 19.5s-15.666 14.834 -24.999 21.501l-35 23c3.33301 30.667 14.333 58.5 33 83.5s42.334 46.333 71.001 64s61.334 31.334 98.001 41.001s75 14.5 115 14.5
c40.667 0 79.834 -4.66699 117.501 -14s71 -24.166 100 -44.499s52.167 -46.5 69.5 -78.5s26 -70.333 26 -115v-582h-53z" />
    <glyph glyph-name="uni0E21" unicode="&#xe21;" horiz-adv-x="758" 
d="M686 231c0 -43.333 -6.16992 -80.335 -18.5029 -111.002s-29.333 -55.667 -51 -75s-47.5 -33.666 -77.5 -42.999s-62.333 -14 -97 -14c-42.667 0 -81 6.16699 -115 18.5s-64.167 28.166 -90.5 47.499s-48.666 40.833 -66.999 64.5s-33.166 46.834 -44.499 69.501v-188
h-53v819h53v-493c0 -28 7.66699 -58.667 23 -92s36.833 -64.666 64.5 -93.999s60.167 -53.833 97.5 -73.5s78 -29.5 122 -29.5c29.333 0 56.333 3.5 81 10.5s45.834 18.667 63.501 35s31.5 37.5 41.5 63.5s15 58 15 96v577h53v-588v0z" />
    <glyph glyph-name="uni0E22" unicode="&#xe22;" horiz-adv-x="762" 
d="M406 0c-29.333 0 -58.666 0.167969 -87.999 0.500977s-57.5 2.66602 -84.5 6.99902s-52.167 11.333 -75.5 21s-43.666 24 -60.999 43s-31 43.167 -41 72.5s-15 66 -15 110c0 38 5.66699 71 17 99s25.666 51.333 42.999 70s36.166 33 56.499 43s39.5 16.333 57.5 19
c-17.333 2 -35.5 5.66699 -54.5 11s-36.5 13.833 -52.5 25.5s-29.167 27.5 -39.5 47.5s-15.5 45.333 -15.5 76c0 34.667 7.83301 64.667 23.5 90s37.334 45.5 65.001 60.5s59.834 24.667 96.501 29s76 2.5 118 -5.5v-49c-34.667 6 -67.167 8 -97.5 6s-56.833 -8 -79.5 -18
s-40.5 -24.333 -53.5 -43s-19.5 -41.334 -19.5 -68.001c0 -34 7.66699 -59.833 23 -77.5s34.666 -30.5 57.999 -38.5s49.166 -12.5 77.499 -13.5s55.5 -1.5 81.5 -1.5h64v-49h-64c-34 0 -66.333 -4.16699 -97 -12.5s-57.5 -21.166 -80.5 -38.499s-41.167 -39.5 -54.5 -66.5
s-20 -59.5 -20 -97.5c0 -35.333 4.16699 -65 12.5 -89s19.666 -43.5 33.999 -58.5s31.333 -26.333 51 -34s40.834 -13.167 63.501 -16.5s46.667 -5 72 -5h76h234v770h53v-819h-284z" />
    <glyph glyph-name="uni0E23" unicode="&#xe23;" horiz-adv-x="690" 
d="M649 248c0 -52.667 -9.00293 -95.9932 -27.0029 -129.993s-41.667 -60.667 -71 -80s-62.5 -32.833 -99.5 -40.5s-74.833 -11.5 -113.5 -11.5c-38 0 -75.667 4.16699 -113 12.5s-70.666 23.166 -99.999 44.499s-52.666 50.5 -69.999 87.5s-25.333 84.167 -24 141.5h53
c-1.33301 -48.667 5.33398 -88.334 20.001 -119.001s34.167 -54.834 58.5 -72.501s52 -29.667 83 -36s61.833 -9.5 92.5 -9.5c34 0 66.667 3.16699 98 9.5s58.833 17.5 82.5 33.5s42.5 37.667 56.5 65s21 61.666 21 102.999c0 37.333 -6 67.333 -18 90
s-28.167 40.5 -48.5 53.5s-44 22.667 -71 29s-55.5 12.166 -85.5 17.499c-38 6.66699 -76.167 13 -114.5 19s-72.833 15.167 -103.5 27.5s-55.667 30.166 -75 53.499s-29 55.666 -29 96.999c0 32 8 60.333 24 85s37.167 45.667 63.5 63s56.5 30.5 90.5 39.5
s69 13.5 105 13.5c34.667 0 70 -3.83301 106 -11.5s68.5 -20 97.5 -37s52.833 -39.667 71.5 -68s28 -62.833 28 -103.5h-53c0 32 -7.66699 59 -23 81s-35 39.5 -59 52.5s-50.833 22.333 -80.5 28s-58.834 8.5 -87.501 8.5c-29.333 0 -57.833 -3.33301 -85.5 -10
s-52.167 -16.5 -73.5 -29.5s-38.5 -29 -51.5 -48s-19.5 -40.833 -19.5 -65.5c0 -28 7.83301 -50 23.5 -66s36.167 -28.833 61.5 -38.5s54.5 -17.167 87.5 -22.5l100.5 -17c34 -5.33301 67.167 -12 99.5 -20s61.333 -20.333 87 -37s46.334 -39.5 62.001 -68.5
s23.5 -66.833 23.5 -113.5z" />
    <glyph glyph-name="uni0E24" unicode="&#xe24;" horiz-adv-x="760" 
d="M633 -246l-0.00195312 812.999c0 38.667 -6.5 71.667 -19.5 99s-31.167 49.666 -54.5 66.999s-51 30.166 -83 38.499s-67 12.5 -105 12.5c-39.333 0 -74.5 -4.33301 -105.5 -13s-57.667 -19.834 -80 -33.501s-39.833 -28.834 -52.5 -45.501s-20 -33 -22 -49
c12 -7.33301 23 -15.333 33 -24c8.66699 -7.33301 16.5 -15.833 23.5 -25.5s10.5 -19.167 10.5 -28.5c0 -7.33301 -2.83301 -14.833 -8.5 -22.5l-18 -24c-6.33301 -8.33301 -12.333 -17.166 -18 -26.499s-8.5 -19.666 -8.5 -30.999v-412h106v-49h-159v461
c0 14 2.83301 26 8.5 36s12 19 19 27l19 22c5.66699 6.66699 8.5 13.667 8.5 21c0 5.33301 -3.66699 11.833 -11 19.5s-15.666 14.834 -24.999 21.501c-10.667 7.33301 -22.667 15 -36 23c4 30.667 15.167 58.5 33.5 83.5s42 46.333 71 64s61.833 31.334 98.5 41.001
s75 14.5 115 14.5c40.667 0 79.834 -4.66699 117.501 -14s71 -24.166 100 -44.499s52.167 -46.5 69.5 -78.5s26 -70.333 26 -115v-828h-53z" />
    <glyph glyph-name="uni0E25" unicode="&#xe25;" horiz-adv-x="764" 
d="M639 0l0.000976562 523.995c-11.333 -18 -28.666 -32.833 -51.999 -44.5s-50.166 -21.167 -80.499 -28.5s-62.666 -13.166 -96.999 -17.499s-67.833 -8.16602 -100.5 -11.499c-30.667 -3.33301 -59.167 -9.5 -85.5 -18.5s-49 -21.5 -68 -37.5s-34 -36 -45 -60
s-16.5 -52.333 -16.5 -85c0 -33.333 5.33301 -61.5 16 -84.5s24.667 -41.667 42 -56s37.333 -25 60 -32s46.167 -11.167 70.5 -12.5s48.333 -0.666016 72 2.00098s45.5 6.33398 65.5 11.001v-49c-25.333 -4 -52.333 -7 -81 -9s-57 -1.66699 -85 1s-54.833 8.5 -80.5 17.5
s-48.334 22.333 -68.001 40s-35.334 40.334 -47.001 68.001s-17.5 62.167 -17.5 103.5c0 70.667 20.167 125.834 60.5 165.501s95.833 65.167 166.5 76.5c21.333 3.33301 45.166 6.33301 71.499 9s53.166 6 80.499 10s53.666 9.33301 78.999 16s48 15.334 68 26.001
s36 24 48 40s18 35.667 18 59c0 24.667 -5.66699 47 -17 67s-27.333 37 -48 51s-45.334 24.667 -74.001 32s-60.334 11 -95.001 11c-31.333 0 -61.666 -3.33301 -90.999 -10s-55.833 -16.834 -79.5 -30.501s-43.667 -31.167 -60 -52.5s-27.5 -47 -33.5 -77h-55
c4.66699 38.667 17 71.834 37 99.501s44.5 50.5 73.5 68.5s61 31.167 96 39.5s70.5 12.5 106.5 12.5c34.667 0 69.834 -3.5 105.501 -10.5s67.834 -19.333 96.501 -37s52 -41.334 70 -71.001s27 -66.834 27 -111.501v-604h-53z" />
    <glyph glyph-name="uni0E26" unicode="&#xe26;" horiz-adv-x="768" 
d="M643 -246l-0.00390625 812.999c0 38.667 -6.5 71.667 -19.5 99s-31.167 49.666 -54.5 66.999s-51 30.166 -83 38.499s-67 12.5 -105 12.5c-39.333 0 -74.5 -4.33301 -105.5 -13s-57.667 -19.834 -80 -33.501s-39.833 -28.834 -52.5 -45.501s-20 -33 -22 -49
c12 -7.33301 23 -15.333 33 -24c8.66699 -7.33301 16.5 -15.833 23.5 -25.5s10.5 -19.167 10.5 -28.5c0 -7.33301 -2.83301 -14.833 -8.5 -22.5l-18 -24c-6.33301 -8.33301 -12.333 -17.166 -18 -26.499s-8.5 -19.666 -8.5 -30.999v-461h-125v49h72v412
c0 14 2.83301 26 8.5 36s12 19 19 27l19 22c5.66699 6.66699 8.5 13.667 8.5 21c0 5.33301 -3.66699 11.833 -11 19.5s-15.666 14.834 -24.999 21.501l-35 23c3.33301 30.667 14.333 58.5 33 83.5s42.334 46.333 71.001 64s61.334 31.334 98.001 41.001s75 14.5 115 14.5
c40.667 0 79.834 -4.66699 117.501 -14s71 -24.166 100 -44.499s52.167 -46.5 69.5 -78.5s26 -70.333 26 -115v-828h-53z" />
    <glyph glyph-name="uni0E27" unicode="&#xe27;" horiz-adv-x="754" 
d="M713 410c0 -77.333 -9 -143.002 -27 -197.002s-42.5 -97.833 -73.5 -131.5s-67.5 -58 -109.5 -73s-86.667 -22.5 -134 -22.5c-38 0 -74.333 4.83301 -109 14.5s-66.334 24.834 -95.001 45.501s-53.667 47.5 -75 80.5s-37.666 72.833 -48.999 119.5h57
c10 -38 24 -70.333 42 -97s38.667 -48.5 62 -65.5s49.166 -29.333 77.499 -37s58.166 -11.5 89.499 -11.5c40.667 0 78.667 6.66699 114 20s66 34.833 92 64.5s46.5 68.334 61.5 116.001s22.5 105.834 22.5 174.501s-7.5 126.667 -22.5 174s-35.5 85.833 -61.5 115.5
s-56.667 51.167 -92 64.5s-73.333 20 -114 20c-31.333 0 -61.166 -3.83301 -89.499 -11.5s-54.166 -20 -77.499 -37s-44 -38.833 -62 -65.5s-32 -59 -42 -97h-57c11.333 46.667 27.666 86.5 48.999 119.5s46.333 60 75 81s60.334 36.333 95.001 46s71 14.5 109 14.5
c47.333 0 92 -7.66699 134 -23s78.5 -39.833 109.5 -73.5s55.5 -77.334 73.5 -131.001s27 -119.167 27 -196.5z" />
    <glyph glyph-name="uni0E28" unicode="&#xe28;" horiz-adv-x="758" 
d="M633 0l0.00292969 567.001c0 38.667 -6.83301 71.667 -20.5 99s-32.167 49.666 -55.5 66.999s-50.333 30.166 -81 38.499s-63 12.5 -97 12.5s-66.333 -4.16699 -97 -12.5s-57.667 -21.166 -81 -38.499s-41.833 -39.666 -55.5 -66.999s-20.5 -60.333 -20.5 -99v-98h250
v-49h-250v-420h-53v582c0 44.667 9.33301 83 28 115s42.667 58.167 72 78.5s62.166 35.166 98.499 44.499s72.5 14 108.5 14c25.333 0 50.666 -2.33301 75.999 -7s49.666 -12 72.999 -22c6.66699 6 13 12.667 19 20c5.33301 6.66699 10.333 14.667 15 24s7.66699 20 9 32h60
c-1.33301 -15.333 -5 -29 -11 -41s-12.333 -22.333 -19 -31c-7.33301 -10 -16 -19 -26 -27c32 -20.667 58.5 -47.167 79.5 -79.5s31.5 -72.5 31.5 -120.5v-582h-53z" />
    <glyph glyph-name="uni0E29" unicode="&#xe29;" horiz-adv-x="768" 
d="M686 455l-0.00195312 -217c0 -45.333 -9.16699 -83.833 -27.5 -115.5s-42.166 -57.5 -71.499 -77.5s-62.333 -34.5 -99 -43.5s-73 -13.5 -109 -13.5s-72.167 4.5 -108.5 13.5s-69.166 23.5 -98.499 43.5s-53.333 45.833 -72 77.5s-28 70.167 -28 115.5v581h53v-565
c0 -38.667 6.83301 -71.667 20.5 -99s32.167 -49.833 55.5 -67.5s50.333 -30.5 81 -38.5s63 -12 97 -12s66.333 4 97 12s57.667 20.833 81 38.5s41.833 40.167 55.5 67.5s20.5 60.333 20.5 99v201h-254v106h53v-57h201v315h53v-315h62v-49h-62z" />
    <glyph glyph-name="uni0E2A" unicode="&#xe2a;" horiz-adv-x="764" 
d="M639 0l0.00195312 523.993c-11.333 -18 -28.666 -32.833 -51.999 -44.5s-50.166 -21.167 -80.499 -28.5s-62.666 -13.166 -96.999 -17.499s-67.833 -8.16602 -100.5 -11.499c-30.667 -3.33301 -59.167 -9.5 -85.5 -18.5s-49 -21.5 -68 -37.5s-34 -36 -45 -60
s-16.5 -52.333 -16.5 -85c0 -33.333 5.33301 -61.5 16 -84.5s24.667 -41.667 42 -56s37.333 -25 60 -32s46.167 -11.167 70.5 -12.5s48.333 -0.666016 72 2.00098s45.5 6.33398 65.5 11.001v-49c-25.333 -4 -52.333 -7 -81 -9s-57 -1.66699 -85 1s-54.833 8.5 -80.5 17.5
s-48.334 22.333 -68.001 40s-35.334 40.334 -47.001 68.001s-17.5 62.167 -17.5 103.5c0 70.667 20.167 125.834 60.5 165.501s95.833 65.167 166.5 76.5c21.333 3.33301 45.166 6.33301 71.499 9s53.166 6 80.499 10s53.666 9.33301 78.999 16s48 15.334 68 26.001
s36 24 48 40s18 35.667 18 59c0 24.667 -5.66699 47 -17 67s-27.333 37 -48 51s-45.334 24.667 -74.001 32s-60.334 11 -95.001 11c-31.333 0 -61.666 -3.33301 -90.999 -10s-55.833 -16.834 -79.5 -30.501s-43.667 -31.167 -60 -52.5s-27.5 -47 -33.5 -77h-55
c4.66699 38.667 17 71.834 37 99.501s44.5 50.5 73.5 68.5s61 31.167 96 39.5s70.5 12.5 106.5 12.5c28 0 56.333 -2.33301 85 -7s55.667 -12 81 -22c6 7.33301 13.167 18 21.5 32s13.5 28.667 15.5 44h59c-1.33301 -10.667 -3.66602 -21.167 -6.99902 -31.5
s-7.5 -20 -12.5 -29s-10.167 -17 -15.5 -24s-10 -12.5 -14 -16.5c25.333 -17.333 46 -40.5 62 -69.5s24 -64.5 24 -106.5v-604h-53z" />
    <glyph glyph-name="uni0E2B" unicode="&#xe2b;" horiz-adv-x="758" 
d="M317 770v49h328v-49h-328zM633 0v484.996c0 38 -5 70 -15 96s-23.833 47.167 -41.5 63.5s-38.834 28 -63.501 35s-51.667 10.5 -81 10.5c-41.333 0 -80.5 -9.83301 -117.5 -29.5s-69.5 -44.167 -97.5 -73.5s-50.333 -60.666 -67 -93.999s-25 -64 -25 -92v-401h-53v819h53
v-280c12 20.667 27.833 42.834 47.5 66.501s42.834 45.334 69.501 65.001s56.667 36 90 49s70 19.5 110 19.5c34.667 0 67 -4.66699 97 -14s55.833 -23.666 77.5 -42.999s38.667 -44.5 51 -75.5s18.5 -67.833 18.5 -110.5v-496h-53z" />
    <glyph glyph-name="uni0E2C" unicode="&#xe2c;" horiz-adv-x="881" 
d="M823 1018c2.66699 -26 0.501953 -49.168 -6.49805 -69.501s-17.667 -38 -32 -53s-31.333 -27.167 -51 -36.5s-40.834 -15.666 -63.501 -18.999c48 -10.667 83.167 -33.334 105.5 -68.001s33.5 -75.667 33.5 -123v-426c0 -41.333 -4.16699 -76.666 -12.5 -105.999
s-20.166 -53.666 -35.499 -72.999s-33.833 -33.5 -55.5 -42.5s-45.834 -13.5 -72.501 -13.5c-49.333 0 -90 11.5 -122 34.5s-55.667 55.167 -71 96.5c-15.333 -41.333 -38.833 -73.5 -70.5 -96.5s-72.167 -34.5 -121.5 -34.5c-26 0 -49.833 4.33301 -71.5 13
s-40.334 22.5 -56.001 41.5s-27.667 43.333 -36 73s-12.5 65.5 -12.5 107.5v596h53v-579c0 -69.333 11.167 -120.5 33.5 -153.5s55.5 -49.5 99.5 -49.5c25.333 0 47.833 5.83301 67.5 17.5s36 28.5 49 50.5s22.833 48.5 29.5 79.5s10 65.833 10 104.5v428h53v-428
c0 -38.667 3.33301 -73.5 10 -104.5s16.5 -57.5 29.5 -79.5s29.167 -38.833 48.5 -50.5s42 -17.5 68 -17.5c44 0 77.167 16.5 99.5 49.5s33.5 84.167 33.5 153.5v424c0 20 -3.66699 39.333 -11 58s-17.333 35.167 -30 49.5s-27.667 25.833 -45 34.5s-36 13 -56 13h-200v47
h198c21.333 0 42 2.83301 62 8.5s37.5 14.5 52.5 26.5s26.667 27.667 35 47s11.833 42.666 10.5 69.999h51v0z" />
    <glyph glyph-name="uni0E2D" unicode="&#xe2d;" horiz-adv-x="844" 
d="M803 410c0 -74 -10 -137.665 -30 -190.998s-47.167 -97.166 -81.5 -131.499s-74.666 -59.833 -120.999 -76.5s-95.833 -25 -148.5 -25s-102.167 8.33301 -148.5 25s-86.666 42.167 -120.999 76.5s-61.5 78.166 -81.5 131.499s-30 117 -30 191c0 18 0.5 35.667 1.5 53
s3.16699 33.666 6.5 48.999h225v-49h-178c-1.33301 -8.66699 -2 -17.334 -2 -26.001v-27c0 -65.333 8.33301 -121.5 25 -168.5s39.667 -85.833 69 -116.5s64 -53.334 104 -68.001s83.333 -22 130 -22s90 7.33301 130 22s74.667 37.334 104 68.001s52.333 69.5 69 116.5
s25 103.167 25 168.5c0 64.667 -8.33301 120.667 -25 168s-39.667 86.166 -69 116.499s-64 52.833 -104 67.5s-83.333 22 -130 22c-64 0 -120.833 -13.667 -170.5 -41s-88.5 -70.333 -116.5 -129h-59c15.333 38 34.666 70.833 57.999 98.5s50 50.5 80 68.5
s62.5 31.333 97.5 40s71.833 13 110.5 13c52.667 0 102.167 -8.33301 148.5 -25s86.666 -42.167 120.999 -76.5s61.5 -78.166 81.5 -131.499s30 -117 30 -191z" />
    <glyph glyph-name="uni0E2E" unicode="&#xe2e;" horiz-adv-x="844" 
d="M803 410c0 -74 -10.001 -137.664 -30.001 -190.997s-47.167 -97.166 -81.5 -131.499s-74.666 -59.833 -120.999 -76.5s-95.833 -25 -148.5 -25s-102.167 8.33301 -148.5 25s-86.666 42.167 -120.999 76.5s-61.5 78.166 -81.5 131.499s-30 117 -30 191
c0 18 0.5 35.667 1.5 53s3.16699 33.666 6.5 48.999h225v-49h-178c-1.33301 -8.66699 -2 -17.334 -2 -26.001v-27c0 -65.333 8.33301 -121.5 25 -168.5s39.667 -85.833 69 -116.5s64 -53.334 104 -68.001s83.333 -22 130 -22s90 7.33301 130 22s74.667 37.334 104 68.001
s52.333 69.5 69 116.5s25 103.167 25 168.5c0 64.667 -8.33301 120.667 -25 168s-39.667 86.166 -69 116.499s-64 52.833 -104 67.5s-83.333 22 -130 22c-64 0 -120.833 -13.667 -170.5 -41s-88.5 -70.333 -116.5 -129h-59c15.333 38 34.666 70.833 57.999 98.5
s50 50.5 80 68.5s62.5 31.333 97.5 40s71.833 13 110.5 13c53.333 0 103.666 -9 150.999 -27c6.66699 5.33301 14.334 14.833 23.001 28.5s14 28.834 16 45.501h60c-3.33301 -21.333 -10.5 -41 -21.5 -59s-20.167 -30.667 -27.5 -38c54 -30.667 97.5 -76.834 130.5 -138.501
s49.5 -140.167 49.5 -235.5z" />
    <glyph glyph-name="uni0E2F" unicode="&#xe2f;" horiz-adv-x="682" 
d="M559 0l-0.00292969 717.001c-4 -24.667 -13.667 -50 -29 -76s-36.166 -49.833 -62.499 -71.5s-57.833 -39.334 -94.5 -53.001s-78.334 -20.5 -125.001 -20.5c-23.333 0 -47.333 3.33301 -72 10s-47 17.167 -67 31.5s-36.333 32.5 -49 54.5s-19 48 -19 78
c0 24 4.83301 45.167 14.5 63.5s22.167 33.833 37.5 46.5s33 22.667 53 30s40.333 12.166 61 14.499s40.667 2.5 60 0.5s36.666 -6 51.999 -12v-51c-17.333 10.667 -38.833 16.834 -64.5 18.501s-50.5 -1.33301 -74.5 -9s-44.667 -20.167 -62 -37.5s-26 -39.333 -26 -66
c0 -20 4.16699 -37.833 12.5 -53.5s19.5 -28.667 33.5 -39s30.333 -18.333 49 -24s38.334 -8.5 59.001 -8.5c48.667 0 90.834 7.66699 126.501 23s65.834 35.833 90.501 61.5s44.334 55 59.001 88s25 67.5 31 103.5h57v-819h-51z" />
    <glyph glyph-name="uni0E30" unicode="&#xe30;" horiz-adv-x="246" 
d="M215 645c0 -12.667 -2.33301 -24.667 -7 -36s-11.167 -21.166 -19.5 -29.499s-18.166 -14.833 -29.499 -19.5s-23.333 -7 -36 -7s-24.667 2.33301 -36 7s-21.166 11.167 -29.499 19.5s-14.833 18.166 -19.5 29.499s-7 23.333 -7 36s2.33301 24.667 7 36
s11.167 21.166 19.5 29.499s18.166 14.833 29.499 19.5s23.333 7 36 7s24.667 -2.33301 36 -7s21.166 -11.167 29.499 -19.5s14.833 -18.166 19.5 -29.499s7 -23.333 7 -36zM215 174c0 -12.667 -2.33301 -24.667 -7 -36s-11.167 -21.166 -19.5 -29.499
s-18.166 -14.833 -29.499 -19.5s-23.333 -7 -36 -7s-24.667 2.33301 -36 7s-21.166 11.167 -29.499 19.5s-14.833 18.166 -19.5 29.499s-7 23.333 -7 36s2.33301 24.667 7 36s11.167 21.166 19.5 29.499s18.166 14.833 29.499 19.5s23.333 7 36 7s24.667 -2.33301 36 -7
s21.166 -11.167 29.499 -19.5s14.833 -18.166 19.5 -29.499s7 -23.333 7 -36zM170 645c0 13.333 -4.5 24.5 -13.5 33.5s-20.167 13.5 -33.5 13.5s-24.5 -4.5 -33.5 -13.5s-13.5 -20.167 -13.5 -33.5s4.5 -24.5 13.5 -33.5s20.167 -13.5 33.5 -13.5s24.5 4.5 33.5 13.5
s13.5 20.167 13.5 33.5zM170 174c0 12.667 -4.83301 23.667 -14.5 33s-20.5 14 -32.5 14c-12.667 0 -23.667 -4.66699 -33 -14s-14 -20.333 -14 -33c0 -12 4.66699 -22.833 14 -32.5s20.333 -14.5 33 -14.5c12 0 22.833 4.83301 32.5 14.5s14.5 20.5 14.5 32.5z" />
    <glyph glyph-name="uni0E31" unicode="&#xe31;" 
d="M-334 922v108h55v-59h429v-49h-484z" />
    <glyph glyph-name="uni0E32" unicode="&#xe32;" horiz-adv-x="379" 
d="M254 0v629.001c0 31.333 -6 57 -18 77s-28.5 35.5 -49.5 46.5s-45.833 17.667 -74.5 20s-59.334 1.5 -92.001 -2.5v49c30 5.33301 61.667 6.66602 95 3.99902s64.333 -10.5 93 -23.5s52.334 -31.667 71.001 -56s28 -55.833 28 -94.5v-649h-53z" />
    <glyph glyph-name="uni0E33" unicode="&#xe33;" horiz-adv-x="379" 
d="M-14 1008c0 -25.333 -8.16699 -46 -24.5 -62s-36.833 -24 -61.5 -24c-25.333 0 -46 8 -62 24s-24 36.667 -24 62c0 24.667 8 45.167 24 61.5s36.667 24.5 62 24.5c24.667 0 45.167 -8.16699 61.5 -24.5s24.5 -36.833 24.5 -61.5zM254 0v629.001c0 31.333 -6 57 -18 77
s-28.5 35.5 -49.5 46.5s-45.833 17.667 -74.5 20s-59.334 1.5 -92.001 -2.5v49c30 5.33301 61.667 6.66602 95 3.99902s64.333 -10.5 93 -23.5s52.334 -31.667 71.001 -56s28 -55.833 28 -94.5v-649h-53zM-51 1008c0 13.333 -4.83301 24.833 -14.5 34.5
s-21.167 14.5 -34.5 14.5s-25 -4.83301 -35 -14.5s-15 -21.167 -15 -34.5s5 -25 15 -35s21.667 -15 35 -15s24.833 5 34.5 15s14.5 21.667 14.5 35z" />
    <glyph glyph-name="uni0E34" unicode="&#xe34;" 
d="M-655 922v49h583v-49h-583z" />
    <glyph glyph-name="uni0E35" unicode="&#xe35;" 
d="M-655 922v49h530v104h53v-153h-583z" />
    <glyph glyph-name="uni0E36" unicode="&#xe36;" 
d="M-14 1004c0 -23.333 -8.33203 -42.8311 -24.999 -58.498s-36.334 -23.5 -59.001 -23.5h-557v49h477c-1.33301 2.66699 -2.33301 5.66699 -3 9c-2 6 -3 14 -3 24c0 11.333 2.33301 21.833 7 31.5s10.834 18.167 18.501 25.5s16.667 13.166 27 17.499s21.5 6.5 33.5 6.5
c23.333 0 43.166 -7.83301 59.499 -23.5s24.5 -34.834 24.5 -57.501zM-54.999 1004c0 12 -4.16699 22.167 -12.5 30.5s-19.166 12.5 -32.499 12.5c-12.667 0 -23 -4.16699 -31 -12.5s-12 -18.5 -12 -30.5c0 -13.333 4 -24.333 12 -33s18.333 -13 31 -13
c13.333 0 24.166 4.33301 32.499 13s12.5 19.667 12.5 33z" />
    <glyph glyph-name="uni0E37" unicode="&#xe37;" 
d="M-655 922v49h415v104h54v-104h61v104h53v-153h-583z" />
    <glyph glyph-name="uni0E38" unicode="&#xe38;" 
d="M-125 -297v166h-61v49h114v-215h-53z" />
    <glyph glyph-name="uni0E39" unicode="&#xe39;" 
d="M-72 -193c0 -38 -13.332 -66.5 -39.999 -85.5s-63.667 -28.5 -111 -28.5c-48 0 -85.333 9.5 -112 28.5s-40 47.5 -40 85.5v62h-41v49h94v-104c0 -28 9.16699 -47.333 27.5 -58s42.166 -16 71.499 -16c28.667 0 52.167 5.33301 70.5 16s27.5 30 27.5 58v104h53v-111v0z
" />
    <glyph glyph-name="uni0E3A" unicode="&#xe3a;" 
d="M-45 -135c0 -14.667 -5.33301 -27.167 -16 -37.5s-23 -15.5 -37 -15.5c-14.667 0 -27.334 5.16699 -38.001 15.5s-16 22.833 -16 37.5s5.33301 27.167 16 37.5s23.334 15.5 38.001 15.5c14 0 26.333 -5.16699 37 -15.5s16 -22.833 16 -37.5z" />
    <glyph glyph-name="uni0E3F" unicode="&#xe3f;" horiz-adv-x="836" 
d="M793 270c0 -44 -8.00098 -82.833 -24.001 -116.5s-38.5 -61.834 -67.5 -84.501s-64 -39.834 -105 -51.501s-86.167 -17.5 -135.5 -17.5h-37v-141h-43v141h-297v965h297v131h43v-131h37c56.667 0 104.167 -7.16699 142.5 -21.5s69 -33.166 92 -56.499s39.5 -50 49.5 -80
s15 -60.667 15 -92c0 -26 -4.33301 -50.833 -13 -74.5s-21 -44.667 -37 -63s-35.167 -33.666 -57.5 -45.999s-47.166 -20.166 -74.499 -23.499v-2c4 0.666992 12.167 -0.166016 24.5 -2.49902s26.5 -6.83301 42.5 -13.5s32.667 -15.834 50 -27.501
s33.333 -26.334 48 -44.001s26.667 -38.667 36 -63s14 -52.833 14 -85.5zM701.999 725c0 34.667 -6.66699 63.999 -20 87.999s-31 43.333 -53 58s-47.5 25.334 -76.5 32.001s-59.5 10 -91.5 10h-37v-387h37c40 0 75 4.83301 105 14.5s55.167 23.334 75.5 41.001
s35.5 38.667 45.5 63s15 51.166 15 80.499zM380.999 912.999h-238v-387h238v387zM734.999 269.999c0 41.333 -8.33301 75.333 -25 102s-38.334 47.667 -65.001 63s-56.167 25.833 -88.5 31.5s-64.166 8.5 -95.499 8.5h-37v-424h37c42 0 79.833 4.66699 113.5 14
s62.5 23.333 86.5 42s42.333 41.5 55 68.5s19 58.5 19 94.5zM380.999 474.999h-238v-424h238v424z" />
    <glyph glyph-name="uni0E40" unicode="&#xe40;" horiz-adv-x="258" 
d="M102 0v819h54v-819h-54z" />
    <glyph glyph-name="uni0E41" unicode="&#xe41;" horiz-adv-x="455" 
d="M299 0v819h53v-819h-53zM102 0v819h54v-819h-54z" />
    <glyph glyph-name="uni0E42" unicode="&#xe42;" horiz-adv-x="287" 
d="M190 1221c-14 0 -27.5 -0.331055 -40.5 -0.998047s-24.5 -2.33398 -34.5 -5.00098s-18 -7 -24 -13s-9 -14 -9 -24c0 -14.667 4.83301 -26.167 14.5 -34.5l32.5 -27.5c12 -10 22.833 -22.5 32.5 -37.5s14.5 -35.833 14.5 -62.5v-1016h-53v999
c0 18.667 -2.33301 33.834 -7 45.501s-10.5 21.5 -17.5 29.5s-14.5 15.167 -22.5 21.5s-15.5 13.166 -22.5 20.499s-12.833 16.166 -17.5 26.499s-7 23.5 -7 39.5c0 25.333 11.5 46.333 34.5 63s58.5 25 106.5 25h242v-49h-222z" />
    <glyph glyph-name="uni0E43" unicode="&#xe43;" horiz-adv-x="287" 
d="M272 1135c0 -15.333 -2.33496 -28.502 -7.00195 -39.502s-10.667 -20.833 -18 -29.5s-15 -16.667 -23 -24s-15.667 -15.5 -23 -24.5s-13.333 -19.333 -18 -31s-7 -25.834 -7 -42.501v-944h-53v948c0 29.333 4.83301 52.333 14.5 69s20.5 30.834 32.5 42.501
s22.833 22.834 32.5 33.501s14.5 24.667 14.5 42c0 25.333 -10.333 46 -31 62s-52.667 24 -96 24c-25.333 0 -47.166 -3.66699 -65.499 -11s-33.333 -17 -45 -29s-19.667 -25.5 -24 -40.5s-5.16602 -30.5 -2.49902 -46.5h-53c-3.33301 24.667 -1 47.667 7 69
s20.333 40 37 56s37.5 28.5 62.5 37.5s52.833 13.5 83.5 13.5c58.667 0 103.667 -11.667 135 -35s47 -56.666 47 -99.999z" />
    <glyph glyph-name="uni0E44" unicode="&#xe44;" horiz-adv-x="287" 
d="M233 1145c0.666992 -15.333 -1.83105 -27.833 -7.49805 -37.5s-12.167 -19 -19.5 -28s-14.166 -18.5 -20.499 -28.5s-9.5 -23 -9.5 -39v-1012h-53v1020c0 16.667 3.16699 30.667 9.5 42s13.166 21.333 20.499 30s14.166 16.334 20.499 23.001s9.16602 14 8.49902 22
c-1.33301 12 -8.33301 21.167 -21 27.5s-28.667 9.5 -48 9.5h-35l-84 -54l-133 74l37 33l96 -56l82 50h39c14 0 28 -1.16699 42 -3.5s26.5 -6.33301 37.5 -12s20 -13.334 27 -23.001s10.833 -22.167 11.5 -37.5z" />
    <glyph glyph-name="uni0E45" unicode="&#xe45;" horiz-adv-x="379" 
d="M254 -246v875.001c0 31.333 -6 57 -18 77s-28.5 35.5 -49.5 46.5s-45.833 17.667 -74.5 20s-59.334 1.5 -92.001 -2.5v49c30 5.33301 61.667 6.66602 95 3.99902s64.333 -10.5 93 -23.5s52.334 -31.667 71.001 -56s28 -55.833 28 -94.5v-895h-53z" />
    <glyph glyph-name="uni0E46" unicode="&#xe46;" horiz-adv-x="686" 
d="M561 -246l-0.00195312 1002l-145 -158l-160 168c-21.333 -0.666992 -41.5 -4.33398 -60.5 -11.001s-36 -16 -51 -28s-26.833 -26.333 -35.5 -43s-13 -35 -13 -55c0 -26 5.16699 -47.667 15.5 -65s23.333 -31 39 -41s32.334 -16.667 50.001 -20s34.167 -4.33301 49.5 -3
v-51c-28 0 -54.667 3.5 -80 10.5s-47.5 17.667 -66.5 32s-34.167 32.833 -45.5 55.5s-17 50 -17 82c0 26.667 5.83301 51.5 17.5 74.5s27.834 43 48.501 60s45.167 30.5 73.5 40.5s59.5 15 93.5 15l142 -147l141 147h57v-1065h-53z" />
    <glyph glyph-name="uni0E47" unicode="&#xe47;" 
d="M-438 1092c-43.333 0 -76.668 -6.66699 -100.001 -20s-35 -30.666 -35 -51.999c0 -8 1 -15 3 -21s4.66699 -11 8 -15c2.66699 -4.66699 6.33398 -9 11.001 -13h102l173 71l174 -71v-49l-174 73l-166 -73h-131c-13.333 8 -26 20 -38 36s-18 36.667 -18 62
c0 16 3.83301 31.167 11.5 45.5s19 27.166 34 38.499s33.5 20.333 55.5 27s47.667 10 77 10h381v-49h-368z" />
    <glyph glyph-name="uni0E48" unicode="&#xe48;" 
d="M-125 1137v123h53v-123h-53z" />
    <glyph glyph-name="uni0E49" unicode="&#xe49;" 
d="M-240 1137l-0.000976562 45c0 12 -2.33301 21.5 -7 28.5s-13.667 10.5 -27 10.5h-31v45h37c24.667 0 43.834 -5 57.501 -15s20.5 -24.333 20.5 -43v-24h237v-47h-287z" />
    <glyph glyph-name="uni0E4A" unicode="&#xe4a;" 
d="M37 1137l0.000976562 51c0 21.333 -5.5 38.166 -16.5 50.499s-26.833 18.5 -47.5 18.5h-8l-90 -69l-92 69h-6c-20.667 0 -36.5 -6.16699 -47.5 -18.5s-16.5 -29.166 -16.5 -50.499v-4h74v-47h-121v59c0 34 11.167 60.333 33.5 79s50.166 28 83.499 28h6l86 -62l84 62h8
c33.333 0 61.5 -9.33301 84.5 -28s34.5 -45 34.5 -79v-12h86v-47h-135z" />
    <glyph glyph-name="uni0E4B" unicode="&#xe4b;" 
d="M-72 1214v-77h-53v77h-78v39h78v78h53v-78h78v-39h-78z" />
    <glyph glyph-name="uni0E4C" unicode="&#xe4c;" 
d="M-94 1145c-21.333 0 -38 -4.83301 -50 -14.5s-18 -23.167 -18 -40.5v-17h-55v23c0 34.667 9.33301 59.667 28 75s42 23 70 23h105v-49h-80z" />
    <glyph glyph-name="uni0E4D" unicode="&#xe4d;" 
d="M-14 1008c0 -25.333 -8.16699 -46 -24.5 -62s-36.833 -24 -61.5 -24c-25.333 0 -46 8 -62 24s-24 36.667 -24 62c0 24.667 8 45.167 24 61.5s36.667 24.5 62 24.5c24.667 0 45.167 -8.16699 61.5 -24.5s24.5 -36.833 24.5 -61.5zM-51 1008
c0 13.333 -4.83301 24.833 -14.5 34.5s-21.167 14.5 -34.5 14.5s-25 -4.83301 -35 -14.5s-15 -21.167 -15 -34.5s5 -25 15 -35s21.667 -15 35 -15s24.833 5 34.5 15s14.5 21.667 14.5 35z" />
    <glyph glyph-name="uni0E4E" unicode="&#xe4e;" 
d="M6 1358c-30.667 2.66699 -63.4961 2.33398 -98.4961 -0.999023s-67.333 -9.66602 -97 -18.999s-54.334 -21.833 -74.001 -37.5s-29.5 -34.167 -29.5 -55.5c0 -14 4.16699 -25.667 12.5 -35s18.5 -16.5 30.5 -21.5s25 -8.5 39 -10.5s27 -2.66699 39 -2v-46
c-26 0.666992 -54.333 -1.33301 -85 -6s-58.834 -12.167 -84.501 -22.5s-46.667 -23.333 -63 -39s-22.833 -33.834 -19.5 -54.501c2 -14.667 11 -25.5 27 -32.5s32.333 -10.5 49 -10.5c21.333 0 42.166 3 62.499 9s35.5 11.667 45.5 17l23 -39
c-6.66699 -3.33301 -15.334 -7.16602 -26.001 -11.499s-22.834 -8.16602 -36.501 -11.499s-28.667 -5.83301 -45 -7.5s-33.166 -1.5 -50.499 0.5c-32 4 -57 14.333 -75 31s-27.667 35.667 -29 57c-0.666992 12 1 23.5 5 34.5s9.5 21.167 16.5 30.5s15.333 17.833 25 25.5
s19.5 14.167 29.5 19.5c17.333 9.33301 36.5 17.166 57.5 23.499s39.833 10.166 56.5 11.499v6c-40.667 15.333 -61 44 -61 86c0 11.333 2.83301 23 8.5 35s13.5 23.5 23.5 34.5s21.833 21.333 35.5 31s28.5 17.834 44.5 24.501c19.333 8 41 14.333 65 19
s47.5 8.16699 70.5 10.5s44.333 3.66602 64 3.99902s34.5 0.166016 44.5 -0.500977v-47v0z" />
    <glyph glyph-name="uni0E4F" unicode="&#xe4f;" horiz-adv-x="963" 
d="M901 410c0 -58 -11 -112.5 -33 -163.5s-52 -95.5 -90 -133.5s-82.5 -68 -133.5 -90s-105.5 -33 -163.5 -33s-112.5 11 -163.5 33s-95.5 52 -133.5 90s-68 82.5 -90 133.5s-33 105.5 -33 163.5s11 112.333 33 163s52 95 90 133s82.5 68 133.5 90s105.5 33 163.5 33
s112.5 -11 163.5 -33s95.5 -52 133.5 -90s68 -82.333 90 -133s33 -105 33 -163zM840 410c0 48.667 -9.5 94.834 -28.5 138.501s-44.667 81.667 -77 114s-70.333 58 -114 77s-90.167 28.5 -139.5 28.5s-95.666 -9.5 -138.999 -28.5s-81.166 -44.667 -113.499 -77
s-58 -70.333 -77 -114s-28.5 -89.834 -28.5 -138.501c0 -49.333 9.5 -95.833 28.5 -139.5s44.667 -81.667 77 -114s70.166 -58 113.499 -77s89.666 -28.5 138.999 -28.5s95.833 9.5 139.5 28.5s81.667 44.667 114 77s58 70.333 77 114s28.5 90.167 28.5 139.5zM737 410
c0 -35.333 -6.66699 -68.666 -20 -99.999s-31.5 -58.5 -54.5 -81.5s-50.167 -41.167 -81.5 -54.5s-64.666 -20 -99.999 -20s-68.5 6.66699 -99.5 20s-58.167 31.5 -81.5 54.5s-41.666 50.167 -54.999 81.5s-20 64.666 -20 99.999s6.66699 68.5 20 99.5
s31.666 58.167 54.999 81.5s50.5 41.666 81.5 54.999s64.167 20 99.5 20s68.666 -6.66699 99.999 -20s58.5 -31.666 81.5 -54.999s41.167 -50.5 54.5 -81.5s20 -64.167 20 -99.5z" />
    <glyph glyph-name="uni0E50" unicode="&#xe50;" horiz-adv-x="713" 
d="M672 307c0 -44 -8.33301 -85.333 -25 -124s-39.334 -72.5 -68.001 -101.5s-62.167 -51.833 -100.5 -68.5s-79.166 -25 -122.499 -25s-84.166 8.33301 -122.499 25s-71.833 39.5 -100.5 68.5s-51.167 62.833 -67.5 101.5s-24.5 80 -24.5 124s8.16699 85.333 24.5 124
s38.833 72.5 67.5 101.5s62.167 52 100.5 69s79.166 25.5 122.499 25.5s84.166 -8.5 122.499 -25.5s71.833 -40 100.5 -69s51.334 -62.833 68.001 -101.5s25 -80 25 -124zM621 307c0 37.333 -7 72.5 -21 105.5s-33 61.667 -57 86s-52.333 43.666 -85 57.999
s-67.334 21.5 -104.001 21.5s-71.167 -7.16699 -103.5 -21.5s-60.5 -33.666 -84.5 -57.999s-43 -53 -57 -86s-21 -68.167 -21 -105.5s7 -72.333 21 -105s33 -61.334 57 -86.001s52.167 -44 84.5 -58s66.833 -21 103.5 -21s71.334 7 104.001 21s61 33.333 85 58
s43 53.334 57 86.001s21 67.667 21 105z" />
    <glyph glyph-name="uni0E51" unicode="&#xe51;" horiz-adv-x="762" 
d="M721 313c0 -54 -11.6689 -103.834 -35.002 -149.501s-53.5 -85.667 -90.5 -120s-78.167 -62.5 -123.5 -84.5s-90 -36.333 -134 -43l-25 47c42 6 84.167 18.667 126.5 38s80.333 44.333 114 75s61.167 66 82.5 106s32 83.667 32 131c0 39.333 -7.83301 75.333 -23.5 108
s-36.667 60.667 -63 84s-57.333 41.333 -93 54s-73.5 19 -113.5 19c-37.333 0 -72.833 -6.16699 -106.5 -18.5s-63.5 -29.5 -89.5 -51.5s-46.667 -48.167 -62 -78.5s-23 -63.5 -23 -99.5c0 -25.333 4.33301 -49.5 13 -72.5s20.667 -43.333 36 -61s33.833 -31.667 55.5 -42
s45.5 -15.5 71.5 -15.5c6.66699 0 15.667 0.5 27 1.5s25.666 4.16699 42.999 9.5c-33.333 11.333 -58 27.833 -74 49.5s-24 46.5 -24 74.5c0 18 3.33301 35 10 51s15.834 30 27.501 42s25.334 21.5 41.001 28.5s32.5 10.5 50.5 10.5s34.833 -3.5 50.5 -10.5
s29.334 -16.5 41.001 -28.5s20.834 -26 27.501 -42s10 -33 10 -51c0 -27.333 -6 -52.5 -18 -75.5s-28.5 -43 -49.5 -60s-45.333 -30.333 -73 -40s-57.5 -14.5 -89.5 -14.5c-34 0 -65.167 6.5 -93.5 19.5s-52.5 30.667 -72.5 53s-35.5 48.333 -46.5 78s-16.5 61.5 -16.5 95.5
c0 45.333 9.33301 86.333 28 123s43.5 67.834 74.5 93.501s66.5 45.5 106.5 59.5s81 21 123 21c47.333 0 92.166 -7.16699 134.499 -21.5s79.333 -35 111 -62s56.667 -60 75 -99s27.5 -82.833 27.5 -131.5zM452.998 273.999c0 22.667 -8 42 -24 58s-35.333 24 -58 24
s-42 -8 -58 -24s-24 -35.333 -24 -58s8 -41.834 24 -57.501s35.333 -23.5 58 -23.5s42 7.83301 58 23.5s24 34.834 24 57.501z" />
    <glyph glyph-name="uni0E52" unicode="&#xe52;" horiz-adv-x="1053" 
d="M981 172c0 -24.667 -3.99707 -47.502 -11.9971 -68.502s-19 -39.167 -33 -54.5s-31 -27.333 -51 -36s-42 -13 -66 -13h-565c-24 0 -46 4.33301 -66 13s-37 20.667 -51 36s-25 33.5 -33 54.5s-12 43.833 -12 68.5v518c0 34 -9.5 59 -28.5 75s-42.833 25.333 -71.5 28
l22 45c18 -2 35 -6.16699 51 -12.5s29.833 -14.833 41.5 -25.5s21 -23.5 28 -38.5s10.5 -32.5 10.5 -52.5v-525c0 -17.333 2.5 -34.166 7.5 -50.499s12.167 -30.666 21.5 -42.999s21.166 -22.333 35.499 -30s31.166 -11.5 50.499 -11.5h553
c18.667 0 35.334 3.83301 50.001 11.5s26.667 17.667 36 30s16.5 26.666 21.5 42.999s7.5 33.166 7.5 50.499v252c0 44 -11.5 77.833 -34.5 101.5s-56.5 35.5 -100.5 35.5c-16 0 -31.667 -2.83301 -47 -8.5s-29.166 -13.667 -41.499 -24s-22.166 -22.5 -29.499 -36.5
s-11 -29 -11 -45v-303h-54v305c0 18 -4.33301 33.833 -13 47.5s-19.834 25.334 -33.501 35.001s-29.334 17 -47.001 22s-35.5 7.5 -53.5 7.5c-21.333 0 -41.666 -2.83301 -60.999 -8.5s-36.333 -14.334 -51 -26.001s-26.334 -26.167 -35.001 -43.5s-13 -37.666 -13 -60.999
v-78c7.33301 6.66699 16.666 11.834 27.999 15.501s22.666 5.5 33.999 5.5c16 0 31.167 -3 45.5 -9s26.666 -14.333 36.999 -25s18.5 -23 24.5 -37s9 -29.333 9 -46c0 -16 -3 -31 -9 -45s-14.167 -26.167 -24.5 -36.5s-22.666 -18.5 -36.999 -24.5s-29.5 -9 -45.5 -9
s-31 3 -45 9s-26.167 14.167 -36.5 24.5s-18.5 22.5 -24.5 36.5s-9 29 -9 45v174c0 31.333 5.83301 58.833 17.5 82.5s27.167 43.334 46.5 59.001s42 27.5 68 35.5s53 12 81 12c43.333 0 78.333 -7.33301 105 -22s50.334 -34.667 71.001 -60
c16.667 24.667 37.667 44.5 63 59.5s57.666 22.5 96.999 22.5c54 0 97.833 -15.333 131.5 -46s50.5 -74.334 50.5 -131.001v-274zM434.003 259.998c0 18.667 -6.66699 35 -20 49s-29.666 21 -48.999 21c-18.667 0 -34.667 -7 -48 -21s-20 -30.333 -20 -49
c0 -19.333 6.66699 -35.833 20 -49.5s29.333 -20.5 48 -20.5c19.333 0 35.666 6.83301 48.999 20.5s20 30.167 20 49.5z" />
    <glyph glyph-name="uni0E53" unicode="&#xe53;" horiz-adv-x="915" 
d="M791 0l0.00585938 422c0 25.333 -3.66699 47.5 -11 66.5s-17.5 34.667 -30.5 47s-28 21.666 -45 27.999s-34.833 9.5 -53.5 9.5c-19.333 0 -37.833 -3.16699 -55.5 -9.5s-33.167 -15.166 -46.5 -26.499s-23.833 -25 -31.5 -41s-11.5 -33.333 -11.5 -52v-444h-53v449
c0 21.333 -4.83301 39.833 -14.5 55.5s-22.167 28.5 -37.5 38.5s-32.333 17.5 -51 22.5s-37 7.5 -55 7.5c-24.667 0 -47.334 -3.66699 -68.001 -11s-38.5 -17.666 -53.5 -30.999s-26.833 -29.5 -35.5 -48.5s-13 -39.833 -13 -62.5v-193c9.33301 6.66699 21 11.834 35 15.501
s27.667 5.5 41 5.5c18 0 34.833 -3.33301 50.5 -10s29.334 -15.834 41.001 -27.501s20.834 -25.334 27.501 -41.001s10 -32.5 10 -50.5c0 -18.667 -3.33301 -35.834 -10 -51.501s-15.834 -29.334 -27.501 -41.001s-25.334 -20.667 -41.001 -27s-32.5 -9.5 -50.5 -9.5
s-34.833 3.16699 -50.5 9.5s-29.334 15.333 -41.001 27s-20.834 25.334 -27.501 41.001s-10 32.834 -10 51.501v299c0 34 6.33301 63.833 19 89.5s29.334 47 50.001 64s44.5 29.833 71.5 38.5s54.5 13 82.5 13c45.333 0 84.166 -9.83301 116.499 -29.5
s55.5 -43.5 69.5 -71.5c6.66699 13.333 15.667 26 27 38s24.5 22.667 39.5 32s31.167 16.833 48.5 22.5s35.666 8.5 54.999 8.5c27.333 0 52.666 -4.33301 75.999 -13s43.666 -21.167 60.999 -37.5s31 -36.333 41 -60s15 -50.5 15 -80.5v-432h-53zM283.006 119
c0 22.667 -7.99805 42 -23.998 58s-35.333 24 -58 24s-42 -8 -58 -24s-24 -35.333 -24 -58c0 -12 2.16699 -23 6.5 -33s10.166 -18.833 17.499 -26.5s16 -13.667 26 -18s20.667 -6.5 32 -6.5s22 2.16699 32 6.5s18.667 10.333 26 18s13.166 16.5 17.499 26.5s6.5 21 6.5 33z
" />
    <glyph glyph-name="uni0E54" unicode="&#xe54;" horiz-adv-x="823" 
d="M823 860c0.666992 -34 -4.67188 -68.8379 -16.0049 -104.505s-27.166 -67.834 -47.499 -96.501s-44.833 -52.167 -73.5 -70.5s-60 -27.5 -94 -27.5c-21.333 0 -40.5 0.333008 -57.5 1s-34 1.5 -51 2.5s-35.333 2 -55 3s-43.167 1.5 -70.5 1.5
c-36.667 0 -71.334 -6.5 -104.001 -19.5s-61 -31.333 -85 -55s-42.833 -52 -56.5 -85s-19.834 -69.833 -18.501 -110.5c0.666992 -42 8.66699 -79.167 24 -111.5s35 -59.5 59 -81.5s51.167 -38.667 81.5 -50s61.5 -17 93.5 -17c24.667 0 46.5 1.66699 65.5 5s36.5 7 52.5 11
l45 11c14 3.33301 28 4.66602 42 3.99902l2 2c-15.333 4 -32.5 11.333 -51.5 22s-37 24.167 -54 40.5s-31.333 35.5 -43 57.5s-17.5 46.667 -17.5 74c0 19.333 3.5 37.333 10.5 54s16.5 31.167 28.5 43.5s25.833 22 41.5 29s32.5 10.5 50.5 10.5s34.833 -3.33301 50.5 -10
s29.334 -15.834 41.001 -27.501s20.834 -25.5 27.501 -41.5s10 -33.333 10 -52c0 -16.667 -3.16699 -32.667 -9.5 -48s-15.166 -28.833 -26.499 -40.5s-24.5 -21.167 -39.5 -28.5s-30.833 -11.333 -47.5 -12c6 -7.33301 15.833 -14.5 29.5 -21.5s28.334 -13.5 44.001 -19.5
s31 -11.167 46 -15.5s27.167 -7.16602 36.5 -8.49902l32 -6.5c11.333 -2.33301 22.5 -5.16602 33.5 -8.49902s21.667 -7.16602 32 -11.499s19.5 -9.83301 27.5 -16.5l-33 -43c-14 8 -29 14.5 -45 19.5s-31.333 8.83301 -46 11.5s-28.5 4.33398 -41.5 5.00098
s-23.5 1 -31.5 1c-20.667 0 -40.167 -2 -58.5 -6s-37.666 -8.5 -57.999 -13.5s-42.833 -9.5 -67.5 -13.5s-53.334 -6 -86.001 -6c-38 0 -74.833 6.5 -110.5 19.5s-67.667 32.333 -96 58s-51.333 57.834 -69 96.501s-26.834 83.667 -27.501 135
c-1.33301 47.333 6.33398 90.833 23.001 130.5s39.334 73.834 68.001 102.501s62.5 51 101.5 67s80.5 24 124.5 24c29.333 0 53.833 -0.5 73.5 -1.5s37.667 -2 54 -3l48.5 -3c16 -1 35.333 -1.5 58 -1.5c25.333 0 48.833 8.16699 70.5 24.5s40.334 36.833 56.001 61.5
s28 51.334 37 80.001s13.833 55.334 14.5 80.001h53zM605.994 271.995c0 22.667 -8 42.334 -24 59.001s-35.333 25 -58 25s-42 -8.33301 -58 -25s-24 -36.334 -24 -59.001s8 -42 24 -58s35.333 -24 58 -24s42 8 58 24s24 35.333 24 58z" />
    <glyph glyph-name="uni0E55" unicode="&#xe55;" horiz-adv-x="823" 
d="M823 860c0.666992 -34 -4.66797 -68.8379 -16.001 -104.505s-27.166 -67.834 -47.499 -96.501s-44.833 -52.167 -73.5 -70.5s-60 -27.5 -94 -27.5c-21.333 0 -40.5 0.333008 -57.5 1s-34 1.5 -51 2.5s-35.333 2 -55 3s-43.167 1.5 -70.5 1.5
c-36.667 0 -71.334 -6.5 -104.001 -19.5s-61 -31.333 -85 -55s-42.833 -52 -56.5 -85s-19.834 -69.833 -18.501 -110.5c0.666992 -42 8.66699 -79.167 24 -111.5s35 -59.5 59 -81.5s51.167 -38.667 81.5 -50s61.5 -17 93.5 -17c24.667 0 46.5 1.66699 65.5 5s36.5 7 52.5 11
l45 11c14 3.33301 28 4.66602 42 3.99902l2 2c-15.333 4 -32.5 11.333 -51.5 22s-37 24.167 -54 40.5s-31.333 35.5 -43 57.5s-17.5 46.667 -17.5 74c0 19.333 3.5 37.333 10.5 54s16.5 31.167 28.5 43.5s25.833 22 41.5 29s32.5 10.5 50.5 10.5s34.833 -3.33301 50.5 -10
s29.334 -15.834 41.001 -27.501s20.834 -25.5 27.501 -41.5s10 -33.333 10 -52c0 -16.667 -3.16699 -32.667 -9.5 -48s-15.166 -28.833 -26.499 -40.5s-24.5 -21.167 -39.5 -28.5s-30.833 -11.333 -47.5 -12c6 -7.33301 15.833 -14.5 29.5 -21.5s28.334 -13.5 44.001 -19.5
s31 -11.167 46 -15.5s27.167 -7.16602 36.5 -8.49902l32 -6.5c11.333 -2.33301 22.5 -5.16602 33.5 -8.49902s21.667 -7.16602 32 -11.499s19.5 -9.83301 27.5 -16.5l-33 -43c-14 8 -29 14.5 -45 19.5s-31.333 8.83301 -46 11.5s-28.5 4.33398 -41.5 5.00098
s-23.5 1 -31.5 1c-20.667 0 -40.167 -2 -58.5 -6s-37.666 -8.5 -57.999 -13.5s-42.833 -9.5 -67.5 -13.5s-53.334 -6 -86.001 -6c-38 0 -74.833 6.5 -110.5 19.5s-67.667 32.333 -96 58s-51.333 57.834 -69 96.501s-26.834 83.667 -27.501 135
c-1.33301 44.667 5.33398 86 20.001 124s35.167 71.167 61.5 99.5s57.166 51 92.499 68s73.666 27.167 114.999 30.5c-8.66699 7.33301 -16.334 17.666 -23.001 30.999s-10 28.666 -10 45.999c0 18.667 3.33301 36 10 52s16.167 29.833 28.5 41.5s27 20.834 44 27.501
s35.833 10 56.5 10s39.5 -3.33301 56.5 -10s31.667 -15.667 44 -27s21.833 -25.166 28.5 -41.499s10 -33.833 10 -52.5c0 -19.333 -3.5 -35.666 -10.5 -48.999s-15.5 -24.333 -25.5 -33c8 -1.33301 16.167 -2 24.5 -2h28.5c25.333 0 48.833 8.16699 70.5 24.5
s40.334 36.833 56.001 61.5s28 51.334 37 80.001s13.833 55.334 14.5 80.001h53zM521.998 697.995c0 11.333 -2.33301 22 -7 32s-10.834 18.667 -18.501 26s-16.667 13.166 -27 17.499s-21.5 6.5 -33.5 6.5s-23.167 -2.16699 -33.5 -6.5s-19.333 -10.166 -27 -17.499
s-13.834 -16 -18.501 -26s-7 -20.667 -7 -32s2.33301 -21.833 7 -31.5s10.834 -18.167 18.501 -25.5s16.667 -13 27 -17s21.5 -6 33.5 -6s23.167 2 33.5 6s19.333 9.66699 27 17s13.834 15.833 18.501 25.5s7 20.167 7 31.5zM605.998 271.995c0 22.667 -8 42.334 -24 59.001
s-35.333 25 -58 25s-42 -8.33301 -58 -25s-24 -36.334 -24 -59.001s8 -42 24 -58s35.333 -24 58 -24s42 8 58 24s24 35.333 24 58z" />
    <glyph glyph-name="uni0E56" unicode="&#xe56;" horiz-adv-x="770" 
d="M729 311c0 -47.333 -9.16797 -90.999 -27.501 -130.999s-43.333 -74.333 -75 -103s-68.667 -51 -111 -67s-87.833 -24 -136.5 -24c-46 0 -88 6.83301 -126 20.5s-70.5 31.667 -97.5 54s-48 47.833 -63 76.5s-22.5 58 -22.5 88c0 19.333 3.5 37.166 10.5 53.499
s16.333 30.333 28 42s25.5 20.834 41.5 27.501s33 10 51 10s34.833 -3.33301 50.5 -10s29.334 -15.834 41.001 -27.501s20.834 -25.5 27.501 -41.5s10 -33.333 10 -52c0 -34 -11.667 -62.833 -35 -86.5s-54.666 -37.167 -93.999 -40.5
c24.667 -21.333 52.167 -36.833 82.5 -46.5s62.166 -14.5 95.499 -14.5c40.667 0 79 6.66699 115 20s67.5 32 94.5 56s48.333 52.667 64 86s23.5 70 23.5 110c0 38 -7.66699 72.833 -23 104.5s-35.833 58.834 -61.5 81.501s-55.5 40.334 -89.5 53.001s-69.667 19 -107 19
c-31.333 0 -60.166 -3.5 -86.499 -10.5s-49.833 -16.167 -70.5 -27.5s-38.167 -23.833 -52.5 -37.5s-24.833 -27.167 -31.5 -40.5h-52c-5.33301 36 -13.833 71 -25.5 105s-25.834 66 -42.501 96s-35.167 58 -55.5 84s-41.833 49.667 -64.5 71l45 33
c26.667 -22.667 50.667 -47.334 72 -74.001s39.666 -54 54.999 -82s27.5 -55.833 36.5 -83.5s15.167 -53.834 18.5 -78.501c12.667 14.667 28.334 28.167 47.001 40.5s39 23 61 32s45.5 16 70.5 21s50.167 7.5 75.5 7.5c46 0 89.333 -7.66699 130 -23
s76.167 -36.666 106.5 -63.999s54.166 -60.333 71.499 -99s26 -81.334 26 -128.001zM282.999 227.001c0 12 -2.16895 23 -6.50195 33s-10.166 18.833 -17.499 26.5s-16 13.667 -26 18s-20.667 6.5 -32 6.5s-22 -2.16699 -32 -6.5s-18.667 -10.333 -26 -18
s-13.166 -16.5 -17.499 -26.5s-6.5 -21 -6.5 -33c0 -22.667 8 -42 24 -58s35.333 -24 58 -24s42 8 58 24s24 35.333 24 58z" />
    <glyph glyph-name="uni0E57" unicode="&#xe57;" horiz-adv-x="1122" 
d="M1159 811c-17.333 -13.333 -34.8262 -33.335 -52.4932 -60.002s-29.5 -57.334 -35.5 -92.001c-5.33301 -29.333 -7.5 -56.5 -6.5 -81.5s2.83301 -49.833 5.5 -74.5s5.16699 -49.667 7.5 -75s2.16602 -52.666 -0.500977 -81.999c-4 -48 -12.667 -91.667 -26 -131
s-30.333 -73.666 -51 -102.999s-44.5 -53.5 -71.5 -72.5s-55.833 -32.167 -86.5 -39.5h-51v422c0 25.333 -3.66699 47.5 -11 66.5s-17.5 34.667 -30.5 47s-28 21.666 -45 27.999s-34.833 9.5 -53.5 9.5c-19.333 0 -37.833 -3.16699 -55.5 -9.5
s-33.167 -15.166 -46.5 -26.499s-23.833 -25 -31.5 -41s-11.5 -33.333 -11.5 -52v-444h-53v449c0 21.333 -4.83301 39.833 -14.5 55.5s-22.167 28.5 -37.5 38.5s-32.333 17.5 -51 22.5s-37 7.5 -55 7.5c-24.667 0 -47.334 -3.66699 -68.001 -11s-38.5 -17.666 -53.5 -30.999
s-26.833 -29.5 -35.5 -48.5s-13 -39.833 -13 -62.5v-193c9.33301 6.66699 21 11.834 35 15.501s27.667 5.5 41 5.5c18 0 34.833 -3.33301 50.5 -10s29.334 -15.834 41.001 -27.501s20.834 -25.334 27.501 -41.001s10 -32.5 10 -50.5c0 -18.667 -3.33301 -35.834 -10 -51.501
s-15.834 -29.334 -27.501 -41.001s-25.334 -20.667 -41.001 -27s-32.5 -9.5 -50.5 -9.5s-34.833 3.16699 -50.5 9.5s-29.334 15.333 -41.001 27s-20.834 25.334 -27.501 41.001s-10 32.834 -10 51.501v299c0 34 6.33301 63.833 19 89.5s29.334 47 50.001 64
s44.5 29.833 71.5 38.5s54.5 13 82.5 13c45.333 0 84.166 -9.83301 116.499 -29.5s55.5 -43.5 69.5 -71.5c6.66699 13.333 15.667 26 27 38s24.5 22.667 39.5 32s31.167 16.833 48.5 22.5s35.666 8.5 54.999 8.5c27.333 0 52.666 -4.33301 75.999 -13
s43.666 -21.167 60.999 -37.5s31 -36.333 41 -60s15 -50.5 15 -80.5v-379c18.667 4 38 13.333 58 28s38.5 34.167 55.5 58.5s31.5 53.666 43.5 87.999s19.667 73.166 23 116.499c2.66699 32 2.83398 61.167 0.500977 87.5s-4.83301 51.833 -7.5 76.5
s-4.5 49.834 -5.5 75.501s1.16699 53.834 6.5 84.501c3.33301 22 9 42.333 17 61s16.667 35.334 26 50.001s19.166 27.5 29.499 38.5s19.5 19.833 27.5 26.5zM283.007 118.998c0 22.667 -7.99805 42 -23.998 58s-35.333 24 -58 24s-42 -8 -58 -24s-24 -35.333 -24 -58
c0 -12 2.16699 -23 6.5 -33s10.166 -18.833 17.499 -26.5s16 -13.667 26 -18s20.667 -6.5 32 -6.5s22 2.16699 32 6.5s18.667 10.333 26 18s13.166 16.5 17.499 26.5s6.5 21 6.5 33z" />
    <glyph glyph-name="uni0E58" unicode="&#xe58;" horiz-adv-x="840" 
d="M840 844c-2.66699 -30 -8.5 -62.999 -17.5 -98.999s-22 -69.333 -39 -100s-38 -56.334 -63 -77.001s-54.833 -31 -89.5 -31c-25.333 0 -48.333 1.66699 -69 5s-41.167 7 -61.5 11s-41.333 7.66699 -63 11s-45.834 5 -72.501 5c-40 0 -76.667 -5.66699 -110 -17
s-61.833 -27.5 -85.5 -48.5s-42.167 -46.667 -55.5 -77s-20 -64.5 -20 -102.5c0 -36.667 5.33301 -70.334 16 -101.001s24.5 -57.667 41.5 -81s35.833 -42.5 56.5 -57.5s40.667 -25.5 60 -31.5l117 164c21.333 -32.667 43 -61.667 65 -87
c9.33301 -11.333 19.5 -22.166 30.5 -32.499s22.167 -19.5 33.5 -27.5s22.666 -14.5 33.999 -19.5s22.666 -7.5 33.999 -7.5s23 3.66699 35 11s23.5 16 34.5 26s20.667 20 29 30s14.166 17.667 17.499 23c-16 -2.66699 -32.167 -2 -48.5 2s-31.166 11 -44.499 21
s-24.333 22.833 -33 38.5s-13 34.167 -13 55.5c0 16 3 31 9 45s14.167 26.333 24.5 37s22.5 19.167 36.5 25.5s29 9.5 45 9.5s31.167 -2.83301 45.5 -8.5s27.166 -13.834 38.499 -24.501s20.333 -23.167 27 -37.5s10 -30.5 10 -48.5c0 -30.667 -7.33301 -61.5 -22 -92.5
s-33 -58.833 -55 -83.5s-46.167 -44.834 -72.5 -60.501s-51.166 -23.5 -74.499 -23.5c-21.333 0 -43.166 7.33301 -65.499 22s-42.833 30.667 -61.5 48c-22 20.667 -43 44.334 -63 71.001l-94 -141c-35.333 10 -68 24.333 -98 43s-56 42 -78 70s-39.167 60.667 -51.5 98
s-18.5 79 -18.5 125c0 46.667 7.83301 88.667 23.5 126s37.834 68.666 66.501 93.999s63 44.833 103 58.5s84.333 20.5 133 20.5c18 0 37.833 -1.66699 59.5 -5s43.667 -7.16602 66 -11.499s44.833 -8.16602 67.5 -11.499s44.334 -5 65.001 -5c26 0 48.5 8.33301 67.5 25
s35 37.5 48 62.5s23.167 52.5 30.5 82.5s12.333 58 15 84h54zM741 250.001c0 18.667 -6.5 34.5 -19.5 47.5s-28.833 19.5 -47.5 19.5s-34.667 -6.5 -48 -19.5s-20 -28.833 -20 -47.5s6.66699 -34.667 20 -48s29.333 -20 48 -20s34.5 6.66699 47.5 20s19.5 29.333 19.5 48z
" />
    <glyph glyph-name="uni0E59" unicode="&#xe59;" horiz-adv-x="934" 
d="M963 848c4.66699 -37.333 5.33105 -74.834 1.99805 -112.501s-9.33301 -73.5 -18 -107.5s-19.5 -65 -32.5 -93s-26.5 -51.333 -40.5 -70l-38 16c-0.666992 8.66699 -3.33398 18.334 -8.00098 29.001s-11.5 20.667 -20.5 30s-19.833 17.166 -32.5 23.499
s-27.334 9.5 -44.001 9.5c-17.333 0 -32.166 -3.83301 -44.499 -11.5s-22.333 -17.5 -30 -29.5s-13.334 -25.333 -17.001 -40s-5.16699 -29 -4.5 -43c20 -31.333 37.833 -65.166 53.5 -101.499s29.334 -73.833 41.001 -112.5s21.334 -77.667 29.001 -117
s13.5 -77.333 17.5 -114l-53 -8c-5.33301 41.333 -12.333 84.5 -21 129.5s-20 88.833 -34 131.5s-30.667 83.167 -50 121.5s-42.166 71.833 -68.499 100.5s-56.333 51.5 -90 68.5s-71.5 25.5 -113.5 25.5c-35.333 0 -68.333 -6.66699 -99 -20s-57.334 -32 -80.001 -56
s-40.5 -52.167 -53.5 -84.5s-19.5 -67.5 -19.5 -105.5c0 -40 6.16699 -76.5 18.5 -109.5s28.833 -61.5 49.5 -85.5s43.834 -42.5 69.501 -55.5s52.167 -19.5 79.5 -19.5c-42 24.667 -63 62.334 -63 113.001c0 18 3.33301 34.833 10 50.5s15.834 29.334 27.501 41.001
s25.334 20.834 41.001 27.501s32.5 10 50.5 10s34.833 -3.33301 50.5 -10s29.334 -15.834 41.001 -27.501s20.834 -25.334 27.501 -41.001s10 -32.5 10 -50.5c0 -25.333 -5.5 -48 -16.5 -68s-25.333 -37 -43 -51s-37.834 -24.667 -60.501 -32s-45.667 -11 -69 -11
c-47.333 0 -88.166 9.16699 -122.499 27.5s-63 42.666 -86 72.999s-40 65 -51 104s-16.5 79.167 -16.5 120.5c0 44.667 7.83301 86.167 23.5 124.5s37.334 71.5 65.001 99.5s60 50 97 66s76.833 24 119.5 24c50 0 95.5 -10.5 136.5 -31.5s77.5 -49.5 109.5 -85.5
c7.33301 32.667 22.166 60 44.499 82s51.166 33.667 86.499 35c20 0.666992 37.667 -1.5 53 -6.5s28.833 -11.167 40.5 -18.5s21.167 -15.666 28.5 -24.999s13 -18 17 -26c9.33301 16 17.666 35.5 24.999 58.5s13.166 47.5 17.499 73.5s7 53.167 8 81.5
s-0.166992 56.166 -3.5 83.499h54zM458.997 149.999c0 22.667 -8 41.834 -24 57.501s-35.333 23.5 -58 23.5s-42 -7.83301 -58 -23.5s-24 -34.834 -24 -57.501c0 -23.333 8 -43.166 24 -59.499s35.333 -24.5 58 -24.5s42 8.16699 58 24.5s24 36.166 24 59.499z" />
    <glyph glyph-name="uni0E5A" unicode="&#xe5a;" horiz-adv-x="815" 
d="M692 0v819h51v-819h-51zM559 0l-0.00292969 717.001c-4 -24.667 -13.667 -50 -29 -76s-36.166 -49.833 -62.499 -71.5s-57.833 -39.334 -94.5 -53.001s-78.334 -20.5 -125.001 -20.5c-23.333 0 -47.333 3.33301 -72 10s-47 17.167 -67 31.5s-36.333 32.5 -49 54.5
s-19 48 -19 78c0 24 4.83301 45.167 14.5 63.5s22.167 33.833 37.5 46.5s33 22.667 53 30s40.333 12.166 61 14.499s40.667 2.5 60 0.5s36.666 -6 51.999 -12v-51c-17.333 10.667 -38.833 16.834 -64.5 18.501s-50.5 -1.33301 -74.5 -9s-44.667 -20.167 -62 -37.5
s-26 -39.333 -26 -66c0 -20 4.16699 -37.833 12.5 -53.5s19.5 -28.667 33.5 -39s30.333 -18.333 49 -24s38.334 -8.5 59.001 -8.5c48.667 0 90.834 7.66699 126.501 23s65.834 35.833 90.501 61.5s44.334 55 59.001 88s25 67.5 31 103.5h57v-819h-51z" />
    <glyph glyph-name="uni0E5B" unicode="&#xe5b;" horiz-adv-x="1393" 
d="M1360 434c0 -4 -3.66406 -6.33008 -10.9971 -6.99707s-14 -1.66699 -20 -3l-123 -10c-2 -6 -4 -12.667 -6 -20s-4.16699 -14.166 -6.5 -20.499s-5.33301 -11.5 -9 -15.5s-8.16699 -6 -13.5 -6c-6 0 -11.833 4.5 -17.5 13.5s-11.334 19.833 -17.001 32.5
s-11.167 25.834 -16.5 39.501s-10.666 24.834 -15.999 33.501c-2.66699 -8.66699 -5.33398 -21 -8.00098 -37s-6 -31.833 -10 -47.5s-8.83301 -29.334 -14.5 -41.001s-12.5 -17.5 -20.5 -17.5c-7.33301 0 -14.5 5.83301 -21.5 17.5s-14 25.667 -21 42l-21.5 51
c-7.33301 17.667 -15.333 32.5 -24 44.5c-4 -14 -7.33301 -31 -10 -51s-5.83398 -39.5 -9.50098 -58.5s-8.16699 -35.167 -13.5 -48.5s-12.333 -20 -21 -20c-9.33301 0 -17.5 7.5 -24.5 22.5s-13.833 33.167 -20.5 54.5l-21.5 66.5c-7.66699 23 -16.834 42.167 -27.501 57.5
c-2 -21.333 -5 -45.166 -9 -71.499s-9 -51 -15 -74s-13.167 -42.333 -21.5 -58s-17.833 -23.5 -28.5 -23.5c-7.33301 0 -12 2.83301 -14 8.5s-4 13.5 -6 23.5l-9.5 46c-3.66699 18 -8 37 -13 57s-10.833 39.667 -17.5 59s-14 37 -22 53l-2 -18
c-3.33301 -29.333 -8.83301 -59.333 -16.5 -90s-17 -60.167 -28 -88.5s-23.5 -54.5 -37.5 -78.5s-28.333 -44.333 -43 -61c-30.667 -36 -64.667 -63.333 -102 -82s-75.666 -28 -114.999 -28c-37.333 0 -71.5 8 -102.5 24s-57.833 38.667 -80.5 68s-40.167 64.5 -52.5 105.5
s-18.5 86.5 -18.5 136.5c0 46.667 5.83301 90.667 17.5 132s27.667 77.166 48 107.499s44.666 54.333 72.999 72s59.5 26.5 93.5 26.5c26.667 0 51.834 -6.16699 75.501 -18.5s44 -29.333 61 -51s30.5 -47 40.5 -76s15 -60.5 15 -94.5c0 -25.333 -2.66699 -48.833 -8 -70.5
s-12.833 -40.334 -22.5 -56.001s-21.5 -27.834 -35.5 -36.501s-30 -13 -48 -13c-14 0 -27 3 -39 9s-22.5 14.167 -31.5 24.5s-16 22.5 -21 36.5s-7.5 29 -7.5 45c0 15.333 2.5 30 7.5 44s11.833 26.333 20.5 37s19 19.167 31 25.5s24.667 9.5 38 9.5
c11.333 0 21.5 -1.16699 30.5 -3.5s17.167 -6.5 24.5 -12.5c-6 47.333 -21.333 84.833 -46 112.5s-52.334 41.5 -83.001 41.5c-24 0 -47 -7 -69 -21s-41.333 -34 -58 -60s-30 -57.5 -40 -94.5s-15 -78.167 -15 -123.5c0 -44.667 5.5 -84.5 16.5 -119.5
s26.167 -64.5 45.5 -88.5s42.166 -42.167 68.499 -54.5s54.5 -18.5 84.5 -18.5c34.667 0 67.834 9 99.501 27s60.334 44 86.001 78s47.667 75.167 66 123.5s31.166 103.166 38.499 164.499c3.33301 23.333 6.66602 40.166 9.99902 50.499s11 15.5 23 15.5
c10 0 19.667 -7.16699 29 -21.5s18.333 -32.833 27 -55.5s16.5 -48.167 23.5 -76.5s12.833 -56.5 17.5 -84.5l8 -2c6.66699 23.333 11.167 47.833 13.5 73.5s4.83301 49.334 7.5 71.001s6.16699 39.5 10.5 53.5s11.5 21 21.5 21c8 0 16.5 -5.83301 25.5 -17.5
s17.833 -27 26.5 -46s16.834 -40.667 24.501 -65s14.167 -49.166 19.5 -74.499h8c2.66699 13.333 4.83398 29.5 6.50098 48.5s3.66699 37 6 54s5.33301 31.5 9 43.5s8.83398 18 15.501 18c17.333 0 33.666 -15.333 48.999 -46s32.666 -71.334 51.999 -122.001
c5.33301 14 9.5 29 12.5 45s6 31 9 45s6.83301 25.5 11.5 34.5s11.334 13.5 20.001 13.5c7.33301 0 14 -3.5 20 -10.5s11.667 -16 17 -27s10.666 -22.833 15.999 -35.5s11 -24.667 17 -36c2.66699 11.333 5.33398 21.666 8.00098 30.999s5.5 17.166 8.5 23.499
s6.66699 11 11 14s10.166 4.16699 17.499 3.5l110 -15c6 -1.33301 12.667 -2 20 -2s11 -2 11 -6zM426.003 453.003c0 19.333 -5.66699 35.666 -17 48.999s-24.666 20 -39.999 20c-13.333 0 -26 -6.66699 -38 -20s-18 -29.666 -18 -48.999s6 -35.833 18 -49.5
s24.667 -20.5 38 -20.5c15.333 0 28.666 6.83301 39.999 20.5s17 30.167 17 49.5z" />
    <glyph glyph-name="zerowidthnonjoiner" unicode="&#x200c;" 
 />
    <glyph glyph-name="zerowidthjoiner" unicode="&#x200d;" 
 />
    <glyph glyph-name="endash" unicode="&#x2013;" horiz-adv-x="748" 
d="M61 315v52h625v-52h-625z" />
    <glyph glyph-name="emdash" unicode="&#x2014;" horiz-adv-x="1495" 
d="M61 315v52h1373v-52h-1373z" />
    <glyph glyph-name="quoteleft" unicode="&#x2018;" horiz-adv-x="322" 
d="M240 821c0 -19.333 -7.16797 -35.998 -21.501 -49.998s-31.166 -21 -50.499 -21c-28 0 -49.333 9 -64 27s-22 41 -22 69c0 14 2.16699 29.167 6.5 45.5s11 32.833 20 49.5s20.667 32.667 35 48s31.5 29 51.5 41l32 -22c-12 -8 -23.5 -17.5 -34.5 -28.5
s-20.833 -22.5 -29.5 -34.5s-15.667 -23.833 -21 -35.5s-8.33301 -21.834 -9 -30.501c11.333 5.33301 19.166 8 23.499 8h17.5c16.667 0 31.834 -6.33301 45.501 -19s20.5 -28.334 20.5 -47.001z" />
    <glyph glyph-name="quoteright" unicode="&#x2019;" horiz-adv-x="322" 
d="M240 934c0 -14 -2.16406 -29.167 -6.49707 -45.5s-11 -32.833 -20 -49.5s-20.667 -32.667 -35 -48s-31.5 -29 -51.5 -41l-33 22c12 8 23.5 17.5 34.5 28.5s20.833 22.5 29.5 34.5s15.5 23.833 20.5 35.5s8.16699 21.834 9.5 30.501
c-5.33301 -2.66699 -9.83301 -4.5 -13.5 -5.5s-6.83398 -1.66699 -9.50098 -2s-5.33398 -0.5 -8.00098 -0.5h-10c-16 0 -30.833 6.33301 -44.5 19s-20.5 28 -20.5 46c0 19.333 7.16699 36.166 21.5 50.499s31.166 21.5 50.499 21.5c28 0 49.333 -9 64 -27s22 -41 22 -69z
" />
    <glyph glyph-name="quotedblleft" unicode="&#x201c;" horiz-adv-x="549" 
d="M467 821c0 -19.333 -7.16895 -35.998 -21.502 -49.998s-31.166 -21 -50.499 -21c-28 0 -49.333 9 -64 27s-22 41 -22 69c0 14 2.16699 29.167 6.5 45.5s11 32.833 20 49.5s20.667 32.667 35 48s31.5 29 51.5 41l33 -22c-12 -8 -23.5 -17.5 -34.5 -28.5
s-20.833 -22.5 -29.5 -34.5s-15.667 -23.833 -21 -35.5s-8.66602 -21.834 -9.99902 -30.501c11.333 5.33301 19.166 8 23.499 8h17.5c16.667 0 31.834 -6.33301 45.501 -19s20.5 -28.334 20.5 -47.001zM239.998 821.002c0 -19.333 -7.16797 -35.998 -21.501 -49.998
s-31.166 -21 -50.499 -21c-28 0 -49.333 9 -64 27s-22 41 -22 69c0 14 2.16699 29.167 6.5 45.5s11 32.833 20 49.5s20.667 32.667 35 48s31.5 29 51.5 41l32 -22c-12 -8 -23.5 -17.5 -34.5 -28.5s-20.833 -22.5 -29.5 -34.5s-15.667 -23.833 -21 -35.5
s-8.33301 -21.834 -9 -30.501c11.333 5.33301 19.166 8 23.499 8h17.5c16.667 0 31.834 -6.33301 45.501 -19s20.5 -28.334 20.5 -47.001z" />
    <glyph glyph-name="quotedblright" unicode="&#x201d;" horiz-adv-x="549" 
d="M467 934c0 -14 -2.16602 -29.167 -6.49902 -45.5s-11 -32.833 -20 -49.5s-20.667 -32.667 -35 -48s-31.5 -29 -51.5 -41l-32 22c12 8 23.5 17.5 34.5 28.5s20.833 22.5 29.5 34.5s15.5 23.833 20.5 35.5s8.16699 21.834 9.5 30.501
c-11.333 -5.33301 -19.166 -8 -23.499 -8h-17.5c-16.667 0 -31.834 6.33301 -45.501 19s-20.5 28 -20.5 46c0 19.333 7.16699 36.166 21.5 50.499s31.166 21.5 50.499 21.5c28 0 49.333 -9 64 -27s22 -41 22 -69zM240.001 934c0 -14 -2.16406 -29.167 -6.49707 -45.5
s-11 -32.833 -20 -49.5s-20.667 -32.667 -35 -48s-31.5 -29 -51.5 -41l-33 22c12 8 23.5 17.5 34.5 28.5s20.833 22.5 29.5 34.5s15.5 23.833 20.5 35.5s8.16699 21.834 9.5 30.501c-5.33301 -2.66699 -9.83301 -4.5 -13.5 -5.5s-6.83398 -1.66699 -9.50098 -2
s-5.33398 -0.5 -8.00098 -0.5h-10c-16 0 -30.833 6.33301 -44.5 19s-20.5 28 -20.5 46c0 19.333 7.16699 36.166 21.5 50.499s31.166 21.5 50.499 21.5c28 0 49.333 -9 64 -27s22 -41 22 -69z" />
    <glyph glyph-name="bullet" unicode="&#x2022;" horiz-adv-x="737" 
d="M676 410c0 -42.667 -8 -82.667 -24 -120s-37.833 -70 -65.5 -98s-60.167 -50 -97.5 -66s-77.333 -24 -120 -24s-82.667 8 -120 24s-70 38 -98 66s-50 60.667 -66 98s-24 77.333 -24 120s8 82.667 24 120s38 69.833 66 97.5s60.667 49.5 98 65.5s77.333 24 120 24
s82.667 -8 120 -24s69.833 -37.833 97.5 -65.5s49.5 -60.167 65.5 -97.5s24 -77.333 24 -120z" />
    <glyph glyph-name="ellipsis" unicode="&#x2026;" horiz-adv-x="866" 
d="M784 51c0 -17.333 -6.16699 -31.833 -18.5 -43.5s-27.166 -17.5 -44.499 -17.5s-32 5.83301 -44 17.5s-18 26.167 -18 43.5s6 32.333 18 45s26.667 19 44 19s32.166 -6.33301 44.499 -19s18.5 -27.667 18.5 -45zM496 51c0 -17.333 -6.33301 -31.833 -19 -43.5
s-27.667 -17.5 -45 -17.5s-31.833 5.83301 -43.5 17.5s-17.5 26.167 -17.5 43.5s5.83301 32.333 17.5 45s26.167 19 43.5 19s32.333 -6.33301 45 -19s19 -27.667 19 -45zM207 51c0 -17.333 -6.33301 -31.833 -19 -43.5s-27.667 -17.5 -45 -17.5s-31.833 5.83301 -43.5 17.5
s-17.5 26.167 -17.5 43.5s5.83301 32.333 17.5 45s26.167 19 43.5 19s32.333 -6.33301 45 -19s19 -27.667 19 -45z" />
    <glyph glyph-name="thothannobasethai" unicode="&#xf700;" horiz-adv-x="680" 
d="M639 469c0 -81.333 -9.99902 -152.164 -29.999 -212.497s-47.5 -110.333 -82.5 -150s-76.167 -68.667 -123.5 -87s-98.333 -26.166 -153 -23.499l-125 502l-29 34h74l121 -487c43.333 2.66699 83.166 14 119.499 34s67.5 48 93.5 84s46.167 79.667 60.5 131
s21.5 109.666 21.5 174.999c0 50 -6.66699 94.5 -20 133.5s-32.333 72 -57 99s-54 47.5 -88 61.5s-71.333 21 -112 21c-32.667 0 -63.5 -4 -92.5 -12s-54.833 -19.333 -77.5 -34s-41.5 -32.5 -56.5 -53.5s-24.833 -44.5 -29.5 -70.5h-53c2.66699 30 12 58.333 28 85
s37.5 50 64.5 70s58.833 35.833 95.5 47.5s77 17.5 121 17.5c58 0 108.667 -11 152 -33c10 7.33301 19.5 18.166 28.5 32.499s14.5 30.166 16.5 47.499h59c-0.666992 -11.333 -3 -22.333 -7 -33s-9 -20.667 -15 -30s-12.333 -17.833 -19 -25.5s-12.667 -13.834 -18 -18.501
c42 -30 74.667 -70.333 98 -121s35 -112 35 -184z" />
    <glyph glyph-name="saraileftthai" unicode="&#xf701;" 
d="M-791 922v49h564v-49h-564z" />
    <glyph glyph-name="saraiileftthai" unicode="&#xf702;" 
d="M-791 922v49h510v104h54v-153h-564z" />
    <glyph glyph-name="saraueleftthai" unicode="&#xf703;" 
d="M-168 1004c0 -23.333 -8.33203 -42.8311 -24.999 -58.498s-36.334 -23.5 -59.001 -23.5h-539v49h459c-1.33301 2.66699 -2.33301 5.66699 -3 9c-2 6 -3 14 -3 24c0 11.333 2.33301 21.833 7 31.5s10.834 18.167 18.501 25.5s16.667 13.166 27 17.499s21.5 6.5 33.5 6.5
c23.333 0 43.166 -7.83301 59.499 -23.5s24.5 -34.834 24.5 -57.501zM-208.999 1004c0 12 -4.16699 22.167 -12.5 30.5s-19.166 12.5 -32.499 12.5c-12.667 0 -23 -4.16699 -31 -12.5s-12 -18.5 -12 -30.5c0 -13.333 4 -24.333 12 -33s18.333 -13 31 -13
c13.333 0 24.166 4.33301 32.499 13s12.5 19.667 12.5 33z" />
    <glyph glyph-name="saraueeleftthai" unicode="&#xf704;" 
d="M-791 922v49h396v104h53v-104h61v104h54v-153h-564z" />
    <glyph glyph-name="maieklowleftthai" unicode="&#xf705;" 
d="M-326 922v153h54v-153h-54z" />
    <glyph glyph-name="maitholowleftthai" unicode="&#xf706;" 
d="M-354 922l-0.000976562 47c0 13.333 -2.66699 23.833 -8 31.5s-15.666 11.5 -30.999 11.5h-33v51h33c61.333 0 92 -24 92 -72v-20h301v-49h-354z" />
    <glyph glyph-name="maitrilowleftthai" unicode="&#xf707;" 
d="M-272 922l-0.000976562 57c0 23.333 -6.16699 41.833 -18.5 55.5s-30.166 20.5 -53.499 20.5h-8l-101 -76l-102 76h-6c-48 0 -72 -25.333 -72 -76v-8h82v-49h-135v65c0 38 12.5 67 37.5 87s56.167 30 93.5 30h6l96 -70l95 70h8c37.333 0 68.5 -10 93.5 -30
s37.5 -49 37.5 -87v-16h219v-49h-272z" />
    <glyph glyph-name="maichattawalowleftthai" unicode="&#xf708;" 
d="M-324 1020v-98h-53v98h-98v45h98v98h53v-98h99v-45h-99z" />
    <glyph glyph-name="thanthakhatlowleftthai" unicode="&#xf709;" 
d="M-266 997c-21.333 0 -38 -4.83203 -50 -14.499s-18 -23.167 -18 -40.5v-20h-57v26c0 35.333 9.33301 60.666 28 75.999s42 23 70 23h107v-50h-80z" />
    <glyph glyph-name="maieklowrightthai" unicode="&#xf70a;" 
d="M-125 922v153h53v-153h-53z" />
    <glyph glyph-name="maitholowrightthai" unicode="&#xf70b;" 
d="M-270 922l-0.000976562 47c0 13.333 -2.66699 23.833 -8 31.5s-15.666 11.5 -30.999 11.5h-33v51h33c61.333 0 92 -24 92 -72v-20h264v-49h-317z" />
    <glyph glyph-name="maitrilowrightthai" unicode="&#xf70c;" 
d="M-180 922l-0.000976562 57c0 23.333 -6.16699 41.833 -18.5 55.5s-30.166 20.5 -53.499 20.5h-8l-100 -76l-103 76h-6c-48 0 -72 -25.333 -72 -76v-8h82v-49h-135v65c0 38 12.5 67 37.5 87s56.167 30 93.5 30h6l97 -70l94 70h8c37.333 0 68.5 -10 93.5 -30
s37.5 -49 37.5 -87v-16h117v-49h-170z" />
    <glyph glyph-name="maichattawalowrightthai" unicode="&#xf70d;" 
d="M-170 1020v-98h-53v98h-99v45h99v98h53v-98h98v-45h-98z" />
    <glyph glyph-name="thanthakhatlowrightthai" unicode="&#xf70e;" 
d="M-80 997c-44.667 0 -67 -18.332 -67 -54.999v-20h-58v26c0 35.333 9.5 60.666 28.5 75.999s42.5 23 70.5 23h106v-50h-80z" />
    <glyph glyph-name="yoyingnobasethai" unicode="&#xf70f;" horiz-adv-x="1237" 
d="M1165 217c0 -45.333 -8.33594 -82.667 -25.0029 -112s-38 -52.666 -64 -69.999s-54.667 -29.5 -86 -36.5s-61.666 -10.5 -90.999 -10.5c-28.667 0 -58.667 3.5 -90 10.5s-60 19.167 -86 36.5s-47.5 40.666 -64.5 69.999s-25.5 66.666 -25.5 111.999v350
c0 38.667 -6.5 71.667 -19.5 99s-31.167 49.666 -54.5 66.999s-51 30.166 -83 38.499s-67 12.5 -105 12.5c-39.333 0 -74.5 -4.33301 -105.5 -13s-57.667 -19.834 -80 -33.501s-39.833 -28.834 -52.5 -45.501s-20 -33 -22 -49c12 -7.33301 23 -15.333 33 -24
c8.66699 -7.33301 16.5 -15.833 23.5 -25.5s10.5 -19.167 10.5 -28.5c0 -7.33301 -2.83301 -14.833 -8.5 -22.5l-18 -24c-6.33301 -8.33301 -12.333 -17.166 -18 -26.499s-8.5 -19.666 -8.5 -30.999v-412h147v-49h-200v461c0 14 2.83301 26 8.5 36s12 19 19 27l19 22
c5.66699 6.66699 8.5 13.667 8.5 21c0 5.33301 -3.66699 11.833 -11 19.5s-15.666 14.834 -24.999 21.501c-10.667 7.33301 -22.667 15 -36 23c4 30.667 15.167 58.5 33.5 83.5s42 46.333 71 64s61.833 31.334 98.5 41.001s75 14.5 115 14.5
c40.667 0 79.834 -4.66699 117.501 -14s71 -24.166 100 -44.499s52.167 -46.5 69.5 -78.5s26 -70.333 26 -115v-349c0 -38 6 -69.667 18 -95s28 -45.5 48 -60.5s42.667 -25.5 68 -31.5s51.666 -9 78.999 -9s53.833 3 79.5 9s48.334 16.5 68.001 31.5s35.5 35.167 47.5 60.5
s18 57 18 95v586h53v-602v0z" />
    <glyph glyph-name="maihanakatleftthai" unicode="&#xf710;" 
d="M-504 922v108h55v-59h469v-49h-524z" />
    <glyph glyph-name="nikhahitleftthai" unicode="&#xf711;" 
d="M-166 1008c0 -25.333 -8.16699 -46 -24.5 -62s-36.833 -24 -61.5 -24s-45.167 8 -61.5 24s-24.5 36.667 -24.5 62c0 24.667 8.16699 45.167 24.5 61.5s36.833 24.5 61.5 24.5s45.167 -8.16699 61.5 -24.5s24.5 -36.833 24.5 -61.5zM-203 1008
c0 13.333 -4.83301 24.833 -14.5 34.5s-21.167 14.5 -34.5 14.5s-24.833 -4.83301 -34.5 -14.5s-14.5 -21.167 -14.5 -34.5s4.83301 -25 14.5 -35s21.167 -15 34.5 -15s24.833 5 34.5 15s14.5 21.667 14.5 35z" />
    <glyph glyph-name="maitaikhuleftthai" unicode="&#xf712;" 
d="M-541 1092c-43.333 0 -76.667 -6.66699 -100 -20s-35 -30.666 -35 -51.999c0 -8 1 -15 3 -21s4.66699 -11 8 -15c3.33301 -4.66699 7.33301 -9 12 -13h102l172 71l174 -71v-49l-174 73l-166 -73h-131c-13.333 8 -25.833 20 -37.5 36s-17.5 36.667 -17.5 62
c0 16 3.83301 31.167 11.5 45.5s19 27.166 34 38.499s33.5 20.333 55.5 27s47.667 10 77 10h381v-49h-369z" />
    <glyph glyph-name="maiekupperleftthai" unicode="&#xf713;" 
d="M-281 1137v123h54v-123h-54z" />
    <glyph glyph-name="maithoupperleftthai" unicode="&#xf714;" 
d="M-389 1137l-0.000976562 45c0 12 -2.5 21.5 -7.5 28.5s-14.167 10.5 -27.5 10.5h-31v45h37c24.667 0 43.834 -5 57.501 -15s20.5 -24.333 20.5 -43v-24h238v-47h-287z" />
    <glyph glyph-name="maitriupperleftthai" unicode="&#xf715;" 
d="M-133 1137l0.000976562 51c0 21.333 -5.5 38.166 -16.5 50.499s-26.833 18.5 -47.5 18.5h-8l-90 -69l-92 69h-6c-20.667 0 -36.5 -6.16699 -47.5 -18.5s-16.5 -29.166 -16.5 -50.499v-4h74v-47h-121v59c0 34 11.167 60.333 33.5 79s50.166 28 83.499 28h6l86 -62l84 62h8
c33.333 0 61.5 -9.33301 84.5 -28s34.5 -45 34.5 -79v-12h86v-47h-135z" />
    <glyph glyph-name="maichattawaupperleftthai" unicode="&#xf716;" 
d="M-227 1214v-77h-54v77h-77v39h77v78h54v-78h77v-39h-77z" />
    <glyph glyph-name="thanthakhatupperleftthai" unicode="&#xf717;" 
d="M-246 1145c-21.333 0 -37.833 -4.83301 -49.5 -14.5s-17.5 -23.167 -17.5 -40.5v-17h-56v23c0 34.667 9.5 59.667 28.5 75s42.5 23 70.5 23h104v-49h-80z" />
    <glyph glyph-name="saraulowthai" unicode="&#xf718;" 
d="M-125 -563v166h-61v49h114v-215h-53z" />
    <glyph glyph-name="sarauulowthai" unicode="&#xf719;" 
d="M-72 -459c0 -38 -13.332 -66.5 -39.999 -85.5s-63.667 -28.5 -111 -28.5c-48 0 -85.333 9.5 -112 28.5s-40 47.5 -40 85.5v62h-41v49h94v-105c0 -27.333 9.16699 -46.333 27.5 -57s42.166 -16 71.499 -16c28.667 0 52.167 5.33301 70.5 16s27.5 29.667 27.5 57v105h53
v-111v0z" />
    <glyph glyph-name="phinthulowthai" unicode="&#xf71a;" 
d="M-72 -401c0 -14.667 -5.16699 -27.334 -15.5 -38.001s-22.833 -16 -37.5 -16s-27.167 5.33301 -37.5 16s-15.5 23.334 -15.5 38.001c0 14 5.16699 26.333 15.5 37s22.833 16 37.5 16s27.167 -5.33301 37.5 -16s15.5 -23 15.5 -37z" />
    <glyph glyph-name="F71B" unicode="&#xf71b;" 
 />
    <glyph glyph-name="F71C" unicode="&#xf71c;" 
 />
    <glyph glyph-name="lochula.short" unicode="&#xf71d;" 
 />
    <glyph glyph-name="fongmanfunnuthai" unicode="&#xf880;" 
 />
    <glyph glyph-name=".null" 
 />
    <glyph glyph-name="nonmarkingreturn" horiz-adv-x="471" 
 />
    <glyph glyph-name="uni0E33_1" horiz-adv-x="379" 
d="M254 0v629.001c0 31.333 -6 57 -18 77s-28.5 35.5 -49.5 46.5s-45.833 17.667 -74.5 20s-59.334 1.5 -92.001 -2.5v49c30 5.33301 61.667 6.66602 95 3.99902s64.333 -10.5 93 -23.5s52.334 -31.667 71.001 -56s28 -55.833 28 -94.5v-649h-53zM-166 1008
c0 -25.333 -8.16699 -46 -24.5 -62s-36.833 -24 -61.5 -24s-45.167 8 -61.5 24s-24.5 36.667 -24.5 62c0 24.667 8.16699 45.167 24.5 61.5s36.833 24.5 61.5 24.5s45.167 -8.16699 61.5 -24.5s24.5 -36.833 24.5 -61.5zM-203 1008c0 13.333 -4.83301 24.833 -14.5 34.5
s-21.167 14.5 -34.5 14.5s-24.833 -4.83301 -34.5 -14.5s-14.5 -21.167 -14.5 -34.5s4.83301 -25 14.5 -35s21.167 -15 34.5 -15s24.833 5 34.5 15s14.5 21.667 14.5 35z" />
    <glyph glyph-name="uni0E4E_1" 
d="M-35 1358c-30.667 2.66699 -63.4951 2.33398 -98.4951 -0.999023s-67.333 -9.66602 -97 -18.999s-54.334 -21.833 -74.001 -37.5s-29.5 -34.167 -29.5 -55.5c0 -14 4.16699 -25.667 12.5 -35s18.5 -16.5 30.5 -21.5s25 -8.5 39 -10.5s27 -2.66699 39 -2v-46
c-26 0.666992 -54.333 -1.33301 -85 -6s-58.834 -12.167 -84.501 -22.5s-46.667 -23.333 -63 -39s-22.833 -33.834 -19.5 -54.501c2 -14.667 11 -25.5 27 -32.5s32.333 -10.5 49 -10.5c21.333 0 42.166 3 62.499 9s35.5 11.667 45.5 17l23 -39
c-6.66699 -3.33301 -15.334 -7.16602 -26.001 -11.499s-22.834 -8.16602 -36.501 -11.499s-28.667 -5.83301 -45 -7.5s-33.166 -1.5 -50.499 0.5c-32 4 -57 14.333 -75 31s-27.667 35.667 -29 57c-0.666992 12 1 23.5 5 34.5s9.5 21.167 16.5 30.5s15.333 17.833 25 25.5
s19.5 14.167 29.5 19.5c17.333 9.33301 36.666 17.166 57.999 23.499s40 10.166 56 11.499v6c-40.667 15.333 -61 44 -61 86c0 11.333 2.83301 23 8.5 35s13.5 23.5 23.5 34.5s21.833 21.333 35.5 31s28.5 17.834 44.5 24.501c19.333 8 41 14.333 65 19
s47.5 8.16699 70.5 10.5s44.333 3.66602 64 3.99902s34.5 0.166016 44.5 -0.500977v-47v0z" />
    <glyph glyph-name="F881" 
 />
    <glyph glyph-name="F882" 
 />
    <glyph glyph-name="saraueesp2" 
d="M-338 1137v123h53v-123h-53zM-791 922v49h396v104h53v-104h61v104h54v-153h-564z" />
    <glyph glyph-name="saraisp" 
d="M-748 948v49h543v-49h-543z" />
    <glyph glyph-name="saraiisp" 
d="M-748 948v49h490v105h53v-154h-543z" />
    </font>
</defs>
</svg>
