<?xml version="1.0" standalone="no"?>
<!DOCTYPE svg PUBLIC "-//W3C//DTD SVG 1.1//EN" "http://www.w3.org/Graphics/SVG/1.1/DTD/svg11.dtd" >
<svg>
<metadata>
Created by FontForge 20090914 at Sun Dec 25 10:13:02 2016
 By www-data
Copyright (c) Phanlop Thongsuk, 1995-2007. All rights reserved.
</metadata>
<defs>
<font id="PSLKandaProBold" horiz-adv-x="0" >
  <font-face 
    font-family="PSL Kanda Pro (กานดา)"
    font-weight="700"
    font-stretch="normal"
    units-per-em="2048"
    panose-1="2 0 5 6 0 0 0 2 0 4"
    ascent="1638"
    descent="-410"
    x-height="698"
    cap-height="965"
    bbox="-831 -614 1499 1599"
    underline-thickness="72"
    underline-position="-123"
    unicode-range="U+0020-U+F880"
  />
<missing-glyph horiz-adv-x="1599" 
d="M100 1599h1399v-1599h-1399v1599zM1401 1499h-1200v-1399h1200v1399z" />
    <glyph glyph-name="saraueesp1" unicode="&#xe37;&#xe48;" 
d="M-266 1331h114v-153h-114v153zM-666 1012h314v104h114v-104h62v104h115v-194h-605v90z" />
    <glyph glyph-name=".notdef" horiz-adv-x="1599" 
d="M100 1599h1399v-1599h-1399v1599zM1401 1499h-1200v-1399h1200v1399z" />
    <glyph glyph-name="space" unicode=" " horiz-adv-x="492" 
 />
    <glyph glyph-name="space" unicode="&#xa0;" horiz-adv-x="492" 
 />
    <glyph glyph-name="exclam" unicode="!" horiz-adv-x="344" 
d="M145 248l-36 416v301h127v-301l-35 -416h-56zM98 150h148v-150h-148v150z" />
    <glyph glyph-name="quotedbl" unicode="&#x22;" horiz-adv-x="563" 
d="M330 965h90v-349h-90v349zM145 965h91v-349h-91v349z" />
    <glyph glyph-name="numbersign" unicode="#" horiz-adv-x="737" 
d="M535 371h118v-92h-133l-39 -279h-90l39 279h-166l-37 -279h-92l37 279h-127v92h141l29 202h-135v93h147l37 276h92l-39 -276h164l39 276h92l-39 -276h119v-93h-131zM279 371h163l27 202h-164z" />
    <glyph glyph-name="dollar" unicode="$" horiz-adv-x="858" 
d="M809 254c0 -42.667 -8.99902 -80.3359 -26.999 -113.003s-42.333 -60.5 -73 -83.5s-66.167 -41 -106.5 -54s-82.833 -20.833 -127.5 -23.5v-134h-90v134c-45.333 4 -88.5 13.833 -129.5 29.5s-77 37.5 -108 65.5s-55.5 62 -73.5 102s-26.333 86.667 -25 140h119
c-1.33301 -33.333 3.66699 -63.166 15 -89.499s27 -49.166 47 -68.499s43.333 -35 70 -47s55 -20 85 -24v363c-46 11.333 -87.833 22.833 -125.5 34.5s-70 27.167 -97 46.5s-47.833 44.333 -62.5 75s-22 70.667 -22 120c0 39.333 8.16699 74.5 24.5 105.5
s38.5 57.333 66.5 79s60.667 38.667 98 51s76.666 19.833 117.999 22.5v133h90v-133c51.333 -4.66699 94.833 -15.667 130.5 -33s65 -39.5 88 -66.5s40.333 -57.833 52 -92.5s19.167 -71.667 22.5 -111h-117c-6 50.667 -23.5 93.834 -52.5 129.501
s-70.167 58.167 -123.5 67.5v-330c42 -10.667 83 -21.667 123 -33s75.667 -27 107 -47s56.5 -46.833 75.5 -80.5s28.5 -78.5 28.5 -134.5zM385.001 880.998c-26 -2.66699 -50 -7.83301 -72 -15.5s-41 -18 -57 -31s-28.5 -28.5 -37.5 -46.5s-13.5 -38.333 -13.5 -61
c0 -26.667 3.33301 -48.167 10 -64.5s17.167 -29.833 31.5 -40.5s33 -19.5 56 -26.5s50.5 -14.5 82.5 -22.5v308zM684.001 255.999c0 27.333 -4.66699 50.166 -14 68.499s-23 33.833 -41 46.5s-40 23.334 -66 32.001s-55.333 17 -88 25v-340
c30.667 2 58.834 6.83301 84.501 14.5s47.667 18.5 66 32.5s32.666 31 42.999 51s15.5 43.333 15.5 70z" />
    <glyph glyph-name="percent" unicode="%" horiz-adv-x="1325" 
d="M1204 270c0 -34 -3.66797 -68.001 -11.001 -102.001s-19.333 -64.5 -36 -91.5s-38.5 -48.833 -65.5 -65.5s-59.833 -25 -98.5 -25c-40 0 -73.667 7 -101 21s-49.5 33.5 -66.5 58.5s-29.167 54.5 -36.5 88.5s-11 70.667 -11 110c0 33.333 3.66699 65.833 11 97.5
s19.333 59.834 36 84.501s38.334 44.5 65.001 59.5s59 22.5 97 22.5c42 0 77 -7.33301 105 -22s50.167 -34.167 66.5 -58.5s28 -52 35 -83s10.5 -62.5 10.5 -94.5zM249.999 -31.001l711 1008h112l-711 -1008h-112zM548.999 699.999c0 -34 -3.66699 -68.001 -11 -102.001
s-19.333 -64.5 -36 -91.5s-38.5 -48.833 -65.5 -65.5s-59.833 -25 -98.5 -25c-40 0 -73.667 7.16699 -101 21.5s-49.5 34 -66.5 59s-29.167 54.333 -36.5 88s-11 70.167 -11 109.5c0 33.333 3.66699 65.833 11 97.5s19.166 59.834 35.499 84.501s37.833 44.5 64.5 59.5
s59.334 22.5 98.001 22.5c42 0 77 -7.33301 105 -22s50.167 -34.167 66.5 -58.5s28 -52 35 -83s10.5 -62.5 10.5 -94.5zM1106 267.998c-1.33301 21.333 -3.66699 43.0029 -7 65.0029s-9 41.833 -17 59.5s-19.5 32.167 -34.5 43.5s-34.5 17 -58.5 17
c-21.333 0 -39.166 -6 -53.499 -18s-25.833 -27.167 -34.5 -45.5s-14.834 -38.833 -18.501 -61.5s-5.5 -44.667 -5.5 -66c0 -22.667 1.5 -45.834 4.5 -69.501s8.5 -45.334 16.5 -65.001s19.5 -35.667 34.5 -48s34.5 -18.5 58.5 -18.5c23.333 0 42.5 6.5 57.5 19.5
s27 29.5 36 49.5s15 42.167 18 66.5s4.16699 48.166 3.5 71.499zM450.998 698.001c-1.33301 21.333 -3.66602 43.001 -6.99902 65.001s-9.16602 41.833 -17.499 59.5s-19.833 32.167 -34.5 43.5s-34 17 -58 17c-21.333 0 -39.333 -6 -54 -18s-26.334 -27.167 -35.001 -45.5
s-14.834 -38.833 -18.501 -61.5s-5.5 -44.667 -5.5 -66c0 -22.667 1.5 -45.834 4.5 -69.501s8.66699 -45.167 17 -64.5s20 -35.166 35 -47.499s34.5 -18.5 58.5 -18.5c23.333 0 42.5 6.33301 57.5 19s27 29 36 49s15 42.167 18 66.5s4.16699 48.166 3.5 71.499z" />
    <glyph glyph-name="ampersand" unicode="&#x26;" horiz-adv-x="836" 
d="M610 119c-34.667 -42 -74.002 -75.335 -118.002 -100.002s-92 -37 -144 -37c-39.333 0 -77.333 4.83301 -114 14.5s-69 25.334 -97 47.001s-50.333 49.5 -67 83.5s-25 75 -25 123c0 36 5.33301 67.833 16 95.5s25.834 52.834 45.501 75.501s43 43.5 70 62.5
s56.833 38.167 89.5 57.5c-14.667 18 -28.5 36 -41.5 54s-24.167 36 -33.5 54s-16.833 36.5 -22.5 55.5s-8.5 38.833 -8.5 59.5c0 28.667 5.16699 55.334 15.5 80.001s25 46 44 64s41.833 32 68.5 42s56.334 15 89.001 15c33.333 0 63.833 -4.83301 91.5 -14.5
s51.334 -23.334 71.001 -41.001s35 -38.834 46 -63.501s16.5 -52 16.5 -82c0 -29.333 -5 -55.833 -15 -79.5s-23.167 -45.167 -39.5 -64.5s-35.333 -37.166 -57 -53.499s-43.834 -31.833 -66.501 -46.5l174 -209c16.667 46 27 94 31 144h106c-4 -44 -11 -85.5 -21 -124.5
s-23.333 -75.5 -40 -109.5l182 -221h-149zM486.998 761.998c0 30 -10.167 54.501 -30.5 73.501s-45.5 28.5 -75.5 28.5c-32 0 -58.167 -9.5 -78.5 -28.5s-30.5 -42.833 -30.5 -71.5c0 -28 6 -53 18 -75s28.667 -44.667 50 -68l22 -25c18.667 11.333 35.5 22.666 50.5 33.999
s28 23.5 39 36.5s19.5 27.333 25.5 43s9.33301 33.167 10 52.5zM329.998 464.999c-22 -12 -43 -24.167 -63 -36.5s-37.667 -26.666 -53 -42.999s-27.5 -35.333 -36.5 -57s-13.5 -47.834 -13.5 -78.501c0 -24 5.16699 -46 15.5 -66s24.166 -37.333 41.499 -52
s37.333 -26 60 -34s46.334 -12 71.001 -12c42 0 78.833 10.167 110.5 30.5s59.167 48.5 82.5 84.5z" />
    <glyph glyph-name="quotesingle" unicode="'" horiz-adv-x="367" 
d="M139 965h90v-349h-90v349z" />
    <glyph glyph-name="parenleft" unicode="(" horiz-adv-x="344" 
d="M358 987c-30.667 -50 -56.999 -98.6641 -78.999 -145.997s-40.333 -95.666 -55 -144.999s-25.5 -100.833 -32.5 -154.5s-10.833 -111.834 -11.5 -174.501c-0.666992 -64.667 2.5 -124.667 9.5 -180s18 -108.333 33 -159s33.667 -100.334 56 -149.001
s48.166 -98.334 77.499 -149.001h-84c-28 44 -54.833 89.667 -80.5 137s-48.334 97 -68.001 149s-35.167 107 -46.5 165s-16.666 120 -15.999 186c0.666992 64 6.66699 125.667 18 185s26.5 115.166 45.5 167.499s41 101 66 146s51.5 85.5 79.5 121.5h88v0z" />
    <glyph glyph-name="parenright" unicode=")" horiz-adv-x="344" 
d="M281 367c0.666992 -66 -4.66504 -128.003 -15.998 -186.003s-26.833 -113 -46.5 -165s-42.334 -101.667 -68.001 -149s-52.5 -93 -80.5 -137h-84c29.333 50.667 55.166 100.334 77.499 149.001s41 98.334 56 149.001s26 103.667 33 159s10.167 115.333 9.5 180
c-0.666992 62.667 -4.5 120.834 -11.5 174.501s-17.833 105.167 -32.5 154.5s-33 97.666 -55 144.999s-48.333 96 -79 146h88c28 -36 54.5 -76.5 79.5 -121.5s47 -93.667 66 -146s34.167 -108.166 45.5 -167.499s17.333 -121 18 -185z" />
    <glyph glyph-name="asterisk" unicode="*" horiz-adv-x="475" 
d="M385 627l-55 -41l-94 129l-86 -129l-62 41l88 123l-143 51l24 65l144 -53v152h71v-152l144 53l26 -65l-145 -51z" />
    <glyph glyph-name="plus" unicode="+" horiz-adv-x="748" 
d="M420 27h-92v268h-267v92h267v264h92v-264h266v-92h-266v-268z" />
    <glyph glyph-name="comma" unicode="," horiz-adv-x="330" 
d="M258 47c0 -28.667 -9.50098 -60.668 -28.501 -96.001s-50.5 -67.333 -94.5 -96l-47 32c24.667 15.333 44.5 31.833 59.5 49.5s26.5 36.834 34.5 57.501l-9 -2c-3.33301 -0.666992 -6.5 -1.16699 -9.5 -1.5s-6.16699 -0.5 -9.5 -0.5c-20.667 0 -39.167 7.66699 -55.5 23
s-24.5 34.333 -24.5 57c0 10.667 2.16699 21.167 6.5 31.5s10.333 19.5 18 27.5s16.834 14.5 27.501 19.5s22 7.5 34 7.5c30.667 0 54.667 -10.167 72 -30.5s26 -46.5 26 -78.5z" />
    <glyph glyph-name="hyphen" unicode="-" horiz-adv-x="516" 
d="M66 430h385v-108h-385v108z" />
    <glyph glyph-name="period" unicode="." horiz-adv-x="330" 
d="M248 72c0 -22.667 -8.33301 -42 -25 -58s-36.334 -24 -59.001 -24s-42 7.83301 -58 23.5s-24 35.167 -24 58.5c0 22.667 8 42.334 24 59.001s35.333 25 58 25s42.334 -8.33301 59.001 -25s25 -36.334 25 -59.001z" />
    <glyph glyph-name="slash" unicode="/" horiz-adv-x="442" 
d="M-25 -23l392 1010h98l-393 -1010h-97z" />
    <glyph glyph-name="zero" unicode="0" horiz-adv-x="748" 
d="M690 506c0 -74 -3.16895 -143.002 -9.50195 -207.002s-20.5 -119.5 -42.5 -166.5s-54.5 -83.833 -97.5 -110.5s-100.833 -40 -173.5 -40c-64 0 -116.333 12.667 -157 38s-72.667 60.833 -96 106.5s-39.333 99.834 -48 162.501s-13 131 -13 205
c0 60 4.33301 117.833 13 173.5s24.834 105 48.501 148s56.334 77.5 98.001 103.5s95.167 39 160.5 39c45.333 0 84.833 -6.16699 118.5 -18.5s62.167 -29.333 85.5 -51s42.333 -47 57 -76s26.167 -60.167 34.5 -93.5s14 -68.166 17 -104.499s4.5 -72.5 4.5 -108.5z
M568.998 503.998c0 39.333 -2 79.999 -6 121.999s-12.667 80.333 -26 115s-32.833 63.167 -58.5 85.5s-60.167 33.5 -103.5 33.5c-30 0 -55.833 -5.33301 -77.5 -16s-40 -25.167 -55 -43.5s-26.833 -39.666 -35.5 -63.999s-15.334 -50.166 -20.001 -77.499
s-7.66699 -55.333 -9 -84s-2 -56.334 -2 -83.001c0 -50 1.66699 -99.5 5 -148.5s11.5 -92.667 24.5 -131s32.5 -69.333 58.5 -93s61.667 -35.5 107 -35.5c44.667 0 80.167 11.333 106.5 34s46.333 53.167 60 91.5s22.334 83 26.001 134s5.5 104.5 5.5 160.5z" />
    <glyph glyph-name="one" unicode="1" horiz-adv-x="748" 
d="M362 686h-247.002v92c32.667 0 64.334 2.5 95.001 7.5s58.334 14.333 83.001 28s45.667 32.167 63 55.5s29 53 35 89h88v-958h-117v686z" />
    <glyph glyph-name="two" unicode="2" horiz-adv-x="748" 
d="M664 700c0 -56.667 -8.82715 -104.662 -26.4941 -143.995s-40.5 -73.333 -68.5 -102s-59.5 -53.834 -94.5 -75.501l-103.5 -63.5c-23.333 -14 -46.833 -29 -70.5 -45s-45.334 -33 -65.001 -51s-36.167 -37 -49.5 -57s-21.333 -40.667 -24 -62h495v-100h-626
c1.33301 56.667 10.666 106 27.999 148s41 79.5 71 112.5s65.167 63.167 105.5 90.5s84.166 55 131.499 83c30 18.667 56.167 37 78.5 55s40.833 37.167 55.5 57.5s25.667 42.5 33 66.5s11 51 11 81c0 20 -4.66699 39.667 -14 59s-22.166 36.666 -38.499 51.999
s-36 27.666 -59 36.999s-48.167 14 -75.5 14c-29.333 0 -56 -6.5 -80 -19.5s-44.167 -30.5 -60.5 -52.5s-28.5 -47.333 -36.5 -76s-10.333 -58.667 -7 -90h-117c-2.66699 54.667 3.16602 103.167 17.499 145.5s35.666 78 63.999 107s62.666 50.833 102.999 65.5
s84.833 22 133.5 22c39.333 0 76.5 -6.16699 111.5 -18.5s65.667 -29.833 92 -52.5s47.166 -49.834 62.499 -81.501s23 -66.834 23 -105.501z" />
    <glyph glyph-name="three" unicode="3" horiz-adv-x="748" 
d="M688 266c0 -45.333 -9.16406 -85.502 -27.4971 -120.502s-42.5 -64.5 -72.5 -88.5s-64.667 -42.167 -104 -54.5s-80 -18.5 -122 -18.5c-52 0 -98 7.16699 -138 21.5s-73.833 35 -101.5 62s-48.5 59.833 -62.5 98.5s-21 82.334 -21 131.001h113
c0 -35.333 5.33301 -66.166 16 -92.499s25.5 -48.333 44.5 -66s41.333 -30.834 67 -39.501s53.167 -13 82.5 -13c27.333 0 53.166 4.5 77.499 13.5s45.666 21.5 63.999 37.5s32.833 35 43.5 57s16 46 16 72c0 39.333 -7.66699 72 -23 98s-35.5 46.333 -60.5 61
s-53.833 23.834 -86.5 27.501s-66 3.16699 -100 -1.5v98c24 -2 49.5 -1.83301 76.5 0.5s52 9.33301 75 21s42 28.834 57 51.501s22.5 53.667 22.5 93c0 20.667 -4 39.5 -12 56.5s-19.333 31.833 -34 44.5s-31.834 22.5 -51.501 29.5s-41.167 10.5 -64.5 10.5
c-35.333 0 -65 -5.83301 -89 -17.5s-43.333 -27.167 -58 -46.5s-25.167 -41.5 -31.5 -66.5s-9.5 -50.5 -9.5 -76.5h-115c0 40.667 5.66699 79.5 17 116.5s29.166 69.833 53.499 98.5s55.333 51.5 93 68.5s82.834 25.5 135.501 25.5c42.667 0 81.834 -5.83301 117.501 -17.5
s66.167 -28.334 91.5 -50.001s45 -47.5 59 -77.5s21 -63.333 21 -100c0 -48.667 -11.833 -89.334 -35.5 -122.001s-57.5 -59.667 -101.5 -81c32 -7.33301 59.167 -18.5 81.5 -33.5s40.666 -33.167 54.999 -54.5s24.833 -45.166 31.5 -71.499s10 -54.5 10 -84.5z" />
    <glyph glyph-name="four" unicode="4" horiz-adv-x="748" 
d="M573 0h-116v225h-422v111l438 622h100v-632h121v-101h-121v-225zM137 326h320v454z" />
    <glyph glyph-name="five" unicode="5" horiz-adv-x="748" 
d="M686 326c0 -52 -8.16797 -99.002 -24.501 -141.002s-38.833 -77.833 -67.5 -107.5s-62.834 -52.667 -102.501 -69s-82.834 -24.5 -129.501 -24.5c-48 0 -91.5 6.83301 -130.5 20.5s-72.333 32.5 -100 56.5s-49 52.833 -64 86.5s-22.5 70.5 -22.5 110.5h115
c0 -25.333 5.5 -48.666 16.5 -69.999s25.667 -39.5 44 -54.5s39.5 -26.667 63.5 -35s48.667 -12.5 74 -12.5c32 0 60.833 5.5 86.5 16.5s47.167 26.5 64.5 46.5s30.666 44.333 39.999 73s14 61 14 97c0 29.333 -4.83301 56.833 -14.5 82.5s-23.667 48 -42 67
s-41.166 34 -68.499 45s-58.666 16.5 -93.999 16.5c-28 0 -52.5 -4.83301 -73.5 -14.5s-39.167 -20.167 -54.5 -31.5c-17.333 -13.333 -32.666 -28.666 -45.999 -45.999l-98 6l88 498h473v-100h-385l-53 -279c26.667 25.333 53.834 43 81.501 53s60.5 15 98.5 15
c52 0 97.5 -8.66699 136.5 -26s71.5 -40.166 97.5 -68.499s45.333 -60.833 58 -97.5s19 -74.334 19 -113.001z" />
    <glyph glyph-name="six" unicode="6" horiz-adv-x="748" 
d="M700 305c0 -44.667 -6.83984 -86.4971 -20.5068 -125.497s-34 -73 -61 -102s-60.833 -51.833 -101.5 -68.5s-88 -25 -142 -25c-60 0 -110.667 11 -152 33s-75 53.667 -101 95s-44.667 92.166 -56 152.499s-17 128.5 -17 204.5c0 60.667 5.83301 120.167 17.5 178.5
s31 110.5 58 156.5s62 83.167 105 111.5s96.167 42.5 159.5 42.5c48 0 89.333 -6.5 124 -19.5s63.334 -30.5 86.001 -52.5s39.667 -47.833 51 -77.5s18 -61.5 20 -95.5h-111c-3.33301 16 -8.16602 32.333 -14.499 49s-15.666 32 -27.999 46s-28.166 25.5 -47.499 34.5
s-43.333 13.5 -72 13.5c-47.333 0 -85.666 -11.167 -114.999 -33.5s-52.5 -51 -69.5 -86s-29 -74 -36 -117s-11.833 -85.5 -14.5 -127.5c30.667 42.667 64.834 73.667 102.501 93s84.834 29 141.501 29c47.333 0 89.333 -7.83301 126 -23.5s67.5 -37.334 92.5 -65.001
s43.833 -60.334 56.5 -98.001s19 -78.5 19 -122.5zM574.993 303.003c0 29.333 -4.16797 56.8311 -12.501 82.498s-20.666 48 -36.999 67s-37 34 -62 45s-54.5 16.5 -88.5 16.5c-28 0 -53.5 -5.66699 -76.5 -17s-42.833 -26.666 -59.5 -45.999s-29.667 -41.5 -39 -66.5
s-14 -51.5 -14 -79.5c0 -27.333 4.33301 -54.166 13 -80.499s21.167 -49.833 37.5 -70.5s36 -37.167 59 -49.5s48.833 -18.5 77.5 -18.5c35.333 0 65.666 5.83301 90.999 17.5s46.333 27.5 63 47.5s28.834 43 36.501 69s11.5 53.667 11.5 83z" />
    <glyph glyph-name="seven" unicode="7" horiz-adv-x="748" 
d="M686 844c-52.667 -54.667 -101.5 -114.002 -146.5 -178.002s-83.833 -131.667 -116.5 -203s-58.167 -145.833 -76.5 -223.5s-27.5 -157.5 -27.5 -239.5h-129c0 76 11.167 154.167 33.5 234.5s51.5 157.833 87.5 232.5s76.5 143.834 121.5 207.501
s89.833 116.834 134.5 159.501h-501v108h620v-98v0z" />
    <glyph glyph-name="eight" unicode="8" horiz-adv-x="748" 
d="M698 270c0 -38.667 -8.33398 -75.5 -25.001 -110.5s-39.667 -65.833 -69 -92.5s-63.666 -47.834 -102.999 -63.501s-81.333 -23.5 -126 -23.5c-46 0 -89 7.33301 -129 22s-74.5 34.834 -103.5 60.501s-51.833 55.5 -68.5 89.5s-25 70.667 -25 110
c0 60.667 14.667 112.834 44 156.501s68 76.834 116 99.501c-38 21.333 -68 49.333 -90 84s-33 73 -33 115c0 33.333 7.5 64.666 22.5 93.999s35.333 54.833 61 76.5s55.834 38.834 90.501 51.501s71.667 19 111 19c38.667 0 75.167 -6.33301 109.5 -19
s64.166 -29.834 89.499 -51.501s45.5 -47.167 60.5 -76.5s22.5 -60.666 22.5 -93.999c0 -42 -10.667 -80 -32 -114s-51 -61.667 -89 -83c50.667 -22.667 91 -54.834 121 -96.501s45 -92.834 45 -153.501zM538.999 705c0 20.667 -4.50098 40.334 -13.501 59.001
s-21 35 -36 49s-32.333 25 -52 33s-40.5 12 -62.5 12c-23.333 0 -45.166 -4 -65.499 -12s-38 -19 -53 -33s-27 -30.333 -36 -49s-13.5 -38.334 -13.5 -59.001c0 -21.333 4.5 -41.333 13.5 -60s21 -35 36 -49s32.5 -25 52.5 -33s41.333 -12 64 -12s44 4 64 12
s37.5 19 52.5 33s27 30.333 36 49s13.5 38.667 13.5 60zM577.998 272c0 26 -5.33301 50.167 -16 72.5s-25.167 41.666 -43.5 57.999s-39.666 29.166 -63.999 38.499s-50.166 14 -77.499 14c-28 0 -54.167 -4.66699 -78.5 -14s-45.5 -22.166 -63.5 -38.499
s-32.333 -35.666 -43 -57.999s-16 -46.5 -16 -72.5c0 -26.667 4.33301 -51.167 13 -73.5s21.5 -41.666 38.5 -57.999s38 -29.166 63 -38.499s53.833 -14 86.5 -14c27.333 0 53.166 4.66699 77.499 14s45.666 22.166 63.999 38.499s32.833 35.666 43.5 57.999
s16 46.833 16 73.5z" />
    <glyph glyph-name="nine" unicode="9" horiz-adv-x="748" 
d="M692 473c0 -60.667 -5.83496 -120.17 -17.502 -178.503s-31 -110.5 -58 -156.5s-62.167 -83.167 -105.5 -111.5s-96.333 -42.5 -159 -42.5c-48 0 -89.167 6.5 -123.5 19.5s-62.833 30.5 -85.5 52.5s-39.667 47.833 -51 77.5s-18 61.5 -20 95.5h110
c4 -16 9.33301 -32.333 16 -49s16 -32 28 -46s27.5 -25.5 46.5 -34.5s42.833 -13.5 71.5 -13.5c46.667 0 84.834 11.167 114.501 33.5s53 51 70 86s29.167 74.167 36.5 117.5s12.333 86 15 128c-15.333 -21.333 -31.5 -39.833 -48.5 -55.5s-35.167 -28.5 -54.5 -38.5
s-40.666 -17.333 -63.999 -22s-49 -7 -77 -7c-48 0 -90.333 7.83301 -127 23.5s-67.5 37.334 -92.5 65.001s-43.833 60.334 -56.5 98.001s-19 78.5 -19 122.5c0 44.667 6.83301 86.5 20.5 125.5s34 73 61 102s61 51.833 102 68.5s88.5 25 142.5 25c60 0 110.667 -11 152 -33
s74.833 -53.667 100.5 -95s44.167 -92.166 55.5 -152.499s17 -128.5 17 -204.5zM554.998 636.997c0 28 -4.3291 55.001 -12.9961 81.001s-21 49.333 -37 70s-35.5 37.167 -58.5 49.5s-48.833 18.5 -77.5 18.5c-35.333 0 -65.833 -5.83301 -91.5 -17.5
s-46.834 -27.5 -63.501 -47.5s-28.834 -43.167 -36.501 -69.5s-11.5 -53.833 -11.5 -82.5c0 -29.333 4.16699 -56.833 12.5 -82.5s20.666 -48 36.999 -67s37.166 -34 62.499 -45s55 -16.5 89 -16.5c27.333 0 52.5 5.66699 75.5 17s42.833 26.666 59.5 45.999
s29.667 41.5 39 66.5s14 51.5 14 79.5z" />
    <glyph glyph-name="colon" unicode=":" horiz-adv-x="330" 
d="M248 578c0 -12 -2.33301 -23 -7 -33s-10.834 -18.667 -18.501 -26s-16.5 -13 -26.5 -17s-20.667 -6 -32 -6c-22.667 0 -42 7.66699 -58 23s-24 35 -24 59c0 22.667 8 42.334 24 59.001s35.333 25 58 25s42.334 -8.33301 59.001 -25s25 -36.334 25 -59.001zM248 72
c0 -22.667 -8.33301 -42 -25 -58s-36.334 -24 -59.001 -24s-42 7.83301 -58 23.5s-24 35.167 -24 58.5c0 22.667 8 42.334 24 59.001s35.333 25 58 25s42.334 -8.33301 59.001 -25s25 -36.334 25 -59.001z" />
    <glyph glyph-name="semicolon" unicode=";" horiz-adv-x="330" 
d="M248 578c0 -12 -2.33301 -23 -7 -33s-10.834 -18.667 -18.501 -26s-16.5 -13 -26.5 -17s-20.667 -6 -32 -6c-22.667 0 -42 7.66699 -58 23s-24 35 -24 59c0 22.667 8 42.334 24 59.001s35.333 25 58 25s42.334 -8.33301 59.001 -25s25 -36.334 25 -59.001zM258 47
c0 -28.667 -9.50098 -60.668 -28.501 -96.001s-50.5 -67.333 -94.5 -96l-47 32c24.667 15.333 44.5 31.833 59.5 49.5s26.5 36.834 34.5 57.501l-9 -2c-3.33301 -0.666992 -6.5 -1.16699 -9.5 -1.5s-6.16699 -0.5 -9.5 -0.5c-20.667 0 -39.167 7.66699 -55.5 23
s-24.5 34.333 -24.5 57c0 10.667 2.16699 21.167 6.5 31.5s10.333 19.5 18 27.5s16.834 14.5 27.501 19.5s22 7.5 34 7.5c30.667 0 54.667 -10.167 72 -30.5s26 -46.5 26 -78.5z" />
    <glyph glyph-name="less" unicode="&#x3c;" horiz-adv-x="795" 
d="M59 383l676 311v-92l-565 -260l565 -260v-92l-676 311v82z" />
    <glyph glyph-name="equal" unicode="=" horiz-adv-x="748" 
d="M61 518h625v-92h-625v92zM61 256h625v-92h-625v92z" />
    <glyph glyph-name="greater" unicode="&#x3e;" horiz-adv-x="795" 
d="M59 82l566 260l-566 260v92l676 -311v-82l-676 -311v92z" />
    <glyph glyph-name="question" unicode="?" horiz-adv-x="748" 
d="M647 717c0 -28 -3.16992 -53.002 -9.50293 -75.002s-14.666 -42.167 -24.999 -60.5s-22.333 -35.166 -36 -50.499s-27.5 -30 -41.5 -44l-44 -42c-14 -14 -26.5 -28.833 -37.5 -44.5s-19.667 -32.667 -26 -51s-9.5 -38.5 -9.5 -60.5v-45h-113v55
c0 28 3.83301 52.833 11.5 74.5s17.334 41.334 29.001 59.001s24.667 33.834 39 48.501l41.5 43l38.5 39.5c13 13.667 24.5 28.5 34.5 44.5s17.833 33.833 23.5 53.5s7.5 42.167 5.5 67.5c-3.33301 50 -19 88.833 -47 116.5s-66 41.5 -114 41.5
c-31.333 0 -58.5 -5.83301 -81.5 -17.5s-42.167 -27.5 -57.5 -47.5s-26.833 -43.667 -34.5 -71s-11.5 -56.333 -11.5 -87h-112c-0.666992 46 5.83301 88.667 19.5 128s33.334 73.5 59.001 102.5s57 51.667 94 68s78.5 24.5 124.5 24.5c40.667 0 78.167 -6 112.5 -18
s63.833 -29.5 88.5 -52.5s44 -51.333 58 -85s21 -71.834 21 -114.501zM448.997 77.998c0 -25.333 -8.16699 -46.333 -24.5 -63s-37.166 -25 -62.499 -25c-24.667 0 -45.167 8.33301 -61.5 25s-24.5 37.667 -24.5 63c0 24.667 8.16699 45.167 24.5 61.5
s36.833 24.5 61.5 24.5c25.333 0 46.166 -8.16699 62.499 -24.5s24.5 -36.833 24.5 -61.5z" />
    <glyph glyph-name="at" unicode="@" horiz-adv-x="1081" 
d="M1018 551c0 -38.667 -8.00293 -79.667 -24.0029 -123s-38.5 -83.333 -67.5 -120s-63.667 -67.167 -104 -91.5s-84.5 -36.5 -132.5 -36.5c-22 0 -39.167 9.16699 -51.5 27.5s-20.5 39.166 -24.5 62.499c-28 -30 -56.667 -53.167 -86 -69.5s-62 -24.5 -98 -24.5
c-33.333 0 -63.5 9.33301 -90.5 28s-48.333 44 -64 76s-24.5 69 -26.5 111s5.66699 86.333 23 133c14 37.333 30.667 71.333 50 102s41.666 57 66.999 79s54 39 86 51s67.667 18 107 18c25.333 0 46.666 -5.83301 63.999 -17.5s31.666 -24.167 42.999 -37.5
c12 -17.333 22 -35.666 30 -54.999l31 86h86l-123 -424c-4.66699 -16 -5.5 -29.333 -2.5 -40s8 -18.5 15 -23.5s15.5 -7.16699 25.5 -6.5s19.667 4 29 10c14.667 10 30.5 24.5 47.5 43.5s32.833 41.333 47.5 67s26.834 53.5 36.501 83.5s14.5 61 14.5 93
c0 50 -9 96.833 -27 140.5s-43.333 81.667 -76 114s-71.667 57.666 -117 75.999s-95 27.5 -149 27.5c-52 0 -103 -9 -153 -27s-94.667 -44.833 -134 -80.5s-71 -79.5 -95 -131.5s-36 -112 -36 -180c0 -66.667 10.333 -127.167 31 -181.5s49.334 -100.666 86.001 -138.999
s80.334 -68 131.001 -89s106 -31.5 166 -31.5c38.667 0 73.834 3 105.501 9s61.167 15.667 88.5 29s53.5 30.333 78.5 51s50.833 45.667 77.5 75h80c-17.333 -34 -40.666 -65.667 -69.999 -95s-63 -54.5 -101 -75.5s-79.333 -37.5 -124 -49.5s-91 -18 -139 -18
c-70 0 -135 11.5 -195 34.5s-112 56.5 -156 100.5s-78.5 98.167 -103.5 162.5s-37.5 138.166 -37.5 221.499c0 76 13.667 144.333 41 205s64 112.167 110 154.5s99.333 74.833 160 97.5s124.334 34 191.001 34c70 0 133.167 -11.167 189.5 -33.5s104.5 -53 144.5 -92
s70.833 -85.167 92.5 -138.5s32.5 -110.666 32.5 -171.999zM650.997 438c14.667 34 22.667 65.832 24 95.499s-2.16699 55.5 -10.5 77.5s-20.833 39.333 -37.5 52s-36 19 -58 19c-25.333 0 -48.166 -5 -68.499 -15s-38.5 -23.167 -54.5 -39.5s-29.833 -34.833 -41.5 -55.5
s-21.5 -41.334 -29.5 -62.001c-10 -25.333 -16.5 -52.166 -19.5 -80.499s-1.5 -54.5 4.5 -78.5s17.167 -43.833 33.5 -59.5s38.833 -23.5 67.5 -23.5c20 0 39.167 4.33301 57.5 13s35.666 20.5 51.999 35.5s31.333 32.833 45 53.5s25.5 43.334 35.5 68.001z" />
    <glyph glyph-name="A" unicode="A" horiz-adv-x="858" 
d="M627 291h-400l-106 -291h-131l370 965h138l370 -965h-139zM268 399h318l-158 451z" />
    <glyph glyph-name="B" unicode="B" horiz-adv-x="907" 
d="M848 270c0 -41.333 -7.66797 -78.499 -23.001 -111.499s-36.166 -61.333 -62.499 -85s-57.666 -41.834 -93.999 -54.501s-75.5 -19 -117.5 -19h-449v965h420c54 0 99.333 -7 136 -21s66.167 -32 88.5 -54s38.333 -46.5 48 -73.5s14.5 -53.5 14.5 -79.5
c0 -52 -11.167 -97.5 -33.5 -136.5s-57.5 -69.167 -105.5 -90.5c27.333 -9.33301 52 -20.5 74 -33.5s40.667 -29 56 -48s27.166 -41.5 35.499 -67.5s12.5 -56.333 12.5 -91zM681.999 698.001c0 38.667 -6.33496 68.6689 -19.002 90.002s-29.167 37 -49.5 47
s-43.166 16 -68.499 18s-50.666 3 -75.999 3h-240v-305h236c29.333 0 57.166 1.83301 83.499 5.5s49.333 10.667 69 21s35.334 25.166 47.001 44.499s17.5 44.666 17.5 75.999zM722.997 287.003c0 33.333 -6.83496 60.167 -20.502 80.5s-32.167 36 -55.5 47
s-50.666 18.333 -81.999 22s-64.666 5.5 -99.999 5.5h-236v-333h260c30 0 59 1.83301 87 5.5s52.833 11.5 74.5 23.5s39.167 29.833 52.5 53.5s20 55.5 20 95.5z" />
    <glyph glyph-name="C" unicode="C" horiz-adv-x="956" 
d="M901 365c-6.66699 -60 -20.6709 -113.997 -42.0039 -161.997s-49.333 -89 -84 -123s-76 -60 -124 -78s-102 -27 -162 -27c-69.333 0 -131 12.333 -185 37s-99.5 59.667 -136.5 105s-65 100.333 -84 165s-28.5 136.667 -28.5 216c0 66 10.167 128.667 30.5 188
s49.5 111.166 87.5 155.499s84.333 79.666 139 105.999s116 39.5 184 39.5c54.667 0 105.334 -7.5 152.001 -22.5s87.334 -36.167 122.001 -63.5s62.667 -60.333 84 -99s34.333 -81.334 39 -128.001h-125c-6 29.333 -16 56.666 -30 81.999s-32.167 47.166 -54.5 65.499
s-49.166 32.833 -80.499 43.5s-67 16 -107 16c-52.667 0 -98.667 -11.167 -138 -33.5s-72 -51.666 -98 -87.999s-45.5 -77.666 -58.5 -123.999s-19.5 -93.5 -19.5 -141.5c0 -51.333 5.66699 -101.333 17 -150s29.333 -92 54 -130s56.334 -68.5 95.001 -91.5
s85 -34.5 139 -34.5c40 0 76.5 5.16699 109.5 15.5s62 26.5 87 48.5s45.333 50.5 61 85.5s26.167 77.5 31.5 127.5h125v0z" />
    <glyph glyph-name="D" unicode="D" horiz-adv-x="934" 
d="M883 522c0 -90.667 -9.66699 -168.832 -29 -234.499s-48 -119.834 -86 -162.501s-84.833 -74.167 -140.5 -94.5s-119.5 -30.5 -191.5 -30.5h-334v965h338c78 0 145 -11.833 201 -35.5s101.833 -55.667 137.5 -96s62 -87.333 79 -141s25.5 -110.5 25.5 -170.5z
M754 522.002c0 64.667 -8.33398 118.499 -25.001 161.499s-40 77.333 -70 103s-66.333 43.667 -109 54s-90 15.5 -142 15.5h-179v-747h193c72 0 129.667 11.833 173 35.5s76.833 54.834 100.5 93.501s39.334 82.667 47.001 132s11.5 100 11.5 152z" />
    <glyph glyph-name="E" unicode="E" horiz-adv-x="809" 
d="M102 965h654v-109h-527v-305h492v-109h-492v-333h531v-109h-658v965z" />
    <glyph glyph-name="F" unicode="F" horiz-adv-x="760" 
d="M229 551h435v-109h-435v-442h-127v965h623v-109h-496v-305z" />
    <glyph glyph-name="G" unicode="G" horiz-adv-x="1006" 
d="M813 121c-23.333 -26 -46.666 -47.999 -69.999 -65.999s-47.833 -32.833 -73.5 -44.5s-53.167 -20.167 -82.5 -25.5s-61 -8 -95 -8c-65.333 0 -124.833 13.167 -178.5 39.5s-99.667 62.666 -138 108.999s-68 101 -89 164s-31.5 131.167 -31.5 204.5
c0 64.667 10.167 126.834 30.5 186.501s49.833 112.167 88.5 157.5s85.834 81.5 141.501 108.5s119.167 40.5 190.5 40.5c64.667 0 120.667 -7.66699 168 -23s87.166 -37 119.499 -65s58.166 -61.5 77.499 -100.5s33.333 -81.833 42 -128.5h-122
c-11.333 32 -23.666 61 -36.999 87s-30.5 48.167 -51.5 66.5s-47 32.5 -78 42.5s-69.833 15 -116.5 15c-54 0 -101.333 -11.167 -142 -33.5s-74.834 -52 -102.501 -89s-48.5 -79 -62.5 -126s-21 -95.5 -21 -145.5c0 -56 7.5 -108.167 22.5 -156.5s36.5 -90.5 64.5 -126.5
s62 -64.333 102 -85s85 -31 135 -31c45.333 0 86.833 7 124.5 21s70 34.333 97 61s48 59.167 63 97.5s22.5 82.166 22.5 131.499h-303v109h416v-508h-80z" />
    <glyph glyph-name="H" unicode="H" horiz-adv-x="956" 
d="M727 442h-498v-442h-127v965h127v-414h498v414h125v-965h-125v442z" />
    <glyph glyph-name="I" unicode="I" horiz-adv-x="344" 
d="M109 965h127v-965h-127v965z" />
    <glyph glyph-name="J" unicode="J" horiz-adv-x="688" 
d="M584 258c0 -52 -7.00098 -95.834 -21.001 -131.501s-33.333 -64.5 -58 -86.5s-54 -38 -88 -48s-70.667 -15 -110 -15c-100.667 0 -172.834 27.5 -216.501 82.5s-63.5 140.833 -59.5 257.5h123c-5.33301 -80.667 5.33398 -139.667 32.001 -177s67 -56 121 -56
c28 0 51.167 4.33301 69.5 13s33 19.667 44 33s19.167 28.5 24.5 45.5s8.83301 33.667 10.5 50s2.33398 31.833 2.00098 46.5s-0.5 26.334 -0.5 35.001v658h127v-707v0z" />
    <glyph glyph-name="K" unicode="K" horiz-adv-x="883" 
d="M387 487l-158 -149v-338h-127v965h127v-482l482 482h159l-397 -390l414 -575h-158z" />
    <glyph glyph-name="L" unicode="L" horiz-adv-x="737" 
d="M102 965h127v-856h502v-109h-629v965z" />
    <glyph glyph-name="M" unicode="M" horiz-adv-x="1153" 
d="M930 811l-299 -811h-107l-299 819v-819h-119v965h173l296 -811l299 811h175v-965h-119v811z" />
    <glyph glyph-name="N" unicode="N" horiz-adv-x="956" 
d="M221 778v-778h-119v965h131l504 -783v783h117v-965h-133z" />
    <glyph glyph-name="O" unicode="O" horiz-adv-x="1008" 
d="M958 485c0 -70 -10.833 -135.833 -32.5 -197.5s-52.167 -115.5 -91.5 -161.5s-86.833 -82.333 -142.5 -109s-117.5 -40 -185.5 -40c-70.667 0 -134.167 13.333 -190.5 40s-104.333 63 -144 109s-70 99.833 -91 161.5s-31.5 127.5 -31.5 197.5s10.833 135.833 32.5 197.5
s52.334 115.334 92.001 161.001s87.667 81.667 144 108s119.166 39.5 188.499 39.5c66.667 0 127.667 -13.167 183 -39.5s103 -62.333 143 -108s71 -99.334 93 -161.001s33 -127.5 33 -197.5zM836 483c0 55.333 -7.83301 107.333 -23.5 156s-37.834 91 -66.501 127
s-63.334 64.5 -104.001 85.5s-86 31.5 -136 31.5c-52 0 -98.333 -10.5 -139 -31.5s-75.167 -49.5 -103.5 -85.5s-50 -78.333 -65 -127s-22.5 -100.667 -22.5 -156s7.5 -107.166 22.5 -155.499s36.833 -90.5 65.5 -126.5s63.334 -64.5 104.001 -85.5s86.667 -31.5 138 -31.5
s97.333 10.5 138 31.5s75.334 49.5 104.001 85.5s50.5 78.167 65.5 126.5s22.5 100.166 22.5 155.499z" />
    <glyph glyph-name="P" unicode="P" horiz-adv-x="858" 
d="M809 688c0 -58 -9.00195 -106 -27.002 -144s-41.167 -68 -69.5 -90s-59.666 -37.333 -93.999 -46s-67.833 -13 -100.5 -13h-289v-395h-127v965h377c106.667 0 188.334 -22.667 245.001 -68s85 -115 85 -209zM681.998 682c0 58.667 -19.332 102.667 -57.999 132
s-90.334 44 -155.001 44h-240v-354h228c28.667 0 56.5 1.83301 83.5 5.5s51 11.667 72 24s37.833 30.333 50.5 54s19 55.167 19 94.5z" />
    <glyph glyph-name="Q" unicode="Q" horiz-adv-x="1008" 
d="M958 485c0 -76.667 -12.667 -147.668 -38 -213.001s-61 -122 -107 -170l127 -102l-66 -84l-147 121c-32 -19.333 -66.333 -34.166 -103 -44.499s-76 -15.5 -118 -15.5c-70.667 0 -134.167 13.333 -190.5 40s-104.333 63 -144 109s-70 99.833 -91 161.5
s-31.5 127.5 -31.5 197.5s10.833 135.833 32.5 197.5s52.334 115.334 92.001 161.001s87.667 81.667 144 108s119.166 39.5 188.499 39.5c66.667 0 127.667 -13.167 183 -39.5s103 -62.333 143 -108s71 -99.334 93 -161.001s33 -127.5 33 -197.5zM836 482.999
c0 55.333 -7.83203 107.33 -23.499 155.997s-37.834 91 -66.501 127s-63.334 64.5 -104.001 85.5s-86 31.5 -136 31.5c-52 0 -98.333 -10.5 -139 -31.5s-75.167 -49.5 -103.5 -85.5s-50 -78.333 -65 -127s-22.5 -100.667 -22.5 -156s7.5 -107.166 22.5 -155.499
s36.833 -90.5 65.5 -126.5s63.334 -64.5 104.001 -85.5s86.667 -31.5 138 -31.5c23.333 0 45.833 2.33301 67.5 7s42.167 11.334 61.5 20.001l-105 86l66 79l127 -102c36 38 63.833 83.333 83.5 136s29.5 110.334 29.5 173.001z" />
    <glyph glyph-name="R" unicode="R" horiz-adv-x="907" 
d="M731 0c-8.66699 8.66699 -14.834 20.498 -18.501 35.498s-6.33398 32.833 -8.00098 53.5s-3 43.5 -4 68.5s-3.16699 51.833 -6.5 80.5c-3.33301 32 -9.16602 59.167 -17.499 81.5s-19.666 40.333 -33.999 54s-31.666 23.5 -51.999 29.5s-44.5 9 -72.5 9h-289v-412h-127
v965h445c36 0 71.167 -4.5 105.5 -13.5s65.166 -23.167 92.499 -42.5s49.333 -44.166 66 -74.499s25 -66.833 25 -109.5c0 -32 -2.66699 -61.5 -8 -88.5s-14.5 -51.5 -27.5 -73.5s-30 -41.167 -51 -57.5s-47.5 -29.833 -79.5 -40.5c28 -6 50.667 -14.667 68 -26
s31.166 -24.833 41.499 -40.5s17.666 -33.167 21.999 -52.5s7.5 -39.666 9.5 -60.999c2.66699 -29.333 4.83398 -58 6.50098 -86s4.33398 -54.5 8.00098 -79.5s9 -47.667 16 -68s17.167 -37.5 30.5 -51.5h-141zM711 691.998c0 33.333 -4.83203 60.668 -14.499 82.001
s-23.834 38 -42.501 50s-41.667 20.333 -69 25s-58.333 7 -93 7h-263v-336h256c34 0 64.833 2.66699 92.5 8s51.5 14.666 71.5 27.999s35.333 31 46 53s16 49.667 16 83z" />
    <glyph glyph-name="S" unicode="S" horiz-adv-x="858" 
d="M809 254c0 -45.333 -10.3311 -85.3359 -30.998 -120.003s-48.334 -63.667 -83.001 -87s-74.667 -40.833 -120 -52.5s-92.333 -17.5 -141 -17.5c-50 0 -98.333 7 -145 21s-88 35 -124 63s-64.667 63.333 -86 106s-31.333 92.667 -30 150h119
c-1.33301 -38 5.33398 -71.333 20.001 -100s34.334 -52.667 59.001 -72s53.167 -34 85.5 -44s65.5 -15 99.5 -15c36.667 0 70.334 3.33301 101.001 10s57.167 16.834 79.5 30.501s39.833 31.167 52.5 52.5s19 47 19 77c0 32 -6.5 58 -19.5 78s-31.667 36.5 -56 49.5
s-54 24 -89 33l-118.5 29.5c-48 12 -91.833 23.833 -131.5 35.5s-73.667 27.334 -102 47.001s-50.333 45 -66 76s-23.5 71.833 -23.5 122.5c0 42 9.33301 79.167 28 111.5s43.834 59.5 75.501 81.5s68 38.667 109 50s84.167 17 129.5 17c62 0 114.333 -7.83301 157 -23.5
s77.667 -37.167 105 -64.5s47.666 -59.666 60.999 -96.999s21.666 -77.333 24.999 -120h-117c-3.33301 29.333 -10.333 56.333 -21 81s-25.334 45.834 -44.001 63.501s-41.334 31.5 -68.001 41.5s-57.334 15 -92.001 15c-31.333 0 -60.5 -3.33301 -87.5 -10
s-50.333 -16.5 -70 -29.5s-35.167 -29.167 -46.5 -48.5s-17 -42 -17 -68c0 -30 4.16699 -53.5 12.5 -70.5s21.833 -30.833 40.5 -41.5s42.667 -19.834 72 -27.501l106 -28.5c30 -8 60 -15.5 90 -22.5s58.833 -15.167 86.5 -24.5s53.5 -20.5 77.5 -33.5
s44.833 -29.5 62.5 -49.5s31.5 -44.167 41.5 -72.5s15 -62.5 15 -102.5z" />
    <glyph glyph-name="T" unicode="T" horiz-adv-x="760" 
d="M444 0h-127v856h-315v109h756v-109h-314v-856z" />
    <glyph glyph-name="U" unicode="U" horiz-adv-x="956" 
d="M858 346c0 -62.667 -9.16699 -117.165 -27.5 -163.498s-44.166 -84.833 -77.499 -115.5s-74 -53.667 -122 -69s-101.333 -23 -160 -23c-54.667 0 -104.834 7.66699 -150.501 23s-85 38 -118 68s-58.667 67.333 -77 112s-27.5 96.667 -27.5 156v631h127v-625
c0 -36 5.16699 -69.333 15.5 -100s25.833 -57.5 46.5 -80.5s46.167 -41 76.5 -54s65.5 -19.5 105.5 -19.5c36.667 0 71 4.5 103 13.5s60 23.667 84 44s42.833 46.666 56.5 78.999s20.5 72.166 20.5 119.499v623h125v-619v0z" />
    <glyph glyph-name="V" unicode="V" horiz-adv-x="809" 
d="M334 0l-336 965h137l271 -836l274 836h133l-336 -965h-143z" />
    <glyph glyph-name="W" unicode="W" horiz-adv-x="1227" 
d="M827 0l-219 811l-219 -811h-131l-242 965h129l187 -807l213 807h135l213 -811l192 811h125l-252 -965h-131z" />
    <glyph glyph-name="X" unicode="X" horiz-adv-x="809" 
d="M406 399l-263 -399h-143l330 496l-312 469h150l235 -377l250 377h140l-316 -469l334 -496h-154z" />
    <glyph glyph-name="Y" unicode="Y" horiz-adv-x="858" 
d="M494 0h-127v393l-365 572h150l284 -459l279 459h141l-362 -572v-393z" />
    <glyph glyph-name="Z" unicode="Z" horiz-adv-x="809" 
d="M31 109l590 747h-547v109h690v-109l-588 -747h604v-109h-749v109z" />
    <glyph glyph-name="bracketleft" unicode="[" horiz-adv-x="344" 
d="M96 987h248v-90h-143v-1073h143v-92h-248v1255z" />
    <glyph glyph-name="backslash" unicode="\" horiz-adv-x="442" 
d="M-25 987h97l393 -1010h-98z" />
    <glyph glyph-name="bracketright" unicode="]" horiz-adv-x="344" 
d="M0 -176h143v1073h-143v90h248v-1255h-248v92z" />
    <glyph glyph-name="asciicircum" unicode="^" horiz-adv-x="795" 
d="M395 844l-235 -488h-94l288 586h86l289 -586h-92z" />
    <glyph glyph-name="underscore" unicode="_" horiz-adv-x="748" 
d="M0 -100h748v-93h-748v93z" />
    <glyph glyph-name="grave" unicode="`" horiz-adv-x="295" 
d="M-31 987h146l114 -192h-86z" />
    <glyph glyph-name="a" unicode="a" horiz-adv-x="711" 
d="M692 0c-15.333 -7.33301 -33.499 -12.501 -54.499 -15.501s-40.833 -1.83301 -59.5 3.5s-34 16.166 -46 32.499s-16.667 40.166 -14 71.499c-20.667 -20 -40 -36.833 -58 -50.5s-36.5 -24.834 -55.5 -33.501s-39 -14.834 -60 -18.501s-44.5 -5.5 -70.5 -5.5
c-38.667 0 -72 4.83301 -100 14.5s-51.167 23.334 -69.5 41.001s-31.833 38.5 -40.5 62.5s-13 50.667 -13 80c0 41.333 7.33301 74.833 22 100.5s34 46.334 58 62.001s51.333 27.334 82 35.001s62 14.167 94 19.5c32 6 60.5 10.833 85.5 14.5s46.167 8.66699 63.5 15
s30.666 15.333 39.999 27s14 28.5 14 50.5c0 34 -12.167 60.5 -36.5 79.5s-63.5 28.5 -117.5 28.5c-32 0 -58.5 -3.16699 -79.5 -9.5s-37.833 -15.333 -50.5 -27s-21.834 -25.667 -27.501 -42s-9.16699 -34.5 -10.5 -54.5h-114c0.666992 32.667 6.83398 63.167 18.501 91.5
s29.167 52.833 52.5 73.5s52.5 37 87.5 49s76.167 18 123.5 18c38.667 0 74.5 -3 107.5 -9s61.5 -16.167 85.5 -30.5s42.667 -33.166 56 -56.499s20 -52.333 20 -87v-393c0 -25.333 4.5 -41.166 13.5 -47.499s26.833 -5.5 53.5 2.5v-92zM508.001 357.999
c-17.333 -8.66699 -33.8301 -15.332 -49.4971 -19.999s-31.5 -8.33398 -47.5 -11.001s-32.167 -5 -48.5 -7s-33.5 -4.33301 -51.5 -7c-19.333 -3.33301 -38 -8.33301 -56 -15s-33.833 -15 -47.5 -25s-24.334 -22 -32.001 -36s-10.834 -30.333 -9.50098 -49
c3.33301 -36 16.5 -62 39.5 -78s59.5 -24 109.5 -24c23.333 0 46.5 4 69.5 12s43.667 19.167 62 33.5s33.166 31.5 44.499 51.5s17 42.333 17 67v108z" />
    <glyph glyph-name="b" unicode="b" horiz-adv-x="784" 
d="M739 367c0 -54 -5.16699 -100.998 -15.5 -140.998s-23.833 -74.333 -40.5 -103s-35.834 -52 -57.501 -70s-44 -32.333 -67 -43s-45.833 -18 -68.5 -22s-43.334 -6 -62.001 -6c-40 0 -74 5.83301 -102 17.5s-51.333 24.834 -70 39.501
c-21.333 16.667 -39.666 35.667 -54.999 57v-96h-113v965h113v-367c13.333 24 28.333 43.667 45 59s34.667 27.166 54 35.499s39.5 14.166 60.5 17.499s42.167 5 63.5 5c48.667 0 92.334 -9.33301 131.001 -28s71.667 -43.834 99 -75.501s48.333 -68.667 63 -111
s22 -86.833 22 -133.5zM618 367.002c0 31.333 -4.50195 61.668 -13.502 91.001s-22 55.5 -39 78.5s-37.833 41.333 -62.5 55s-53 20.5 -85 20.5c-40 0 -74 -6.83301 -102 -20.5s-50.833 -32.5 -68.5 -56.5s-30.5 -51.833 -38.5 -83.5s-12 -65.5 -12 -101.5
c0 -33.333 3.83301 -65.833 11.5 -97.5s20.167 -59.834 37.5 -84.501s40 -44.5 68 -59.5s62.667 -22.5 104 -22.5c36.667 0 67.834 8.16699 93.501 24.5s46.334 37.666 62.001 63.999s27 56.333 34 90s10.5 67.834 10.5 102.501z" />
    <glyph glyph-name="c" unicode="c" horiz-adv-x="711" 
d="M670 256c-12.667 -86 -44.334 -152.831 -95.001 -200.498s-118.667 -71.5 -204 -71.5c-53.333 0 -100 8.66699 -140 26s-73.5 42 -100.5 74s-47.333 70.667 -61 116s-20.5 96 -20.5 152c0 51.333 7 99.166 21 143.499s34.5 82.666 61.5 114.999s60.667 57.833 101 76.5
s86.5 28 138.5 28c48 0 90 -6.33301 126 -19s66 -30 90 -52s42.333 -47.5 55 -76.5s20 -59.833 22 -92.5h-113c-8 42 -26.667 75.667 -56 101s-70 38 -122 38c-36.667 0 -68 -7.16699 -94 -21.5s-47.333 -33.5 -64 -57.5s-29 -51.667 -37 -83s-12 -64 -12 -98
c0 -32.667 3.5 -65 10.5 -97s18.333 -60.667 34 -86s36.334 -45.833 62.001 -61.5s57.167 -23.5 94.5 -23.5c56 0 99.833 15.833 131.5 47.5s50.5 72.5 56.5 122.5h115v0z" />
    <glyph glyph-name="d" unicode="d" horiz-adv-x="784" 
d="M584 96c-12 -21.333 -28.333 -40.3311 -49 -56.998c-17.333 -14.667 -40.5 -27.834 -69.5 -39.501s-65.5 -17.5 -109.5 -17.5c-18.667 0 -39.334 2.33301 -62.001 7s-45.5 12.667 -68.5 24s-45.333 26.5 -67 45.5s-40.834 42.667 -57.501 71s-30.167 62 -40.5 101
s-15.5 84.5 -15.5 136.5c0 46.667 7.33301 91.167 22 133.5s35.667 79.333 63 111s60.333 56.834 99 75.501s82.334 28 131.001 28c22 0 43.667 -2.16699 65 -6.5s41.833 -11.333 61.5 -21s37.834 -21.834 54.501 -36.501s31 -32.334 43 -53.001v367h112v-965h-112v96z
M588 350.002c0 36 -4.00293 69.8311 -12.0029 101.498s-20.833 59.5 -38.5 83.5s-40.334 42.833 -68.001 56.5s-61.167 20.5 -100.5 20.5c-32 0 -60.5 -6.83301 -85.5 -20.5s-46.167 -32 -63.5 -55s-30.666 -49.167 -39.999 -78.5s-14 -59.666 -14 -90.999
c0 -34.667 3.33301 -68.834 10 -102.501s17.834 -63.667 33.501 -90s36.334 -47.666 62.001 -63.999s57.5 -24.5 95.5 -24.5c40.667 0 75 7.5 103 22.5s50.833 34.833 68.5 59.5s30.334 52.834 38.001 84.501s11.5 64.167 11.5 97.5z" />
    <glyph glyph-name="e" unicode="e" horiz-adv-x="711" 
d="M166 315c-2 -26.667 0.832031 -53.501 8.49902 -80.501s20.334 -51.5 38.001 -73.5s40 -40 67 -54s58.833 -21 95.5 -21c22 0 42.833 2.33301 62.5 7s37.5 12.334 53.5 23.001s29.667 24.5 41 41.5s19.666 38.167 24.999 63.5h111c-8 -36 -19.667 -68.667 -35 -98
s-35 -54.333 -59 -75s-52.667 -36.5 -86 -47.5s-72.333 -16.5 -117 -16.5c-50 0 -95 9 -135 27s-74 42.833 -102 74.5s-49.5 69.167 -64.5 112.5s-22.5 90 -22.5 140c0 50.667 6.66699 98.834 20 144.501s33.5 85.667 60.5 120s61 61.666 102 81.999s89.5 30.5 145.5 30.5
c52.667 0 98.834 -11.667 138.501 -35s72.167 -53.833 97.5 -91.5s43.833 -80.5 55.5 -128.5s16.167 -96.333 13.5 -145h-514zM558.999 415.999c0 28 -5.00098 54.166 -15.001 78.499s-23.833 45.5 -41.5 63.5s-38.5 32.167 -62.5 42.5s-50 15.5 -78 15.5
c-27.333 0 -52.666 -5.33301 -75.999 -16s-43.833 -25.167 -61.5 -43.5s-31.5 -39.666 -41.5 -63.999s-15 -49.833 -15 -76.5h391z" />
    <glyph glyph-name="f" unicode="f" horiz-adv-x="391" 
d="M393 866c-14.667 4.66699 -30.668 7.83398 -48.001 9.50098s-33.5 0.5 -48.5 -3.5s-27.5 -11.333 -37.5 -22s-15 -26.334 -15 -47.001v-105h131v-100h-131v-598h-113v598h-115l-2 100h117v105c0 34 5.5 62 16.5 84s25.167 39.667 42.5 53s36.333 22.833 57 28.5
s40.667 9 60 10s36.833 0.166992 52.5 -2.5s26.834 -5.66699 33.501 -9v-101v0z" />
    <glyph glyph-name="g" unicode="g" horiz-adv-x="760" 
d="M676 47c0 -39.333 -4.83496 -78.666 -14.502 -117.999s-26.167 -74.833 -49.5 -106.5s-54.666 -57.5 -93.999 -77.5s-88.333 -30 -147 -30c-42.667 0 -82.167 4.5 -118.5 13.5s-67.666 22.333 -93.999 40s-47 39.334 -62 65.001s-22.5 55.167 -22.5 88.5h112
c0.666992 -18.667 6 -35.167 16 -49.5s23.333 -26.333 40 -36s36 -17 58 -22s45.667 -7.5 71 -7.5c36 0 66.333 6.83301 91 20.5s44.667 32.667 60 57s26.666 53.166 33.999 86.499s11.666 69.666 12.999 108.999l2 45c-11.333 -23.333 -25 -43.333 -41 -60
s-33.167 -30.5 -51.5 -41.5s-37.666 -19 -57.999 -24s-40.5 -7.5 -60.5 -7.5c-57.333 0 -105.666 10.167 -144.999 30.5s-71.333 47.5 -96 81.5s-42.5 72.833 -53.5 116.5s-16.5 88.834 -16.5 135.501c0 46 6.5 90.5 19.5 133.5s32.333 81.167 58 114.5
s57.167 60.166 94.5 80.499s80.333 30.5 129 30.5c30 0 56.667 -3.33301 80 -10s44 -15.5 62 -26.5s33.333 -23.5 46 -37.5s23 -28.333 31 -43v100h107v-651zM562.998 360c0 36.667 -3.83301 70.668 -11.5 102.001s-19.834 58.166 -36.501 80.499s-38.167 39.833 -64.5 52.5
s-57.833 19 -94.5 19c-30.667 0 -57.834 -7 -81.501 -21s-43.5 -32.833 -59.5 -56.5s-28.167 -51 -36.5 -82s-12.5 -63.167 -12.5 -96.5c0 -32 3.33301 -63.833 10 -95.5s17.834 -60 33.501 -85s36 -45.167 61 -60.5s55.5 -23 91.5 -23c34.667 0 64.667 7.83301 90 23.5
s46.333 36 63 61s28.834 53.5 36.501 85.5s11.5 64 11.5 96z" />
    <glyph glyph-name="h" unicode="h" horiz-adv-x="737" 
d="M541 481c0 12 -2.33105 25.832 -6.99805 41.499s-12.334 30.167 -23.001 43.5s-25 24.666 -43 33.999s-40.333 14 -67 14c-29.333 0 -56.5 -4.66699 -81.5 -14s-46.5 -23 -64.5 -41s-32.167 -40.5 -42.5 -67.5s-15.5 -57.833 -15.5 -92.5v-399h-113v965h113v-375
c8.66699 18.667 19.5 35.834 32.5 51.501s29 28.834 48 39.501s41.167 19 66.5 25s54.666 9 87.999 9c30 0 58.333 -4.83301 85 -14.5s50 -24 70 -43s35.667 -42.667 47 -71s17 -61.5 17 -99.5v-487h-110v481z" />
    <glyph glyph-name="i" unicode="i" horiz-adv-x="295" 
d="M92 965h113v-140h-113v140zM92 698h113v-698h-113v698z" />
    <glyph glyph-name="j" unicode="j" horiz-adv-x="295" 
d="M92 965h113v-140h-113v140zM205 -94c0 -30.667 -4.16797 -56.666 -12.501 -77.999s-19 -38.833 -32 -52.5s-27.667 -23.834 -44 -30.501s-32.833 -11.167 -49.5 -13.5s-32.5 -2.5 -47.5 -0.5s-27.5 5 -37.5 9v100c16 -3.33301 30.667 -5.5 44 -6.5
s24.833 1.16699 34.5 6.5s17.334 14.5 23.001 27.5s8.5 31.833 8.5 56.5v774h113v-792z" />
    <glyph glyph-name="k" unicode="k" horiz-adv-x="688" 
d="M309 365l-104 -101v-264h-113v965h113v-572l311 305h152l-273 -254l293 -444h-143z" />
    <glyph glyph-name="l" unicode="l" horiz-adv-x="295" 
d="M92 965h113v-965h-113v965z" />
    <glyph glyph-name="m" unicode="m" horiz-adv-x="1130" 
d="M934 442c0 60.667 -9.33398 104.5 -28.001 131.5s-51 40.5 -97 40.5c-28 0 -53.333 -4.16699 -76 -12.5s-42.167 -19.666 -58.5 -33.999s-29 -31.666 -38 -51.999s-13.5 -42.5 -13.5 -66.5v-449h-115v451c0 19.333 -1.33301 38.666 -4 57.999s-8.16699 36.833 -16.5 52.5
s-20.5 28.334 -36.5 38.001s-37.333 14.5 -64 14.5c-36 0 -66.167 -7.16699 -90.5 -21.5s-43.833 -31.5 -58.5 -51.5s-25.167 -40.333 -31.5 -61s-9.5 -37.334 -9.5 -50.001v-430h-113v698h106v-102c26 38 57.833 67.333 95.5 88s81.834 31 132.501 31
c42.667 0 81 -9.5 115 -28.5s57 -49.167 69 -90.5c25.333 40 57.666 69.833 96.999 89.5s84.333 29.5 135 29.5c68.667 0 121.334 -18.333 158.001 -55s55 -85.334 55 -146.001v-514h-113v442z" />
    <glyph glyph-name="n" unicode="n" horiz-adv-x="737" 
d="M541 453c0 20.667 -2.16699 40.8301 -6.5 60.4971s-11.666 36.834 -21.999 51.501s-24 26.5 -41 35.5s-38.167 13.5 -63.5 13.5c-29.333 0 -56.833 -4.16699 -82.5 -12.5s-48 -21.166 -67 -38.499s-34 -39.166 -45 -65.499s-16.5 -57.833 -16.5 -94.5v-403h-113v698h106
v-112c25.333 48 59.166 81.5 101.499 100.5s90.5 28.5 144.5 28.5c34.667 0 65.334 -6 92.001 -18s49.167 -28.333 67.5 -49s32.166 -45 41.499 -73s14 -58 14 -90v-485h-110v453z" />
    <glyph glyph-name="o" unicode="o" horiz-adv-x="760" 
d="M713 350c0 -51.333 -7.33398 -99.166 -22.001 -143.499s-36 -83 -64 -116s-62.667 -59 -104 -78s-88.666 -28.5 -141.999 -28.5c-55.333 0 -103.666 9.5 -144.999 28.5s-75.833 45 -103.5 78s-48.5 71.667 -62.5 116s-21 92.166 -21 143.499
c0 50.667 7.16699 98.167 21.5 142.5s35.5 83 63.5 116s62.667 59 104 78s89 28.5 143 28.5c53.333 0 100.666 -9.5 141.999 -28.5s76 -45 104 -78s49.333 -71.667 64 -116s22 -91.833 22 -142.5zM593.999 350c0 36.667 -4.83203 71.167 -14.499 103.5
s-23.834 60.333 -42.501 84s-41.167 42.334 -67.5 56.001s-56.5 20.5 -90.5 20.5c-32 0 -61.167 -6.83301 -87.5 -20.5s-48.833 -32.334 -67.5 -56.001s-33 -51.667 -43 -84s-15 -66.833 -15 -103.5s4.66699 -71 14 -103s23 -60 41 -84s40.5 -42.833 67.5 -56.5
s58.5 -20.5 94.5 -20.5c32 0 61 6.83301 87 20.5s48.167 32.5 66.5 56.5s32.5 52 42.5 84s15 66.333 15 103z" />
    <glyph glyph-name="p" unicode="p" horiz-adv-x="784" 
d="M737 332c0 -47.333 -6.66699 -92 -20 -134s-33.166 -78.833 -59.499 -110.5s-59 -56.834 -98 -75.501s-84.167 -28 -135.5 -28c-43.333 0 -84.333 8.5 -123 25.5s-72 47.167 -100 90.5v-366h-113v964h113v-96c11.333 21.333 26.666 40.333 45.999 57
c17.333 14.667 40.5 28 69.5 40s66.167 18 111.5 18c16.667 0 36 -2 58 -6s44.5 -11.333 67.5 -22s45.5 -25.167 67.5 -43.5s41.5 -41.666 58.5 -69.999s30.833 -62.5 41.5 -102.5s16 -87 16 -141zM618 332c0 34 -3.49805 67.833 -10.498 101.5s-18.333 63.834 -34 90.501
s-36.334 48.334 -62.001 65.001s-56.834 25 -93.501 25c-41.333 0 -76 -7.66699 -104 -23s-50.667 -35.5 -68 -60.5s-29.833 -53.5 -37.5 -85.5s-11.5 -64.333 -11.5 -97c0 -36 4 -69.833 12 -101.5s20.667 -59.334 38 -83.001s40 -42.5 68 -56.5s61.667 -21 101 -21
c32 0 60.5 7 85.5 21s46.167 32.5 63.5 55.5s30.5 49.167 39.5 78.5s13.5 59.666 13.5 90.999z" />
    <glyph glyph-name="q" unicode="q" horiz-adv-x="784" 
d="M584 100c-12 -24 -26.334 -43.499 -43.001 -58.499s-34.834 -26.833 -54.501 -35.5s-40.334 -14.5 -62.001 -17.5s-43.167 -4.5 -64.5 -4.5c-51.333 0 -96.333 10 -135 30s-71 46.5 -97 79.5s-45.667 71.167 -59 114.5s-20 88.666 -20 135.999
c0 52 5.16699 97.167 15.5 135.5s24 71.333 41 99s36.333 50.5 58 68.5s43.834 32.167 66.501 42.5s45 17.5 67 21.5s41.667 6 59 6c42 0 77.333 -6 106 -18s52 -25.333 70 -40c10.667 -8.66699 20.334 -17.667 29.001 -27s16.334 -19.333 23.001 -30v96h112v-964h-112v366z
M587.999 348.001c0 32.667 -3.83105 65 -11.498 97s-20.334 60.5 -38.001 85.5s-40.5 45.167 -68.5 60.5s-62.333 23 -103 23c-37.333 0 -68.833 -8.33301 -94.5 -25s-46.334 -38.334 -62.001 -65.001s-27 -56.834 -34 -90.501s-10.5 -67.5 -10.5 -101.5
c0 -31.333 4.5 -61.666 13.5 -90.999s22.167 -55.5 39.5 -78.5s38.333 -41.5 63 -55.5s53 -21 85 -21c40 0 74 7 102 21s50.833 32.833 68.5 56.5s30.5 51.334 38.5 83.001s12 65.5 12 101.5z" />
    <glyph glyph-name="r" unicode="r" horiz-adv-x="442" 
d="M442 592c-32.667 2.66699 -64 -0.498047 -94 -9.49805s-56.5 -23.833 -79.5 -44.5s-41.333 -47.334 -55 -80.001s-20.5 -71.334 -20.5 -116.001v-342h-113v698h106v-151c8 20.667 19.5 41.5 34.5 62.5s33.167 39.833 54.5 56.5s46 29.5 74 38.5s59 11.833 93 8.5v-121v0z
" />
    <glyph glyph-name="s" unicode="s" horiz-adv-x="662" 
d="M623 190c0 -35.333 -8.49805 -65.833 -25.498 -91.5s-39 -47 -66 -64s-57.5 -29.667 -91.5 -38s-68 -12.5 -102 -12.5c-50 0 -93.667 6 -131 18s-68.333 28.667 -93 50s-43 46.333 -55 75s-18 60 -18 94h113c0 -25.333 5.16699 -46.666 15.5 -63.999s24 -31.333 41 -42
s36.333 -18.167 58 -22.5s43.5 -6.5 65.5 -6.5c24.667 0 47.334 1.83301 68.001 5.5s38.5 9.5 53.5 17.5s26.833 18.667 35.5 32s13 29.666 13 48.999c0 18.667 -4.66699 34.5 -14 47.5s-22.5 23.833 -39.5 32.5s-37.167 16.167 -60.5 22.5s-49 12.5 -77 18.5
c-31.333 6.66699 -62.333 14.334 -93 23.001s-58.334 20.5 -83.001 35.5s-44.5 34 -59.5 57s-22.5 52.167 -22.5 87.5c0 34.667 7.66699 64.667 23 90s35.166 46.166 59.499 62.499s52 28.5 83 36.5s62.5 12 94.5 12c48 0 89.333 -5.33301 124 -16s63.167 -25.667 85.5 -45
s38.833 -42.5 49.5 -69.5s16 -56.5 16 -88.5h-111c0 22.667 -5.33301 41.667 -16 57s-24 27.5 -40 36.5s-33.5 15.333 -52.5 19s-36.833 5.5 -53.5 5.5c-40.667 0 -74.334 -7.16699 -101.001 -21.5s-40 -38.5 -40 -72.5c0 -16 5 -29.5 15 -40.5s22.833 -20.333 38.5 -28
s33 -14 52 -19l56.5 -14.5l108.5 -27.5c34.333 -8.33301 64.5 -20 90.5 -35s46.833 -35.333 62.5 -61s23.5 -60.5 23.5 -104.5z" />
    <glyph glyph-name="t" unicode="t" horiz-adv-x="418" 
d="M293 0c-30 0 -55.5 2.00098 -76.5 6.00098s-38 11.667 -51 23s-22.333 27.166 -28 47.499s-8.5 46.833 -8.5 79.5v442h-117v100h117v211h113v-211h135v-100h-135v-430c0 -26.667 4 -44.667 12 -54s24.333 -14 49 -14h74v-100h-84v0z" />
    <glyph glyph-name="u" unicode="u" horiz-adv-x="737" 
d="M547 113c-26.667 -46 -59.501 -79.001 -98.501 -99.001s-84.833 -30 -137.5 -30c-32 0 -61.667 4.5 -89 13.5s-51.333 23.333 -72 43s-36.834 45.334 -48.501 77.001s-17.5 70.167 -17.5 115.5v465h113v-473c0 -19.333 2.83301 -37.333 8.5 -54
s14.334 -31.334 26.001 -44.001s26 -22.667 43 -30s36.833 -11 59.5 -11c62.667 0 112.834 18.333 150.501 55s56.5 91.334 56.5 164.001v393h110v-698h-104v113z" />
    <glyph glyph-name="v" unicode="v" horiz-adv-x="662" 
d="M274 0l-256 698h127l195 -583l186 583h119l-252 -698h-119z" />
    <glyph glyph-name="w" unicode="w" horiz-adv-x="1004" 
d="M645 0l-141 559l-139 -559h-121l-221 698h124l154 -577l141 577h123l146 -571l153 571h117l-217 -698h-119z" />
    <glyph glyph-name="x" unicode="x" horiz-adv-x="686" 
d="M340 289l-190 -289h-138l256 369l-237 329h143l166 -241l172 241h133l-235 -321l266 -377h-144z" />
    <glyph glyph-name="y" unicode="y" horiz-adv-x="662" 
d="M352 -96l-22.001 -54.5049c-7.33301 -17.667 -16 -34 -26 -49s-21.667 -28.667 -35 -41s-29.333 -22.166 -48 -29.499c-15.333 -7.33301 -31.333 -11.166 -48 -11.499s-32.334 0.5 -47.001 2.5c-8.66699 1.33301 -17.167 2.83301 -25.5 4.5s-16.5 3.83398 -24.5 6.50098
v108c6 -3.33301 12 -6.16602 18 -8.49902s12 -4.16602 18 -5.49902c10.667 -2.66699 22.167 -4.16699 34.5 -4.5s24.833 2.5 37.5 8.5c10.667 4 20.834 11.5 30.501 22.5s18.834 26.167 27.501 45.5l43 106l-275 694h129l201 -575l192 575h119l-299 -794v0z" />
    <glyph glyph-name="z" unicode="z" horiz-adv-x="637" 
d="M31 88l411 510h-387v100h533v-75l-422 -523h440v-100h-575v88z" />
    <glyph glyph-name="braceleft" unicode="{" horiz-adv-x="442" 
d="M326 -268c-28 0 -51.833 5.66699 -71.5 17s-35.667 26 -48 44s-21.166 38.5 -26.499 61.5s-8 46.167 -8 69.5v244c0 34 -5.83301 60.833 -17.5 80.5s-24.167 34.167 -37.5 43.5c-16 10.667 -34 17.667 -54 21v93c20 0.666992 38 7.66699 54 21
c6.66699 5.33301 13.334 12.166 20.001 20.499s12.5 18.5 17.5 30.5s9.16699 26.167 12.5 42.5s5 35.5 5 57.5v227c0 26.667 3.83301 51.167 11.5 73.5s18.5 41.5 32.5 57.5s30.667 28.5 50 37.5s40.666 13.5 63.999 13.5h80v-80h-58c-28 0 -47.167 -10.667 -57.5 -32
s-15.5 -51 -15.5 -89v-237c0 -40.667 -6.16699 -73.167 -18.5 -97.5s-25.833 -43.166 -40.5 -56.499c-16.667 -16 -36 -27 -58 -33c23.333 -5.33301 43 -16 59 -32c15.333 -14 29.166 -34.5 41.499 -61.5s18.5 -63.833 18.5 -110.5v-228c-1.33301 -22.667 0 -42 4 -58
c3.33301 -14.667 9.5 -28 18.5 -40s22.5 -18 40.5 -18h66v-82h-84v0z" />
    <glyph glyph-name="bar" unicode="|" horiz-adv-x="295" 
d="M102 987h91v-1010h-91v1010z" />
    <glyph glyph-name="braceright" unicode="}" horiz-adv-x="442" 
d="M379 313c-20.667 -2.66699 -39 -9.66699 -55 -21c-13.333 -9.33301 -25.666 -23.833 -36.999 -43.5s-17 -46.5 -17 -80.5v-244c0 -23.333 -2.66699 -46.5 -8 -69.5s-14 -43.5 -26 -61.5s-27.667 -32.667 -47 -44s-42.666 -17 -69.999 -17h-86v82h65c18 0 31.5 6 40.5 18
s15.167 25.333 18.5 40c4 18 5.66699 37.333 5 58v228c0 46.667 6 83.5 18 110.5s25.667 47.5 41 61.5c16 16 36 26.667 60 32c-22.667 6 -42.334 17 -59.001 33c-14.667 13.333 -28 32.166 -40 56.499s-18 56.833 -18 97.5v237c0 38 -5.33301 67.667 -16 89s-30 32 -58 32
h-57v80h80c23.333 0 44.666 -4.5 63.999 -13.5s35.833 -21.5 49.5 -37.5s24.334 -35.167 32.001 -57.5s11.5 -46.833 11.5 -73.5v-227c0 -43.333 5.66699 -76.666 17 -99.999s23.666 -40.333 36.999 -51c16 -13.333 34.333 -20.333 55 -21v-93v0z" />
    <glyph glyph-name="asciitilde" unicode="~" horiz-adv-x="795" 
d="M702 365c-9.33301 -14.667 -19.167 -29.001 -29.5 -43.001s-22 -26.5 -35 -37.5s-27.5 -19.833 -43.5 -26.5s-34.333 -10 -55 -10c-25.333 0 -49 4.33301 -71 13s-43.667 19.334 -65 32.001c-21.333 11.333 -44.5 22.666 -69.5 33.999s-52.833 17 -83.5 17
c-14.667 0 -27.667 -3.16699 -39 -9.5s-21.5 -14.333 -30.5 -24s-16.833 -20.5 -23.5 -32.5s-12.667 -24 -18 -36l-47 67c7.33301 14.667 15.833 29 25.5 43s21.167 26.5 34.5 37.5s28.5 19.833 45.5 26.5s36.5 10 58.5 10c22.667 0 46.5 -4.33301 71.5 -13
s50.167 -18.667 75.5 -30l37.5 -18.5c12.333 -6.33301 24.5 -12.166 36.5 -17.499s23.333 -9.83301 34 -13.5s20.667 -5.5 30 -5.5c12.667 0 24.5 3.16699 35.5 9.5s21 14.5 30 24.5s17.5 21.167 25.5 33.5l23 36.5l47 -67v0z" />
    <glyph glyph-name="currency" unicode="&#xa4;" horiz-adv-x="840" 
d="M422 729c-64 0 -117.334 -22.333 -160.001 -67c-43.333 -49.333 -65 -102.666 -65 -159.999c0 -62.667 21 -117.334 63 -164.001c43.333 -45.333 97.333 -68 162 -68c61.333 0 114 22.667 158 68c42 42 63 96.667 63 164c0 30.667 -5.5 59.667 -16.5 87
s-26.167 51.333 -45.5 72s-42.666 37.167 -69.999 49.5s-57 18.5 -89 18.5zM155.999 309c-41.333 55.333 -62.001 119.666 -62.001 192.999c0 76 20.667 138.667 62 188l-148 150l76 71l145 -145c53.333 39.333 117.666 59 192.999 59c36.667 0 71.834 -5.33301 105.501 -16
s61.167 -25 82.5 -43l150 145l71 -71l-145 -150c39.333 -53.333 59 -116 59 -188c0 -75.333 -19.667 -139.666 -59 -192.999l145 -145l-71 -76l-150 148c-10 -8.66699 -22 -16.5 -36 -23.5s-29.667 -13.833 -47 -20.5c-35.333 -12 -70.333 -18 -105 -18
c-73.333 0 -137.666 20.667 -192.999 62l-145 -148l-76 76z" />
    <glyph glyph-name="FL00A9h" unicode="&#xa9;" horiz-adv-x="1135" 
d="M1073 483c0 -70 -13.167 -135.667 -39.5 -197s-62.333 -115 -108 -161s-99.334 -82.167 -161.001 -108.5s-127.5 -39.5 -197.5 -39.5s-135.667 13.167 -197 39.5s-115 62.5 -161 108.5s-82.167 99.667 -108.5 161s-39.5 127 -39.5 197s13.167 135.5 39.5 196.5
s62.5 114.333 108.5 160s99.667 81.667 161 108s127 39.5 197 39.5s135.833 -13.167 197.5 -39.5s115.334 -62.333 161.001 -108s81.667 -99 108 -160s39.5 -126.5 39.5 -196.5zM1008 483c0 62.667 -11.1709 121.168 -33.5039 175.501s-53.166 101.666 -92.499 141.999
s-85.666 72 -138.999 95s-111.333 34.5 -174 34.5c-63.333 0 -122 -11.5 -176 -34.5s-100.667 -54.5 -140 -94.5s-70.166 -87.333 -92.499 -142s-33.5 -113.334 -33.5 -176.001c0 -62 11.333 -120 34 -174s53.834 -101.167 93.501 -141.5s86.334 -72.166 140.001 -95.499
s111.834 -35 174.501 -35s120.667 11.667 174 35s99.666 55.333 138.999 96s70.166 88 92.499 142s33.5 111.667 33.5 173zM857.996 403.001c-3.33301 -37.333 -12.668 -70.832 -28.001 -100.499s-35.333 -55 -60 -76s-53 -37 -85 -48s-66.333 -16.5 -103 -16.5
c-50 0 -95 8.16699 -135 24.5s-74.167 38.833 -102.5 67.5s-50.166 62.667 -65.499 102s-23 81.666 -23 126.999c0 46.667 7.66699 89.5 23 128.5s36.666 72.5 63.999 100.5s60.333 49.833 99 65.5s81.667 23.5 129 23.5c36 0 70.167 -4.83301 102.5 -14.5
s61.333 -24.167 87 -43.5s47 -43.833 64 -73.5s28.167 -64.5 33.5 -104.5h-90c-11.333 51.333 -34.833 90.166 -70.5 116.499s-77.167 39.5 -124.5 39.5c-36 0 -68 -6 -96 -18s-51.5 -28.5 -70.5 -49.5s-33.5 -45.833 -43.5 -74.5s-15 -60 -15 -94
c0 -33.333 5.33301 -64.666 16 -93.999s26 -55 46 -77s44.333 -39.5 73 -52.5s61 -19.5 97 -19.5c24.667 0 47.834 4 69.501 12s40.667 19.167 57 33.5s29.833 31.333 40.5 51s17.667 41.167 21 64.5h90z" />
    <glyph glyph-name="guillemotleft" unicode="&#xab;" horiz-adv-x="637" 
d="M324 365l157 286l76 -35l-94 -251l94 -250l-76 -37zM57 365l295 364l74 -41l-217 -323l217 -322l-74 -41z" />
    <glyph glyph-name="logicalnot" unicode="&#xac;" horiz-adv-x="748" 
d="M595 297h-534v90h616v-268h-82v178z" />
    <glyph glyph-name="minus" unicode="&#xad;" horiz-adv-x="748" 
d="M61 387h625v-92h-625v92z" />
    <glyph glyph-name="registered" unicode="&#xae;" horiz-adv-x="1135" 
d="M1073 483c0 -70 -13.167 -135.667 -39.5 -197s-62.333 -115 -108 -161s-99.334 -82.167 -161.001 -108.5s-127.5 -39.5 -197.5 -39.5s-135.667 13.167 -197 39.5s-115 62.5 -161 108.5s-82.167 99.667 -108.5 161s-39.5 127 -39.5 197s13.167 135.5 39.5 196.5
s62.5 114.333 108.5 160s99.667 81.667 161 108s127 39.5 197 39.5s135.833 -13.167 197.5 -39.5s115.334 -62.333 161.001 -108s81.667 -99 108 -160s39.5 -126.5 39.5 -196.5zM1008 483c0 62.667 -11.1709 121.168 -33.5039 175.501s-53.166 101.666 -92.499 141.999
s-85.666 72 -138.999 95s-111.333 34.5 -174 34.5c-63.333 0 -122 -11.5 -176 -34.5s-100.667 -54.5 -140 -94.5s-70.166 -87.333 -92.499 -142s-33.5 -113.334 -33.5 -176.001c0 -62 11.333 -120 34 -174s53.834 -101.167 93.501 -141.5s86.334 -72.166 140.001 -95.499
s111.834 -35 174.501 -35s120.667 11.667 174 35s99.666 55.333 138.999 96s70.166 88 92.499 142s33.5 111.667 33.5 173zM568.996 440.001h-125.002v-256h-92v596h246c76 0 130.833 -14.5 164.5 -43.5s50.5 -71.833 50.5 -128.5c0 -23.333 -3.66699 -43.833 -11 -61.5
s-17.166 -33 -29.499 -46s-27.166 -24 -44.499 -33s-36 -16.167 -56 -21.5l182 -262h-104zM720.994 612.001c0 22.667 -4 40.832 -12 54.499s-18.167 24.167 -30.5 31.5s-26.333 12.333 -42 15s-31.167 4 -46.5 4h-146v-213h107c20 0 40.167 0.5 60.5 1.5
s38.5 4.83301 54.5 11.5s29.167 17.334 39.5 32.001s15.5 35.667 15.5 63z" />
    <glyph glyph-name="degree" unicode="&#xb0;" horiz-adv-x="541" 
d="M266 915c28.667 0 55.5 -5.33398 80.5 -16.001s46.667 -25 65 -43s32.833 -39.333 43.5 -64s16 -51 16 -79s-5.33301 -54.333 -16 -79s-25.167 -46.167 -43.5 -64.5s-40 -32.833 -65 -43.5s-51.833 -16 -80.5 -16c-27.333 0 -53 5.16699 -77 15.5
s-45.167 24.666 -63.5 42.999s-32.833 39.833 -43.5 64.5s-16 51.334 -16 80.001c0 26.667 5.16699 52.334 15.5 77.001s24.5 46.167 42.5 64.5s39.167 33 63.5 44s50.5 16.5 78.5 16.5zM266 857.999c-20.667 0 -39.833 -3.66602 -57.5 -10.999s-33 -17.5 -46 -30.5
s-23.167 -28.333 -30.5 -46s-11 -36.834 -11 -57.501c0 -20 3.83301 -39 11.5 -57s18 -33.667 31 -47s28.333 -24 46 -32s36.5 -12 56.5 -12c41.333 0 76.333 14.333 105 43c30 30.667 45 65.667 45 105c0 20 -4 38.833 -12 56.5s-18.833 33 -32.5 46s-29.5 23.333 -47.5 31
s-37.333 11.5 -58 11.5z" />
    <glyph glyph-name="paragraph" unicode="&#xb6;" horiz-adv-x="727" 
d="M567 -244v1356h-145v-1356h-55v805c-112 0 -199.667 20.667 -263 62c-69.333 49.333 -104 127.666 -104 234.999c-0 102 31.333 178.333 94 229c60 44 142.667 66 248 66h389v-41h-102v-1356h-62z" />
    <glyph glyph-name="periodcentered" unicode="&#xb7;" horiz-adv-x="338" 
d="M170 520c20.667 0 37.832 -7.16699 51.499 -21.5s20.5 -30.833 20.5 -49.5c0 -20.667 -7.16699 -38.167 -21.5 -52.5s-31.166 -21.5 -50.499 -21.5c-22 0 -39.833 6.83301 -53.5 20.5s-20.5 31.5 -20.5 53.5c0 20 6.83301 36.833 20.5 50.5s31.5 20.5 53.5 20.5z" />
    <glyph glyph-name="periodcentered" unicode="&#x2219;" horiz-adv-x="338" 
d="M170 520c20.667 0 37.832 -7.16699 51.499 -21.5s20.5 -30.833 20.5 -49.5c0 -20.667 -7.16699 -38.167 -21.5 -52.5s-31.166 -21.5 -50.499 -21.5c-22 0 -39.833 6.83301 -53.5 20.5s-20.5 31.5 -20.5 53.5c0 20 6.83301 36.833 20.5 50.5s31.5 20.5 53.5 20.5z" />
    <glyph glyph-name="guillemotright" unicode="&#xbb;" horiz-adv-x="637" 
d="M213 43l217 322l-217 323l74 41l295 -364l-295 -363zM82 115l94 250l-94 251l76 35l157 -286l-157 -287z" />
    <glyph glyph-name="multiply" unicode="&#xd7;" horiz-adv-x="748" 
d="M373 276l-246 -245l-66 63l246 248l-244 244l64 65l246 -243l245 245l66 -65l-246 -246l248 -248l-65 -65z" />
    <glyph glyph-name="divide" unicode="&#xf7;" horiz-adv-x="748" 
d="M455 592c0 -10 -2.33203 -20 -6.99902 -30s-10.667 -18.833 -18 -26.5s-16 -13.834 -26 -18.501s-20.333 -7 -31 -7c-10 0 -20 2.33301 -30 7s-18.833 10.834 -26.5 18.501s-13.834 16.5 -18.501 26.5s-7 20 -7 30c0 10.667 2.33301 21 7 31s10.667 18.667 18 26
s16 13.333 26 18s20.333 7 31 7s21 -2.33301 31 -7s18.667 -10.667 26 -18s13.333 -16 18 -26s7 -20.333 7 -31zM61.001 387h625v-92h-625v92zM455.001 90c0 -10 -2.33203 -20 -6.99902 -30s-10.667 -18.833 -18 -26.5s-16 -13.834 -26 -18.501s-20.333 -7 -31 -7
c-10 0 -20 2.33301 -30 7s-18.833 10.834 -26.5 18.501s-13.834 16.5 -18.501 26.5s-7 20 -7 30c0 10.667 2.33301 21 7 31s10.667 18.667 18 26s16 13.333 26 18s20.333 7 31 7s21 -2.33301 31 -7s18.667 -10.667 26 -18s13.333 -16 18 -26s7 -20.333 7 -31z" />
    <glyph glyph-name="uni0E00" unicode="&#xe00;" horiz-adv-x="205" 
 />
    <glyph glyph-name="uni0E01" unicode="&#xe01;" horiz-adv-x="778" 
d="M602 557c0 30.667 -5.33398 57.0039 -16.001 79.0039s-25.667 40 -45 54s-42.666 24.333 -69.999 31s-57.333 10 -90 10c-29.333 0 -56.833 -3.16699 -82.5 -9.5s-48.167 -14.833 -67.5 -25.5s-35 -22.667 -47 -36s-19.333 -27.333 -22 -42l20.5 -15.5
c7.66699 -5.66699 15 -12 22 -19s12.833 -14.667 17.5 -23s7 -16.833 7 -25.5c0 -12 -2.83301 -22.5 -8.5 -31.5s-11.667 -17.833 -18 -26.5s-12.333 -17.834 -18 -27.501s-8.5 -21.5 -8.5 -35.5v-414h-115v422c0 12.667 3.33301 23.667 10 33s14 17.833 22 25.5
s15.333 15.167 22 22.5s10 15.666 10 24.999c0 7.33301 -4.5 15.166 -13.5 23.499s-18.833 16.166 -29.5 23.499l-43 25c2.66699 36 13.834 68.333 33.501 97s45.167 53.167 76.5 73.5s67.166 36 107.499 47s82.5 16.5 126.5 16.5s86.167 -5 126.5 -15
s75.833 -25.833 106.5 -47.5s55.167 -49.167 73.5 -82.5s27.5 -73.333 27.5 -120v-569h-115v557z" />
    <glyph glyph-name="uni0E02" unicode="&#xe02;" horiz-adv-x="696" 
d="M635 229c0 -47.333 -8.66797 -86.5029 -26.001 -117.503s-39.833 -55.833 -67.5 -74.5s-58.5 -31.834 -92.5 -39.501s-67.667 -11.5 -101 -11.5c-32.667 0 -66 3.83301 -100 11.5s-64.833 20.834 -92.5 39.501s-50.334 43.5 -68.001 74.5s-26.5 70.167 -26.5 117.5v289
c0 18.667 3.83301 34.5 11.5 47.5s17 24.333 28 34s23.167 18 36.5 25l36.5 19.5c11 6 20.333 12.167 28 18.5s11.5 13.5 11.5 21.5c0 24.667 -21 37 -63 37h-101v98h105c60.667 0 104.834 -9.83301 132.501 -29.5s41.5 -51.5 41.5 -95.5
c0 -20 -3.83301 -36.833 -11.5 -50.5s-17 -25.167 -28 -34.5s-23.167 -17.666 -36.5 -24.999s-25.5 -14.666 -36.5 -21.999s-20.333 -15.666 -28 -24.999s-11.5 -21 -11.5 -35v-258c0 -30 4.66699 -55 14 -75s21.833 -36 37.5 -48s33.834 -20.5 54.501 -25.5
s42.667 -7.5 66 -7.5c22.667 0 44.5 2.5 65.5 7.5s39.333 13.5 55 25.5s28.167 28 37.5 48s14 45 14 75v575h115v-590v0z" />
    <glyph glyph-name="uni0E03" unicode="&#xe03;" horiz-adv-x="707" 
d="M645 229c0 -47.333 -8.66895 -86.5029 -26.002 -117.503s-39.833 -55.833 -67.5 -74.5s-58.5 -31.834 -92.5 -39.501s-67.667 -11.5 -101 -11.5c-32.667 0 -66 3.83301 -100 11.5s-64.667 20.834 -92 39.501s-49.833 43.5 -67.5 74.5s-26.5 70.167 -26.5 117.5v267
c0 19.333 3.83301 35.833 11.5 49.5s17.167 25.667 28.5 36s23.833 19.333 37.5 27s26.167 15.334 37.5 23.001s20.833 15.667 28.5 24s11.5 18.5 11.5 30.5c0 7.33301 -1 13.833 -3 19.5s-4 10.5 -6 14.5l-9 13l-84 -67l-117 94l76 65l59 -47l60 47
c46.667 2.66699 80.834 -7.83301 102.501 -31.5s32.5 -56.167 32.5 -97.5c0 -21.333 -3.83301 -39.833 -11.5 -55.5s-17 -29.334 -28 -41.001s-23.167 -22.167 -36.5 -31.5s-25.5 -18.666 -36.5 -27.999s-20.333 -19.166 -28 -29.499s-11.5 -22.166 -11.5 -35.499v-231
c0 -30 4.66699 -55 14 -75s21.833 -36 37.5 -48s33.834 -20.5 54.501 -25.5s42.667 -7.5 66 -7.5c22.667 0 44.5 2.5 65.5 7.5s39.333 13.5 55 25.5s28.167 28 37.5 48s14 45 14 75v575h115v-590v0z" />
    <glyph glyph-name="uni0E04" unicode="&#xe04;" horiz-adv-x="799" 
d="M623 557c0 30.667 -6.16699 57 -18.5 79s-28.666 40 -48.999 54s-44 24.333 -71 31s-55.5 10 -85.5 10c-29.333 0 -57.5 -3.33301 -84.5 -10s-50.833 -17 -71.5 -31s-37 -32 -49 -54s-18 -48.333 -18 -79v-84h250v-102h-250v-371h-115v569
c0 46.667 10.167 86.834 30.5 120.501s46.666 61.167 78.999 82.5s68.5 37 108.5 47s80 15 120 15c40.667 0 81.167 -5 121.5 -15s76.5 -25.667 108.5 -47s58 -48.833 78 -82.5s30 -73.834 30 -120.501v-569h-114v557z" />
    <glyph glyph-name="uni0E05" unicode="&#xe05;" horiz-adv-x="799" 
d="M623 586c0 34.667 -7.66797 64.5 -23.001 89.5s-37 41.5 -65 49.5l-134 -111l-137 111c-28 -8 -49.667 -24.5 -65 -49.5s-23 -54.833 -23 -89.5v-113h252v-104h-252v-369h-115v596c0 31.333 5.5 60.666 16.5 87.999s26.667 51.5 47 72.5s44.833 38.167 73.5 51.5
s61 22 97 26l104 -84l107 84c34.667 -4 66.334 -12.667 95.001 -26s53 -30.5 73 -51.5s35.5 -45.167 46.5 -72.5s16.5 -56.666 16.5 -87.999v-596h-114v586z" />
    <glyph glyph-name="uni0E06" unicode="&#xe06;" horiz-adv-x="809" 
d="M748 244c0 -46 -7 -85.1699 -21 -117.503s-33.333 -58.666 -58 -78.999s-53.834 -35.333 -87.501 -45s-69.834 -14.5 -108.501 -14.5c-31.333 0 -60.833 3.5 -88.5 10.5s-53.5 16.333 -77.5 28s-46.167 25.167 -66.5 40.5s-38.5 31.333 -54.5 48v-115h-114v496
c0 19.333 3.83301 35.833 11.5 49.5s17.167 25.667 28.5 36s23.833 19.333 37.5 27s26.167 15.334 37.5 23.001s20.833 15.667 28.5 24s11.5 18.5 11.5 30.5c0 7.33301 -1 13.833 -3 19.5s-4 10.5 -6 14.5l-9 13l-84 -67l-117 94l76 65l59 -47l60 47
c46.667 2.66699 80.834 -7.83301 102.501 -31.5s32.5 -56.167 32.5 -97.5c0 -21.333 -3.83301 -39.833 -11.5 -55.5s-17 -29.334 -28 -41.001s-23.167 -22.167 -36.5 -31.5s-25.5 -18.666 -36.5 -27.999s-20.333 -19.166 -28 -29.499s-11.5 -22.166 -11.5 -35.499v-143
c0 -23.333 6.83301 -49 20.5 -77s32.667 -54.167 57 -78.5s53.5 -44.833 87.5 -61.5s71.333 -25 112 -25c24.667 0 47.334 3 68.001 9s38.5 15.5 53.5 28.5s26.833 29.667 35.5 50s13 45.166 13 74.499v567h115v-575v0z" />
    <glyph glyph-name="uni0E07" unicode="&#xe07;" horiz-adv-x="713" 
d="M670 526c3.33301 -37.333 4.16699 -76.167 2.5 -116.5s-7 -80 -16 -119s-22.333 -76 -40 -111s-40.667 -65.833 -69 -92.5s-62.5 -47.834 -102.5 -63.501s-87.333 -23.5 -142 -23.5h-94l-209 666l96 77l201 -641h25c42.667 0 79.667 11.333 111 34
s56.666 52.5 75.999 89.5s32.833 79 40.5 126s9.5 95.167 5.5 144.5c-7.33301 88 -36.833 151.833 -88.5 191.5s-125.167 52.167 -220.5 37.5v102c64 9.33301 121.167 8.5 171.5 -2.5s93.333 -30 129 -57s63.834 -61.167 84.501 -102.5s33.667 -87.666 39 -138.999z" />
    <glyph glyph-name="uni0E08" unicode="&#xe08;" horiz-adv-x="735" 
d="M690 463c0 -81.333 -11.335 -152.166 -34.002 -212.499s-54 -110 -94 -149s-87.5 -67.333 -142.5 -85s-114.833 -24.5 -179.5 -20.5l-117 453l-41 63h145l103 -408c35.333 4 68 15 98 33s55.833 42.333 77.5 73s38.667 67.167 51 109.5s18.5 90.166 18.5 143.499
c0 42.667 -5.83301 80.5 -17.5 113.5s-28.334 61 -50.001 84s-47.5 40.5 -77.5 52.5s-63.333 18 -100 18c-58.667 0 -108.5 -11.667 -149.5 -35s-67.833 -58 -80.5 -104h-112c2.66699 32.667 12.834 63.667 30.501 93s41.5 55 71.5 77s65.333 39.5 106 52.5
s85.334 19.5 134.001 19.5c52.667 0 101.167 -8 145.5 -24s82.333 -39.667 114 -71s56.334 -70 74.001 -116s26.5 -99.333 26.5 -160z" />
    <glyph glyph-name="uni0E09" unicode="&#xe09;" horiz-adv-x="788" 
d="M612 94c-14 -12 -30.1709 -24.3311 -48.5039 -36.998s-39 -24 -62 -34s-48.5 -18.333 -76.5 -25s-58.333 -10 -91 -10c-36 0 -69.833 3.83301 -101.5 11.5s-59.5 21.167 -83.5 40.5s-42.833 45.333 -56.5 78s-20.5 74 -20.5 124v192l-25 62h139v-242
c0 -32 3.66699 -58.667 11 -80s18 -38.333 32 -51s30.667 -21.667 50 -27s41 -8 65 -8c39.333 0 75.5 5.83301 108.5 17.5s61.333 26.667 85 45s42 39.166 55 62.499s19.5 46.666 19.5 69.999v274c0 31.333 -6.16699 58 -18.5 80s-29.166 40 -50.499 54s-46 24.167 -74 30.5
s-58 9.5 -90 9.5c-25.333 0 -49.666 -1.83301 -72.999 -5.5s-44.666 -10 -63.999 -19s-36.333 -21 -51 -36s-25.667 -33.833 -33 -56.5h-121c10 40 26.5 74 49.5 102s50 50.667 81 68s64.833 30 101.5 38s73.334 12 110.001 12c45.333 0 89 -5 131 -15s79 -25.833 111 -47.5
s57.667 -49.167 77 -82.5s29 -73.333 29 -120v-569h-115v94z" />
    <glyph glyph-name="uni0E0A" unicode="&#xe0a;" horiz-adv-x="762" 
d="M719 322c0 -56.667 -9.66602 -105.671 -28.999 -147.004s-46 -75.333 -80 -102s-73.833 -46.334 -119.5 -59.001s-94.5 -18.667 -146.5 -18l-283 4v819h115v-717l162 -4c34 -1.33301 66.833 2.16699 98.5 10.5s60 21.5 85 39.5s45 41.167 60 69.5
s22.5 62.166 22.5 101.499c0 30.667 -5.16699 58.834 -15.5 84.501s-24.833 47.5 -43.5 65.5s-40.834 32 -66.501 42s-53.5 15 -83.5 15h-108v103h108c24.667 0 48.5 3.5 71.5 10.5s43.333 18 61 33s31.167 34.667 40.5 59s12.666 53.5 9.99902 87.5h112
c4.66699 -27.333 4.5 -53.666 -0.5 -78.999s-13.5 -48.666 -25.5 -69.999s-27.167 -40.166 -45.5 -56.499s-38.166 -29.166 -59.499 -38.499c20 -8 39.5 -19.333 58.5 -34s36 -32.667 51 -54s27.167 -45.666 36.5 -72.999s14 -58 14 -92z" />
    <glyph glyph-name="uni0E0B" unicode="&#xe0b;" horiz-adv-x="780" 
d="M739 322c0 -56.667 -9.66602 -105.336 -28.999 -146.003s-46 -74 -80 -100s-73.667 -45.167 -119 -57.5s-94 -18.5 -146 -18.5h-283v496c0 28.667 6 51.334 18 68.001s25.167 31.167 39.5 43.5s27.5 24.166 39.5 35.499s18 25.666 18 42.999c0 7.33301 -1 13.833 -3 19.5
s-4.33301 10.5 -7 14.5l-9 13l-84 -67l-117 94l76 65l60 -47l59 47c46.667 2.66699 80.834 -7.83301 102.501 -31.5s32.5 -56.167 32.5 -97.5c0 -32 -5.66699 -57.5 -17 -76.5s-24 -35.5 -38 -49.5s-26.667 -27.833 -38 -41.5s-17 -31.5 -17 -53.5v-373h161
c34.667 0 68 4 100 12s60.333 20.667 85 38s44.5 39.666 59.5 66.999s22.5 60.666 22.5 99.999c0 30.667 -5.16699 58.834 -15.5 84.501s-24.833 47.5 -43.5 65.5s-40.834 32 -66.501 42s-53.5 15 -83.5 15h-88v103h88c24 0 47.5 3.5 70.5 10.5s43.333 18 61 33
s31.167 34.667 40.5 59s12.666 53.5 9.99902 87.5h113c4.66699 -27.333 4.5 -53.666 -0.5 -78.999s-13.667 -48.666 -26 -69.999s-27.5 -40.166 -45.5 -56.499s-37.667 -29.166 -59 -38.499c20 -8 39.5 -19.333 58.5 -34s36 -32.667 51 -54s27 -45.666 36 -72.999
s13.5 -58 13.5 -92z" />
    <glyph glyph-name="uni0E0C" unicode="&#xe0c;" horiz-adv-x="1257" 
d="M1196 242c0 -50 -7.00098 -91.4961 -21.001 -124.496s-32.667 -59 -56 -78s-50.166 -32.333 -80.499 -40s-61.833 -11.5 -94.5 -11.5c-46 0 -89.167 9.33301 -129.5 28s-72.833 43.334 -97.5 74.001v-90h-115v557c0 30.667 -5.33301 57 -16 79s-25.667 40 -45 54
s-42.666 24.333 -69.999 31s-57.333 10 -90 10c-29.333 0 -56.833 -3.16699 -82.5 -9.5s-48.167 -14.833 -67.5 -25.5s-35 -22.667 -47 -36s-19.333 -27.333 -22 -42l20.5 -15.5c7.66699 -5.66699 15 -12 22 -19s12.833 -14.667 17.5 -23s7 -16.833 7 -25.5
c0 -12 -2.83301 -22.5 -8.5 -31.5s-11.667 -17.833 -18 -26.5s-12.333 -17.834 -18 -27.501s-8.5 -21.5 -8.5 -35.5v-312h127v-102h-242v422c0 12.667 3.33301 23.667 10 33s14 17.833 22 25.5s15.333 15.167 22 22.5s10 15.666 10 24.999
c0 7.33301 -4.5 15.166 -13.5 23.499s-18.833 16.166 -29.5 23.499l-43 25c2.66699 36 13.834 68.333 33.501 97s45.167 53.167 76.5 73.5s67.166 36 107.499 47s82.5 16.5 126.5 16.5s86.167 -5 126.5 -15s75.833 -25.833 106.5 -47.5s55.167 -49.167 73.5 -82.5
s27.5 -73.333 27.5 -120v-286c0 -22.667 5.33301 -45.5 16 -68.5s25.5 -43.833 44.5 -62.5s41.667 -34 68 -46s55.166 -18 86.499 -18c20.667 0 40 2.66699 58 8s33.667 14.166 47 26.499s24 29 32 50s12 47.5 12 79.5v567h115v-577v0z" />
    <glyph glyph-name="uni0E0D" unicode="&#xe0d;" horiz-adv-x="1257" 
d="M1196 43c0 -44.667 -8.50781 -82.8252 -25.5078 -114.492s-39.667 -57.5 -68 -77.5s-60.666 -34.667 -96.999 -44s-73.833 -14 -112.5 -14h-291v105h291c26.667 0 51.334 3.33301 74.001 10s42.5 16.167 59.5 28.5s30.333 27.166 40 44.499s14.5 36.666 14.5 57.999v35
c-5.33301 -6 -14.166 -13.667 -26.499 -23s-28 -18.5 -47 -27.5s-41.167 -16.833 -66.5 -23.5s-53.666 -10 -84.999 -10s-62.166 3.66699 -92.499 11s-57.5 20 -81.5 38s-43.333 42.167 -58 72.5s-22 68.166 -22 113.499v332c0 30.667 -5.33301 57 -16 79s-25.667 40 -45 54
s-42.666 24.333 -69.999 31s-57.333 10 -90 10c-29.333 0 -56.833 -3.16699 -82.5 -9.5s-48.167 -14.833 -67.5 -25.5s-35 -22.667 -47 -36s-19.333 -27.333 -22 -42l20.5 -15.5c7.66699 -5.66699 15 -12 22 -19s12.833 -14.667 17.5 -23s7 -16.833 7 -25.5
c0 -12 -2.83301 -22.5 -8.5 -31.5s-11.667 -17.833 -18 -26.5s-12.333 -17.834 -18 -27.501s-8.5 -21.5 -8.5 -35.5v-312h127v-102h-242v422c0 12.667 3.33301 23.667 10 33s14 17.833 22 25.5s15.333 15.167 22 22.5s10 15.666 10 24.999
c0 7.33301 -4.5 15.166 -13.5 23.499s-18.833 16.166 -29.5 23.499l-43 25c2.66699 36 13.834 68.333 33.501 97s45.167 53.167 76.5 73.5s67.166 36 107.499 47s82.5 16.5 126.5 16.5s86.167 -5 126.5 -15s75.833 -25.833 106.5 -47.5s55.167 -49.167 73.5 -82.5
s27.5 -73.333 27.5 -120v-325c0 -30 4.16699 -54.833 12.5 -74.5s19.833 -35.334 34.5 -47.001s31.834 -19.667 51.501 -24s40.834 -6.5 63.501 -6.5c24.667 0 49.167 3.83301 73.5 11.5s46 19.167 65 34.5s34.333 34.5 46 57.5s17.5 49.833 17.5 80.5v543h115v-776v0z" />
    <glyph glyph-name="uni0E0E" unicode="&#xe0e;" horiz-adv-x="799" 
d="M502 -188l-137.006 -118.995h-248v104h200l185 152l121 -103v711c0 30.667 -5.33301 57 -16 79s-25.667 40 -45 54s-42.666 24.333 -69.999 31s-57.666 10 -90.999 10c-29.333 0 -56.666 -3.16699 -81.999 -9.5s-47.666 -14.833 -66.999 -25.5s-35 -22.667 -47 -36
s-19.667 -27.333 -23 -42c6 -4.66699 13 -9.83398 21 -15.501s15.5 -12 22.5 -19s12.833 -14.5 17.5 -22.5s7 -16.667 7 -26c0 -12 -2.83301 -22.5 -8.5 -31.5s-11.667 -17.833 -18 -26.5s-12.333 -17.834 -18 -27.501s-8.5 -21.5 -8.5 -35.5v-414h-187v104h72v318
c0 12.667 3.33301 23.667 10 33s13.834 17.833 21.501 25.5s14.834 15.167 21.501 22.5s10 15.666 10 24.999c0 7.33301 -4.5 15.166 -13.5 23.499s-18.833 16.166 -29.5 23.499l-43 25c2.66699 36 13.834 68.333 33.501 97s45.167 53.167 76.5 73.5s67.166 36 107.499 47
s82.5 16.5 126.5 16.5s86.167 -5 126.5 -15s75.833 -25.833 106.5 -47.5s55.167 -49.167 73.5 -82.5s27.5 -73.333 27.5 -120v-876h-114z" />
    <glyph glyph-name="uni0E0F" unicode="&#xe0f;" horiz-adv-x="799" 
d="M537 -207l-105.006 -118.995l-108 119l-93 -100h-186v104h135l146 148l104 -111l109 111l84 -90v702c0 30.667 -5.33301 57 -16 79s-25.667 40 -45 54s-42.666 24.333 -69.999 31s-57.666 10 -90.999 10c-29.333 0 -56.666 -3.16699 -81.999 -9.5
s-47.666 -14.833 -66.999 -25.5s-35 -22.667 -47 -36s-19.667 -27.333 -23 -42c6 -4.66699 13 -9.83398 21 -15.501s15.5 -12 22.5 -19s12.833 -14.5 17.5 -22.5s7 -16.667 7 -26c0 -12 -2.83301 -22.5 -8.5 -31.5s-11.667 -17.833 -18 -26.5s-12.333 -17.834 -18 -27.501
s-8.5 -21.5 -8.5 -35.5v-414h-187v104h72v318c0 12.667 3.33301 23.667 10 33s13.834 17.833 21.501 25.5s14.834 15.167 21.501 22.5s10 15.666 10 24.999c0 7.33301 -4.5 15.166 -13.5 23.499s-18.833 16.166 -29.5 23.499l-43 25c2.66699 36 13.834 68.333 33.501 97
s45.167 53.167 76.5 73.5s67.166 36 107.499 47s82.5 16.5 126.5 16.5s86.167 -5 126.5 -15s75.833 -25.833 106.5 -47.5s55.167 -49.167 73.5 -82.5s27.5 -73.333 27.5 -120v-876h-114z" />
    <glyph glyph-name="uni0E10" unicode="&#xe10;" horiz-adv-x="735" 
d="M690 463c0 -81.333 -11.3359 -152.163 -34.0029 -212.496s-54 -110 -94 -149s-87.5 -67.333 -142.5 -85s-114.833 -24.5 -179.5 -20.5l-117 453l-41 63h145l103 -408c35.333 4 68 15 98 33s55.833 42.333 77.5 73s38.667 67.167 51 109.5s18.5 90.166 18.5 143.499
c0 42.667 -5.83301 80.5 -17.5 113.5s-28.334 61 -50.001 84s-47.5 40.5 -77.5 52.5s-63.333 18 -100 18c-58.667 0 -108.5 -11.667 -149.5 -35s-67.833 -58 -80.5 -104h-112c2.66699 32.667 12.834 63.667 30.501 93s41.5 55 71.5 77s65.333 39.5 106 52.5
s85.334 19.5 134.001 19.5c55.333 0 105.666 -9 150.999 -27c14.667 7.33301 28.334 17.666 41.001 30.999s19 27.666 19 42.999h125c0 -15.333 -3 -29.666 -9 -42.999s-13.667 -25.333 -23 -36s-19.666 -19.834 -30.999 -27.501s-22.666 -13.834 -33.999 -18.501
c38 -32 67.667 -72.167 89 -120.5s32 -105.833 32 -172.5zM462.997 -222.997l-107 -99l-106 99l-92 -84h-154v104h119l129 111l104 -94l107 94l78 -76v127h114v-266h-114z" />
    <glyph glyph-name="uni0E11" unicode="&#xe11;" horiz-adv-x="819" 
d="M643 600c0 14 -1.16895 28.667 -3.50195 44s-6.33301 29.333 -12 42s-13.167 23 -22.5 31s-21.333 12 -36 12c-10 0 -20.833 -4.66699 -32.5 -14s-23.5 -22 -35.5 -38s-24.333 -34.333 -37 -55l-38 -65c-16.667 -30 -34 -63 -52 -99l-52.5 -110l-48 -110
c-15 -36 -28.167 -69.167 -39.5 -99.5s-20.333 -57 -27 -80s-10 -39.833 -10 -50.5v-8h-115v492c0 28.667 6.5 51.667 19.5 69s27.333 32.166 43 44.499s30 24.333 43 36s19.5 26.5 19.5 44.5c0 7.33301 -1 13.833 -3 19.5s-4.33301 10.5 -7 14.5l-9 13l-84 -67l-116 94
l75 65l60 -47l59 47c46.667 2.66699 80.834 -7.83301 102.501 -31.5s32.5 -56.167 32.5 -97.5c0 -21.333 -3 -39.666 -9 -54.999s-13.333 -28.833 -22 -40.5s-18.334 -22.167 -29.001 -31.5s-20.334 -18.666 -29.001 -27.999s-16 -19.166 -22 -29.499s-9 -22.5 -9 -36.5
v-174c5.33301 18 13.333 40 24 66s22.834 53.167 36.501 81.5l42.5 85c14.667 28.333 28.667 53.833 42 76.5c18 30.667 36 59.5 54 86.5s36.5 50.5 55.5 70.5s38.5 35.667 58.5 47s41 17 63 17c34.667 0 63.834 -5.83301 87.501 -17.5s42.834 -27.334 57.501 -47.001
s25 -42.334 31 -68.001s9 -52.5 9 -80.5v-618h-115v600z" />
    <glyph glyph-name="uni0E12" unicode="&#xe12;" horiz-adv-x="1319" 
d="M1257 242c0 -50 -7.00098 -91.5 -21.001 -124.5s-32.5 -59 -55.5 -78s-49.667 -32.333 -80 -40s-61.833 -11.5 -94.5 -11.5c-46.667 0 -90.167 9.33301 -130.5 28s-72.833 43.334 -97.5 74.001v-90h-114v586c0 38 -10.333 68.333 -31 91s-45.334 38.667 -74.001 48
l-139 -102l-139 102c-30 -9.33301 -55 -25.333 -75 -48s-30 -53 -30 -91v-295c0 -20.667 -0.666992 -40.167 -2 -58.5s-2.66602 -34.5 -3.99902 -48.5l-6 -45h4l15 33l16 30.5c6 11 12.667 21.167 20 30.5l184 244h-98v92h221v-92l-350 -477h-115v596
c0 31.333 6 60.666 18 87.999s28.833 51.5 50.5 72.5s47.334 38.167 77.001 51.5s62.5 22 98.5 26l115 -84l117 84c34.667 -4 66.834 -12.667 96.501 -26s55.167 -30.5 76.5 -51.5s38 -45.167 50 -72.5s18 -56.666 18 -87.999v-313c0 -22.667 5.33301 -45.5 16 -68.5
s25.5 -43.833 44.5 -62.5s41.667 -34 68 -46s55.166 -18 86.499 -18c20.667 0 40 2.66699 58 8s33.833 14.166 47.5 26.499s24.5 29 32.5 50s12 47.5 12 79.5v567h114v-577v0z" />
    <glyph glyph-name="uni0E13" unicode="&#xe13;" horiz-adv-x="1257" 
d="M1081 90c-24.667 -30.667 -57.1689 -55.3301 -97.502 -73.9971s-83.5 -28 -129.5 -28c-32.667 0 -64.167 3.83301 -94.5 11.5s-57.166 21 -80.499 40s-42 45 -56 78s-21 74.5 -21 124.5v315c0 30.667 -5.33301 57 -16 79s-25.667 40 -45 54s-42.666 24.333 -69.999 31
s-57.333 10 -90 10c-29.333 0 -56.833 -3.16699 -82.5 -9.5s-48.167 -14.833 -67.5 -25.5s-35 -22.667 -47 -36s-19.333 -27.333 -22 -42l20.5 -15.5c7.66699 -5.66699 15 -12 22 -19s12.833 -14.667 17.5 -23s7 -16.833 7 -25.5c0 -12 -2.83301 -22.5 -8.5 -31.5
s-11.667 -17.833 -18 -26.5s-12.333 -17.834 -18 -27.501s-8.5 -21.5 -8.5 -35.5v-312h127v-102h-242v422c0 12.667 3.33301 23.667 10 33s14 17.833 22 25.5s15.333 15.167 22 22.5s10 15.666 10 24.999c0 7.33301 -4.5 15.166 -13.5 23.499s-18.833 16.166 -29.5 23.499
l-43 25c2.66699 36 13.834 68.333 33.501 97s45.167 53.167 76.5 73.5s67.166 36 107.499 47s82.5 16.5 126.5 16.5s86.167 -5 126.5 -15s75.833 -25.833 106.5 -47.5s55.167 -49.167 73.5 -82.5s27.5 -73.333 27.5 -120v-317c0 -32 3.83301 -58.5 11.5 -79.5
s18.334 -37.667 32.001 -50s29.5 -21.166 47.5 -26.499s37.333 -8 58 -8c31.333 0 60.166 6 86.499 18s49 27.333 68 46s33.833 39.5 44.5 62.5s16 45.833 16 68.5v536h115v-819h-115v90z" />
    <glyph glyph-name="uni0E14" unicode="&#xe14;" horiz-adv-x="819" 
d="M643 557c0 31.333 -6.16992 58 -18.5029 80s-29 40 -50 54s-45.667 24.167 -74 30.5s-58.5 9.5 -90.5 9.5s-62.333 -3.16699 -91 -9.5s-53.5 -16.5 -74.5 -30.5s-37.667 -32 -50 -54s-18.5 -48.667 -18.5 -80v-266c0 -20.667 -0.666992 -40.167 -2 -58.5
s-2.66602 -34.5 -3.99902 -48.5l-6 -45h4c2 5.33301 4.16699 10.833 6.5 16.5s4.83301 11.167 7.5 16.5l15.5 30.5c5.66699 11 12.167 21.167 19.5 30.5l176 244h-98v92h221v-92l-340 -477h-115v569c0 46.667 10.167 86.667 30.5 120s47 60.833 80 82.5
s70.333 37.5 112 47.5s83.834 15 126.501 15s84.834 -5 126.501 -15s79 -25.833 112 -47.5s59.5 -49.167 79.5 -82.5s30 -73.333 30 -120v-569h-115v557z" />
    <glyph glyph-name="uni0E15" unicode="&#xe15;" horiz-adv-x="840" 
d="M664 586c0 38 -10.335 68.333 -31.002 91s-45.334 38.667 -74.001 48l-139 -102l-139 102c-30 -9.33301 -55 -25.333 -75 -48s-30 -53 -30 -91v-295c0 -20.667 -0.666992 -40.167 -2 -58.5s-2.66602 -34.5 -3.99902 -48.5l-6 -45h4l15 33l16 30.5
c6 11 12.667 21.167 20 30.5l184 244h-98v92h221v-92l-350 -477h-115v596c0 31.333 6 60.666 18 87.999s28.833 51.5 50.5 72.5s47.334 38.167 77.001 51.5s62.5 22 98.5 26l115 -84l117 84c34.667 -4 66.834 -12.667 96.501 -26s55.167 -30.5 76.5 -51.5
s38 -45.167 50 -72.5s18 -56.666 18 -87.999v-596h-114v586z" />
    <glyph glyph-name="uni0E16" unicode="&#xe16;" horiz-adv-x="778" 
d="M602 557c0 30.667 -5.33398 57.0039 -16.001 79.0039s-25.667 40 -45 54s-42.666 24.333 -69.999 31s-57.333 10 -90 10c-29.333 0 -56.833 -3.16699 -82.5 -9.5s-48.167 -14.833 -67.5 -25.5s-35 -22.667 -47 -36s-19.333 -27.333 -22 -42l20.5 -15.5
c7.66699 -5.66699 15 -12 22 -19s12.833 -14.667 17.5 -23s7 -16.833 7 -25.5c0 -12 -2.83301 -22.5 -8.5 -31.5s-11.667 -17.833 -18 -26.5s-12.333 -17.834 -18 -27.501s-8.5 -21.5 -8.5 -35.5v-312h127v-102h-242v422c0 12.667 3.33301 23.667 10 33s14 17.833 22 25.5
s15.333 15.167 22 22.5s10 15.666 10 24.999c0 7.33301 -4.5 15.166 -13.5 23.499s-18.833 16.166 -29.5 23.499l-43 25c2.66699 36 13.834 68.333 33.501 97s45.167 53.167 76.5 73.5s67.166 36 107.499 47s82.5 16.5 126.5 16.5s86.167 -5 126.5 -15
s75.833 -25.833 106.5 -47.5s55.167 -49.167 73.5 -82.5s27.5 -73.333 27.5 -120v-569h-115v557z" />
    <glyph glyph-name="uni0E17" unicode="&#xe17;" horiz-adv-x="799" 
d="M623 567c0 28.667 -4.33203 53.332 -12.999 73.999s-20.5 37.5 -35.5 50.5s-32.833 22.5 -53.5 28.5s-43.334 9 -68.001 9c-40.667 0 -78 -8.16699 -112 -24.5s-63.167 -36.833 -87.5 -61.5s-43.333 -51 -57 -79s-20.5 -53.667 -20.5 -77v-487h-115v819h115v-114
c16 16 34.167 31.667 54.5 47s42.5 28.833 66.5 40.5s49.833 21 77.5 28s57.167 10.5 88.5 10.5c38.667 0 74.667 -4.83301 108 -14.5s62.333 -24.667 87 -45s44 -46.666 58 -78.999s21 -71.5 21 -117.5v-575h-114v567z" />
    <glyph glyph-name="uni0E18" unicode="&#xe18;" horiz-adv-x="762" 
d="M721 279c0 -57.333 -8.83105 -104.168 -26.498 -140.501s-41 -64.833 -70 -85.5s-62.5 -34.667 -100.5 -42s-77.333 -11 -118 -11h-345v426h115v-324h213c28.667 0 56.167 2 82.5 6s49.5 12.333 69.5 25s35.833 30.334 47.5 53.001s17.5 52.667 17.5 90
c0 30.667 -5.5 56 -16.5 76s-25.5 36.333 -43.5 49s-39 22.167 -63 28.5s-49 11.166 -75 14.499c-27.333 3.33301 -55.5 6.33301 -84.5 9s-57.5 6 -85.5 10s-54.333 9.66699 -79 17s-46.167 17.5 -64.5 30.5s-32.333 29.333 -42 49s-13.5 44.167 -11.5 73.5
c2 32 12 60.5 30 85.5s41.5 46 70.5 63s62.667 30 101 39s79.166 13.5 122.499 13.5s84.666 -4 123.999 -12s74.333 -20.667 105 -38s56 -40 76 -68s32.333 -62 37 -102h-117c-4.66699 24 -14.667 43.5 -30 58.5s-33.833 26.833 -55.5 35.5s-44.667 14.667 -69 18
s-47.833 5 -70.5 5c-27.333 0 -53.5 -2.16699 -78.5 -6.5s-47.167 -10.833 -66.5 -19.5s-34.833 -19 -46.5 -31s-17.5 -25.667 -17.5 -41c0 -17.333 8 -31 24 -41s36.667 -17.667 62 -23s53.833 -9.33301 85.5 -12l94.5 -8c38 -3.33301 74.833 -10.166 110.5 -20.499
s67.5 -26 95.5 -47s50.5 -48 67.5 -81s25.5 -73.5 25.5 -121.5z" />
    <glyph glyph-name="uni0E19" unicode="&#xe19;" horiz-adv-x="799" 
d="M623 115c-16 -16.667 -34.1719 -32.667 -54.5049 -48s-42.5 -28.833 -66.5 -40.5s-49.833 -21 -77.5 -28s-57.167 -10.5 -88.5 -10.5c-39.333 0 -75.666 4.83301 -108.999 14.5s-62.333 24.667 -87 45s-44 46.666 -58 78.999s-21 71.5 -21 117.5v575h115v-567
c0 -29.333 4.33301 -54.166 13 -74.499s20.5 -37 35.5 -50s32.833 -22.5 53.5 -28.5s43.334 -9 68.001 -9c40.667 0 77.834 8.33301 111.501 25s62.834 37.167 87.501 61.5s43.834 50.5 57.501 78.5s20.5 53.667 20.5 77v487h114v-819h-114v115z" />
    <glyph glyph-name="uni0E1A" unicode="&#xe1a;" horiz-adv-x="799" 
d="M737 248c0 -47.333 -10.1748 -87.5 -30.5078 -120.5s-46.666 -60 -78.999 -81s-68.666 -36.333 -108.999 -46s-80.166 -14.5 -119.499 -14.5c-40 0 -80 4.83301 -120 14.5s-76.167 25 -108.5 46s-58.666 48 -78.999 81s-30.5 73.167 -30.5 120.5v571h115v-557
c0 -31.333 6.33301 -58 19 -80s29.334 -40 50.001 -54s44.334 -24.167 71.001 -30.5s54.334 -9.5 83.001 -9.5s56.5 3.16699 83.5 9.5s50.833 16.5 71.5 30.5s37.334 32 50.001 54s19 48.667 19 80v557h114v-571v0z" />
    <glyph glyph-name="uni0E1B" unicode="&#xe1b;" horiz-adv-x="799" 
d="M737 248c0 -47.333 -10.1748 -87.5 -30.5078 -120.5s-46.666 -60 -78.999 -81s-68.666 -36.333 -108.999 -46s-80.166 -14.5 -119.499 -14.5c-40 0 -80 4.83301 -120 14.5s-76.167 25 -108.5 46s-58.666 48 -78.999 81s-30.5 73.167 -30.5 120.5v571h115v-557
c0 -31.333 6.33301 -58 19 -80s29.334 -40 50.001 -54s44.334 -24.167 71.001 -30.5s54.334 -9.5 83.001 -9.5s56.5 3.16699 83.5 9.5s50.833 16.5 71.5 30.5s37.334 32 50.001 54s19 48.667 19 80v762h114v-776v0z" />
    <glyph glyph-name="uni0E1C" unicode="&#xe1c;" horiz-adv-x="942" 
d="M881 233c0 -44 -5.66602 -81.666 -16.999 -112.999s-26.833 -56.833 -46.5 -76.5s-42.5 -34.167 -68.5 -43.5s-53.667 -14 -83 -14c-44 0 -83.333 8.83301 -118 26.5s-60.334 43.5 -77.001 77.5c-19.333 -34 -46 -59.833 -80 -77.5s-73 -26.5 -117 -26.5
c-30 0 -58 4.66699 -84 14s-48.5 23.833 -67.5 43.5s-34 45.167 -45 76.5s-16.5 69 -16.5 113v447c0 46 13.167 80.667 39.5 104s62.5 35 108.5 35h63v-102h-34c-21.333 0 -37 -5.33301 -47 -16s-15 -25.334 -15 -44.001v-407c0 -54 9.83301 -94.5 29.5 -121.5
s47.5 -40.5 83.5 -40.5c16 0 31.667 3.33301 47 10s28.666 17.167 39.999 31.5s20.5 32.5 27.5 54.5s10.5 48.667 10.5 80v555h114v-555c0 -31.333 3.33301 -58 10 -80s15.834 -40.167 27.501 -54.5s25 -24.833 40 -31.5s30.833 -10 47.5 -10c36 0 63.833 13.5 83.5 40.5
s29.5 67.5 29.5 121.5v569h115v-586v0z" />
    <glyph glyph-name="uni0E1D" unicode="&#xe1d;" horiz-adv-x="942" 
d="M881 233c0 -44 -5.66602 -81.666 -16.999 -112.999s-26.833 -56.833 -46.5 -76.5s-42.5 -34.167 -68.5 -43.5s-53.667 -14 -83 -14c-44 0 -83.333 8.83301 -118 26.5s-60.334 43.5 -77.001 77.5c-19.333 -34 -46 -59.833 -80 -77.5s-73 -26.5 -117 -26.5
c-30 0 -58 4.66699 -84 14s-48.5 23.833 -67.5 43.5s-34 45.167 -45 76.5s-16.5 69 -16.5 113v447c0 46 13.167 80.667 39.5 104s62.5 35 108.5 35h63v-102h-34c-21.333 0 -37 -5.33301 -47 -16s-15 -25.334 -15 -44.001v-407c0 -54 9.83301 -94.5 29.5 -121.5
s47.5 -40.5 83.5 -40.5c16 0 31.667 3.33301 47 10s28.666 17.167 39.999 31.5s20.5 32.5 27.5 54.5s10.5 48.667 10.5 80v555h114v-555c0 -31.333 3.33301 -58 10 -80s15.834 -40.167 27.501 -54.5s25 -24.833 40 -31.5s30.833 -10 47.5 -10c36 0 63.833 13.5 83.5 40.5
s29.5 67.5 29.5 121.5v774h115v-791v0z" />
    <glyph glyph-name="uni0E1E" unicode="&#xe1e;" horiz-adv-x="942" 
d="M881 233c0 -44 -5.66602 -81.667 -16.999 -113s-26.833 -56.833 -46.5 -76.5s-42.5 -34.167 -68.5 -43.5s-53.667 -14 -83 -14c-44 0 -83.333 8.83301 -118 26.5s-60.334 43.5 -77.001 77.5c-19.333 -34 -46 -59.833 -80 -77.5s-73 -26.5 -117 -26.5
c-30 0 -58 4.66699 -84 14s-48.5 23.833 -67.5 43.5s-34 45.167 -45 76.5s-16.5 69 -16.5 113v586h115v-569c0 -54 9.83301 -94.5 29.5 -121.5s47.5 -40.5 83.5 -40.5c16 0 31.667 3.33301 47 10s28.666 17.167 39.999 31.5s20.5 32.5 27.5 54.5s10.5 48.667 10.5 80v555
h114v-555c0 -31.333 3.33301 -58 10 -80s15.834 -40.167 27.501 -54.5s25 -24.833 40 -31.5s30.833 -10 47.5 -10c36 0 63.833 13.5 83.5 40.5s29.5 67.5 29.5 121.5v569h115v-586v0z" />
    <glyph glyph-name="uni0E1F" unicode="&#xe1f;" horiz-adv-x="942" 
d="M881 233c0 -44 -5.66602 -81.667 -16.999 -113s-26.833 -56.833 -46.5 -76.5s-42.5 -34.167 -68.5 -43.5s-53.667 -14 -83 -14c-44 0 -83.333 8.83301 -118 26.5s-60.334 43.5 -77.001 77.5c-19.333 -34 -46 -59.833 -80 -77.5s-73 -26.5 -117 -26.5
c-30 0 -58 4.66699 -84 14s-48.5 23.833 -67.5 43.5s-34 45.167 -45 76.5s-16.5 69 -16.5 113v586h115v-569c0 -54 9.83301 -94.5 29.5 -121.5s47.5 -40.5 83.5 -40.5c16 0 31.667 3.33301 47 10s28.666 17.167 39.999 31.5s20.5 32.5 27.5 54.5s10.5 48.667 10.5 80v555
h114v-555c0 -31.333 3.33301 -58 10 -80s15.834 -40.167 27.501 -54.5s25 -24.833 40 -31.5s30.833 -10 47.5 -10c36 0 63.833 13.5 83.5 40.5s29.5 67.5 29.5 121.5v774h115v-791v0z" />
    <glyph glyph-name="uni0E20" unicode="&#xe20;" horiz-adv-x="799" 
d="M623 557c0 30.667 -5.33887 57.0049 -16.0059 79.0049s-25.667 40 -45 54s-42.666 24.333 -69.999 31s-57.666 10 -90.999 10c-29.333 0 -56.666 -3.16699 -81.999 -9.5s-47.666 -14.833 -66.999 -25.5s-35 -22.667 -47 -36s-19.667 -27.333 -23 -42
c6 -4.66699 13 -9.83398 21 -15.501s15.5 -12 22.5 -19s12.833 -14.5 17.5 -22.5s7 -16.667 7 -26c0 -12 -2.83301 -22.5 -8.5 -31.5s-11.667 -17.833 -18 -26.5s-12.333 -17.834 -18 -27.501s-8.5 -21.5 -8.5 -35.5v-414h-187v104h72v318c0 12.667 3.33301 23.667 10 33
s13.834 17.833 21.501 25.5s14.834 15.167 21.501 22.5s10 15.666 10 24.999c0 7.33301 -4.5 15.166 -13.5 23.499s-18.833 16.166 -29.5 23.499l-43 25c2.66699 36 13.834 68.333 33.501 97s45.167 53.167 76.5 73.5s67.166 36 107.499 47s82.5 16.5 126.5 16.5
s86.167 -5 126.5 -15s75.833 -25.833 106.5 -47.5s55.167 -49.167 73.5 -82.5s27.5 -73.333 27.5 -120v-569h-114v557z" />
    <glyph glyph-name="uni0E21" unicode="&#xe21;" horiz-adv-x="799" 
d="M737 244c0 -46 -7.00098 -85.167 -21.001 -117.5s-33.333 -58.666 -58 -78.999s-53.667 -35.333 -87 -45s-69.333 -14.5 -108 -14.5c-31.333 0 -61 3.5 -89 10.5s-54.333 16.333 -79 28s-47 25.167 -67 40.5s-37.333 31.333 -52 48v-115h-115v819h115v-487
c0 -23.333 6.83301 -49 20.5 -77s32.667 -54.167 57 -78.5s53.5 -44.833 87.5 -61.5s71.333 -25 112 -25c24.667 0 47.334 3 68.001 9s38.5 15.5 53.5 28.5s26.833 29.667 35.5 50s13 45.166 13 74.499v567h114v-575v0z" />
    <glyph glyph-name="uni0E22" unicode="&#xe22;" horiz-adv-x="809" 
d="M383 -6c-56 -1.33301 -105.499 2.50195 -148.499 11.502s-79.333 23.667 -109 44s-52.167 47 -67.5 80s-23 73.167 -23 120.5c0 32 5.5 60.333 16.5 85s24.5 45.667 40.5 63s32.667 31 50 41s32.666 16 45.999 18c-12 1.33301 -25.833 5.66602 -41.5 12.999
s-30.167 17.833 -43.5 31.5s-24.666 30.667 -33.999 51s-14 44.5 -14 72.5c0 44 13 82 39 114s61 55.333 105 70c12.667 4 27.167 7.33301 43.5 10s33.5 4.5 51.5 5.5s36 1 54 0s35 -2.83301 51 -5.5v-104c-30 4.66699 -58.833 6.66699 -86.5 6s-52 -4.66699 -73 -12
s-37.833 -18 -50.5 -32s-19 -32 -19 -54c0 -21.333 5 -38.833 15 -52.5s23.5 -24.334 40.5 -32.001s36.167 -13 57.5 -16s43.666 -4.5 66.999 -4.5h94v-102h-71c-75.333 0 -131 -15 -167 -45s-54 -69 -54 -117c0 -32 6.5 -58.5 19.5 -79.5s31 -37.5 54 -49.5
s50 -20.167 81 -24.5s64.167 -5.83301 99.5 -4.5l227 6v717h115v-819l-365 -6v0z" />
    <glyph glyph-name="uni0E23" unicode="&#xe23;" horiz-adv-x="731" 
d="M700 258c0 -54 -9.83887 -98.668 -29.5059 -134.001s-45.5 -63.166 -77.5 -83.499s-68.5 -34.5 -109.5 -42.5s-82.833 -12 -125.5 -12s-84 4.33301 -124 13s-75.667 24.334 -107 47.001s-56.666 53.834 -75.999 93.501s-29.666 90.167 -30.999 151.5h117
c0 -41.333 6.5 -75.166 19.5 -101.499s30 -47 51 -62s44.667 -25.333 71 -31s52.833 -8.5 79.5 -8.5c30 0 58.833 2.5 86.5 7.5s52 13.667 73 26s37.667 29.333 50 51s18.5 49.5 18.5 83.5c0 27.333 -5.33301 49.833 -16 67.5s-25.167 32 -43.5 43s-39.5 19.333 -63.5 25
s-49.333 10.5 -76 14.5c-41.333 6.66699 -82.666 12.667 -123.999 18s-78.5 14.166 -111.5 26.499s-59.667 30.666 -80 54.999s-30.5 59.166 -30.5 104.499c0 34 8.66699 64.667 26 92s40.333 50.833 69 70.5s61.834 34.834 99.501 45.501s77.167 16 118.5 16
c40 0 79.667 -4.66699 119 -14s74.666 -23.833 105.999 -43.5s57 -44.667 77 -75s30.667 -66.833 32 -109.5h-115c-2.66699 24.667 -11.167 45.667 -25.5 63s-32 31.666 -53 42.999s-44.167 19.666 -69.5 24.999s-50.333 8 -75 8c-23.333 0 -46.666 -2.5 -69.999 -7.5
s-44.166 -12.333 -62.499 -22s-33.166 -21.667 -44.499 -36s-17 -30.833 -17 -49.5c0 -20 7 -36.167 21 -48.5s32.5 -22.166 55.5 -29.499s49.167 -13 78.5 -17s59.333 -7.66699 90 -11c37.333 -4.66699 74 -11.167 110 -19.5s68 -21.5 96 -39.5s50.5 -42.333 67.5 -73
s25.5 -70.667 25.5 -120z" />
    <glyph glyph-name="uni0E24" unicode="&#xe24;" horiz-adv-x="778" 
d="M602 557c0 30.667 -5.33398 57.0039 -16.001 79.0039s-25.667 40 -45 54s-42.666 24.333 -69.999 31s-57.333 10 -90 10c-29.333 0 -56.833 -3.16699 -82.5 -9.5s-48.167 -14.833 -67.5 -25.5s-35 -22.667 -47 -36s-19.333 -27.333 -22 -42l20.5 -15.5
c7.66699 -5.66699 15 -12 22 -19s12.833 -14.667 17.5 -23s7 -16.833 7 -25.5c0 -12 -2.83301 -22.5 -8.5 -31.5s-11.667 -17.833 -18 -26.5s-12.333 -17.834 -18 -27.501s-8.5 -21.5 -8.5 -35.5v-312h127v-102h-242v422c0 12.667 3.33301 23.667 10 33s14 17.833 22 25.5
s15.333 15.167 22 22.5s10 15.666 10 24.999c0 7.33301 -4.5 15.166 -13.5 23.499s-18.833 16.166 -29.5 23.499l-43 25c2.66699 36 13.834 68.333 33.501 97s45.167 53.167 76.5 73.5s67.166 36 107.499 47s82.5 16.5 126.5 16.5s86.167 -5 126.5 -15
s75.833 -25.833 106.5 -47.5s55.167 -49.167 73.5 -82.5s27.5 -73.333 27.5 -120v-815h-115v811v-8v0z" />
    <glyph glyph-name="uni0E25" unicode="&#xe25;" horiz-adv-x="795" 
d="M618 451c-18 -10.667 -38.167 -19.3271 -60.5 -25.9941s-45.833 -12 -70.5 -16s-50.167 -7.33301 -76.5 -10l-78.5 -8c-26 -2.66699 -50.5 -7.33398 -73.5 -14.001s-42.833 -16.167 -59.5 -28.5s-29.834 -28 -39.501 -47s-14.5 -41.833 -14.5 -68.5
c0 -40.667 10 -71.334 30 -92.001s44.833 -34.334 74.5 -41.001s61.667 -8.33398 96 -5.00098s65.833 8.66602 94.5 15.999v-109c-32.667 -4.66699 -65.5 -8 -98.5 -10s-64.667 -1.33301 -95 2s-58.5 9.83301 -84.5 19.5s-48.833 23.834 -68.5 42.501s-35 42.5 -46 71.5
s-16.5 64.167 -16.5 105.5c0 76 22.333 134.333 67 175s107 67 187 79c19.333 2.66699 40.833 4.83398 64.5 6.50098s47.667 3.66699 72 6s47.833 5.66602 70.5 9.99902s43 10.5 61 18.5s32.333 18.333 43 31s16 29 16 49s-5.5 37.667 -16.5 53s-26 28.166 -45 38.499
s-41.333 18.166 -67 23.499s-53.167 8 -82.5 8c-27.333 0 -54 -3 -80 -9s-49.5 -14.833 -70.5 -26.5s-38.5 -26.167 -52.5 -43.5s-22.667 -37.333 -26 -60h-117c6.66699 44 21.167 81.333 43.5 112s49.5 55.667 81.5 75s67.333 33.333 106 42s77.667 13 117 13
c38.667 0 77.667 -3.83301 117 -11.5s74.833 -21 106.5 -40s57.334 -44.167 77.001 -75.5s29.5 -70.333 29.5 -117v-590h-115v451z" />
    <glyph glyph-name="uni0E26" unicode="&#xe26;" horiz-adv-x="799" 
d="M623 557c0 30.667 -5.33887 57.0049 -16.0059 79.0049s-25.667 40 -45 54s-42.666 24.333 -69.999 31s-57.666 10 -90.999 10c-29.333 0 -56.666 -3.16699 -81.999 -9.5s-47.666 -14.833 -66.999 -25.5s-35 -22.667 -47 -36s-19.667 -27.333 -23 -42
c6 -4.66699 13 -9.83398 21 -15.501s15.5 -12 22.5 -19s12.833 -14.5 17.5 -22.5s7 -16.667 7 -26c0 -12 -2.83301 -22.5 -8.5 -31.5s-11.667 -17.833 -18 -26.5s-12.333 -17.834 -18 -27.501s-8.5 -21.5 -8.5 -35.5v-414h-187v104h72v318c0 12.667 3.33301 23.667 10 33
s13.834 17.833 21.501 25.5s14.834 15.167 21.501 22.5s10 15.666 10 24.999c0 7.33301 -4.5 15.166 -13.5 23.499s-18.833 16.166 -29.5 23.499l-43 25c2.66699 36 13.834 68.333 33.501 97s45.167 53.167 76.5 73.5s67.166 36 107.499 47s82.5 16.5 126.5 16.5
s86.167 -5 126.5 -15s75.833 -25.833 106.5 -47.5s55.167 -49.167 73.5 -82.5s27.5 -73.333 27.5 -120v-815h-114v803z" />
    <glyph glyph-name="uni0E27" unicode="&#xe27;" horiz-adv-x="760" 
d="M729 410c0 -78 -9.5 -144.005 -28.5 -198.005s-44.667 -97.667 -77 -131s-70 -57.5 -113 -72.5s-88.833 -22.5 -137.5 -22.5s-92.5 6.83301 -131.5 20.5s-72.833 32.667 -101.5 57s-52.167 53.5 -70.5 87.5s-31.166 71.667 -38.499 113h121
c6.66699 -30 17.167 -56.167 31.5 -78.5s31.333 -40.666 51 -54.999s41.334 -25 65.001 -32s48.167 -10.5 73.5 -10.5c36 0 68.667 5.83301 98 17.5s54.666 30.334 75.999 56.001s37.833 58.834 49.5 99.501s17.5 90.334 17.5 149.001c0 58 -5.83301 107.5 -17.5 148.5
s-28.167 74.167 -49.5 99.5s-46.666 43.833 -75.999 55.5s-62 17.5 -98 17.5c-25.333 0 -49.833 -3.5 -73.5 -10.5s-45.334 -17.667 -65.001 -32s-36.667 -32.666 -51 -54.999s-24.833 -48.5 -31.5 -78.5h-121c7.33301 40.667 20.166 78.167 38.499 112.5
s41.833 63.833 70.5 88.5s62.5 43.834 101.5 57.501s82.833 20.5 131.5 20.5s94.5 -7.5 137.5 -22.5s80.667 -39.333 113 -73s58 -77.334 77 -131.001s28.5 -119.5 28.5 -197.5z" />
    <glyph glyph-name="uni0E28" unicode="&#xe28;" horiz-adv-x="799" 
d="M623 557c0 30.667 -6.16699 57 -18.5 79s-28.666 40 -48.999 54s-44 24.333 -71 31s-55.5 10 -85.5 10c-29.333 0 -57.5 -3.33301 -84.5 -10s-50.833 -17 -71.5 -31s-37 -32 -49 -54s-18 -48.333 -18 -79v-84h250v-102h-250v-371h-115v569
c0 46.667 10.167 86.834 30.5 120.501s46.666 61.167 78.999 82.5s68.5 37 108.5 47s80 15 120 15c22.667 0 45.5 -1.66699 68.5 -5s44.5 -8 64.5 -14c14.667 6 26.667 14.333 36 25s14 24.334 14 41.001h125c0 -14.667 -2.16699 -27.667 -6.5 -39s-10 -21.5 -17 -30.5
s-15 -17 -24 -24s-17.833 -13.5 -26.5 -19.5c30.667 -20.667 55.667 -47.334 75 -80.001s29 -72.334 29 -119.001v-569h-114v557z" />
    <glyph glyph-name="uni0E29" unicode="&#xe29;" horiz-adv-x="809" 
d="M737 248c0 -47.333 -10.1748 -87.5 -30.5078 -120.5s-46.666 -60 -78.999 -81s-68.666 -36.333 -108.999 -46s-80.166 -14.5 -119.499 -14.5c-40 0 -80 4.83301 -120 14.5s-76.167 25 -108.5 46s-58.666 48 -78.999 81s-30.5 73.167 -30.5 120.5v571h115v-557
c0 -31.333 6.33301 -58 19 -80s29.334 -40 50.001 -54s44.334 -24.167 71.001 -30.5s54.334 -9.5 83.001 -9.5s56.5 3.16699 83.5 9.5s50.833 16.5 71.5 30.5s37.334 32 50.001 54s19 48.667 19 80v160h-254v158h114v-56h140v295h114v-295h62v-102h-62v-174z" />
    <glyph glyph-name="uni0E2A" unicode="&#xe2a;" horiz-adv-x="795" 
d="M618 451c-18 -10.667 -38.165 -19.3311 -60.498 -25.998s-45.833 -12 -70.5 -16s-50.167 -7.33301 -76.5 -10l-78.5 -8c-26 -2.66699 -50.5 -7.33398 -73.5 -14.001s-42.833 -16.167 -59.5 -28.5s-29.834 -28 -39.501 -47s-14.5 -41.833 -14.5 -68.5
c0 -27.333 4.66699 -49.833 14 -67.5s21.666 -31.834 36.999 -42.501s33 -18.167 53 -22.5s41 -6.5 63 -6.5s44 1.66699 66 5s42.667 7.33301 62 12v-109c-32.667 -4.66699 -65.5 -8 -98.5 -10s-64.667 -1.33301 -95 2s-58.5 9.83301 -84.5 19.5
s-48.833 23.834 -68.5 42.501s-35 42.5 -46 71.5s-16.5 64.167 -16.5 105.5c0 76 22.333 134.333 67 175s107 67 187 79c19.333 2.66699 40.833 4.83398 64.5 6.50098s47.667 3.66699 72 6s47.833 5.66602 70.5 9.99902s43 10.5 61 18.5s32.333 18.333 43 31s16 29 16 49
s-5.5 37.667 -16.5 53s-26 28.166 -45 38.499s-41.333 18.166 -67 23.499s-53.167 8 -82.5 8c-27.333 0 -54 -3 -80 -9s-49.5 -14.833 -70.5 -26.5s-38.5 -26.167 -52.5 -43.5s-22.667 -37.333 -26 -60h-117c6.66699 44 21.167 81.333 43.5 112s49.5 55.667 81.5 75
s67.333 33.333 106 42s77.667 13 117 13c23.333 0 46.5 -1.33301 69.5 -4s45.833 -7 68.5 -13c13.333 6 24.166 14.333 32.499 25s12.5 23.667 12.5 39h125c0 -27.333 -7.16699 -49.166 -21.5 -65.499s-29.833 -30.833 -46.5 -43.5
c26.667 -18.667 48.334 -42.667 65.001 -72s25 -66 25 -110v-590h-115v451z" />
    <glyph glyph-name="uni0E2B" unicode="&#xe2b;" horiz-adv-x="799" 
d="M307 819h389v-102h-389v102zM623 422c0 30 -4.33398 55.3301 -13.001 75.9971s-20.5 37.334 -35.5 50.001s-32.833 21.834 -53.5 27.501s-43.334 8.5 -68.001 8.5c-37.333 0 -72.666 -7.83301 -105.999 -23.5s-62.666 -35.334 -87.999 -59.001s-45.5 -49.667 -60.5 -78
s-22.5 -54.833 -22.5 -79.5v-344h-115v819h115v-262c16 17.333 34.167 33.833 54.5 49.5s42.5 29.334 66.5 41.001s49.833 21 77.5 28s57.167 10.5 88.5 10.5c38.667 0 74.667 -4.83301 108 -14.5s62.333 -24.667 87 -45s44 -46.666 58 -78.999s21 -70.833 21 -115.5v-432
h-114v422z" />
    <glyph glyph-name="uni0E2C" unicode="&#xe2c;" horiz-adv-x="942" 
d="M893 1004c1.33301 -50.667 -8.33301 -91.832 -29 -123.499s-50 -54.167 -88 -67.5c36 -11.333 62.5 -30.5 79.5 -57.5s25.5 -64.5 25.5 -112.5v-410c0 -44 -5.66699 -81.667 -17 -113s-26.833 -56.833 -46.5 -76.5s-42.5 -34.167 -68.5 -43.5s-53.667 -14 -83 -14
c-44 0 -83.333 8.83301 -118 26.5s-60.334 43.5 -77.001 77.5c-19.333 -34 -46 -59.833 -80 -77.5s-73 -26.5 -117 -26.5c-30 0 -58 4.66699 -84 14s-48.5 23.833 -67.5 43.5s-34 45.167 -45 76.5s-16.5 69 -16.5 113v586h115v-569c0 -54 9.83301 -94.5 29.5 -121.5
s47.5 -40.5 83.5 -40.5c16 0 31.667 3.33301 47 10s28.666 17.167 39.999 31.5s20.5 32.5 27.5 54.5s10.5 48.667 10.5 80v422h114v-422c0 -31.333 3.33301 -58 10 -80s15.834 -40.167 27.501 -54.5s25 -24.833 40 -31.5s30.833 -10 47.5 -10c36 0 63.833 13.5 83.5 40.5
s29.5 67.5 29.5 121.5v399c0 36 -9 64.833 -27 86.5s-48 32.5 -90 32.5h-235v102h239c16.667 0 32.834 2 48.501 6s29.5 11.167 41.5 21.5s21.333 24.166 28 41.499s9.66699 39 9 65h113v0z" />
    <glyph glyph-name="uni0E2D" unicode="&#xe2d;" horiz-adv-x="844" 
d="M813 410c0 -74 -10.166 -137.832 -30.499 -191.499s-48.166 -97.667 -83.499 -132s-76.833 -59.666 -124.5 -75.999s-98.5 -24.5 -152.5 -24.5s-104.667 8.16699 -152 24.5s-88.666 41.666 -123.999 75.999s-63.333 78.333 -84 132s-31 117.5 -31 191.5
c0 18 0.666992 36.333 2 55s4.66602 42 9.99902 70h268v-105h-166v-20c0 -55.333 6.83301 -103.333 20.5 -144s32.667 -74.167 57 -100.5s53.5 -45.833 87.5 -58.5s71.333 -19 112 -19s77.834 6.33301 111.501 19s62.667 32.167 87 58.5s43.333 59.833 57 100.5
s20.5 88.667 20.5 144s-6.83301 103.166 -20.5 143.499s-32.667 73.666 -57 99.999s-53.333 45.833 -87 58.5s-70.834 19 -111.501 19s-74.834 -5 -102.501 -15s-50.5 -22.167 -68.5 -36.5s-32.167 -29.5 -42.5 -45.5s-18.5 -30 -24.5 -42h-127c10 30 24.5 59.5 43.5 88.5
s43.333 54.833 73 77.5s65 41 106 55s88.5 21 142.5 21s104.833 -8.16699 152.5 -24.5s89.167 -41.666 124.5 -75.999s63.166 -78.333 83.499 -132s30.5 -117.5 30.5 -191.5z" />
    <glyph glyph-name="uni0E2E" unicode="&#xe2e;" horiz-adv-x="844" 
d="M813 410c0 -74 -10.166 -137.831 -30.499 -191.498s-48.166 -97.667 -83.499 -132s-76.833 -59.666 -124.5 -75.999s-98.5 -24.5 -152.5 -24.5s-104.667 8.16699 -152 24.5s-88.666 41.666 -123.999 75.999s-63.333 78.333 -84 132s-31 117.5 -31 191.5
c0 18 0.666992 36.333 2 55s4.66602 42 9.99902 70h268v-105h-166v-20c0 -55.333 6.83301 -103.333 20.5 -144s32.667 -74.167 57 -100.5s53.5 -45.833 87.5 -58.5s71.333 -19 112 -19s77.834 6.33301 111.501 19s62.667 32.167 87 58.5s43.333 59.833 57 100.5
s20.5 88.667 20.5 144s-6.83301 103.166 -20.5 143.499s-32.667 73.666 -57 99.999s-53.333 45.833 -87 58.5s-70.834 19 -111.501 19s-74.834 -5 -102.501 -15s-50.5 -22.167 -68.5 -36.5s-32.167 -29.5 -42.5 -45.5s-18.5 -30 -24.5 -42h-127c10 30 24.5 59.5 43.5 88.5
s43.333 54.833 73 77.5s65 41 106 55s88.5 21 142.5 21c49.333 0 95.666 -7 138.999 -21c10.667 6 21.167 15 31.5 27s15.5 25.667 15.5 41h125c0 -13.333 -2.33301 -25.833 -7 -37.5s-10.667 -22.334 -18 -32.001s-15.5 -18.167 -24.5 -25.5s-17.833 -13.333 -26.5 -18
c48 -33.333 86 -79.166 114 -137.499s42 -131.833 42 -220.5z" />
    <glyph glyph-name="uni0E2F" unicode="&#xe2f;" horiz-adv-x="723" 
d="M549 598c-12 -14.667 -27.4961 -29.998 -46.4961 -45.998s-40.833 -30.5 -65.5 -43.5s-51.834 -23.833 -81.501 -32.5s-60.834 -13 -93.501 -13c-27.333 0 -54.833 3.83301 -82.5 11.5s-52.5 19.5 -74.5 35.5s-39.833 36 -53.5 60s-20.5 52.333 -20.5 85
c0 40 11.833 72.667 35.5 98s53 44.166 88 56.499s72 18.333 111 18s74.167 -6.5 105.5 -18.5v-113c-22.667 14 -47.167 23.333 -73.5 28s-51 5.16699 -74 1.5s-42.167 -11.667 -57.5 -24s-23 -28.5 -23 -48.5c0 -14 3.5 -26.5 10.5 -37.5s16.167 -20.333 27.5 -28
s24.166 -13.334 38.499 -17.001s29.166 -5.5 44.499 -5.5c40 0 76 6.66699 108 20s59.833 31.5 83.5 54.5s43.167 50.333 58.5 82s26.333 65.5 33 101.5h115v-823h-113v598z" />
    <glyph glyph-name="uni0E30" unicode="&#xe30;" horiz-adv-x="307" 
d="M276 645c0 -16.667 -3.16699 -32.5 -9.5 -47.5s-15 -28 -26 -39s-24 -19.833 -39 -26.5s-30.833 -10 -47.5 -10c-17.333 0 -33.333 3.33301 -48 10s-27.667 15.5 -39 26.5s-20.166 24 -26.499 39s-9.5 30.833 -9.5 47.5s3.16699 32.5 9.5 47.5s15.166 28.167 26.499 39.5
s24.333 20.166 39 26.499s30.667 9.5 48 9.5c16.667 0 32.5 -3.16699 47.5 -9.5s28 -15.166 39 -26.499s19.667 -24.5 26 -39.5s9.5 -30.833 9.5 -47.5zM276 174c0 -17.333 -3.16699 -33.333 -9.5 -48s-15 -27.667 -26 -39s-24 -20.166 -39 -26.499s-30.833 -9.5 -47.5 -9.5
c-17.333 0 -33.333 3.16699 -48 9.5s-27.667 15.166 -39 26.499s-20.166 24.333 -26.499 39s-9.5 30.667 -9.5 48c0 16.667 3.16699 32.5 9.5 47.5s15.166 28.167 26.499 39.5s24.333 20.166 39 26.499s30.667 9.5 48 9.5c16.667 0 32.5 -3.16699 47.5 -9.5
s28 -15.166 39 -26.499s19.667 -24.5 26 -39.5s9.5 -30.833 9.5 -47.5zM201 645c0 13.333 -4.5 24.5 -13.5 33.5s-20.167 13.5 -33.5 13.5s-24.666 -4.5 -33.999 -13.5s-14 -20.167 -14 -33.5s4.66699 -24.5 14 -33.5s20.666 -13.5 33.999 -13.5s24.5 4.5 33.5 13.5
s13.5 20.167 13.5 33.5zM201 174c0 12.667 -4.83301 23.667 -14.5 33s-20.5 14 -32.5 14c-12.667 0 -23.834 -4.66699 -33.501 -14s-14.5 -20.333 -14.5 -33c0 -12 4.83301 -22.833 14.5 -32.5s20.834 -14.5 33.501 -14.5c12 0 22.833 4.83301 32.5 14.5
s14.5 20.5 14.5 32.5z" />
    <glyph glyph-name="uni0E31" unicode="&#xe31;" 
d="M-393 1081h114v-69h449v-90h-563v159z" />
    <glyph glyph-name="uni0E32" unicode="&#xe32;" horiz-adv-x="420" 
d="M244 614c0 24 -6.16895 43.6641 -18.502 58.9971s-29.166 26.833 -50.499 34.5s-46.166 11.834 -74.499 12.501s-58.5 -1.66602 -90.5 -6.99902v104c42.667 6.66699 84.667 8.83398 126 6.50098s78.5 -10.333 111.5 -24s59.667 -33.667 80 -60s30.5 -60.5 30.5 -102.5
v-637h-114v614z" />
    <glyph glyph-name="uni0E33" unicode="&#xe33;" horiz-adv-x="420" 
d="M-4 1020c0 -32 -10.999 -57.832 -32.999 -77.499s-50 -29.5 -84 -29.5s-62 9.83301 -84 29.5s-33 45.5 -33 77.5c0 15.333 3 29.5 9 42.5s14.167 24.167 24.5 33.5s22.666 16.666 36.999 21.999s29.833 8 46.5 8c34 0 62 -10 84 -30s33 -45.333 33 -76zM244.001 614.001
c0 24 -6.16895 43.6641 -18.502 58.9971s-29.166 26.833 -50.499 34.5s-46.166 11.834 -74.499 12.501s-58.5 -1.66602 -90.5 -6.99902v104c42.667 6.66699 84.667 8.83398 126 6.50098s78.5 -10.333 111.5 -24s59.667 -33.667 80 -60s30.5 -60.5 30.5 -102.5v-637h-114v614
zM-72.001 1020c0 12 -4.83301 22.5 -14.5 31.5s-21.167 13.5 -34.5 13.5s-24.833 -4.5 -34.5 -13.5s-14.5 -19.5 -14.5 -31.5c0 -12.667 4.83301 -23.334 14.5 -32.001s21.167 -13 34.5 -13s24.833 4.33301 34.5 13s14.5 19.334 14.5 32.001z" />
    <glyph glyph-name="uni0E34" unicode="&#xe34;" 
d="M-666 1012h605v-90h-605v90z" />
    <glyph glyph-name="uni0E35" unicode="&#xe35;" 
d="M-666 1012h490v104h115v-194h-605v90z" />
    <glyph glyph-name="uni0E36" unicode="&#xe36;" 
d="M-2 1024c0 -28 -10.667 -51.998 -32 -71.998s-49 -30 -83 -30h-549v90h430v12c0 14 3 27.167 9 39.5s14.167 23.166 24.5 32.499s22.833 16.666 37.5 21.999s30.667 8 48 8c34 0 61.667 -10 83 -30s32 -44 32 -72zM-70 1024c0 12.667 -4.66699 23 -14 31
s-21.666 12 -36.999 12c-13.333 0 -24.5 -4 -33.5 -12s-13.5 -18.333 -13.5 -31c0 -13.333 4.5 -24.166 13.5 -32.499s20.167 -12.5 33.5 -12.5c15.333 0 27.666 4.16699 36.999 12.5s14 19.166 14 32.499z" />
    <glyph glyph-name="uni0E37" unicode="&#xe37;" 
d="M-666 1012h314v104h114v-104h62v104h115v-194h-605v90z" />
    <glyph glyph-name="uni0E38" unicode="&#xe38;" 
d="M-176 -172h-62v90h177v-246h-115v156z" />
    <glyph glyph-name="uni0E39" unicode="&#xe39;" 
d="M-61 -213c0 -22 -4.50098 -41.3311 -13.501 -57.998s-21.667 -30.834 -38 -42.501s-35.666 -20.334 -57.999 -26.001s-46.833 -8.5 -73.5 -8.5c-56.667 0 -101.167 11.5 -133.5 34.5s-48.5 56.5 -48.5 100.5v41h-41v90h156v-125c0 -21.333 6.83301 -35.5 20.5 -42.5
s29.167 -10.5 46.5 -10.5s33 3.5 47 10.5s21 21.167 21 42.5v125h115v-131v0z" />
    <glyph glyph-name="uni0E3A" unicode="&#xe3a;" 
d="M-35 -166c0 -23.333 -8.16699 -43.166 -24.5 -59.499s-36.166 -24.5 -59.499 -24.5s-43.166 8.16699 -59.499 24.5s-24.5 36.166 -24.5 59.499s8.16699 43.166 24.5 59.499s36.166 24.5 59.499 24.5s43.166 -8.16699 59.499 -24.5s24.5 -36.166 24.5 -59.499z" />
    <glyph glyph-name="uni0E3F" unicode="&#xe3f;" horiz-adv-x="907" 
d="M848 270c0 -41.333 -7.66797 -78.499 -23.001 -111.499s-36.166 -61.333 -62.499 -85s-57.666 -41.834 -93.999 -54.501s-75.5 -19 -117.5 -19h-51v-154h-90v154h-308v965h308v153h90v-153h22c54 0 99.333 -7 136 -21s66.167 -32 88.5 -54s38.333 -46.5 48 -73.5
s14.5 -53.5 14.5 -79.5c0 -52 -11.167 -97.5 -33.5 -136.5s-57.5 -69.167 -105.5 -90.5c27.333 -9.33301 52 -20.5 74 -33.5s40.667 -29 56 -48s27.166 -41.5 35.499 -67.5s12.5 -56.333 12.5 -91zM681.999 698.001c0 34.667 -5.16602 62.333 -15.499 83s-24 36.5 -41 47.5
s-36.5 18.167 -58.5 21.5s-44.333 5.33301 -67 6v-305c24.667 1.33301 48.167 4.5 70.5 9.5s41.666 13 57.999 24s29.333 25.667 39 44s14.5 41.5 14.5 69.5zM229 856v-305h181v305h-181zM723 287c0 30.667 -5.83594 55.833 -17.5029 75.5s-27.5 35.167 -47.5 46.5
s-43.667 19.333 -71 24s-56.333 7.66699 -87 9v-333c28.667 0.666992 56.334 3 83.001 7s50.334 12.167 71.001 24.5s37.334 30 50.001 53s19 54.167 19 93.5zM228.997 441.999v-333h181v333h-181z" />
    <glyph glyph-name="uni0E40" unicode="&#xe40;" horiz-adv-x="319" 
d="M102 819h115v-819h-115v819z" />
    <glyph glyph-name="uni0E41" unicode="&#xe41;" horiz-adv-x="557" 
d="M340 819h115v-819h-115v819zM102 819h115v-819h-115v819z" />
    <glyph glyph-name="uni0E42" unicode="&#xe42;" horiz-adv-x="360" 
d="M221 1167c-20 0 -38 -1.33301 -54 -4s-24 -10 -24 -22c0 -14 5 -25.5 15 -34.5l32.5 -28.5c11.667 -10 22.5 -22.5 32.5 -37.5s15 -35.5 15 -61.5v-979h-115v971c0 24 -4.83301 43 -14.5 57s-20.5 26.667 -32.5 38s-22.833 23.5 -32.5 36.5s-14.5 31.167 -14.5 54.5
c0 14.667 3.33301 29 10 43s17 26.333 31 37s31.833 19 53.5 25s47.5 8.66699 77.5 8l272 -4v-103l-252 4v0z" />
    <glyph glyph-name="uni0E43" unicode="&#xe43;" horiz-adv-x="360" 
d="M334 1133c0 -22 -5.00098 -39.666 -15.001 -52.999s-21 -26 -33 -38s-23 -25 -33 -39s-15 -33 -15 -57v-946h-115v954c0 28.667 4.83301 50.834 14.5 66.501s20.5 28.667 32.5 39s22.833 20.333 32.5 30s14.5 22.5 14.5 38.5c0 40 -30.667 60 -92 60
c-40 0 -68.333 -9.5 -85 -28.5s-24 -44.5 -22 -76.5h-116c-2.66699 29.333 0.333008 56.666 9 81.999s22.5 47.166 41.5 65.499s42.667 32.833 71 43.5s60.833 16 97.5 16c70.667 0 123.834 -14.167 159.501 -42.5s53.5 -66.5 53.5 -114.5z" />
    <glyph glyph-name="uni0E44" unicode="&#xe44;" horiz-adv-x="360" 
d="M295 1155c0.666992 -14 -1.83691 -26.167 -7.50391 -36.5s-12.167 -20.166 -19.5 -29.499s-14.166 -19.166 -20.499 -29.499s-9.5 -22.833 -9.5 -37.5v-1022h-115v1028c0 16 3 29.167 9 39.5s12.833 19.333 20.5 27l20.5 21c6 6.33301 9 13.5 9 21.5c0 4 -1.5 7 -4.5 9
s-6.83301 3.33301 -11.5 4s-9.66699 1 -15 1h-14h-24l-88 -53l-187 98l86 72l99 -58l73 43h49c19.333 0 37.833 -1.5 55.5 -4.5s33.334 -8.33301 47.001 -16s24.834 -17.834 33.501 -30.501s13.334 -28.334 14.001 -47.001z" />
    <glyph glyph-name="uni0E45" unicode="&#xe45;" horiz-adv-x="420" 
d="M244 614c0 24 -6.16895 43.6641 -18.502 58.9971s-29.166 26.833 -50.499 34.5s-46.166 11.834 -74.499 12.501s-58.5 -1.66602 -90.5 -6.99902v104c42.667 6.66699 84.667 8.83398 126 6.50098s78.5 -10.333 111.5 -24s59.667 -33.667 80 -60s30.5 -60.5 30.5 -102.5
v-883h-114v860z" />
    <glyph glyph-name="uni0E46" unicode="&#xe46;" horiz-adv-x="727" 
d="M551 680l-119 -115.001l-168 150c-15.333 -1.33301 -30 -4.66602 -44 -9.99902s-26.5 -12.5 -37.5 -21.5s-19.667 -19.667 -26 -32s-9.5 -26.166 -9.5 -41.499c0 -18.667 4.5 -34.5 13.5 -47.5s20.833 -23.167 35.5 -30.5s31.167 -12 49.5 -14s36.833 -1.33301 55.5 2
v-108c-40 -2.66699 -76.5 -0.333984 -109.5 6.99902s-61.5 19.333 -85.5 36s-42.5 38 -55.5 64s-19.5 56.333 -19.5 91c0 28.667 6.66699 55.667 20 81s32 47.5 56 66.5s53 34 87 45s71.667 16.5 113 16.5l125 -108l119 108h115v-1065h-115v926z" />
    <glyph glyph-name="uni0E47" unicode="&#xe47;" 
d="M-485 1110c-34 0 -60.666 -4.83301 -79.999 -14.5s-29 -25.167 -29 -46.5c0 -6.66699 0.833008 -12.334 2.5 -17.001s3.83398 -8.66699 6.50098 -12c2.66699 -4 6 -7.33301 10 -10h81l175 73l196 -79v-95l-194 82l-162 -69h-142c-16 10 -31.5 25.167 -46.5 45.5
s-22.5 47.5 -22.5 81.5c0 20.667 4.5 40.334 13.5 59.001s22.167 34.667 39.5 48s38.666 24 63.999 32s54.666 12 87.999 12h395v-90h-395v0z" />
    <glyph glyph-name="uni0E48" unicode="&#xe48;" 
d="M-176 1331h115v-153h-115v153z" />
    <glyph glyph-name="uni0E49" unicode="&#xe49;" 
d="M-264 1212c0 32 -16.333 48.001 -49 48.001h-35v81h63c34 0 60 -6.33301 78 -19s27 -33.334 27 -62.001h219v-82h-303v34z" />
    <glyph glyph-name="uni0E4A" unicode="&#xe4a;" 
d="M-20 1255c0 15.333 -3.83398 27.502 -11.501 36.502s-19.167 13.5 -34.5 13.5h-14l-86 -54l-88 54h-8c-15.333 0 -26.666 -4.66699 -33.999 -14s-11 -21.333 -11 -36v-4h55v-73h-141v86c0 39.333 13 69.166 39 89.499s58.667 30.5 98 30.5h12l80 -49l80 49h12
c40 0 73 -10.333 99 -31s39 -50.334 39 -89.001v-4h86v-82h-172v77z" />
    <glyph glyph-name="uni0E4B" unicode="&#xe4b;" 
d="M-72 1178h-94v77h-88v68h88v78h94v-78h88v-68h-88v-77z" />
    <glyph glyph-name="uni0E4C" unicode="&#xe4c;" 
d="M-90 1190c-19.333 0 -35.166 -5.50293 -47.499 -16.5029s-18.5 -24.5 -18.5 -40.5v-19h-102v41c0 20.667 3.5 38.834 10.5 54.501s16.667 28.834 29 39.501s26.666 18.834 42.999 24.501s33.833 8.5 52.5 8.5h123v-92h-90v0z" />
    <glyph glyph-name="uni0E4D" unicode="&#xe4d;" 
d="M-4 1020c0 -32 -10.999 -57.832 -32.999 -77.499s-50 -29.5 -84 -29.5s-62 9.83301 -84 29.5s-33 45.5 -33 77.5c0 15.333 3 29.5 9 42.5s14.167 24.167 24.5 33.5s22.666 16.666 36.999 21.999s29.833 8 46.5 8c34 0 62 -10 84 -30s33 -45.333 33 -76zM-71.999 1020
c0 12 -4.83301 22.5 -14.5 31.5s-21.167 13.5 -34.5 13.5s-24.833 -4.5 -34.5 -13.5s-14.5 -19.5 -14.5 -31.5c0 -12.667 4.83301 -23.334 14.5 -32.001s21.167 -13 34.5 -13s24.833 4.33301 34.5 13s14.5 19.334 14.5 32.001z" />
    <glyph glyph-name="uni0E4E" unicode="&#xe4e;" 
d="M35 1337c-33.333 4 -67.6621 5.49707 -102.995 4.49707s-67.5 -4.66699 -96.5 -11s-52.833 -15.5 -71.5 -27.5s-28 -27.333 -28 -46c0 -11.333 3.5 -19.666 10.5 -24.999s16.333 -9.16602 28 -11.499s24.667 -3.5 39 -3.5h43.5v-95c-32 4 -63 5 -93 3
s-56.833 -6.5 -80.5 -13.5s-42.667 -16.333 -57 -28s-21.5 -24.834 -21.5 -39.501c0 -11.333 5 -18.833 15 -22.5s21.333 -5.5 34 -5.5c24.667 0 46.167 3.33301 64.5 10s35.833 14.334 52.5 23.001l49 -82c-10.667 -6 -23.167 -12.167 -37.5 -18.5
s-29.833 -11.666 -46.5 -15.999s-34.5 -7.66602 -53.5 -9.99902s-38.833 -2.5 -59.5 -0.5c-40 4 -70.833 16.667 -92.5 38s-33.167 45.333 -34.5 72c-0.666992 14 1.16602 27.5 5.49902 40.5s10.666 25 18.999 36s18.166 21 29.499 30s23.333 16.5 36 22.5
c10.667 6.66699 24.167 12.167 40.5 16.5s30.166 7.16602 41.499 8.49902c-16.667 8 -28 18.667 -34 32s-9 27.333 -9 42c0 27.333 11.667 54.666 35 81.999s54.666 49 93.999 65c22 8.66699 46.167 15.334 72.5 20.001s52.5 8 78.5 10s50.333 2.83301 73 2.5
s41.667 -0.833008 57 -1.5v-101v0z" />
    <glyph glyph-name="uni0E4F" unicode="&#xe4f;" horiz-adv-x="963" 
d="M901 410c0 -58 -11 -112.5 -33 -163.5s-52 -95.5 -90 -133.5s-82.5 -68 -133.5 -90s-105.5 -33 -163.5 -33s-112.5 11 -163.5 33s-95.5 52 -133.5 90s-68 82.5 -90 133.5s-33 105.5 -33 163.5s11 112.333 33 163s52 95 90 133s82.5 68 133.5 90s105.5 33 163.5 33
s112.5 -11 163.5 -33s95.5 -52 133.5 -90s68 -82.333 90 -133s33 -105 33 -163zM840 410c0 48.667 -9.5 94.834 -28.5 138.501s-44.667 81.667 -77 114s-70.333 58 -114 77s-90.167 28.5 -139.5 28.5s-95.666 -9.5 -138.999 -28.5s-81.166 -44.667 -113.499 -77
s-58 -70.333 -77 -114s-28.5 -89.834 -28.5 -138.501c0 -49.333 9.5 -95.833 28.5 -139.5s44.667 -81.667 77 -114s70.166 -58 113.499 -77s89.666 -28.5 138.999 -28.5s95.833 9.5 139.5 28.5s81.667 44.667 114 77s58 70.333 77 114s28.5 90.167 28.5 139.5zM737 410
c0 -35.333 -6.66699 -68.666 -20 -99.999s-31.5 -58.5 -54.5 -81.5s-50.167 -41.167 -81.5 -54.5s-64.666 -20 -99.999 -20s-68.5 6.66699 -99.5 20s-58.167 31.5 -81.5 54.5s-41.666 50.167 -54.999 81.5s-20 64.666 -20 99.999s6.66699 68.5 20 99.5
s31.666 58.167 54.999 81.5s50.5 41.666 81.5 54.999s64.167 20 99.5 20s68.666 -6.66699 99.999 -20s58.5 -31.666 81.5 -54.999s41.167 -50.5 54.5 -81.5s20 -64.167 20 -99.5z" />
    <glyph glyph-name="uni0E50" unicode="&#xe50;" horiz-adv-x="774" 
d="M733 307c0 -44 -8.16699 -85.333 -24.5 -124s-39.666 -72.5 -69.999 -101.5s-66.833 -51.833 -109.5 -68.5s-90 -25 -142 -25s-99.333 8.33301 -142 25s-79.167 39.5 -109.5 68.5s-53.666 62.833 -69.999 101.5s-24.5 80 -24.5 124s8.16699 85.333 24.5 124
s39.666 72.5 69.999 101.5s66.833 52 109.5 69s90 25.5 142 25.5s99.333 -8.5 142 -25.5s79.167 -40 109.5 -69s53.666 -62.833 69.999 -101.5s24.5 -80 24.5 -124zM621 307c0 30 -5.66699 58.333 -17 85s-27.166 50 -47.499 70s-45 35.667 -74 47s-61.5 17 -97.5 17
s-68.333 -5.66699 -97 -17s-53.334 -27 -74.001 -47s-36.5 -43.333 -47.5 -70s-16.5 -55 -16.5 -85s5.5 -58.333 16.5 -85s26.833 -50 47.5 -70s45.334 -35.667 74.001 -47s61 -17 97 -17s68.5 5.66699 97.5 17s53.667 27 74 47s36.166 43.333 47.499 70s17 55 17 85z" />
    <glyph glyph-name="uni0E51" unicode="&#xe51;" horiz-adv-x="823" 
d="M782 311c0 -54 -12.332 -103.501 -36.999 -148.501s-57.167 -84.333 -97.5 -118s-86.166 -61.5 -137.499 -83.5s-104 -37 -158 -45l-51 90c48 6.66699 94.167 18.834 138.5 36.501s83.5 39.834 117.5 66.501s61 57 81 91s30 71 30 111c0 32 -6.33301 61.333 -19 88
s-30.5 49.334 -53.5 68.001s-50.667 33.167 -83 43.5s-67.833 15.5 -106.5 15.5c-36 0 -69.333 -4.83301 -100 -14.5s-57 -23.334 -79 -41.001s-39.333 -38.667 -52 -63s-19 -50.833 -19 -79.5c0 -35.333 10.667 -66.5 32 -93.5s49.333 -44.5 84 -52.5
c-8 9.33301 -15 21.5 -21 36.5s-9 34.167 -9 57.5c0 20 4.16699 39 12.5 57s19.666 33.667 33.999 47s31.166 24 50.499 32s40 12 62 12s42.667 -4 62 -12s36.333 -18.667 51 -32s26.167 -29 34.5 -47s12.5 -37 12.5 -57c0 -28.667 -6.66699 -55.334 -20 -80.001
s-31.833 -46 -55.5 -64s-51.334 -32.167 -83.001 -42.5s-65.5 -15.5 -101.5 -15.5c-39.333 0 -74.833 6.5 -106.5 19.5s-59 31 -82 54s-40.667 50 -53 81s-18.5 64.167 -18.5 99.5c0 45.333 9.33301 86.5 28 123.5s44.334 68.5 77.001 94.5s71 46 115 60s91.333 21 142 21
c57.333 0 109.333 -7.33301 156 -22s86.5 -35.667 119.5 -63s58.5 -60.5 76.5 -99.5s27 -82.833 27 -131.5zM467.001 273.999c0 18.667 -6.33301 34.334 -19 47.001s-28.334 19 -47.001 19c-18 0 -33.333 -6.33301 -46 -19s-19 -28.334 -19 -47.001
c0 -18 6.33301 -33.333 19 -46s28 -19 46 -19c18.667 0 34.334 6.33301 47.001 19s19 28 19 46z" />
    <glyph glyph-name="uni0E52" unicode="&#xe52;" horiz-adv-x="1114" 
d="M1051 188c0 -27.333 -4.66406 -52.3281 -13.9971 -74.9951s-22.5 -42.5 -39.5 -59.5s-37.333 -30.167 -61 -39.5s-49.834 -14 -78.501 -14h-604c-28.667 0 -54.834 4.66699 -78.501 14s-44 22.5 -61 39.5s-30.167 36.833 -39.5 59.5s-14 47.667 -14 75v471
c0 23.333 -8.5 41.666 -25.5 54.999s-47.167 21.666 -90.5 24.999l51 99c54 -6.66699 97.5 -22.167 130.5 -46.5s49.5 -59.5 49.5 -105.5v-487c0 -12 1.66699 -23.833 5 -35.5s8.5 -22 15.5 -31s15.833 -16.333 26.5 -22s23 -8.5 37 -8.5h592c14 0 26.333 2.83301 37 8.5
s19.5 13 26.5 22s12.167 19.333 15.5 31s5 23.5 5 35.5v227c0 32 -9 56.667 -27 74s-44 26 -78 26c-26 0 -48.833 -7.16699 -68.5 -21.5s-29.5 -32.833 -29.5 -55.5v-271h-115v273c0 12.667 -3.5 23.667 -10.5 33s-16 17.166 -27 23.499s-23.333 11 -37 14
s-27.5 4.5 -41.5 4.5c-17.333 0 -33.666 -1.83301 -48.999 -5.5s-29 -9.33398 -41 -17.001s-21.5 -17.667 -28.5 -30s-10.5 -26.833 -10.5 -43.5c5.33301 1.33301 10.333 2 15 2h15c20.667 0 40 -3.5 58 -10.5s33.667 -16.5 47 -28.5s23.833 -26.333 31.5 -43
s11.5 -34.334 11.5 -53.001c0 -19.333 -3.83301 -37.166 -11.5 -53.499s-18.167 -30.5 -31.5 -42.5s-29 -21.5 -47 -28.5s-37.333 -10.5 -58 -10.5c-20 0 -38.667 3.33301 -56 10s-32.666 16 -45.999 28s-23.833 26.333 -31.5 43s-11.5 34.667 -11.5 54v129
c0 32.667 6.66699 61.667 20 87s31.166 46.5 53.499 63.5s48.333 30 78 39s60.5 13.5 92.5 13.5c41.333 0 75.666 -5.5 102.999 -16.5s51.666 -26.167 72.999 -45.5c17.333 19.333 38.833 34.5 64.5 45.5s57.5 16.5 95.5 16.5c32 0 61 -4.33301 87 -13
s48.333 -21.334 67 -38.001s33.167 -37 43.5 -61s15.5 -51 15.5 -81v-248zM459.003 297.005c0 14.667 -5.5 27.5 -16.5 38.5s-24.167 16.5 -39.5 16.5c-14 0 -26.333 -5.5 -37 -16.5s-16 -23.833 -16 -38.5c0 -15.333 5.33301 -28.333 16 -39s23 -16 37 -16
c15.333 0 28.5 5.33301 39.5 16s16.5 23.667 16.5 39z" />
    <glyph glyph-name="uni0E53" unicode="&#xe53;" horiz-adv-x="956" 
d="M780 418c0 37.333 -10.667 65 -32 83s-47.333 27 -78 27c-31.333 0 -58 -7.66699 -80 -23s-33 -37.666 -33 -66.999v-438h-115v442c0 15.333 -3.83301 28.5 -11.5 39.5s-17.667 20 -30 27s-26 12 -41 15s-29.833 4.5 -44.5 4.5c-20 0 -38.333 -2.66699 -55 -8
s-31.334 -13 -44.001 -23s-22.5 -21.833 -29.5 -35.5s-10.5 -28.834 -10.5 -45.501v-142c14 4.66699 29 7 45 7c22 0 42.667 -3.83301 62 -11.5s36.333 -18.167 51 -31.5s26.167 -28.833 34.5 -46.5s12.5 -36.5 12.5 -56.5c0 -21.333 -4.16699 -40.833 -12.5 -58.5
s-19.833 -32.834 -34.5 -45.501s-31.667 -22.667 -51 -30s-40 -11 -62 -11s-42.667 3.66699 -62 11s-36.333 17.333 -51 30s-26.167 27.834 -34.5 45.501s-12.5 37.167 -12.5 58.5v279c0 36 7.16699 67.333 21.5 94s33.333 49 57 67s50.834 31.5 81.501 40.5
s62 13.5 94 13.5c42 0 78.833 -6.83301 110.5 -20.5s57.167 -30.834 76.5 -51.501c19.333 20.667 43.5 37.834 72.5 51.501s61.5 20.5 97.5 20.5c32 0 61.5 -4.16699 88.5 -12.5s50.5 -21 70.5 -38s35.667 -38 47 -63s17 -54.167 17 -87.5v-428h-115v418zM289 135
c0 17.333 -6.33301 32.666 -19 45.999s-28.334 20 -47.001 20s-34.167 -6.66699 -46.5 -20s-18.5 -28.666 -18.5 -45.999c0 -19.333 6.16699 -35.333 18.5 -48s27.833 -19 46.5 -19s34.334 6.33301 47.001 19s19 28.667 19 48z" />
    <glyph glyph-name="uni0E54" unicode="&#xe54;" horiz-adv-x="885" 
d="M885 844c0.666992 -42 -4.66797 -82.4912 -16.001 -121.491s-28 -73.5 -50 -103.5s-48.833 -54.5 -80.5 -73.5s-67.5 -29.5 -107.5 -31.5c-21.333 -1.33301 -40.833 -1.83301 -58.5 -1.5s-35.5 1.16602 -53.5 2.49902s-37.333 2.66602 -58 3.99902s-44.667 2.33301 -72 3
c-32.667 0.666992 -63.334 -4 -92.001 -14s-53.667 -24.5 -75 -43.5s-38 -42.167 -50 -69.5s-17.333 -58 -16 -92c0.666992 -34 7.66699 -64.167 21 -90.5s30.5 -48.5 51.5 -66.5s45 -31.5 72 -40.5s54.5 -13.5 82.5 -13.5c44.667 0 78.334 3.16699 101.001 9.5
s39.667 12.166 51 17.499c-4.66699 0.666992 -14.334 5 -29.001 13s-29.667 19.167 -45 33.5s-29.166 32 -41.499 53s-18.5 45.167 -18.5 72.5c0 20.667 4.16699 40.167 12.5 58.5s19.5 34.166 33.5 47.499s30.333 23.833 49 31.5s38.334 11.5 59.001 11.5
s40.167 -3.66699 58.5 -11s34.333 -17.5 48 -30.5s24.334 -28.333 32.001 -46s11.5 -36.834 11.5 -57.501c0 -24.667 -6.66699 -47.834 -20 -69.501s-31.333 -38.834 -54 -51.501c16 -14 34.167 -23.333 54.5 -28s41.333 -8.83398 63 -12.501s43.167 -9.16699 64.5 -16.5
s41 -20.333 59 -39l-65 -84c-40 19.333 -73.333 31.333 -100 36s-47.334 7 -62.001 7c-20.667 0 -40.167 -2.5 -58.5 -7.5l-58 -16c-20.333 -5.66699 -42.833 -11 -67.5 -16s-53.334 -7.5 -86.001 -7.5c-42 0 -82.833 6.16699 -122.5 18.5s-75 31.166 -106 56.499
s-56.167 57.833 -75.5 97.5s-29.333 86.5 -30 140.5c-1.33301 50.667 7.16699 96.167 25.5 136.5s43.333 74.5 75 102.5s68.834 49.333 111.501 64s88 21.667 136 21c29.333 -0.666992 53.333 -1.66699 72 -3s35.667 -2.33301 51 -3s31.333 -1.16699 48 -1.5
s37.667 0.166992 63 1.5c22 0.666992 42 7.66699 60 21s33.333 30.5 46 51.5s22.5 44.667 29.5 71s10.833 52.833 11.5 79.5h115zM615.998 293.009c0 17.333 -5.83301 32.5 -17.5 45.5s-26.167 19.5 -43.5 19.5s-32.166 -6.5 -44.499 -19.5s-18.5 -28.167 -18.5 -45.5
c0 -16.667 6.16699 -31.167 18.5 -43.5s27.166 -18.5 44.499 -18.5s31.833 6.16699 43.5 18.5s17.5 26.833 17.5 43.5z" />
    <glyph glyph-name="uni0E55" unicode="&#xe55;" horiz-adv-x="885" 
d="M885 844c0.666992 -42 -4.66699 -82.4912 -16 -121.491s-28 -73.5 -50 -103.5s-48.833 -54.5 -80.5 -73.5s-67.5 -29.5 -107.5 -31.5c-21.333 -1.33301 -40.833 -1.83301 -58.5 -1.5s-35.5 1.16602 -53.5 2.49902s-37.333 2.66602 -58 3.99902s-44.667 2.33301 -72 3
c-32.667 0.666992 -63.334 -4 -92.001 -14s-53.667 -24.5 -75 -43.5s-38 -42.167 -50 -69.5s-17.333 -58 -16 -92c0.666992 -34 7.66699 -64.167 21 -90.5s30.5 -48.5 51.5 -66.5s45 -31.5 72 -40.5s54.5 -13.5 82.5 -13.5c44.667 0 78.334 3.16699 101.001 9.5
s39.667 12.166 51 17.499c-4.66699 0.666992 -14.334 5 -29.001 13s-29.667 19.167 -45 33.5s-29.166 32 -41.499 53s-18.5 45.167 -18.5 72.5c0 20.667 4.16699 40.167 12.5 58.5s19.5 34.166 33.5 47.499s30.333 23.833 49 31.5s38.334 11.5 59.001 11.5
s40.167 -3.66699 58.5 -11s34.333 -17.5 48 -30.5s24.334 -28.333 32.001 -46s11.5 -36.834 11.5 -57.501c0 -24.667 -6.66699 -47.834 -20 -69.501s-31.333 -38.834 -54 -51.501c16 -14 34.167 -23.333 54.5 -28s41.333 -8.83398 63 -12.501s43.167 -9.16699 64.5 -16.5
s41 -20.333 59 -39l-65 -84c-40 19.333 -73.333 31.333 -100 36s-47.334 7 -62.001 7c-20.667 0 -40.167 -2.5 -58.5 -7.5l-58 -16c-20.333 -5.66699 -42.833 -11 -67.5 -16s-53.334 -7.5 -86.001 -7.5c-42 0 -82.833 6.16699 -122.5 18.5s-75 31.166 -106 56.499
s-56.167 57.833 -75.5 97.5s-29.333 86.5 -30 140.5c-1.33301 41.333 4 79.333 16 114s29.167 65.334 51.5 92.001s49 49 80 67s64.5 31.333 100.5 40c-5.33301 6.66699 -10.5 16.167 -15.5 28.5s-7.5 26.166 -7.5 41.499c0 21.333 4.16699 41.333 12.5 60
s20 34.834 35 48.501s32.833 24.334 53.5 32.001s43.667 11.5 69 11.5c24.667 0 47.5 -3.83301 68.5 -11.5s39 -18.334 54 -32.001s26.667 -29.834 35 -48.501s12.5 -38.667 12.5 -60c0 -14.667 -2.66699 -28.167 -8 -40.5s-10 -20.5 -14 -24.5h39
c22 0.666992 42 7.66699 60 21s33.333 30.5 46 51.5s22.5 44.667 29.5 71s10.833 52.833 11.5 79.5h115zM507.999 690.009c0 18.667 -7.16699 34.667 -21.5 48s-31.166 20 -50.499 20s-36 -6.66699 -50 -20s-21 -29.333 -21 -48s7 -34.5 21 -47.5s30.667 -19.5 50 -19.5
s36.166 6.5 50.499 19.5s21.5 28.833 21.5 47.5zM617.999 295.009c0 17.333 -6.16699 32.166 -18.5 44.499s-27.166 18.5 -44.499 18.5s-32.166 -6.16699 -44.499 -18.5s-18.5 -27.166 -18.5 -44.499s6.16699 -32.333 18.5 -45s27.166 -19 44.499 -19
s32.166 6.33301 44.499 19s18.5 27.667 18.5 45z" />
    <glyph glyph-name="uni0E56" unicode="&#xe56;" horiz-adv-x="831" 
d="M791 315c0 -47.333 -9.82812 -91.166 -29.4951 -131.499s-46.667 -75.166 -81 -104.499s-74.666 -52.166 -120.999 -68.499s-96.166 -24.5 -149.499 -24.5c-51.333 0 -97.5 7.16699 -138.5 21.5s-75.833 33.166 -104.5 56.499s-50.667 49.666 -66 78.999
s-23 58.666 -23 87.999c0 21.333 4 40.833 12 58.5s19 32.834 33 45.501s30.167 22.5 48.5 29.5s38.166 10.5 59.499 10.5c20.667 0 40.334 -3.5 59.001 -10.5s34.834 -16.833 48.501 -29.5s24.5 -27.667 32.5 -45s12 -36.333 12 -57c0 -26.667 -7 -50.334 -21 -71.001
s-33.667 -37 -59 -49c9.33301 -5.33301 24.166 -10.166 44.499 -14.499s41.166 -6.5 62.499 -6.5c36 0 70 5.33301 102 16s60.167 25.834 84.5 45.501s43.666 43.167 57.999 70.5s21.5 57.666 21.5 90.999c0 31.333 -6.5 60 -19.5 86s-30.667 48.167 -53 66.5
s-48.333 32.666 -78 42.999s-61.5 15.5 -95.5 15.5c-56.667 0 -104.334 -10.5 -143.001 -31.5s-67.334 -46.5 -86.001 -76.5h-95c-11.333 76 -34.833 143 -70.5 201s-82.167 111.667 -139.5 161l94 64c57.333 -44 102.166 -91 134.499 -141s55.166 -98 68.499 -144
c25.333 20.667 59.166 38.167 101.499 52.5s89.5 21.5 141.5 21.5c51.333 0 98.666 -7.66699 141.999 -23s80.833 -37 112.5 -65s56.334 -61.5 74.001 -100.5s26.5 -82.167 26.5 -129.5zM295.005 236c0 17.333 -6.33301 32.166 -19 44.499s-27.667 18.5 -45 18.5
s-32.166 -6.16699 -44.499 -18.5s-18.5 -27.166 -18.5 -44.499s6.16699 -32.333 18.5 -45s27.166 -19 44.499 -19s32.333 6.33301 45 19s19 27.667 19 45z" />
    <glyph glyph-name="uni0E57" unicode="&#xe57;" horiz-adv-x="1171" 
d="M1231 776c-14 -8 -27.002 -17.5029 -39.002 -28.5029s-22.667 -23 -32 -36s-17.333 -26.333 -24 -40s-11.334 -27.167 -14.001 -40.5c-5.33301 -25.333 -7.66602 -49.666 -6.99902 -72.999s2.33398 -46.666 5.00098 -69.999s5.16699 -46.833 7.5 -70.5
s2.5 -48.167 0.5 -73.5c-4 -48 -13.667 -91.5 -29 -130.5s-34.833 -73.167 -58.5 -102.5s-50.5 -53.333 -80.5 -72s-62 -31.667 -96 -39h-84v418c0 37.333 -10.667 65 -32 83s-47.333 27 -78 27c-31.333 0 -58 -7.66699 -80 -23s-33 -37.666 -33 -66.999v-438h-115v442
c0 15.333 -3.83301 28.5 -11.5 39.5s-17.667 20 -30 27s-26 12 -41 15s-29.833 4.5 -44.5 4.5c-20 0 -38.333 -2.66699 -55 -8s-31.334 -13 -44.001 -23s-22.5 -21.833 -29.5 -35.5s-10.5 -28.834 -10.5 -45.501v-142c14 4.66699 29 7 45 7c22 0 42.667 -3.83301 62 -11.5
s36.333 -18.167 51 -31.5s26.167 -28.833 34.5 -46.5s12.5 -36.5 12.5 -56.5c0 -21.333 -4.16699 -40.833 -12.5 -58.5s-19.833 -32.834 -34.5 -45.501s-31.667 -22.667 -51 -30s-40 -11 -62 -11s-42.667 3.66699 -62 11s-36.333 17.333 -51 30s-26.167 27.834 -34.5 45.501
s-12.5 37.167 -12.5 58.5v279c0 36 7.16699 67.333 21.5 94s33.333 49 57 67s50.834 31.5 81.501 40.5s62 13.5 94 13.5c42 0 78.833 -6.83301 110.5 -20.5s57.167 -30.834 76.5 -51.501c19.333 20.667 43.5 37.834 72.5 51.501s61.5 20.5 97.5 20.5
c32 0 61.5 -4.16699 88.5 -12.5s50.5 -21 70.5 -38s35.667 -38 47 -63s17 -54.167 17 -87.5v-309c14 6.66699 27.833 16.834 41.5 30.501s26 30.167 37 49.5s20.167 41.333 27.5 66s11.666 51.667 12.999 81c0.666992 30 -0.166016 58 -2.49902 84l-6.5 75.5
c-2 24.333 -3.16699 48.333 -3.5 72s1.83398 48.167 6.50098 73.5c4 22.667 10.667 43.667 20 63s20 37 32 53s24.833 30.333 38.5 43s27.167 24 40.5 34zM288.998 134.997c0 17.333 -6.33301 32.666 -19 45.999s-28.334 20 -47.001 20s-34.167 -6.66699 -46.5 -20
s-18.5 -28.666 -18.5 -45.999c0 -19.333 6.16699 -35.333 18.5 -48s27.833 -19 46.5 -19s34.334 6.33301 47.001 19s19 28.667 19 48z" />
    <glyph glyph-name="uni0E58" unicode="&#xe58;" horiz-adv-x="901" 
d="M903 844c-3.33301 -39.333 -9.50293 -78.833 -18.5029 -118.5s-22 -75.667 -39 -108s-39 -59 -66 -80s-60.167 -32.167 -99.5 -33.5c-25.333 -1.33301 -49.166 -0.833008 -71.499 1.5s-44.833 5 -67.5 8s-45.834 5.83301 -69.501 8.5s-49.167 4 -76.5 4
c-34.667 0 -66.667 -4.16699 -96 -12.5s-54.5 -20.833 -75.5 -37.5s-37.5 -37 -49.5 -61s-18 -51.667 -18 -83c0 -27.333 3.83301 -52.666 11.5 -75.999s17.834 -44.333 30.501 -63s26.834 -34.667 42.501 -48s31.167 -23.333 46.5 -30l125 159
c12 -16.667 24 -32.167 36 -46.5l35 -40.5c10 -11.333 20.5 -22.166 31.5 -32.499s22.167 -19.5 33.5 -27.5s22.5 -14.5 33.5 -19.5s21.167 -7.5 30.5 -7.5s18.833 2.83301 28.5 8.5s18.834 13.167 27.501 22.5c-14.667 3.33301 -28.5 8.66602 -41.5 15.999
s-24.5 16.666 -34.5 27.999s-18 24.5 -24 39.5s-9 31.5 -9 49.5c0 18.667 3.83301 36.167 11.5 52.5s18.167 30.833 31.5 43.5s28.833 22.667 46.5 30s36.5 11 56.5 11s39 -3.33301 57 -10s34 -16 48 -28s25.167 -26.667 33.5 -44s12.5 -36.333 12.5 -57
c0 -32 -7.16699 -64.167 -21.5 -96.5s-33.166 -61.333 -56.499 -87s-50.333 -46.5 -81 -62.5s-62.334 -24 -95.001 -24c-16.667 0 -34 3.83301 -52 11.5s-35.333 17.334 -52 29.001s-32.334 24 -47.001 37s-27 24.5 -37 34.5l-82 -116
c-42.667 6.66699 -81.834 19.667 -117.501 39s-66.334 43.833 -92.001 73.5s-45.667 64 -60 103s-21.5 81.833 -21.5 128.5c0 48 8.66699 90.5 26 127.5s41.833 68.333 73.5 94s69.334 45 113.001 58s91.5 19.5 143.5 19.5c24 0 47.167 -1.16699 69.5 -3.5
s44 -4.83301 65 -7.5s41.667 -5 62 -7s40.833 -2.33301 61.5 -1c22.667 0.666992 41.834 8 57.501 22s28.667 32 39 54s18.333 46.667 24 74s9.83398 54.666 12.501 81.999h115zM759.997 264c0 15.333 -5.33301 28.333 -16 39s-23.667 16 -39 16s-28.5 -5.33301 -39.5 -16
s-16.5 -23.667 -16.5 -39s5.5 -28.333 16.5 -39s24.167 -16 39.5 -16s28.333 5.33301 39 16s16 23.667 16 39z" />
    <glyph glyph-name="uni0E59" unicode="&#xe59;" horiz-adv-x="995" 
d="M1040 848c5.33301 -42 6.16895 -83.166 2.50195 -123.499s-10.5 -78.5 -20.5 -114.5s-22.333 -69 -37 -99s-30.334 -55.667 -47.001 -77l-80 25c-1.33301 8.66699 -3.83301 17.5 -7.5 26.5s-9 17.167 -16 24.5s-15.667 13.333 -26 18s-22.5 7 -36.5 7
c-12 0 -22.667 -2.5 -32 -7.5s-17.166 -11.167 -23.499 -18.5s-11.333 -15.666 -15 -24.999s-5.5 -18.333 -5.5 -27c40 -60.667 71.667 -129.667 95 -207s40.333 -158.666 51 -243.999l-115 -16c-5.33301 41.333 -12.166 83.666 -20.499 126.999
s-18.833 85.166 -31.5 125.499s-27.834 78.333 -45.501 114s-38.5 66.667 -62.5 93s-51.667 47.166 -83 62.499s-67 23 -107 23c-31.333 0 -60.5 -5.5 -87.5 -16.5s-50.333 -26.167 -70 -45.5s-35.167 -42.166 -46.5 -68.499s-17 -54.833 -17 -85.5c0 -44 9.5 -84 28.5 -120
s42.833 -63.333 71.5 -82c-3.33301 8 -5.5 16.167 -6.5 24.5s-1.5 17.166 -1.5 26.499c0 20.667 4.16699 40 12.5 58s19.666 33.667 33.999 47s31.333 24 51 32s40.5 12 62.5 12s42.667 -4 62 -12s36.166 -18.667 50.499 -32s25.666 -29 33.999 -47s12.5 -37.333 12.5 -58
c0 -27.333 -5.66699 -52 -17 -74s-26.5 -40.833 -45.5 -56.5s-41.333 -27.834 -67 -36.501s-52.834 -13 -81.501 -13c-51.333 0 -96.666 9.33301 -135.999 28s-72.333 43.334 -99 74.001s-46.667 66 -60 106s-20 81 -20 123c0 46 8.5 88.667 25.5 128s40.333 73.333 70 102
s64.667 51.167 105 67.5s83.5 24.5 129.5 24.5c54 0 101.167 -7.5 141.5 -22.5s76.5 -37.5 108.5 -67.5c13.333 25.333 32 46.333 56 63s53 25.667 87 27c30.667 1.33301 58.834 -3.33398 84.501 -14.001s45.167 -23 58.5 -37c10.667 30.667 18 68.834 22 114.501
s3 93.5 -3 143.5h114zM473.003 168.001c0 17.333 -6.33301 32.5 -19 45.5s-28 19.5 -46 19.5c-18.667 0 -34.334 -6.5 -47.001 -19.5s-19 -28.167 -19 -45.5c0 -18.667 6.33301 -34.667 19 -48s28.334 -20 47.001 -20c18 0 33.333 6.66699 46 20s19 29.333 19 48z" />
    <glyph glyph-name="uni0E5A" unicode="&#xe5a;" horiz-adv-x="918" 
d="M743 819h113v-819h-113v819zM549 598c-12 -14.667 -27.4961 -29.998 -46.4961 -45.998s-40.833 -30.5 -65.5 -43.5s-51.834 -23.833 -81.501 -32.5s-60.834 -13 -93.501 -13c-27.333 0 -54.833 3.83301 -82.5 11.5s-52.5 19.5 -74.5 35.5s-39.833 36 -53.5 60
s-20.5 52.333 -20.5 85c0 40 11.833 72.667 35.5 98s53 44.166 88 56.499s72 18.333 111 18s74.167 -6.5 105.5 -18.5v-113c-22.667 14 -47.167 23.333 -73.5 28s-51 5.16699 -74 1.5s-42.167 -11.667 -57.5 -24s-23 -28.5 -23 -48.5c0 -14 3.5 -26.5 10.5 -37.5
s16.167 -20.333 27.5 -28s24.166 -13.334 38.499 -17.001s29.166 -5.5 44.499 -5.5c40 0 76 6.5 108 19.5s59.833 30.833 83.5 53.5s43.167 49.5 58.5 80.5s26.333 64.5 33 100.5h115v-819h-113v598z" />
    <glyph glyph-name="uni0E5B" unicode="&#xe5b;" horiz-adv-x="1393" 
d="M1368 434c0 -4.66699 -1.83691 -9.00684 -5.50391 -13.0068s-8.33398 -7.66699 -14.001 -11s-11.667 -6.16602 -18 -8.49902s-12.166 -3.83301 -17.499 -4.5l-103 -10c-4 -12.667 -10 -25.334 -18 -38.001s-18.333 -19 -31 -19c-10 0 -20 7.5 -30 22.5
s-19.667 30.5 -29 46.5c-3.33301 -10.667 -7.16602 -21.5 -11.499 -32.5s-9 -20.833 -14 -29.5s-10.333 -15.834 -16 -21.501s-11.834 -8.5 -18.501 -8.5c-5.33301 0 -11 3.16699 -17 9.5s-12.167 14.5 -18.5 24.5s-12.5 21.167 -18.5 33.5s-11.667 24.833 -17 37.5
c-4 -15.333 -8.5 -30.333 -13.5 -45s-10.167 -28 -15.5 -40s-11.166 -21.667 -17.499 -29s-12.833 -11 -19.5 -11s-13 4 -19 12s-12.167 18.333 -18.5 31s-12.666 27 -18.999 43l-19.5 47c-4 -19.333 -9.16699 -38.333 -15.5 -57s-13.333 -35.5 -21 -50.5
s-15.5 -27.167 -23.5 -36.5s-16 -14 -24 -14c-13.333 0 -23.333 4 -30 12s-12.334 21.667 -17.001 41c-3.33301 12.667 -7 28 -11 46s-9 35.667 -15 53c-11.333 -44.667 -27 -87.167 -47 -127.5s-41.333 -73.166 -64 -98.499c-32 -36 -67.333 -63.667 -106 -83
s-79 -29 -121 -29c-40 0 -76.667 8.16699 -110 24.5s-62.166 39.333 -86.499 69s-43.166 65.334 -56.499 107.001s-20 87.5 -20 137.5c0 48 6.33301 92.833 19 134.5s30.167 77.834 52.5 108.501s48.666 54.834 78.999 72.501s63.5 26.5 99.5 26.5
c28.667 0 56 -6.33301 82 -19s48.667 -30.167 68 -52.5s34.666 -48.666 45.999 -78.999s17 -63.5 17 -99.5c0 -28 -3.33301 -53.833 -10 -77.5s-16.167 -43.834 -28.5 -60.501s-26.833 -29.667 -43.5 -39s-35 -14 -55 -14c-17.333 0 -33.333 3.66699 -48 11
s-27.667 17 -39 29s-20.166 26.167 -26.499 42.5s-9.5 33.5 -9.5 51.5s3.33301 35 10 51s15.667 30.333 27 43s24.166 22.667 38.499 30s29.5 11 45.5 11h11c3.33301 0 6.66602 -0.666992 9.99902 -2c-10.667 24.667 -24.167 44.167 -40.5 58.5s-33.833 21.5 -52.5 21.5
c-21.333 0 -41.166 -6.16699 -59.499 -18.5s-34.166 -29.666 -47.499 -51.999s-24 -49.333 -32 -81s-12 -66.5 -12 -104.5c0 -37.333 4.66699 -70.666 14 -99.999s22 -54.166 38 -74.499s35.167 -36 57.5 -47s46.5 -16.5 72.5 -16.5c31.333 0 60.833 8.16699 88.5 24.5
s52.834 39.666 75.501 69.999s41.834 66.833 57.501 109.5s27.167 90.667 34.5 144c5.33301 33.333 11.833 55.333 19.5 66s20.167 16 37.5 16c7.33301 0 15.166 -4 23.499 -12s17 -18.667 26 -32s17.667 -29 26 -47s16.166 -37.333 23.499 -58
c2.66699 18 5.5 34.833 8.5 50.5s6.5 29.5 10.5 41.5s8.66699 21.5 14 28.5s12 10.5 20 10.5c12.667 0 27.834 -11.167 45.501 -33.5s33.167 -50.833 46.5 -85.5c5.33301 21.333 11.833 40.333 19.5 57s16.167 25 25.5 25c15.333 0 30.833 -9.83301 46.5 -29.5
s31.5 -45.5 47.5 -77.5c6.66699 20.667 14.334 38.834 23.001 54.501s19.667 23.5 33 23.5c10 0 20.333 -6.16699 31 -18.5s20.667 -27.166 30 -44.499c10 20.667 25.667 30 47 28l111 -14c12 -2 23.833 -6.16699 35.5 -12.5s17.5 -12.5 17.5 -18.5zM433.996 448.993
c0 17.333 -4.83301 31.833 -14.5 43.5s-21.167 17.5 -34.5 17.5c-12.667 0 -24 -5.66699 -34 -17s-15 -26 -15 -44c0 -17.333 5 -31.666 15 -42.999s21.333 -17 34 -17c13.333 0 24.833 5.66699 34.5 17s14.5 25.666 14.5 42.999z" />
    <glyph glyph-name="zerowidthnonjoiner" unicode="&#x200c;" 
 />
    <glyph glyph-name="zerowidthjoiner" unicode="&#x200d;" 
 />
    <glyph glyph-name="endash" unicode="&#x2013;" horiz-adv-x="748" 
d="M61 387h625v-92h-625v92z" />
    <glyph glyph-name="emdash" unicode="&#x2014;" horiz-adv-x="1495" 
d="M61 387h1371v-92h-1371v92z" />
    <glyph glyph-name="quoteleft" unicode="&#x2018;" horiz-adv-x="387" 
d="M295 795c0 -12.667 -2.33496 -24.832 -7.00195 -36.499s-11.334 -22 -20.001 -31s-18.667 -16.167 -30 -21.5s-23.666 -8 -36.999 -8c-34 0 -60.667 11.5 -80 34.5s-29 51.833 -29 86.5c0 15.333 2.5 32 7.5 50s12.833 36.333 23.5 55s24.5 37 41.5 55s37.833 35 62.5 51
l52 -37c-28 -16 -50.167 -33.667 -66.5 -53s-29.166 -40.333 -38.499 -63l10 2c3.33301 0.666992 6.83301 1.16699 10.5 1.5s7.83398 0.5 12.501 0.5c11.333 0 22.333 -2.16699 33 -6.5s20 -10.333 28 -18s14.5 -16.834 19.5 -27.501s7.5 -22 7.5 -34z" />
    <glyph glyph-name="quoteright" unicode="&#x2019;" horiz-adv-x="387" 
d="M295 909c0 -15.333 -2.50098 -32.002 -7.50098 -50.002s-12.833 -36.167 -23.5 -54.5s-24.5 -36.666 -41.5 -54.999s-37.833 -35.5 -62.5 -51.5l-51 37c26.667 16.667 48.334 34.667 65.001 54s29.667 40.333 39 63l-10 -2c-3.33301 -0.666992 -7 -1.16699 -11 -1.5
s-8 -0.5 -12 -0.5c-11.333 0 -22.333 2.16699 -33 6.5s-20 10.333 -28 18s-14.5 16.834 -19.5 27.501s-7.5 22 -7.5 34s2.33301 23.833 7 35.5s11.334 22 20.001 31s18.667 16.167 30 21.5s23.666 8 36.999 8c34 0 60.667 -11.167 80 -33.5s29 -51.5 29 -87.5z" />
    <glyph glyph-name="quotedblleft" unicode="&#x201c;" horiz-adv-x="659" 
d="M567 795c0 -12.667 -2.33398 -24.833 -7.00098 -36.5s-11.334 -22 -20.001 -31s-18.667 -16.167 -30 -21.5s-23.666 -8 -36.999 -8c-34 0 -60.5 11.5 -79.5 34.5s-28.5 51.833 -28.5 86.5c0 16 2.33301 32.833 7 50.5s12.334 35.834 23.001 54.501s24.667 37 42 55
s38.333 35 63 51l51 -37c-26.667 -16 -48.5 -33.667 -65.5 -53s-30.167 -40.333 -39.5 -63l10 2c3.33301 0.666992 7 1.16699 11 1.5s8 0.5 12 0.5c11.333 0 22.333 -2.16699 33 -6.5s20 -10.333 28 -18s14.5 -16.834 19.5 -27.501s7.5 -22 7.5 -34zM294.999 795.001
c0 -12.667 -2.33496 -24.832 -7.00195 -36.499s-11.334 -22 -20.001 -31s-18.667 -16.167 -30 -21.5s-23.666 -8 -36.999 -8c-34 0 -60.667 11.5 -80 34.5s-29 51.833 -29 86.5c0 15.333 2.5 32 7.5 50s12.833 36.333 23.5 55s24.5 37 41.5 55s37.833 35 62.5 51l52 -37
c-28 -16 -50.167 -33.667 -66.5 -53s-29.166 -40.333 -38.499 -63l10 2c3.33301 0.666992 6.83301 1.16699 10.5 1.5s7.83398 0.5 12.501 0.5c11.333 0 22.333 -2.16699 33 -6.5s20 -10.333 28 -18s14.5 -16.834 19.5 -27.501s7.5 -22 7.5 -34z" />
    <glyph glyph-name="quotedblright" unicode="&#x201d;" horiz-adv-x="659" 
d="M567 909c0 -15.333 -2.50098 -32.002 -7.50098 -50.002s-12.833 -36.167 -23.5 -54.5s-24.5 -36.666 -41.5 -54.999s-37.833 -35.5 -62.5 -51.5l-51 37c26.667 16.667 48.334 34.667 65.001 54s29.667 40.333 39 63l-10 -2
c-3.33301 -0.666992 -6.83301 -1.16699 -10.5 -1.5s-7.5 -0.5 -11.5 -0.5c-11.333 0 -22.333 2.16699 -33 6.5s-20 10.333 -28 18s-14.5 16.834 -19.5 27.501s-7.5 22 -7.5 34s2.33301 23.833 7 35.5s11.334 22 20.001 31s18.667 16.167 30 21.5s23.666 8 36.999 8
c34 0 60.5 -11.167 79.5 -33.5s28.5 -51.5 28.5 -87.5zM294.999 908.998c0 -15.333 -2.50098 -32.002 -7.50098 -50.002s-12.833 -36.167 -23.5 -54.5s-24.5 -36.666 -41.5 -54.999s-37.833 -35.5 -62.5 -51.5l-51 37c26.667 16.667 48.334 34.667 65.001 54
s29.667 40.333 39 63l-10 -2c-3.33301 -0.666992 -7 -1.16699 -11 -1.5s-8 -0.5 -12 -0.5c-11.333 0 -22.333 2.16699 -33 6.5s-20 10.333 -28 18s-14.5 16.834 -19.5 27.501s-7.5 22 -7.5 34s2.33301 23.833 7 35.5s11.334 22 20.001 31s18.667 16.167 30 21.5
s23.666 8 36.999 8c34 0 60.667 -11.167 80 -33.5s29 -51.5 29 -87.5z" />
    <glyph glyph-name="bullet" unicode="&#x2022;" horiz-adv-x="737" 
d="M676 410c0 -42.667 -8 -82.667 -24 -120s-37.833 -70 -65.5 -98s-60.167 -50 -97.5 -66s-77.333 -24 -120 -24s-82.667 8 -120 24s-70 38 -98 66s-50 60.667 -66 98s-24 77.333 -24 120s8 82.667 24 120s38 69.833 66 97.5s60.667 49.5 98 65.5s77.333 24 120 24
s82.667 -8 120 -24s69.833 -37.833 97.5 -65.5s49.5 -60.167 65.5 -97.5s24 -77.333 24 -120z" />
    <glyph glyph-name="ellipsis" unicode="&#x2026;" horiz-adv-x="989" 
d="M907 72c0 -22.667 -8.33301 -42 -25 -58s-36.334 -24 -59.001 -24s-42 7.83301 -58 23.5s-24 35.167 -24 58.5c0 22.667 8 42.334 24 59.001s35.333 25 58 25s42.334 -8.33301 59.001 -25s25 -36.334 25 -59.001zM578 72c0 -22.667 -8.33301 -42 -25 -58
s-36.334 -24 -59.001 -24s-42 7.83301 -58 23.5s-24 35.167 -24 58.5c0 22.667 8 42.334 24 59.001s35.333 25 58 25s42.334 -8.33301 59.001 -25s25 -36.334 25 -59.001zM248 72c0 -22.667 -8.33301 -42 -25 -58s-36.334 -24 -59.001 -24s-42 7.83301 -58 23.5
s-24 35.167 -24 58.5c0 22.667 8 42.334 24 59.001s35.333 25 58 25s42.334 -8.33301 59.001 -25s25 -36.334 25 -59.001z" />
    <glyph glyph-name="thothannobasethai" unicode="&#xf700;" horiz-adv-x="735" 
d="M690 463c0 -81.333 -11.3359 -152.163 -34.0029 -212.496s-54 -110 -94 -149s-87.5 -67.333 -142.5 -85s-114.833 -24.5 -179.5 -20.5l-117 453l-41 63h145l103 -408c35.333 4 68 15 98 33s55.833 42.333 77.5 73s38.667 67.167 51 109.5s18.5 90.166 18.5 143.499
c0 42.667 -5.83301 80.5 -17.5 113.5s-28.334 61 -50.001 84s-47.5 40.5 -77.5 52.5s-63.333 18 -100 18c-58.667 0 -108.5 -11.667 -149.5 -35s-67.833 -58 -80.5 -104h-112c2.66699 32.667 12.834 63.667 30.501 93s41.5 55 71.5 77s65.333 39.5 106 52.5
s85.334 19.5 134.001 19.5c55.333 0 105.666 -9 150.999 -27c14.667 7.33301 28.334 17.666 41.001 30.999s19 27.666 19 42.999h125c0 -15.333 -3 -29.666 -9 -42.999s-13.667 -25.333 -23 -36s-19.666 -19.834 -30.999 -27.501s-22.666 -13.834 -33.999 -18.501
c38 -32 67.667 -72.167 89 -120.5s32 -105.833 32 -172.5z" />
    <glyph glyph-name="saraileftthai" unicode="&#xf701;" 
d="M-831 1012h563v-90h-563v90z" />
    <glyph glyph-name="saraiileftthai" unicode="&#xf702;" 
d="M-831 1012h448v104h115v-194h-563v90z" />
    <glyph glyph-name="saraueleftthai" unicode="&#xf703;" 
d="M-209 1024c0 -28 -10.667 -51.998 -32 -71.998s-49 -30 -83 -30h-507v90h389v12c0 14 2.83301 27.167 8.5 39.5s13.834 23.166 24.501 32.499s23.167 16.666 37.5 21.999s30.166 8 47.499 8c34 0 61.667 -10 83 -30s32 -44 32 -72zM-276 1024
c0 12.667 -4.83301 23 -14.5 31s-22.167 12 -37.5 12c-13.333 0 -24.5 -4 -33.5 -12s-13.5 -18.333 -13.5 -31c0 -13.333 4.5 -24.166 13.5 -32.499s20.167 -12.5 33.5 -12.5c15.333 0 27.833 4.16699 37.5 12.5s14.5 19.166 14.5 32.499z" />
    <glyph glyph-name="saraueeleftthai" unicode="&#xf704;" 
d="M-831 1012h272v104h115v-104h61v104h115v-194h-563v90z" />
    <glyph glyph-name="maieklowleftthai" unicode="&#xf705;" 
d="M-406 1116h115v-194h-115v194z" />
    <glyph glyph-name="maitholowleftthai" unicode="&#xf706;" 
d="M-389 961c0 34 -18.333 51 -55 51h-37v92h69c38 0 67 -7.33301 87 -22s30 -38 30 -70h315v-90h-409v39z" />
    <glyph glyph-name="maitrilowleftthai" unicode="&#xf707;" 
d="M-322 1008c0 36.667 -17.002 54.999 -51.002 54.999h-14l-96 -59l-99 59h-8c-17.333 0 -30.166 -5.33301 -38.499 -16s-12.5 -23.667 -12.5 -39v-4h61v-82h-157v94c0 22.667 4 42.334 12 59.001s18.833 30.667 32.5 42s29.834 19.833 48.501 25.5s38.667 8.5 60 8.5h13
l90 -55l88 55h14c44 0 80.333 -11.5 109 -34.5s43 -56.5 43 -100.5v-4h245v-90h-340v86z" />
    <glyph glyph-name="maichattawalowleftthai" unicode="&#xf708;" 
d="M-340 922h-115v98h-98v86h98v98h115v-98h98v-86h-98v-98z" />
    <glyph glyph-name="thanthakhatlowleftthai" unicode="&#xf709;" 
d="M-338 1006c-21.333 0 -38.668 -6 -52.001 -18s-20 -27.333 -20 -46v-20h-114v47c0 22.667 3.83301 42.667 11.5 60s18.334 31.833 32.001 43.5s29.5 20.5 47.5 26.5s37.333 9 58 9h137v-102h-100v0z" />
    <glyph glyph-name="maieklowrightthai" unicode="&#xf70a;" 
d="M-176 1116h115v-194h-115v194z" />
    <glyph glyph-name="maitholowrightthai" unicode="&#xf70b;" 
d="M-291 961c0 34 -18.333 51 -55 51h-37v92h70c36.667 0 65.167 -7.33301 85.5 -22s30.5 -38 30.5 -70h244v-90h-338v39z" />
    <glyph glyph-name="maitrilowrightthai" unicode="&#xf70c;" 
d="M-233 1008c0 36.667 -17.335 54.999 -52.002 54.999h-14l-96 -59l-99 59h-8c-17.333 0 -30.166 -5.33301 -38.499 -16s-12.5 -23.667 -12.5 -39v-4h61v-82h-157v94c0 22.667 4 42.334 12 59.001s18.833 30.667 32.5 42s29.834 19.833 48.501 25.5s38.667 8.5 60 8.5h13
l90 -55l88 55h14c44 0 80.333 -11.5 109 -34.5s43 -56.5 43 -100.5v-4h96v-90h-190v86z" />
    <glyph glyph-name="maichattawalowrightthai" unicode="&#xf70d;" 
d="M-160 922h-114v98h-99v86h99v98h114v-98h99v-86h-99v-98z" />
    <glyph glyph-name="thanthakhatlowrightthai" unicode="&#xf70e;" 
d="M-141 1006c-21.333 0 -38.667 -6 -52 -18s-20 -27.333 -20 -46v-20h-115v47c0 22.667 4 42.667 12 60s18.833 31.833 32.5 43.5s29.5 20.5 47.5 26.5s37.333 9 58 9h137v-102h-100v0z" />
    <glyph glyph-name="yoyingnobasethai" unicode="&#xf70f;" horiz-adv-x="1278" 
d="M1217 229c0 -47.333 -9.33301 -86.3301 -28 -116.997s-42.5 -55.334 -71.5 -74.001s-61 -31.667 -96 -39s-68.833 -11 -101.5 -11c-33.333 0 -67.5 3.66699 -102.5 11s-66.833 20.333 -95.5 39s-52.334 43.334 -71.001 74.001s-28 69.667 -28 117v328
c0 30.667 -5.83301 57 -17.5 79s-27.834 40 -48.501 54s-45.167 24.333 -73.5 31s-59.166 10 -92.499 10c-30.667 0 -59.334 -3.16699 -86.001 -9.5s-50.167 -14.833 -70.5 -25.5s-36.833 -22.667 -49.5 -36s-20.334 -27.333 -23.001 -42l20.5 -15.5
c7.66699 -5.66699 15 -12 22 -19s12.833 -14.667 17.5 -23s7 -16.833 7 -25.5c0 -12 -2.83301 -22.5 -8.5 -31.5s-11.667 -17.833 -18 -26.5s-12.333 -17.834 -18 -27.501s-8.5 -21.5 -8.5 -35.5v-312h148v-102h-263v422c0 12.667 3.33301 23.667 10 33s14 17.833 22 25.5
s15.333 15.167 22 22.5s10 15.666 10 24.999c0 8 -4.5 16.167 -13.5 24.5s-18.833 16.166 -29.5 23.499l-20.5 12c-7 4 -14.5 8 -22.5 12c2.66699 36 14.334 68.333 35.001 97s47.334 53.167 80.001 73.5s69.667 36 111 47s84 16.5 128 16.5c44.667 0 87.667 -5 129 -15
s78 -25.833 110 -47.5s57.5 -49.167 76.5 -82.5s28.5 -73.333 28.5 -120v-323c0 -30.667 5.33301 -56 16 -76s24.5 -36 41.5 -48s36.5 -20.333 58.5 -25s44.333 -7 67 -7s44.834 2.33301 66.501 7s41 13 58 25s30.833 28 41.5 48s16 45.333 16 76v573h115v-590v0z" />
    <glyph glyph-name="maihanakatleftthai" unicode="&#xf710;" 
d="M-565 1081h114v-69h469v-90h-583v159z" />
    <glyph glyph-name="nikhahitleftthai" unicode="&#xf711;" 
d="M-207 1020c0 -32 -11 -57.833 -33 -77.5s-50 -29.5 -84 -29.5s-61.833 9.83301 -83.5 29.5s-32.5 45.5 -32.5 77.5c0 30.667 10.833 56 32.5 76s49.5 30 83.5 30s62 -10 84 -30s33 -45.333 33 -76zM-274 1020c0 12 -5 22.5 -15 31.5s-21.667 13.5 -35 13.5
s-24.833 -4.5 -34.5 -13.5s-14.5 -19.5 -14.5 -31.5c0 -12.667 4.83301 -23.334 14.5 -32.001s21.167 -13 34.5 -13s25 4.33301 35 13s15 19.334 15 32.001z" />
    <glyph glyph-name="maitaikhuleftthai" unicode="&#xf712;" 
d="M-600 1110c-34 0 -60.666 -4.83301 -79.999 -14.5s-29 -25.167 -29 -46.5c0 -6.66699 0.833008 -12.334 2.5 -17.001s3.83398 -8.66699 6.50098 -12c2.66699 -4 6 -7.33301 10 -10h82l174 73l196 -79v-95l-194 82l-162 -69h-141c-16.667 10 -32.5 25.167 -47.5 45.5
s-22.5 47.5 -22.5 81.5c0 20.667 4.5 40.334 13.5 59.001s22.167 34.667 39.5 48s38.666 24 63.999 32s54.666 12 87.999 12h395v-90h-395v0z" />
    <glyph glyph-name="maiekupperleftthai" unicode="&#xf713;" 
d="M-383 1331h115v-153h-115v153z" />
    <glyph glyph-name="maithoupperleftthai" unicode="&#xf714;" 
d="M-455 1212c0 32 -16.333 48.001 -49 48.001h-35v81h64c32.667 0 58.167 -6.33301 76.5 -19s27.5 -33.334 27.5 -62.001h219v-82h-303v34z" />
    <glyph glyph-name="maitriupperleftthai" unicode="&#xf715;" 
d="M-193 1255c0 15.333 -3.66895 27.502 -11.002 36.502s-18.666 13.5 -33.999 13.5h-14l-86 -54l-88 54h-8c-15.333 0 -26.666 -4.66699 -33.999 -14s-11 -21.333 -11 -36v-4h55v-73h-141v86c0 39.333 13 69.166 39 89.499s58.667 30.5 98 30.5h12l80 -49l80 49h12
c40 0 73 -10.333 99 -31s39 -50.334 39 -89.001v-4h86v-82h-173v77z" />
    <glyph glyph-name="maichattawaupperleftthai" unicode="&#xf716;" 
d="M-279 1178h-94v77h-88v68h88v78h94v-78h89v-68h-89v-77z" />
    <glyph glyph-name="thanthakhatupperleftthai" unicode="&#xf717;" 
d="M-299 1190c-19.333 0 -35.166 -5.50293 -47.499 -16.5029s-18.5 -24.5 -18.5 -40.5v-19h-102v41c0 20.667 3.5 38.834 10.5 54.501s16.667 28.834 29 39.501s26.666 18.834 42.999 24.501s33.833 8.5 52.5 8.5h123v-92h-90v0z" />
    <glyph glyph-name="saraulowthai" unicode="&#xf718;" 
d="M-176 -438h-62v90h177v-246h-115v156z" />
    <glyph glyph-name="sarauulowthai" unicode="&#xf719;" 
d="M-61 -479c0 -22 -4.50098 -41.3311 -13.501 -57.998s-21.667 -30.834 -38 -42.501s-35.666 -20.334 -57.999 -26.001s-46.833 -8.5 -73.5 -8.5c-56.667 0 -101.167 11.5 -133.5 34.5s-48.5 56.5 -48.5 100.5v41h-41v90h156v-125c0 -21.333 6.83301 -35.5 20.5 -42.5
s29.167 -10.5 46.5 -10.5s33 3.5 47 10.5s21 21.167 21 42.5v125h115v-131v0z" />
    <glyph glyph-name="phinthulowthai" unicode="&#xf71a;" 
d="M-61 -432c0 -23.333 -8.16699 -43.166 -24.5 -59.499s-36.166 -24.5 -59.499 -24.5c-24 0 -44 8.16699 -60 24.5s-24 36.166 -24 59.499s8 43.166 24 59.499s36 24.5 60 24.5c23.333 0 43.166 -8.16699 59.499 -24.5s24.5 -36.166 24.5 -59.499z" />
    <glyph glyph-name="F71B" unicode="&#xf71b;" 
 />
    <glyph glyph-name="F71C" unicode="&#xf71c;" 
 />
    <glyph glyph-name="lochula.short" unicode="&#xf71d;" 
 />
    <glyph glyph-name="fongmanfunnuthai" unicode="&#xf880;" 
 />
    <glyph glyph-name=".null" 
 />
    <glyph glyph-name="nonmarkingreturn" horiz-adv-x="492" 
 />
    <glyph glyph-name="uni0E33_1" horiz-adv-x="420" 
d="M-207 1020c0 -32 -11 -57.833 -33 -77.5s-50 -29.5 -84 -29.5s-61.833 9.83301 -83.5 29.5s-32.5 45.5 -32.5 77.5c0 30.667 10.833 56 32.5 76s49.5 30 83.5 30s62 -10 84 -30s33 -45.333 33 -76zM244 614c0 24 -6.16895 43.6641 -18.502 58.9971
s-29.166 26.833 -50.499 34.5s-46.166 11.834 -74.499 12.501s-58.5 -1.66602 -90.5 -6.99902v104c42.667 6.66699 84.667 8.83398 126 6.50098s78.5 -10.333 111.5 -24s59.667 -33.667 80 -60s30.5 -60.5 30.5 -102.5v-637h-114v614zM-274.002 1020c0 12 -5 22.5 -15 31.5
s-21.667 13.5 -35 13.5s-24.833 -4.5 -34.5 -13.5s-14.5 -19.5 -14.5 -31.5c0 -12.667 4.83301 -23.334 14.5 -32.001s21.167 -13 34.5 -13s25 4.33301 35 13s15 19.334 15 32.001z" />
    <glyph glyph-name="uni0E4E_1" 
d="M-45 1337c-33.333 4 -67.6621 5.49609 -102.995 4.49609s-67.5 -4.66699 -96.5 -11s-52.833 -15.5 -71.5 -27.5s-28 -27.333 -28 -46c0 -11.333 3.5 -19.666 10.5 -24.999s16.333 -9.16602 28 -11.499s24.667 -3.5 39 -3.5h43.5v-95c-32 4 -63 5 -93 3
s-56.833 -6.5 -80.5 -13.5s-42.667 -16.333 -57 -28s-21.5 -24.834 -21.5 -39.501c0 -11.333 5 -18.833 15 -22.5s21.333 -5.5 34 -5.5c24.667 0 46.167 3.33301 64.5 10s35.833 14.334 52.5 23.001l49 -82c-10.667 -6 -23.167 -12.167 -37.5 -18.5
s-29.833 -11.666 -46.5 -15.999s-34.5 -7.66602 -53.5 -9.99902s-38.833 -2.5 -59.5 -0.5c-40 4 -70.833 16.667 -92.5 38s-33.167 45.333 -34.5 72c-0.666992 14 1.16602 27.5 5.49902 40.5s10.666 25 18.999 36s18.166 21 29.499 30s23.333 16.5 36 22.5
c10.667 6.66699 24.167 12.167 40.5 16.5s30.166 7.16602 41.499 8.49902c-16 8 -27.167 18.667 -33.5 32s-9.5 27.333 -9.5 42c0 13.333 3.16699 27 9.5 41s15.166 27.5 26.499 40.5s24.833 25.167 40.5 36.5s33.167 21 52.5 29c22 8.66699 46.167 15.334 72.5 20.001
s52.5 8 78.5 10s50.5 2.83301 73.5 2.5s41.833 -0.833008 56.5 -1.5v-101v0z" />
    <glyph glyph-name="F881" 
 />
    <glyph glyph-name="F882" 
 />
    <glyph glyph-name="saraueesp2" 
d="M-473 1331h115v-153h-115v153zM-831 1012h272v104h115v-104h61v104h115v-194h-563v90z" />
    <glyph glyph-name="saraisp" 
d="M-819 1052h583v-90h-583v90z" />
    <glyph glyph-name="saraiisp" 
d="M-819 1052h469v105h114v-195h-583v90z" />
    </font>
</defs>
</svg>
