<?xml version="1.0" standalone="no"?>
<!DOCTYPE svg PUBLIC "-//W3C//DTD SVG 1.1//EN" "http://www.w3.org/Graphics/SVG/1.1/DTD/svg11.dtd" >
<svg>
<metadata>
Created by FontForge 20090914 at Wed Aug 24 15:12:16 2016
 By www-data
Copyright (c) Phanlop Thongsuk, 1995-2009. All rights reserved.
</metadata>
<defs>
<font id="PSLKandaExtraPro" horiz-adv-x="0" >
  <font-face 
    font-family="PSL KandaExtra Pro (กานดา)"
    font-weight="400"
    font-stretch="normal"
    units-per-em="2048"
    panose-1="2 0 5 6 0 0 0 2 0 4"
    ascent="1638"
    descent="-410"
    x-height="698"
    cap-height="965"
    bbox="-956 -625 1499 1599"
    underline-thickness="72"
    underline-position="-123"
    unicode-range="U+0020-U+F880"
  />
<missing-glyph horiz-adv-x="1599" 
d="M100 0v1599h1399v-1599h-1399zM1401 100v1399h-1200v-1399h1200z" />
    <glyph glyph-name="saraueesp1" unicode="&#xe37;&#xe48;" 
d="M-727 922v110h313v105h115v-105h61v105h177v-215h-666zM-328 1198v174h176v-174h-176z" />
    <glyph glyph-name=".notdef" horiz-adv-x="1599" 
d="M100 0v1599h1399v-1599h-1399zM1401 100v1399h-1200v-1399h1200z" />
    <glyph glyph-name="space" unicode=" " horiz-adv-x="512" 
 />
    <glyph glyph-name="space" unicode="&#xa0;" horiz-adv-x="512" 
 />
    <glyph glyph-name="exclam" unicode="!" horiz-adv-x="391" 
d="M246 287h-96l-46 418v260h185v-260zM303 98c0 -32 -10 -58 -30 -78s-45.333 -30 -76 -30c-31.333 0 -57 10 -77 30s-30 46 -30 78c0 31.333 10 57 30 77s45.667 30 77 30c30.667 0 56 -10 76 -30s30 -45.667 30 -77z" />
    <glyph glyph-name="quotedbl" unicode="&#x22;" horiz-adv-x="616" 
d="M350 584v381h154v-381h-154zM113 584v381h153v-381h-153z" />
    <glyph glyph-name="numbersign" unicode="#" horiz-adv-x="768" 
d="M594 551l-21 -156h113v-114h-129l-41 -281h-127l41 281h-131l-41 -281h-127l39 281h-125v114h143l23 156h-125v115h139l39 280h129l-41 -280h131l39 280h129l-41 -280h115v-115h-131zM336 551l-21 -156h131l23 156h-133z" />
    <glyph glyph-name="dollar" unicode="$" horiz-adv-x="768" 
d="M745 283c0 -50 -8.33398 -93.6631 -25.001 -130.996s-39.334 -68.666 -68.001 -93.999s-62.667 -44.833 -102 -58.5s-81.333 -21.834 -126 -24.501v-104h-74v104c-48.667 2 -93.167 10.5 -133.5 25.5s-75 36.333 -104 64s-51.333 61.334 -67 101.001
s-23.167 85.5 -22.5 137.5h170c0 -58.667 12.333 -104.334 37 -137.001s64.667 -51 120 -55v309c-37.333 10.667 -74.333 23.167 -111 37.5s-69.5 32.666 -98.5 54.999s-52.5 50.166 -70.5 83.499s-27 74.333 -27 123c0 42.667 8.33301 80.667 25 114s39.167 61.333 67.5 84
s61 40 98 52s75.833 18.667 116.5 20v105h74v-105c40.667 -0.666992 79.167 -6.66699 115.5 -18s67.833 -28.333 94.5 -51s47.834 -51.167 63.501 -85.5s23.5 -74.833 23.5 -121.5h-170c-2 45.333 -13.167 79.833 -33.5 103.5s-51.5 36.167 -93.5 37.5v-268
c41.333 -10.667 81.333 -23.334 120 -38.001s72.834 -33.5 102.501 -56.5s53.5 -51.333 71.5 -85s27 -74.834 27 -123.501zM349.999 854.004c-44 -1.33301 -77.833 -11.5 -101.5 -30.5s-35.5 -50.5 -35.5 -94.5c0 -19.333 4 -36 12 -50s18.5 -25.833 31.5 -35.5
s27.667 -17.667 44 -24s32.833 -11.5 49.5 -15.5v250zM572.999 262.004c0 22.667 -4.16699 42 -12.5 58s-19.5 29.5 -33.5 40.5s-30 20 -48 27s-36.333 13.167 -55 18.5v-295c44 4 79.833 17.833 107.5 41.5s41.5 60.167 41.5 109.5z" />
    <glyph glyph-name="percent" unicode="%" horiz-adv-x="1368" 
d="M1257 254c0 -37.333 -4.16797 -72.5 -12.501 -105.5s-21.833 -61.833 -40.5 -86.5s-42.667 -44.167 -72 -58.5s-65.333 -21.5 -108 -21.5s-78.834 7.16699 -108.501 21.5s-54 33.833 -73 58.5s-32.833 53.5 -41.5 86.5s-13 68.167 -13 105.5
c0 36.667 4.5 71.5 13.5 104.5s23 61.833 42 86.5s43.5 44.334 73.5 59.001s65.667 22 107 22c40.667 0 75.834 -7.33301 105.501 -22s53.834 -34.334 72.501 -59.001s32.5 -53.5 41.5 -86.5s13.5 -67.833 13.5 -104.5zM470.999 -33h-125l533 1012h122zM579.999 692
c0 -37.333 -4.33105 -72.5 -12.998 -105.5s-22.5 -61.833 -41.5 -86.5s-43.333 -44.167 -73 -58.5s-65.834 -21.5 -108.501 -21.5s-78.834 7.16699 -108.501 21.5s-53.667 33.833 -72 58.5s-31.666 53.5 -39.999 86.5s-12.5 68.167 -12.5 105.5
c0 36.667 4.5 71.667 13.5 105s22.833 62.333 41.5 87s42.667 44.334 72 59.001s64.666 22 105.999 22s77 -7.33301 107 -22s54.5 -34.334 73.5 -59.001s33 -53.667 42 -87s13.5 -68.333 13.5 -105zM1118 254c0 20.667 -1.33105 41.167 -3.99805 61.5s-7.5 38.5 -14.5 54.5
s-16.667 29 -29 39s-28.5 15 -48.5 15s-36.167 -5 -48.5 -15s-21.833 -23 -28.5 -39s-11.167 -34.167 -13.5 -54.5s-3.5 -40.833 -3.5 -61.5c0 -23.333 1.5 -45.333 4.5 -66s8.16699 -38.667 15.5 -54s17 -27.5 29 -36.5s27 -13.5 45 -13.5s33.167 4.5 45.5 13.5
s22.166 21.167 29.499 36.5s12.666 33.333 15.999 54s5 42.667 5 66zM440.003 692c0 21.333 -1.33105 42.166 -3.99805 62.499s-7.5 38.5 -14.5 54.5s-16.667 28.833 -29 38.5s-28.5 14.5 -48.5 14.5s-36.167 -4.83301 -48.5 -14.5s-21.833 -22.5 -28.5 -38.5
s-11.167 -34.167 -13.5 -54.5s-3.5 -41.166 -3.5 -62.499c0 -23.333 1.5 -45.333 4.5 -66s8.16699 -38.667 15.5 -54s17 -27.5 29 -36.5s27 -13.5 45 -13.5s33.167 4.5 45.5 13.5s22.166 21.167 29.499 36.5s12.666 33.333 15.999 54s5 42.667 5 66z" />
    <glyph glyph-name="ampersand" unicode="&#x26;" horiz-adv-x="893" 
d="M711 2l-84 97.999c-36 -41.333 -76.5 -71.333 -121.5 -90s-94.833 -28 -149.5 -28c-45.333 0 -87.166 6.5 -125.499 19.5s-71.333 31.833 -99 56.5s-49.334 55 -65.001 91s-23.5 77 -23.5 123c0 33.333 6.16699 64 18.5 92s28.666 53.333 48.999 76s43.5 43 69.5 61
s52.667 34 80 48l-35 46.5c-11.333 15.667 -21.166 31.834 -29.499 48.501s-15 34 -20 52s-7.5 37.333 -7.5 58c0 35.333 6.33301 67.333 19 96s30 53.167 52 73.5s47.833 36 77.5 47s61.5 16.5 95.5 16.5c32 0 63.167 -4.83301 93.5 -14.5s57 -24.167 80 -43.5
s41.5 -43.5 55.5 -72.5s21 -63.167 21 -102.5c0 -28 -4.66699 -54.167 -14 -78.5s-21.833 -46.833 -37.5 -67.5s-33.667 -39.167 -54 -55.5s-41.833 -30.5 -64.5 -42.5l135 -160c4 14.667 7.83301 31.167 11.5 49.5s7.16699 41.5 10.5 69.5h152
c-4 -45.333 -11.667 -88.333 -23 -129s-28.333 -77 -51 -109l195 -231zM506 757.999c0 28.667 -7.99902 52.501 -23.999 71.501s-38 28.5 -66 28.5c-12.667 0 -24.667 -2.33301 -36 -7s-21.333 -11.167 -30 -19.5s-15.5 -18.5 -20.5 -30.5s-7.5 -25 -7.5 -39
c0 -15.333 2.66699 -29.5 8 -42.5s12.166 -25.5 20.499 -37.5s17.166 -23.5 26.499 -34.5s18 -22.167 26 -33.5l38.5 28c12.333 9.33301 23.333 19.666 33 30.999s17.334 23.833 23.001 37.5s8.5 29.5 8.5 47.5zM352.001 436l-45 -23.999
c-16 -8.66699 -31 -19.334 -45 -32.001s-25.667 -28 -35 -46s-14 -40 -14 -66c0 -48 14 -85.167 42 -111.5s63 -39.5 105 -39.5c26 0 48.5 3.33301 67.5 10s35.167 15 48.5 25s24.333 20.667 33 32l23 31z" />
    <glyph glyph-name="quotesingle" unicode="'" horiz-adv-x="391" 
d="M119 584v381h153v-381h-153z" />
    <glyph glyph-name="parenleft" unicode="(" horiz-adv-x="391" 
d="M264 -256c-27.333 42.667 -53.001 87 -77.001 133s-45 94.5 -63 145.5s-32.167 104.833 -42.5 161.5s-15.5 117 -15.5 181c0 109.333 17.333 217 52 323s83.334 205.667 146.001 299h144c-56.667 -101.333 -99.167 -202.5 -127.5 -303.5s-42.5 -207.167 -42.5 -318.5
c0 -110.667 13.5 -216.667 40.5 -318s70.833 -203 131.5 -305z" />
    <glyph glyph-name="parenright" unicode=")" horiz-adv-x="391" 
d="M326 365c0 -110.667 -17.832 -218.833 -53.499 -324.5s-84.834 -205.167 -147.501 -298.5h-139c56 100.667 98.333 201.667 127 303s43 208 43 320c0 110 -13.833 215.667 -41.5 317s-71.167 203 -130.5 305h141c28 -42.667 54.167 -87 78.5 -133s45.5 -94.5 63.5 -145.5
s32.333 -105 43 -162s16 -117.5 16 -181.5z" />
    <glyph glyph-name="asterisk" unicode="*" horiz-adv-x="516" 
d="M342 719l94 -117l-84 -59l-96 123l-88 -123l-88 59l92 117l-147 51l34 98l146 -55v152h108v-152l144 55l39 -98z" />
    <glyph glyph-name="plus" unicode="+" horiz-adv-x="766" 
d="M449 274v-276h-134v276h-274v134h274v274h134v-274h276v-134h-276z" />
    <glyph glyph-name="comma" unicode="," horiz-adv-x="381" 
d="M311 74c0 -17.333 -2.50098 -35.833 -7.50098 -55.5s-13.167 -39.667 -24.5 -60s-26.333 -40.833 -45 -61.5s-41.334 -40.334 -68.001 -59.001l-74 31c18 12 33.333 24 46 36s23 23.5 31 34.5s14 20.833 18 29.5s6.66699 15.667 8 21
c-16 -0.666992 -31.167 1.5 -45.5 6.5s-26.666 12.333 -36.999 22s-18.666 21 -24.999 34s-9.5 27.5 -9.5 43.5c0 14.667 2.83301 28.834 8.5 42.501s13.5 25.5 23.5 35.5s21.833 18 35.5 24s28.5 9 44.5 9c38 0 67.667 -12.167 89 -36.5s32 -56.5 32 -96.5z" />
    <glyph glyph-name="hyphen" unicode="-" horiz-adv-x="543" 
d="M66 295v145h409v-145h-409z" />
    <glyph glyph-name="period" unicode="." horiz-adv-x="381" 
d="M299 98c0 -14.667 -2.83301 -28.5 -8.5 -41.5s-13.5 -24.5 -23.5 -34.5s-21.667 -17.833 -35 -23.5s-27.333 -8.5 -42 -8.5s-28.5 2.83301 -41.5 8.5s-24.5 13.5 -34.5 23.5s-17.833 21.5 -23.5 34.5s-8.5 26.833 -8.5 41.5s2.83301 28.667 8.5 42s13.5 25 23.5 35
s21.5 17.833 34.5 23.5s26.833 8.5 41.5 8.5s28.667 -2.83301 42 -8.5s25 -13.5 35 -23.5s17.833 -21.667 23.5 -35s8.5 -27.333 8.5 -42z" />
    <glyph glyph-name="slash" unicode="/" horiz-adv-x="492" 
d="M131 -23h-166l395 1010h166z" />
    <glyph glyph-name="zero" unicode="0" horiz-adv-x="766" 
d="M719 473c0 -36 -1.83301 -73 -5.5 -111s-10.167 -75.167 -19.5 -111.5s-22.166 -70.833 -38.499 -103.5s-36.833 -61.167 -61.5 -85.5s-54.334 -43.666 -89.001 -57.999s-75.334 -21.5 -122.001 -21.5c-46 0 -86.333 7.16699 -121 21.5s-64.334 33.666 -89.001 57.999
s-45 52.833 -61 85.5s-28.667 67.167 -38 103.5s-15.833 73.5 -19.5 111.5s-5.5 75 -5.5 111s1.83301 73 5.5 111s10.167 75.333 19.5 112s22 71.167 38 103.5s36.333 60.833 61 85.5s54.334 44.167 89.001 58.5s75 21.5 121 21.5c46.667 0 87.334 -7.16699 122.001 -21.5
s64.334 -33.833 89.001 -58.5s45.167 -53.167 61.5 -85.5s29.166 -66.833 38.499 -103.5s15.833 -74 19.5 -112s5.5 -75 5.5 -111zM549 473c0 46.667 -2.5 91.167 -7.5 133.5s-13.833 79.5 -26.5 111.5s-29.667 57.5 -51 76.5s-48.333 28.5 -81 28.5s-59.667 -9.5 -81 -28.5
s-38.166 -44.5 -50.499 -76.5s-20.833 -69.167 -25.5 -111.5s-7 -86.833 -7 -133.5s2.33301 -91.167 7 -133.5s13.167 -79.5 25.5 -111.5s29.166 -57.5 50.499 -76.5s48.333 -28.5 81 -28.5s59.667 9.5 81 28.5s38.333 44.5 51 76.5s21.5 69.167 26.5 111.5
s7.5 86.833 7.5 133.5z" />
    <glyph glyph-name="one" unicode="1" horiz-adv-x="766" 
d="M303 0l-0.000976562 655h-231v136c33.333 0 65.333 2.83301 96 8.5s58.334 14.667 83.001 27s45.667 28.333 63 48s29.333 43.5 36 71.5h139v-946h-186z" />
    <glyph glyph-name="two" unicode="2" horiz-adv-x="766" 
d="M717 670c0 -37.333 -6.00391 -71.334 -18.0039 -102.001s-28 -59 -48 -85s-43 -49.667 -69 -71s-52.667 -41.333 -80 -60l-77.5 -50c-25.667 -16 -49.5 -32.167 -71.5 -48.5s-41.333 -32.833 -58 -49.5s-29 -34 -37 -52h457v-152h-662c0 40.667 5 78.667 15 114
s24.333 68.166 43 98.499s40.834 58.333 66.501 84s54.5 49.167 86.5 70.5l96 62c33.333 20.667 63.666 42.667 90.999 66s50 48.833 68 76.5s27.333 59.167 28 94.5c0.666992 16 -1 33.167 -5 51.5s-11.667 35.333 -23 51s-27 28.667 -47 39s-45.667 15.5 -77 15.5
c-30 0 -55.167 -5.66699 -75.5 -17s-36.666 -26.166 -48.999 -44.499s-20.666 -39 -24.999 -62s-5.5 -45.833 -3.5 -68.5h-172c-2 50 4 95.5 18 136.5s35 76.167 63 105.5s62.833 52 104.5 68s89.5 24 143.5 24c60.667 0 111.334 -9.16699 152.001 -27.5
s73.334 -41.666 98.001 -69.999s42.167 -60 52.5 -95s15.5 -69.167 15.5 -102.5z" />
    <glyph glyph-name="three" unicode="3" horiz-adv-x="766" 
d="M725 274c0 -45.333 -9.16797 -85.9951 -27.501 -121.995s-43.166 -66.5 -74.499 -91.5s-67.666 -44.333 -108.999 -58s-85 -20.5 -131 -20.5c-56 0 -105.333 8 -148 24s-78.334 37.667 -107.001 65s-50.334 59 -65.001 95s-22 74.333 -22 115h172
c0.666992 -20.667 4.5 -40.5 11.5 -59.5s17.5 -35.833 31.5 -50.5s31.5 -26.334 52.5 -35.001s45.833 -13 74.5 -13c24.667 0 47.5 3.33301 68.5 10s39.167 16.834 54.5 30.501s27.333 30.5 36 50.5s13 43 13 69c0 34 -7 61.167 -21 81.5s-32.5 35.5 -55.5 45.5
s-49.333 16.167 -79 18.5s-60.5 2.83301 -92.5 1.5v131c27.333 -1.33301 53.666 0.166992 78.999 4.5s47.833 11.666 67.5 21.999s35.334 24.5 47.001 42.5s17.5 40.667 17.5 68c0 38 -13.167 68.333 -39.5 91s-59.5 34 -99.5 34c-26 0 -48.333 -4.66699 -67 -14
s-34.167 -21.166 -46.5 -35.499s-21.5 -30.333 -27.5 -48s-9 -34.834 -9 -51.501h-170c0 39.333 7.66699 76.666 23 111.999s37 66.166 65 92.499s61.833 47.333 101.5 63s83.834 23.5 132.501 23.5c38 0 75.333 -5.33301 112 -16s69.5 -26.667 98.5 -48s52.333 -48 70 -80
s26.5 -69.333 26.5 -112c0 -46.667 -11 -87.334 -33 -122.001s-52.667 -60.334 -92 -77.001c24 -6 46 -16.333 66 -31s37 -32.167 51 -52.5s25 -43.5 33 -69.5s12 -53.667 12 -83z" />
    <glyph glyph-name="four" unicode="4" horiz-adv-x="766" 
d="M604 221v-221h-166v221h-405v160l409 565h162v-590h119v-135h-119zM438 739l-264 -383h264v383z" />
    <glyph glyph-name="five" unicode="5" horiz-adv-x="766" 
d="M723 322c0 -38.667 -6.33105 -78.0049 -18.998 -118.005s-32.5 -76.5 -59.5 -109.5s-61.833 -60 -104.5 -81s-93.667 -31.5 -153 -31.5c-46.667 0 -90.334 6.16699 -131.001 18.5s-76.167 30.833 -106.5 55.5s-54.666 55.834 -72.999 93.501s-28.166 81.5 -29.499 131.5
h170c5.33301 -52 22.5 -91.333 51.5 -118s67.167 -40 114.5 -40c31.333 0 57.666 5.16699 78.999 15.5s38.666 24.333 51.999 42s22.833 38.334 28.5 62.001s8.5 49.167 8.5 76.5c0 24.667 -3.33301 48.334 -10 71.001s-17 42.5 -31 59.5s-31.833 30.667 -53.5 41
s-47.5 15.5 -77.5 15.5c-15.333 0 -30.333 -1.16699 -45 -3.5s-28.5 -6.83301 -41.5 -13.5s-24.667 -15.5 -35 -26.5s-18.5 -25.167 -24.5 -42.5h-170l105 526h504v-151h-377l-39 -207c19.333 16.667 43.666 30 72.999 40s59 15 89 15c48 0 90.833 -8.16699 128.5 -24.5
s69.667 -38.666 96 -66.999s46.333 -62.166 60 -101.499s20.5 -82 20.5 -128z" />
    <glyph glyph-name="six" unicode="6" horiz-adv-x="766" 
d="M723 305c0 -45.333 -7.83008 -87.668 -23.4971 -127.001s-37.667 -73.5 -66 -102.5s-62.5 -51.833 -102.5 -68.5s-84 -25 -132 -25c-71.333 0 -129.833 12.667 -175.5 38s-81.667 60.333 -108 105s-44.666 96.834 -54.999 156.501s-15.5 124.167 -15.5 193.5
c0 38 2.66699 76.333 8 115s14.166 76.167 26.499 112.5s28 70.5 47 102.5s42 59.833 69 83.5s58.5 42.334 94.5 56.001s76.667 20.5 122 20.5c38 0 74.333 -6.5 109 -19.5s65.167 -31.167 91.5 -54.5s47.833 -51.833 64.5 -85.5s26 -70.834 28 -111.501h-170
c-4.66699 40 -18.334 71.5 -41.001 94.5s-53 34.5 -91 34.5s-68.833 -9.5 -92.5 -28.5s-42 -43 -55 -72s-22.167 -60.5 -27.5 -94.5s-9 -66 -11 -96c18.667 30 46.167 53.667 82.5 71s75.166 26 116.499 26c47.333 0 90 -8.33301 128 -25s70.167 -39.5 96.5 -68.5
s46.666 -63.167 60.999 -102.5s21.5 -82 21.5 -128zM551.003 308.998c0 24 -3.16699 47.165 -9.5 69.498s-16 41.833 -29 58.5s-29.5 30 -49.5 40s-43.333 15 -70 15c-27.333 0 -51 -4.83301 -71 -14.5s-36.833 -22.667 -50.5 -39s-23.834 -35.666 -30.501 -57.999
s-10 -46.166 -10 -71.499c0 -24 3.33301 -47.167 10 -69.5s16.834 -42.166 30.501 -59.499s30.5 -31.166 50.5 -41.499s43.667 -15.5 71 -15.5c26.667 0 50 5.16699 70 15.5s36.5 24.166 49.5 41.499s22.667 37.166 29 59.499s9.5 45.5 9.5 69.5z" />
    <glyph glyph-name="seven" unicode="7" horiz-adv-x="766" 
d="M711 809c-48.667 -54 -93.334 -110.5 -134.001 -169.5s-76.167 -121.667 -106.5 -188s-55.166 -136.833 -74.499 -211.5s-32 -154.667 -38 -240h-186c5.33301 74 18 147 38 219s45.667 141.667 77 209s67.5 131.833 108.5 193.5s85.167 119.5 132.5 173.5h-481v151h664
v-137v0z" />
    <glyph glyph-name="eight" unicode="8" horiz-adv-x="766" 
d="M725 283c0 -46.667 -8.49902 -88.667 -25.499 -126s-40.833 -69 -71.5 -95s-66.834 -45.833 -108.501 -59.5s-87.167 -20.5 -136.5 -20.5c-48.667 0 -93.834 6.83301 -135.501 20.5s-77.834 33.5 -108.501 59.5s-54.667 57.667 -72 95s-26 79.333 -26 126
c0 57.333 14.167 105.666 42.5 144.999s66.833 67.333 115.5 84c-39.333 20.667 -68.666 47 -87.999 79s-29 69 -29 111c0 82.667 25.833 147.167 77.5 193.5s126.167 69.5 223.5 69.5c98 0 173 -23.167 225 -69.5s78 -110.833 78 -193.5c0 -42 -9.66699 -79 -29 -111
s-48.666 -58.333 -87.999 -79c48 -16.667 86 -44.667 114 -84s42 -87.666 42 -144.999zM524.001 694c0 43.333 -13.499 76.668 -40.499 100.001s-60.5 35 -100.5 35c-19.333 0 -37.5 -3 -54.5 -9s-31.833 -14.833 -44.5 -26.5s-22.5 -25.834 -29.5 -42.501
s-10.5 -35.667 -10.5 -57c0 -41.333 13.167 -73.166 39.5 -95.499s59.5 -33.5 99.5 -33.5c41.333 0 75.166 11.167 101.499 33.5s39.5 54.166 39.5 95.499zM555.002 283.002c0 24.667 -4.33301 46.5 -13 65.5s-20.5 35 -35.5 48s-33.167 22.833 -54.5 29.5
s-44.333 10 -69 10s-47.334 -3.33301 -68.001 -10s-38.5 -16.5 -53.5 -29.5s-26.833 -29 -35.5 -48s-13 -40.833 -13 -65.5c0 -26.667 4.33301 -50.334 13 -71.001s20.5 -38 35.5 -52s32.833 -24.667 53.5 -32s43.334 -11 68.001 -11s47.667 3.66699 69 11s39.5 18 54.5 32
s26.833 31.333 35.5 52s13 44.334 13 71.001z" />
    <glyph glyph-name="nine" unicode="9" horiz-adv-x="766" 
d="M723 471c0 -56.667 -6.33301 -114.003 -19 -172.003s-33.334 -110.5 -62.001 -157.5s-66.5 -85.333 -113.5 -115s-104.5 -44.5 -172.5 -44.5c-38 0 -74.333 6.33301 -109 19s-65.167 30.834 -91.5 54.501s-47.833 52 -64.5 85s-26 70.167 -28 111.5h170
c4.66699 -40 18.334 -71.5 41.001 -94.5s53 -34.5 91 -34.5s68.5 9.33301 91.5 28s41 42.334 54 71.001s22.167 59.667 27.5 93s9 65 11 95c-19.333 -28 -46.5 -50.5 -81.5 -67.5s-73.5 -25.5 -115.5 -25.5c-45.333 0 -86.833 7.66699 -124.5 23s-70 37 -97 65
s-48 61.833 -63 101.5s-22.5 83.834 -22.5 132.501c0 46 7.5 88.833 22.5 128.5s36.833 74.167 65.5 103.5s63.667 52.333 105 69s88.333 25 141 25c68 0 124.167 -12.667 168.5 -38s79.5 -60.333 105.5 -105s44.167 -97 54.5 -157s15.5 -124.667 15.5 -194zM537 640.997
c0 24 -3.33301 47 -10 69s-16.834 41.333 -30.501 58s-30.834 30 -51.501 40s-44.667 15 -72 15s-50.833 -5 -70.5 -15s-35.834 -23.333 -48.501 -40s-22 -36 -28 -58s-9 -45 -9 -69c0 -24.667 3 -48.334 9 -71.001s15.333 -42.667 28 -60s28.834 -31.166 48.501 -41.499
s43.167 -15.5 70.5 -15.5s51.333 5.16699 72 15.5s37.834 24 51.501 41s23.834 36.833 30.501 59.5s10 46.667 10 72z" />
    <glyph glyph-name="colon" unicode=":" horiz-adv-x="381" 
d="M299 557c0 -14.667 -2.83301 -28.5 -8.5 -41.5s-13.5 -24.5 -23.5 -34.5s-21.667 -17.833 -35 -23.5s-27.333 -8.5 -42 -8.5s-28.5 2.83301 -41.5 8.5s-24.5 13.5 -34.5 23.5s-17.833 21.5 -23.5 34.5s-8.5 26.833 -8.5 41.5s2.83301 28.667 8.5 42s13.5 25 23.5 35
s21.5 17.833 34.5 23.5s26.833 8.5 41.5 8.5s28.667 -2.83301 42 -8.5s25 -13.5 35 -23.5s17.833 -21.667 23.5 -35s8.5 -27.333 8.5 -42zM299 98c0 -14.667 -2.83301 -28.5 -8.5 -41.5s-13.5 -24.5 -23.5 -34.5s-21.667 -17.833 -35 -23.5s-27.333 -8.5 -42 -8.5
s-28.5 2.83301 -41.5 8.5s-24.5 13.5 -34.5 23.5s-17.833 21.5 -23.5 34.5s-8.5 26.833 -8.5 41.5s2.83301 28.667 8.5 42s13.5 25 23.5 35s21.5 17.833 34.5 23.5s26.833 8.5 41.5 8.5s28.667 -2.83301 42 -8.5s25 -13.5 35 -23.5s17.833 -21.667 23.5 -35
s8.5 -27.333 8.5 -42z" />
    <glyph glyph-name="semicolon" unicode=";" horiz-adv-x="381" 
d="M299 557c0 -14.667 -2.83301 -28.5 -8.5 -41.5s-13.5 -24.5 -23.5 -34.5s-21.667 -17.833 -35 -23.5s-27.333 -8.5 -42 -8.5s-28.5 2.83301 -41.5 8.5s-24.5 13.5 -34.5 23.5s-17.833 21.5 -23.5 34.5s-8.5 26.833 -8.5 41.5s2.83301 28.667 8.5 42s13.5 25 23.5 35
s21.5 17.833 34.5 23.5s26.833 8.5 41.5 8.5s28.667 -2.83301 42 -8.5s25 -13.5 35 -23.5s17.833 -21.667 23.5 -35s8.5 -27.333 8.5 -42zM311 74c0 -17.333 -2.50098 -35.833 -7.50098 -55.5s-13.167 -39.667 -24.5 -60s-26.333 -40.833 -45 -61.5
s-41.334 -40.334 -68.001 -59.001l-74 31c18 12 33.333 24 46 36s23 23.5 31 34.5s14 20.833 18 29.5s6.66699 15.667 8 21c-16 -0.666992 -31.167 1.5 -45.5 6.5s-26.666 12.333 -36.999 22s-18.666 21 -24.999 34s-9.5 27.5 -9.5 43.5c0 14.667 2.83301 28.834 8.5 42.501
s13.5 25.5 23.5 35.5s21.833 18 35.5 24s28.5 9 44.5 9c38 0 67.667 -12.167 89 -36.5s32 -56.5 32 -96.5z" />
    <glyph glyph-name="less" unicode="&#x3c;" horiz-adv-x="827" 
d="M61 289v106l705 299v-151l-492 -201l492 -201v-151z" />
    <glyph glyph-name="equal" unicode="=" horiz-adv-x="766" 
d="M41 408v133h684v-133h-684zM41 141v133h684v-133h-684z" />
    <glyph glyph-name="greater" unicode="&#x3e;" horiz-adv-x="827" 
d="M61 -10v151l492 201l-492 201v151l705 -299v-106z" />
    <glyph glyph-name="question" unicode="?" horiz-adv-x="768" 
d="M702 711c0 -30.667 -3.50488 -57.499 -10.5049 -80.499s-16.333 -43.333 -28 -61s-24.667 -33.167 -39 -46.5l-42.5 -38l-47 -39c-14.667 -12.667 -27.5 -26.667 -38.5 -42s-19.667 -33 -26 -53s-8.83301 -44 -7.5 -72h-162
c-1.33301 34.667 0.333984 65.167 5.00098 91.5s11.667 49.666 21 69.999s21 38.666 35 54.999s30 32.166 48 47.499l40 35c12.667 11.333 23.834 23.5 33.501 36.5s17.5 26.833 23.5 41.5s9 31 9 49c0 46 -11.833 81 -35.5 105s-53.5 36 -89.5 36
c-26.667 0 -49.667 -4.83301 -69 -14.5s-35.166 -22.5 -47.499 -38.5s-21.5 -34.833 -27.5 -56.5s-9 -44.5 -9 -68.5h-172c0 46.667 7.83301 89.667 23.5 129s38 73 67 101s64 49.833 105 65.5s86.833 23.5 137.5 23.5c42 0 81.333 -6.16699 118 -18.5
s68.834 -30.166 96.501 -53.499s49.334 -52.166 65.001 -86.499s23.5 -73.5 23.5 -117.5zM488.995 98.001c0 -32 -10 -58 -30 -78s-45.333 -30 -76 -30s-56.167 10 -76.5 30s-30.5 46 -30.5 78c0 31.333 10.167 57 30.5 77s45.833 30 76.5 30s56 -10 76 -30
s30 -45.667 30 -77z" />
    <glyph glyph-name="at" unicode="@" horiz-adv-x="1098" 
d="M1032 590c0 -46 -5.51172 -87.835 -16.5117 -125.502s-25.5 -71.667 -43.5 -102s-38.667 -56.666 -62 -78.999s-47.166 -40.833 -71.499 -55.5s-48.166 -25.667 -71.499 -33s-44 -11 -62 -11c-23.333 0 -42.666 6 -57.999 18s-24 32 -26 60
c-10 -10 -20.667 -19.5 -32 -28.5s-23.333 -17 -36 -24s-26 -12.667 -40 -17s-28 -6.5 -42 -6.5c-29.333 0 -56.666 5.83301 -81.999 17.5s-47.166 27.5 -65.499 47.5s-32.833 43.333 -43.5 70s-16 55 -16 85c0 42 7.33301 84 22 126s35.334 79.833 62.001 113.5
s58.834 60.834 96.501 81.501s79.167 31 124.5 31c30 0 57.833 -6.83301 83.5 -20.5s47.834 -34.834 66.501 -63.501l20 63h111l-100 -360l-8.5 -28.5c-3 -9.66699 -4.66699 -18.5 -5 -26.5s0.833984 -14.5 3.50098 -19.5s8 -7.5 16 -7.5c20.667 0 41 7.33301 61 22
s38 34.5 54 59.5s28.833 54.5 38.5 88.5s14.5 70 14.5 108c0 48.667 -9.33301 92.5 -28 131.5s-44 72 -76 99s-69.5 47.667 -112.5 62s-88.5 21.5 -136.5 21.5c-56.667 0 -109.167 -10 -157.5 -30s-90 -47.5 -125 -82.5s-62.5 -76.333 -82.5 -124s-30 -99.167 -30 -154.5
c0 -72 10.5 -134.167 31.5 -186.5s49.833 -95.666 86.5 -129.999s79.667 -59.833 129 -76.5s102.333 -25 159 -25c62 0 118.667 11.833 170 35.5s95 56.167 131 97.5h112c-47.333 -76.667 -106.333 -134.834 -177 -174.501s-150.667 -59.5 -240 -59.5
c-70 0 -136 10.833 -198 32.5s-116.167 54.334 -162.5 98.001s-83.166 98 -110.499 163s-41 140.833 -41 227.5c0 72 13.5 138 40.5 198s63.5 111.5 109.5 154.5s99.5 76.5 160.5 100.5s125.833 36 194.5 36c60.667 0 118.834 -9.83301 174.501 -29.5
s104.834 -47 147.501 -82s76.5 -76.833 101.5 -125.5s37.5 -102 37.5 -160zM673.988 531.998c0 14.667 -2.66602 28.499 -7.99902 41.499s-12.5 24.5 -21.5 34.5s-19.5 18 -31.5 24s-24.667 9 -38 9c-27.333 0 -52 -7.16699 -74 -21.5s-40.833 -32.5 -56.5 -54.5
s-27.834 -46.167 -36.501 -72.5s-13 -51.166 -13 -74.499c0 -34 9 -61.667 27 -83s42.667 -32 74 -32c25.333 0 48.833 7.5 70.5 22.5s40.5 33.833 56.5 56.5s28.5 47.5 37.5 74.5s13.5 52.167 13.5 75.5z" />
    <glyph glyph-name="A" unicode="A" horiz-adv-x="918" 
d="M733 0l-90 252h-373l-90 -252h-194l376 965h193l377 -965h-199zM457 772l-135 -379h270z" />
    <glyph glyph-name="B" unicode="B" horiz-adv-x="969" 
d="M918 272c0 -38 -6.83203 -73.668 -20.499 -107.001s-35.334 -62.166 -65.001 -86.499s-67.334 -43.5 -113.001 -57.5s-100.5 -21 -164.5 -21h-453v965h478c44.667 0 85.167 -5 121.5 -15s67.333 -25.167 93 -45.5s45.334 -45.833 59.001 -76.5
s20.5 -66.334 20.5 -107.001c0 -46 -10.667 -86.167 -32 -120.5s-51.333 -61.166 -90 -80.499c53.333 -15.333 94.333 -44.5 123 -87.5s43 -96.5 43 -160.5zM690.001 689.999c0 46 -11.667 78 -35 96s-56.666 27 -99.999 27h-266v-246h266c39.333 0 71.666 10.5 96.999 31.5
s38 51.5 38 91.5zM733.001 294.999c0 44 -13.5 77.5 -40.5 100.5s-64.5 34.5 -112.5 34.5h-291v-278h291c48 0 85.5 12 112.5 36s40.5 59.667 40.5 107z" />
    <glyph glyph-name="C" unicode="C" horiz-adv-x="993" 
d="M940 379c2.66699 -65.333 -6.33105 -123 -26.998 -173s-50 -92 -88 -126s-83.167 -59.667 -135.5 -77s-108.166 -26 -167.499 -26c-73.333 0 -139.166 13.333 -197.499 40s-107.666 63 -147.999 109s-71.333 99.667 -93 161s-32.5 126.666 -32.5 195.999
c0 68.667 10.833 133.5 32.5 194.5s52.667 114.5 93 160.5s89.666 82.333 147.999 109s124.166 40 197.499 40c55.333 0 107.333 -7.5 156 -22.5s91.5 -36.833 128.5 -65.5s67.167 -64.167 90.5 -106.5s37.666 -90.833 42.999 -145.5h-184
c-7.33301 28 -17.333 53.667 -30 77s-28.5 43.333 -47.5 60s-41.333 29.5 -67 38.5s-55.5 13.5 -89.5 13.5c-50.667 0 -94 -10 -130 -30s-65.333 -46.5 -88 -79.5s-39.334 -70.667 -50.001 -113s-16 -85.833 -16 -130.5c0 -45.333 5.33301 -89.166 16 -131.499
s27.334 -80 50.001 -113s52 -59.5 88 -79.5s79.333 -30 130 -30c73.333 0 131.166 22 173.499 66s65.166 105.333 68.499 184h176v0z" />
    <glyph glyph-name="D" unicode="D" horiz-adv-x="993" 
d="M944 483c0 -66.667 -8.33301 -129.332 -25 -187.999s-42.5 -109.834 -77.5 -153.501s-79.667 -78.167 -134 -103.5s-119.5 -38 -195.5 -38h-410v965h410c76 0 141.167 -12.667 195.5 -38s99 -59.666 134 -102.999s60.833 -94.333 77.5 -153s25 -121.334 25 -188.001z
M760 483.002c0 46 -4.16699 89.167 -12.5 129.5s-24 75.333 -47 105s-55 53 -96 70s-93.833 25.5 -158.5 25.5h-157v-661h157c64.667 0 117.5 8.5 158.5 25.5s73 40.333 96 70s38.667 64.667 47 105s12.5 83.833 12.5 130.5z" />
    <glyph glyph-name="E" unicode="E" horiz-adv-x="868" 
d="M102 0v965h711v-160h-524v-232h485v-151h-485v-262h534v-160h-721z" />
    <glyph glyph-name="F" unicode="F" horiz-adv-x="817" 
d="M289 805v-232h436v-151h-436v-422h-187v965h684v-160h-497z" />
    <glyph glyph-name="G" unicode="G" horiz-adv-x="1042" 
d="M840 0l-25.001 99.998c-22 -23.333 -43.833 -42.833 -65.5 -58.5s-44 -28.167 -67 -37.5s-47.167 -16.166 -72.5 -20.499s-52.666 -6.5 -81.999 -6.5c-73.333 0 -139 13.333 -197 40s-107.333 63 -148 109s-71.834 99.667 -93.501 161s-32.5 126.666 -32.5 195.999
c0 68.667 10.833 133.5 32.5 194.5s52.834 114.5 93.501 160.5s90 82.333 148 109s123.667 40 197 40c54 0 105.167 -7 153.5 -21s91.333 -35 129 -63s68.834 -63.333 93.501 -106s40 -92.667 46 -150h-180c-4 32 -13.333 59.833 -28 83.5s-33 43.334 -55 59.001
s-46.667 27.334 -74 35.001s-55.666 11.5 -84.999 11.5c-50.667 0 -93.834 -10 -129.501 -30s-65 -46.5 -88 -79.5s-39.833 -70.667 -50.5 -113s-16 -85.833 -16 -130.5c0 -45.333 5.33301 -89 16 -131s27.5 -79.5 50.5 -112.5s52.333 -59.5 88 -79.5
s78.834 -30.333 129.501 -31c83.333 0 147.166 21.5 191.499 64.5s68.166 102.833 71.499 179.5h-256v143h426v-516h-121z" />
    <glyph glyph-name="H" unicode="H" horiz-adv-x="993" 
d="M707 0v428h-422v-428h-187v965h187v-377h422v377h186v-965h-186z" />
    <glyph glyph-name="I" unicode="I" horiz-adv-x="391" 
d="M102 0v965h187v-965h-187zM289 0h-187v965h187v-965zM102 0v965h187v-965h-187z" />
    <glyph glyph-name="J" unicode="J" horiz-adv-x="741" 
d="M639 313c0 -42 -3.66602 -83.1709 -10.999 -123.504s-22.5 -76.166 -45.5 -107.499s-56 -56.666 -99 -75.999s-99.833 -29 -170.5 -29c-52.667 0 -97.667 8 -135 24s-67.833 38 -91.5 66s-41 61 -52 99s-16.5 79 -16.5 123v59h185v-57c0 -26 2 -49 6 -69
s10.667 -36.833 20 -50.5s22.166 -24.167 38.499 -31.5s36.5 -11 60.5 -11c25.333 0 46.166 3.83301 62.499 11.5s29.333 18.834 39 33.501s16.334 32.834 20.001 54.501s5.5 46.5 5.5 74.5v662h184v-652v0z" />
    <glyph glyph-name="K" unicode="K" horiz-adv-x="942" 
d="M729 0l-311 451l-129 -127v-324h-187v965h187v-418l418 418h231l-395 -387l418 -578h-232z" />
    <glyph glyph-name="L" unicode="L" horiz-adv-x="793" 
d="M102 0v965h187v-805h489v-160h-676z" />
    <glyph glyph-name="M" unicode="M" horiz-adv-x="1219" 
d="M940 0v700l-256 -700h-152l-256 705v-705h-176v965h252l260 -729l256 729h250v-965h-178z" />
    <glyph glyph-name="N" unicode="N" horiz-adv-x="993" 
d="M705 2l-433 684v-686h-176v965l189 -2l432 -687v689h178v-965z" />
    <glyph glyph-name="O" unicode="O" horiz-adv-x="1044" 
d="M993 483c0 -69.333 -10.833 -134.666 -32.5 -195.999s-52.667 -115 -93 -161s-89.666 -82.333 -147.999 -109s-124.166 -40 -197.499 -40s-139.166 13.333 -197.499 40s-107.666 63 -147.999 109s-71.333 99.667 -93 161s-32.5 126.666 -32.5 195.999
c0 68.667 10.833 133.5 32.5 194.5s52.667 114.5 93 160.5s89.666 82.333 147.999 109s124.166 40 197.499 40s139.166 -13.333 197.499 -40s107.666 -63 147.999 -109s71.333 -99.5 93 -160.5s32.5 -125.833 32.5 -194.5zM807 483c0 44.667 -5.33301 88.167 -16 130.5
s-27.5 80 -50.5 113s-52.5 59.5 -88.5 79.5s-79.333 30 -130 30s-94 -10 -130 -30s-65.333 -46.5 -88 -79.5s-39.334 -70.667 -50.001 -113s-16 -85.833 -16 -130.5c0 -45.333 5.33301 -89.166 16 -131.499s27.334 -80 50.001 -113s52 -59.5 88 -79.5s79.333 -30 130 -30
s94 10 130 30s65.5 46.5 88.5 79.5s39.833 70.667 50.5 113s16 86.166 16 131.499z" />
    <glyph glyph-name="P" unicode="P" horiz-adv-x="918" 
d="M872 664c0 -20 -1.66699 -41.333 -5 -64s-9.5 -45.167 -18.5 -67.5s-21.5 -43.5 -37.5 -63.5s-36.333 -37.833 -61 -53.5s-54.5 -28 -89.5 -37s-76.167 -13.5 -123.5 -13.5h-248v-365h-187v965h435c70.667 0 128 -10 172 -30s78 -45.167 102 -75.5s40.167 -63 48.5 -98
s12.5 -67.5 12.5 -97.5zM688 664c0 30 -4.33398 54.666 -13.001 73.999s-20.167 34.5 -34.5 45.5s-31.166 18.667 -50.499 23s-39.333 6.5 -60 6.5h-241v-297h237c18 0 36.5 2.33301 55.5 7s36.5 12.834 52.5 24.501s29 27 39 46s15 42.5 15 70.5z" />
    <glyph glyph-name="Q" unicode="Q" horiz-adv-x="1044" 
d="M993 485c0 -32 -2.49805 -64.667 -7.49805 -98s-12.833 -65.833 -23.5 -97.5s-24.5 -62 -41.5 -91s-37.167 -54.833 -60.5 -77.5l127 -105l-96 -104l-143 123c-36 -19.333 -73.167 -33.333 -111.5 -42s-76.5 -13 -114.5 -13c-73.333 0 -139.166 13.333 -197.499 40
s-107.666 63 -147.999 109s-71.333 99.5 -93 160.5s-32.5 126.167 -32.5 195.5c0 68 10.833 132.5 32.5 193.5s52.667 114.333 93 160s89.666 81.834 147.999 108.501s124.166 40 197.499 40s139.166 -13.333 197.499 -40s107.666 -62.834 147.999 -108.501
s71.333 -99 93 -160s32.5 -125.5 32.5 -193.5zM807.002 485c0 44 -5.33496 87.166 -16.002 129.499s-27.5 79.833 -50.5 112.5s-52.5 59 -88.5 79s-79.333 30 -130 30s-94 -10 -130 -30s-65.333 -46.333 -88 -79s-39.334 -70.167 -50.001 -112.5s-16 -85.5 -16 -129.5
c0 -45.333 5.33301 -89.166 16 -131.499s27.334 -80 50.001 -113s52 -59.5 88 -79.5s79.333 -30 130 -30c14.667 0 29.834 1.16699 45.501 3.5s31.167 6.5 46.5 12.5l-94 82l94 103l115 -101c28.667 35.333 48.834 75 60.501 119s17.5 89 17.5 135z" />
    <glyph glyph-name="R" unicode="R" horiz-adv-x="969" 
d="M741 0c-6.66699 10.667 -11.8311 22.1641 -15.498 34.4971s-6.5 25 -8.5 38s-3.16699 26 -3.5 39s-0.5 25.833 -0.5 38.5c0 42 -2.66699 78.167 -8 108.5s-14.833 55.333 -28.5 75s-32.5 34.167 -56.5 43.5s-54.667 14 -92 14h-239v-391h-187v965h469
c109.333 0 191.333 -23.333 246 -70s82 -111.667 82 -195c0 -39.333 -5 -72.833 -15 -100.5s-22.333 -50.667 -37 -69s-29.834 -32.666 -45.501 -42.999s-29.5 -17.833 -41.5 -22.5c13.333 -4 27.166 -10.5 41.499 -19.5s27.5 -21.5 39.5 -37.5s22 -36.167 30 -60.5
s12 -53.5 12 -87.5c0 -27.333 1 -53.666 3 -78.999s5.5 -49.166 10.5 -71.499s11.833 -42.833 20.5 -61.5s19.667 -34.667 33 -48h-209zM713.003 677.997c0 28.667 -4.33398 51.832 -13.001 69.499s-20.167 31.334 -34.5 41.001s-31.166 16.167 -50.499 19.5
s-39.333 5 -60 5h-266v-278h268c50 0 88.5 12 115.5 36s40.5 59.667 40.5 107z" />
    <glyph glyph-name="S" unicode="S" horiz-adv-x="893" 
d="M848 285c0 -54.667 -11.332 -101.496 -33.999 -140.496s-52.334 -70.833 -89.001 -95.5s-78.667 -42.834 -126 -54.501s-95.333 -17.5 -144 -17.5c-56 0 -108.667 6.83301 -158 20.5s-92.5 34.834 -129.5 63.501s-66.5 65.334 -88.5 110.001s-33.333 98.334 -34 161.001
h184c0 -37.333 6.33301 -69 19 -95s29.667 -47 51 -63s46.5 -27.5 75.5 -34.5s59.833 -10.5 92.5 -10.5c35.333 0 65.333 3.83301 90 11.5s44.834 17.834 60.501 30.501s27 27.167 34 43.5s10.5 32.833 10.5 49.5c0 17.333 -2.16699 32.166 -6.5 44.499
s-10 22.666 -17 30.999s-14.833 15 -23.5 20s-17.667 9.5 -27 13.5c-34 12 -73.667 23.667 -119 35l-168 43c-43.333 11.333 -79 26 -107 44s-50.333 38 -67 60s-28.334 45.333 -35.001 70s-10 49.667 -10 75c0 48.667 10.333 91 31 127s48 65.833 82 89.5
s72.5 41.334 115.5 53.001s86.833 17.5 131.5 17.5c51.333 0 100 -6.66699 146 -20s86.167 -33.333 120.5 -60s61.666 -59.834 81.999 -99.501s30.5 -85.5 30.5 -137.5h-186c-2 31.333 -8.33301 57.5 -19 78.5s-24.667 38 -42 51s-37.666 22.333 -60.999 28s-49 8.5 -77 8.5
c-19.333 0 -39 -1.83301 -59 -5.5s-38.167 -9.83398 -54.5 -18.501s-29.833 -20.334 -40.5 -35.001s-16 -33.334 -16 -56.001c0 -31.333 10.167 -56.166 30.5 -74.499s46.5 -31.833 78.5 -40.5c2 -0.666992 9.33301 -2.5 22 -5.5s27.834 -6.83301 45.501 -11.5l58.5 -15
l61.5 -15.5l54 -14l36.5 -9.5c32.667 -10 61.167 -23.833 85.5 -41.5s44.666 -37.834 60.999 -60.501s28.5 -46.834 36.5 -72.501s12 -50.834 12 -75.501z" />
    <glyph glyph-name="T" unicode="T" horiz-adv-x="817" 
d="M502 805v-805h-187v805h-305v160h799v-160h-307z" />
    <glyph glyph-name="U" unicode="U" horiz-adv-x="993" 
d="M901 350c0 -62.667 -9.83203 -117.334 -29.499 -164.001s-47.167 -85.5 -82.5 -116.5s-78 -54.167 -128 -69.5s-105 -23 -165 -23c-60.667 0 -115.834 7.66699 -165.501 23s-92.167 38.5 -127.5 69.5s-62.666 69.833 -81.999 116.5s-29 101.334 -29 164.001v615h184v-559
c0 -31.333 1.5 -63 4.5 -95s11.5 -60.833 25.5 -86.5s35.833 -46.667 65.5 -63s71.167 -24.5 124.5 -24.5s94.666 8.16699 123.999 24.5s51 37.333 65 63s22.5 54.5 25.5 86.5s4.5 63.667 4.5 95v559h186v-615v0z" />
    <glyph glyph-name="V" unicode="V" horiz-adv-x="842" 
d="M518 0h-201l-327 965h192l240 -736l242 736h190z" />
    <glyph glyph-name="W" unicode="W" horiz-adv-x="1292" 
d="M1016 0h-185l-188 707l-192 -707h-187l-258 965h189l170 -705l188 705h186l183 -705l176 705h188z" />
    <glyph glyph-name="X" unicode="X" horiz-adv-x="893" 
d="M678 0l-236 356l-245 -356h-209l350 500l-326 465h219l215 -330l226 328h207l-324 -463l350 -500h-227zM905 0h-227l-236 356l-245 -356h-209l350 500l-326 465h219l215 -330l226 328h207l-324 -463zM678 0l-236 356l-245 -356h-209l350 500l-326 465h219l215 -330
l226 328h207l-324 -463l350 -500h-227z" />
    <glyph glyph-name="Y" unicode="Y" horiz-adv-x="893" 
d="M539 379v-379h-185v379l-368 586h213l252 -420l247 418h209z" />
    <glyph glyph-name="Z" unicode="Z" horiz-adv-x="868" 
d="M31 0v147l553 658h-510v160h751v-136l-553 -669h566v-160h-807z" />
    <glyph glyph-name="bracketleft" unicode="[" horiz-adv-x="416" 
d="M98 -258v1245h318v-135h-156v-975h156v-135h-318z" />
    <glyph glyph-name="backslash" unicode="\" horiz-adv-x="492" 
d="M360 -23l-395 1010h166l395 -1010h-166z" />
    <glyph glyph-name="bracketright" unicode="]" horiz-adv-x="416" 
d="M2 -258v135h156v975h-156v135h317v-1245h-317z" />
    <glyph glyph-name="asciicircum" unicode="^" horiz-adv-x="827" 
d="M561 453l-147 309l-148 -309h-160l252 493h111l252 -493h-160z" />
    <glyph glyph-name="underscore" unicode="_" horiz-adv-x="766" 
d="M0 -211v109h766v-109h-766z" />
    <glyph glyph-name="grave" unicode="`" horiz-adv-x="342" 
d="M158 795l-211 192h205l135 -192h-129z" />
    <glyph glyph-name="a" unicode="a" horiz-adv-x="768" 
d="M758 0c-15.333 -5.33301 -33.6689 -9.66797 -55.002 -13.001s-38.666 -5 -51.999 -5c-30.667 0 -56.667 5.16699 -78 15.5s-36.333 29.5 -45 57.5c-16 -12.667 -33.5 -23.667 -52.5 -33s-38.833 -17 -59.5 -23s-41.667 -10.333 -63 -13s-42 -4 -62 -4
c-32 0 -63 4.33301 -93 13s-56.5 21.5 -79.5 38.5s-41.333 38.5 -55 64.5s-20.5 56 -20.5 90c0 44.667 8.16699 80.5 24.5 107.5s37.5 48.167 63.5 63.5s55.333 26.5 88 33.5s65.334 12.833 98.001 17.5c27.333 4 53.333 6.83301 78 8.5s46.5 5 65.5 10s34 12.5 45 22.5
s16.5 25.667 16.5 47c0 18 -4.5 32.5 -13.5 43.5s-20.167 19.5 -33.5 25.5s-28.166 10 -44.499 12s-31.5 3 -45.5 3c-41.333 0 -75 -8 -101 -24s-40.667 -43.667 -44 -83h-170c2.66699 48 13.667 87.5 33 118.5s44.166 55.667 74.499 74s64.333 31.166 102 38.499
s76.167 11 115.5 11c34.667 0 69.167 -3.83301 103.5 -11.5s65.166 -19.667 92.499 -36s49.333 -37.666 66 -63.999s25 -58.166 25 -95.499v-350c0 -16.667 1.66699 -28 5 -34s11.333 -9 24 -9h18c6.66699 0 16.334 0.666992 29.001 2v-119zM511.997 335.998
c-12 -6 -25.1699 -10.832 -39.5029 -14.499s-29.166 -6.5 -44.499 -8.5s-31 -3.83301 -47 -5.5s-31.667 -3.83398 -47 -6.50098c-16 -2.66699 -31.333 -6.16699 -46 -10.5s-27.5 -10.333 -38.5 -18s-19.833 -17.667 -26.5 -30s-10 -27.5 -10 -45.5
c0 -16.667 4.66699 -30.167 14 -40.5s20.833 -18.5 34.5 -24.5s28.334 -10 44.001 -12s29.834 -3 42.501 -3c16 0 33.5 2 52.5 6s36.833 10.833 53.5 20.5s30.5 22.167 41.5 37.5s16.5 34.333 16.5 57v98z" />
    <glyph glyph-name="b" unicode="b" horiz-adv-x="842" 
d="M793 348c0 -47.333 -6.33301 -93.001 -19 -137.001s-31.667 -83 -57 -117s-57.5 -61.167 -96.5 -81.5s-84.833 -30.5 -137.5 -30.5c-22 0 -44.167 1.33301 -66.5 4s-43.833 7.5 -64.5 14.5s-40 16.5 -58 28.5s-33.333 27 -46 45v-74h-162v965h170v-338
c11.333 14.667 24.666 27.834 39.999 39.501s32 21.5 50 29.5s36.5 14.167 55.5 18.5s38.167 6.5 57.5 6.5c56 0 105 -9.83301 147 -29.5s76.833 -46.334 104.5 -80.001s48.334 -73.167 62.001 -118.5s20.5 -93.666 20.5 -144.999zM623 349.999
c0 30 -3.83398 59.165 -11.501 87.498s-19.334 53.5 -35.001 75.5s-35 39.667 -58 53s-49.833 20 -80.5 20c-31.333 0 -58.666 -5.66699 -81.999 -17s-42.833 -27.333 -58.5 -48s-27.5 -45.5 -35.5 -74.5s-12 -61.167 -12 -96.5c0 -33.333 4.16699 -64.166 12.5 -92.499
s20.5 -53 36.5 -74s35.667 -37.333 59 -49s50 -17.5 80 -17.5c34 0 62.667 6.83301 86 20.5s42.333 31.5 57 53.5s25.334 46.833 32.001 74.5s10 55.834 10 84.501z" />
    <glyph glyph-name="c" unicode="c" horiz-adv-x="768" 
d="M725 272c-15.333 -95.333 -50.834 -167.503 -106.501 -216.503s-130.167 -73.5 -223.5 -73.5c-56 0 -105.667 9.16699 -149 27.5s-79.833 43.5 -109.5 75.5s-52 70 -67 114s-22.5 91.667 -22.5 143c0 52.667 7.33301 101.834 22 147.501s36.667 85.334 66 119.001
s66 60.167 110 79.5s95.333 29 154 29c42 0 81.833 -5.16699 119.5 -15.5s71 -26.166 100 -47.499s52.833 -48.5 71.5 -81.5s29.667 -72.167 33 -117.5h-170c-6 43.333 -22.5 75.333 -49.5 96s-61.167 31 -102.5 31c-19.333 0 -39.833 -3 -61.5 -9
s-41.5 -17.833 -59.5 -35.5s-33 -42.167 -45 -73.5s-18 -72 -18 -122c0 -28 3.16699 -55.333 9.5 -82s16.5 -50.667 30.5 -72s32.333 -38.5 55 -51.5s50.334 -19.5 83.001 -19.5c42 0 77 13.333 105 40s45.667 65 53 115h172v0z" />
    <glyph glyph-name="d" unicode="d" horiz-adv-x="842" 
d="M594 0l0.00292969 76.001c-10.667 -16.667 -23.667 -30.834 -39 -42.501s-32.333 -21.334 -51 -29.001s-38.334 -13.334 -59.001 -17.001s-41.334 -5.5 -62.001 -5.5c-56.667 0 -106 9.66699 -148 29s-77 45.833 -105 79.5s-48.833 73.334 -62.5 119.001
s-20.5 94.5 -20.5 146.5c0 63.333 8.83301 118 26.5 164s41 83.833 70 113.5s62.167 51.667 99.5 66s75.666 21.5 114.999 21.5c21.333 0 43 -1.83301 65 -5.5s43 -9.5 63 -17.5s38.667 -18.167 56 -30.5s32 -27.166 44 -44.499v342h170v-965h-162zM590.003 352.001
c0 73.333 -16.333 130.667 -49 172s-77.667 62 -135 62c-35.333 0 -65 -7 -89 -21s-43.333 -32.5 -58 -55.5s-25.334 -48.833 -32.001 -77.5s-10 -58 -10 -88c0 -28.667 3.5 -56.667 10.5 -84s18 -51.5 33 -72.5s34.333 -38 58 -51s51.834 -19.5 84.501 -19.5
c33.333 0 61.833 6.83301 85.5 20.5s43 31.667 58 54s26 47.5 33 75.5s10.5 56.333 10.5 85z" />
    <glyph glyph-name="e" unicode="e" horiz-adv-x="768" 
d="M217 303c0.666992 -24.667 4.83789 -48.1689 12.5049 -70.502s19 -42 34 -59s33.667 -30.667 56 -41s48.166 -15.5 77.499 -15.5c43.333 0 78.166 9 104.499 27s46.166 46.333 59.499 85h164c-10 -40.667 -25.167 -76.5 -45.5 -107.5s-44.833 -56.833 -73.5 -77.5
s-60.834 -36.167 -96.501 -46.5s-73.167 -15.5 -112.5 -15.5c-56 0 -105.667 9 -149 27s-79.833 43.167 -109.5 75.5s-52.334 70.833 -68.001 115.5s-23.5 94 -23.5 148c0 50 8 97.333 24 142s39 83.834 69 117.501s66.333 60.334 109 80.001s90.667 29.5 144 29.5
c56.667 0 107.5 -11.5 152.5 -34.5s82.333 -53.667 112 -92s51 -82.333 64 -132s16.167 -101.5 9.5 -155.5h-514zM561.004 417.998c-2.66699 21.333 -8.16699 42 -16.5 62s-19.666 37.5 -33.999 52.5s-31.333 27 -51 36s-41.834 13.5 -66.501 13.5
c-25.333 0 -48.333 -4.16699 -69 -12.5s-38.5 -20 -53.5 -35s-27.167 -32.5 -36.5 -52.5s-15 -41.333 -17 -64h344z" />
    <glyph glyph-name="f" unicode="f" horiz-adv-x="442" 
d="M444 817c-15.333 5.33301 -28.501 8.66602 -39.501 9.99902s-24.167 2 -39.5 2c-18.667 0 -34.667 -4.16699 -48 -12.5s-20 -25.166 -20 -50.499v-64h131v-129h-131v-573h-170v573h-115v129h115v52c0 45.333 5.66699 81.833 17 109.5s26.333 49 45 64s40 25 64 30
s49 7.5 75 7.5c24.667 0 46.334 -0.666992 65.001 -2s35.667 -4.33301 51 -9v-137v0z" />
    <glyph glyph-name="g" unicode="g" horiz-adv-x="817" 
d="M743 39c0 -106 -30.166 -185.001 -90.499 -237.001s-147.5 -78 -261.5 -78c-36 0 -72.167 3.83301 -108.5 11.5s-69.5 20.334 -99.5 38.001s-55.167 41.167 -75.5 70.5s-32.166 65.666 -35.499 108.999h168c4.66699 -22 12.167 -39.667 22.5 -53s22.833 -23.5 37.5 -30.5
s30.667 -11.5 48 -13.5s35 -3 53 -3c118 0 177 55.667 177 167v91c-24 -37.333 -54 -65.833 -90 -85.5s-75.667 -29.5 -119 -29.5c-57.333 0 -106.333 9.83301 -147 29.5s-74 46.334 -100 80.001s-45 73 -57 118s-18 92.833 -18 143.5c0 46.667 7.5 91.167 22.5 133.5
s36.5 79.5 64.5 111.5s62.167 57.5 102.5 76.5s85.833 28.5 136.5 28.5c41.333 0 79.666 -7.66699 114.999 -23s63.666 -38.333 84.999 -69v73h170v-659zM573.001 361.999c0 28.667 -3.49902 56.332 -10.499 82.999s-17.667 50.167 -32 70.5s-32.833 36.5 -55.5 48.5
s-50 18 -82 18c-32.667 0 -60.167 -6.83301 -82.5 -20.5s-40.5 -31.5 -54.5 -53.5s-24 -46.833 -30 -74.5s-9 -55.5 -9 -83.5c0 -27.333 3.33301 -54 10 -80s17 -49.333 31 -70s32.167 -37.334 54.5 -50.001s49.166 -19 80.499 -19c33.333 0 61.5 6.83301 84.5 20.5
s41.5 31.334 55.5 53.001s24.167 46.334 30.5 74.001s9.5 55.5 9.5 83.5z" />
    <glyph glyph-name="h" unicode="h" horiz-adv-x="793" 
d="M541 0v437.999c0 52.667 -10.5 90.5 -31.5 113.5s-53.5 34.5 -97.5 34.5c-24.667 0 -46.834 -4.5 -66.501 -13.5s-36.5 -21.167 -50.5 -36.5s-24.667 -33.5 -32 -54.5s-11 -43.5 -11 -67.5v-414h-170v965h170v-340c20.667 28.667 49.167 51.834 85.5 69.501
s75.5 26.5 117.5 26.5c38.667 0 73.834 -5 105.501 -15s58.667 -25 81 -45s39.5 -45.167 51.5 -75.5s18 -65.833 18 -106.5v-479h-170z" />
    <glyph glyph-name="i" unicode="i" horiz-adv-x="342" 
d="M86 805v160h170v-160h-170zM86 0v702h170v-702h-170z" />
    <glyph glyph-name="j" unicode="j" horiz-adv-x="342" 
d="M86 805v160h170v-160h-170zM256 -53c0 -73.333 -15.834 -128.833 -47.501 -166.5s-85.5 -56.5 -161.5 -56.5c-14.667 0 -27.667 0.333008 -39 1s-24.333 1.66699 -39 3v139c14.667 -3.33301 26.834 -5.5 36.501 -6.5s18.167 -1.5 25.5 -1.5c12.667 0 22.667 2 30 6
s12.833 10 16.5 18s6 17.833 7 29.5s1.5 25.167 1.5 40.5v749h170v-755z" />
    <glyph glyph-name="k" unicode="k" horiz-adv-x="741" 
d="M549 0l-209 332l-84 -80v-252h-170v965h170v-527l266 264h213l-278 -260l301 -442h-209z" />
    <glyph glyph-name="l" unicode="l" horiz-adv-x="342" 
d="M86 0v965h170v-965h-170z" />
    <glyph glyph-name="m" unicode="m" horiz-adv-x="1192" 
d="M940 0l0.00195312 405.997c0 25.333 -0.833008 48.833 -2.5 70.5s-6.33398 40.334 -14.001 56.001s-19.5 27.834 -35.5 36.501s-38.333 13 -67 13c-50 0 -85.667 -15.5 -107 -46.5s-32 -73.5 -32 -127.5v-408h-172v446c0 44.667 -8.16699 78.5 -24.5 101.5
s-46.5 34.5 -90.5 34.5c-19.333 0 -37.5 -3.83301 -54.5 -11.5s-32.167 -18.667 -45.5 -33s-23.833 -31.833 -31.5 -52.5s-11.5 -44.334 -11.5 -71.001v-414h-170v698h162v-82c11.333 15.333 23.666 29.333 36.999 42s28.5 23.334 45.5 32.001s36 15.334 57 20.001
s44.833 7 71.5 7c42 0 80.833 -8.66699 116.5 -26s62.167 -44.333 79.5 -81c27.333 33.333 58.333 59.5 93 78.5s76 28.5 124 28.5c38.667 0 73 -4.16699 103 -12.5s55.5 -22 76.5 -41s37 -43.5 48 -73.5s16.5 -66.333 16.5 -109v-481h-172z" />
    <glyph glyph-name="n" unicode="n" horiz-adv-x="793" 
d="M541 0l0.000976562 436c0 52 -10.5 89.333 -31.5 112s-53.5 34 -97.5 34c-24.667 0 -46.834 -4.5 -66.501 -13.5s-36.5 -21.167 -50.5 -36.5s-24.667 -33.5 -32 -54.5s-11 -43.5 -11 -67.5v-410h-170v698h162l-2 -90c21.333 33.333 51.166 59.833 89.499 79.5
s79.5 29.5 123.5 29.5c38.667 0 73.834 -5 105.501 -15s58.667 -25 81 -45s39.5 -45 51.5 -75s18 -65 18 -105v-477h-170z" />
    <glyph glyph-name="o" unicode="o" horiz-adv-x="817" 
d="M770 350c0 -54 -7.99902 -103.5 -23.999 -148.5s-39.333 -83.667 -70 -116s-68.334 -57.666 -113.001 -75.999s-95.667 -27.5 -153 -27.5s-108.5 9.16699 -153.5 27.5s-82.833 43.666 -113.5 75.999s-54 71 -70 116s-24 94.5 -24 148.5c0 53.333 8 102.5 24 147.5
s39.167 83.667 69.5 116s68 57.666 113 75.999s96.5 27.5 154.5 27.5s109.333 -9.16699 154 -27.5s82.167 -43.666 112.5 -75.999s53.5 -71 69.5 -116s24 -94.167 24 -147.5zM600.001 350c0 28.667 -3.66699 56.834 -11 84.501s-18.666 52.5 -33.999 74.5s-35 39.667 -59 53
s-52.667 20 -86 20s-62.166 -6.66699 -86.499 -20s-44.166 -31 -59.499 -53s-26.666 -46.833 -33.999 -74.5s-11 -55.834 -11 -84.501s3.66699 -56.834 11 -84.501s18.666 -52.5 33.999 -74.5s35.166 -39.833 59.499 -53.5s53.166 -20.5 86.499 -20.5s62 6.83301 86 20.5
s43.667 31.5 59 53.5s26.666 46.833 33.999 74.5s11 55.834 11 84.501z" />
    <glyph glyph-name="p" unicode="p" horiz-adv-x="842" 
d="M793 344c0 -47.333 -6.33398 -93.001 -19.001 -137.001s-31.667 -83 -57 -117s-57.5 -61.333 -96.5 -82s-84.833 -31 -137.5 -31c-21.333 0 -42.666 1.83301 -63.999 5.5s-42 9.33398 -62 17.001s-38.667 17.5 -56 29.5s-32.333 26.333 -45 43v-330h-170v956h162v-73
c22.667 32 52.667 55.333 90 70s77.666 22 120.999 22c56 0 105 -9.83301 147 -29.5s76.833 -46.334 104.5 -80.001s48.334 -73.167 62.001 -118.5s20.5 -93.666 20.5 -144.999zM622.999 345.999c0 30 -3.83398 59.166 -11.501 87.499s-19.334 53.5 -35.001 75.5
s-35 39.667 -58 53s-49.833 20 -80.5 20c-31.333 0 -58.666 -5.66699 -81.999 -17s-42.833 -27.333 -58.5 -48s-27.5 -45.5 -35.5 -74.5s-12 -61.167 -12 -96.5c0 -33.333 4.16699 -64.166 12.5 -92.499s20.5 -53 36.5 -74s35.667 -37.333 59 -49s50 -17.5 80 -17.5
c34 0 62.667 6.66699 86 20s42.333 31 57 53s25.334 47 32.001 75s10 56.333 10 85z" />
    <glyph glyph-name="q" unicode="q" horiz-adv-x="842" 
d="M586 -258l0.00292969 330.001c-12.667 -16.667 -27.834 -31 -45.501 -43s-36.5 -21.833 -56.5 -29.5s-41 -13.334 -63 -17.001s-43.667 -5.5 -65 -5.5c-52.667 0 -98.334 10.333 -137.001 31s-70.834 48 -96.501 82s-44.667 73 -57 117s-18.5 89.667 -18.5 137
c0 51.333 6.83301 99.666 20.5 144.999s34.5 84.833 62.5 118.5s63 60.334 105 80.001s91.333 29.5 148 29.5c42 0 82 -7.66699 120 -23s68.333 -39 91 -71v75h162v-956h-170zM590.003 346.001c0 36 -3.99902 68.5 -11.999 97.5s-19.833 53.667 -35.5 74
s-35.167 36.166 -58.5 47.499s-50.333 17 -81 17s-57.5 -6.66699 -80.5 -20s-42.333 -31 -58 -53s-27.5 -47.167 -35.5 -75.5s-12 -57.5 -12 -87.5c0 -28.667 3.33301 -57 10 -85s17.5 -53 32.5 -75s34.167 -39.667 57.5 -53s52 -20 86 -20c32 0 59.833 5.66699 83.5 17
s43.167 27.333 58.5 48s26.666 45.334 33.999 74.001s11 60 11 94z" />
    <glyph glyph-name="r" unicode="r" horiz-adv-x="492" 
d="M508 553c-11.333 2 -23.999 3.50195 -37.999 4.50195s-26.667 1.5 -38 1.5c-25.333 0 -48.833 -5 -70.5 -15s-40.667 -24.5 -57 -43.5s-29.166 -42.667 -38.499 -71s-14 -60.833 -14 -97.5v-332h-170v698h160v-102c7.33301 15.333 17.833 30.166 31.5 44.499
s29.334 27.166 47.001 38.499s36.667 20.5 57 27.5s41.166 10.5 62.499 10.5c17.333 0 30.166 -0.333008 38.499 -1s18.166 -1.66699 29.499 -3v-160v0z" />
    <glyph glyph-name="s" unicode="s" horiz-adv-x="719" 
d="M682 211c0 -42 -9.67188 -77.501 -29.0049 -106.501s-44.5 -52.667 -75.5 -71s-65.667 -31.5 -104 -39.5s-76.166 -12 -113.499 -12c-45.333 0 -87.166 5 -125.499 15s-71.666 25.5 -99.999 46.5s-50.5 47.333 -66.5 79s-24.333 69.5 -25 113.5h170
c2 -22.667 7.33301 -41.667 16 -57s19.667 -27.5 33 -36.5s28.833 -15.5 46.5 -19.5s36.5 -6 56.5 -6c13.333 0 28.5 0.666992 45.5 2s33 4.83301 48 10.5s27.5 13.834 37.5 24.501s14.667 25.667 14 45c-1.33301 18.667 -8.5 33.5 -21.5 44.5s-29.667 20 -50 27
s-43.666 12.833 -69.999 17.5s-52.833 9.66699 -79.5 15c-30 6 -58.833 13.667 -86.5 23s-52.334 22 -74.001 38s-39 36 -52 60s-19.5 54 -19.5 90c0 38.667 9.5 71 28.5 97s43.333 46.833 73 62.5s62.167 26.834 97.5 33.501s69.333 10 102 10
c36.667 0 72.167 -4 106.5 -12s65 -20.833 92 -38.5s49.333 -40.834 67 -69.501s28.834 -63.667 33.501 -105h-174c-3.33301 18 -8.83301 32.833 -16.5 44.5s-17 20.834 -28 27.501s-23.5 11.334 -37.5 14.001s-29 4 -45 4c-14.667 0 -29.5 -1.16699 -44.5 -3.5
s-28.667 -6 -41 -11s-22.333 -11.5 -30 -19.5s-11.5 -17.333 -11.5 -28c0 -18 6.33301 -32.333 19 -43s29.334 -19.5 50.001 -26.5s44.167 -12.833 70.5 -17.5l80.5 -15c28.667 -6 57 -13.667 85 -23s53 -21.833 75 -37.5s39.667 -35.334 53 -59.001s20 -52.834 20 -87.501z
" />
    <glyph glyph-name="t" unicode="t" horiz-adv-x="467" 
d="M436 2l-56.501 -5.5c-17 -1.66699 -34.167 -2.5 -51.5 -2.5c-41.333 0 -75.166 3.83301 -101.499 11.5s-46.833 19 -61.5 34s-24.667 34 -30 57s-8 49.5 -8 79.5v397h-117v129h117v207h170v-207h139v-129h-139v-358c0 -14 0.5 -26.333 1.5 -37s3.83301 -19.667 8.5 -27
s11.5 -12.833 20.5 -16.5s21.5 -5.5 37.5 -5.5c10 0 20.5 0.333008 31.5 1s24.167 3 39.5 7v-135v0z" />
    <glyph glyph-name="u" unicode="u" horiz-adv-x="793" 
d="M543 0l-0.000976562 76.001c-10 -14.667 -22.333 -27.834 -37 -39.501s-30.5 -21.5 -47.5 -29.5s-34.833 -14.167 -53.5 -18.5s-37 -6.5 -55 -6.5c-94 0 -162.167 23 -204.5 69s-63.5 115 -63.5 207v440h170v-426c0 -57.333 10.833 -97.5 32.5 -120.5
s52.5 -34.5 92.5 -34.5c30.667 0 56.5 4.5 77.5 13.5s37.833 21.5 50.5 37.5s21.834 34.833 27.501 56.5s8.5 45.167 8.5 70.5v403h170v-698h-168z" />
    <glyph glyph-name="v" unicode="v" horiz-adv-x="719" 
d="M453 0h-185l-260 698h187l172 -512l165 512h179z" />
    <glyph glyph-name="w" unicode="w" horiz-adv-x="1067" 
d="M829 0h-170l-124 485l-125 -485h-174l-222 698h181l131 -489l127 489h168l122 -489l136 489h176z" />
    <glyph glyph-name="x" unicode="x" horiz-adv-x="741" 
d="M539 4l-172 244l-170 -244l-199 -4l270 369l-248 329l203 -4l146 -202l147 202l197 2l-244 -321l276 -375z" />
    <glyph glyph-name="y" unicode="y" horiz-adv-x="719" 
d="M440 -35c-12 -32 -24.333 -62.668 -37 -92.001s-28.334 -55 -47.001 -77s-41.667 -39.5 -69 -52.5s-61.666 -19.5 -102.999 -19.5c-17.333 0 -35.333 0.5 -54 1.5s-38.667 3.16699 -60 6.5v145c16 -3.33301 30.5 -6.16602 43.5 -8.49902s25.833 -3.5 38.5 -3.5
c16.667 0 30.5 2.16699 41.5 6.5s20.167 10.5 27.5 18.5s13.333 17.5 18 28.5s9 23.167 13 36.5l16 51l-268 692h186l179 -499l172 499h180z" />
    <glyph glyph-name="z" unicode="z" horiz-adv-x="692" 
d="M31 0v119l375 446h-349v133h584v-116l-389 -449h410v-133h-631z" />
    <glyph glyph-name="braceleft" unicode="{" horiz-adv-x="416" 
d="M303 -258c-15.333 0 -33.333 3.83398 -54 11.501s-40.5 19.167 -59.5 34.5s-35.167 35 -48.5 59s-20 52.333 -20 85v265c0 20.667 -4.5 37.334 -13.5 50.001s-20 22.5 -33 29.5s-26.833 11.833 -41.5 14.5s-27.667 4 -39 4v139c11.333 0 24.333 1.33301 39 4
s28.5 7.16699 41.5 13.5s24 15.166 33 26.499s13.5 26 13.5 44v275c0 32.667 6.66699 61 20 85s29.5 43.667 48.5 59s38.833 26.833 59.5 34.5s38.667 11.5 54 11.5h131v-135h-82c-16 0 -28.333 -2.66699 -37 -8s-15.334 -12.333 -20.001 -21s-7.5 -18 -8.5 -28
s-1.5 -19.667 -1.5 -29v-260c0 -21.333 -3.5 -40 -10.5 -56s-15.667 -29.5 -26 -40.5s-21.833 -20 -34.5 -27s-24.667 -12.167 -36 -15.5c11.333 -3.33301 23.333 -8.33301 36 -15s24.167 -15.834 34.5 -27.501s19 -26.5 26 -44.5s10.5 -39.667 10.5 -65v-250
c0 -9.33301 0.5 -19.166 1.5 -29.499s3.83301 -19.833 8.5 -28.5s11.334 -15.834 20.001 -21.501s21 -8.5 37 -8.5h82v-135h-131z" />
    <glyph glyph-name="bar" unicode="|" horiz-adv-x="317" 
d="M82 -23v1010h154v-1010h-154z" />
    <glyph glyph-name="braceright" unicode="}" horiz-adv-x="416" 
d="M422 295c-10.667 0 -23.334 -1.16797 -38.001 -3.50098s-28.5 -6.66602 -41.5 -12.999s-24.167 -15.166 -33.5 -26.499s-14 -26.333 -14 -45v-275c0 -32.667 -6.66699 -61 -20 -85s-29.5 -43.667 -48.5 -59s-38.833 -26.833 -59.5 -34.5s-38.667 -11.5 -54 -11.5h-131
v135h84c15.333 0 27.5 2.83301 36.5 8.5s15.667 12.834 20 21.501s7.16602 18.167 8.49902 28.5s2 20.166 2 29.499v258c0 22 3.33301 41 10 57s15.167 29.5 25.5 40.5s21.666 20.167 33.999 27.5s24.166 13 35.499 17c-11.333 2.66699 -23.166 7.16699 -35.499 13.5
s-23.666 15.166 -33.999 26.499s-18.833 25.833 -25.5 43.5s-10 39.5 -10 65.5v252c0 9.33301 -0.666992 19 -2 29s-4.16602 19.333 -8.49902 28s-11 15.667 -20 21s-21.167 8 -36.5 8h-84v135h131c15.333 0 33.333 -3.83301 54 -11.5s40.5 -19.167 59.5 -34.5
s35.167 -35 48.5 -59s20 -52.333 20 -85v-265c0 -20 4.66699 -36.5 14 -49.5s20.5 -23 33.5 -30s26.833 -11.833 41.5 -14.5s27.334 -4 38.001 -4v-139v0z" />
    <glyph glyph-name="asciitilde" unicode="~" horiz-adv-x="827" 
d="M735 346c-12 -14.667 -24.168 -28.5 -36.501 -41.5s-25.5 -24.5 -39.5 -34.5s-29.333 -17.833 -46 -23.5s-35.334 -8.5 -56.001 -8.5c-26 0 -50.667 4.16699 -74 12.5s-46.5 17.333 -69.5 27s-46.667 18.667 -71 27s-50.5 12.5 -78.5 12.5c-14 0 -26.5 -2.66699 -37.5 -8
s-21.167 -12.333 -30.5 -21s-17.666 -18.334 -24.999 -29.001l-21 -32l-56 115c19.333 34 43.833 60.333 73.5 79s63.834 28 102.501 28c26 0 52.333 -4.16699 79 -12.5s52.5 -17.5 77.5 -27.5l71.5 -27.5c22.667 -8.33301 43 -12.5 61 -12.5c14 0 26.667 2.83301 38 8.5
s22 12.834 32 21.501s19.333 18.167 28 28.5l25 29.5l53 -111v0z" />
    <glyph glyph-name="currency" unicode="&#xa4;" horiz-adv-x="840" 
d="M422 729c-64 0 -117.334 -22.332 -160.001 -66.999c-43.333 -48.667 -65 -102 -65 -160c0 -62.667 21 -117.334 63 -164.001c43.333 -45.333 97.333 -68 162 -68c61.333 0 114 22.667 158 68c42 42 63 96.667 63 164c0 30.667 -5.5 59.667 -16.5 87
s-26.167 51.333 -45.5 72s-42.666 37.167 -69.999 49.5s-57 18.5 -89 18.5zM7.99902 164.001l147.998 145.002c-41.333 55.333 -62 119.666 -62 192.999c0 76 20.667 138.667 62 188l-148 150l76 71l145 -145c52.667 39.333 117 59 193 59
c36.667 0 71.834 -5.33301 105.501 -16s61.167 -25 82.5 -43l150 145l71 -71l-145 -150c39.333 -52.667 59 -115.334 59 -188.001c0 -76 -19.667 -140.333 -59 -193l145 -145l-71 -76l-150 148c-10 -8.66699 -22 -16.5 -36 -23.5s-29.667 -13.833 -47 -20.5
c-35.333 -12 -70.333 -18 -105 -18c-73.333 0 -137.666 20.667 -192.999 62l-145 -148z" />
    <glyph glyph-name="FL00A9h" unicode="&#xa9;" horiz-adv-x="1135" 
d="M1073 483c0 -70 -13.167 -135.667 -39.5 -197s-62.333 -115 -108 -161s-99.334 -82.167 -161.001 -108.5s-127.5 -39.5 -197.5 -39.5s-135.667 13.167 -197 39.5s-115 62.5 -161 108.5s-82.167 99.667 -108.5 161s-39.5 127 -39.5 197s13.167 135.5 39.5 196.5
s62.5 114.333 108.5 160s99.667 81.667 161 108s127 39.5 197 39.5s135.833 -13.167 197.5 -39.5s115.334 -62.333 161.001 -108s81.667 -99 108 -160s39.5 -126.5 39.5 -196.5zM985 483c0 59.333 -10.501 114.835 -31.501 166.502s-50 96.5 -87 134.5s-81 68 -132 90
s-106.167 33 -165.5 33c-60 0 -115.667 -10.833 -167 -32.5s-95.666 -51.5 -132.999 -89.5s-66.5 -82.833 -87.5 -134.5s-31.5 -107.5 -31.5 -167.5c0 -58.667 10.667 -113.834 32 -165.501s50.833 -96.667 88.5 -135s82 -68.5 133 -90.5s106.167 -33 165.5 -33
s114.5 11.167 165.5 33.5s95 52.666 132 90.999s66 83.333 87 135s31.5 106.5 31.5 164.5zM830.999 414.002c2 -39.333 -3.49902 -74.166 -16.499 -104.499s-31.167 -55.833 -54.5 -76.5s-50.833 -36.334 -82.5 -47.001s-65.834 -16 -102.501 -16
c-44.667 0 -84.667 8.16699 -120 24.5s-65.5 38.666 -90.5 66.999s-44.167 61.166 -57.5 98.499s-20 77 -20 119s6.66699 81.667 20 119s32.5 69.833 57.5 97.5s55.167 49.667 90.5 66s75.333 24.5 120 24.5c33.333 0 64.833 -4.5 94.5 -13.5s56 -22.167 79 -39.5
s41.667 -38.833 56 -64.5s23.166 -55.167 26.499 -88.5h-112c-9.33301 34.667 -25.333 62.334 -48 83.001s-54.667 31 -96 31c-31.333 0 -58 -6.16699 -80 -18.5s-40 -28.666 -54 -48.999s-24.167 -43.333 -30.5 -69s-9.5 -51.834 -9.5 -78.501
c0 -27.333 3.16699 -54 9.5 -80s16.5 -49.167 30.5 -69.5s32 -36.666 54 -48.999s48.667 -18.5 80 -18.5c44.667 0 79.834 13.333 105.501 40s39.167 64 40.5 112h110z" />
    <glyph glyph-name="guillemotleft" unicode="&#xab;" horiz-adv-x="653" 
d="M346 295v145l227 170v-149l-127 -94l127 -93v-149zM68 295v145l227 170v-149l-123 -94l123 -93v-149z" />
    <glyph glyph-name="logicalnot" unicode="&#xac;" horiz-adv-x="766" 
d="M619 119v178h-564v90h646v-268h-82z" />
    <glyph glyph-name="minus" unicode="&#xad;" horiz-adv-x="766" 
d="M41 274v134h684v-134h-684z" />
    <glyph glyph-name="registered" unicode="&#xae;" horiz-adv-x="1135" 
d="M1073 483c0 -70 -13.167 -135.667 -39.5 -197s-62.333 -115 -108 -161s-99.334 -82.167 -161.001 -108.5s-127.5 -39.5 -197.5 -39.5s-135.667 13.167 -197 39.5s-115 62.5 -161 108.5s-82.167 99.667 -108.5 161s-39.5 127 -39.5 197s13.167 135.5 39.5 196.5
s62.5 114.333 108.5 160s99.667 81.667 161 108s127 39.5 197 39.5s135.833 -13.167 197.5 -39.5s115.334 -62.333 161.001 -108s81.667 -99 108 -160s39.5 -126.5 39.5 -196.5zM987 483c0 58.667 -10.668 113.833 -32.001 165.5s-50.5 96.667 -87.5 135s-81 68.5 -132 90.5
s-105.833 33 -164.5 33c-60 0 -115.833 -11 -167.5 -33s-96.167 -52 -133.5 -90s-66.666 -82.833 -87.999 -134.5s-32 -107.167 -32 -166.5c0 -58.667 10.833 -113.834 32.5 -165.501s51.334 -96.834 89.001 -135.501s82.167 -69.167 133.5 -91.5
s106.666 -33.5 165.999 -33.5c58.667 0 113.5 11.333 164.5 34s95 53.334 132 92.001s66.167 83.834 87.5 135.501s32 106.5 32 164.5zM716.999 198.999c-9.33301 13.333 -14.833 27.499 -16.5 42.499s-2.5 30.833 -2.5 47.5c0 23.333 -1.33301 43.666 -4 60.999
s-7.66699 31.833 -15 43.5s-17.833 20.334 -31.5 26.001s-31.5 8.5 -53.5 8.5h-139v-229h-109v561h270c64.667 0 112.667 -13.667 144 -41s47 -65 47 -113c0 -23.333 -2.83301 -43 -8.5 -59s-12.5 -29.167 -20.5 -39.5s-16.5 -18.666 -25.5 -24.999
s-16.833 -10.833 -23.5 -13.5c8 -2.66699 16.167 -6.5 24.5 -11.5s16 -12.167 23 -21.5s12.833 -21 17.5 -35s7 -31 7 -51c0 -30.667 2.33301 -59.5 7 -86.5s14.667 -48.5 30 -64.5h-121zM697.999 593.998c0 16 -2.5 29.167 -7.5 39.5s-11.5 18.333 -19.5 24
s-17.333 9.5 -28 11.5s-21.667 3 -33 3h-155v-162h155c58.667 0 88 28 88 84z" />
    <glyph glyph-name="degree" unicode="&#xb0;" horiz-adv-x="541" 
d="M266 915c28.667 0 55.5 -5.33398 80.5 -16.001s46.667 -25 65 -43s32.833 -39.333 43.5 -64s16 -51 16 -79s-5.33301 -54.333 -16 -79s-25.167 -46.167 -43.5 -64.5s-40 -32.833 -65 -43.5s-51.833 -16 -80.5 -16c-27.333 0 -53 5.16699 -77 15.5
s-45.167 24.666 -63.5 42.999s-32.833 39.833 -43.5 64.5s-16 51.334 -16 80.001c0 26.667 5.16699 52.334 15.5 77.001s24.5 46.167 42.5 64.5s39.167 33 63.5 44s50.5 16.5 78.5 16.5zM266 857.999c-20.667 0 -39.833 -3.66602 -57.5 -10.999s-33 -17.5 -46 -30.5
s-23.167 -28.333 -30.5 -46s-11 -36.834 -11 -57.501c0 -20 3.83301 -39 11.5 -57s18 -33.667 31 -47s28.333 -24 46 -32s36.5 -12 56.5 -12c40.667 0 75.667 14.333 105 43c30 30.667 45 65.667 45 105c0 20 -4 38.833 -12 56.5s-18.833 33 -32.5 46s-29.5 23.333 -47.5 31
s-37.333 11.5 -58 11.5z" />
    <glyph glyph-name="paragraph" unicode="&#xb6;" horiz-adv-x="727" 
d="M629 -244l-62 0.000976562v1356h-145v-1356h-55v805c-112 0 -199.667 20.667 -263 62c-69.333 49.333 -104 127.666 -104 234.999c-0 102 31.333 178.333 94 229c60 44 142.667 66 248 66h389v-41h-102v-1356z" />
    <glyph glyph-name="periodcentered" unicode="&#xb7;" horiz-adv-x="338" 
d="M170 520c20.667 0 37.832 -7.16699 51.499 -21.5s20.5 -30.833 20.5 -49.5c0 -20.667 -7.16699 -38.167 -21.5 -52.5s-31.166 -21.5 -50.499 -21.5c-22 0 -39.833 6.83301 -53.5 20.5s-20.5 31.5 -20.5 53.5c0 20 6.83301 36.833 20.5 50.5s31.5 20.5 53.5 20.5z" />
    <glyph glyph-name="periodcentered" unicode="&#x2219;" horiz-adv-x="338" 
d="M170 520c20.667 0 37.832 -7.16699 51.499 -21.5s20.5 -30.833 20.5 -49.5c0 -20.667 -7.16699 -38.167 -21.5 -52.5s-31.166 -21.5 -50.499 -21.5c-22 0 -39.833 6.83301 -53.5 20.5s-20.5 31.5 -20.5 53.5c0 20 6.83301 36.833 20.5 50.5s31.5 20.5 53.5 20.5z" />
    <glyph glyph-name="guillemotright" unicode="&#xbb;" horiz-adv-x="653" 
d="M358 127v147l125 95l-125 94v145l226 -168v-143zM82 125v149l121 95l-121 94v147l223 -170v-143z" />
    <glyph glyph-name="multiply" unicode="&#xd7;" horiz-adv-x="766" 
d="M621 8l-240 240l-238 -238l-94 94l238 238l-238 238l94 94l238 -238l240 238l94 -94l-240 -238l240 -240z" />
    <glyph glyph-name="divide" unicode="&#xf7;" horiz-adv-x="766" 
d="M475 600c0 -24.667 -8.83301 -45.834 -26.5 -63.501s-38.834 -26.5 -63.501 -26.5s-45.834 8.83301 -63.501 26.5s-26.5 38.834 -26.5 63.501s8.83301 45.834 26.5 63.501s38.834 26.5 63.501 26.5s45.834 -8.83301 63.501 -26.5s26.5 -38.834 26.5 -63.501zM41 274v134
h684v-134h-684zM473 82c0 -24.667 -8.83301 -45.834 -26.5 -63.501s-38.834 -26.5 -63.501 -26.5s-45.834 8.83301 -63.501 26.5s-26.5 38.834 -26.5 63.501s8.83301 45.834 26.5 63.501s38.834 26.5 63.501 26.5s45.834 -8.83301 63.501 -26.5s26.5 -38.834 26.5 -63.501z
" />
    <glyph glyph-name="uni0E00" unicode="&#xe00;" horiz-adv-x="205" 
 />
    <glyph glyph-name="uni0E01" unicode="&#xe01;" horiz-adv-x="840" 
d="M602 0l0.000976562 547.001c0 24.667 -4.66699 46 -14 64s-22.333 32.833 -39 44.5s-36.667 20.334 -60 26.001s-49 8.5 -77 8.5c-22 0 -42.833 -2 -62.5 -6s-37.5 -9.5 -53.5 -16.5s-29.667 -14.833 -41 -23.5s-20 -18 -26 -28c14.667 -9.33301 28.667 -20.333 42 -33
s20 -26 20 -40c0 -10.667 -2.83301 -20.167 -8.5 -28.5s-11.667 -16.666 -18 -24.999s-12.333 -17.166 -18 -26.499s-8.5 -20.333 -8.5 -33v-430h-177v430c0 12 3.33301 22.167 10 30.5s14 16.166 22 23.499l22 21c6.66699 6.66699 10 14.334 10 23.001
c0 5.33301 -4.5 11.666 -13.5 18.999s-18.833 14.333 -29.5 21l-43 24c6.66699 39.333 21 74.166 43 104.499s49.667 55.666 83 75.999s71.166 35.666 113.499 45.999s87.5 15.5 135.5 15.5c48.667 0 95 -5.33301 139 -16s82.667 -27.167 116 -49.5
s59.833 -50.833 79.5 -85.5s29.5 -76 29.5 -124v-559h-176z" />
    <glyph glyph-name="uni0E02" unicode="&#xe02;" horiz-adv-x="758" 
d="M696 242c0 -49.333 -9.66992 -90.332 -29.0029 -122.999s-44.166 -58.834 -74.499 -78.501s-64.333 -33.667 -102 -42s-74.834 -12.5 -111.501 -12.5s-73.834 4.16699 -111.501 12.5s-71.834 22.333 -102.501 42s-55.667 45.834 -75 78.501s-29 73.667 -29 123v268
c0 16.667 3.83301 31 11.5 43s17 22.333 28 31s23.167 16.167 36.5 22.5s25.5 12.5 36.5 18.5s20.333 12.167 28 18.5s11.5 13.833 11.5 22.5c0 8 -4.16699 14 -12.5 18s-19.166 6 -32.499 6h-119v129h135c73.333 0 125.833 -11.667 157.5 -35s47.5 -60 47.5 -110
c0 -18.667 -3.66699 -34.334 -11 -47.001s-16.666 -23.5 -27.999 -32.5s-23.5 -16.833 -36.5 -23.5s-25.167 -13.5 -36.5 -20.5s-20.666 -14.667 -27.999 -23s-11 -18.833 -11 -31.5v-252c0 -22.667 3.83301 -41.334 11.5 -56.001s17.834 -26.334 30.501 -35.001
s27.5 -14.834 44.5 -18.501s35.167 -5.5 54.5 -5.5c18.667 0 36.667 1.83301 54 5.5s32.333 9.83398 45 18.501s22.834 20.334 30.501 35.001s11.5 33.334 11.5 56.001v575h176v-577v0z" />
    <glyph glyph-name="uni0E03" unicode="&#xe03;" horiz-adv-x="768" 
d="M707 238c0 -48 -9.66895 -88.167 -29.002 -120.5s-44.166 -58.333 -74.499 -78s-64.5 -33.5 -102.5 -41.5s-75.333 -12 -112 -12c-36 0 -72.833 4 -110.5 12s-71.834 21.833 -102.501 41.5s-55.667 45.667 -75 78s-29 72.5 -29 120.5v245c0 18 4 33.5 12 46.5
s18 24.333 30 34s24.833 18.167 38.5 25.5s26.5 14.833 38.5 22.5s22 15.667 30 24s12 18.5 12 30.5c0 7.33301 -0.833008 13.833 -2.5 19.5s-3.16699 10.167 -4.5 13.5c-2.66699 4 -5 7.33301 -7 10l-92 -78l-129 110l104 88l64 -55l63 51c58 4.66699 100.167 -5 126.5 -29
s39.5 -62 39.5 -114c0 -22.667 -3.66699 -42 -11 -58s-16.333 -29.833 -27 -41.5s-22.5 -22 -35.5 -31s-24.833 -17.833 -35.5 -26.5s-19.667 -17.667 -27 -27s-11 -20.333 -11 -33v-223c0 -22.667 3.83301 -41.334 11.5 -56.001s17.834 -26.334 30.501 -35.001
s27.5 -14.834 44.5 -18.501s35.167 -5.5 54.5 -5.5c18.667 0 36.667 1.83301 54 5.5s32.333 9.83398 45 18.501s22.834 20.334 30.501 35.001s11.5 33.334 11.5 56.001v577h177v-581v0z" />
    <glyph glyph-name="uni0E04" unicode="&#xe04;" horiz-adv-x="860" 
d="M623 0l0.000976562 557c0 24.667 -5.33301 45.334 -16 62.001s-25 30.334 -43 41.001s-38.667 18.334 -62 23.001s-47.333 7 -72 7c-25.333 0 -49.5 -2.33301 -72.5 -7s-43.333 -12.334 -61 -23.001s-31.834 -24.334 -42.501 -41.001s-16 -37.334 -16 -62.001v-72h249
v-151h-249v-334h-177v559c0 48 11 89.333 33 124s50.667 63.167 86 85.5s75 38.833 119 49.5s87.667 16 131 16c44.667 0 89 -5.33301 133 -16s83.5 -27.167 118.5 -49.5s63.333 -50.833 85 -85.5s32.5 -76 32.5 -124v-559h-176z" />
    <glyph glyph-name="uni0E05" unicode="&#xe05;" horiz-adv-x="860" 
d="M623 0v594c0 22.667 -5.83301 41.334 -17.5 56.001s-27.167 24.667 -46.5 30l-125 -86l-131 86c-18.667 -5.33301 -34.167 -15.333 -46.5 -30s-18.5 -33.334 -18.5 -56.001v-109h249v-151h-249v-334h-177v582c0 32.667 5.66699 63.334 17 92.001s28 54.167 50 76.5
s49.167 40.833 81.5 55.5s69.833 24 112.5 28l108 -76l109 76c42.667 -4 80.167 -13.333 112.5 -28s59.5 -33.167 81.5 -55.5s38.5 -47.833 49.5 -76.5s16.5 -59.334 16.5 -92.001v-582h-176z" />
    <glyph glyph-name="uni0E06" unicode="&#xe06;" horiz-adv-x="870" 
d="M809 252c0 -46 -6.6709 -85.6699 -20.0039 -119.003s-32.666 -60.666 -57.999 -81.999s-56 -37.166 -92 -47.499s-76.333 -15.5 -121 -15.5c-27.333 0 -54.166 3.5 -80.499 10.5s-51.166 16.333 -74.499 28s-44.833 25 -64.5 40s-36.5 30.5 -50.5 46.5v-113h-176v483
c0 18 4 33.5 12 46.5s18 24.333 30 34s24.833 18.167 38.5 25.5s26.5 14.833 38.5 22.5s22 15.667 30 24s12 18.5 12 30.5c0 7.33301 -0.833008 13.833 -2.5 19.5s-3.16699 10.167 -4.5 13.5c-2.66699 4 -5 7.33301 -7 10l-92 -78l-129 110l104 88l64 -55l63 51
c58 4.66699 100.167 -5 126.5 -29s39.5 -62 39.5 -114c0 -22.667 -3.66699 -42 -11 -58s-16.333 -29.833 -27 -41.5s-22.5 -22 -35.5 -31s-24.833 -17.833 -35.5 -26.5s-19.667 -17.667 -27 -27s-11 -20.333 -11 -33v-141c0 -19.333 6.16699 -40.333 18.5 -63
s29.5 -43.667 51.5 -63s48 -35.666 78 -48.999s62.667 -20 98 -20c20 0 38.333 2.16699 55 6.5s31.334 11.333 44.001 21s22.5 22.167 29.5 37.5s10.5 34 10.5 56v569h176v-567v0z" />
    <glyph glyph-name="uni0E07" unicode="&#xe07;" horiz-adv-x="774" 
d="M731 524c4 -37.333 5.16504 -76.166 3.49805 -116.499s-7.66699 -79.833 -18 -118.5s-25.166 -75.5 -44.499 -110.5s-44.333 -65.667 -75 -92s-67.667 -47.333 -111 -63s-94 -23.5 -152 -23.5h-117l-221 662l147 110l207 -618h2c38.667 0 71.667 9.66699 99 29
s49.333 44.833 66 76.5s28 67.5 34 107.5s7.33301 80.667 4 122c-6 72 -33.667 124.167 -83 156.5s-124.666 41.166 -225.999 26.499v153c76 10 143 9.83301 201 -0.5s107.167 -29 147.5 -56s71.833 -61.5 94.5 -103.5s36.667 -89 42 -141z" />
    <glyph glyph-name="uni0E08" unicode="&#xe08;" horiz-adv-x="797" 
d="M752 459c0 -81.333 -12.834 -152.331 -38.501 -212.998s-61.667 -110.5 -108 -149.5s-101.333 -67 -165 -84s-133.5 -22.5 -209.5 -16.5l-114 450l-37 66h201l88 -354c28 4 54.5 14.167 79.5 30.5s46.833 37.666 65.5 63.999s33.5 57 44.5 92s16.5 73.167 16.5 114.5
c0 34.667 -5.16699 66.334 -15.5 95.001s-24.833 53.167 -43.5 73.5s-41.334 36.166 -68.001 47.499s-56 17 -88 17c-49.333 0 -92.166 -10 -128.499 -30s-62.166 -49.667 -77.499 -89h-170c5.33301 38 18 73 38 105s46.167 59.5 78.5 82.5s70.333 41 114 54
s92.167 19.5 145.5 19.5c58 0 111 -8 159 -24s89.333 -39.833 124 -71.5s61.5 -70.834 80.5 -117.501s28.5 -100.667 28.5 -162z" />
    <glyph glyph-name="uni0E09" unicode="&#xe09;" horiz-adv-x="850" 
d="M612 0v113.003c-14 -16 -30 -31.5 -48 -46.5s-38.333 -28.333 -61 -40s-47.334 -21 -74.001 -28s-55.667 -10.5 -87 -10.5c-87.333 0 -154.166 21.167 -200.499 63.5s-69.5 109.166 -69.5 200.499v203l-21 63h197v-262c0 -45.333 11.5 -77.833 34.5 -97.5
s54.5 -29.5 94.5 -29.5c36 0 68.333 6.66699 97 20s53.334 29.666 74.001 48.999s36.5 40.333 47.5 63s16.5 43.667 16.5 63v223c0 25.333 -5.33301 47 -16 65s-25 32.833 -43 44.5s-39.333 20.167 -64 25.5s-51 8 -79 8c-21.333 0 -42.5 -1.66699 -63.5 -5
s-40.333 -8.83301 -58 -16.5s-33.334 -17.667 -47.001 -30s-23.834 -27.833 -30.501 -46.5h-184c10 44.667 28.167 82.5 54.5 113.5s57.166 56 92.499 75s73.5 32.667 114.5 41s81.5 12.5 121.5 12.5c50 0 97.833 -5.33301 143.5 -16s85.834 -27.334 120.501 -50.001
s62.334 -51.167 83.001 -85.5s31 -75.5 31 -123.5v-559h-176z" />
    <glyph glyph-name="uni0E0A" unicode="&#xe0a;" horiz-adv-x="823" 
d="M780 328c0 -57.333 -10.4971 -107.003 -31.4971 -149.003s-49.667 -76.667 -86 -104s-79.166 -47.5 -128.499 -60.5s-102.333 -19.167 -159 -18.5l-314 4v819h177v-678l131 -4c29.333 -1.33301 58.166 1.83398 86.499 9.50098s53.5 19.334 75.5 35.001
s39.667 35.667 53 60s20 52.5 20 84.5c0 24.667 -4.5 47.667 -13.5 69s-21.5 39.833 -37.5 55.5s-34.833 27.834 -56.5 36.501s-45.167 13 -70.5 13h-119v141h119c19.333 0 38.666 2.83301 57.999 8.5s36.166 15.334 50.499 29.001s25.5 32 33.5 55s10.333 51.5 7 85.5h173
c4.66699 -30 3.83398 -58.333 -2.49902 -85s-16.166 -50.834 -29.499 -72.501s-29.333 -40.5 -48 -56.5s-37.334 -28.667 -56.001 -38c22 -8 43.167 -19.667 63.5 -35s38.166 -33.333 53.499 -54s27.666 -43.667 36.999 -69s14 -52.333 14 -81z" />
    <glyph glyph-name="uni0E0B" unicode="&#xe0b;" horiz-adv-x="856" 
d="M813 328c0 -57.333 -10.4971 -107.003 -31.4971 -149.003s-49.667 -76.667 -86 -104s-79.166 -47.5 -128.499 -60.5s-102.333 -19.167 -159 -18.5l-314 4v483c0 18 3 33.5 9 46.5s13.5 24.333 22.5 34s18.667 18.167 29 25.5s20 14.833 29 22.5s16.5 15.667 22.5 24
s9 18.5 9 30.5c0 7.33301 -0.833008 13.833 -2.5 19.5s-3.16699 10.167 -4.5 13.5c-2.66699 4 -5 7.33301 -7 10l-92 -78l-129 110l104 88l63 -55l64 51c58 4.66699 100.167 -5 126.5 -29s39.5 -62 39.5 -114c0 -22.667 -2.66699 -42 -8 -58s-12 -29.833 -20 -41.5
s-16.5 -22 -25.5 -31l-25.5 -26.5c-8 -8.66699 -14.667 -17.667 -20 -27s-8 -20.333 -8 -33v-324l131 -4c30 -1.33301 59.167 1.83398 87.5 9.50098s53.5 19.334 75.5 35.001s39.667 35.667 53 60s20 52.5 20 84.5c0 24.667 -4.5 47.667 -13.5 69s-21.5 39.833 -37.5 55.5
s-34.833 27.834 -56.5 36.501s-45.167 13 -70.5 13h-62v141h62c19.333 0 38.666 2.83301 57.999 8.5s36.166 15.334 50.499 29.001s25.5 32 33.5 55s10.333 51.5 7 85.5h172c5.33301 -30 4.83301 -58.333 -1.5 -85s-16.166 -50.834 -29.499 -72.501s-29.333 -40.5 -48 -56.5
s-37.334 -28.667 -56.001 -38c22 -8 43.167 -19.667 63.5 -35s38.166 -33.333 53.499 -54s27.666 -43.667 36.999 -69s14 -52.333 14 -81z" />
    <glyph glyph-name="uni0E0C" unicode="&#xe0c;" horiz-adv-x="1319" 
d="M1257 254c0 -52.667 -7.49902 -96.167 -22.499 -130.5s-34.5 -61.5 -58.5 -81.5s-51.333 -34 -82 -42s-61.667 -12 -93 -12c-49.333 0 -93 9.66699 -131 29s-68.667 42.333 -92 69v-86h-176v547c0 24.667 -4.66699 46 -14 64s-22.333 32.833 -39 44.5
s-36.667 20.334 -60 26.001s-49 8.5 -77 8.5c-22 0 -42.833 -2 -62.5 -6s-37.5 -9.5 -53.5 -16.5s-29.667 -14.833 -41 -23.5s-20 -18 -26 -28c14.667 -9.33301 28.667 -20.333 42 -33s20 -26 20 -40c0 -10.667 -2.83301 -20.167 -8.5 -28.5s-11.667 -16.666 -18 -24.999
s-12.333 -17.166 -18 -26.499s-8.5 -20.333 -8.5 -33v-289h106v-141h-283v430c0 12 3.33301 22.167 10 30.5s14 16.166 22 23.499l22 21c6.66699 6.66699 10 14.334 10 23.001c0 5.33301 -4.5 11.666 -13.5 18.999s-18.833 14.333 -29.5 21l-43 24
c6.66699 39.333 21 74.166 43 104.499s49.667 55.666 83 75.999s71.166 35.666 113.499 45.999s87.5 15.5 135.5 15.5c48.667 0 95 -5.33301 139 -16s82.667 -27.167 116 -49.5s59.833 -50.833 79.5 -85.5s29.5 -76 29.5 -124v-268c0 -17.333 4.33301 -35 13 -53
s21 -34.333 37 -49s35.5 -26.667 58.5 -36s48.5 -14 76.5 -14c16 0 31.167 1.83301 45.5 5.5s26.833 10.167 37.5 19.5s19.167 21.833 25.5 37.5s9.5 35.834 9.5 60.501v557h176v-565v0z" />
    <glyph glyph-name="uni0E0D" unicode="&#xe0d;" horiz-adv-x="1319" 
d="M1257 57c0 -46.667 -7.83594 -87.665 -23.5029 -122.998s-37.667 -65 -66 -89s-62.666 -42 -102.999 -54s-85.166 -18 -134.499 -18h-328v135h316c28.667 0 53.5 3.5 74.5 10.5s38.333 16.333 52 28s23.5 25.334 29.5 41.001s8.33301 32.167 7 49.5
c-7.33301 -6 -16.5 -12.333 -27.5 -19s-24.333 -12.834 -40 -18.501s-34 -10.334 -55 -14.001s-44.833 -5.5 -71.5 -5.5c-36.667 0 -72.167 4 -106.5 12s-64.666 21.5 -90.999 40.5s-47.5 44.5 -63.5 76.5s-24 72 -24 120v318c0 24.667 -4.66699 46 -14 64
s-22.333 32.833 -39 44.5s-36.667 20.334 -60 26.001s-49 8.5 -77 8.5c-22 0 -42.833 -2 -62.5 -6s-37.5 -9.5 -53.5 -16.5s-29.667 -14.833 -41 -23.5s-20 -18 -26 -28c14.667 -9.33301 28.667 -20.333 42 -33s20 -26 20 -40c0 -10.667 -2.83301 -20.167 -8.5 -28.5
s-11.667 -16.666 -18 -24.999s-12.333 -17.166 -18 -26.499s-8.5 -20.333 -8.5 -33v-289h106v-141h-283v430c0 12 3.33301 22.167 10 30.5s14 16.166 22 23.499l22 21c6.66699 6.66699 10 14.334 10 23.001c0 5.33301 -4.5 11.666 -13.5 18.999s-18.833 14.333 -29.5 21
l-43 24c6.66699 39.333 21 74.166 43 104.499s49.667 55.666 83 75.999s71.166 35.666 113.499 45.999s87.5 15.5 135.5 15.5c48.667 0 95 -5.33301 139 -16s82.667 -27.167 116 -49.5s59.833 -50.833 79.5 -85.5s29.5 -76 29.5 -124v-321c0 -22.667 3.5 -41.5 10.5 -56.5
s16.5 -26.833 28.5 -35.5s25.833 -14.667 41.5 -18s32.5 -5 50.5 -5c20.667 0 41.334 3 62.001 9s39.167 15 55.5 27s29.5 27 39.5 45s15 39.333 15 64v551h176v-762v0z" />
    <glyph glyph-name="uni0E0E" unicode="&#xe0e;" horiz-adv-x="860" 
d="M639 -307l-129.003 100.002l-125 -100h-268v137h219l176 131l111 -86v672c0 48.667 -17.667 84.667 -53 108s-81.333 35 -138 35c-22 0 -42.833 -2 -62.5 -6s-37.5 -9.5 -53.5 -16.5s-29.667 -14.833 -41 -23.5s-19.666 -18 -24.999 -28
c14.667 -9.33301 28.5 -20.333 41.5 -33s19.5 -26 19.5 -40c0 -10.667 -2.83301 -20.167 -8.5 -28.5s-11.667 -16.666 -18 -24.999s-12.333 -17.166 -18 -26.499s-8.5 -20.333 -8.5 -33v-430h-248v143h72v287c0 12 3.33301 22.167 10 30.5s13.834 16.166 21.501 23.499
l21.5 21c6.66699 6.66699 10 14.334 10 23.001c0 5.33301 -4.5 11.666 -13.5 18.999s-18.833 14.333 -29.5 21l-43 24c6.66699 39.333 21 74.166 43 104.499s49.667 55.666 83 75.999s71.333 35.666 114 45.999s87.667 15.5 135 15.5c48.667 0 95 -5.33301 139 -16
s82.833 -27.167 116.5 -49.5s60.334 -50.833 80.001 -85.5s29.5 -76 29.5 -124v-866h-160z" />
    <glyph glyph-name="uni0E0F" unicode="&#xe0f;" horiz-adv-x="860" 
d="M639 -307l-92.0029 78.002l-103 -101l-110 103l-80 -80h-209v135h152l139 115l104 -93l109 93l74 -56v660c0 48.667 -17.667 84.667 -53 108s-81.333 35 -138 35c-22 0 -42.833 -2 -62.5 -6s-37.5 -9.5 -53.5 -16.5s-29.667 -14.833 -41 -23.5s-19.666 -18 -24.999 -28
c14.667 -9.33301 28.5 -20.333 41.5 -33s19.5 -26 19.5 -40c0 -10.667 -2.83301 -20.167 -8.5 -28.5s-11.667 -16.666 -18 -24.999s-12.333 -17.166 -18 -26.499s-8.5 -20.333 -8.5 -33v-430h-248v143h72v287c0 12 3.33301 22.167 10 30.5s13.834 16.166 21.501 23.499
l21.5 21c6.66699 6.66699 10 14.334 10 23.001c0 5.33301 -4.5 11.666 -13.5 18.999s-18.833 14.333 -29.5 21l-43 24c6.66699 39.333 21 74.166 43 104.499s49.667 55.666 83 75.999s71.333 35.666 114 45.999s87.667 15.5 135 15.5c48.667 0 95 -5.33301 139 -16
s82.833 -27.167 116.5 -49.5s60.334 -50.833 80.001 -85.5s29.5 -76 29.5 -124v-866h-160z" />
    <glyph glyph-name="uni0E10" unicode="&#xe10;" horiz-adv-x="797" 
d="M752 459c0 -81.333 -12.833 -152.332 -38.5 -212.999s-61.667 -110.5 -108 -149.5s-101.333 -67 -165 -84s-133.5 -22.5 -209.5 -16.5l-114 450l-37 66h201l88 -354c28 4 54.5 14.167 79.5 30.5s46.833 37.666 65.5 63.999s33.5 57 44.5 92s16.5 73.167 16.5 114.5
c0 34.667 -5.16699 66.334 -15.5 95.001s-24.833 53.167 -43.5 73.5s-41.334 36.166 -68.001 47.499s-56 17 -88 17c-49.333 0 -92.166 -10 -128.499 -30s-62.166 -49.667 -77.499 -89h-170c5.33301 38 18 73 38 105s46.167 59.5 78.5 82.5s70.333 41 114 54
s92.167 19.5 145.5 19.5c26 0 50.5 -1.66699 73.5 -5s45.167 -8 66.5 -14c10 7.33301 19 17 27 29s12 24.333 12 37h186c0 -15.333 -2.83301 -29.833 -8.5 -43.5s-12.834 -26.167 -21.501 -37.5s-18.5 -21.5 -29.5 -30.5s-21.833 -16.167 -32.5 -21.5
c37.333 -32 66.5 -72 87.5 -120s31.5 -104.333 31.5 -169zM532 -302.999l-81 67l-95 -88l-96 91l-86 -66h-190v135h145l133 98l94 -86l86 86l78 -71v104h156v-270h-144z" />
    <glyph glyph-name="uni0E11" unicode="&#xe11;" horiz-adv-x="903" 
d="M666 0v583.999c0 10 -0.333008 20.333 -1 31s-2.33398 20.5 -5.00098 29.5s-7 16.5 -13 22.5s-14 9 -24 9c-7.33301 0 -15.833 -4.33301 -25.5 -13s-19.667 -20 -30 -34s-20.833 -29.5 -31.5 -46.5s-20.667 -33.833 -30 -50.5c-16 -28 -32.667 -59.167 -50 -93.5
l-51 -104l-47.5 -104c-15 -34.333 -28.167 -66 -39.5 -95s-20.333 -54.167 -27 -75.5s-10 -36.666 -10 -45.999v-14h-177v483c0 18 2.66699 33.5 8 46.5s12.166 24.333 20.499 34s17.333 18.167 27 25.5s18.667 14.833 27 22.5s15.166 15.667 20.499 24s8 18.5 8 30.5
c0 7.33301 -0.833008 13.833 -2.5 19.5s-3.16699 10.167 -4.5 13.5c-2.66699 4 -5 7.33301 -7 10l-92 -78l-129 110l104 88l63 -55l64 51c58 4.66699 100.167 -5 126.5 -29s39.5 -62 39.5 -114c0 -22.667 -2.33301 -42 -7 -58s-10.667 -29.833 -18 -41.5s-15 -22 -23 -31
l-23 -26.5c-7.33301 -8.66699 -13.333 -17.667 -18 -27s-7 -20.333 -7 -33v-19c0 -9.33301 -1 -23.333 -3 -42s-4.33301 -37.667 -7 -57l-9 -71h6l7.5 36c3.66699 17.333 8.16699 36.5 13.5 57.5s11.333 41.833 18 62.5s13.667 37.667 21 51c18 36.667 39 75.667 63 117
c18.667 32 37.667 61.833 57 89.5s39.333 51.667 60 72s42.334 36.333 65.001 48s46.667 17.5 72 17.5c39.333 0 71.833 -6.16699 97.5 -18.5s45.834 -28.833 60.501 -49.5s24.834 -44.5 30.501 -71.5s8.5 -55.5 8.5 -85.5v-602h-176z" />
    <glyph glyph-name="uni0E12" unicode="&#xe12;" horiz-adv-x="1380" 
d="M1319 254c0 -52.667 -7.49512 -96.168 -22.4951 -130.501s-34.5 -61.5 -58.5 -81.5s-51.333 -34 -82 -42s-61.667 -12 -93 -12c-49.333 0 -93 9.66699 -131 29s-68.667 42.333 -92 69v-86h-176v594c0 12 -2.5 23.333 -7.5 34s-11.333 19.834 -19 27.501
s-16.334 13.667 -26.001 18s-19.5 6.5 -29.5 6.5l-129 -86l-134 86c-9.33301 0 -18.833 -2.16699 -28.5 -6.5s-18.334 -10.333 -26.001 -18s-14 -16.834 -19 -27.501s-7.5 -22 -7.5 -34v-285c0 -13.333 -0.666992 -28.833 -2 -46.5l-4 -50.5c-2 -18.667 -3.66699 -38 -5 -58
h6l28 49l26.5 44.5l27.5 43.5l95 139h-84v131h262v-112l-316 -449h-211v582c0 32.667 6.16699 63.667 18.5 93s30.166 55.333 53.499 78s52.166 41.167 86.499 55.5s73.166 22.833 116.499 25.5l115 -76l114 76c43.333 -2.66699 82 -11.167 116 -25.5
s62.833 -32.833 86.5 -55.5s41.667 -48.667 54 -78s18.5 -60.333 18.5 -93v-291c0 -17.333 4.33301 -35 13 -53s21 -34.333 37 -49s35.333 -26.667 58 -36s48 -14 76 -14c16.667 0 32.167 1.83301 46.5 5.5s26.833 10.167 37.5 19.5s19.167 21.833 25.5 37.5
s9.5 35.834 9.5 60.501v557h176v-565v0z" />
    <glyph glyph-name="uni0E13" unicode="&#xe13;" horiz-adv-x="1319" 
d="M1081 0l0.000976562 86.002c-23.333 -26.667 -54 -49.667 -92 -69s-81.667 -29 -131 -29c-31.333 0 -62.333 4 -93 12s-58 22 -82 42s-43.5 47.167 -58.5 81.5s-22.5 77.833 -22.5 130.5v293c0 24.667 -4.66699 46 -14 64s-22.333 32.833 -39 44.5
s-36.667 20.334 -60 26.001s-49 8.5 -77 8.5c-22 0 -42.833 -2 -62.5 -6s-37.5 -9.5 -53.5 -16.5s-29.667 -14.833 -41 -23.5s-20 -18 -26 -28c14.667 -9.33301 28.667 -20.333 42 -33s20 -26 20 -40c0 -10.667 -2.83301 -20.167 -8.5 -28.5s-11.667 -16.666 -18 -24.999
s-12.333 -17.166 -18 -26.499s-8.5 -20.333 -8.5 -33v-289h106v-141h-283v430c0 12 3.33301 22.167 10 30.5s14 16.166 22 23.499l22 21c6.66699 6.66699 10 14.334 10 23.001c0 5.33301 -4.5 11.666 -13.5 18.999s-18.833 14.333 -29.5 21l-43 24
c6.66699 39.333 21 74.166 43 104.499s49.667 55.666 83 75.999s71.166 35.666 113.499 45.999s87.5 15.5 135.5 15.5c48.667 0 95 -5.33301 139 -16s82.667 -27.167 116 -49.5s59.833 -50.833 79.5 -85.5s29.5 -76 29.5 -124v-297c0 -24.667 3.16699 -44.834 9.5 -60.501
s14.833 -28.167 25.5 -37.5s23.167 -15.833 37.5 -19.5s29.833 -5.5 46.5 -5.5c28 0 53.333 4.66699 76 14s42 21.333 58 36s28.333 31 37 49s13 35.667 13 53v528h176v-819h-176z" />
    <glyph glyph-name="uni0E14" unicode="&#xe14;" horiz-adv-x="901" 
d="M664 0l0.00390625 547c0 24.667 -5.83301 46.167 -17.5 64.5s-27.167 33.166 -46.5 44.499s-41.833 19.833 -67.5 25.5s-52.834 8.5 -81.501 8.5s-55.834 -2.83301 -81.501 -8.5s-48.334 -14.167 -68.001 -25.5s-35.167 -26.166 -46.5 -44.499s-17 -39.833 -17 -64.5
v-203c0 -12.667 -1 -29.5 -3 -50.5l-6 -62.5c-2.66699 -24 -5.33398 -49.667 -8.00098 -77h6l22 50l22 44c8 15.333 16.667 29 26 41l115 155h-86v134h262v-115l-338 -463h-189v559c0 48 11.333 89.167 34 123.5s52.5 62.833 89.5 85.5s78.667 39.334 125 50.001
s93.5 16 141.5 16c48.667 0 96.167 -5.33301 142.5 -16s87.833 -27.334 124.5 -50.001s66.167 -51.167 88.5 -85.5s33.5 -75.5 33.5 -123.5v-559h-176z" />
    <glyph glyph-name="uni0E15" unicode="&#xe15;" horiz-adv-x="922" 
d="M684 0l0.00585938 593.998c0 12 -2.5 23.333 -7.5 34s-11.333 19.834 -19 27.501s-16.334 13.667 -26.001 18s-19.5 6.5 -29.5 6.5l-139 -86l-144 86c-9.33301 0 -18.833 -2.16699 -28.5 -6.5s-18.334 -10.333 -26.001 -18s-14 -16.834 -19 -27.501s-7.5 -22 -7.5 -34
v-285c0 -13.333 -0.666992 -28.833 -2 -46.5l-4 -50.5c-2 -18.667 -3.66699 -38 -5 -58h6c8.66699 16.667 18 33.334 28 50.001c8 14 17 28.833 27 44.5s19.667 29.834 29 42.501l103 139h-84v131h262v-112l-326 -449h-211v582c0 32.667 6.16699 63.667 18.5 93
s30.166 55.333 53.499 78s52.166 41.167 86.499 55.5s73.166 22.833 116.499 25.5l125 -76l125 76c43.333 -2.66699 82 -11.167 116 -25.5s62.667 -32.833 86 -55.5s41.166 -48.667 53.499 -78s18.5 -60.333 18.5 -93v-582h-176z" />
    <glyph glyph-name="uni0E16" unicode="&#xe16;" horiz-adv-x="840" 
d="M602 0l0.000976562 547.001c0 24.667 -4.66699 46 -14 64s-22.333 32.833 -39 44.5s-36.667 20.334 -60 26.001s-49 8.5 -77 8.5c-22 0 -42.833 -2 -62.5 -6s-37.5 -9.5 -53.5 -16.5s-29.667 -14.833 -41 -23.5s-20 -18 -26 -28c14.667 -9.33301 28.667 -20.333 42 -33
s20 -26 20 -40c0 -10.667 -2.83301 -20.167 -8.5 -28.5s-11.667 -16.666 -18 -24.999s-12.333 -17.166 -18 -26.499s-8.5 -20.333 -8.5 -33v-289h106v-141h-283v430c0 12 3.33301 22.167 10 30.5s14 16.166 22 23.499l22 21c6.66699 6.66699 10 14.334 10 23.001
c0 5.33301 -4.5 11.666 -13.5 18.999s-18.833 14.333 -29.5 21l-43 24c6.66699 39.333 21 74.166 43 104.499s49.667 55.666 83 75.999s71.166 35.666 113.499 45.999s87.5 15.5 135.5 15.5c48.667 0 95 -5.33301 139 -16s82.667 -27.167 116 -49.5
s59.833 -50.833 79.5 -85.5s29.5 -76 29.5 -124v-559h-176z" />
    <glyph glyph-name="uni0E17" unicode="&#xe17;" horiz-adv-x="860" 
d="M623 0l0.000976562 564.999c0 44 -13.333 75.833 -40 95.5s-60 29.5 -100 29.5c-35.333 0 -68 -6.66699 -98 -20s-55.833 -29.666 -77.5 -48.999s-38.667 -40.333 -51 -63s-18.5 -43.334 -18.5 -62.001v-496h-177v819h177v-112c14 16 30.667 31.333 50 46
s40.833 27.834 64.5 39.501s48.667 21 75 28s53.166 10.5 80.499 10.5c90 0 161 -22 213 -66s78 -111.333 78 -202v-563h-176z" />
    <glyph glyph-name="uni0E18" unicode="&#xe18;" horiz-adv-x="823" 
d="M782 287c0 -59.333 -8.83594 -107.667 -26.5029 -145s-41.334 -66.5 -71.001 -87.5s-64.167 -35.333 -103.5 -43s-80.666 -11.5 -123.999 -11.5h-396v401h177v-258h180c24.667 0 48.5 1.66699 71.5 5s43.333 10 61 20s31.5 24 41.5 42s14.667 41.667 14 71
c-1.33301 22.667 -6.66602 41.834 -15.999 57.501s-22.166 28.667 -38.499 39s-35.5 18.333 -57.5 24s-46 9.83398 -72 12.501c-50 4.66699 -98 9.5 -144 14.5s-86.667 14.167 -122 27.5s-63.166 32.666 -83.499 57.999s-29.5 61 -27.5 107c1.33301 32 10.833 61 28.5 87
s42 48.333 73 67s68 33.167 111 43.5s90.167 15.5 141.5 15.5c46 0 90.5 -4 133.5 -12s81.667 -21.5 116 -40.5s62.833 -44 85.5 -75s36.667 -69.167 42 -114.5h-176c-4.66699 18.667 -14 34.167 -28 46.5s-30.667 22.333 -50 30s-40.666 13.167 -63.999 16.5
s-46.333 5 -69 5c-23.333 0 -45.166 -1.66699 -65.499 -5s-38 -8 -53 -14s-27 -13.333 -36 -22s-13.5 -18 -13.5 -28c0 -10.667 6.66699 -19.167 20 -25.5s30.833 -11.333 52.5 -15s46.5 -6.83398 74.5 -9.50098l87 -8c42 -4 82.667 -11 122 -21
s74.166 -25.167 104.499 -45.5s54.666 -47.333 72.999 -81s27.5 -76.5 27.5 -128.5z" />
    <glyph glyph-name="uni0E19" unicode="&#xe19;" horiz-adv-x="860" 
d="M623 0l-0.000976562 113.001c-14 -16 -30.833 -31.5 -50.5 -46.5s-41.334 -28.333 -65.001 -40s-48.667 -21 -75 -28s-53.166 -10.5 -80.499 -10.5c-45.333 0 -85.833 5.5 -121.5 16.5s-66.167 27.5 -91.5 49.5s-44.666 49.833 -57.999 83.5s-20 73.167 -20 118.5v563
h177v-565c0 -44 13.167 -75.833 39.5 -95.5s59.5 -29.5 99.5 -29.5c35.333 0 68 6.66699 98 20s56 29.666 78 48.999s39.167 40.333 51.5 63s18.5 43.667 18.5 63v495h176v-819h-176z" />
    <glyph glyph-name="uni0E1A" unicode="&#xe1a;" horiz-adv-x="860" 
d="M799 264c0 -48 -10.332 -89.5 -30.999 -124.5s-48 -63.833 -82 -86.5s-73.167 -39.5 -117.5 -50.5s-90.5 -16.5 -138.5 -16.5c-48.667 0 -95.167 5.5 -139.5 16.5s-83.5 27.833 -117.5 50.5s-61.167 51.5 -81.5 86.5s-30.5 76.5 -30.5 124.5v555h177v-545
c0 -25.333 5.16699 -47 15.5 -65s24.333 -33 42 -45s38.167 -20.833 61.5 -26.5s47.666 -8.5 72.999 -8.5s49.666 2.83301 72.999 8.5s43.833 14.5 61.5 26.5s31.834 27 42.501 45s16 39.667 16 65v545h176v-555v0z" />
    <glyph glyph-name="uni0E1B" unicode="&#xe1b;" horiz-adv-x="860" 
d="M799 264c0 -48 -10.332 -89.5 -30.999 -124.5s-48 -63.833 -82 -86.5s-73.167 -39.5 -117.5 -50.5s-90.5 -16.5 -138.5 -16.5c-48.667 0 -95.167 5.5 -139.5 16.5s-83.5 27.833 -117.5 50.5s-61.167 51.5 -81.5 86.5s-30.5 76.5 -30.5 124.5v555h177v-545
c0 -25.333 5.16699 -47 15.5 -65s24.333 -33 42 -45s38.167 -20.833 61.5 -26.5s47.666 -8.5 72.999 -8.5s49.666 2.83301 72.999 8.5s43.833 14.5 61.5 26.5s31.834 27 42.501 45s16 39.667 16 65v740h176v-750v0z" />
    <glyph glyph-name="uni0E1C" unicode="&#xe1c;" horiz-adv-x="1004" 
d="M942 246c0 -46.667 -6.16797 -86.5 -18.501 -119.5s-29.5 -59.833 -51.5 -80.5s-47.833 -35.834 -77.5 -45.501s-61.834 -14.5 -96.501 -14.5c-25.333 0 -48 2.83301 -68 8.5s-38 13 -54 22s-30.167 19.167 -42.5 30.5s-22.833 23 -31.5 35
c-8.66699 -12 -19.167 -23.667 -31.5 -35s-26.5 -21.5 -42.5 -30.5s-34.167 -16.333 -54.5 -22s-43.166 -8.5 -68.499 -8.5c-34 0 -65.833 4.83301 -95.5 14.5s-55.5 24.834 -77.5 45.501s-39.333 47.5 -52 80.5s-19 72.833 -19 119.5v409c0 50.667 15.667 90.667 47 120
s75.333 44 132 44h94v-143h-39c-17.333 0 -31.166 -4.66699 -41.499 -14s-15.5 -23 -15.5 -41v-371c0 -39.333 6.5 -69.333 19.5 -90s33.5 -31 61.5 -31c27.333 0 50 11 68 33s27 56 27 102v555h176v-555c0 -46 9 -80 27 -102s40.333 -33 67 -33c28 0 48.667 10.333 62 31
s20 50.667 20 90v569h176v-573v0z" />
    <glyph glyph-name="uni0E1D" unicode="&#xe1d;" horiz-adv-x="1004" 
d="M942 246c0 -46.667 -6.16797 -86.5 -18.501 -119.5s-29.5 -59.833 -51.5 -80.5s-47.833 -35.834 -77.5 -45.501s-61.834 -14.5 -96.501 -14.5c-25.333 0 -48 2.83301 -68 8.5s-38 13 -54 22s-30.167 19.167 -42.5 30.5s-22.833 23 -31.5 35
c-8.66699 -12 -19.167 -23.667 -31.5 -35s-26.5 -21.5 -42.5 -30.5s-34.167 -16.333 -54.5 -22s-43.166 -8.5 -68.499 -8.5c-34 0 -65.833 4.83301 -95.5 14.5s-55.5 24.834 -77.5 45.501s-39.333 47.5 -52 80.5s-19 72.833 -19 119.5v409c0 50.667 15.667 90.667 47 120
s75.333 44 132 44h94v-143h-39c-17.333 0 -31.166 -4.66699 -41.499 -14s-15.5 -23 -15.5 -41v-371c0 -39.333 6.5 -69.333 19.5 -90s33.5 -31 61.5 -31c27.333 0 50 11 68 33s27 56 27 102v555h176v-555c0 -46 9 -80 27 -102s40.333 -33 67 -33c28 0 48.667 10.333 62 31
s20 50.667 20 90v764h176v-768v0z" />
    <glyph glyph-name="uni0E1E" unicode="&#xe1e;" horiz-adv-x="1004" 
d="M942 246c0 -46.667 -6.16699 -86.5 -18.5 -119.5s-29.5 -59.833 -51.5 -80.5s-47.833 -35.834 -77.5 -45.501s-61.834 -14.5 -96.501 -14.5c-25.333 0 -48 2.83301 -68 8.5s-38 13 -54 22s-30.167 19.167 -42.5 30.5s-22.833 23 -31.5 35
c-8.66699 -12 -19.167 -23.667 -31.5 -35s-26.5 -21.5 -42.5 -30.5s-34.167 -16.333 -54.5 -22s-43.166 -8.5 -68.499 -8.5c-34 0 -65.833 4.83301 -95.5 14.5s-55.5 24.834 -77.5 45.501s-39.333 47.5 -52 80.5s-19 72.833 -19 119.5v573h177v-569
c0 -39.333 6.5 -69.333 19.5 -90s33.5 -31 61.5 -31c27.333 0 50 11 68 33s27 56 27 102v555h176v-555c0 -46 9 -80 27 -102s40.333 -33 67 -33c28 0 48.667 10.333 62 31s20 50.667 20 90v569h176v-573v0z" />
    <glyph glyph-name="uni0E1F" unicode="&#xe1f;" horiz-adv-x="1004" 
d="M942 246c0 -46.667 -6.16699 -86.5 -18.5 -119.5s-29.5 -59.833 -51.5 -80.5s-47.833 -35.834 -77.5 -45.501s-61.834 -14.5 -96.501 -14.5c-25.333 0 -48 2.83301 -68 8.5s-38 13 -54 22s-30.167 19.167 -42.5 30.5s-22.833 23 -31.5 35
c-8.66699 -12 -19.167 -23.667 -31.5 -35s-26.5 -21.5 -42.5 -30.5s-34.167 -16.333 -54.5 -22s-43.166 -8.5 -68.499 -8.5c-34 0 -65.833 4.83301 -95.5 14.5s-55.5 24.834 -77.5 45.501s-39.333 47.5 -52 80.5s-19 72.833 -19 119.5v573h177v-569
c0 -39.333 6.5 -69.333 19.5 -90s33.5 -31 61.5 -31c27.333 0 50 11 68 33s27 56 27 102v555h176v-555c0 -46 9 -80 27 -102s40.333 -33 67 -33c28 0 48.667 10.333 62 31s20 50.667 20 90v764h176v-768v0z" />
    <glyph glyph-name="uni0E20" unicode="&#xe20;" horiz-adv-x="860" 
d="M623 0l-0.00292969 547.002c0 48.667 -17.667 84.667 -53 108s-81.333 35 -138 35c-22 0 -42.833 -2 -62.5 -6s-37.5 -9.5 -53.5 -16.5s-29.667 -14.833 -41 -23.5s-19.666 -18 -24.999 -28c14.667 -9.33301 28.5 -20.333 41.5 -33s19.5 -26 19.5 -40
c0 -10.667 -2.83301 -20.167 -8.5 -28.5s-11.667 -16.666 -18 -24.999s-12.333 -17.166 -18 -26.499s-8.5 -20.333 -8.5 -33v-430h-248v143h72v287c0 12 3.33301 22.167 10 30.5s13.834 16.166 21.501 23.499l21.5 21c6.66699 6.66699 10 14.334 10 23.001
c0 5.33301 -4.5 11.666 -13.5 18.999s-18.833 14.333 -29.5 21l-43 24c6.66699 39.333 21 74.166 43 104.499s49.667 55.666 83 75.999s71.333 35.666 114 45.999s87.667 15.5 135 15.5c48.667 0 95 -5.33301 139 -16s82.833 -27.167 116.5 -49.5
s60.334 -50.833 80.001 -85.5s29.5 -76 29.5 -124v-559h-176z" />
    <glyph glyph-name="uni0E21" unicode="&#xe21;" horiz-adv-x="860" 
d="M799 256c0 -45.333 -6.66895 -84.834 -20.002 -118.501s-32.666 -61.5 -57.999 -83.5s-56 -38.5 -92 -49.5s-76.333 -16.5 -121 -16.5c-27.333 0 -54.166 3.5 -80.499 10.5s-51.333 16.333 -75 28s-45.167 25 -64.5 40s-36 30.5 -50 46.5v-113h-177v819h177v-495
c0 -19.333 6.16699 -40.333 18.5 -63s29.333 -43.667 51 -63s47.5 -35.666 77.5 -48.999s62.667 -20 98 -20c40 0 73.333 9.83301 100 29.5s40 51.5 40 95.5v565h176v-563v0z" />
    <glyph glyph-name="uni0E22" unicode="&#xe22;" horiz-adv-x="870" 
d="M414 -8c-124 -3.33301 -218.667 17.3301 -284 61.9971s-97 114 -95 208c0.666992 22.667 5.16699 44.167 13.5 64.5s19.166 39 32.499 56s29 31.5 47 43.5s36.667 21 56 27c-14.667 3.33301 -29.667 9 -45 17s-29.166 18.5 -41.499 31.5s-22.5 28.5 -30.5 46.5
s-12 38.667 -12 62c0 48.667 14.833 90.5 44.5 125.5s69.5 60.167 119.5 75.5c28 8 61.333 12.333 100 13s75.667 -1.66602 111 -6.99902v-143c-28 5.33301 -54 8.16602 -78 8.49902s-45 -2.16699 -63 -7.5s-32.167 -13.333 -42.5 -24s-15.5 -24.334 -15.5 -41.001
c0 -16 4.33301 -28.667 13 -38s20 -16.666 34 -21.999s30 -8.83301 48 -10.5s36.333 -2.5 55 -2.5h78v-144h-56c-64 0 -111.667 -12.333 -143 -37s-47 -56 -47 -94c0 -26 5.83301 -47.167 17.5 -63.5s27.667 -29.166 48 -38.499s44 -15.666 71 -18.999
s55.833 -4.66602 86.5 -3.99902l197 4v678h176v-819z" />
    <glyph glyph-name="uni0E23" unicode="&#xe23;" horiz-adv-x="793" 
d="M762 268c0 -55.333 -10.6621 -101.168 -31.9951 -137.501s-49.5 -65.166 -84.5 -86.499s-74.833 -36.333 -119.5 -45s-90.334 -13 -137.001 -13s-91.834 4.5 -135.501 13.5s-82.667 25.333 -117 49s-62 56.334 -83 98.001s-32.167 95.167 -33.5 160.5h179
c0 -36 5.66699 -65.5 17 -88.5s26 -41.167 44 -54.5s38.333 -22.5 61 -27.5s45.334 -7.5 68.001 -7.5c26 0 50.833 2.16699 74.5 6.5s44.5 11.666 62.5 21.999s32.5 24 43.5 41s16.5 38.167 16.5 63.5c0 21.333 -5.33301 39 -16 53s-24.334 25.167 -41.001 33.5
s-35.334 14.666 -56.001 18.999s-41 7.5 -61 9.5c-49.333 4.66699 -96.333 10 -141 16s-84 16.167 -118 30.5s-61.167 35 -81.5 62s-30.5 63.833 -30.5 110.5c0 34.667 9.16699 66.667 27.5 96s43 54.5 74 75.5s67.333 37.333 109 49s86.167 17.5 133.5 17.5
c44 0 87.5 -4.5 130.5 -13.5s81.667 -23.833 116 -44.5s62.5 -47.834 84.5 -81.501s34 -74.834 36 -123.501h-177c-2 22 -9.33301 40.5 -22 55.5s-28.167 27.333 -46.5 37s-38.666 16.5 -60.999 20.5s-43.833 6 -64.5 6s-40.834 -1.83301 -60.501 -5.5
s-37.167 -9.16699 -52.5 -16.5s-27.666 -16.166 -36.999 -26.499s-14 -22.166 -14 -35.499c0 -14 6.5 -25.333 19.5 -34s29.833 -15.5 50.5 -20.5s44 -8.83301 70 -11.5l79 -8c41.333 -4 81.666 -10.5 120.999 -19.5s74.166 -23.167 104.499 -42.5
s54.666 -45.166 72.999 -77.499s27.5 -73.833 27.5 -124.5z" />
    <glyph glyph-name="uni0E24" unicode="&#xe24;" horiz-adv-x="840" 
d="M602 -246l0.000976562 793.001c0 24.667 -4.66699 46 -14 64s-22.333 32.833 -39 44.5s-36.667 20.334 -60 26.001s-49 8.5 -77 8.5c-22 0 -42.833 -2 -62.5 -6s-37.5 -9.5 -53.5 -16.5s-29.667 -14.833 -41 -23.5s-20 -18 -26 -28
c14.667 -9.33301 28.667 -20.333 42 -33s20 -26 20 -40c0 -10.667 -2.83301 -20.167 -8.5 -28.5s-11.667 -16.666 -18 -24.999s-12.333 -17.166 -18 -26.499s-8.5 -20.333 -8.5 -33v-289h106v-141h-283v430c0 12 3.33301 22.167 10 30.5s14 16.166 22 23.499l22 21
c6.66699 6.66699 10 14.334 10 23.001c0 5.33301 -4.5 11.666 -13.5 18.999s-18.833 14.333 -29.5 21l-43 24c6.66699 39.333 21 74.166 43 104.499s49.667 55.666 83 75.999s71.166 35.666 113.499 45.999s87.5 15.5 135.5 15.5c48.667 0 95 -5.33301 139 -16
s82.667 -27.167 116 -49.5s59.833 -50.833 79.5 -85.5s29.5 -76 29.5 -124v-805h-176z" />
    <glyph glyph-name="uni0E25" unicode="&#xe25;" horiz-adv-x="856" 
d="M618 -2l0.00683594 398.998c-12 -6.66699 -27.833 -12.167 -47.5 -16.5s-41.334 -8 -65.001 -11s-47.834 -5.5 -72.501 -7.5s-47.334 -3.33301 -68.001 -4c-18.667 -1.33301 -37.334 -4 -56.001 -8s-35.5 -10.5 -50.5 -19.5s-27.333 -20.5 -37 -34.5
s-14.5 -31.333 -14.5 -52c0 -31.333 8.83301 -54.833 26.5 -70.5s40 -25.834 67 -30.501s56.5 -5.16699 88.5 -1.5s62.667 9.16699 92 16.5v-154c-56 -8 -111 -12 -165 -12s-102.167 8 -144.5 24s-76.333 42 -102 78s-38.5 86 -38.5 150c0 78.667 24 139.834 72 183.501
s117.333 69.834 208 78.501c28 2.66699 59.333 4.16699 94 4.5s67.334 2.5 98.001 6.5s56.5 11.667 77.5 23s31.5 29.333 31.5 54c0 15.333 -4.83301 29 -14.5 41s-22.834 22 -39.501 30s-35.834 14.167 -57.501 18.5s-44.5 6.5 -68.5 6.5c-23.333 0 -46.333 -2.5 -69 -7.5
s-43.334 -12.333 -62.001 -22s-34.334 -22 -47.001 -37s-21 -32.5 -25 -52.5h-180c8 48.667 24.333 89.834 49 123.501s54.834 60.834 90.501 81.501s74.667 35.5 117 44.5s85.166 13.5 128.499 13.5c42.667 0 85.5 -4.16699 128.5 -12.5s81.833 -22.5 116.5 -42.5
s62.667 -46.333 84 -79s32 -73.334 32 -122.001v-580h-177z" />
    <glyph glyph-name="uni0E26" unicode="&#xe26;" horiz-adv-x="860" 
d="M623 -246l-0.00292969 793.002c0 48.667 -17.667 84.667 -53 108s-81.333 35 -138 35c-22 0 -42.833 -2 -62.5 -6s-37.5 -9.5 -53.5 -16.5s-29.667 -14.833 -41 -23.5s-19.666 -18 -24.999 -28c14.667 -9.33301 28.5 -20.333 41.5 -33s19.5 -26 19.5 -40
c0 -10.667 -2.83301 -20.167 -8.5 -28.5s-11.667 -16.666 -18 -24.999s-12.333 -17.166 -18 -26.499s-8.5 -20.333 -8.5 -33v-430h-248v143h72v287c0 12 3.33301 22.167 10 30.5s13.834 16.166 21.501 23.499l21.5 21c6.66699 6.66699 10 14.334 10 23.001
c0 5.33301 -4.5 11.666 -13.5 18.999s-18.833 14.333 -29.5 21l-43 24c6.66699 39.333 21 74.166 43 104.499s49.667 55.666 83 75.999s71.333 35.666 114 45.999s87.667 15.5 135 15.5c48.667 0 95 -5.33301 139 -16s82.833 -27.167 116.5 -49.5
s60.334 -50.833 80.001 -85.5s29.5 -76 29.5 -124v-805h-176z" />
    <glyph glyph-name="uni0E27" unicode="&#xe27;" horiz-adv-x="821" 
d="M791 410c0 -78.667 -10.333 -144.999 -31 -198.999s-48.834 -97.667 -84.501 -131s-77 -57.333 -124 -72s-96.5 -22 -148.5 -22c-98.667 0 -180 23.5 -244 70.5s-106.667 116.833 -128 209.5h188c17.333 -47.333 42.666 -82 75.999 -104s69.333 -33 108 -33
c64.667 0 116 22.5 154 67.5s57 116.167 57 213.5c0 96.667 -19 167.5 -57 212.5s-89.333 67.5 -154 67.5c-38.667 0 -74.667 -11 -108 -33s-58.666 -56.667 -75.999 -104h-188c21.333 91.333 63.833 161 127.5 209s145.167 72 244.5 72c52 0 101.5 -7.33301 148.5 -22
s88.333 -38.834 124 -72.501s63.834 -77.5 84.501 -131.5s31 -120 31 -198z" />
    <glyph glyph-name="uni0E28" unicode="&#xe28;" horiz-adv-x="860" 
d="M801 881c0 -14.667 -3.16602 -28.499 -9.49902 -41.499s-14.5 -24.833 -24.5 -35.5s-21.333 -20 -34 -28s-25 -14 -37 -18c31.333 -22.667 56.333 -50.5 75 -83.5s28 -71.5 28 -115.5v-559h-176v557c0 24.667 -5.33301 45.334 -16 62.001s-25 30.334 -43 41.001
s-38.667 18.334 -62 23.001s-47.333 7 -72 7c-25.333 0 -49.5 -2.33301 -72.5 -7s-43.333 -12.334 -61 -23.001s-31.834 -24.334 -42.501 -41.001s-16 -37.334 -16 -62.001v-72h249v-151h-249v-334h-177v559c0 48 11 89.333 33 124s50.667 63.167 86 85.5
s75 38.833 119 49.5s87.667 16 131 16c22.667 0 45.5 -1.5 68.5 -4.5s45.167 -7.16699 66.5 -12.5c14.667 5.33301 26.5 13.166 35.5 23.499s13.5 23.833 13.5 40.5h187v0z" />
    <glyph glyph-name="uni0E29" unicode="&#xe29;" horiz-adv-x="870" 
d="M799 401l0.000976562 -137c0 -48 -10.333 -89.5 -31 -124.5s-48 -63.833 -82 -86.5s-73.167 -39.5 -117.5 -50.5s-90.5 -16.5 -138.5 -16.5c-48.667 0 -95.167 5.5 -139.5 16.5s-83.5 27.833 -117.5 50.5s-61.167 51.5 -81.5 86.5s-30.5 76.5 -30.5 124.5v555h177v-545
c0 -25.333 5.16699 -47 15.5 -65s24.333 -33 42 -45s38.167 -20.833 61.5 -26.5s47.666 -8.5 72.999 -8.5s49.666 2.83301 72.999 8.5s43.833 14.5 61.5 26.5s31.834 27 42.501 45s16 39.667 16 65v127h-254v179h176v-56h78v295h176v-295h61v-123h-61z" />
    <glyph glyph-name="uni0E2A" unicode="&#xe2a;" horiz-adv-x="856" 
d="M618 -2l0.0078125 398.998c-12 -6.66699 -27.833 -12.167 -47.5 -16.5s-41.334 -8 -65.001 -11s-47.834 -5.5 -72.501 -7.5s-47.334 -3.33301 -68.001 -4c-18.667 -1.33301 -37.334 -4 -56.001 -8s-35.5 -10.5 -50.5 -19.5s-27.333 -20.5 -37 -34.5
s-14.5 -31.333 -14.5 -52c0 -31.333 8.83301 -54.833 26.5 -70.5s40 -25.834 67 -30.501s56.5 -5.16699 88.5 -1.5s62.667 9.16699 92 16.5v-154c-56 -8 -111 -12 -165 -12s-102.167 8 -144.5 24s-76.333 42 -102 78s-38.5 86 -38.5 150c0 78.667 24 139.834 72 183.501
s117.333 69.834 208 78.501c28 2.66699 59.333 4.16699 94 4.5s67.334 2.5 98.001 6.5s56.5 11.667 77.5 23s31.5 29.333 31.5 54c0 15.333 -4.83301 29 -14.5 41s-22.834 22 -39.501 30s-35.834 14.167 -57.501 18.5s-44.5 6.5 -68.5 6.5c-23.333 0 -46.333 -2.5 -69 -7.5
s-43.334 -12.333 -62.001 -22s-34.334 -22 -47.001 -37s-21 -32.5 -25 -52.5h-180c8 48.667 24.333 89.834 49 123.501s54.834 60.834 90.501 81.501s74.667 35.5 117 44.5s85.166 13.5 128.499 13.5c21.333 0 42.666 -1.16699 63.999 -3.5s42.333 -5.5 63 -9.5
c12.667 5.33301 22.667 13 30 23s11 22.333 11 37h186c0 -26 -9 -49.333 -27 -70s-38.333 -36.334 -61 -47.001c29.333 -20.667 52.5 -46 69.5 -76s25.5 -66.667 25.5 -110v-580h-177z" />
    <glyph glyph-name="uni0E2B" unicode="&#xe2b;" horiz-adv-x="860" 
d="M307 678v141h451v-141h-451zM623 0l0.00390625 367.001c0 44.667 -13.333 77 -40 97s-60 30 -100 30c-32 0 -62.833 -6.33301 -92.5 -19s-55.834 -28.667 -78.501 -48s-40.667 -40.333 -54 -63s-20 -44.334 -20 -65.001v-299h-177v819h177v-276
c14 14.667 30.167 28.334 48.5 41.001s38.5 23.667 60.5 33s45.5 16.666 70.5 21.999s50.5 8 76.5 8c43.333 0 83.666 -5.16699 120.999 -15.5s69.666 -26.333 96.999 -48s48.666 -49.167 63.999 -82.5s23 -73.333 23 -120v-381h-176z" />
    <glyph glyph-name="uni0E2C" unicode="&#xe2c;" horiz-adv-x="1004" 
d="M954 1014c5.33301 -54.667 -4.66992 -99.168 -30.0029 -133.501s-59.666 -58.166 -102.999 -71.499c37.333 -13.333 66.833 -33.5 88.5 -60.5s32.5 -65.5 32.5 -115.5v-387c0 -46.667 -6.16699 -86.5 -18.5 -119.5s-29.5 -59.833 -51.5 -80.5
s-47.833 -35.834 -77.5 -45.501s-61.834 -14.5 -96.501 -14.5c-25.333 0 -48 2.83301 -68 8.5s-38 13 -54 22s-30.167 19.167 -42.5 30.5s-22.833 23 -31.5 35c-8.66699 -12 -19.167 -23.667 -31.5 -35s-26.5 -21.5 -42.5 -30.5s-34.167 -16.333 -54.5 -22
s-43.166 -8.5 -68.499 -8.5c-34 0 -65.833 4.83301 -95.5 14.5s-55.5 24.834 -77.5 45.501s-39.333 47.5 -52 80.5s-19 72.833 -19 119.5v573h177v-569c0 -39.333 6.5 -69.333 19.5 -90s33.5 -31 61.5 -31c27.333 0 50 11 68 33s27 56 27 102v402h176v-402
c0 -46 9 -80 27 -102s40.333 -33 67 -33c28 0 48.667 10.333 62 31s20 50.667 20 90v381c0 42 -11.333 72 -34 90s-55.667 27 -99 27h-219v122h215c18.667 0 37.334 2.16699 56.001 6.5s35.334 12 50.001 23s26.167 25.833 34.5 44.5s11.833 42 10.5 70h174v0z" />
    <glyph glyph-name="uni0E2D" unicode="&#xe2d;" horiz-adv-x="905" 
d="M874 410c0 -74 -10.999 -137.831 -32.999 -191.498s-52 -97.667 -90 -132s-82.667 -59.666 -134 -75.999s-106 -24.5 -164 -24.5s-112.667 8.16699 -164 24.5s-96 41.666 -134 75.999s-68.167 78.333 -90.5 132s-33.5 117.5 -33.5 191.5c0 18 1 38.667 3 62
s5.66699 44.333 11 63h328v-136h-166c0.666992 -44.667 7.16699 -83.834 19.5 -117.501s29.333 -61.834 51 -84.501s47.334 -39.667 77.001 -51s62.5 -17 98.5 -17s69.167 6 99.5 18s56.166 29.667 77.499 53s38 52.666 50 87.999s18 76 18 122s-6 86.5 -18 121.5
s-28.667 64.167 -50 87.5s-47.166 41 -77.499 53s-63.5 18 -99.5 18c-28.667 0 -53.667 -3 -75 -9s-40 -14 -56 -24s-29.333 -21.167 -40 -33.5s-20 -24.833 -28 -37.5h-195c12.667 36 30.167 69.167 52.5 99.5s49.666 56.5 81.999 78.5s70.166 39.167 113.499 51.5
s92 18.5 146 18.5c58 0 112.667 -8.16699 164 -24.5s96 -41.666 134 -75.999s68 -78.333 90 -132s33 -117.5 33 -191.5z" />
    <glyph glyph-name="uni0E2E" unicode="&#xe2e;" horiz-adv-x="905" 
d="M874 410c0 -74 -10.999 -137.832 -32.999 -191.499s-52 -97.667 -90 -132s-82.667 -59.666 -134 -75.999s-106 -24.5 -164 -24.5s-112.667 8.16699 -164 24.5s-96 41.666 -134 75.999s-68.167 78.333 -90.5 132s-33.5 117.5 -33.5 191.5c0 18 1 38.667 3 62
s5.66699 44.333 11 63h328v-136h-166c0.666992 -44.667 7.16699 -83.834 19.5 -117.501s29.333 -61.834 51 -84.501s47.334 -39.667 77.001 -51s62.5 -17 98.5 -17s69.167 6 99.5 18s56.166 29.667 77.499 53s38 52.666 50 87.999s18 76 18 122s-6 86.5 -18 121.5
s-28.667 64.167 -50 87.5s-47.166 41 -77.499 53s-63.5 18 -99.5 18c-28.667 0 -53.667 -3 -75 -9s-40 -14 -56 -24s-29.333 -21.167 -40 -33.5s-20 -24.833 -28 -37.5h-195c12.667 36 30.167 69.167 52.5 99.5s49.666 56.5 81.999 78.5s70.166 39.167 113.499 51.5
s92 18.5 146 18.5c46.667 0 89.667 -5 129 -15c27.333 16 41 36.667 41 62h186c0 -23.333 -7.83301 -46 -23.5 -68s-38.5 -39.667 -68.5 -53c48 -33.333 86.167 -78.666 114.5 -135.999s42.5 -128.666 42.5 -213.999z" />
    <glyph glyph-name="uni0E2F" unicode="&#xe2f;" horiz-adv-x="784" 
d="M549 0v529.999c-13.333 -12 -28.833 -24 -46.5 -36s-37.334 -22.5 -59.001 -31.5s-45.167 -16.333 -70.5 -22s-52 -8.5 -80 -8.5c-32 0 -63.5 4.33301 -94.5 13s-59 21.834 -84 39.501s-45.167 39.5 -60.5 65.5s-23 56.333 -23 91c0 42 11.5 76.667 34.5 104
s52.333 47.666 88 60.999s74.667 19.833 117 19.5s82.5 -7.16602 120.5 -20.499v-131c-20 12 -41 19.667 -63 23s-42 3.16602 -60 -0.500977s-33 -10.5 -45 -20.5s-18 -22.333 -18 -37c0 -18.667 8.83301 -34 26.5 -46s38.834 -18 63.501 -18c36 0 68.5 5.83301 97.5 17.5
s54.333 28.334 76 50.001s39.5 47.5 53.5 77.5s23.667 63 29 99h172v-819h-174z" />
    <glyph glyph-name="uni0E30" unicode="&#xe30;" horiz-adv-x="397" 
d="M367 645c0 -21.333 -4 -41.166 -12 -59.499s-19.5 -34.5 -34.5 -48.5s-32.833 -25 -53.5 -33s-43.334 -12 -68.001 -12c-25.333 0 -48.333 4 -69 12s-38.334 19 -53.001 33s-26 30.167 -34 48.5s-12 38.166 -12 59.499c0 20.667 4 40.334 12 59.001s19.333 35 34 49
s32.334 25.167 53.001 33.5s43.667 12.5 69 12.5c24.667 0 47.334 -4.16699 68.001 -12.5s38.5 -19.5 53.5 -33.5s26.5 -30.333 34.5 -49s12 -38.334 12 -59.001zM367 174c0 -21.333 -4 -41.333 -12 -60s-19.5 -35 -34.5 -49s-32.833 -25 -53.5 -33s-43.334 -12 -68.001 -12
c-25.333 0 -48.333 4 -69 12s-38.334 19 -53.001 33s-26 30.333 -34 49s-12 38.667 -12 60c0 20.667 4 40.334 12 59.001s19.333 35 34 49s32.334 25.167 53.001 33.5s43.667 12.5 69 12.5c24.667 0 47.334 -4.16699 68.001 -12.5s38.5 -19.5 53.5 -33.5
s26.5 -30.333 34.5 -49s12 -38.334 12 -59.001zM262 645c0 16.667 -5.83301 30.334 -17.5 41.001s-26.834 16 -45.501 16s-34 -5.33301 -46 -16s-18 -24.334 -18 -41.001s6 -30.334 18 -41.001s27.333 -16 46 -16s33.834 5.33301 45.501 16s17.5 24.334 17.5 41.001z
M262 174c0 16.667 -5.83301 30.334 -17.5 41.001s-26.834 16 -45.501 16s-34 -5.33301 -46 -16s-18 -24.334 -18 -41.001s6 -30.334 18 -41.001s27.333 -16 46 -16s33.834 5.33301 45.501 16s17.5 24.334 17.5 41.001z" />
    <glyph glyph-name="uni0E31" unicode="&#xe31;" 
d="M-455 922v200h176v-90h449v-110h-625z" />
    <glyph glyph-name="uni0E32" unicode="&#xe32;" horiz-adv-x="481" 
d="M244 0v578.004c0 18 -5.33301 34.167 -16 48.5s-26 26 -46 35s-44.5 14.833 -73.5 17.5s-61.833 1 -98.5 -5v143c56.667 9.33301 110 11.666 160 6.99902s93.5 -15.834 130.5 -33.501s66.167 -41.834 87.5 -72.501s32 -67.334 32 -110.001v-608h-176z" />
    <glyph glyph-name="uni0E33" unicode="&#xe33;" horiz-adv-x="481" 
d="M-16 1030c0 -34 -12.499 -61.999 -37.499 -83.999s-57.167 -33 -96.5 -33c-19.333 0 -37.166 3 -53.499 9s-30.333 14.167 -42 24.5s-20.834 22.666 -27.501 36.999s-10 29.833 -10 46.5s3.33301 32.167 10 46.5s15.834 26.833 27.501 37.5s25.667 18.834 42 24.501
s34.166 8.5 53.499 8.5s37.166 -2.83301 53.499 -8.5s30.5 -13.834 42.5 -24.501s21.333 -23.167 28 -37.5s10 -29.833 10 -46.5zM244.001 0.000976562v578.004c0 18 -5.33301 34.167 -16 48.5s-26 26 -46 35s-44.5 14.833 -73.5 17.5s-61.833 1 -98.5 -5v143
c56.667 9.33301 110 11.666 160 6.99902s93.5 -15.834 130.5 -33.501s66.167 -41.834 87.5 -72.501s32 -67.334 32 -110.001v-608h-176zM-97.999 1030c0 12.667 -5 23.334 -15 32.001s-22.333 13 -37 13c-14 0 -26 -4.33301 -36 -13s-15 -19.334 -15 -32.001
c0 -12 5 -22.5 15 -31.5s22 -13.5 36 -13.5c14.667 0 27 4.5 37 13.5s15 19.5 15 31.5z" />
    <glyph glyph-name="uni0E34" unicode="&#xe34;" 
d="M-727 922v110h666v-110h-666z" />
    <glyph glyph-name="uni0E35" unicode="&#xe35;" 
d="M-727 922v110h489v105h177v-215h-666z" />
    <glyph glyph-name="uni0E36" unicode="&#xe36;" 
d="M-20 1034c0 -32.667 -12.1689 -59.5 -36.502 -80.5s-55.5 -31.5 -93.5 -31.5h-577v110h448c0 16.667 3.16699 32.167 9.5 46.5s15.333 26.5 27 36.5s25.334 17.833 41.001 23.5s32.834 8.5 51.501 8.5c38 0 69.167 -10.5 93.5 -31.5s36.5 -48.167 36.5 -81.5z
M-102.002 1034c0 12.667 -4.66699 23 -14 31s-20.666 12 -33.999 12s-24.5 -4 -33.5 -12s-13.5 -18.333 -13.5 -31c0 -12 4.5 -22.167 13.5 -30.5s20.167 -12.5 33.5 -12.5s24.666 4.16699 33.999 12.5s14 18.5 14 30.5z" />
    <glyph glyph-name="uni0E37" unicode="&#xe37;" 
d="M-727 922v110h313v105h115v-105h61v105h177v-215h-666z" />
    <glyph glyph-name="uni0E38" unicode="&#xe38;" 
d="M-238 -328v156h-81v111h258v-267h-177z" />
    <glyph glyph-name="uni0E39" unicode="&#xe39;" 
d="M-61 -193c0 -44 -18.667 -77.5 -56 -100.5s-91.333 -34.5 -162 -34.5c-74.667 0 -128 11.5 -160 34.5s-48 56.5 -48 100.5v21h-62v111h217v-132c0 -16 4.33301 -27.833 13 -35.5s20 -11.5 34 -11.5c14.667 0 26.167 3.83301 34.5 11.5s12.5 19.5 12.5 35.5v132h177v-132
v0z" />
    <glyph glyph-name="uni0E3A" unicode="&#xe3a;" 
d="M-35 -176c0 -16 -3 -31 -9 -45s-14.167 -26.167 -24.5 -36.5s-22.5 -18.5 -36.5 -24.5s-29 -9 -45 -9s-30.833 3 -44.5 9s-25.667 14.167 -36 24.5s-18.5 22.5 -24.5 36.5s-9 29 -9 45s3 30.833 9 44.5s14.167 25.834 24.5 36.501s22.333 19 36 25s28.5 9 44.5 9
s31 -3 45 -9s26.167 -14.333 36.5 -25s18.5 -22.834 24.5 -36.501s9 -28.5 9 -44.5z" />
    <glyph glyph-name="uni0E3F" unicode="&#xe3f;" horiz-adv-x="969" 
d="M918 272c0 -38 -6.83203 -73.668 -20.499 -107.001s-35.334 -62.166 -65.001 -86.499s-67.334 -43.5 -113.001 -57.5s-100.5 -21 -164.5 -21h-37v-129h-74v129h-342v965h342v129h74v-129h62c44.667 0 85.167 -5 121.5 -15s67.333 -25.167 93 -45.5
s45.334 -45.833 59.001 -76.5s20.5 -66.334 20.5 -107.001c0 -46 -10.667 -86.167 -32 -120.5s-51.333 -61.166 -90 -80.499c53.333 -15.333 94.333 -44.5 123 -87.5s43 -96.5 43 -160.5zM690.001 689.999c0 46 -11.667 78 -35 96s-56.666 27 -99.999 27h-37v-246h37
c39.333 0 71.666 10.5 96.999 31.5s38 51.5 38 91.5zM444.001 812.999h-155v-246h155v246zM733.001 294.999c0 44 -13.5 77.5 -40.5 100.5s-64.5 34.5 -112.5 34.5h-62v-278h62c48 0 85.5 12 112.5 36s40.5 59.667 40.5 107zM444.001 429.999h-155v-278h155v278z" />
    <glyph glyph-name="uni0E40" unicode="&#xe40;" horiz-adv-x="381" 
d="M102 0v819h177v-819h-177z" />
    <glyph glyph-name="uni0E41" unicode="&#xe41;" horiz-adv-x="680" 
d="M401 0v819h177v-819h-177zM102 0v819h177v-819h-177z" />
    <glyph glyph-name="uni0E42" unicode="&#xe42;" horiz-adv-x="422" 
d="M283 1141c-10 0 -19.6699 -0.166992 -29.0029 -0.5s-17.666 -1.5 -24.999 -3.5s-13.166 -4.83301 -17.499 -8.5s-6.5 -8.5 -6.5 -14.5c0 -10 4.83301 -18.5 14.5 -25.5s20.5 -15.333 32.5 -25s22.833 -22 32.5 -37s14.5 -35.5 14.5 -61.5v-965h-176v934
c0 24.667 -4.83301 44.167 -14.5 58.5s-20.5 27.5 -32.5 39.5s-22.833 24.5 -32.5 37.5s-14.5 31.167 -14.5 54.5c0 16.667 3.66699 33 11 49s18.833 30 34.5 42s35.334 21.5 59.001 28.5s51.5 10.167 83.5 9.5l256 -4v-112z" />
    <glyph glyph-name="uni0E43" unicode="&#xe43;" horiz-adv-x="422" 
d="M395 1114c0 -25.333 -4.99902 -45.167 -14.999 -59.5s-21 -27.5 -33 -39.5s-23 -24.833 -33 -38.5s-15 -31.834 -15 -54.501v-922h-176v938c0 26 4.83301 46 14.5 60s20.5 26 32.5 36s22.833 19.833 32.5 29.5s14.5 23.167 14.5 40.5c0 18.667 -6.66699 33.167 -20 43.5
s-31.333 15.5 -54 15.5c-16 0 -29.667 -2.66699 -41 -8s-20.5 -12.166 -27.5 -20.499s-12 -17.833 -15 -28.5s-3.83301 -21 -2.5 -31h-141c-4.66699 29.333 -1.83398 56.166 8.49902 80.499s26.333 45.333 48 63s48.334 31.334 80.001 41.001s66.834 14.5 105.501 14.5
c37.333 0 70.666 -4 99.999 -12s54.166 -19 74.499 -33s35.833 -30.833 46.5 -50.5s16 -41.167 16 -64.5z" />
    <glyph glyph-name="uni0E44" unicode="&#xe44;" horiz-adv-x="422" 
d="M356 1139c0.666992 -14.667 -2.00098 -27.002 -8.00098 -37.002s-12.667 -19.667 -20 -29s-14 -19.166 -20 -29.499s-9 -22.833 -9 -37.5v-1006h-176v1004c0 15.333 3 27.833 9 37.5s12.833 18.334 20.5 26.001l20.5 21c6 6.33301 9 13.5 9 21.5
c0 6 -3.5 10.167 -10.5 12.5s-15.167 3.5 -24.5 3.5h-14l-88 -57l-201 111l107 71l92 -57l74 43h90c18 0 35.833 -1.66699 53.5 -5s33.5 -8.66602 47.5 -15.999s25.333 -17.333 34 -30s13.334 -28.334 14.001 -47.001z" />
    <glyph glyph-name="uni0E45" unicode="&#xe45;" horiz-adv-x="481" 
d="M244 -246v824.004c0 18 -5.33301 34.167 -16 48.5s-26 26 -46 35s-44.5 14.833 -73.5 17.5s-61.833 1 -98.5 -5v143c56.667 9.33301 110 11.666 160 6.99902s93.5 -15.834 130.5 -33.501s66.167 -41.834 87.5 -72.501s32 -67.334 32 -110.001v-854h-176z" />
    <glyph glyph-name="uni0E46" unicode="&#xe46;" horiz-adv-x="788" 
d="M551 -246l0.00292969 855.999l-86 -78l-180 148c-10 -1.33301 -19.5 -4.16602 -28.5 -8.49902s-17 -10 -24 -17s-12.667 -15 -17 -24s-6.5 -18.5 -6.5 -28.5c0 -16 4.16699 -29.667 12.5 -41s19.5 -20.5 33.5 -27.5s30.333 -11.5 49 -13.5s38 -1.33301 58 2v-145
c-50.667 -6 -96.334 -5.16699 -137.001 2.5s-75.334 21 -104.001 40s-50.834 43.167 -66.501 72.5s-23.5 62.666 -23.5 99.999c0 30.667 6.83301 60.334 20.5 89.001s33.5 54 59.5 76s58 39.5 96 52.5s81.667 19.5 131 19.5l125 -102l106 92h158v-1065h-176z" />
    <glyph glyph-name="uni0E47" unicode="&#xe47;" 
d="M-485 1120c-30 0 -54 -4.99707 -72 -14.9971s-27 -25.333 -27 -46c0 -9.33301 2.16699 -17.333 6.5 -24s8.5 -11.667 12.5 -15h67l176 76l209 -84v-119l-204 86l-160 -68l-168 2c-8.66699 5.33301 -17.5 12.166 -26.5 20.499s-17.167 18.333 -24.5 30s-13.333 25 -18 40
s-7 31.5 -7 49.5c0 22 4.66699 43.167 14 63.5s23 38.166 41 53.499s40.333 27.666 67 36.999s57.667 14 93 14h426v-101h-405z" />
    <glyph glyph-name="uni0E48" unicode="&#xe48;" 
d="M-238 1198v174h177v-174h-177z" />
    <glyph glyph-name="uni0E49" unicode="&#xe49;" 
d="M-338 1198v35c0 36.667 -18.333 55 -55 55h-29v101h133c38 0 65.667 -8 83 -24s26 -39 26 -69h219v-98h-377z" />
    <glyph glyph-name="uni0E4A" unicode="&#xe4a;" 
d="M-66 1198v86.001c0 27.333 -12 41 -36 41h-11l-80 -55l-83 55h-3c-13.333 0 -23 -4 -29 -12s-8.33301 -17.667 -7 -29v-4h55v-82h-162v94c0 21.333 3.83301 40.166 11.5 56.499s18.167 30 31.5 41s29 19.333 47 25s37.333 8.5 58 8.5h14l70 -49l65 49h16
c42 0 76.5 -10.833 103.5 -32.5s41.167 -52.5 42.5 -92.5h88v-100h-191z" />
    <glyph glyph-name="uni0E4B" unicode="&#xe4b;" 
d="M-68 1270v-72h-159v72h-78v78h78v71h159v-71h78v-78h-78z" />
    <glyph glyph-name="uni0E4C" unicode="&#xe4c;" 
d="M-90 1169c-19.333 0 -35.166 -5.33398 -47.499 -16.001s-18.5 -24.334 -18.5 -41.001v-18h-157v61c0 20.667 3.83301 38.834 11.5 54.501s18 28.834 31 39.501s28.167 18.5 45.5 23.5s35.666 7.5 54.999 7.5h170v-111h-90z" />
    <glyph glyph-name="uni0E4D" unicode="&#xe4d;" 
d="M-16 1030c0 -34 -12.499 -61.999 -37.499 -83.999s-57.167 -33 -96.5 -33c-19.333 0 -37.166 3 -53.499 9s-30.333 14.167 -42 24.5s-20.834 22.666 -27.501 36.999s-10 29.833 -10 46.5s3.33301 32.167 10 46.5s15.834 26.833 27.501 37.5s25.667 18.834 42 24.501
s34.166 8.5 53.499 8.5s37.166 -2.83301 53.499 -8.5s30.5 -13.834 42.5 -24.501s21.333 -23.167 28 -37.5s10 -29.833 10 -46.5zM-97.999 1030c0 12.667 -5 23.334 -15 32.001s-22.333 13 -37 13c-14 0 -26 -4.33301 -36 -13s-15 -19.334 -15 -32.001
c0 -12 5 -22.5 15 -31.5s22 -13.5 36 -13.5c14.667 0 27 4.5 37 13.5s15 19.5 15 31.5z" />
    <glyph glyph-name="uni0E4E" unicode="&#xe4e;" 
d="M2 1329c-22.667 0.666992 -45.6621 0.332031 -68.9951 -1.00098c-20.667 -1.33301 -43.334 -3.16602 -68.001 -5.49902s-48.667 -6.16602 -72 -11.499c-24.667 -6.66699 -45.834 -15 -63.501 -25s-26.5 -20.333 -26.5 -31c-0.666992 -12.667 5.33301 -21.667 18 -27
s26.667 -8.66602 42 -9.99902c17.333 -2 37.666 -2.33301 60.999 -1v-95c-20.667 1.33301 -41.334 1.66602 -62.001 0.999023c-17.333 -0.666992 -36.333 -2 -57 -4s-39.667 -5.66699 -57 -11c-22.667 -7.33301 -42 -17.166 -58 -29.499s-22 -25.833 -18 -40.5
c2 -7.33301 9 -12.166 21 -14.499s26.167 -2.33301 42.5 0s33.5 6.66602 51.5 12.999s34.333 14.5 49 24.5l53 -90c-21.333 -11.333 -43.333 -21 -66 -29c-19.333 -7.33301 -41.333 -13.333 -66 -18s-49.667 -5.33398 -75 -2.00098c-42 5.33301 -74.667 18.666 -98 39.999
s-35.666 45.333 -36.999 72c-0.666992 14.667 1.33301 28.5 6 41.5s11.167 25.167 19.5 36.5s18.333 21.5 30 30.5s24.5 16.5 38.5 22.5c21.333 11.333 42.666 19 63.999 23c-8.66699 7.33301 -15.667 16.5 -21 27.5s-8 24.167 -8 39.5c0 12.667 3.16699 26 9.5 40
s15.333 27.5 27 40.5s25.667 25.167 42 36.5s34.5 21 54.5 29c25.333 9.33301 54.666 16.5 87.999 21.5s65.333 8.5 96 10.5c36 2.66699 72.333 3.66699 109 3v-107v0z" />
    <glyph glyph-name="uni0E4F" unicode="&#xe4f;" horiz-adv-x="963" 
d="M901 410c0 -58 -11 -112.5 -33 -163.5s-52 -95.5 -90 -133.5s-82.5 -68 -133.5 -90s-105.5 -33 -163.5 -33s-112.5 11 -163.5 33s-95.5 52 -133.5 90s-68 82.5 -90 133.5s-33 105.5 -33 163.5s11 112.333 33 163s52 95 90 133s82.5 68 133.5 90s105.5 33 163.5 33
s112.5 -11 163.5 -33s95.5 -52 133.5 -90s68 -82.333 90 -133s33 -105 33 -163zM840 410c0 48.667 -9.5 94.834 -28.5 138.501s-44.667 81.667 -77 114s-70.333 58 -114 77s-90.167 28.5 -139.5 28.5s-95.666 -9.5 -138.999 -28.5s-81.166 -44.667 -113.499 -77
s-58 -70.333 -77 -114s-28.5 -89.834 -28.5 -138.501c0 -49.333 9.5 -95.833 28.5 -139.5s44.667 -81.667 77 -114s70.166 -58 113.499 -77s89.666 -28.5 138.999 -28.5s95.833 9.5 139.5 28.5s81.667 44.667 114 77s58 70.333 77 114s28.5 90.167 28.5 139.5zM737 410
c0 -35.333 -6.66699 -68.666 -20 -99.999s-31.5 -58.5 -54.5 -81.5s-50.167 -41.167 -81.5 -54.5s-64.666 -20 -99.999 -20s-68.5 6.66699 -99.5 20s-58.167 31.5 -81.5 54.5s-41.666 50.167 -54.999 81.5s-20 64.666 -20 99.999s6.66699 68.5 20 99.5
s31.666 58.167 54.999 81.5s50.5 41.666 81.5 54.999s64.167 20 99.5 20s68.666 -6.66699 99.999 -20s58.5 -31.666 81.5 -54.999s41.167 -50.5 54.5 -81.5s20 -64.167 20 -99.5z" />
    <glyph glyph-name="uni0E50" unicode="&#xe50;" horiz-adv-x="815" 
d="M774 307c0 -44 -8.66699 -85.333 -26 -124s-42 -72.5 -74 -101.5s-70.5 -51.833 -115.5 -68.5s-95.167 -25 -150.5 -25s-105.666 8.33301 -150.999 25s-84 39.5 -116 68.5s-56.667 62.833 -74 101.5s-26 80 -26 124s8.66699 85.333 26 124s42 72.5 74 101.5
s70.667 52 116 69s95.666 25.5 150.999 25.5s105.5 -8.5 150.5 -25.5s83.5 -40 115.5 -69s56.667 -62.833 74 -101.5s26 -80 26 -124zM621 307c0 26 -5 50.5 -15 73.5s-24.333 42.833 -43 59.5s-41.334 29.834 -68.001 39.501s-56.334 14.5 -89.001 14.5
c-33.333 0 -63.166 -4.83301 -89.499 -14.5s-49 -22.834 -68 -39.501s-33.5 -36.5 -43.5 -59.5s-15 -47.5 -15 -73.5s5 -50.333 15 -73s24.5 -42.334 43.5 -59.001s41.667 -29.834 68 -39.501s56.166 -14.5 89.499 -14.5c32.667 0 62.334 4.83301 89.001 14.5
s49.334 22.834 68.001 39.501s33 36.334 43 59.001s15 47 15 73z" />
    <glyph glyph-name="uni0E51" unicode="&#xe51;" horiz-adv-x="864" 
d="M823 311c0 -54 -12.8359 -103.5 -38.5029 -148.5s-59.834 -84.833 -102.501 -119.5s-91.834 -63.5 -147.501 -86.5s-113.167 -39.167 -172.5 -48.5l-65 104c52.667 6.66699 101.667 18.834 147 36.501s84.5 39.167 117.5 64.5s59 54 78 86s28.5 66 28.5 102
c0 28 -5.83301 53.833 -17.5 77.5s-28.167 44 -49.5 61s-46.833 30.333 -76.5 40s-62.5 14.5 -98.5 14.5c-32.667 0 -63 -4.33301 -91 -13s-52.167 -20.5 -72.5 -35.5s-36.333 -32.833 -48 -53.5s-17.5 -43.334 -17.5 -68.001c0 -25.333 6.33301 -47.333 19 -66
s27.334 -31 44.001 -37c-2 6 -3.5 12.5 -4.5 19.5s-1.5 15.5 -1.5 25.5c0 18.667 4.16699 36.5 12.5 53.5s19.5 32 33.5 45s30.333 23.167 49 30.5s38.334 11 59.001 11c22 0 42.5 -3.66699 61.5 -11s35.333 -17.5 49 -30.5s24.5 -28 32.5 -45s12 -34.833 12 -53.5
c0 -27.333 -5.83301 -52.5 -17.5 -75.5s-28.167 -43 -49.5 -60s-46.666 -30.333 -75.999 -40s-62 -14.5 -98 -14.5s-70.833 5.66699 -104.5 17s-63.667 27.833 -90 49.5s-47.333 47.834 -63 78.501s-23.5 65.667 -23.5 105c0 45.333 9.83301 86.5 29.5 123.5
s46.834 68.667 81.501 95s75.167 46.666 121.5 60.999s96.5 21.5 150.5 21.5c60.667 0 115.667 -7.33301 165 -22s91.333 -35.667 126 -63s61.334 -60.5 80.001 -99.5s28 -82.833 28 -131.5zM466.997 262c0 15.333 -5.66699 28.666 -17 39.999s-24.666 17 -39.999 17
s-28.833 -5.66699 -40.5 -17s-17.5 -24.666 -17.5 -39.999s5.83301 -28.666 17.5 -39.999s25.167 -17 40.5 -17s28.666 5.66699 39.999 17s17 24.666 17 39.999z" />
    <glyph glyph-name="uni0E52" unicode="&#xe52;" horiz-adv-x="1159" 
d="M1098 199c0 -31.333 -5.16406 -59.334 -15.4971 -84.001s-24.833 -45.5 -43.5 -62.5s-41 -30 -67 -39s-55 -13.5 -87 -13.5h-611c-64.667 0 -116.334 17.5 -155.001 52.5s-58 83.833 -58 146.5v432c0 30 -11.167 52.5 -33.5 67.5s-53.5 22.5 -93.5 22.5l70 117
c68 0 120.5 -14.667 157.5 -44s55.5 -70 55.5 -122v-457c0 -23.333 6.83301 -42.166 20.5 -56.499s35.5 -21.5 65.5 -21.5h553c30 0 51.833 7.16699 65.5 21.5s20.5 33.166 20.5 56.499v223c0 24.667 -7.33301 43.167 -22 55.5s-35.334 18.5 -62.001 18.5
c-10 0 -19.667 -1.66699 -29 -5s-17.666 -7.83301 -24.999 -13.5s-13.166 -12.167 -17.499 -19.5s-6.5 -15 -6.5 -23v-252h-155v243c0 19.333 -9.33301 35.833 -28 49.5s-43 20.5 -73 20.5c-23.333 0 -44.333 -5.5 -63 -16.5s-31 -24.5 -37 -40.5
c-0.666992 -0.666992 -1 -1.33398 -1 -2.00098c0 -1.33301 0.333008 -2 1 -2c20.667 0 39.834 -3.33301 57.501 -10s33.167 -16 46.5 -28s23.833 -26 31.5 -42s11.5 -33.333 11.5 -52c0 -18 -3.83301 -35 -11.5 -51s-18.167 -30 -31.5 -42s-28.833 -21.333 -46.5 -28
s-36.834 -10 -57.501 -10c-20 0 -38.833 3.33301 -56.5 10s-33 15.834 -46 27.501s-23.333 25.5 -31 41.5s-11.5 33.333 -11.5 52v111c0 31.333 6.33301 59.666 19 84.999s30.167 47 52.5 65s48.666 32 78.999 42s63.166 15 98.499 15
c39.333 0 74.166 -6.83301 104.499 -20.5s53.5 -30.834 69.5 -51.501c7.33301 8.66699 16.5 17.334 27.5 26.001s23.333 16.334 37 23.001s28.834 12.167 45.501 16.5s34 6.5 52 6.5c34.667 0 66.5 -4.66699 95.5 -14s53.667 -22.666 74 -39.999s36.166 -38.5 47.499 -63.5
s17 -53.5 17 -85.5v-235zM479.003 321.999c0 14 -4.83301 26 -14.5 36s-21.834 15 -36.501 15s-26.834 -5 -36.501 -15s-14.5 -22 -14.5 -36c0 -14.667 4.83301 -27 14.5 -37s21.834 -15 36.501 -15s26.834 5 36.501 15s14.5 22.333 14.5 37z" />
    <glyph glyph-name="uni0E53" unicode="&#xe53;" horiz-adv-x="997" 
d="M780 0l-0.00488281 416c0 28 -8.33301 49 -25 63s-39 21 -67 21c-25.333 0 -46.666 -7.33301 -63.999 -22s-26 -32.667 -26 -54v-424h-156v418c0 23.333 -9.5 42.833 -28.5 58.5s-44.833 23.5 -77.5 23.5c-34 0 -62.333 -8 -85 -24s-34 -37.333 -34 -64v-113h14
c24 0 46.333 -4.16699 67 -12.5s38.667 -19.5 54 -33.5s27.333 -30.333 36 -49s13 -38.334 13 -59.001c0 -22 -4.33301 -42.5 -13 -61.5s-20.667 -35.333 -36 -49s-33.333 -24.5 -54 -32.5s-43 -12 -67 -12c-23.333 0 -45.333 4 -66 12s-38.667 18.833 -54 32.5
s-27.5 30 -36.5 49s-13.5 39.5 -13.5 61.5v263c0 36 7.66699 67.833 23 95.5s35.833 50.834 61.5 69.501s54.834 32.667 87.501 42s66.334 14 101.001 14c44 0 82.167 -7.66699 114.5 -23s56.833 -34.333 73.5 -57c15.333 21.333 37.833 40 67.5 56s64.5 24 104.5 24
c34.667 0 66.834 -4.5 96.501 -13.5s55.334 -22.167 77.001 -39.5s38.5 -38.833 50.5 -64.5s18 -55.5 18 -89.5v-422h-156zM292.995 143c0 16.667 -5.83301 30.834 -17.5 42.501s-25.834 17.5 -42.501 17.5c-16 0 -29.833 -5.83301 -41.5 -17.5s-17.5 -25.834 -17.5 -42.501
c0 -16 5.83301 -29.833 17.5 -41.5s25.5 -17.5 41.5 -17.5c16.667 0 30.834 5.83301 42.501 17.5s17.5 25.5 17.5 41.5z" />
    <glyph glyph-name="uni0E54" unicode="&#xe54;" horiz-adv-x="926" 
d="M926 844c0.666992 -47.333 -5.00098 -91.5039 -17.001 -132.504s-29.333 -76.667 -52 -107s-50.334 -54.666 -83.001 -72.999s-70 -28.166 -112 -29.499c-22 -1.33301 -42.333 -1.66602 -61 -0.999023s-37.667 1.5 -57 2.5s-39.833 2 -61.5 3s-45.834 1.5 -72.501 1.5
c-30 0.666992 -57.833 -3.5 -83.5 -12.5s-48.167 -22.167 -67.5 -39.5s-34.5 -38.333 -45.5 -63s-16.5 -52.667 -16.5 -84c0 -30 5.16699 -56.5 15.5 -79.5s24.166 -42.333 41.499 -58s37.5 -27.667 60.5 -36s47.167 -12.5 72.5 -12.5c30 0 56.167 1.66699 78.5 5
s38.5 7 48.5 11c-13.333 7.33301 -26.166 15.833 -38.499 25.5s-23.166 20.834 -32.499 33.501s-16.833 26.5 -22.5 41.5s-8.5 31.5 -8.5 49.5c0 22 4.5 42.333 13.5 61s21 34.834 36 48.501s32.333 24.334 52 32.001s40.167 11.5 61.5 11.5
c23.333 0 44.833 -3.66699 64.5 -11s36.834 -17.5 51.501 -30.5s26 -28.5 34 -46.5s12 -37.667 12 -59s-5 -41.5 -15 -60.5s-23.333 -35.833 -40 -50.5c16 -10 33.5 -16.333 52.5 -19s39 -5.66699 60 -9s42.333 -9 64 -17s42.834 -22.333 63.501 -43l-88 -106
c-44.667 21.333 -80.5 34.833 -107.5 40.5s-47.167 8.5 -60.5 8.5c-20.667 0 -41 -2.83301 -61 -8.5l-64 -18c-22.667 -6.33301 -47.167 -12.333 -73.5 -18s-55.833 -8.5 -88.5 -8.5c-44.667 0 -87.334 6.33301 -128.001 19s-76.5 32.334 -107.5 59.001
s-55.833 60.167 -74.5 100.5s-28 88.5 -28 144.5c0 51.333 9.66699 97.333 29 138s45.666 75.167 78.999 103.5s72.333 50 117 65s92.667 22.167 144 21.5c28.667 -0.666992 52.334 -1.5 71.001 -2.5s35.834 -2 51.501 -3s31.667 -1.66699 48 -2s37.166 0.166992 62.499 1.5
c19.333 0.666992 36.833 7.16699 52.5 19.5s28.834 28.166 39.501 47.499s19 41.666 25 66.999s9.33301 51.666 10 78.999h156zM634.999 294.996c0 16.667 -5.83301 30.667 -17.5 42s-25.834 17 -42.501 17c-16 0 -29.833 -5.66699 -41.5 -17s-17.5 -25.333 -17.5 -42
s5.83301 -30.667 17.5 -42s25.5 -17 41.5 -17c16.667 0 30.834 5.66699 42.501 17s17.5 25.333 17.5 42z" />
    <glyph glyph-name="uni0E55" unicode="&#xe55;" horiz-adv-x="926" 
d="M926 844c0.666992 -47.333 -5.00293 -91.5039 -17.0029 -132.504s-29.333 -76.667 -52 -107s-50.334 -54.666 -83.001 -72.999s-70 -28.166 -112 -29.499c-22 -1.33301 -42.333 -1.66602 -61 -0.999023s-37.667 1.5 -57 2.5s-39.833 2 -61.5 3s-45.834 1.5 -72.501 1.5
c-30 0.666992 -57.833 -3.5 -83.5 -12.5s-48.167 -22.167 -67.5 -39.5s-34.5 -38.333 -45.5 -63s-16.5 -52.667 -16.5 -84c0 -30 5.16699 -56.5 15.5 -79.5s24.166 -42.333 41.499 -58s37.5 -27.667 60.5 -36s47.167 -12.5 72.5 -12.5c30 0 56.167 1.66699 78.5 5
s38.5 7 48.5 11c-13.333 7.33301 -26.166 15.833 -38.499 25.5s-23.166 20.834 -32.499 33.501s-16.833 26.5 -22.5 41.5s-8.5 31.5 -8.5 49.5c0 22 4.5 42.333 13.5 61s21 34.834 36 48.501s32.333 24.334 52 32.001s40.167 11.5 61.5 11.5
c23.333 0 44.833 -3.66699 64.5 -11s36.834 -17.5 51.501 -30.5s26 -28.5 34 -46.5s12 -37.667 12 -59s-5 -41.5 -15 -60.5s-23.333 -35.833 -40 -50.5c16 -10 33.5 -16.333 52.5 -19s39 -5.66699 60 -9s42.333 -9 64 -17s42.834 -22.333 63.501 -43l-88 -106
c-44.667 21.333 -80.5 34.833 -107.5 40.5s-47.167 8.5 -60.5 8.5c-20.667 0 -41 -2.83301 -61 -8.5l-64 -18c-22.667 -6.33301 -47.167 -12.333 -73.5 -18s-55.833 -8.5 -88.5 -8.5c-44.667 0 -87.334 6.33301 -128.001 19s-76.5 32.334 -107.5 59.001
s-55.833 60.167 -74.5 100.5s-28 88.5 -28 144.5c0 40.667 6 78 18 112s29 64.333 51 91s48 49.334 78 68.001s63 33 99 43c-5.33301 7.33301 -10.166 17.166 -14.499 29.499s-6.5 25.5 -6.5 39.5c0 22.667 4.66699 43.667 14 63s22.333 35.833 39 49.5
s36.834 24.334 60.501 32.001s49.5 11.5 77.5 11.5s53.667 -3.83301 77 -11.5s43.333 -18.334 60 -32.001s29.667 -30.167 39 -49.5s14 -40.333 14 -63c0 -12 -2.33301 -23.333 -7 -34s-9.66699 -19.667 -15 -27h18c19.333 0.666992 36.833 7.16699 52.5 19.5
s28.834 28.166 39.501 47.499s19 41.666 25 66.999s9.33301 51.666 10 78.999h156zM525.997 695.996c0 16.667 -6.66699 31.167 -20 43.5s-29.666 18.5 -48.999 18.5s-35.833 -6.16699 -49.5 -18.5s-20.5 -26.833 -20.5 -43.5c0 -16 6.83301 -30.167 20.5 -42.5
s30.167 -18.5 49.5 -18.5s35.666 6.16699 48.999 18.5s20 26.5 20 42.5zM634.997 294.996c0 16.667 -5.83301 30.667 -17.5 42s-25.834 17 -42.501 17c-16 0 -29.833 -5.66699 -41.5 -17s-17.5 -25.333 -17.5 -42s5.83301 -30.667 17.5 -42s25.5 -17 41.5 -17
c16.667 0 30.834 5.66699 42.501 17s17.5 25.333 17.5 42z" />
    <glyph glyph-name="uni0E56" unicode="&#xe56;" horiz-adv-x="872" 
d="M831 317c0 -47.333 -10.168 -91.3408 -30.501 -132.008s-48.5 -75.667 -84.5 -105s-78.5 -52.333 -127.5 -69s-101.833 -25 -158.5 -25c-54.667 0 -103.334 7.16699 -146.001 21.5s-78.5 33 -107.5 56s-51 48.833 -66 77.5s-22.5 57.334 -22.5 86.001
c0 22.667 4.33301 43.167 13 61.5s20.5 34 35.5 47s32.5 23.167 52.5 30.5s41.667 11 65 11c22.667 0 43.834 -3.66699 63.501 -11s36.834 -17.5 51.501 -30.5s26.167 -28.667 34.5 -47s12.5 -38.166 12.5 -59.499c0 -42.667 -16.333 -76.667 -49 -102
c8 -1.33301 17 -2.66602 27 -3.99902s20.667 -2 32 -2c34 0 66.167 4.83301 96.5 14.5s56.833 23.334 79.5 41.001s40.667 38.834 54 63.501s20 52 20 82c0 26.667 -6 51.5 -18 74.5s-28.333 42.667 -49 59s-44.5 29.166 -71.5 38.499s-55.833 14 -86.5 14
c-52 0 -96.333 -8 -133 -24s-65.667 -35.333 -87 -58h-122c-4 22.667 -9.66699 48.167 -17 76.5s-18 57.5 -32 87.5s-31.833 60 -53.5 90s-49.167 58 -82.5 84l127 80c23.333 -15.333 44.833 -33.666 64.5 -54.999s37 -44.166 52 -68.499s27.333 -49.666 37 -75.999
s16.5 -51.5 20.5 -75.5c25.333 19.333 58.5 35.833 99.5 49.5s85.167 20.5 132.5 20.5c54.667 0 105 -7.83301 151 -23.5s85.5 -37.667 118.5 -66s58.667 -62.166 77 -101.499s27.5 -83 27.5 -131zM310.999 224.992c0 16.667 -5.66699 30.834 -17 42.501
s-25.333 17.5 -42 17.5s-30.667 -5.83301 -42 -17.5s-17 -25.834 -17 -42.501c0 -16 5.66699 -29.833 17 -41.5s25.333 -17.5 42 -17.5s30.667 5.83301 42 17.5s17 25.5 17 41.5z" />
    <glyph glyph-name="uni0E57" unicode="&#xe57;" horiz-adv-x="1233" 
d="M1313 752c-41.333 -19.333 -71.8379 -41.6709 -91.5049 -67.0039s-32.167 -49.666 -37.5 -72.999c-4.66699 -21.333 -6.66699 -42.833 -6 -64.5s2.33398 -43.667 5.00098 -66s5 -45 7 -68s2 -46.833 0 -71.5c-4 -50.667 -15.167 -95.667 -33.5 -135
s-41.5 -73.166 -69.5 -101.499s-59.333 -51.166 -94 -68.499s-70 -29.666 -106 -36.999h-107v416c0 28 -8.33301 49 -25 63s-39 21 -67 21c-25.333 0 -46.666 -7.33301 -63.999 -22s-26 -32.667 -26 -54v-424h-156v418c0 23.333 -9.5 42.833 -28.5 58.5
s-44.833 23.5 -77.5 23.5c-34 0 -62.333 -8 -85 -24s-34 -37.333 -34 -64v-113h14c24 0 46.333 -4.16699 67 -12.5s38.667 -19.5 54 -33.5s27.333 -30.333 36 -49s13 -38.334 13 -59.001c0 -22 -4.33301 -42.5 -13 -61.5s-20.667 -35.333 -36 -49s-33.333 -24.5 -54 -32.5
s-43 -12 -67 -12c-23.333 0 -45.333 4 -66 12s-38.667 18.833 -54 32.5s-27.5 30 -36.5 49s-13.5 39.5 -13.5 61.5v263c0 36 7.66699 67.833 23 95.5s35.833 50.834 61.5 69.501s54.834 32.667 87.501 42s66.334 14 101.001 14c44 0 82.167 -7.66699 114.5 -23
s56.833 -34.333 73.5 -57c15.333 21.333 37.833 40 67.5 56s64.5 24 104.5 24c34.667 0 66.834 -4.5 96.501 -13.5s55.334 -22.167 77.001 -39.5s38.5 -38.833 50.5 -64.5s18 -55.5 18 -89.5v-252c10.667 4.66699 21.667 12.167 33 22.5s21.666 23 30.999 38
s17 32.167 23 51.5s9.66699 40.666 11 63.999c0.666992 29.333 0 56.5 -2 81.5l-6 72c-2 23 -3.33301 45.833 -4 68.5s1.33301 46.334 6 71.001c9.33301 46 28 86.333 56 121s60 62.667 96 84zM292.995 142.995c0 16.667 -5.83301 30.834 -17.5 42.501
s-25.834 17.5 -42.501 17.5c-16 0 -29.833 -5.83301 -41.5 -17.5s-17.5 -25.834 -17.5 -42.501c0 -16 5.83301 -29.833 17.5 -41.5s25.5 -17.5 41.5 -17.5c16.667 0 30.834 5.83301 42.501 17.5s17.5 25.5 17.5 41.5z" />
    <glyph glyph-name="uni0E58" unicode="&#xe58;" horiz-adv-x="934" 
d="M946 844c-4 -44.667 -11.168 -87.833 -21.501 -129.5s-25 -79 -44 -112s-43 -59.667 -72 -80s-64.5 -31.5 -106.5 -33.5c-25.333 -1.33301 -49.333 -0.833008 -72 1.5s-45.334 5.16602 -68.001 8.49902s-46 6.33301 -70 9s-49.333 4 -76 4
c-32 0 -61.333 -4.16699 -88 -12.5s-49.667 -20 -69 -35s-34.5 -33.167 -45.5 -54.5s-16.5 -45.333 -16.5 -72c0 -22 3.5 -42.667 10.5 -62s16 -37 27 -53s23.167 -29.833 36.5 -41.5s26 -20.834 38 -27.501l125 151c24 -31.333 48 -59.333 72 -84
c10 -10.667 20.667 -21 32 -31s22.5 -19 33.5 -27s21.667 -14.333 32 -19s20.166 -7 29.499 -7c4 0 7.66699 1.66699 11 5c2 1.33301 3.66699 3 5 5c-23.333 10.667 -42.833 26.834 -58.5 48.501s-23.5 47.834 -23.5 78.501c0 18.667 4.16699 36.667 12.5 54
s19.5 32.5 33.5 45.5s30.667 23.333 50 31s40 11.5 62 11.5c20.667 0 40.834 -3.83301 60.501 -11.5s37 -18.334 52 -32.001s27 -29.834 36 -48.501s13.5 -39.334 13.5 -62.001c0 -32.667 -7.16699 -65 -21.5 -97s-33.5 -60.5 -57.5 -85.5s-52 -45.167 -84 -60.5
s-65.667 -23 -101 -23c-16 0 -32.5 3 -49.5 9s-33.667 13.833 -50 23.5s-31.833 20.167 -46.5 31.5s-27.667 22 -39 32l-76 -104c-48 6 -91.667 18.833 -131 38.5s-73.166 44.834 -101.499 75.501s-50.166 66 -65.499 106s-23 83.333 -23 130
c0 48.667 9.33301 91.834 28 129.501s44.667 69.334 78 95.001s73 45.167 119 58.5s96.667 20 152 20c24 0 47.167 -1 69.5 -3s44 -4.16699 65 -6.5s41.667 -4.33301 62 -6s40.833 -1.83398 61.5 -0.500977c20 0.666992 36.667 7.33398 50 20.001s24.333 29 33 49
s15.5 43 20.5 69s8.83301 53 11.5 81h155zM783.999 268.001c0 16.667 -5.66699 30.834 -17 42.501s-25.333 17.5 -42 17.5s-30.667 -5.83301 -42 -17.5s-17 -25.834 -17 -42.501c0 -16 5.66699 -29.833 17 -41.5s25.333 -17.5 42 -17.5s30.667 5.83301 42 17.5
s17 25.5 17 41.5z" />
    <glyph glyph-name="uni0E59" unicode="&#xe59;" horiz-adv-x="1036" 
d="M1079 848c6 -46 6.49707 -89.8271 1.49707 -131.494s-12.667 -80.5 -23 -116.5s-22.666 -68.333 -36.999 -97s-28.166 -53 -41.499 -73l-80 12c-1.33301 6 -4.16602 12.833 -8.49902 20.5s-10.333 15 -18 22s-16.667 13 -27 18s-22.5 7.5 -36.5 7.5
c-18.667 0 -34 -4.66699 -46 -14s-20.667 -21 -26 -35c40 -60 71.833 -127.833 95.5 -203.5s41.834 -158.834 54.501 -249.501l-156 -20c-6 41.333 -13 83.166 -21 125.499s-18 83.166 -30 122.499s-26.333 76 -43 110s-36.334 63.667 -59.001 89s-49 45.166 -79 59.499
s-64 21.5 -102 21.5c-28 0 -54.167 -5 -78.5 -15s-45.5 -23.667 -63.5 -41s-32.167 -37.5 -42.5 -60.5s-15.5 -47.5 -15.5 -73.5c0 -37.333 5.83301 -67.833 17.5 -91.5s22.834 -41.167 33.501 -52.5c2 19.333 7.5 37.666 16.5 54.999s20.833 32.5 35.5 45.5
s31.5 23.167 50.5 30.5s39.5 11 61.5 11c22.667 0 43.667 -4.16699 63 -12.5s36.333 -19.5 51 -33.5s26.167 -30.333 34.5 -49s12.5 -38.334 12.5 -59.001c0 -27.333 -5.33301 -52.166 -16 -74.499s-25.5 -41.5 -44.5 -57.5s-41.167 -28.333 -66.5 -37s-52.333 -13 -81 -13
c-51.333 0 -97 9.5 -137 28.5s-73.833 44.333 -101.5 76s-48.834 67.667 -63.501 108s-22 82.166 -22 125.499c0 47.333 9 91 27 131s42.833 74.333 74.5 103s68.667 51 111 67s88.166 24 137.499 24c52 0 99.5 -6.83301 142.5 -20.5s79.5 -34.167 109.5 -61.5
c10.667 20.667 26.834 39.167 48.501 55.5s48.5 26.5 80.5 30.5c12.667 2 26 2.5 40 1.5s27.5 -3.16699 40.5 -6.5s25.167 -7.83301 36.5 -13.5s21 -12.5 29 -20.5c8 26 13.167 58.833 15.5 98.5s0.5 84.167 -5.5 133.5h151zM466.997 164.006
c0 16.667 -5.83301 30.667 -17.5 42s-25.5 17 -41.5 17c-16.667 0 -30.834 -5.66699 -42.501 -17s-17.5 -25.333 -17.5 -42s5.83301 -30.834 17.5 -42.501s25.834 -17.5 42.501 -17.5c16 0 29.833 5.83301 41.5 17.5s17.5 25.834 17.5 42.501z" />
    <glyph glyph-name="uni0E5A" unicode="&#xe5a;" horiz-adv-x="999" 
d="M805 0v819h133v-819h-133zM549 0v529.999c-13.333 -12 -28.833 -24 -46.5 -36s-37.334 -22.5 -59.001 -31.5s-45.167 -16.333 -70.5 -22s-52 -8.5 -80 -8.5c-32 0 -63.5 4.33301 -94.5 13s-59 21.834 -84 39.501s-45.167 39.5 -60.5 65.5s-23 56.333 -23 91
c0 42 11.5 76.667 34.5 104s52.333 47.666 88 60.999s74.667 19.833 117 19.5s82.5 -7.16602 120.5 -20.499v-131c-20 12 -41 19.667 -63 23s-42 3.16602 -60 -0.500977s-33 -10.5 -45 -20.5s-18 -22.333 -18 -37c0 -18.667 8.83301 -34 26.5 -46s38.834 -18 63.501 -18
c36 0 68.5 5.83301 97.5 17.5s54.333 28.334 76 50.001s39.5 47.5 53.5 77.5s23.667 63 29 99h172v-819h-174z" />
    <glyph glyph-name="uni0E5B" unicode="&#xe5b;" horiz-adv-x="1516" 
d="M1473 434c0 -24.667 -21.3301 -38.9961 -63.9971 -42.9961l-147 -18c-5.33301 -13.333 -12.833 -26 -22.5 -38s-20.834 -18 -33.501 -18c-11.333 0 -20.833 5.66699 -28.5 17s-16.5 25.666 -26.5 42.999c-5.33301 -22.667 -13.833 -42.334 -25.5 -59.001
s-25.167 -25 -40.5 -25c-14 0 -25.667 8.16699 -35 24.5l-32 55.5c-5.33301 -29.333 -14.333 -53.833 -27 -73.5s-28.334 -29.5 -47.001 -29.5c-9.33301 0 -17 3 -23 9s-11.167 14.167 -15.5 24.5s-8.66602 22.333 -12.999 36s-9.5 28.167 -15.5 43.5
c-13.333 -50 -27.833 -85.333 -43.5 -106s-34.834 -31 -57.501 -31c-14 0 -25.667 4.83301 -35 14.5s-16 25.167 -20 46.5c-3.33301 13.333 -6.16602 26.166 -8.49902 38.499s-5.83301 24.166 -10.5 35.499c-6 -22.667 -12.333 -43.5 -19 -62.5
s-14.334 -36.833 -23.001 -53.5s-18.167 -32.667 -28.5 -48s-22.166 -30.333 -35.499 -45c-34 -38 -72.5 -68 -115.5 -90s-86.5 -33 -130.5 -33c-42.667 0 -81.667 8.83301 -117 26.5s-65.833 42.667 -91.5 75s-45.5 71 -59.5 116s-21 94.833 -21 149.5
c0 52 6.83301 100.167 20.5 144.5s32.5 83 56.5 116s52.333 58.833 85 77.5s67.667 28 105 28c32 0 62 -6.83301 90 -20.5s52.333 -32.5 73 -56.5s36.834 -52.5 48.501 -85.5s17.5 -68.833 17.5 -107.5c0 -30.667 -3.83301 -59 -11.5 -85s-18.334 -48.333 -32.001 -67
s-29.667 -33.167 -48 -43.5s-38.166 -15.5 -59.499 -15.5c-19.333 0 -37.166 4 -53.499 12s-30.5 18.833 -42.5 32.5s-21.333 29.5 -28 47.5s-10 37.333 -10 58c0 20 3.5 39.167 10.5 57.5s16.5 34.166 28.5 47.499s25.833 24 41.5 32s32.5 12 50.5 12h7
c2 0 4.66699 -0.666992 8 -2c-6 20.667 -17 37.834 -33 51.501s-34.333 20.5 -55 20.5s-39.834 -6.5 -57.501 -19.5s-33 -31 -46 -54s-23.333 -50.667 -31 -83s-11.5 -67.5 -11.5 -105.5c0 -38.667 4.33301 -73.5 13 -104.5s20.834 -57.5 36.501 -79.5
s34.334 -38.833 56.001 -50.5s45.834 -17.5 72.501 -17.5c31.333 0 60.833 8.83301 88.5 26.5s52.667 42.667 75 75s41.5 71 57.5 116s27.667 94.5 35 148.5c5.33301 38 13.166 63.167 23.499 75.5s25.166 18.5 44.499 18.5s38.166 -11.667 56.499 -35
s33.5 -56.666 45.5 -99.999c1.33301 8.66699 2.5 17.167 3.5 25.5s1.5 17.833 1.5 28.5c1.33301 22.667 6 38.5 14 47.5s20.333 13.5 37 13.5c14 0 29.667 -8.33301 47 -25s33.666 -41 48.999 -73c3.33301 17.333 7.83301 31.833 13.5 43.5s16.167 17.5 31.5 17.5
c17.333 0 33.833 -8 49.5 -24s30.5 -37.333 44.5 -64c5.33301 15.333 11.666 28.666 18.999 39.999s18 17 32 17c9.33301 0 20 -4.66699 32 -14s24.667 -23.666 38 -42.999c5.33301 9.33301 12.166 16.5 20.499 21.5s18.5 6.83301 30.5 5.5l158 -19
c21.333 -2 37.333 -6.33301 48 -13s16 -17.334 16 -32.001zM453.003 453.004c0 16 -5 29.5 -15 40.5s-21.667 16.5 -35 16.5c-12 0 -22.5 -5.5 -31.5 -16.5s-13.5 -24.5 -13.5 -40.5c0 -16.667 4.5 -30.5 13.5 -41.5s19.5 -16.5 31.5 -16.5c13.333 0 25 5.5 35 16.5
s15 24.833 15 41.5z" />
    <glyph glyph-name="zerowidthnonjoiner" unicode="&#x200c;" 
 />
    <glyph glyph-name="zerowidthjoiner" unicode="&#x200d;" 
 />
    <glyph glyph-name="endash" unicode="&#x2013;" horiz-adv-x="766" 
d="M41 274v134h684v-134h-684z" />
    <glyph glyph-name="emdash" unicode="&#x2014;" horiz-adv-x="1532" 
d="M41 274v134h1450v-134h-1450z" />
    <glyph glyph-name="quoteleft" unicode="&#x2018;" horiz-adv-x="440" 
d="M348 748c0 -16.667 -2.99707 -32.3359 -8.99707 -47.0029s-14.333 -27.5 -25 -38.5s-23.5 -19.667 -38.5 -26s-31.167 -9.5 -48.5 -9.5c-42 0 -75 13.167 -99 39.5s-36 61.5 -36 105.5c0 18.667 2.83301 38.834 8.5 60.501s14.667 43.667 27 66
s28.666 44.666 48.999 66.999s45.5 43.833 75.5 64.5l82 -33c-20 -13.333 -37 -26.666 -51 -39.999s-25.333 -26 -34 -38s-15.334 -22.667 -20.001 -32s-7.33398 -17 -8.00098 -23c17.333 0.666992 33.666 -1.83301 48.999 -7.5s28.833 -13.667 40.5 -24
s20.834 -22.666 27.501 -36.999s10 -30.166 10 -47.499z" />
    <glyph glyph-name="quoteright" unicode="&#x2019;" horiz-adv-x="440" 
d="M348 885c0 -19.333 -2.83301 -39.668 -8.5 -61.001s-14.667 -43.166 -27 -65.499s-28.666 -44.666 -48.999 -66.999s-45.5 -43.833 -75.5 -64.5l-82 32c20 13.333 37 26.833 51 40.5s25.333 26.5 34 38.5s15.167 22.667 19.5 32s7.16602 17 8.49902 23
c-17.333 -0.666992 -33.666 1.83301 -48.999 7.5s-28.833 13.667 -40.5 24s-20.834 22.666 -27.501 36.999s-10 30.166 -10 47.499c0 16.667 3 32.334 9 47.001s14.333 27.5 25 38.5s23.5 19.667 38.5 26s31.167 9.5 48.5 9.5c42 0 75 -13.167 99 -39.5s36 -61.5 36 -105.5z
" />
    <glyph glyph-name="quotedblleft" unicode="&#x201c;" horiz-adv-x="758" 
d="M666 748c0 -16.667 -2.99902 -32.3359 -8.99902 -47.0029s-14.5 -27.5 -25.5 -38.5s-23.833 -19.667 -38.5 -26s-30.667 -9.5 -48 -9.5c-42 0 -75 13.167 -99 39.5s-36 61.5 -36 105.5c0 18.667 2.66699 38.834 8 60.501s14.333 43.667 27 66s29.167 44.666 49.5 66.999
s45.166 43.833 74.499 64.5l82 -33c-20 -13.333 -36.833 -26.666 -50.5 -39.999s-25 -26 -34 -38s-15.667 -22.667 -20 -32s-6.83301 -17 -7.5 -23c17.333 0.666992 33.666 -1.83301 48.999 -7.5s28.833 -13.667 40.5 -24s20.834 -22.666 27.501 -36.999
s10 -30.166 10 -47.499zM348.001 747.998c0 -16.667 -2.99707 -32.3359 -8.99707 -47.0029s-14.333 -27.5 -25 -38.5s-23.5 -19.667 -38.5 -26s-31.167 -9.5 -48.5 -9.5c-42 0 -75 13.167 -99 39.5s-36 61.5 -36 105.5c0 18.667 2.83301 38.834 8.5 60.501
s14.667 43.667 27 66s28.666 44.666 48.999 66.999s45.5 43.833 75.5 64.5l82 -33c-20 -13.333 -37 -26.666 -51 -39.999s-25.333 -26 -34 -38s-15.334 -22.667 -20.001 -32s-7.33398 -17 -8.00098 -23c17.333 0.666992 33.666 -1.83301 48.999 -7.5
s28.833 -13.667 40.5 -24s20.834 -22.666 27.501 -36.999s10 -30.166 10 -47.499z" />
    <glyph glyph-name="quotedblright" unicode="&#x201d;" horiz-adv-x="758" 
d="M666 885c0 -19.333 -2.83398 -39.668 -8.50098 -61.001s-14.667 -43.166 -27 -65.499s-28.666 -44.666 -48.999 -66.999s-45.5 -43.833 -75.5 -64.5l-82 32c20 13.333 36.833 26.833 50.5 40.5s25 26.5 34 38.5s15.667 22.667 20 32s7.16602 17 8.49902 23
c-17.333 -0.666992 -33.833 1.83301 -49.5 7.5s-29.167 13.667 -40.5 24s-20.333 22.666 -27 36.999s-10 30.166 -10 47.499c0 16.667 3 32.334 9 47.001s14.333 27.5 25 38.5s23.334 19.667 38.001 26s30.667 9.5 48 9.5c42 0 75.167 -13.167 99.5 -39.5
s36.5 -61.5 36.5 -105.5zM347.999 884.998c0 -19.333 -2.83301 -39.668 -8.5 -61.001s-14.667 -43.166 -27 -65.499s-28.666 -44.666 -48.999 -66.999s-45.5 -43.833 -75.5 -64.5l-82 32c20 13.333 37 26.833 51 40.5s25.333 26.5 34 38.5s15.167 22.667 19.5 32
s7.16602 17 8.49902 23c-17.333 -0.666992 -33.666 1.83301 -48.999 7.5s-28.833 13.667 -40.5 24s-20.834 22.666 -27.501 36.999s-10 30.166 -10 47.499c0 16.667 3 32.334 9 47.001s14.333 27.5 25 38.5s23.5 19.667 38.5 26s31.167 9.5 48.5 9.5
c42 0 75 -13.167 99 -39.5s36 -61.5 36 -105.5z" />
    <glyph glyph-name="bullet" unicode="&#x2022;" horiz-adv-x="737" 
d="M676 410c0 -42.667 -8 -82.667 -24 -120s-37.833 -70 -65.5 -98s-60.167 -50 -97.5 -66s-77.333 -24 -120 -24s-82.667 8 -120 24s-70 38 -98 66s-50 60.667 -66 98s-24 77.333 -24 120s8 82.667 24 120s38 69.833 66 97.5s60.667 49.5 98 65.5s77.333 24 120 24
s82.667 -8 120 -24s69.833 -37.833 97.5 -65.5s49.5 -60.167 65.5 -97.5s24 -77.333 24 -120z" />
    <glyph glyph-name="ellipsis" unicode="&#x2026;" horiz-adv-x="1143" 
d="M1061 98c0 -14.667 -2.83301 -28.5 -8.5 -41.5s-13.5 -24.5 -23.5 -34.5s-21.667 -17.833 -35 -23.5s-27.333 -8.5 -42 -8.5s-28.5 2.83301 -41.5 8.5s-24.5 13.5 -34.5 23.5s-17.833 21.5 -23.5 34.5s-8.5 26.833 -8.5 41.5s2.83301 28.667 8.5 42s13.5 25 23.5 35
s21.5 17.833 34.5 23.5s26.833 8.5 41.5 8.5s28.667 -2.83301 42 -8.5s25 -13.5 35 -23.5s17.833 -21.667 23.5 -35s8.5 -27.333 8.5 -42zM680 98c0 -14.667 -2.83301 -28.5 -8.5 -41.5s-13.5 -24.5 -23.5 -34.5s-21.667 -17.833 -35 -23.5s-27.333 -8.5 -42 -8.5
s-28.5 2.83301 -41.5 8.5s-24.5 13.5 -34.5 23.5s-17.833 21.5 -23.5 34.5s-8.5 26.833 -8.5 41.5s2.83301 28.667 8.5 42s13.5 25 23.5 35s21.5 17.833 34.5 23.5s26.833 8.5 41.5 8.5s28.667 -2.83301 42 -8.5s25 -13.5 35 -23.5s17.833 -21.667 23.5 -35
s8.5 -27.333 8.5 -42zM299 98c0 -14.667 -2.83301 -28.5 -8.5 -41.5s-13.5 -24.5 -23.5 -34.5s-21.667 -17.833 -35 -23.5s-27.333 -8.5 -42 -8.5s-28.5 2.83301 -41.5 8.5s-24.5 13.5 -34.5 23.5s-17.833 21.5 -23.5 34.5s-8.5 26.833 -8.5 41.5s2.83301 28.667 8.5 42
s13.5 25 23.5 35s21.5 17.833 34.5 23.5s26.833 8.5 41.5 8.5s28.667 -2.83301 42 -8.5s25 -13.5 35 -23.5s17.833 -21.667 23.5 -35s8.5 -27.333 8.5 -42z" />
    <glyph glyph-name="thothannobasethai" unicode="&#xf700;" horiz-adv-x="797" 
d="M752 459c0 -81.333 -12.833 -152.332 -38.5 -212.999s-61.667 -110.5 -108 -149.5s-101.333 -67 -165 -84s-133.5 -22.5 -209.5 -16.5l-114 450l-37 66h201l88 -354c28 4 54.5 14.167 79.5 30.5s46.833 37.666 65.5 63.999s33.5 57 44.5 92s16.5 73.167 16.5 114.5
c0 34.667 -5.16699 66.334 -15.5 95.001s-24.833 53.167 -43.5 73.5s-41.334 36.166 -68.001 47.499s-56 17 -88 17c-49.333 0 -92.166 -10 -128.499 -30s-62.166 -49.667 -77.499 -89h-170c5.33301 38 18 73 38 105s46.167 59.5 78.5 82.5s70.333 41 114 54
s92.167 19.5 145.5 19.5c26 0 50.5 -1.66699 73.5 -5s45.167 -8 66.5 -14c10 7.33301 19 17 27 29s12 24.333 12 37h186c0 -15.333 -2.83301 -29.833 -8.5 -43.5s-12.834 -26.167 -21.501 -37.5s-18.5 -21.5 -29.5 -30.5s-21.833 -16.167 -32.5 -21.5
c37.333 -32 66.5 -72 87.5 -120s31.5 -104.333 31.5 -169z" />
    <glyph glyph-name="saraileftthai" unicode="&#xf701;" 
d="M-956 922v110h624v-110h-624z" />
    <glyph glyph-name="saraiileftthai" unicode="&#xf702;" 
d="M-944 922v110h448v105h177v-215h-625z" />
    <glyph glyph-name="saraueleftthai" unicode="&#xf703;" 
d="M-279 1034c0 -32.667 -12.002 -59.5 -36.002 -80.5s-55 -31.5 -93 -31.5h-536v110h407c0 16.667 3.16699 32.167 9.5 46.5s15.333 26.5 27 36.5s25.334 17.833 41.001 23.5s32.834 8.5 51.501 8.5c38 0 69 -10.5 93 -31.5s36 -48.167 36 -81.5zM-360.002 1034
c0 12.667 -4.66699 23 -14 31s-20.666 12 -33.999 12s-24.5 -4 -33.5 -12s-13.5 -18.333 -13.5 -31c0 -12 4.5 -22.167 13.5 -30.5s20.167 -12.5 33.5 -12.5s24.666 4.16699 33.999 12.5s14 18.5 14 30.5z" />
    <glyph glyph-name="saraueeleftthai" unicode="&#xf704;" 
d="M-944 922v110h272v105h115v-105h61v105h177v-215h-625z" />
    <glyph glyph-name="maieklowleftthai" unicode="&#xf705;" 
d="M-516 922v215h176v-215h-176z" />
    <glyph glyph-name="maitholowleftthai" unicode="&#xf706;" 
d="M-616 922v39c0 19.333 -5.16699 34.333 -15.5 45s-25.833 16 -46.5 16h-31v113h148c42 0 72.667 -8.83301 92 -26.5s29 -43.167 29 -76.5h243v-110h-419z" />
    <glyph glyph-name="maitrilowleftthai" unicode="&#xf707;" 
d="M-500 922v96c0 30 -13.667 45 -41 45h-10l-90 -62l-92 62h-4c-14.667 0 -25.167 -4.5 -31.5 -13.5s-9.5 -19.5 -9.5 -31.5v-4h61v-92h-178v104c0 24 4.16699 45 12.5 63s20 33.167 35 45.5s32.333 21.5 52 27.5s41.167 9 64.5 9h14l78 -53l74 53h18
c22.667 0 43.834 -3 63.501 -9s36.667 -14.833 51 -26.5s25.666 -26.167 33.999 -43.5s12.833 -37.333 13.5 -60h96v-110h-211z" />
    <glyph glyph-name="maichattawalowleftthai" unicode="&#xf708;" 
d="M-391 1014v-92h-176v92h-99v86h99v92h176v-92h98v-86h-98z" />
    <glyph glyph-name="thanthakhatlowleftthai" unicode="&#xf709;" 
d="M-399 1006c-21.333 0 -38.667 -6 -52 -18s-20 -27.333 -20 -46v-20h-176v67c0 23.333 4.33301 43.666 13 60.999s20.334 31.833 35.001 43.5s31.667 20.334 51 26.001s39.666 8.5 60.999 8.5h188v-122h-100z" />
    <glyph glyph-name="maieklowrightthai" unicode="&#xf70a;" 
d="M-238 922v215h177v-215h-177z" />
    <glyph glyph-name="maitholowrightthai" unicode="&#xf70b;" 
d="M-373 922v39c0 19.333 -5 34.333 -15 45s-25.333 16 -46 16h-31v113h148c42 0 72.5 -8.83301 91.5 -26.5s28.5 -43.167 28.5 -76.5h244v-110h-420z" />
    <glyph glyph-name="maitrilowrightthai" unicode="&#xf70c;" 
d="M-264 922l-0.000976562 96c0 30 -13.667 45 -41 45h-10l-91 -62l-92 62h-4c-14 0 -24.333 -4.5 -31 -13.5s-10 -19.5 -10 -31.5v-4h62v-92h-178v104c0 24 4.16699 45 12.5 63s19.833 33.167 34.5 45.5s31.834 21.5 51.501 27.5s41.167 9 64.5 9h15l78 -53l73 53h19
c46 0 84 -12 114 -36s45.667 -58.333 47 -103h97v-110h-211z" />
    <glyph glyph-name="maichattawalowrightthai" unicode="&#xf70d;" 
d="M-160 1014v-92h-176v92h-98v86h98v92h176v-92h99v-86h-99z" />
    <glyph glyph-name="thanthakhatlowrightthai" unicode="&#xf70e;" 
d="M-141 1006c-21.333 0 -38.667 -6 -52 -18s-20 -27.333 -20 -46v-20h-176v67c0 23.333 4.33301 43.666 13 60.999s20.334 31.833 35.001 43.5s31.667 20.334 51 26.001s39.666 8.5 60.999 8.5h188v-122h-100z" />
    <glyph glyph-name="yoyingnobasethai" unicode="&#xf70f;" horiz-adv-x="1319" 
d="M1257 238c0 -48.667 -10.165 -89.333 -30.498 -122s-46.5 -58.667 -78.5 -78s-67.333 -33.166 -106 -41.499s-76 -12.5 -112 -12.5c-36.667 0 -74.334 4.16699 -113.001 12.5s-74 22.166 -106 41.499s-58.167 45.333 -78.5 78s-30.5 73.334 -30.5 122.001v309
c0 24.667 -4.66699 46 -14 64s-22.333 32.833 -39 44.5s-36.667 20.334 -60 26.001s-49 8.5 -77 8.5c-22 0 -42.833 -2 -62.5 -6s-37.5 -9.5 -53.5 -16.5s-29.667 -14.833 -41 -23.5s-20 -18 -26 -28c14.667 -9.33301 28.667 -20.333 42 -33s20 -26 20 -40
c0 -10.667 -2.83301 -20.167 -8.5 -28.5s-11.667 -16.666 -18 -24.999s-12.333 -17.166 -18 -26.499s-8.5 -20.333 -8.5 -33v-289h106v-141h-283v430c0 12 3.33301 22.167 10 30.5s14 16.166 22 23.499l22 21c6.66699 6.66699 10 14.334 10 23.001
c0 5.33301 -4.5 11.666 -13.5 18.999s-18.833 14.333 -29.5 21l-43 24c6.66699 39.333 21 74.166 43 104.499s49.667 55.666 83 75.999s71.166 35.666 113.499 45.999s87.5 15.5 135.5 15.5c48.667 0 95 -5.33301 139 -16s82.667 -27.167 116 -49.5
s59.833 -50.833 79.5 -85.5s29.5 -76 29.5 -124v-309c0 -23.333 4.5 -42.833 13.5 -58.5s20.667 -28.167 35 -37.5s30.5 -16.166 48.5 -20.499s36.333 -6.5 55 -6.5s37 2.16699 55 6.5s34.167 11.166 48.5 20.499s25.833 21.833 34.5 37.5s13 35.167 13 58.5v569h176v-581v0
z" />
    <glyph glyph-name="maihanakatleftthai" unicode="&#xf710;" 
d="M-668 922v200h176v-90h510v-110h-686z" />
    <glyph glyph-name="nikhahitleftthai" unicode="&#xf711;" 
d="M-274 1030c0 -34 -12.499 -61.999 -37.499 -83.999s-57.167 -33 -96.5 -33c-19.333 0 -37.166 3 -53.499 9s-30.333 14.167 -42 24.5s-20.834 22.666 -27.501 36.999s-10 29.833 -10 46.5s3.33301 32.167 10 46.5s15.834 26.833 27.501 37.5s25.667 18.834 42 24.501
s34.166 8.5 53.499 8.5s37.166 -2.83301 53.499 -8.5s30.5 -13.834 42.5 -24.501s21.333 -23.167 28 -37.5s10 -29.833 10 -46.5zM-355.999 1030c0 12.667 -5 23.334 -15 32.001s-22.333 13 -37 13c-14 0 -26 -4.33301 -36 -13s-15 -19.334 -15 -32.001
c0 -12 5 -22.5 15 -31.5s22 -13.5 36 -13.5c14.667 0 27 4.5 37 13.5s15 19.5 15 31.5z" />
    <glyph glyph-name="maitaikhuleftthai" unicode="&#xf712;" 
d="M-672 1120c-30 0 -53.833 -4.99707 -71.5 -14.9971s-26.5 -25.333 -26.5 -46c0 -9.33301 2 -17.333 6 -24s8 -11.667 12 -15h68l176 76l209 -84v-119l-205 86l-160 -68l-167 2c-8.66699 5.33301 -17.5 12.166 -26.5 20.499s-17.167 18.333 -24.5 30s-13.333 25 -18 40
s-7 31.5 -7 49.5c0 22 4.5 43.167 13.5 63.5s22.5 38.166 40.5 53.499s40.5 27.666 67.5 36.999s58.167 14 93.5 14h426v-101h-406z" />
    <glyph glyph-name="maiekupperleftthai" unicode="&#xf713;" 
d="M-496 1198v174h177v-174h-177z" />
    <glyph glyph-name="maithoupperleftthai" unicode="&#xf714;" 
d="M-575 1198v35c0 36.667 -18.667 55 -56 55h-28v101h133c38 0 65.5 -8 82.5 -24s25.5 -39 25.5 -69h219v-98h-376z" />
    <glyph glyph-name="maitriupperleftthai" unicode="&#xf715;" 
d="M-303 1198l-0.00195312 86.001c0 27.333 -12.333 41 -37 41h-10l-80 -55l-84 55h-2c-13.333 0 -23.166 -4 -29.499 -12s-8.83301 -17.667 -7.5 -29v-4h55v-82h-161v94c0 21.333 3.83301 40.166 11.5 56.499s18.167 30 31.5 41s28.833 19.333 46.5 25
s36.834 8.5 57.501 8.5h14l70 -49l66 49h16c42 0 76.333 -10.833 103 -32.5s40.667 -52.5 42 -92.5h88v-100h-190z" />
    <glyph glyph-name="maichattawaupperleftthai" unicode="&#xf716;" 
d="M-326 1270v-72h-159v72h-78v78h78v71h159v-71h78v-78h-78z" />
    <glyph glyph-name="thanthakhatupperleftthai" unicode="&#xf717;" 
d="M-348 1169c-19.333 0 -35.166 -5.33398 -47.499 -16.001s-18.5 -24.334 -18.5 -41.001v-18h-157v61c0 20.667 3.83301 38.834 11.5 54.501s18 28.834 31 39.501s28.167 18.5 45.5 23.5s35.666 7.5 54.999 7.5h170v-111h-90z" />
    <glyph glyph-name="saraulowthai" unicode="&#xf718;" 
d="M-238 -625v156h-81v111h258v-267h-177z" />
    <glyph glyph-name="sarauulowthai" unicode="&#xf719;" 
d="M-61 -489c0 -44.667 -18.667 -78.5 -56 -101.5s-91.333 -34.5 -162 -34.5c-74.667 0 -128 11.5 -160 34.5s-48 56.833 -48 101.5v20h-62v111h217v-131c0 -16.667 4.33301 -28.834 13 -36.501s20 -11.5 34 -11.5c14.667 0 26.167 3.83301 34.5 11.5
s12.5 19.834 12.5 36.501v131h177v-131v0z" />
    <glyph glyph-name="phinthulowthai" unicode="&#xf71a;" 
d="M-61 -473c0 -16 -3 -31 -9 -45s-14.333 -26.167 -25 -36.5s-22.834 -18.5 -36.501 -24.5s-28.5 -9 -44.5 -9s-31 3 -45 9s-26.167 14.167 -36.5 24.5s-18.5 22.5 -24.5 36.5s-9 29 -9 45s3 30.833 9 44.5s14.167 25.834 24.5 36.501s22.5 19 36.5 25s29 9 45 9
s30.833 -3 44.5 -9s25.834 -14.333 36.501 -25s19 -22.834 25 -36.501s9 -28.5 9 -44.5z" />
    <glyph glyph-name="F71B" unicode="&#xf71b;" 
 />
    <glyph glyph-name="F71C" unicode="&#xf71c;" 
 />
    <glyph glyph-name="lochula.short" unicode="&#xf71d;" 
 />
    <glyph glyph-name="fongmanfunnuthai" unicode="&#xf880;" 
 />
    <glyph glyph-name=".null" 
 />
    <glyph glyph-name="nonmarkingreturn" horiz-adv-x="512" 
 />
    <glyph glyph-name="uni0E33_1" horiz-adv-x="481" 
d="M244 0v578.004c0 18 -5.33301 34.167 -16 48.5s-26 26 -46 35s-44.5 14.833 -73.5 17.5s-61.833 1 -98.5 -5v143c56.667 9.33301 110 11.666 160 6.99902s93.5 -15.834 130.5 -33.501s66.167 -41.834 87.5 -72.501s32 -67.334 32 -110.001v-608h-176zM-274 1030
c0 -34 -12.499 -61.999 -37.499 -83.999s-57.167 -33 -96.5 -33c-19.333 0 -37.166 3 -53.499 9s-30.333 14.167 -42 24.5s-20.834 22.666 -27.501 36.999s-10 29.833 -10 46.5s3.33301 32.167 10 46.5s15.834 26.833 27.501 37.5s25.667 18.834 42 24.501
s34.166 8.5 53.499 8.5s37.166 -2.83301 53.499 -8.5s30.5 -13.834 42.5 -24.501s21.333 -23.167 28 -37.5s10 -29.833 10 -46.5zM-355.999 1030c0 12.667 -5 23.334 -15 32.001s-22.333 13 -37 13c-14 0 -26 -4.33301 -36 -13s-15 -19.334 -15 -32.001
c0 -12 5 -22.5 15 -31.5s22 -13.5 36 -13.5c14.667 0 27 4.5 37 13.5s15 19.5 15 31.5z" />
    <glyph glyph-name="uni0E4E_1" 
d="M-100 1329c-22.667 0.666992 -45.6611 0.333008 -68.9941 -1c-20.667 -1.33301 -43.334 -3.16602 -68.001 -5.49902s-48.667 -6.16602 -72 -11.499c-24.667 -6.66699 -45.834 -15 -63.501 -25s-26.5 -20.333 -26.5 -31c-0.666992 -12.667 5.16602 -21.667 17.499 -27
s26.166 -8.66602 41.499 -9.99902c17.333 -2 37.666 -2.33301 60.999 -1v-95c-20.667 1.33301 -41.334 1.66602 -62.001 0.999023c-17.333 -0.666992 -36.333 -2 -57 -4s-39.667 -5.66699 -57 -11c-11.333 -3.33301 -22 -7.5 -32 -12.5s-18.5 -10.5 -25.5 -16.5
s-12.167 -12.5 -15.5 -19.5s-4 -14.167 -2 -21.5s9 -12.166 21 -14.499s26.167 -2.33301 42.5 0s33.5 6.66602 51.5 12.999s34 14.5 48 24.5l54 -90c-21.333 -11.333 -43.333 -21 -66 -29c-19.333 -7.33301 -41.333 -13.333 -66 -18s-49.667 -5.33398 -75 -2.00098
c-42 5.33301 -74.667 18.666 -98 39.999s-35.666 45.333 -36.999 72c-0.666992 14.667 1.33301 28.5 6 41.5s11.167 25.167 19.5 36.5s18.333 21.5 30 30.5s24.5 16.5 38.5 22.5c10 5.33301 20.5 10 31.5 14s21.5 7 31.5 9c-8 7.33301 -14.667 16.5 -20 27.5
s-8 24.167 -8 39.5c0 12.667 3.16699 26 9.5 40s15.333 27.5 27 40.5s25.667 25.167 42 36.5s34.5 21 54.5 29c25.333 9.33301 54.666 16.5 87.999 21.5s65.333 8.5 96 10.5c36 2.66699 72.333 3.66699 109 3v-107v0z" />
    <glyph glyph-name="F881" 
 />
    <glyph glyph-name="F882" 
 />
    <glyph glyph-name="saraueesp2" 
d="M-586 1198v174h176v-174h-176zM-944 922v110h272v105h115v-105h61v105h177v-215h-625z" />
    <glyph glyph-name="saraisp" 
d="M-881 962v111h584v-111h-584z" />
    <glyph glyph-name="saraiisp" 
d="M-881 962v111h408v104h176v-215h-584z" />
    </font>
</defs>
</svg>
